<?xml version="1.0" encoding="UTF-8" standalone="no"?>
<svg
   width="16"
   height="16"
   viewBox="0 0 16 16"
   fill="none"
   version="1.1"
   id="svg147"
   sodipodi:docname="001-bolt.svg"
   inkscape:version="1.2.2 (732a01da63, 2022-12-09)"
   xmlns:inkscape="http://www.inkscape.org/namespaces/inkscape"
   xmlns:sodipodi="http://sodipodi.sourceforge.net/DTD/sodipodi-0.dtd"
   xmlns="http://www.w3.org/2000/svg"
   xmlns:svg="http://www.w3.org/2000/svg">
  <sodipodi:namedview
     id="namedview149"
     pagecolor="#ffffff"
     bordercolor="#000000"
     borderopacity="0.25"
     inkscape:showpageshadow="2"
     inkscape:pageopacity="0.0"
     inkscape:pagecheckerboard="0"
     inkscape:deskcolor="#d1d1d1"
     showgrid="false"
     inkscape:zoom="52.9375"
     inkscape:cx="8"
     inkscape:cy="8.0094451"
     inkscape:window-width="1920"
     inkscape:window-height="1027"
     inkscape:window-x="-8"
     inkscape:window-y="-8"
     inkscape:window-maximized="1"
     inkscape:current-layer="svg147" />
  <defs
     id="defs145">
    <clipPath
       id="clip0_222_3977">
      <rect
         width="16"
         height="16"
         fill="white"
         id="rect142" />
    </clipPath>
  </defs>
  <path
     d="m 11.918748,1.4031737 c 0.1844,-0.42812197 0.0469,-0.92812197 -0.3312,-1.20312197 -0.3782,-0.2750003 -0.8938,-0.2500003 -1.2469,0.05625 L 2.3406276,7.2563037 c -0.3125,0.275 -0.425,0.71562 -0.27813,1.10312 0.14688,0.3875 0.52188,0.65 0.9375,0.65 h 3.48438 l -2.40313,5.6062203 c -0.18437,0.4282 -0.04687,0.9282 0.33125,1.2032 0.37813,0.275 0.89375,0.25 1.24688,-0.0563 L 13.659348,8.7625537 c 0.3125,-0.275 0.425,-0.71563 0.2782,-1.10313 -0.1469,-0.3875 -0.5188,-0.64687 -0.9375,-0.64687 H 9.5156276 Z"
     fill="#007eef"
     id="path138" />
</svg>
