<?xml version="1.0" encoding="UTF-8" standalone="no"?>
<svg
   width="16"
   height="16"
   viewBox="0 0 16 16"
   fill="none"
   version="1.1"
   id="svg11"
   sodipodi:docname="004-brain.svg"
   inkscape:version="1.2.2 (732a01da63, 2022-12-09)"
   xmlns:inkscape="http://www.inkscape.org/namespaces/inkscape"
   xmlns:sodipodi="http://sodipodi.sourceforge.net/DTD/sodipodi-0.dtd"
   xmlns="http://www.w3.org/2000/svg"
   xmlns:svg="http://www.w3.org/2000/svg">
  <sodipodi:namedview
     id="namedview13"
     pagecolor="#ffffff"
     bordercolor="#000000"
     borderopacity="0.25"
     inkscape:showpageshadow="2"
     inkscape:pageopacity="0.0"
     inkscape:pagecheckerboard="0"
     inkscape:deskcolor="#d1d1d1"
     showgrid="false"
     inkscape:zoom="52.9375"
     inkscape:cx="8"
     inkscape:cy="8.0094451"
     inkscape:window-width="1920"
     inkscape:window-height="1027"
     inkscape:window-x="-8"
     inkscape:window-y="-8"
     inkscape:window-maximized="1"
     inkscape:current-layer="svg11" />
  <defs
     id="defs9">
    <clipPath
       id="clip0_222_4036">
      <rect
         width="16"
         height="16"
         fill="white"
         id="rect6" />
    </clipPath>
  </defs>
  <path
     d="m 5.75,0.0094451 c 0.96562,0 1.75,0.784375 1.75,1.75 V 14.259445 c 0,0.9656 -0.78438,1.75 -1.75,1.75 -0.90312,0 -1.64687,-0.6844 -1.74062,-1.5656 -0.1625,0.0437 -0.33438,0.0656 -0.50938,0.0656 -1.10313,0 -2,-0.8969 -2,-2 0,-0.2312 0.04062,-0.4563 0.1125,-0.6625 C 0.66875,11.490645 0,10.578245 0,9.5094451 0,8.5125751 0.584375,7.6500651 1.43125,7.2500651 1.15937,6.9094451 1,6.4781951 1,6.0094451 c 0,-0.95937 0.675,-1.75938 1.575,-1.95625 -0.05,-0.17188 -0.075,-0.35625 -0.075,-0.54375 0,-0.93438 0.64375,-1.72187 1.50938,-1.94062 0.09375,-0.875005 0.8375,-1.55938 1.74062,-1.55938 z m 4.5,0 c 0.9031,0 1.6438,0.684375 1.7406,1.55938 0.8688,0.21875 1.5094,1.00312 1.5094,1.94062 0,0.1875 -0.025,0.37187 -0.075,0.54375 0.9,0.19375 1.575,0.99688 1.575,1.95625 0,0.46875 -0.1594,0.9 -0.4312,1.24062 0.8468,0.4 1.4312,1.26251 1.4312,2.25938 0,1.0687999 -0.6687,1.9811999 -1.6125,2.3374999 0.0719,0.2062 0.1125,0.4313 0.1125,0.6625 0,1.1031 -0.8969,2 -2,2 -0.175,0 -0.3469,-0.0219 -0.5094,-0.0656 -0.0937,0.8812 -0.8375,1.5656 -1.7406,1.5656 -0.96562,0 -1.75,-0.7844 -1.75,-1.75 V 1.7594451 c 0,-0.965625 0.78438,-1.75 1.75,-1.75 z"
     fill="#007eef"
     id="path2" />
</svg>
