<?xml version="1.0" encoding="UTF-8" standalone="no"?>
<svg
   width="16"
   height="16"
   viewBox="0 0 16 16"
   fill="none"
   version="1.1"
   id="svg147"
   sodipodi:docname="007-chart-pie.svg"
   inkscape:version="1.2.2 (732a01da63, 2022-12-09)"
   xmlns:inkscape="http://www.inkscape.org/namespaces/inkscape"
   xmlns:sodipodi="http://sodipodi.sourceforge.net/DTD/sodipodi-0.dtd"
   xmlns="http://www.w3.org/2000/svg"
   xmlns:svg="http://www.w3.org/2000/svg">
  <sodipodi:namedview
     id="namedview149"
     pagecolor="#ffffff"
     bordercolor="#000000"
     borderopacity="0.25"
     inkscape:showpageshadow="2"
     inkscape:pageopacity="0.0"
     inkscape:pagecheckerboard="0"
     inkscape:deskcolor="#d1d1d1"
     showgrid="false"
     inkscape:zoom="52.9375"
     inkscape:cx="8"
     inkscape:cy="8.0094451"
     inkscape:window-width="1920"
     inkscape:window-height="1027"
     inkscape:window-x="-8"
     inkscape:window-y="-8"
     inkscape:window-maximized="1"
     inkscape:current-layer="svg147" />
  <defs
     id="defs145">
    <clipPath
       id="clip0_222_4021">
      <rect
         width="16"
         height="16"
         fill="white"
         id="rect142" />
    </clipPath>
  </defs>
  <path
     d="m 8.0305619,7.5370351 v -6.595689 c 0,-0.265718 0.20666,-0.490101 0.47238,-0.490101 3.6521501,0 6.6134501,2.96127 6.6134501,6.61341 0,0.26571 -0.2244,0.47238 -0.4901,0.47238 z M -8.1069143e-6,8.4818151 c 0,-3.58128 2.6601200069143,-6.54551 6.1115000069143,-7.01789 0.27162,-0.038383 0.50191,0.1801 0.50191,0.45467 v 7.0356 l 4.6204901,4.6205499 c 0.1978,0.1978 0.1831,0.5226 -0.0443,0.682 -1.1573,0.8267 -2.5744601,1.3109 -4.1038101,1.3109 -3.91195,0 -7.0857900069143,-3.1709 -7.0857900069143,-7.0858299 z M 15.541492,8.9541951 c 0.2746,0 0.4901,0.23029 0.4547,0.50191 -0.2274,1.6504399 -1.0216,3.1177399 -2.1819,4.2012399 -0.1771,0.1654 -0.4546,0.1536 -0.6259,-0.0206 L 8.5029419,8.9541951 Z"
     fill="#007eef"
     id="path138" />
</svg>
