<?xml version="1.0" encoding="UTF-8" standalone="no"?>
<svg
   width="16"
   height="16"
   viewBox="0 0 16 16"
   fill="none"
   version="1.1"
   id="svg11"
   sodipodi:docname="008-chart-simple.svg"
   inkscape:version="1.2.2 (732a01da63, 2022-12-09)"
   xmlns:inkscape="http://www.inkscape.org/namespaces/inkscape"
   xmlns:sodipodi="http://sodipodi.sourceforge.net/DTD/sodipodi-0.dtd"
   xmlns="http://www.w3.org/2000/svg"
   xmlns:svg="http://www.w3.org/2000/svg">
  <sodipodi:namedview
     id="namedview13"
     pagecolor="#ffffff"
     bordercolor="#000000"
     borderopacity="0.25"
     inkscape:showpageshadow="2"
     inkscape:pageopacity="0.0"
     inkscape:pagecheckerboard="0"
     inkscape:deskcolor="#d1d1d1"
     showgrid="false"
     inkscape:zoom="52.9375"
     inkscape:cx="8"
     inkscape:cy="8.0094451"
     inkscape:window-width="1920"
     inkscape:window-height="1027"
     inkscape:window-x="-8"
     inkscape:window-y="-8"
     inkscape:window-maximized="1"
     inkscape:current-layer="svg11" />
  <defs
     id="defs9">
    <clipPath
       id="clip0_222_4011">
      <rect
         width="16"
         height="16"
         fill="white"
         id="rect6" />
    </clipPath>
  </defs>
  <path
     d="m 5.71429,1.7237351 c 0,-0.946433 0.76785,-1.71429 1.71428,-1.71429 h 1.14286 c 0.94643,0 1.71427,0.767857 1.71427,1.71429 V 14.295145 c 0,0.9464 -0.76784,1.7143 -1.71427,1.7143 H 7.42857 c -0.94643,0 -1.71428,-0.7679 -1.71428,-1.7143 z M 0,8.5808751 c 0,-0.94643 0.767857,-1.71429 1.71429,-1.71429 h 1.14285 c 0.94643,0 1.71429,0.76786 1.71429,1.71429 v 5.7142699 c 0,0.9464 -0.76786,1.7143 -1.71429,1.7143 H 1.71429 C 0.767857,16.009445 0,15.241545 0,14.295145 Z m 13.1429,-6.28572 h 1.1428 c 0.9464,0 1.7143,0.76786 1.7143,1.71429 V 14.295145 c 0,0.9464 -0.7679,1.7143 -1.7143,1.7143 h -1.1428 c -0.9465,0 -1.7143,-0.7679 -1.7143,-1.7143 V 4.0094451 c 0,-0.94643 0.7678,-1.71429 1.7143,-1.71429 z"
     fill="#007eef"
     id="path2" />
</svg>
