<?xml version="1.0" encoding="UTF-8" standalone="no"?>
<svg
   width="16"
   height="16"
   viewBox="0 0 16 16"
   fill="none"
   version="1.1"
   id="svg11"
   sodipodi:docname="011-feather-alt.svg"
   inkscape:version="1.2.2 (732a01da63, 2022-12-09)"
   xmlns:inkscape="http://www.inkscape.org/namespaces/inkscape"
   xmlns:sodipodi="http://sodipodi.sourceforge.net/DTD/sodipodi-0.dtd"
   xmlns="http://www.w3.org/2000/svg"
   xmlns:svg="http://www.w3.org/2000/svg">
  <sodipodi:namedview
     id="namedview13"
     pagecolor="#ffffff"
     bordercolor="#000000"
     borderopacity="0.25"
     inkscape:showpageshadow="2"
     inkscape:pageopacity="0.0"
     inkscape:pagecheckerboard="0"
     inkscape:deskcolor="#d1d1d1"
     showgrid="false"
     inkscape:zoom="52.9375"
     inkscape:cx="8"
     inkscape:cy="8.0094451"
     inkscape:window-width="1920"
     inkscape:window-height="1027"
     inkscape:window-x="-8"
     inkscape:window-y="-8"
     inkscape:window-maximized="1"
     inkscape:current-layer="svg11" />
  <defs
     id="defs9">
    <clipPath
       id="clip0_222_4009">
      <rect
         width="16"
         height="16"
         fill="white"
         id="rect6" />
    </clipPath>
  </defs>
  <path
     d="m 15.999928,0.0094951 c -1.6181,0.11125 -12.9862601,1.19375 -13.7809501,8.98781 -0.09656,0.83313 -0.15125,1.6699899 -0.18719,2.5074899 l 5.58969,-5.5840499 c 0.19531,-0.19531 0.5125,-0.19531 0.70781,0 0.19532,0.19531 0.19532,0.51187 0,0.70719 L 0.21991591,14.729195 c -0.2931251,0.2928 -0.2931251,0.7678 0,1.0606 0.293125,0.2928 0.768437,0.2928 1.06187199,0 l 1.78532,-1.7834 c 1.31531,-0.0044 2.62968,-0.0791 3.93625,-0.23 1.67125,-0.17 3.0318701,-0.8272 4.1431701,-1.7669 H 7.9917879 l 4.5872401,-1.5275 c 0.3515,-0.4653 0.6678,-0.9596899 0.9515,-1.4724999 h -2.5356 l 3.3294,-1.66281 c 1.3097,-3.18532 1.619,-6.516565 1.6756,-7.33719 z"
     fill="#007eef"
     id="path2" />
</svg>
