<?xml version="1.0" encoding="UTF-8" standalone="no"?>
<svg
   width="16"
   height="16"
   viewBox="0 0 16 16"
   fill="none"
   version="1.1"
   id="svg11"
   sodipodi:docname="013-football.svg"
   inkscape:version="1.2.2 (732a01da63, 2022-12-09)"
   xmlns:inkscape="http://www.inkscape.org/namespaces/inkscape"
   xmlns:sodipodi="http://sodipodi.sourceforge.net/DTD/sodipodi-0.dtd"
   xmlns="http://www.w3.org/2000/svg"
   xmlns:svg="http://www.w3.org/2000/svg">
  <sodipodi:namedview
     id="namedview13"
     pagecolor="#ffffff"
     bordercolor="#000000"
     borderopacity="0.25"
     inkscape:showpageshadow="2"
     inkscape:pageopacity="0.0"
     inkscape:pagecheckerboard="0"
     inkscape:deskcolor="#d1d1d1"
     showgrid="false"
     inkscape:zoom="52.9375"
     inkscape:cx="8"
     inkscape:cy="8.0094451"
     inkscape:window-width="1920"
     inkscape:window-height="1027"
     inkscape:window-x="-8"
     inkscape:window-y="-8"
     inkscape:window-maximized="1"
     inkscape:current-layer="svg11" />
  <defs
     id="defs9">
    <clipPath
       id="clip0_222_4017">
      <rect
         width="16"
         height="16"
         fill="white"
         id="rect6" />
    </clipPath>
  </defs>
  <path
     d="m 7.7190492,0.38750783 c -0.44621,0.109073 -0.87259,0.237978 -1.27583,0.386715 -2.18147,0.80979097 -3.7085,2.19800097 -4.72322,3.85063097 -0.60486,0.98497 -1.02132999,2.05918 -1.29566199,3.15322 L 8.2809492,15.631344 c 0.44621,-0.109 0.87259,-0.2379 1.27583,-0.3867 2.1814698,-0.8098 3.7084698,-2.198 4.7232698,-3.8506 0.6048,-0.985 1.0213,-2.0591902 1.2923,-3.1499302 z M 15.906149,6.3336738 c 0.2017,-1.87739 0.0463,-3.7085 -0.2545,-5.16943 -0.0892,-0.42637797 -0.4297,-0.75690497 -0.8626,-0.82962097 -1.9237,-0.32061003 -3.6325,-0.3966311 -5.1429998,-0.2611153 z M 6.3506692,15.942044 0.09381021,9.6852138 c -0.201621,1.8774302 -0.046273,3.7085302 0.254506,5.1694302 0.089242,0.4264 0.429683,0.7569 0.86267299,0.8296 1.92366,0.3206 3.63248,0.3967 5.14299,0.2611 z m 1.80468,-10.9503102 c 0.20492,-0.20492 0.54206,-0.20492 0.74699,0 l 2.1154098,2.11537 c 0.2049,0.20493 0.2049,0.54207 0,0.74699 -0.205,0.20493 -0.5421,0.20493 -0.747,0 l -2.1153998,-2.11537 c -0.20493,-0.20492 -0.20493,-0.54206 0,-0.74699 z m -1.58653,1.58653 c 0.20493,-0.20493 0.54207,-0.20493 0.74699,0 l 2.11537,2.11537 c 0.20497,0.20493 0.20497,0.54206 0,0.74699 -0.20493,0.20492 -0.54206,0.20492 -0.74699,0 l -2.11537,-2.11537 c -0.20492,-0.20493 -0.20492,-0.54206 0,-0.74699 z m -1.58652,1.58653 c 0.20492,-0.20493 0.54206,-0.20493 0.74699,0 l 2.11536,2.1153502 c 0.20493,0.2049 0.20493,0.5421 0,0.747 -0.20492,0.2049 -0.54206,0.2049 -0.74699,0 l -2.11536,-2.1153602 c -0.20493,-0.20493 -0.20493,-0.54207 0,-0.74699 z"
     fill="#007eef"
     id="path2" />
</svg>
