<?xml version="1.0" encoding="UTF-8" standalone="no"?>
<svg
   width="16"
   height="16"
   viewBox="0 0 16 16"
   fill="none"
   version="1.1"
   id="svg399"
   sodipodi:docname="014-gavel.svg"
   inkscape:version="1.2.2 (732a01da63, 2022-12-09)"
   xmlns:inkscape="http://www.inkscape.org/namespaces/inkscape"
   xmlns:sodipodi="http://sodipodi.sourceforge.net/DTD/sodipodi-0.dtd"
   xmlns="http://www.w3.org/2000/svg"
   xmlns:svg="http://www.w3.org/2000/svg">
  <sodipodi:namedview
     id="namedview401"
     pagecolor="#ffffff"
     bordercolor="#000000"
     borderopacity="0.25"
     inkscape:showpageshadow="2"
     inkscape:pageopacity="0.0"
     inkscape:pagecheckerboard="0"
     inkscape:deskcolor="#d1d1d1"
     showgrid="false"
     inkscape:zoom="52.9375"
     inkscape:cx="8"
     inkscape:cy="8.0094451"
     inkscape:window-width="1920"
     inkscape:window-height="1027"
     inkscape:window-x="-8"
     inkscape:window-y="-8"
     inkscape:window-maximized="1"
     inkscape:current-layer="svg399" />
  <defs
     id="defs397">
    <clipPath
       id="clip0_222_3990">
      <rect
         width="16"
         height="16"
         fill="white"
         id="rect394" />
    </clipPath>
  </defs>
  <path
     d="m 15.780313,6.2395101 -0.7071,-0.7071 c -0.2929,-0.2929 -0.7677,-0.2929 -1.0606,0 l -0.1768,0.17678 -3.5356,-3.53553 0.1768,-0.17678 c 0.2929,-0.29291 0.2929,-0.76778 0,-1.06065502 l -0.7070704,-0.707125 c -0.2929101,-0.2929066 -0.76778,-0.2929066 -1.0606601,0 l -3.88909,3.88909002 c -0.29291,0.29291 -0.29291,0.76778 0,1.06066 l 0.70709,0.70709 c 0.29291,0.29291 0.76778,0.29291 1.06066,0 l 0.17678,-0.17678 1.2374401,1.23744 -2.5325001,2.5325 -0.17678,-0.17678 c -0.39053,-0.39053 -1.02369,-0.39053 -1.41422,0 L 0.29291055,12.88812 c -0.3905308,0.3905 -0.3905308,1.0237 0,1.4142 l 1.41422195,1.4142 c 0.3905301,0.3906 1.02368,0.3906 1.4142201,0 l 3.5857799,-3.5857 c 0.39053,-0.3906 0.39053,-1.0237 0,-1.4143 l -0.17678,-0.1767 2.5325,-2.5325299 1.2374605,1.23743 -0.1768,0.17679 c -0.2929104,0.2929 -0.2929104,0.7678099 0,1.0606099 l 0.7071,0.7071 c 0.2929,0.2929 0.7678,0.2929 1.0606,0 l 3.8891,-3.8890599 c 0.2929,-0.29287 0.2929,-0.76775 0,-1.06065 z"
     fill="#007eef"
     id="path390" />
</svg>
