<?xml version="1.0" encoding="UTF-8" standalone="no"?>
<svg
   width="16"
   height="16"
   viewBox="0 0 16 16"
   fill="none"
   version="1.1"
   id="svg11"
   sodipodi:docname="015-globe-americas.svg"
   inkscape:version="1.2.2 (732a01da63, 2022-12-09)"
   xmlns:inkscape="http://www.inkscape.org/namespaces/inkscape"
   xmlns:sodipodi="http://sodipodi.sourceforge.net/DTD/sodipodi-0.dtd"
   xmlns="http://www.w3.org/2000/svg"
   xmlns:svg="http://www.w3.org/2000/svg">
  <sodipodi:namedview
     id="namedview13"
     pagecolor="#ffffff"
     bordercolor="#000000"
     borderopacity="0.25"
     inkscape:showpageshadow="2"
     inkscape:pageopacity="0.0"
     inkscape:pagecheckerboard="0"
     inkscape:deskcolor="#d1d1d1"
     showgrid="false"
     inkscape:zoom="52.9375"
     inkscape:cx="8"
     inkscape:cy="8.0094451"
     inkscape:window-width="1920"
     inkscape:window-height="1027"
     inkscape:window-x="-8"
     inkscape:window-y="-8"
     inkscape:window-maximized="1"
     inkscape:current-layer="svg11" />
  <defs
     id="defs9">
    <clipPath
       id="clip0_222_3973">
      <rect
         width="16"
         height="16"
         fill="white"
         id="rect6" />
    </clipPath>
  </defs>
  <path
     d="m 8,0.0094451 c -4.41839,0 -8,3.58161 -8,8 0,4.4183999 3.58161,7.9999999 8,7.9999999 4.4184,0 8,-3.5816 8,-7.9999999 0,-4.41839 -3.5816,-8 -8,-8 z m 2.6545,11.5354999 c -0.1258,0.1251 -0.2577,0.2564 -0.3648,0.3639 -0.0965,0.0967 -0.1645,0.2161 -0.1991,0.3454 -0.0487,0.1826 -0.088,0.3671 -0.15383,0.5442 l -0.56096,1.5113 c -0.44387,0.0968 -0.90323,0.1513 -1.37581,0.1513 v -0.8832 c 0.05452,-0.4071 -0.24645,-1.1697 -0.73,-1.6532 -0.19355,-0.1936 -0.30226,-0.4562 -0.30226,-0.73 v -1.0326 c 0,-0.3754999 -0.20226,-0.7206599 -0.53097,-0.9022799 -0.46354,-0.25645 -1.1229,-0.61484 -1.57451,-0.84226 -0.37032,-0.18645 -0.71291,-0.42387 -1.02097,-0.70161 l -0.02581,-0.02322 c -0.2203,-0.19886 -0.4159,-0.42349 -0.58258,-0.66904 -0.30258,-0.44419 -0.79548,-1.17484 -1.1158,-1.64967 0.66032,-1.46775 1.85032,-2.64646 3.32903,-3.28678 l 0.77451,0.38742 c 0.34323,0.17161 0.7471,-0.07774 0.7471,-0.46161 v -0.36452 c 0.25774,-0.04161 0.52,-0.06806 0.78678,-0.07806 l 0.9129,0.9129 c 0.20161,0.20161 0.20161,0.52839 0,0.73 l -0.15129,0.15097 -0.33355,0.33355 c -0.10065,0.10064 -0.10065,0.26419 0,0.36484 l 0.15129,0.15129 c 0.10065,0.10064 0.10065,0.26419 0,0.36483 l -0.25806,0.25807 c -0.04846,0.04836 -0.11413,0.07551 -0.18258,0.07548 h -0.29 c -0.0671,0 -0.13162,0.02613 -0.18,0.07323 l -0.32,0.31129 c -0.03923,0.0382 -0.0653,0.08787 -0.07447,0.14185 -0.00916,0.05398 -9.3e-4,0.10947 0.0235,0.15847 l 0.5029,1.00613 c 0.08581,0.17161 -0.03903,0.37355 -0.23064,0.37355 H 7.14258 c -0.06226,0 -0.12226,-0.02258 -0.16903,-0.06323 l -0.29936,-0.26 c -0.06774,-0.05876 -0.14961,-0.09889 -0.23756,-0.11642 -0.08795,-0.01754 -0.17895,-0.01187 -0.26405,0.01642 l -1.00548,0.33516 c -0.07677,0.0256 -0.14353,0.07471 -0.19083,0.14036 -0.04731,0.06566 -0.07275,0.14453 -0.07272,0.22545 0,0.14613 0.08258,0.27936 0.21322,0.34484 l 0.35742,0.17871 c 0.30355,0.15193 0.63839,0.23097 0.97775,0.23097 0.33935,0 0.7287,0.88032 1.03225,1.03225 h 2.15323 c 0.27387,0 0.53608,0.10871 0.72998,0.30226 l 0.4416,0.44162 c 0.1845,0.18456 0.2881,0.4348899 0.2881,0.6957899 -10e-5,0.1978 -0.0392,0.3935 -0.1152,0.5761 -0.0759,0.1826 -0.1872,0.3483 -0.3274,0.4878 z m 2.7971,-2.9467899 c -0.1868,-0.04678 -0.3497,-0.16129 -0.4564,-0.32161 l -0.58,-0.87 c -0.0849,-0.12711 -0.1302,-0.27652 -0.1302,-0.42936 0,-0.15284 0.0453,-0.30224 0.1302,-0.42935 l 0.6319,-0.94775 c 0.0748,-0.11193 0.1774,-0.2029 0.2981,-0.2629 l 0.4187,-0.20935 c 0.4361,0.86838 0.6877,1.84516 0.6877,2.88161 0,0.27968 -0.0239,0.55355 -0.0587,0.82387 z"
     fill="#007eef"
     id="path2" />
</svg>
