<?xml version="1.0" encoding="UTF-8" standalone="no"?>
<svg
   width="16"
   height="16"
   viewBox="0 0 16 16"
   fill="none"
   version="1.1"
   id="svg147"
   sodipodi:docname="016-hamsa.svg"
   inkscape:version="1.2.2 (732a01da63, 2022-12-09)"
   xmlns:inkscape="http://www.inkscape.org/namespaces/inkscape"
   xmlns:sodipodi="http://sodipodi.sourceforge.net/DTD/sodipodi-0.dtd"
   xmlns="http://www.w3.org/2000/svg"
   xmlns:svg="http://www.w3.org/2000/svg">
  <sodipodi:namedview
     id="namedview149"
     pagecolor="#ffffff"
     bordercolor="#000000"
     borderopacity="0.25"
     inkscape:showpageshadow="2"
     inkscape:pageopacity="0.0"
     inkscape:pagecheckerboard="0"
     inkscape:deskcolor="#d1d1d1"
     showgrid="false"
     inkscape:zoom="52.9375"
     inkscape:cx="8"
     inkscape:cy="8.0094451"
     inkscape:window-width="1920"
     inkscape:window-height="1027"
     inkscape:window-x="-8"
     inkscape:window-y="-8"
     inkscape:window-maximized="1"
     inkscape:current-layer="svg147" />
  <defs
     id="defs145">
    <clipPath
       id="clip0_222_4032">
      <rect
         width="16"
         height="16"
         fill="white"
         id="rect142" />
    </clipPath>
  </defs>
  <path
     d="M 1.08125,9.0094451 H 2.5 c 0.275,0 0.5,-0.225 0.5,-0.5 v -6.25 c 0,-0.69062 0.55938,-1.25 1.25,-1.25 0.69063,0 1.25,0.55938 1.25,1.25 v 4.125 c 0,0.34375 0.28125,0.625 0.625,0.625 0.34375,0 0.625,-0.28125 0.625,-0.625 v -5.125 c 0,-0.690625 0.55937,-1.25 1.25,-1.25 0.69063,0 1.25,0.559375 1.25,1.25 v 5.125 c 0,0.34375 0.28125,0.625 0.625,0.625 0.3438,0 0.625,-0.28125 0.625,-0.625 v -4.125 c 0,-0.69062 0.5594,-1.25 1.25,-1.25 0.6906,0 1.25,0.55938 1.25,1.25 v 6.25 c 0,0.275 0.225,0.5 0.5,0.5 h 1.4187 c 0.5969,0 1.0813,0.48438 1.0813,1.0812999 0,0.2687 -0.1,0.5281 -0.2812,0.7281 l -2.7,2.9718 c -1.2844,1.4126 -3.1063,2.2188 -5.0188,2.2188 -1.9125,0 -3.73125,-0.8062 -5.01875,-2.2188 l -2.7,-2.9718 C 0.1,10.618845 0,10.359445 0,10.090745 0,9.4938251 0.484375,9.0094451 1.08125,9.0094451 Z m 6.91875,0 c -1.2,0 -2.4,1.1187999 -2.83125,1.5687999 C 5.05625,10.693845 5,10.850045 5,11.009445 c 0,0.1594 0.05625,0.3156 0.16875,0.4312 0.43125,0.45 1.63125,1.5688 2.83125,1.5688 1.2,0 2.4,-1.1188 2.8313,-1.5688 0.1125,-0.1156 0.1687,-0.2718 0.1687,-0.4312 0,-0.1594 -0.0562,-0.3156 -0.1687,-0.4312 C 10.4,10.128245 9.2,9.0094451 8,9.0094451 Z m 0,2.9999999 c -0.55312,0 -1,-0.4469 -1,-1 0,-0.5531 0.44688,-1 1,-1 0.55313,0 1,0.4469 1,1 0,0.5531 -0.44687,1 -1,1 z"
     fill="#007eef"
     id="path138" />
</svg>
