<?xml version="1.0" encoding="UTF-8" standalone="no"?>
<svg
   width="16"
   height="16"
   viewBox="0 0 16 16"
   fill="none"
   version="1.1"
   id="svg4"
   sodipodi:docname="024-microscope.svg"
   inkscape:version="1.2.2 (732a01da63, 2022-12-09)"
   xmlns:inkscape="http://www.inkscape.org/namespaces/inkscape"
   xmlns:sodipodi="http://sodipodi.sourceforge.net/DTD/sodipodi-0.dtd"
   xmlns="http://www.w3.org/2000/svg"
   xmlns:svg="http://www.w3.org/2000/svg">
  <defs
     id="defs8" />
  <sodipodi:namedview
     id="namedview6"
     pagecolor="#ffffff"
     bordercolor="#000000"
     borderopacity="0.25"
     inkscape:showpageshadow="2"
     inkscape:pageopacity="0.0"
     inkscape:pagecheckerboard="0"
     inkscape:deskcolor="#d1d1d1"
     showgrid="false"
     inkscape:zoom="52.9375"
     inkscape:cx="8.0188902"
     inkscape:cy="8.0094451"
     inkscape:window-width="1920"
     inkscape:window-height="1027"
     inkscape:window-x="-8"
     inkscape:window-y="-8"
     inkscape:window-maximized="1"
     inkscape:current-layer="svg4" />
  <path
     d="m 5.0188902,10.009445 h 0.375 v 0.5 a 0.5,0.5 0 0 0 0.5,0.5 h 1.25 a 0.5,0.5 0 0 0 0.5,-0.5 v -0.5 h 0.375 a 1,1 0 0 0 1,-0.9999999 v -7 a 1,1 0 0 0 -1,-1 v -0.5 a 0.5,0.5 0 0 0 -0.5,-0.5 h -2 a 0.5,0.5 0 0 0 -0.5,0.5 v 0.5 a 1,1 0 0 0 -1,1 v 7 a 1,1 0 0 0 1,0.9999999 z m 9.4999998,4 h -0.04 a 5.97,5.97 0 0 0 1.54,-4 c 0,-3.3089999 -2.691,-5.9999999 -6,-5.9999999 v 2 c 2.206,0 4,1.794 4,3.9999999 0,2.206 -1.794,4 -4,4 H 1.5188902 a 1.5,1.5 0 0 0 -1.5,1.5 0.5,0.5 0 0 0 0.5,0.5 H 15.51889 a 0.5,0.5 0 0 0 0.5,-0.5 1.5,1.5 0 0 0 -1.5,-1.5 z m -11.2499998,-1 h 6.5 a 0.25,0.25 0 0 0 0.2499998,-0.25 v -0.5 a 0.25,0.25 0 0 0 -0.2499998,-0.25 h -6.5 a 0.25,0.25 0 0 0 -0.25,0.25 v 0.5 c 0,0.138 0.112,0.25 0.25,0.25 z"
     fill="#007eef"
     id="path2" />
</svg>
