<?xml version="1.0" encoding="UTF-8" standalone="no"?>
<svg
   width="16"
   height="16"
   viewBox="0 0 16 16"
   fill="none"
   version="1.1"
   id="svg11"
   sodipodi:docname="025-paperclip.svg"
   inkscape:version="1.2.2 (732a01da63, 2022-12-09)"
   xmlns:inkscape="http://www.inkscape.org/namespaces/inkscape"
   xmlns:sodipodi="http://sodipodi.sourceforge.net/DTD/sodipodi-0.dtd"
   xmlns="http://www.w3.org/2000/svg"
   xmlns:svg="http://www.w3.org/2000/svg">
  <sodipodi:namedview
     id="namedview13"
     pagecolor="#ffffff"
     bordercolor="#000000"
     borderopacity="0.25"
     inkscape:showpageshadow="2"
     inkscape:pageopacity="0.0"
     inkscape:pagecheckerboard="0"
     inkscape:deskcolor="#d1d1d1"
     showgrid="false"
     inkscape:zoom="52.9375"
     inkscape:cx="8"
     inkscape:cy="8.0094451"
     inkscape:window-width="1920"
     inkscape:window-height="1027"
     inkscape:window-x="-8"
     inkscape:window-y="-8"
     inkscape:window-maximized="1"
     inkscape:current-layer="svg11" />
  <defs
     id="defs9">
    <clipPath
       id="clip0_222_4048">
      <rect
         width="16"
         height="16"
         fill="white"
         id="rect6" />
    </clipPath>
  </defs>
  <path
     d="m 12.49865,2.395847 c -0.7834,-0.78342 -2.0549,-0.78342 -2.8382896,0 l -5.90779,5.9078 c -1.35173,1.35172 -1.35173,3.54151 0,4.89321 1.35173,1.3517 3.54147,1.3517 4.8932,0 L 13.52615,8.316487 c 0.3499,-0.34997 0.9215,-0.34997 1.2714,0 0.35,0.34997 0.35,0.92149 0,1.27146 l -4.8803296,4.88031 c -2.05488,2.0549 -5.38122,2.0549 -7.43611,0 -2.05488103,-2.0548 -2.05488103,-5.38119 0,-7.43607 l 5.9078,-5.90779 c 1.48657,-1.48658502 3.8946396,-1.48658502 5.3812396,0 1.4866,1.48658 1.4866,3.89464 0,5.38122 l -5.6509496,5.65094 c -0.91828,0.9183 -2.40807,0.9183 -3.32634,0 -0.91828,-0.9183 -0.91828,-2.40807 0,-3.32635 l 4.62349,-4.62349 c 0.34997,-0.34997 0.9214996,-0.34997 1.2714996,0 0.3499,0.34997 0.3499,0.92149 0,1.27146 l -4.6235296,4.62348 c -0.21512,0.2151 -0.21512,0.5683 0,0.7834 0.21512,0.2152 0.5683,0.2152 0.78342,0 l 5.6509096,-5.6509 c 0.7834,-0.78342 0.7834,-2.05488 0,-2.83831 z"
     fill="#007eef"
     id="path2" />
</svg>
