<?xml version="1.0" encoding="UTF-8" standalone="no"?>
<svg
   width="16"
   height="16"
   viewBox="0 0 16 16"
   fill="none"
   version="1.1"
   id="svg147"
   sodipodi:docname="026-pen-nib.svg"
   inkscape:version="1.2.2 (732a01da63, 2022-12-09)"
   xmlns:inkscape="http://www.inkscape.org/namespaces/inkscape"
   xmlns:sodipodi="http://sodipodi.sourceforge.net/DTD/sodipodi-0.dtd"
   xmlns="http://www.w3.org/2000/svg"
   xmlns:svg="http://www.w3.org/2000/svg">
  <sodipodi:namedview
     id="namedview149"
     pagecolor="#ffffff"
     bordercolor="#000000"
     borderopacity="0.25"
     inkscape:showpageshadow="2"
     inkscape:pageopacity="0.0"
     inkscape:pagecheckerboard="0"
     inkscape:deskcolor="#d1d1d1"
     showgrid="false"
     inkscape:zoom="37.432465"
     inkscape:cx="5.6501756"
     inkscape:cy="8.9494506"
     inkscape:window-width="1920"
     inkscape:window-height="1027"
     inkscape:window-x="-8"
     inkscape:window-y="-8"
     inkscape:window-maximized="1"
     inkscape:current-layer="svg147" />
  <defs
     id="defs145">
    <clipPath
       id="clip0_222_4038">
      <rect
         width="16"
         height="16"
         fill="white"
         id="rect142" />
    </clipPath>
  </defs>
  <path
     d="m 11.537462,0.52672408 -1.7542395,1.75735502 3.9430395,3.94302 1.7542,-1.75421 c 0.6897,-0.68971 0.6897,-1.80459 0,-2.4943 l -1.4487,-1.45186502 c -0.6897,-0.689713 -1.8046,-0.689713 -2.4943,0 z m -2.5321395,2.40297502 -0.28974,0.08818 -4.53825,1.36053 c -0.62673,0.18896 -1.12433,0.66767 -1.33219,1.29125 L 0.05479868,13.990339 c -0.1196763,0.3558 -0.0314938,0.7527 0.2299048,1.0204 l 4.83743902,-4.8343 c -0.09448,-0.1984399 -0.14802,-0.4188899 -0.14802,-0.6519499 0,-0.83458 0.67712,-1.5117 1.5117,-1.5117 0.83459,0 1.5117,0.67712 1.5117,1.5117 0,0.8345499 -0.67711,1.5117499 -1.5117,1.5117499 -0.23305,0 -0.45351,-0.0536 -0.65192,-0.1481 l -4.83744002,4.8375 c 0.27085002,0.2614 0.66452002,0.3527 1.02040002,0.2299 l 8.3237995,-2.7904 c 0.6204,-0.2078 1.1023,-0.7054 1.2912,-1.3322 l 1.3606,-4.5382099 0.0882,-0.28974 z"
     fill="#007eef"
     id="path138" />
</svg>
