<?xml version="1.0" encoding="UTF-8" standalone="no"?>
<svg
   width="16"
   height="16"
   viewBox="0 0 16 16"
   fill="none"
   version="1.1"
   id="svg11"
   sodipodi:docname="027-people-arrows.svg"
   inkscape:version="1.2.2 (732a01da63, 2022-12-09)"
   xmlns:inkscape="http://www.inkscape.org/namespaces/inkscape"
   xmlns:sodipodi="http://sodipodi.sourceforge.net/DTD/sodipodi-0.dtd"
   xmlns="http://www.w3.org/2000/svg"
   xmlns:svg="http://www.w3.org/2000/svg">
  <sodipodi:namedview
     id="namedview13"
     pagecolor="#ffffff"
     bordercolor="#000000"
     borderopacity="0.25"
     inkscape:showpageshadow="2"
     inkscape:pageopacity="0.0"
     inkscape:pagecheckerboard="0"
     inkscape:deskcolor="#d1d1d1"
     showgrid="false"
     inkscape:zoom="52.9375"
     inkscape:cx="8"
     inkscape:cy="8.0094451"
     inkscape:window-width="1920"
     inkscape:window-height="1027"
     inkscape:window-x="-8"
     inkscape:window-y="-8"
     inkscape:window-maximized="1"
     inkscape:current-layer="svg11" />
  <path
     d="m 4.5686787,2.8624951 c 0,0.94629 -0.76936,1.71565 -1.71565,1.71565 -0.94629,0 -1.71565,-0.76936 -1.71565,-1.71565 0,-0.94629 0.76936,-1.71565 1.71565,-1.71565 0.94629,0 1.71565,0.76936 1.71565,1.71565 z m -4.45264595,4.54111 c 0.091144,-1.11249 1.02134595,-1.96764 2.13651595,-1.96764 h 1.20096 c 0.72379,0 1.36716,0.35922 1.75586,0.91412 -0.07238,0.05094 -0.1394,0.10723 -0.20105,0.16889 l -1.71565,1.71565 c -0.58708,0.58707 -0.58708,1.53602 0,2.1231199 l 1.27601,1.276 v 1.9516 c 0,0.7103 -0.57635,1.2867 -1.28674,1.2867 h -0.85782 c -0.71039,0 -1.28674,-0.5764 -1.28674,-1.2867 v -3.1016 C 0.42699475,10.229045 -0.06089315,9.5240451 0.00612444,8.7251951 Z M 14.862579,2.8624951 c 0,0.94629 -0.7694,1.71565 -1.7157,1.71565 -0.9462,0 -1.7156,-0.76936 -1.7156,-1.71565 0,-0.94629 0.7694,-1.71565 1.7156,-1.71565 0.9463,0 1.7157,0.76936 1.7157,1.71565 z m -3.8709,3.65648 c -0.0617,-0.06166 -0.1314,-0.11795 -0.2011,-0.16889 0.3887,-0.5549 1.0348,-0.91412 1.7559,-0.91412 h 1.2009 c 1.1152,0 2.0454,0.85515 2.1365,1.96764 l 0.11,1.32159 c 0.067,0.79885 -0.4209,1.5038499 -1.1313,1.7585499 v 3.1016 c 0,0.7103 -0.5764,1.2867 -1.2867,1.2867 h -0.8579 c -0.7103,0 -1.2867,-0.5764 -1.2867,-1.2867 v -1.9516 l 1.276,-1.276 c 0.5871,-0.5870999 0.5871,-1.5360499 0,-2.1231199 z m -4.2784403,1.06156 v 0.85782 h 2.57348 v -0.85782 c 0,-0.26003 0.15548,-0.49593 0.39674,-0.59512 0.24126,-0.09919 0.5174203,-0.04557 0.7023203,0.1394 l 1.7157,1.71565 c 0.252,0.25198 0.252,0.65948 0,0.90878 l -1.7157,1.7155999 c -0.1849,0.185 -0.4610603,0.2386 -0.7023203,0.1394 -0.24126,-0.0992 -0.39674,-0.3351 -0.39674,-0.5951 v -0.8551 h -2.57348 v 0.8578 c 0,0.26 -0.15548,0.4959 -0.39674,0.5951 -0.24126,0.0992 -0.51738,0.0456 -0.70235,-0.1394 l -1.71564,-1.7155999 c -0.25199,-0.252 -0.25199,-0.6595 0,-0.9088 l 1.71564,-1.71565 c 0.18497,-0.18497 0.46109,-0.23859 0.70235,-0.1394 0.24126,0.09919 0.39674,0.33509 0.39674,0.59512 z"
     fill="#007eef"
     id="path2" />
  <defs
     id="defs9">
    <clipPath
       id="clip0_222_4042">
      <rect
         width="16"
         height="16"
         fill="white"
         id="rect6" />
    </clipPath>
  </defs>
</svg>
