<svg width="16" height="16" viewBox="0 0 16 16" fill="none" xmlns="http://www.w3.org/2000/svg">
<path d="M3.25 13.9998C4.265 13.9998 5.26 13.7248 6.13 13.2023L8.8 11.5998H3.2V13.9998H3.25ZM8.8 5.1998L6.13 3.5973C5.26 3.0748 4.265 2.7998 3.25 2.7998H3.2V5.1998H8.8ZM2.4 5.1998V2.7998H2C1.3375 2.7998 0.8 3.3373 0.8 3.9998V5.1998H1C0.4475 5.1998 0 5.6473 0 6.1998V6.5998V10.1998V10.5998C0 11.1523 0.4475 11.5998 1 11.5998H0.8V12.7998C0.8 13.4623 1.3375 13.9998 2 13.9998H2.4V11.5998H2.6C3.255 11.5998 3.835 11.2848 4.2 10.7998H11.4C13.1325 10.7998 14.775 10.2323 15.88 8.7598C16.04 8.5473 16.04 8.25231 15.88 8.0398C14.775 6.5673 13.1325 5.9998 11.4 5.9998H4.2C3.835 5.5148 3.255 5.1998 2.6 5.1998H2.4ZM12.8 8.08981V8.7123C12.8 9.2023 12.4025 9.6023 11.91 9.6023C11.8475 9.6023 11.8 9.55231 11.8 9.49231V7.3098C11.8 7.2473 11.85 7.1998 11.91 7.1998C12.4 7.1998 12.8 7.5973 12.8 8.08981Z" fill="#007EEF"/>
</svg>
