<?xml version="1.0" encoding="UTF-8" standalone="no"?>
<svg
   width="16"
   height="16"
   viewBox="0 0 16 16"
   fill="none"
   version="1.1"
   id="svg1983"
   sodipodi:docname="031-square-root-variable.svg"
   inkscape:version="1.2.2 (732a01da63, 2022-12-09)"
   xmlns:inkscape="http://www.inkscape.org/namespaces/inkscape"
   xmlns:sodipodi="http://sodipodi.sourceforge.net/DTD/sodipodi-0.dtd"
   xmlns="http://www.w3.org/2000/svg"
   xmlns:svg="http://www.w3.org/2000/svg">
  <sodipodi:namedview
     id="namedview136"
     pagecolor="#ffffff"
     bordercolor="#000000"
     borderopacity="0.25"
     inkscape:showpageshadow="2"
     inkscape:pageopacity="0.0"
     inkscape:pagecheckerboard="0"
     inkscape:deskcolor="#d1d1d1"
     showgrid="false"
     inkscape:zoom="52.9375"
     inkscape:cx="8"
     inkscape:cy="8.0094451"
     inkscape:window-width="1920"
     inkscape:window-height="1027"
     inkscape:window-x="-8"
     inkscape:window-y="-8"
     inkscape:window-maximized="1"
     inkscape:current-layer="svg1983" />
  <defs
     id="defs1981">
    <clipPath
       id="clip0_222_4004">
      <rect
         width="16"
         height="16"
         fill="#ffffff"
         id="rect1978"
         x="0"
         y="0" />
    </clipPath>
  </defs>
  <path
     d="M 8.02673,1.5708269 C 8.12395,1.1763869 8.4795,0.89860695 8.88784,0.89860695 h 6.22221 c 0.4917,0 0.8889,0.39721995 0.8889,0.88888995 0,0.4916701 -0.3972,0.8888901 -0.8889,0.8888901 H 9.58228 l -2.94444,11.77222 c -0.08889,0.3611 -0.39445,0.6278 -0.76667,0.6667 -0.37222,0.0389 -0.725,-0.1528 -0.89166,-0.4861 L 2.11562,8.898607 H 0.887839 c -0.491667,0 -0.888889,-0.3972201 -0.888889,-0.88889 0,-0.4916701 0.397222,-0.8888901 0.888889,-0.8888901 H 2.66562 c 0.33611,0 0.64444,0.18889 0.79444,0.49167 l 2.03611,4.0722101 z m 2.90002,5.81111 c 0.3472,-0.34722 0.9111,-0.34722 1.2583,0 l 1.1472,1.1472301 1.15,-1.1500001 c 0.3473,-0.3472299 0.9111,-0.3472299 1.2584,0 0.3472,0.34722 0.3472,0.9111101 0,1.2583301 l -1.15,1.15 1.15,1.15001 c 0.3472,0.3472 0.3472,0.9111 0,1.2583 -0.3473,0.3472 -0.9111,0.3472 -1.2584,0 l -1.15,-1.15 -1.15,1.15 c -0.3472,0.3472 -0.9111,0.3472 -1.2583,0 -0.3472,-0.3472 -0.3472,-0.9111 0,-1.2583 l 1.15,-1.15001 -1.15,-1.15 c -0.3472,-0.34722 -0.3472,-0.91111 0,-1.25833 z"
     fill="#007EEF"
     id="path1974"
     style="fill:#000000;image-rendering:auto" />
</svg>
