<svg width="16" height="16" viewBox="0 0 16 16" fill="none" xmlns="http://www.w3.org/2000/svg">
<path d="M7.2 3.2C7.2 2.5375 7.7375 2 8.4 2H10.8C11.4625 2 12 2.5375 12 3.2V6.8H13V5C13 4.6675 13.2675 4.4 13.6 4.4C13.9325 4.4 14.2 4.6675 14.2 5V6.8H14.8C15.4625 6.8 16 7.3375 16 8V13.6C16 14.2625 15.4625 14.8 14.8 14.8H10.8H8.4C7.7375 14.8 7.2 14.2625 7.2 13.6V3.2ZM8.8 4V4.8C8.8 5.02 8.98 5.2 9.2 5.2H10C10.22 5.2 10.4 5.02 10.4 4.8V4C10.4 3.78 10.22 3.6 10 3.6H9.2C8.98 3.6 8.8 3.78 8.8 4ZM9.2 6C8.98 6 8.8 6.18 8.8 6.4V7.2C8.8 7.42 8.98 7.6 9.2 7.6H10C10.22 7.6 10.4 7.42 10.4 7.2V6.4C10.4 6.18 10.22 6 10 6H9.2ZM8.8 8.8V9.6C8.8 9.82 8.98 10 9.2 10H10C10.22 10 10.4 9.82 10.4 9.6V8.8C10.4 8.58 10.22 8.4 10 8.4H9.2C8.98 8.4 8.8 8.58 8.8 8.8ZM13.2 8.4C12.98 8.4 12.8 8.58 12.8 8.8V9.6C12.8 9.82 12.98 10 13.2 10H14C14.22 10 14.4 9.82 14.4 9.6V8.8C14.4 8.58 14.22 8.4 14 8.4H13.2ZM12.8 11.2V12C12.8 12.22 12.98 12.4 13.2 12.4H14C14.22 12.4 14.4 12.22 14.4 12V11.2C14.4 10.98 14.22 10.8 14 10.8H13.2C12.98 10.8 12.8 10.98 12.8 11.2ZM5.6 6C5.6 6.15 5.575 6.275 5.55 6.4C6.05 6.75 6.4 7.35 6.4 8C6.4 9.125 5.5 10 4.4 10H4V14C4 14.45 3.625 14.8 3.2 14.8C2.75 14.8 2.4 14.45 2.4 14V10H2C0.875 10 0 9.125 0 8C0 7.35 0.325 6.75 0.825 6.4C0.8 6.275 0.8 6.15 0.8 6C0.8 4.675 1.85 3.6 3.2 3.6C4.525 3.6 5.6 4.675 5.6 6Z" fill="#007EEF"/>
</svg>
