<?xml version="1.0" encoding="UTF-8" standalone="no"?>
<svg
   width="16"
   height="16"
   viewBox="0 0 16 16"
   fill="none"
   version="1.1"
   id="svg529"
   sodipodi:docname="040-wheelchair.svg"
   inkscape:version="1.2.2 (732a01da63, 2022-12-09)"
   xmlns:inkscape="http://www.inkscape.org/namespaces/inkscape"
   xmlns:sodipodi="http://sodipodi.sourceforge.net/DTD/sodipodi-0.dtd"
   xmlns="http://www.w3.org/2000/svg"
   xmlns:svg="http://www.w3.org/2000/svg">
  <sodipodi:namedview
     id="namedview531"
     pagecolor="#ffffff"
     bordercolor="#000000"
     borderopacity="0.25"
     inkscape:showpageshadow="2"
     inkscape:pageopacity="0.0"
     inkscape:pagecheckerboard="0"
     inkscape:deskcolor="#d1d1d1"
     showgrid="false"
     inkscape:zoom="52.9375"
     inkscape:cx="8"
     inkscape:cy="8.0094451"
     inkscape:window-width="1920"
     inkscape:window-height="1027"
     inkscape:window-x="-8"
     inkscape:window-y="-8"
     inkscape:window-maximized="1"
     inkscape:current-layer="svg529" />
  <defs
     id="defs527">
    <clipPath
       id="clip0_222_4030">
      <rect
         width="16"
         height="16"
         fill="white"
         id="rect524" />
    </clipPath>
  </defs>
  <path
     d="m 15.503201,12.061645 0.4446,0.8957 c 0.1227,0.2473 0.0217,0.5473 -0.2256,0.6701 l -2.0458,1.0277 c -0.5015,0.249 -1.1111,0.0373 -1.3497,-0.4705 l -1.9617,-4.1752 H 6.0000009 c -0.49766,0 -0.91956,-0.3659399 -0.98997,-0.8585899 -1.059,-7.41304 -0.99815,-6.95254 -1.01003,-7.14141 0,-1.136189 0.94744,-2.051095 2.09538,-1.99778252 1.03971,0.04828122 1.8765,0.90328152 1.9039,1.94378252 0.02713,1.02915 -0.7235,1.88822 -1.7065,2.03247 l 0.14594,1.02156 h 4.0612801 c 0.2762,0 0.5,0.22384 0.5,0.5 v 1 c 0,0.27616 -0.2238,0.5 -0.5,0.5 H 6.7244409 l 0.14287,1 h 4.1326901 c 0.1899,0 0.3758,0.05405 0.5361,0.15583 0.1602,0.10178 0.2882,0.24708 0.369,0.41892 l 1.7973,3.8252199 1.1306,-0.5734 c 0.2473,-0.1228 0.5474,-0.0218 0.6702,0.2256 z m -5.7732601,-1.0522 h -0.76582 c -0.24337,1.6939 -1.70399,3 -3.46412,3 -1.92991,0 -3.5,-1.5701 -3.5,-3.5 0,-1.2970299 0.70919,-2.4315299 1.76012,-3.0361299 -0.116,-0.8114 -0.21387,-1.49562 -0.2965,-2.0729 C 1.4361309,6.2114451 8.6414902e-7,8.1957851 8.6414902e-7,10.509445 c 0,3.0327 2.46728003585098,5.5 5.50000003585098,5.5 2.24594,0 4.18144,-1.3534 5.0347001,-3.2873 z"
     fill="#007eef"
     id="path520" />
</svg>
