<?xml version="1.0" encoding="UTF-8" standalone="no"?>
<svg
   width="16"
   height="16"
   viewBox="0 0 16 16"
   fill="none"
   version="1.1"
   id="svg17"
   sodipodi:docname="041-alarm-clock.svg"
   inkscape:version="1.2.2 (732a01da63, 2022-12-09)"
   xmlns:inkscape="http://www.inkscape.org/namespaces/inkscape"
   xmlns:sodipodi="http://sodipodi.sourceforge.net/DTD/sodipodi-0.dtd"
   xmlns="http://www.w3.org/2000/svg"
   xmlns:svg="http://www.w3.org/2000/svg">
  <sodipodi:namedview
     id="namedview19"
     pagecolor="#ffffff"
     bordercolor="#000000"
     borderopacity="0.25"
     inkscape:showpageshadow="2"
     inkscape:pageopacity="0.0"
     inkscape:pagecheckerboard="0"
     inkscape:deskcolor="#d1d1d1"
     showgrid="false"
     inkscape:zoom="52.9375"
     inkscape:cx="7.9622196"
     inkscape:cy="7.9716647"
     inkscape:window-width="1920"
     inkscape:window-height="1027"
     inkscape:window-x="-8"
     inkscape:window-y="-8"
     inkscape:window-maximized="1"
     inkscape:current-layer="svg17" />
  <defs
     id="defs15">
    <clipPath
       id="clip0_222_5477">
      <rect
         width="16"
         height="16"
         fill="white"
         id="rect12" />
    </clipPath>
  </defs>
  <path
     d="M1.65807 3.08715C1.7992 3.08715 1.94116 3.03959 2.05801 2.94212L3.75507 1.5269C4.02016 1.30584 4.05585 0.911712 3.83479 0.646619C3.61373 0.381525 3.2196 0.345806 2.95451 0.5669L1.25745 1.98218C0.992352 2.20324 0.956664 2.59737 1.17773 2.86246C1.30135 3.01065 1.47904 3.08715 1.65807 3.08715Z"
     fill="white"
     id="path2"
     style="fill:#000000" />
  <path
     d="M12.245 1.5269L13.9421 2.94212C14.0589 3.03958 14.2009 3.08715 14.342 3.08715C14.521 3.08715 14.6987 3.01065 14.8223 2.86243C15.0434 2.59733 15.0077 2.20321 14.7426 1.98215L13.0456 0.566897C12.7805 0.345835 12.3863 0.381491 12.1653 0.646616C11.9442 0.91171 11.9799 1.3058 12.245 1.5269Z"
     fill="white"
     id="path4"
     style="fill:#000000" />
  <path
     d="M13.2149 3.41006C11.9628 2.15803 10.3398 1.412 8.59375 1.27378V0.625C8.59375 0.279813 8.31394 0 7.96875 0C7.62356 0 7.34375 0.279813 7.34375 0.625V1.27916C5.62147 1.43006 4.02222 2.173 2.78513 3.41009C1.39216 4.803 0.625 6.65503 0.625 8.62494C0.625 10.5948 1.39216 12.4469 2.78509 13.8398C2.91428 13.969 3.04747 14.0927 3.18428 14.2111L2.68172 15.0552C2.50516 15.3518 2.60244 15.7354 2.89903 15.912C2.99928 15.9716 3.10941 16 3.21816 16C3.43122 16 3.63888 15.891 3.75578 15.6946L4.19984 14.9487C5.33547 15.6339 6.63956 15.9999 7.99997 15.9999C9.35494 15.9999 10.6553 15.638 11.7994 14.9475L12.2442 15.6946C12.3611 15.891 12.5687 16 12.7818 16C12.8905 16 13.0007 15.9716 13.1009 15.9119C13.3975 15.7354 13.4948 15.3518 13.3182 15.0552L12.537 13.7429C12.4467 13.5913 12.2967 13.4849 12.1237 13.45C11.9509 13.4151 11.7712 13.4548 11.6292 13.5594C10.5723 14.3383 9.31728 14.7499 7.99997 14.7499C4.62266 14.7499 1.875 12.0023 1.875 8.62494C1.875 5.24759 4.62266 2.5 7.99997 2.5C11.3773 2.5 14.1249 5.24762 14.1249 8.62497C14.1249 9.65656 13.8638 10.6762 13.3699 11.5736C13.2035 11.876 13.3137 12.256 13.6161 12.4225C13.9185 12.5889 14.2986 12.4787 14.465 12.1763C15.0603 11.0947 15.3749 9.86669 15.3749 8.62494C15.3749 6.65503 14.6078 4.803 13.2149 3.41006Z"
     fill="white"
     id="path6"
     style="fill:#000000" />
  <path
     d="M7.96875 4.03125C7.62356 4.03125 7.34375 4.31106 7.34375 4.65625V8.62497C7.34375 8.79075 7.40959 8.94972 7.52681 9.06694L9.29456 10.8347C9.41659 10.9567 9.57653 11.0177 9.7365 11.0177C9.89647 11.0177 10.0564 10.9567 10.1784 10.8347C10.4225 10.5906 10.4225 10.1949 10.1784 9.95078L8.59375 8.36609V4.65625C8.59375 4.31106 8.31394 4.03125 7.96875 4.03125Z"
     fill="white"
     id="path8"
     style="fill:#000000" />
</svg>
