<?xml version="1.0" encoding="UTF-8" standalone="no"?>
<svg
   width="16"
   height="16"
   viewBox="0 0 16 16"
   fill="none"
   version="1.1"
   id="svg26"
   sodipodi:docname="042-calculator.svg"
   inkscape:version="1.2.2 (732a01da63, 2022-12-09)"
   xmlns:inkscape="http://www.inkscape.org/namespaces/inkscape"
   xmlns:sodipodi="http://sodipodi.sourceforge.net/DTD/sodipodi-0.dtd"
   xmlns="http://www.w3.org/2000/svg"
   xmlns:svg="http://www.w3.org/2000/svg">
  <defs
     id="defs30" />
  <sodipodi:namedview
     id="namedview28"
     pagecolor="#ffffff"
     bordercolor="#000000"
     borderopacity="0.25"
     inkscape:showpageshadow="2"
     inkscape:pageopacity="0.0"
     inkscape:pagecheckerboard="0"
     inkscape:deskcolor="#d1d1d1"
     showgrid="false"
     inkscape:zoom="37.432465"
     inkscape:cx="4.4747253"
     inkscape:cy="6.8924128"
     inkscape:window-width="1920"
     inkscape:window-height="1027"
     inkscape:window-x="-8"
     inkscape:window-y="-8"
     inkscape:window-maximized="1"
     inkscape:current-layer="svg26" />
  <path
     d="M12.9688 0H3.03125C1.99738 0 1.15625 0.841125 1.15625 1.875V14.125C1.15625 15.1589 1.99738 16 3.03125 16H12.9688C14.0026 16 14.8438 15.1589 14.8438 14.125V1.875C14.8438 0.841125 14.0026 0 12.9688 0ZM13.5938 14.125C13.5938 14.4696 13.3134 14.75 12.9688 14.75H3.03125C2.68663 14.75 2.40625 14.4696 2.40625 14.125V5.375H13.5938V14.125ZM13.5938 4.125H2.40625V1.875C2.40625 1.53038 2.68663 1.25 3.03125 1.25H12.9688C13.3134 1.25 13.5938 1.53038 13.5938 1.875V4.125Z"
     fill="white"
     id="path2"
     style="fill:#000000" />
  <path
     d="M12.1875 9.44043H10.9375V13.0629H12.1875V9.44043Z"
     fill="white"
     id="path4"
     style="fill:#000000" />
  <path
     d="M5.09375 7.0625H3.84375V8.3125H5.09375V7.0625Z"
     fill="white"
     id="path6"
     style="fill:#000000" />
  <path
     d="M7.46875 7.0625H6.21875V8.3125H7.46875V7.0625Z"
     fill="white"
     id="path8"
     style="fill:#000000" />
  <path
     d="M9.8125 7.0625H8.5625V8.3125H9.8125V7.0625Z"
     fill="white"
     id="path10"
     style="fill:#000000" />
  <path
     d="M5.09375 9.4375H3.84375V10.6875H5.09375V9.4375Z"
     fill="white"
     id="path12"
     style="fill:#000000" />
  <path
     d="M7.46875 9.4375H6.21875V10.6875H7.46875V9.4375Z"
     fill="white"
     id="path14"
     style="fill:#000000" />
  <path
     d="M9.8125 9.4375H8.5625V10.6875H9.8125V9.4375Z"
     fill="white"
     id="path16"
     style="fill:#000000" />
  <path
     d="M12.1875 7.0625H10.9375V8.3125H12.1875V7.0625Z"
     fill="white"
     id="path18"
     style="fill:#000000" />
  <path
     d="M5.09375 11.8125H3.84375V13.0625H5.09375V11.8125Z"
     fill="white"
     id="path20"
     style="fill:#000000" />
  <path
     d="M7.46875 11.8125H6.21875V13.0625H7.46875V11.8125Z"
     fill="white"
     id="path22"
     style="fill:#000000" />
  <path
     d="M9.8125 11.8125H8.5625V13.0625H9.8125V11.8125Z"
     fill="white"
     id="path24"
     style="fill:#000000" />
</svg>
