<?xml version="1.0" encoding="UTF-8" standalone="no"?>
<svg
   width="17"
   height="16"
   viewBox="0 0 17 16"
   fill="none"
   version="1.1"
   id="svg17"
   sodipodi:docname="045-discount.svg"
   inkscape:version="1.2.2 (732a01da63, 2022-12-09)"
   xmlns:inkscape="http://www.inkscape.org/namespaces/inkscape"
   xmlns:sodipodi="http://sodipodi.sourceforge.net/DTD/sodipodi-0.dtd"
   xmlns="http://www.w3.org/2000/svg"
   xmlns:svg="http://www.w3.org/2000/svg">
  <sodipodi:namedview
     id="namedview19"
     pagecolor="#ffffff"
     bordercolor="#000000"
     borderopacity="0.25"
     inkscape:showpageshadow="2"
     inkscape:pageopacity="0.0"
     inkscape:pagecheckerboard="0"
     inkscape:deskcolor="#d1d1d1"
     showgrid="false"
     inkscape:zoom="52.9375"
     inkscape:cx="8.5100354"
     inkscape:cy="8.0094451"
     inkscape:window-width="1920"
     inkscape:window-height="1027"
     inkscape:window-x="-8"
     inkscape:window-y="-8"
     inkscape:window-maximized="1"
     inkscape:current-layer="svg17" />
  <path
     d="M6.62512 2.84375C5.84971 2.84375 5.21887 3.47459 5.21887 4.25C5.21887 5.0254 5.84971 5.65624 6.62512 5.65624C7.40052 5.65624 8.03137 5.0254 8.03137 4.25C8.03137 3.47459 7.40052 2.84375 6.62512 2.84375ZM6.62512 4.71875C6.36665 4.71875 6.15637 4.50847 6.15637 4.25C6.15637 3.99153 6.36665 3.78125 6.62512 3.78125C6.88359 3.78125 7.09387 3.99153 7.09387 4.25C7.09387 4.50847 6.88359 4.71875 6.62512 4.71875Z"
     fill="#007EEF"
     id="path2"
     style="fill:#000000" />
  <path
     d="M10.3751 6.59375C9.59971 6.59375 8.96887 7.22459 8.96887 8C8.96887 8.7754 9.59971 9.40624 10.3751 9.40624C11.1505 9.40624 11.7814 8.7754 11.7814 8C11.7814 7.22459 11.1505 6.59375 10.3751 6.59375ZM10.3751 8.46875C10.1167 8.46875 9.90637 8.25847 9.90637 8C9.90637 7.74153 10.1167 7.53125 10.3751 7.53125C10.6336 7.53125 10.8439 7.74153 10.8439 8C10.8439 8.25847 10.6336 8.46875 10.3751 8.46875Z"
     fill="#007EEF"
     id="path4"
     style="fill:#000000" />
  <path
     d="M10.6351 2.9225C10.4197 2.77894 10.1286 2.83713 9.98503 3.05253L6.23504 8.67752C6.09141 8.89293 6.14963 9.18396 6.36504 9.32755C6.58057 9.47121 6.87157 9.41283 7.01507 9.19752L10.7651 3.57253C10.9087 3.35713 10.8505 3.0661 10.6351 2.9225Z"
     fill="#007EEF"
     id="path6"
     style="fill:#000000" />
  <path
     d="M16.0313 9.40623H13.6563V0.468749C13.6563 0.209875 13.4465 0 13.1876 0H3.8126C3.55372 0 3.34385 0.209875 3.34385 0.468749V9.40623H0.968851C0.520758 9.40623 0.327852 9.97979 0.687351 10.2498L8.21859 15.906C8.38534 16.0313 8.61484 16.0313 8.78158 15.906L16.3128 10.2498C16.6711 9.98067 16.4809 9.40623 16.0313 9.40623ZM8.50009 14.945L2.37354 10.3437H3.8126C4.07147 10.3437 4.28134 10.1339 4.28134 9.87498V0.937498H12.7188V9.87498C12.7188 10.1339 12.9287 10.3437 13.1876 10.3437H14.6266L8.50009 14.945Z"
     fill="#007EEF"
     id="path8"
     style="fill:#000000" />
  <defs
     id="defs15">
    <clipPath
       id="clip0_222_5550">
      <rect
         width="16"
         height="16"
         fill="white"
         transform="translate(0.5)"
         id="rect12" />
    </clipPath>
  </defs>
</svg>
