<?xml version="1.0" encoding="UTF-8" standalone="no"?>
<svg
   width="16"
   height="16"
   viewBox="0 0 16 16"
   fill="none"
   version="1.1"
   id="svg6"
   sodipodi:docname="046-email.svg"
   inkscape:version="1.2.2 (732a01da63, 2022-12-09)"
   xmlns:inkscape="http://www.inkscape.org/namespaces/inkscape"
   xmlns:sodipodi="http://sodipodi.sourceforge.net/DTD/sodipodi-0.dtd"
   xmlns="http://www.w3.org/2000/svg"
   xmlns:svg="http://www.w3.org/2000/svg">
  <defs
     id="defs10" />
  <sodipodi:namedview
     id="namedview8"
     pagecolor="#ffffff"
     bordercolor="#000000"
     borderopacity="0.25"
     inkscape:showpageshadow="2"
     inkscape:pageopacity="0.0"
     inkscape:pagecheckerboard="0"
     inkscape:deskcolor="#d1d1d1"
     showgrid="false"
     inkscape:zoom="26.46875"
     inkscape:cx="-0.1322314"
     inkscape:cy="7.0649351"
     inkscape:window-width="1920"
     inkscape:window-height="1027"
     inkscape:window-x="-8"
     inkscape:window-y="-8"
     inkscape:window-maximized="1"
     inkscape:current-layer="svg6" />
  <path
     d="M8.00006 7.04762L14.7949 2.81083C14.721 2.79912 14.6461 2.7915 14.5692 2.7915H1.43092C1.35406 2.7915 1.27896 2.79941 1.20532 2.81083L8.00006 7.04762Z"
     fill="white"
     id="path2"
     style="fill:#000000" />
  <path
     d="M8.42776 8.68591C8.41869 8.69177 8.40873 8.69558 8.39936 8.70114C8.38955 8.70656 8.37901 8.71183 8.36921 8.7168C8.31577 8.74433 8.26073 8.76643 8.20451 8.78107C8.19866 8.78268 8.19309 8.78356 8.18753 8.78473C8.12561 8.79922 8.06339 8.80815 8.00103 8.80815C8.00088 8.80815 8.00059 8.80815 8.00044 8.80815C8.00029 8.80815 8 8.80815 7.99971 8.80815C7.93734 8.80815 7.87498 8.79937 7.81335 8.78473C7.80764 8.78341 7.80178 8.78253 7.79607 8.78107C7.73986 8.76628 7.68525 8.74418 7.63153 8.7168C7.62143 8.71183 7.61118 8.70656 7.60122 8.70114C7.59171 8.69572 7.5819 8.69192 7.57253 8.68591L0.0223983 3.97803C0.00878365 4.05752 0 4.13891 0 4.22265V11.7779C0 12.5681 0.640474 13.2088 1.43086 13.2088H14.5691C15.3594 13.2088 16 12.5681 16 11.7779V4.22265C16 4.13891 15.9914 4.05767 15.9775 3.97803L8.42776 8.68591Z"
     fill="white"
     id="path4"
     style="fill:#000000" />
</svg>
