<?xml version="1.0" encoding="UTF-8" standalone="no"?>
<svg
   width="16"
   height="16"
   viewBox="0 0 16 16"
   fill="none"
   version="1.1"
   id="svg13"
   sodipodi:docname="047-guarantee.svg"
   inkscape:version="1.2.2 (732a01da63, 2022-12-09)"
   xmlns:inkscape="http://www.inkscape.org/namespaces/inkscape"
   xmlns:sodipodi="http://sodipodi.sourceforge.net/DTD/sodipodi-0.dtd"
   xmlns="http://www.w3.org/2000/svg"
   xmlns:svg="http://www.w3.org/2000/svg">
  <sodipodi:namedview
     id="namedview15"
     pagecolor="#ffffff"
     bordercolor="#000000"
     borderopacity="0.25"
     inkscape:showpageshadow="2"
     inkscape:pageopacity="0.0"
     inkscape:pagecheckerboard="0"
     inkscape:deskcolor="#d1d1d1"
     showgrid="false"
     inkscape:zoom="52.9375"
     inkscape:cx="8"
     inkscape:cy="8.0094451"
     inkscape:window-width="1920"
     inkscape:window-height="1027"
     inkscape:window-x="-8"
     inkscape:window-y="-8"
     inkscape:window-maximized="1"
     inkscape:current-layer="svg13" />
  <path
     d="M14.146 2.28363C10.9681 2.28363 8.24173 0.145977 8.21315 0.123114C8.11224 0.0433756 7.98739 0 7.85878 0C7.73017 0 7.60532 0.0433756 7.50441 0.123114C7.47583 0.145977 4.7609 2.28363 1.57157 2.28363C1.41998 2.28363 1.2746 2.34385 1.16741 2.45104C1.06022 2.55823 1 2.70361 1 2.8552V7.99928C1 11.8345 2.54894 13.7149 7.62444 15.9498C7.69812 15.9829 7.77799 16 7.85878 16C7.93957 16 8.01944 15.9829 8.09312 15.9498C13.1686 13.7149 14.7176 11.8345 14.7176 7.99928V2.8552C14.7176 2.70361 14.6573 2.55823 14.5502 2.45104C14.443 2.34385 14.2976 2.28363 14.146 2.28363ZM7.85878 12.5718C6.95442 12.5718 6.07037 12.3036 5.31842 11.8012C4.56648 11.2988 3.98041 10.5846 3.63432 9.74911C3.28824 8.91359 3.19769 7.99421 3.37412 7.10723C3.55055 6.22024 3.98604 5.4055 4.62552 4.76602C5.265 4.12654 6.07974 3.69105 6.96673 3.51462C7.85371 3.33819 8.77309 3.42874 9.60861 3.77482C10.4441 4.12091 11.1583 4.70698 11.6607 5.45892C12.1631 6.21087 12.4313 7.09492 12.4313 7.99928C12.4313 9.21199 11.9496 10.375 11.092 11.2325C10.2345 12.0901 9.07149 12.5718 7.85878 12.5718Z"
     fill="#007EEF"
     id="path2"
     style="fill:#000000" />
  <path
     d="M9.1678 6.45032L7.28735 8.33648L6.55003 7.59345C6.49674 7.54016 6.43347 7.49788 6.36384 7.46904C6.29421 7.4402 6.21958 7.42536 6.14422 7.42536C6.06885 7.42536 5.99422 7.4402 5.92459 7.46904C5.85496 7.49788 5.7917 7.54016 5.7384 7.59345C5.68511 7.64674 5.64284 7.71001 5.614 7.77964C5.58516 7.84927 5.57031 7.92389 5.57031 7.99926C5.57031 8.07463 5.58516 8.14925 5.614 8.21888C5.64284 8.28851 5.68511 8.35178 5.7384 8.40507L6.88153 9.5482C6.93467 9.60177 6.99788 9.6443 7.06754 9.67331C7.13719 9.70233 7.21189 9.71727 7.28735 9.71727C7.3628 9.71727 7.43751 9.70233 7.50716 9.67331C7.57681 9.6443 7.64002 9.60177 7.69316 9.5482L9.97942 7.26194C10.0327 7.20865 10.075 7.14538 10.1038 7.07575C10.1327 7.00612 10.1475 6.9315 10.1475 6.85613C10.1475 6.78076 10.1327 6.70614 10.1038 6.63651C10.075 6.56688 10.0327 6.50361 9.97942 6.45032C9.92613 6.39703 9.86286 6.35475 9.79323 6.32591C9.7236 6.29707 9.64897 6.28223 9.57361 6.28223C9.49824 6.28223 9.42361 6.29707 9.35398 6.32591C9.28435 6.35475 9.22109 6.39703 9.1678 6.45032Z"
     fill="#007EEF"
     id="path4"
     style="fill:#000000" />
  <defs
     id="defs11">
    <clipPath
       id="clip0_222_3549">
      <rect
         width="16"
         height="16"
         fill="white"
         id="rect8" />
    </clipPath>
  </defs>
</svg>
