<?xml version="1.0" encoding="UTF-8" standalone="no"?>
<svg
   width="16"
   height="16"
   viewBox="0 0 16 16"
   fill="none"
   version="1.1"
   id="svg11"
   sodipodi:docname="049-phone.svg"
   inkscape:version="1.2.2 (732a01da63, 2022-12-09)"
   xmlns:inkscape="http://www.inkscape.org/namespaces/inkscape"
   xmlns:sodipodi="http://sodipodi.sourceforge.net/DTD/sodipodi-0.dtd"
   xmlns="http://www.w3.org/2000/svg"
   xmlns:svg="http://www.w3.org/2000/svg">
  <sodipodi:namedview
     id="namedview13"
     pagecolor="#ffffff"
     bordercolor="#000000"
     borderopacity="0.25"
     inkscape:showpageshadow="2"
     inkscape:pageopacity="0.0"
     inkscape:pagecheckerboard="0"
     inkscape:deskcolor="#d1d1d1"
     showgrid="false"
     inkscape:zoom="52.9375"
     inkscape:cx="8.0188902"
     inkscape:cy="8.0094451"
     inkscape:window-width="1920"
     inkscape:window-height="1027"
     inkscape:window-x="-8"
     inkscape:window-y="-8"
     inkscape:window-maximized="1"
     inkscape:current-layer="svg11" />
  <path
     d="M15.2211 2.08884L13.125 0L8.77202 4.34577L10.4596 6.08858C10.1767 6.59064 9.56312 7.55236 8.51734 8.59811C7.47143 9.64404 6.50269 10.2647 5.99584 10.552L4.28722 8.86514L0.00219727 13.1247L2.08682 15.2232C2.88366 16.02 4.09613 16.2265 5.10388 15.7371C6.64169 14.9902 8.96252 13.6121 11.2863 11.2883C13.61 8.96458 14.9881 6.64371 15.735 5.1059C15.912 4.74152 15.998 4.35043 15.998 3.96187C15.998 3.27574 15.7298 2.59756 15.2211 2.08884ZM14.6115 4.56015C13.9065 6.0118 12.604 8.20417 10.4031 10.4051C8.20209 12.6061 6.00975 13.9085 4.55816 14.6135C4.02894 14.8706 3.39066 14.7606 2.97144 14.3414L1.76826 13.1302L4.29031 10.6233L5.74591 12.0603L6.13534 11.8869C6.19862 11.8587 7.70481 11.1771 9.40062 9.48133C11.0976 7.78439 11.7649 6.29096 11.7925 6.22818L11.9614 5.84396L10.5251 4.36062L13.1259 1.76406L14.3385 2.97246C14.7587 3.39324 14.8685 4.03121 14.6115 4.56015Z"
     fill="#162B43"
     id="path2"
     style="fill:#000000" />
  <defs
     id="defs9">
    <clipPath
       id="clip0_222_3434">
      <rect
         width="16"
         height="16"
         fill="white"
         id="rect6" />
    </clipPath>
  </defs>
</svg>
