<?xml version="1.0" encoding="UTF-8" standalone="no"?>
<svg
   width="24"
   height="24"
   viewBox="0 0 24 24"
   fill="none"
   version="1.1"
   id="svg12"
   sodipodi:docname="050-schedule.svg"
   inkscape:version="1.2.2 (732a01da63, 2022-12-09)"
   xmlns:inkscape="http://www.inkscape.org/namespaces/inkscape"
   xmlns:sodipodi="http://sodipodi.sourceforge.net/DTD/sodipodi-0.dtd"
   xmlns="http://www.w3.org/2000/svg"
   xmlns:svg="http://www.w3.org/2000/svg">
  <defs
     id="defs16" />
  <sodipodi:namedview
     id="namedview14"
     pagecolor="#ffffff"
     bordercolor="#000000"
     borderopacity="0.25"
     inkscape:showpageshadow="2"
     inkscape:pageopacity="0.0"
     inkscape:pagecheckerboard="0"
     inkscape:deskcolor="#d1d1d1"
     showgrid="false"
     inkscape:zoom="35.291667"
     inkscape:cx="12.028335"
     inkscape:cy="12.014168"
     inkscape:window-width="1920"
     inkscape:window-height="1027"
     inkscape:window-x="-8"
     inkscape:window-y="-8"
     inkscape:window-maximized="1"
     inkscape:current-layer="svg12" />
  <path
     d="M12.057 18.25H11.1C10.9409 18.25 10.7883 18.1868 10.6757 18.0743C10.5632 17.9617 10.5 17.8091 10.5 17.65V15.85C10.5 15.6909 10.5632 15.5383 10.6757 15.4257C10.7883 15.3132 10.9409 15.25 11.1 15.25H12.485C12.7961 14.5583 13.2467 13.9383 13.8085 13.4288C14.3703 12.9193 15.0313 12.5312 15.75 12.289V10.85C15.75 10.7712 15.7655 10.6932 15.7957 10.6204C15.8258 10.5476 15.87 10.4815 15.9257 10.4257C15.9815 10.37 16.0476 10.3258 16.1204 10.2957C16.1932 10.2655 16.2712 10.25 16.35 10.25H18.15C18.2288 10.25 18.3068 10.2655 18.3796 10.2957C18.4524 10.3258 18.5185 10.37 18.5743 10.4257C18.63 10.4815 18.6742 10.5476 18.7043 10.6204C18.7345 10.6932 18.75 10.7712 18.75 10.85V12.15C19.8028 12.3958 20.7595 12.9472 21.5 13.735V8.5H2.5V19C2.5 19.663 2.76339 20.2989 3.23223 20.7678C3.70107 21.2366 4.33696 21.5 5 21.5H13.733C12.8188 20.6405 12.2272 19.4932 12.057 18.25ZM10.5 10.85C10.5 10.6909 10.5632 10.5383 10.6757 10.4257C10.7883 10.3132 10.9409 10.25 11.1 10.25H12.9C13.0591 10.25 13.2117 10.3132 13.3243 10.4257C13.4368 10.5383 13.5 10.6909 13.5 10.85V12.65C13.5 12.8091 13.4368 12.9617 13.3243 13.0743C13.2117 13.1868 13.0591 13.25 12.9 13.25H11.1C10.9409 13.25 10.7883 13.1868 10.6757 13.0743C10.5632 12.9617 10.5 12.8091 10.5 12.65V10.85ZM8.25 17.65C8.25 17.8091 8.18679 17.9617 8.07426 18.0743C7.96174 18.1868 7.80913 18.25 7.65 18.25H5.85C5.69087 18.25 5.53826 18.1868 5.42574 18.0743C5.31321 17.9617 5.25 17.8091 5.25 17.65V15.85C5.25 15.6909 5.31321 15.5383 5.42574 15.4257C5.53826 15.3132 5.69087 15.25 5.85 15.25H7.65C7.80913 15.25 7.96174 15.3132 8.07426 15.4257C8.18679 15.5383 8.25 15.6909 8.25 15.85V17.65ZM8.25 12.65C8.25 12.8091 8.18679 12.9617 8.07426 13.0743C7.96174 13.1868 7.80913 13.25 7.65 13.25H5.85C5.69087 13.25 5.53826 13.1868 5.42574 13.0743C5.31321 12.9617 5.25 12.8091 5.25 12.65V10.85C5.25 10.6909 5.31321 10.5383 5.42574 10.4257C5.53826 10.3132 5.69087 10.25 5.85 10.25H7.65C7.80913 10.25 7.96174 10.3132 8.07426 10.4257C8.18679 10.5383 8.25 10.6909 8.25 10.85V12.65Z"
     fill="#007EEF"
     id="path2"
     style="fill:#000000" />
  <path
     d="M19 3H18.5V4C18.5 4.53043 18.2893 5.03914 17.9142 5.41421C17.5391 5.78929 17.0304 6 16.5 6C15.9696 6 15.4609 5.78929 15.0858 5.41421C14.7107 5.03914 14.5 4.53043 14.5 4V3H9.5V4C9.5 4.53043 9.28929 5.03914 8.91421 5.41421C8.53914 5.78929 8.03043 6 7.5 6C6.96957 6 6.46086 5.78929 6.08579 5.41421C5.71071 5.03914 5.5 4.53043 5.5 4V3H5C4.3372 3.00079 3.70178 3.26444 3.23311 3.73311C2.76444 4.20178 2.50079 4.8372 2.5 5.5V7.5H21.5V5.5C21.4992 4.8372 21.2356 4.20178 20.7669 3.73311C20.2982 3.26444 19.6628 3.00079 19 3Z"
     fill="#007EEF"
     id="path4"
     style="fill:#000000" />
  <path
     d="M8.5 2C8.5 1.44772 8.05228 1 7.5 1C6.94772 1 6.5 1.44772 6.5 2V4C6.5 4.55228 6.94772 5 7.5 5C8.05228 5 8.5 4.55228 8.5 4V2Z"
     fill="#007EEF"
     id="path6"
     style="fill:#000000" />
  <path
     d="M17.5 2C17.5 1.44772 17.0523 1 16.5 1C15.9477 1 15.5 1.44772 15.5 2V4C15.5 4.55228 15.9477 5 16.5 5C17.0523 5 17.5 4.55228 17.5 4V2Z"
     fill="#007EEF"
     id="path8"
     style="fill:#000000" />
  <path
     d="M17.5 13C16.61 13 15.74 13.2639 14.9999 13.7584C14.2599 14.2529 13.6831 14.9557 13.3425 15.7779C13.0019 16.6002 12.9128 17.505 13.0865 18.3779C13.2601 19.2508 13.6887 20.0526 14.318 20.682C14.9474 21.3113 15.7492 21.7399 16.6221 21.9135C17.495 22.0872 18.3998 21.9981 19.2221 21.6575C20.0443 21.3169 20.7471 20.7401 21.2416 20.0001C21.7361 19.26 22 18.39 22 17.5C22 16.3065 21.5259 15.1619 20.682 14.318C19.8381 13.4741 18.6935 13 17.5 13ZM19 18H17.5C17.3674 18 17.2402 17.9473 17.1464 17.8536C17.0527 17.7598 17 17.6326 17 17.5V15C17 14.8674 17.0527 14.7402 17.1464 14.6464C17.2402 14.5527 17.3674 14.5 17.5 14.5C17.6326 14.5 17.7598 14.5527 17.8536 14.6464C17.9473 14.7402 18 14.8674 18 15V17H19C19.1326 17 19.2598 17.0527 19.3536 17.1464C19.4473 17.2402 19.5 17.3674 19.5 17.5C19.5 17.6326 19.4473 17.7598 19.3536 17.8536C19.2598 17.9473 19.1326 18 19 18Z"
     fill="#007EEF"
     id="path10"
     style="fill:#000000" />
</svg>
