<?xml version="1.0" encoding="UTF-8" standalone="no"?>
<svg
   width="24"
   height="24"
   viewBox="0 0 24 24"
   fill="none"
   version="1.1"
   id="svg22"
   sodipodi:docname="051-toc.svg"
   inkscape:version="1.2.2 (732a01da63, 2022-12-09)"
   xmlns:inkscape="http://www.inkscape.org/namespaces/inkscape"
   xmlns:sodipodi="http://sodipodi.sourceforge.net/DTD/sodipodi-0.dtd"
   xmlns="http://www.w3.org/2000/svg"
   xmlns:svg="http://www.w3.org/2000/svg">
  <defs
     id="defs26" />
  <sodipodi:namedview
     id="namedview24"
     pagecolor="#ffffff"
     bordercolor="#000000"
     borderopacity="0.25"
     inkscape:showpageshadow="2"
     inkscape:pageopacity="0.0"
     inkscape:pagecheckerboard="0"
     inkscape:deskcolor="#d1d1d1"
     showgrid="false"
     inkscape:zoom="35.291667"
     inkscape:cx="12.028335"
     inkscape:cy="12.014168"
     inkscape:window-width="1920"
     inkscape:window-height="1027"
     inkscape:window-x="-8"
     inkscape:window-y="-8"
     inkscape:window-maximized="1"
     inkscape:current-layer="svg22" />
  <path
     fill-rule="evenodd"
     clip-rule="evenodd"
     d="M12 1.58119C6.24585 1.58119 1.58119 6.24585 1.58119 12C1.58119 17.7542 6.24585 22.4188 12 22.4188C17.7542 22.4188 22.4188 17.7542 22.4188 12C22.4188 6.24585 17.7542 1.58119 12 1.58119ZM0 12C0 5.37258 5.37258 0 12 0C18.6274 0 24 5.37258 24 12C24 18.6274 18.6274 24 12 24C5.37258 24 0 18.6274 0 12Z"
     fill="#007EEF"
     id="path2"
     style="fill:#000000" />
  <path
     d="M9.24439 7.18934C9.24439 8.31028 8.31028 9.24439 7.18934 9.24439C6.06839 9.24439 5.13428 8.31028 5.13428 7.18934C5.13428 6.06839 6.06839 5.13428 7.18934 5.13428C8.31028 5.13428 9.24439 6.02169 9.24439 7.18934Z"
     fill="#007EEF"
     id="path4"
     style="fill:#000000" />
  <path
     d="M14.0551 7.18934C14.0551 8.31028 13.1209 9.24439 12 9.24439C10.8791 9.24439 9.94495 8.31028 9.94495 7.18934C9.94495 6.06839 10.8791 5.13428 12 5.13428C13.1209 5.13428 14.0551 6.02169 14.0551 7.18934Z"
     fill="#007EEF"
     id="path6"
     style="fill:#000000" />
  <path
     d="M18.8659 16.8109C18.8659 17.9319 17.9317 18.866 16.8108 18.866C15.6899 18.866 14.7557 17.9319 14.7557 16.8109C14.7557 15.69 15.6899 14.7559 16.8108 14.7559C17.9317 14.7559 18.8659 15.69 18.8659 16.8109Z"
     fill="#007EEF"
     id="path8"
     style="fill:#000000" />
  <path
     d="M9.24439 11.9999C9.24439 13.1208 8.31028 14.0549 7.18934 14.0549C6.06839 14.0549 5.13428 13.1208 5.13428 11.9999C5.13428 10.8789 6.06839 9.94482 7.18934 9.94482C8.31028 9.94482 9.24439 10.8789 9.24439 11.9999Z"
     fill="#007EEF"
     id="path10"
     style="fill:#000000" />
  <path
     d="M14.0551 11.9999C14.0551 13.1208 13.1209 14.0549 12 14.0549C10.8791 14.0549 9.94495 13.1208 9.94495 11.9999C9.94495 10.8789 10.8791 9.94482 12 9.94482C13.1209 9.94482 14.0551 10.8789 14.0551 11.9999Z"
     fill="#007EEF"
     id="path12"
     style="fill:#000000" />
  <path
     d="M18.8659 11.9999C18.8659 13.1208 17.9317 14.0549 16.8108 14.0549C15.6899 14.0549 14.7557 13.1208 14.7557 11.9999C14.7557 10.8789 15.6899 9.94482 16.8108 9.94482C17.9317 9.94482 18.8659 10.8789 18.8659 11.9999Z"
     fill="#007EEF"
     id="path14"
     style="fill:#000000" />
  <path
     d="M14.7557 7.18934C14.7557 6.06839 15.6899 5.13428 16.8108 5.13428C17.9317 5.13428 18.8659 6.06839 18.8659 7.18934C18.8659 8.31028 17.9317 9.24439 16.8108 9.24439C15.6899 9.24439 14.7557 8.31028 14.7557 7.18934Z"
     fill="#007EEF"
     id="path16"
     style="fill:#000000" />
  <path
     d="M14.0551 16.8109C14.0551 17.9319 13.1209 18.866 12 18.866C10.8791 18.866 9.94495 17.9319 9.94495 16.8109C9.94495 15.69 10.8791 14.7559 12 14.7559C13.1209 14.7559 14.0551 15.69 14.0551 16.8109Z"
     fill="#007EEF"
     id="path18"
     style="fill:#000000" />
  <path
     d="M9.24439 16.8109C9.24439 17.9319 8.31028 18.866 7.18934 18.866C6.06839 18.866 5.13428 17.9319 5.13428 16.8109C5.13428 15.69 6.06839 14.7559 7.18934 14.7559C8.31028 14.7559 9.24439 15.69 9.24439 16.8109Z"
     fill="#007EEF"
     id="path20"
     style="fill:#000000" />
</svg>
