<?xml version="1.0" encoding="UTF-8" standalone="no"?>
<svg
   width="16"
   height="16"
   viewBox="0 0 16 16"
   fill="none"
   version="1.1"
   id="svg11"
   sodipodi:docname="052-whatsapp.svg"
   inkscape:version="1.2.2 (732a01da63, 2022-12-09)"
   xmlns:inkscape="http://www.inkscape.org/namespaces/inkscape"
   xmlns:sodipodi="http://sodipodi.sourceforge.net/DTD/sodipodi-0.dtd"
   xmlns="http://www.w3.org/2000/svg"
   xmlns:svg="http://www.w3.org/2000/svg">
  <sodipodi:namedview
     id="namedview13"
     pagecolor="#ffffff"
     bordercolor="#000000"
     borderopacity="0.25"
     inkscape:showpageshadow="2"
     inkscape:pageopacity="0.0"
     inkscape:pagecheckerboard="0"
     inkscape:deskcolor="#d1d1d1"
     showgrid="false"
     inkscape:zoom="52.9375"
     inkscape:cx="8"
     inkscape:cy="8.0094451"
     inkscape:window-width="1920"
     inkscape:window-height="1027"
     inkscape:window-x="-8"
     inkscape:window-y="-8"
     inkscape:window-maximized="1"
     inkscape:current-layer="svg11" />
  <path
     d="M9.64341 9.30749C9.64341 9.30749 9.71059 9.22394 9.84496 9.05685C9.97933 8.88975 10.0913 8.8062 10.1809 8.8062C10.2705 8.8062 10.6064 8.95779 11.1886 9.26098C11.7709 9.56417 12.0792 9.74677 12.1137 9.80879C12.1275 9.84324 12.1344 9.89492 12.1344 9.96382C12.1344 10.1912 12.0758 10.4531 11.9587 10.7494C11.8484 11.0181 11.6038 11.2438 11.2248 11.4264C10.8458 11.609 10.4944 11.7003 10.1705 11.7003C9.77778 11.7003 9.12317 11.4866 8.20672 11.0594C7.53144 10.7494 6.94574 10.3428 6.44961 9.83979C5.95349 9.33678 5.44358 8.6994 4.9199 7.92765C4.42377 7.19035 4.17916 6.52196 4.18605 5.92248V5.83979C4.20672 5.21275 4.46167 4.66839 4.9509 4.20672C5.11628 4.05512 5.29543 3.97933 5.48837 3.97933C5.52972 3.97933 5.59173 3.9845 5.67442 3.99483C5.7571 4.00517 5.82257 4.01034 5.8708 4.01034C6.00172 4.01034 6.09302 4.03273 6.1447 4.07752C6.19638 4.12231 6.24978 4.21705 6.30491 4.36176C6.36003 4.49957 6.47373 4.80276 6.64599 5.27132C6.81826 5.73988 6.90439 5.99828 6.90439 6.04651C6.90439 6.19121 6.78553 6.38932 6.5478 6.64083C6.31008 6.89233 6.19121 7.05254 6.19121 7.12145C6.19121 7.16968 6.20844 7.22136 6.24289 7.27649C6.47717 7.7795 6.8286 8.25151 7.29716 8.69251C7.68303 9.05771 8.20327 9.40568 8.85788 9.73643C8.94057 9.78467 9.01636 9.80879 9.08527 9.80879C9.18863 9.80879 9.37468 9.64169 9.64341 9.30749ZM8.08269 14.2842C8.95779 14.2842 9.79673 14.112 10.5995 13.7674C11.4022 13.4229 12.093 12.9612 12.6718 12.3824C13.2506 11.8036 13.7123 11.1128 14.0568 10.3101C14.4014 9.50732 14.5736 8.66839 14.5736 7.79328C14.5736 6.91817 14.4014 6.07924 14.0568 5.27649C13.7123 4.47373 13.2506 3.78295 12.6718 3.20413C12.093 2.62532 11.4022 2.16365 10.5995 1.81912C9.79673 1.47459 8.95779 1.30233 8.08269 1.30233C7.20758 1.30233 6.36865 1.47459 5.56589 1.81912C4.76313 2.16365 4.07235 2.62532 3.49354 3.20413C2.91473 3.78295 2.45306 4.47373 2.10853 5.27649C1.764 6.07924 1.59173 6.91817 1.59173 7.79328C1.59173 9.19208 2.00517 10.4599 2.83204 11.5969L2.0155 14.0052L4.5168 13.2093C5.60551 13.9259 6.79414 14.2842 8.08269 14.2842ZM5.05943 0.620154C5.05943 0.620154 5.29974 0.516795 5.78036 0.310077C6.26098 0.103359 7.02842 0 8.08269 0C9.13695 0 10.1447 0.206717 11.1059 0.620154C12.0672 1.03359 12.8958 1.58829 13.5917 2.28424C14.2877 2.98019 14.8424 3.80879 15.2558 4.77003C15.6692 5.73127 15.876 6.73902 15.876 7.79328C15.876 8.84755 15.6692 9.8553 15.2558 10.8165C14.8424 11.7778 14.2877 12.6064 13.5917 13.3023C12.8958 13.9983 12.0672 14.553 11.1059 14.9664C10.1447 15.3798 9.13695 15.5866 8.08269 15.5866C6.73902 15.5866 5.48148 15.2627 4.31008 14.615L0 16L1.40568 11.814C0.661499 10.5874 0.289406 9.2472 0.289406 7.79328C0.289406 6.73902 0.496124 5.73127 0.909561 4.77003C1.323 3.80879 1.87769 2.98019 2.57364 2.28424C3.26959 1.58829 4.09819 1.03359 5.05943 0.620154Z"
     fill="#162B43"
     id="path2"
     style="fill:#000000" />
  <defs
     id="defs9">
    <clipPath
       id="clip0_222_3429">
      <rect
         width="16"
         height="16"
         fill="white"
         transform="matrix(1 0 0 -1 0 16)"
         id="rect6" />
    </clipPath>
  </defs>
</svg>
