<svg width="1440" height="576" viewBox="0 0 1440 576" fill="none" xmlns="http://www.w3.org/2000/svg">
<g clip-path="url(#clip0_222_3332)">
<g opacity="0.13">
<path d="M321.473 671.958H-240V531.262C-179.68 466.489 -93.6181 425.976 1.9164 425.976C155.281 425.976 284.24 530.392 321.473 671.958Z" fill="#DBF122"/>
<path d="M976.081 -120.185C976.081 13.063 867.978 121.08 734.63 121.08C601.282 121.08 493.179 13.063 493.179 -120.185C493.134 -153.141 499.871 -185.755 512.971 -216L956.288 -216C969.388 -185.755 976.125 -153.141 976.081 -120.185Z" fill="#DBF122"/>
<path d="M1680 25.2529V671.958H1136.87C1095.24 602.657 1073.31 523.324 1073.44 442.497C1073.44 195.862 1273.54 -4.07392 1520.37 -4.07392C1574.93 -4.13701 1629.03 5.80319 1680 25.2529Z" fill="#DBF122"/>
<path d="M691.025 555.02C726.308 555.02 754.912 526.439 754.912 491.184C754.912 455.928 726.308 427.347 691.025 427.347C655.741 427.347 627.137 455.928 627.137 491.184C627.137 526.439 655.741 555.02 691.025 555.02Z" fill="#DBF122"/>
<path d="M1034.07 72.0548C1041.07 72.0548 1046.74 66.3863 1046.74 59.3939C1046.74 52.4014 1041.07 46.7329 1034.07 46.7329C1027.07 46.7329 1021.4 52.4014 1021.4 59.3939C1021.4 66.3863 1027.07 72.0548 1034.07 72.0548Z" fill="#DBF122"/>
<path d="M1284.34 -9.17392C1299.02 -23.8397 1299.02 -47.6175 1284.34 -62.2832C1269.66 -76.949 1245.87 -76.949 1231.19 -62.2833C1216.51 -47.6175 1216.51 -23.8396 1231.19 -9.17384C1245.87 5.4919 1269.66 5.49182 1284.34 -9.17392Z" fill="#DBF122"/>
</g>
<path d="M16.2136 606.303C4.81372 590.492 -9.46432 576.967 -25.8741 566.436C-41.4833 556.452 -58.6896 549.216 -76.7456 545.04C-94.3724 540.914 -112.54 539.591 -130.579 541.12C-148.146 542.543 -165.366 546.799 -181.572 553.72C-203.94 563.343 -223.557 578.1 -239.994 597.629V597.955C-226.15 581.477 -207.089 564.871 -181.517 553.859C-149.302 539.966 -112.105 536.898 -76.7698 545.167C-38.4907 554.125 -6.3718 575.297 16.0987 606.394C30.1708 625.884 39.6617 648.295 43.865 671.958H44.0222C39.8178 648.26 30.3119 625.817 16.2136 606.303ZM413.108 648.164C412.885 647.681 412.661 647.198 412.431 646.714C416.212 654.866 419.332 663.307 421.759 671.958H421.85C419.533 663.82 416.611 655.867 413.108 648.164ZM560.657 506.254C559.487 499.745 557.957 493.306 556.074 486.967C562.888 510.313 564.75 534.01 562.023 553.781C559.817 569.8 555.337 578.052 550.585 586.792C545.955 595.31 541.167 604.123 538.446 620.831C535.841 636.844 536.077 654.374 538.96 671.958H539.135C536.234 654.168 536.034 636.603 538.597 620.855C541.312 604.171 546.094 595.37 550.688 586.865C555.446 578.112 559.938 569.849 562.174 553.799C564.169 539.308 563.649 522.865 560.657 506.254ZM878.956 671.958H879.047C886.698 662.627 893.867 652.911 900.526 642.849C902.339 640.1 904.117 637.309 905.87 634.494C897.715 647.548 888.725 660.062 878.956 671.958ZM1652.19 638.892C1581.41 634.482 1502.82 603.772 1444.03 554.125C1450.01 559.215 1456.26 564.15 1462.77 568.93C1476.54 579.047 1491.01 588.179 1506.07 596.258C1521.23 604.403 1536.94 611.503 1553.07 617.508C1569.11 623.486 1585.56 628.331 1602.28 632.006C1618.71 635.622 1635.4 637.979 1652.19 639.055C1658.56 639.458 1664.95 639.659 1671.36 639.659C1674.25 639.659 1677.13 639.619 1680.01 639.538V639.405C1670.73 639.643 1661.46 639.472 1652.19 638.892ZM353.55 582.715C349.318 580.854 344.975 579.256 340.546 577.931C332.983 575.515 326.454 573.449 319.103 566.454C312.822 560.413 307.883 552.694 304.413 543.415C301.197 534.826 299.311 525.131 298.803 514.602C297.842 494.735 301.947 473.369 310.053 456.009C317.634 439.76 329.265 425.589 343.454 414.172C340.758 416.331 338.156 418.586 335.649 420.937C324.55 431.357 315.893 443.13 309.914 455.973C301.795 473.381 297.691 494.771 298.652 514.662C299.16 525.209 301.07 534.922 304.268 543.524C307.75 552.82 312.731 560.595 319 566.611C326.376 573.666 332.905 575.75 340.498 578.16C344.922 579.479 349.259 581.075 353.483 582.938C364.068 587.735 373.928 594.863 382.785 603.658C373.602 594.367 363.802 587.39 353.55 582.715ZM144.26 -48.3333C138.741 -58.9042 130.531 -68.8046 121.838 -79.291C105.932 -98.4757 87.8992 -120.228 83.335 -151.222C80.3123 -171.693 83.5526 -193.463 92.935 -216H92.7718C83.4257 -193.457 80.1733 -171.681 83.1899 -151.204C85.2272 -137.31 90.1058 -124.142 98.0917 -110.883C105.134 -99.2066 113.568 -89.0344 121.723 -79.1944C130.41 -68.7201 138.614 -58.8196 144.127 -48.2608C150.305 -36.4395 152.264 -25.3913 150.299 -13.4854C141.346 40.7223 56.4514 68.1403 30.6438 75.256C-82.404 106.437 -188.403 47.6749 -240 11.2989V11.4801C-212.004 31.2507 -181.675 47.9105 -151.393 60.0822C-122.654 71.6438 -94.0171 79.134 -66.2932 82.3476C-32.7537 86.2377 -0.126968 83.9 30.6801 75.401C52.274 69.445 73.8438 61.0245 91.4055 51.6798C106.966 43.4043 119.728 34.3073 129.328 24.6484C141.122 12.7788 148.232 -0.0392303 150.444 -13.4613C152.421 -25.3974 150.456 -36.4818 144.26 -48.3333ZM866.859 167.7C848.565 153.993 828.58 142.697 807.397 134.091C785.871 125.217 763.334 119.023 740.294 115.649C716.826 112.242 694.023 112.025 672.52 115.075C649.82 118.271 629.132 125 611.039 135.069C599.004 141.781 587.939 150.097 578.146 159.787C569.278 168.486 562.005 177.492 555.591 185.435C540.816 203.744 529.149 218.199 507.688 218.429H507.162C497.489 218.429 487.315 215.572 476.935 209.93C466.827 204.451 456.985 196.64 447.663 186.668C418.452 155.456 401.471 111.046 404.403 73.5163C407.426 35.0261 431.347 -3.01117 471.821 -33.6004C497.495 -53.0026 527.837 -67.9288 559.563 -76.76C592.117 -85.8208 623.734 -87.7357 650.986 -82.275C673.868 -77.6903 688.516 -69.0462 702.686 -60.6862C711.24 -55.6363 719.317 -50.8703 728.615 -47.4514C739.043 -43.6096 749.55 -42.0149 761.646 -42.4015C777.225 -42.9149 793.384 -46.6902 809.67 -53.6248C825.349 -60.371 839.94 -69.4032 852.967 -80.4266C865.995 -91.4687 876.943 -104.196 884.627 -117.232C892.836 -131.155 897.249 -145.018 897.751 -158.464C898.063 -168.206 896.363 -177.907 892.758 -186.963C889.324 -195.746 884.058 -204.602 877.1 -213.276C876.369 -214.188 875.619 -215.088 874.851 -216.006H874.652C875.456 -215.064 876.23 -214.122 876.985 -213.179C891.343 -195.269 898.283 -176.858 897.6 -158.47C896.627 -132.206 880.322 -103.803 852.864 -80.5474C839.847 -69.5354 825.269 -60.5115 809.604 -53.7697C793.336 -46.8413 777.195 -43.0659 761.634 -42.5585C749.544 -42.1659 739.073 -43.7666 728.663 -47.5963C719.377 -51.0153 711.301 -55.7812 702.759 -60.819C688.576 -69.1852 673.916 -77.8413 651.011 -82.426C623.734 -87.8927 592.099 -85.9839 559.514 -76.911C543.677 -72.4826 528.283 -66.6023 513.527 -59.3452C498.812 -52.1492 484.814 -43.5713 471.724 -33.7273C431.22 -3.11385 407.25 34.9657 404.246 73.4982C402.747 92.7131 406.331 113.825 414.614 134.544C422.281 153.826 433.445 171.53 447.543 186.764C456.877 196.737 466.737 204.572 476.856 210.057C487.285 215.71 497.483 218.574 507.18 218.574H507.706C529.239 218.344 540.955 203.859 555.724 185.526C562.138 177.583 569.405 168.576 578.267 159.89C588.051 150.209 599.106 141.902 611.129 135.196C680.887 96.3616 790.797 110.388 866.787 167.815C977.961 251.833 969.346 398.618 966.535 446.851C965.888 457.954 963.355 486.393 953.743 522.739C963.694 485.33 966.13 456.407 966.686 446.857C969.479 398.612 978.1 251.766 866.859 167.7ZM1594.8 -193.161C1592.57 -200.903 1589.95 -208.526 1586.94 -216H1586.8C1598.5 -186.637 1606.53 -151.971 1597.69 -113.172C1588.62 -73.5344 1558.33 -16.5238 1465.29 29.952C1425.64 49.771 1376.43 62.293 1325.49 62.293C1267.76 62.293 1207.79 46.201 1157.03 6.39998C1117.73 -24.4067 1088.63 -65.7964 1070.47 -116.658C1056.12 -156.99 1053.04 -190.98 1051.89 -203.774C1051.52 -207.93 1051.24 -212.006 1051.04 -216H1050.9C1051.09 -211.993 1051.38 -207.914 1051.75 -203.762C1054.16 -174.028 1060.41 -144.731 1070.36 -116.603C1078.2 -94.4059 1088.71 -73.239 1101.65 -53.5644C1116.75 -30.7017 1135.43 -10.4142 1156.98 6.5208C1179.57 24.1943 1204.97 37.9507 1232.12 47.2159C1258.25 56.0978 1285.54 61.1439 1313.13 62.1964C1365.55 64.3649 1419.61 52.9604 1465.37 30.0909C1476.08 24.739 1504.51 10.5317 1532.39 -13.0324C1548.11 -26.3216 1561.37 -40.6316 1571.84 -55.6121C1584.5 -73.7337 1593.24 -93.0634 1597.84 -113.136C1603.74 -138.959 1602.74 -165.133 1594.8 -193.161ZM1578.21 214.69C1535.48 193.783 1498.58 175.728 1454.45 194.865C1432.6 204.342 1412.86 221.213 1395.77 245.001C1382.15 263.98 1374.01 282.259 1370.99 289.139C1369.23 293.102 1363.13 307.684 1358.58 329.085C1355.9 341.624 1354.25 354.362 1353.65 367.171C1352.93 382.312 1353.87 397.486 1356.47 412.42C1359.63 430.022 1365.09 447.132 1372.72 463.312C1365.18 447.103 1359.77 429.989 1356.62 412.396C1345.48 349.502 1368.47 295.21 1371.13 289.2C1397.49 229.797 1431.03 205.188 1454.55 194.967C1498.61 175.855 1535.48 193.898 1578.18 214.786C1607.77 229.284 1640.31 245.194 1680.04 250.993V250.836C1640.3 245.086 1607.78 229.187 1578.21 214.69ZM462.36 386.966C447.492 383.191 432.062 382.145 416.82 383.879C408.318 384.81 399.919 386.522 391.732 388.995C414.565 382.236 439.152 381.142 462.323 387.117C480.341 391.765 496.996 400.619 510.922 412.952C497.035 400.553 480.386 391.648 462.36 386.978V386.966ZM389.477 389.684C390.227 389.448 390.976 389.219 391.732 388.995C390.982 389.261 390.227 389.454 389.477 389.696V389.684Z" fill="#DDE3EB"/>
<path d="M683.033 467.571C685.934 467.571 688.286 465.221 688.286 462.322C688.286 459.423 685.934 457.073 683.033 457.073C680.131 457.073 677.779 459.423 677.779 462.322C677.779 465.221 680.131 467.571 683.033 467.571Z" fill="#DDE3EB"/>
<path d="M301.723 537.979C302.758 537.979 303.597 537.141 303.597 536.106C303.597 535.072 302.758 534.234 301.723 534.234C300.688 534.234 299.849 535.072 299.849 536.106C299.849 537.141 300.688 537.979 301.723 537.979Z" fill="#DDE3EB"/>
<path d="M938.92 257.97C940.95 257.97 942.595 256.326 942.595 254.298C942.595 252.269 940.95 250.625 938.92 250.625C936.89 250.625 935.244 252.269 935.244 254.298C935.244 256.326 936.89 257.97 938.92 257.97Z" fill="#DDE3EB"/>
<path d="M655.085 118.778C655.085 119.233 654.95 119.678 654.697 120.057C654.444 120.435 654.084 120.73 653.663 120.904C653.242 121.078 652.779 121.124 652.332 121.035C651.886 120.946 651.475 120.727 651.153 120.405C650.831 120.084 650.612 119.673 650.523 119.227C650.434 118.781 650.48 118.318 650.654 117.897C650.828 117.477 651.123 117.117 651.502 116.864C651.881 116.612 652.326 116.477 652.782 116.477C653.393 116.477 653.978 116.719 654.41 117.151C654.842 117.582 655.085 118.168 655.085 118.778Z" fill="#DDE3EB"/>
<path d="M1395.62 59.3937C1398.49 59.3937 1400.81 57.0706 1400.81 54.2049C1400.81 51.3392 1398.49 49.0161 1395.62 49.0161C1392.75 49.0161 1390.43 51.3392 1390.43 54.2049C1390.43 57.0706 1392.75 59.3937 1395.62 59.3937Z" fill="#DDE3EB"/>
<path d="M1360.64 414.873C1360.64 415.619 1360.42 416.348 1360 416.969C1359.59 417.59 1359 418.074 1358.31 418.36C1357.62 418.646 1356.86 418.722 1356.13 418.577C1355.4 418.432 1354.73 418.073 1354.2 417.547C1353.67 417.02 1353.31 416.348 1353.17 415.617C1353.02 414.885 1353.09 414.127 1353.38 413.438C1353.66 412.749 1354.15 412.16 1354.77 411.745C1355.39 411.331 1356.12 411.11 1356.86 411.11C1357.86 411.11 1358.82 411.506 1359.53 412.212C1360.24 412.917 1360.64 413.874 1360.64 414.873Z" fill="#DDE3EB"/>
<path d="M410.678 389.762C409.761 389.762 408.864 389.49 408.101 388.981C407.339 388.472 406.744 387.748 406.394 386.901C406.043 386.054 405.951 385.122 406.131 384.223C406.31 383.324 406.752 382.499 407.401 381.851C408.051 381.203 408.877 380.762 409.777 380.584C410.677 380.406 411.609 380.499 412.457 380.851C413.304 381.202 414.028 381.797 414.536 382.56C415.045 383.322 415.316 384.219 415.315 385.135C415.313 386.363 414.824 387.54 413.955 388.407C413.085 389.275 411.907 389.762 410.678 389.762ZM410.678 382.918C410.239 382.918 409.81 383.048 409.445 383.292C409.081 383.536 408.796 383.882 408.628 384.287C408.46 384.692 408.416 385.138 408.502 385.568C408.588 385.998 408.799 386.393 409.109 386.703C409.419 387.013 409.815 387.224 410.245 387.309C410.676 387.395 411.122 387.351 411.527 387.183C411.933 387.016 412.279 386.731 412.523 386.367C412.767 386.002 412.897 385.574 412.897 385.135C412.897 384.844 412.841 384.555 412.729 384.286C412.618 384.017 412.455 383.772 412.249 383.566C412.042 383.36 411.798 383.197 411.528 383.085C411.258 382.974 410.97 382.918 410.678 382.918Z" fill="#DDE3EB"/>
<path d="M50.4423 82.4023C47.782 82.4023 45.1814 81.6141 42.9694 80.1373C40.7574 78.6604 39.0334 76.5614 38.0153 74.1055C36.9973 71.6496 36.7309 68.9473 37.2499 66.3401C37.7689 63.733 39.05 61.3382 40.9311 59.4585C42.8123 57.5789 45.209 56.2988 47.8182 55.7802C50.4274 55.2616 53.132 55.5278 55.5898 56.5451C58.0476 57.5623 60.1483 59.285 61.6263 61.4952C63.1043 63.7054 63.8932 66.3039 63.8932 68.9622C63.8884 72.5252 62.4698 75.941 59.9483 78.4605C57.4268 80.98 54.0083 82.3976 50.4423 82.4023ZM50.4423 57.9382C48.2603 57.9382 46.1272 58.5847 44.3129 59.7961C42.4986 61.0074 41.0845 62.7291 40.2494 64.7435C39.4144 66.7578 39.1959 68.9744 39.6216 71.1128C40.0473 73.2513 41.0981 75.2156 42.641 76.7573C44.184 78.299 46.1498 79.3489 48.29 79.7743C50.4301 80.1997 52.6484 79.9814 54.6644 79.147C56.6804 78.3126 58.4034 76.8996 59.6157 75.0868C60.828 73.2739 61.4751 71.1425 61.4751 68.9622C61.4719 66.0394 60.3085 63.2373 58.2401 61.1706C56.1718 59.1039 53.3674 57.9414 50.4423 57.9382Z" fill="#DDE3EB"/>
<path d="M406.519 75.3949C404.511 75.3961 402.548 74.8022 400.878 73.6882C399.207 72.5743 397.906 70.9904 397.137 69.1369C396.368 67.2834 396.166 65.2437 396.558 63.2758C396.949 61.3078 397.916 59.5001 399.336 58.0814C400.756 56.6626 402.565 55.6966 404.534 55.3054C406.504 54.9143 408.545 55.1156 410.4 55.884C412.255 56.6524 413.84 57.9533 414.955 59.622C416.07 61.2908 416.664 63.2525 416.663 65.2589C416.66 67.9462 415.59 70.5225 413.688 72.4226C411.787 74.3228 409.208 75.3918 406.519 75.3949ZM406.519 57.5331C404.989 57.5319 403.494 57.984 402.222 58.8322C400.949 59.6804 399.957 60.8866 399.371 62.2982C398.785 63.7098 398.631 65.2634 398.929 66.7625C399.226 68.2615 399.962 69.6387 401.043 70.7198C402.125 71.8009 403.502 72.5373 405.002 72.8359C406.502 73.1345 408.057 72.9818 409.47 72.3973C410.884 71.8127 412.092 70.8224 412.941 69.5518C413.791 68.2812 414.245 66.7872 414.245 65.2589C414.243 63.2115 413.429 61.2482 411.981 59.7998C410.532 58.3515 408.568 57.5363 406.519 57.5331Z" fill="#DDE3EB"/>
<path d="M1388.75 263.304C1387.25 263.304 1385.77 262.858 1384.52 262.021C1383.27 261.184 1382.29 259.995 1381.72 258.604C1381.14 257.213 1380.99 255.683 1381.28 254.206C1381.58 252.729 1382.3 251.373 1383.37 250.309C1384.44 249.245 1385.79 248.521 1387.27 248.228C1388.75 247.935 1390.28 248.086 1391.67 248.663C1393.06 249.24 1394.25 250.217 1395.09 251.469C1395.93 252.721 1396.37 254.194 1396.37 255.699C1396.37 257.716 1395.56 259.65 1394.14 261.075C1392.71 262.501 1390.77 263.303 1388.75 263.304ZM1388.75 250.504C1387.73 250.504 1386.72 250.809 1385.87 251.38C1385.01 251.951 1384.34 252.762 1383.95 253.711C1383.56 254.66 1383.45 255.705 1383.65 256.713C1383.86 257.72 1384.35 258.646 1385.08 259.372C1385.8 260.099 1386.73 260.594 1387.74 260.794C1388.75 260.995 1389.79 260.892 1390.74 260.499C1391.69 260.105 1392.51 259.44 1393.08 258.585C1393.65 257.731 1393.95 256.727 1393.95 255.699C1393.95 254.322 1393.4 253.001 1392.43 252.028C1391.45 251.054 1390.13 250.506 1388.75 250.504Z" fill="#DDE3EB"/>
</g>
<defs>
<clipPath id="clip0_222_3332">
<rect width="1920" height="576" fill="white" transform="translate(-240)"/>
</clipPath>
</defs>
</svg>
