<svg width="200" height="54" viewBox="0 0 200 54" fill="none" xmlns="http://www.w3.org/2000/svg">
<g clip-path="url(#clip0_228_81)">
<path d="M1.14441e-05 27.1502C1.14441e-05 27.0346 1.14441e-05 26.9191 1.14441e-05 26.7978C0.00062561 21.8413 1.37458 16.982 3.96906 12.7607C6.56353 8.53931 10.2768 5.12127 14.6958 2.88677C19.1149 0.652262 24.0664 -0.311107 28.9997 0.103816C33.933 0.51874 38.6546 2.29569 42.6393 5.23701C46.6241 8.17833 49.7157 12.1687 51.5704 16.7643C53.425 21.3599 53.97 26.3805 53.1447 31.2676C52.3193 36.1548 50.156 40.7169 46.8954 44.4466C43.6347 48.1762 39.4046 50.9272 34.6755 52.3934C30.129 53.8029 25.4441 53.5025 20.788 53.5025H2.23863C1.94444 53.5032 1.653 53.4458 1.38105 53.3334C1.1091 53.2211 0.862019 53.056 0.653992 52.8477C0.445965 52.6395 0.281097 52.3921 0.168869 52.1198C0.0566368 51.8475 -0.000751495 51.5557 1.14441e-05 51.2612V27.1502Z" fill="#007EEF"/>
<path d="M35.3582 44.278H13.797C13.1712 44.278 12.571 44.029 12.1284 43.586C11.6859 43.1429 11.4373 42.542 11.4373 41.9154V12.2473C11.4373 11.6208 11.6859 11.0198 12.1284 10.5768C12.571 10.1337 13.1712 9.88477 13.797 9.88477H26.5768C29.5316 9.88477 32.3654 11.06 34.4548 13.1518C36.5442 15.2437 37.7179 18.0808 37.7179 21.0392V41.9154C37.7179 42.542 37.4693 43.1429 37.0268 43.586C36.5842 44.029 35.984 44.278 35.3582 44.278Z" fill="#DBF122"/>
<path d="M28.5211 41.2447C27.6552 42.1151 26.9655 43.1449 26.4902 44.2774H35.3582C35.6681 44.2774 35.9749 44.2163 36.2612 44.0976C36.5475 43.9788 36.8077 43.8048 37.0268 43.5854C37.2459 43.366 37.4197 43.1056 37.5383 42.8189C37.6569 42.5323 37.7179 42.2251 37.7179 41.9148V32.0312L28.5211 41.2447Z" fill="#DBF122"/>
<path d="M26.5768 9.88477C29.5251 9.88477 29.6116 11.5657 29.6116 12.8365V15.6381C29.6116 16.2653 29.86 16.8668 30.3024 17.3108C30.7448 17.7548 31.345 18.005 31.9714 18.0065H34.7697C36.039 18.0065 37.7179 18.0874 37.7179 21.0392C37.7179 19.5743 37.4298 18.1239 36.8699 16.7706C36.31 15.4172 35.4893 14.1876 34.4548 13.1518C33.4202 12.116 32.192 11.2944 30.8403 10.7338C29.4886 10.1733 28.0399 9.88477 26.5768 9.88477Z" fill="#DBF122"/>
<path d="M32.2195 49.0654L29.3347 50.186C29.0748 50.288 28.7909 50.312 28.5176 50.2551C28.2444 50.1982 27.9936 50.0629 27.7959 49.8656C27.5982 49.6683 27.4622 49.4176 27.4045 49.1442C27.3469 48.8708 27.37 48.5864 27.4711 48.326L28.625 45.4377C28.993 44.5059 29.5466 43.6588 30.252 42.9481L39.0392 34.1562L43.5049 38.6273L34.7062 47.4364C33.9963 48.1427 33.1502 48.697 32.2195 49.0654Z" fill="#4ADEFF"/>
<path d="M31.106 42.0941L35.5717 46.5651L37.3025 44.8321C35.7217 43.4284 34.8447 41.0139 35.4447 37.7617L31.106 42.0941Z" fill="#4ADEFF"/>
<path d="M31.106 42.0938L30.2405 42.966C29.535 43.6767 28.9814 44.5238 28.6135 45.4557L27.4595 48.3439C27.3568 48.6092 27.3346 48.899 27.3957 49.1769C27.4569 49.4548 27.5987 49.7084 27.8034 49.9059C28.008 50.1034 28.2663 50.2359 28.546 50.2869C28.8256 50.3378 29.114 50.305 29.3751 50.1924L32.2599 49.0371C33.1906 48.6687 34.0367 48.1144 34.7466 47.4081L35.6178 46.5359L31.106 42.0938Z" fill="#DBF122"/>
<path d="M41.2605 31.9277L45.7204 36.393L43.4991 38.6169L39.0392 34.1459L41.2605 31.9277Z" fill="#DBF122"/>
<path d="M45.7262 36.3934L41.2605 31.934L43.1126 30.0797C43.2611 29.9301 43.4377 29.8113 43.6323 29.7302C43.8269 29.6492 44.0355 29.6074 44.2463 29.6074C44.457 29.6074 44.6657 29.6492 44.8603 29.7302C45.0548 29.8113 45.2315 29.9301 45.38 30.0797L47.5783 32.2806C47.7278 32.4293 47.8464 32.6061 47.9274 32.8009C48.0083 32.9957 48.05 33.2047 48.05 33.4157C48.05 33.6267 48.0083 33.8356 47.9274 34.0304C47.8464 34.2252 47.7278 34.402 47.5783 34.5507L45.7262 36.3934Z" fill="white"/>
<path d="M30.2636 47.4144C29.7159 46.873 29.0533 46.4623 28.325 46.2129L27.4884 48.3502C27.3916 48.6121 27.3728 48.8965 27.4341 49.1689C27.4954 49.4413 27.6343 49.6901 27.834 49.8851C28.0336 50.08 28.2855 50.2129 28.559 50.2675C28.8325 50.3222 29.116 50.2963 29.3751 50.1929L31.5099 49.3553C31.2473 48.6219 30.821 47.9581 30.2636 47.4144Z" fill="white"/>
<path d="M48.0109 31.847L45.8127 29.6462C45.3975 29.232 44.8352 28.9995 44.2491 28.9995C43.663 28.9995 43.1008 29.232 42.6856 29.6462L38.3295 34.0074V21.0392C38.3249 17.9204 37.085 14.9308 34.8818 12.726C32.6785 10.5212 29.6918 9.28133 26.5767 9.27828H16.2202C16.1353 9.26999 16.0496 9.27958 15.9686 9.30644C15.8876 9.3333 15.8132 9.37682 15.75 9.43422C15.6868 9.49161 15.6363 9.56161 15.6017 9.63971C15.5672 9.71781 15.5493 9.80228 15.5493 9.8877C15.5493 9.97312 15.5672 10.0576 15.6017 10.1357C15.6363 10.2138 15.6868 10.2838 15.75 10.3412C15.8132 10.3986 15.8876 10.4421 15.9686 10.469C16.0496 10.4958 16.1353 10.5054 16.2202 10.4971H26.6056C29.0288 10.4971 29.0288 11.6871 29.0288 12.8077V15.6093C29.0304 16.3978 29.3439 17.1536 29.9008 17.7112C30.4577 18.2688 31.2126 18.5827 32.0002 18.5842H34.7985C35.9524 18.5842 37.1409 18.5842 37.1409 21.0103V35.2378C29.1846 43.1631 29.4212 42.8685 28.8788 43.6657H13.797C13.3379 43.6657 12.8977 43.4831 12.5731 43.1581C12.2485 42.8331 12.0661 42.3924 12.0661 41.9328V12.2474C12.0601 11.8346 12.2015 11.4331 12.4649 11.1154C12.7283 10.7977 13.0963 10.5846 13.5027 10.5144C13.6536 10.4706 13.7818 10.3704 13.8608 10.2346C13.9399 10.0987 13.9637 9.93764 13.9273 9.78469C13.891 9.63174 13.7973 9.49864 13.6656 9.41297C13.5339 9.32729 13.3744 9.29561 13.22 9.32449C12.5381 9.45124 11.9219 9.81287 11.4782 10.3467C11.0346 10.8805 10.7915 11.5529 10.791 12.2474V41.9154C10.7918 42.3085 10.8703 42.6976 11.0221 43.0601C11.174 43.4227 11.396 43.7515 11.6756 44.0276C11.9551 44.3037 12.2865 44.5216 12.6506 44.6687C13.0147 44.8157 13.4044 44.8891 13.797 44.8845H28.2211C28.0711 45.2311 28.0884 45.2138 26.9518 48.1078C26.809 48.4782 26.7767 48.8822 26.8588 49.2707C26.9409 49.6591 27.1339 50.0153 27.4143 50.2961C27.6948 50.5769 28.0506 50.7701 28.4386 50.8523C28.8266 50.9345 29.23 50.9022 29.6 50.7592L32.4848 49.6039C34.5446 48.7952 35.4504 47.4897 36.0447 46.9698L37.0775 45.9359C37.1339 45.8793 37.1787 45.8123 37.2093 45.7384C37.2398 45.6646 37.2555 45.5854 37.2555 45.5055C37.2555 45.4256 37.2398 45.3464 37.2093 45.2726C37.1787 45.1988 37.1339 45.1317 37.0775 45.0752C37.021 45.0186 36.954 44.9738 36.8803 44.9432C36.8065 44.9126 36.7275 44.8969 36.6476 44.8969C36.5678 44.8969 36.4888 44.9126 36.415 44.9432C36.3413 44.9738 36.2743 45.0186 36.2178 45.0752L35.6408 45.6528L31.9714 42.0945L39.0392 35.0241L42.6452 38.6286L38.243 43.0418C38.129 43.1552 38.0646 43.3093 38.0641 43.4701C38.0635 43.631 38.1268 43.7855 38.2401 43.8996C38.3533 44.0138 38.5072 44.0782 38.6679 44.0787C38.8285 44.0793 38.9829 44.0159 39.0969 43.9025L48.0109 34.9779C48.4246 34.5621 48.6568 33.9992 48.6568 33.4124C48.6568 32.8256 48.4246 32.2627 48.0109 31.847ZM34.7696 17.4058H31.9714C31.5123 17.4058 31.072 17.2232 30.7474 16.8982C30.4228 16.5732 30.2405 16.1325 30.2405 15.6728C30.2405 12.4727 30.3039 11.895 29.9924 11.0921C31.5105 11.616 32.8898 12.4784 34.0262 13.6142C35.1627 14.75 36.0265 16.1294 36.5524 17.6484C35.9793 17.4525 35.3746 17.3663 34.7696 17.3942V17.4058ZM29.1269 49.6213C28.9778 49.6791 28.8151 49.6923 28.6586 49.6592C28.5021 49.6262 28.3586 49.5483 28.2455 49.4351C28.1324 49.3219 28.0546 49.1782 28.0216 49.0215C27.9886 48.8648 28.0018 48.7019 28.0595 48.5526L28.6654 46.9987C29.532 47.4415 30.2368 48.147 30.679 49.0147L29.1269 49.6213ZM34.7119 46.5655L34.2734 47.0045C33.5802 47.6982 32.7431 48.2306 31.8213 48.5642C31.2478 47.3832 30.2949 46.4292 29.1154 45.855C29.4463 44.9311 29.9784 44.0924 30.6732 43.4L31.1117 42.961L34.7119 46.5655ZM43.5049 37.7679L39.8988 34.1576L41.2605 32.8001L44.8607 36.3931L43.5049 37.7679ZM47.1513 34.1172L45.7262 35.544L42.1201 31.9337L43.5452 30.5069C43.7323 30.3206 43.9853 30.2161 44.2491 30.2161C44.5129 30.2161 44.766 30.3206 44.953 30.5069L47.1513 32.7077C47.3373 32.895 47.4417 33.1483 47.4417 33.4124C47.4417 33.6765 47.3373 33.9299 47.1513 34.1172Z" fill="white"/>
<path d="M20.2316 25.3142V22.3725L26.9554 21.0117V35.2799H23.6936V24.4537L20.2316 25.3142Z" fill="#162B43"/>
</g>
<path d="M90.6062 12.5257H93.422C91.8577 14.2074 90.2933 15.8891 88.7289 17.5708C84.466 22.1465 81.1808 25.6272 78.8734 28.0129C74.8843 32.1585 72.0293 35.0134 70.3085 36.5778C70.0738 36.7734 69.8979 36.9689 69.7805 37.1644C69.7023 37.36 69.6045 37.5751 69.4872 37.8097C73.6328 43.2068 77.5241 47.8804 81.1613 51.8304L81.2786 52.2997L79.5774 53.5316C75.7838 49.4252 71.8924 44.7321 67.9033 39.4523C67.8251 39.3741 67.7664 39.2372 67.7273 39.0417C67.7273 38.8461 67.7077 38.6702 67.6686 38.5137C70.1716 35.6196 72.6942 32.7256 75.2363 29.8315C77.7784 26.9374 80.3204 24.0629 82.8625 21.2079C85.4046 18.3529 87.9858 15.4589 90.6062 12.5257ZM71.1298 13.9923L73.9457 12.291C72.7333 17.4534 72.0684 20.2888 71.9511 20.7973C71.0516 24.4735 70.2498 27.3089 69.5459 29.3035C68.5681 32.0803 67.258 35.0721 65.6154 38.2791C65.0679 39.335 64.5203 40.4105 63.9728 41.5056C63.4253 42.5615 62.8191 43.5197 62.1542 44.3801C59.6904 47.5479 57.3634 49.8163 55.1732 51.1851C52.5529 52.8277 49.5024 53.649 46.0217 53.649C44.34 53.649 42.6974 53.473 41.0939 53.121C39.1385 52.5735 37.6523 52.1824 36.6355 51.9477L38.2194 50.5398C39.0407 50.8918 39.7056 51.146 40.214 51.3024C41.7784 51.8499 43.0885 52.2019 44.1445 52.3584C45.1613 52.4757 46.1195 52.5344 47.019 52.5344C47.8012 52.5344 48.7593 52.417 49.8935 52.1824C51.6925 51.7913 53.2373 51.1655 54.5279 50.3051C56.0923 49.2492 57.9891 47.1959 60.2183 44.1454C60.9223 43.2068 61.5089 42.2291 61.9782 41.2122C62.4476 40.1563 62.9364 39.1004 63.4448 38.0444C64.8919 35.033 66.1434 31.9238 67.1993 28.7169C67.5904 27.5436 68.9006 22.6354 71.1298 13.9923Z" fill="#DBF122"/>
<path d="M101.728 13.4056C102.393 14.3051 102.726 15.2242 102.726 16.1628C102.726 16.7104 102.687 17.1797 102.608 17.5708C102.256 18.6658 102.022 19.5067 101.904 20.0933C101.513 21.6968 101.083 23.0656 100.614 24.1998C100.536 24.3953 99.9099 25.6859 98.7366 28.0716C97.5633 30.4572 96.3509 32.6082 95.0994 34.5246C94.1608 35.9325 92.7724 37.7706 90.9343 40.039L88.6464 50.0705C88.49 50.6962 88.4118 51.1655 88.4118 51.4784C88.4118 51.7913 88.49 52.0259 88.6464 52.1824C88.7637 52.2997 88.9202 52.3584 89.1157 52.3584C89.3895 52.3584 89.6437 52.2997 89.8784 52.1824C90.6214 51.9477 91.4036 51.3611 92.2249 50.4225C92.4987 50.1096 92.8311 49.6598 93.2222 49.0732L93.4569 49.6598C92.9875 50.3247 92.616 50.8135 92.3422 51.1264C91.4427 52.1824 90.6801 52.8472 90.0544 53.121C89.3895 53.3948 88.9202 53.5708 88.6464 53.649C88.3727 53.7272 88.1184 53.7663 87.8838 53.7663C87.5709 53.7663 87.2776 53.6881 87.0038 53.5316C86.4172 53.1797 86.1239 52.593 86.1239 51.7717C86.1239 51.5371 86.1434 51.3415 86.1825 51.1851C86.1825 51.0287 86.2412 50.6962 86.3585 50.1878L87.5905 44.3801L85.7719 45.8467C85.8892 45.4165 86.0261 45.1036 86.1825 44.9081L87.8251 42.9722C89.6633 34.329 90.8561 29.1666 91.4036 27.4849C93.2809 21.6968 96.0576 17.1601 99.7339 13.8749C100.164 13.523 100.516 13.3274 100.79 13.2883C101.298 13.2101 101.611 13.2492 101.728 13.4056ZM101.376 18.8027C101.572 18.1378 101.709 17.6099 101.787 17.2188C101.865 16.8277 101.904 16.4366 101.904 16.0455C101.904 15.5371 101.807 15.0873 101.611 14.6962C101.298 14.7353 101.005 14.7744 100.731 14.8136C100.301 15.2438 100.008 15.6544 99.8512 16.0455C98.0522 19.4089 96.4291 22.9874 94.9821 26.781C93.5742 30.5746 92.4205 34.3681 91.5209 38.1617C92.8898 36.4018 94.1217 34.6615 95.2168 32.9407C96.4683 30.9461 97.5633 28.9124 98.5019 26.8396C99.3232 25.0797 99.8903 23.7696 100.203 22.9092C100.672 21.6968 101.064 20.3279 101.376 18.8027Z" fill="#DBF122"/>
<path d="M110.739 49.5425H111.325C111.052 50.5984 110.328 51.5762 109.155 52.4757C108.021 53.3752 106.789 53.7663 105.459 53.649C104.912 53.649 104.52 53.4925 104.286 53.1797C104.051 52.8668 103.934 52.417 103.934 51.8304C103.934 51.0482 104.11 50.1291 104.462 49.0732C104.618 48.5648 104.912 47.8021 105.342 46.7853C104.403 48.1932 103.484 49.6012 102.585 51.0091C101.372 52.5344 99.9643 53.4143 98.3608 53.649C97.4613 53.7663 96.7182 53.4925 96.1315 52.8277C95.5058 52.1237 95.1929 51.2046 95.1929 50.0705C95.1929 49.8749 95.232 49.5034 95.3103 48.9559C95.7405 46.8831 96.7377 45.1427 98.3021 43.7348C99.6318 42.4833 101.177 41.6816 102.937 41.3296C103.641 41.1731 104.638 41.0949 105.928 41.0949C106.437 41.0949 106.926 41.134 107.395 41.2122L106.867 42.3269C106.202 42.2095 105.596 42.1509 105.048 42.1509C102.545 42.1509 100.531 43.1677 99.0061 45.2014C97.7546 46.844 97.1288 48.5061 97.1288 50.1878C97.1288 51.4393 97.7155 52.065 98.8887 52.065C99.2407 52.065 99.6905 51.9477 100.238 51.7131C101.138 51.2829 101.881 50.6767 102.467 49.8945C103.132 48.8385 103.68 47.9977 104.11 47.3719C104.736 46.4724 105.713 44.8885 107.043 42.6202C107.239 42.2682 107.512 41.8184 107.864 41.2709H109.272C108.881 42.4442 108.588 43.3828 108.392 44.0868C107.845 45.8076 107.258 47.5088 106.632 49.1905C106.515 49.4252 106.378 49.7772 106.222 50.2465C106.104 50.6767 106.046 51.0091 106.046 51.2438C106.046 51.674 106.163 51.9673 106.398 52.1237C106.671 52.2801 106.887 52.3584 107.043 52.3584C107.395 52.2801 107.669 52.2215 107.864 52.1824C108.607 52.0259 109.39 51.4197 110.211 50.3638C110.328 50.2074 110.504 49.9336 110.739 49.5425Z" fill="#DBF122"/>
<path d="M128.272 49.4252L128.507 50.0705C127.842 50.8527 127.177 51.6153 126.512 52.3584C125.456 53.3752 124.517 53.8836 123.696 53.8836C123.305 53.8836 122.934 53.7663 122.582 53.5316C121.995 53.1405 121.702 52.4366 121.702 51.4197C121.702 50.9895 121.78 50.3834 121.936 49.6012C122.093 48.7799 122.406 47.6066 122.875 46.0813C123.031 45.5729 123.266 44.8494 123.579 43.9108C122.875 45.1623 122.308 46.14 121.878 46.844C120.509 49.0732 119.316 50.7744 118.299 51.9477C118.221 52.0259 118.025 52.2606 117.712 52.6517C117.4 53.0037 117.145 53.2579 116.95 53.4143C116.52 53.7272 115.992 53.8836 115.366 53.8836C114.154 53.8836 113.508 53.5903 113.43 53.0037C113.352 52.3779 113.313 51.7913 113.313 51.2438C113.313 50.1487 113.469 48.9754 113.782 47.7239C114.056 46.4333 114.721 44.3605 115.777 41.5056L118.064 41.1536C117.673 42.2878 117.36 43.2068 117.126 43.9108C116.344 46.2182 115.874 47.8804 115.718 48.8972C115.522 49.914 115.327 50.8527 115.131 51.7131C115.131 51.9868 115.17 52.241 115.249 52.4757C115.288 52.7103 115.464 52.8277 115.777 52.8277C116.089 52.8277 116.481 52.6712 116.95 52.3584C117.38 52.0064 117.752 51.6348 118.064 51.2438C119.707 48.8972 120.861 47.2155 121.526 46.1987C122.582 44.5952 123.501 42.9526 124.283 41.2709H126.336L123.931 51.2438C123.853 51.5957 123.931 51.8695 124.165 52.065C124.283 52.1433 124.517 52.1824 124.869 52.1824C125.573 52.1824 126.356 51.7326 127.216 50.8331C127.49 50.5593 127.842 50.09 128.272 49.4252Z" fill="#DBF122"/>
<path d="M138.12 38.8657C138.237 38.9048 138.433 39.1004 138.707 39.4523C138.824 39.6479 138.883 39.8434 138.883 40.039C138.883 40.4692 138.687 40.8798 138.296 41.2709C137.905 41.662 137.436 42.014 136.888 42.3269C138.022 44.165 138.589 46.1009 138.589 48.1346C138.589 49.2296 138.394 50.1878 138.003 51.0091C137.651 51.8304 137.045 52.4757 136.184 52.945C135.089 53.6099 133.896 53.9423 132.606 53.9423C131.315 53.9423 130.337 53.4925 129.673 52.593C129.477 52.2019 129.399 51.9086 129.438 51.7131C129.477 51.2829 129.809 51.0678 130.435 51.0678C130.826 51.0678 131.178 51.1655 131.491 51.3611C132.078 51.8304 132.645 52.2801 133.192 52.7103C133.544 52.8277 133.916 52.8863 134.307 52.8863C134.972 52.8863 135.519 52.6126 135.95 52.065C136.262 51.674 136.478 51.2438 136.595 50.7744C136.751 50.266 136.83 49.7185 136.83 49.1319C136.83 48.2323 136.693 47.2742 136.419 46.2573C136.184 45.2014 135.95 44.1845 135.715 43.2068H135.246L131.139 47.5479L130.787 47.4306L135.598 41.9749C135.598 41.2318 135.715 40.6061 135.95 40.0976C136.184 39.5501 136.556 39.1981 137.064 39.0417C137.573 38.8853 137.925 38.8266 138.12 38.8657Z" fill="#DBF122"/>
<path d="M157.718 49.4252L157.953 50.0705C157.288 50.8527 156.623 51.6153 155.959 52.3584C154.903 53.3752 153.964 53.8836 153.143 53.8836C152.752 53.8836 152.38 53.7663 152.028 53.5316C151.441 53.1405 151.148 52.4366 151.148 51.4197C151.148 50.9895 151.226 50.3834 151.383 49.6012C151.539 48.7799 151.852 47.6066 152.321 46.0813C152.478 45.5729 152.712 44.8494 153.025 43.9108C152.321 45.1623 151.754 46.14 151.324 46.844C149.955 49.0732 148.762 50.7744 147.746 51.9477C147.667 52.0259 147.472 52.2606 147.159 52.6517C146.846 53.0037 146.592 53.2579 146.396 53.4143C145.966 53.7272 145.438 53.8836 144.812 53.8836C143.6 53.8836 142.955 53.5903 142.876 53.0037C142.798 52.3779 142.759 51.7913 142.759 51.2438C142.759 50.1487 142.916 48.9754 143.228 47.7239C143.502 46.4333 144.167 44.3605 145.223 41.5056L147.511 41.1536C147.12 42.2878 146.807 43.2068 146.572 43.9108C145.79 46.2182 145.321 47.8804 145.164 48.8972C144.969 49.914 144.773 50.8527 144.578 51.7131C144.578 51.9868 144.617 52.241 144.695 52.4757C144.734 52.7103 144.91 52.8277 145.223 52.8277C145.536 52.8277 145.927 52.6712 146.396 52.3584C146.826 52.0064 147.198 51.6348 147.511 51.2438C149.154 48.8972 150.307 47.2155 150.972 46.1987C152.028 44.5952 152.947 42.9526 153.729 41.2709H155.783L153.377 51.2438C153.299 51.5957 153.377 51.8695 153.612 52.065C153.729 52.1433 153.964 52.1824 154.316 52.1824C155.02 52.1824 155.802 51.7326 156.662 50.8331C156.936 50.5593 157.288 50.09 157.718 49.4252Z" fill="#DBF122"/>
<path d="M168.271 41.2709C168.466 41.1927 168.818 41.1927 169.327 41.2709C170.07 41.4273 170.441 42.014 170.441 43.0308C170.441 43.7739 170.246 44.5561 169.854 45.3774C169.463 46.1987 169.033 46.7462 168.564 47.02L168.036 46.668C168.153 46.316 168.231 46.0422 168.271 45.8467C168.466 45.0645 168.564 44.4974 168.564 44.1454C168.564 43.4415 168.349 43.0895 167.919 43.0895C167.488 43.0895 167.175 43.1482 166.98 43.2655C166.511 43.5784 165.65 44.9276 164.399 47.3133C163.304 49.3861 162.306 51.4589 161.407 53.5316H159.647L161.994 42.0922L164.399 41.2709L162.873 49.0732C164.008 46.5311 164.673 45.0841 164.868 44.7321C165.846 42.9722 166.98 41.8184 168.271 41.2709Z" fill="#DBF122"/>
<path d="M181.65 49.0732L181.357 50.0705C180.34 51.0873 179.304 51.9282 178.248 52.593C176.762 53.5316 175.471 54.0009 174.376 54.0009C173.907 54.0009 173.496 53.9032 173.144 53.7076C172.753 53.5512 172.421 53.2579 172.147 52.8277C171.756 52.2019 171.56 51.5175 171.56 50.7744C171.56 49.8749 171.815 48.8777 172.323 47.7826C172.831 46.6484 173.379 45.6707 173.966 44.8494C174.552 43.989 175.276 43.2068 176.136 42.5029C177.153 41.6816 177.935 41.2318 178.483 41.1536C179.069 41.0363 179.499 40.9776 179.773 40.9776C180.086 40.9776 180.419 41.0558 180.771 41.2122C181.162 41.3296 181.435 41.5642 181.592 41.9162C181.787 42.2291 181.885 42.6397 181.885 43.1482C181.885 44.165 181.592 45.0254 181.005 45.7294C180.067 46.8635 178.972 47.8413 177.72 48.6625C176.625 49.3665 175.315 50.0314 173.79 50.6571C173.672 51.1264 173.731 51.5957 173.966 52.065C174.2 52.5344 174.65 52.769 175.315 52.769C175.784 52.769 176.332 52.6321 176.957 52.3584C177.583 52.0455 178.228 51.7131 178.893 51.3611C179.597 50.97 180.125 50.618 180.477 50.3051C180.868 49.9923 181.259 49.5816 181.65 49.0732ZM173.907 50.0705C175.393 49.5229 176.762 48.7017 178.013 47.6066C179.499 46.316 180.379 44.9667 180.653 43.5588C180.81 42.6984 180.419 42.1313 179.48 41.8575C178.893 41.7402 178.444 41.8184 178.131 42.0922C175.315 44.2432 173.907 46.9026 173.907 50.0705Z" fill="#DBF122"/>
<path d="M199.877 49.0732L199.995 49.6598C199.174 50.9895 198.313 52.0064 197.414 52.7103C196.553 53.3752 195.771 53.7076 195.067 53.7076C194.793 53.7076 194.461 53.649 194.07 53.5316C193.718 53.3752 193.444 53.1014 193.248 52.7103C193.053 52.3193 192.955 51.8695 192.955 51.3611C192.955 51.0482 193.033 50.5985 193.19 50.0118C193.385 49.4252 193.718 48.5843 194.187 47.4893C194.656 46.3551 195.106 45.2796 195.536 44.2628C195.732 43.7543 195.83 43.3633 195.83 43.0895C195.83 42.6984 195.654 42.2878 195.302 41.8575L195.184 41.7402C194.559 41.4665 193.835 41.838 193.014 42.8548C192.427 43.637 192.017 44.1845 191.782 44.4974C190.843 45.7098 189.572 47.6066 187.969 50.1878C187.46 51.0091 186.776 52.1237 185.916 53.5316L184.332 53.4143L187.617 41.5056L189.905 41.0363L187.499 49.5425L192.31 42.7375C192.779 42.0727 193.268 41.6033 193.776 41.3296C194.285 41.0558 194.872 40.8798 195.536 40.8016C196.006 40.7234 196.514 40.9189 197.062 41.3882C197.609 41.8184 197.824 42.3073 197.707 42.8548C197.472 44.2237 197.062 45.6903 196.475 47.2546C195.771 49.0536 195.243 50.4225 194.891 51.3611C194.735 51.7522 194.735 52.0259 194.891 52.1824C195.087 52.3388 195.302 52.417 195.536 52.417C195.654 52.417 195.947 52.3193 196.416 52.1237C196.925 51.9282 197.394 51.6544 197.824 51.3024C198.254 50.9504 198.939 50.2074 199.877 49.0732Z" fill="#DBF122"/>
<path d="M114.199 16.6097C114.199 17.8524 114.439 18.9548 114.92 19.9168C115.421 20.8589 116.113 21.6005 116.995 22.1417C117.897 22.6828 118.949 22.9534 120.151 22.9534C121.334 22.9534 122.366 22.6828 123.248 22.1417C124.15 21.6005 124.842 20.8589 125.323 19.9168C125.824 18.9548 126.074 17.8524 126.074 16.6097C126.074 15.367 125.834 14.2746 125.353 13.3326C124.872 12.3705 124.19 11.6188 123.308 11.0777C122.426 10.5365 121.374 10.2659 120.151 10.2659C118.949 10.2659 117.897 10.5365 116.995 11.0777C116.113 11.6188 115.421 12.3705 114.92 13.3326C114.439 14.2746 114.199 15.367 114.199 16.6097ZM108.817 16.6097C108.817 14.9861 109.098 13.5029 109.659 12.16C110.24 10.8171 111.042 9.65459 112.064 8.67246C113.086 7.69033 114.289 6.9387 115.672 6.41757C117.055 5.8764 118.548 5.60581 120.151 5.60581C121.775 5.60581 123.268 5.8764 124.631 6.41757C126.014 6.9387 127.217 7.69033 128.239 8.67246C129.261 9.65459 130.053 10.8171 130.614 12.16C131.175 13.5029 131.456 14.9861 131.456 16.6097C131.456 18.2332 131.175 19.7264 130.614 21.0894C130.073 22.4523 129.291 23.6349 128.269 24.6371C127.267 25.6392 126.074 26.4209 124.691 26.9822C123.308 27.5233 121.795 27.7939 120.151 27.7939C118.488 27.7939 116.965 27.5233 115.582 26.9822C114.199 26.4209 112.996 25.6392 111.974 24.6371C110.972 23.6349 110.19 22.4523 109.629 21.0894C109.087 19.7264 108.817 18.2332 108.817 16.6097Z" fill="white"/>
<path d="M143.25 18.7142C143.25 17.8924 143.09 17.2611 142.769 16.8201C142.469 16.3792 141.957 16.1587 141.236 16.1587C140.755 16.1587 140.334 16.2589 139.973 16.4593C139.612 16.6598 139.332 16.9504 139.131 17.3312C138.931 17.7121 138.831 18.1731 138.831 18.7142V27.1325H134.261V13.3025H138.831V15.377C139.232 14.6153 139.773 14.0241 140.454 13.6031C141.156 13.1822 142.018 12.9718 143.04 12.9718C144.763 12.9718 146.016 13.4328 146.798 14.3548C147.58 15.2768 147.97 16.5696 147.97 18.2332V27.1325H143.25V18.7142Z" fill="white"/>
<path d="M151.554 3.68164H156.124V27.1325H151.554V3.68164Z" fill="white"/>
<path d="M159.387 8.10122C159.387 7.37966 159.648 6.7984 160.169 6.35744C160.69 5.89644 161.311 5.66594 162.033 5.66594C162.774 5.66594 163.396 5.89644 163.897 6.35744C164.418 6.7984 164.678 7.37966 164.678 8.10122C164.678 8.82279 164.418 9.41407 163.897 9.87507C163.396 10.3361 162.774 10.5666 162.033 10.5666C161.311 10.5666 160.69 10.3361 160.169 9.87507C159.648 9.41407 159.387 8.82279 159.387 8.10122ZM159.838 13.3025H164.227V27.1325H159.838V13.3025Z" fill="white"/>
<path d="M176.956 18.7142C176.956 17.8924 176.796 17.2611 176.475 16.8201C176.174 16.3792 175.663 16.1587 174.942 16.1587C174.461 16.1587 174.04 16.2589 173.679 16.4593C173.318 16.6598 173.038 16.9504 172.837 17.3312C172.637 17.7121 172.537 18.1731 172.537 18.7142V27.1325H167.967V13.3025H172.537V15.377C172.937 14.6153 173.479 14.0241 174.16 13.6031C174.862 13.1822 175.723 12.9718 176.746 12.9718C178.469 12.9718 179.722 13.4328 180.504 14.3548C181.285 15.2768 181.676 16.5696 181.676 18.2332V27.1325H176.956V18.7142Z" fill="white"/>
<path d="M192.295 27.4331C190.692 27.4331 189.299 27.1425 188.116 26.5612C186.954 25.9599 186.052 25.1181 185.41 24.0358C184.769 22.9534 184.448 21.6807 184.448 20.2175C184.448 18.7343 184.759 17.4515 185.38 16.3691C186.002 15.2868 186.894 14.455 188.056 13.8737C189.239 13.2925 190.632 13.0018 192.235 13.0018C193.839 13.0018 195.191 13.2825 196.294 13.8437C197.396 14.3848 198.238 15.1766 198.819 16.2188C199.401 17.2611 199.691 18.5238 199.691 20.007C199.691 20.2275 199.691 20.448 199.691 20.6685C199.691 20.8689 199.671 21.0393 199.631 21.1796H187.004V18.6541H195.542L194.46 20.0371C194.56 19.8968 194.64 19.7264 194.7 19.526C194.781 19.3055 194.821 19.1251 194.821 18.9848C194.821 18.3835 194.71 17.8624 194.49 17.4214C194.269 16.9805 193.959 16.6397 193.558 16.3992C193.157 16.1587 192.686 16.0384 192.145 16.0384C191.463 16.0384 190.892 16.1888 190.431 16.4894C189.97 16.7901 189.619 17.2511 189.379 17.8724C189.158 18.4737 189.038 19.2354 189.018 20.1574C189.018 20.9992 189.138 21.7207 189.379 22.3221C189.619 22.9234 189.98 23.3844 190.461 23.705C190.942 24.0057 191.534 24.156 192.235 24.156C193.037 24.156 193.718 24.0057 194.28 23.705C194.861 23.4044 195.322 22.9534 195.663 22.3521L199.721 23.3443C199 24.7072 198.018 25.7294 196.775 26.4109C195.552 27.0924 194.059 27.4331 192.295 27.4331Z" fill="white"/>
<defs>
<clipPath id="clip0_228_81">
<rect width="53.5307" height="53.5307" fill="white"/>
</clipPath>
</defs>
</svg>
