<svg width="200" height="54" viewBox="0 0 200 54" fill="none" xmlns="http://www.w3.org/2000/svg">
<g clip-path="url(#clip0_222_3644)">
<path d="M1.14441e-05 27.1497C1.14441e-05 27.0341 1.14441e-05 26.9186 1.14441e-05 26.7973C0.00062561 21.8408 1.37458 16.9816 3.96906 12.7602C6.56353 8.53882 10.2768 5.12078 14.6958 2.88628C19.1149 0.651774 24.0664 -0.311596 28.9997 0.103328C33.933 0.518252 38.6546 2.2952 42.6393 5.23652C46.6241 8.17785 49.7157 12.1682 51.5704 16.7638C53.425 21.3594 53.97 26.38 53.1447 31.2671C52.3193 36.1543 50.156 40.7164 46.8954 44.4461C43.6347 48.1757 39.4046 50.9267 34.6755 52.3929C30.129 53.8024 25.4441 53.502 20.788 53.502H2.23863C1.94444 53.5028 1.653 53.4453 1.38105 53.3329C1.1091 53.2206 0.862019 53.0555 0.653992 52.8472C0.445965 52.639 0.281097 52.3916 0.168869 52.1193C0.0566368 51.847 -0.000751495 51.5553 1.14441e-05 51.2607V27.1497Z" fill="#007EEF"/>
<path d="M35.3582 44.277H13.797C13.1712 44.277 12.571 44.0281 12.1284 43.585C11.6859 43.1419 11.4373 42.541 11.4373 41.9144V12.2464C11.4373 11.6198 11.6859 11.0188 12.1284 10.5758C12.571 10.1327 13.1712 9.88379 13.797 9.88379H26.5768C29.5316 9.88379 32.3654 11.059 34.4548 13.1508C36.5442 15.2427 37.7179 18.0799 37.7179 21.0382V41.9144C37.7179 42.541 37.4693 43.1419 37.0268 43.585C36.5842 44.0281 35.984 44.277 35.3582 44.277Z" fill="#DBF122"/>
<path d="M28.5211 41.2443C27.6552 42.1146 26.9655 43.1444 26.4902 44.2769H35.3582C35.6681 44.2769 35.9749 44.2158 36.2612 44.0971C36.5475 43.9783 36.8077 43.8043 37.0268 43.5849C37.2459 43.3655 37.4197 43.1051 37.5383 42.8184C37.6569 42.5318 37.7179 42.2246 37.7179 41.9143V32.0308L28.5211 41.2443Z" fill="#DBF122"/>
<path d="M26.5768 9.88379C29.5251 9.88379 29.6116 11.5647 29.6116 12.8356V15.6372C29.6116 16.2643 29.86 16.8658 30.3024 17.3098C30.7448 17.7538 31.345 18.004 31.9714 18.0055H34.7697C36.039 18.0055 37.7179 18.0864 37.7179 21.0382C37.7179 19.5734 37.4298 18.1229 36.8699 16.7696C36.31 15.4163 35.4893 14.1866 34.4548 13.1508C33.4202 12.1151 32.192 11.2934 30.8403 10.7329C29.4886 10.1723 28.0399 9.88379 26.5768 9.88379Z" fill="#DBF122"/>
<path d="M32.2195 49.0658L29.3347 50.1865C29.0748 50.2885 28.7909 50.3125 28.5176 50.2556C28.2444 50.1987 27.9936 50.0634 27.7959 49.8661C27.5982 49.6688 27.4622 49.4181 27.4045 49.1447C27.3469 48.8713 27.37 48.5869 27.4711 48.3265L28.625 45.4382C28.993 44.5064 29.5466 43.6593 30.252 42.9485L39.0392 34.1567L43.5049 38.6277L34.7062 47.4369C33.9963 48.1432 33.1502 48.6974 32.2195 49.0658Z" fill="#4ADEFF"/>
<path d="M31.106 42.0936L35.5717 46.5646L37.3025 44.8316C35.7217 43.428 34.8447 41.0134 35.4447 37.7612L31.106 42.0936Z" fill="#4ADEFF"/>
<path d="M31.106 42.0933L30.2405 42.9655C29.535 43.6762 28.9814 44.5233 28.6135 45.4552L27.4595 48.3434C27.3568 48.6087 27.3346 48.8985 27.3957 49.1764C27.4569 49.4543 27.5987 49.7079 27.8034 49.9054C28.008 50.1029 28.2663 50.2354 28.546 50.2864C28.8256 50.3374 29.114 50.3045 29.3751 50.1919L32.2599 49.0366C33.1906 48.6682 34.0367 48.114 34.7466 47.4076L35.6178 46.5354L31.106 42.0933Z" fill="#DBF122"/>
<path d="M41.2605 31.9268L45.7204 36.392L43.4991 38.6159L39.0392 34.1449L41.2605 31.9268Z" fill="#DBF122"/>
<path d="M45.7262 36.392L41.2605 31.9325L43.1126 30.0783C43.2611 29.9286 43.4377 29.8098 43.6323 29.7287C43.8269 29.6477 44.0355 29.606 44.2463 29.606C44.457 29.606 44.6657 29.6477 44.8603 29.7287C45.0548 29.8098 45.2315 29.9286 45.38 30.0783L47.5783 32.2791C47.7278 32.4278 47.8464 32.6047 47.9274 32.7995C48.0083 32.9943 48.05 33.2032 48.05 33.4142C48.05 33.6252 48.0083 33.8341 47.9274 34.0289C47.8464 34.2237 47.7278 34.4006 47.5783 34.5493L45.7262 36.392Z" fill="white"/>
<path d="M30.2636 47.4134C29.7159 46.8721 29.0533 46.4614 28.325 46.2119L27.4884 48.3492C27.3916 48.6111 27.3728 48.8955 27.4341 49.1679C27.4954 49.4403 27.6343 49.6891 27.834 49.8841C28.0336 50.0791 28.2855 50.2119 28.559 50.2666C28.8325 50.3212 29.116 50.2953 29.3751 50.1919L31.5099 49.3543C31.2473 48.6209 30.821 47.9571 30.2636 47.4134Z" fill="white"/>
<path d="M48.0109 31.846L45.8127 29.6452C45.3975 29.2311 44.8352 28.9986 44.2491 28.9986C43.663 28.9986 43.1008 29.2311 42.6856 29.6452L38.3295 34.0064V21.0382C38.3249 17.9194 37.085 14.9298 34.8818 12.725C32.6785 10.5202 29.6918 9.28036 26.5767 9.2773H16.2202C16.1353 9.26902 16.0496 9.27861 15.9686 9.30546C15.8876 9.33232 15.8132 9.37584 15.75 9.43324C15.6868 9.49063 15.6363 9.56063 15.6017 9.63873C15.5672 9.71683 15.5493 9.8013 15.5493 9.88672C15.5493 9.97214 15.5672 10.0566 15.6017 10.1347C15.6363 10.2128 15.6868 10.2828 15.75 10.3402C15.8132 10.3976 15.8876 10.4411 15.9686 10.468C16.0496 10.4948 16.1353 10.5044 16.2202 10.4961H26.6056C29.0288 10.4961 29.0288 11.6861 29.0288 12.8067V15.6083C29.0304 16.3969 29.3439 17.1526 29.9008 17.7102C30.4577 18.2678 31.2126 18.5817 32.0002 18.5832H34.7985C35.9524 18.5832 37.1409 18.5832 37.1409 21.0093V35.2368C29.1846 43.1622 29.4212 42.8676 28.8788 43.6647H13.797C13.3379 43.6647 12.8977 43.4821 12.5731 43.1572C12.2485 42.8322 12.0661 42.3914 12.0661 41.9318V12.2464C12.0601 11.8336 12.2015 11.4322 12.4649 11.1144C12.7283 10.7967 13.0963 10.5836 13.5027 10.5135C13.6536 10.4697 13.7818 10.3695 13.8608 10.2336C13.9399 10.0978 13.9637 9.93667 13.9273 9.78371C13.891 9.63076 13.7973 9.49766 13.6656 9.41199C13.5339 9.32632 13.3744 9.29464 13.22 9.32351C12.5381 9.45027 11.9219 9.8119 11.4782 10.3457C11.0346 10.8796 10.7915 11.552 10.791 12.2464V41.9144C10.7918 42.3076 10.8703 42.6966 11.0221 43.0592C11.174 43.4217 11.396 43.7505 11.6756 44.0266C11.9551 44.3027 12.2865 44.5206 12.6506 44.6677C13.0147 44.8148 13.4044 44.8881 13.797 44.8836H28.2211C28.0711 45.2301 28.0884 45.2128 26.9518 48.1068C26.809 48.4773 26.7767 48.8812 26.8588 49.2697C26.9409 49.6581 27.1339 50.0144 27.4143 50.2951C27.6948 50.5759 28.0506 50.7691 28.4386 50.8513C28.8266 50.9335 29.23 50.9012 29.6 50.7582L32.4848 49.6029C34.5446 48.7942 35.4504 47.4888 36.0447 46.9689L37.0775 45.9349C37.1339 45.8784 37.1787 45.8113 37.2093 45.7374C37.2398 45.6636 37.2555 45.5845 37.2555 45.5045C37.2555 45.4246 37.2398 45.3455 37.2093 45.2716C37.1787 45.1978 37.1339 45.1307 37.0775 45.0742C37.021 45.0177 36.954 44.9728 36.8803 44.9423C36.8065 44.9117 36.7275 44.8959 36.6476 44.8959C36.5678 44.8959 36.4888 44.9117 36.415 44.9423C36.3413 44.9728 36.2743 45.0177 36.2178 45.0742L35.6408 45.6518L31.9714 42.0935L39.0392 35.0231L42.6452 38.6276L38.243 43.0409C38.129 43.1542 38.0646 43.3083 38.0641 43.4692C38.0635 43.63 38.1268 43.7845 38.2401 43.8987C38.3533 44.0128 38.5072 44.0772 38.6679 44.0778C38.8285 44.0783 38.9829 44.0149 39.0969 43.9016L48.0109 34.9769C48.4246 34.5611 48.6568 33.9983 48.6568 33.4115C48.6568 32.8247 48.4246 32.2618 48.0109 31.846ZM34.7696 17.4048H31.9714C31.5123 17.4048 31.072 17.2222 30.7474 16.8972C30.4228 16.5723 30.2405 16.1315 30.2405 15.6719C30.2405 12.4717 30.3039 11.8941 29.9924 11.0911C31.5105 11.615 32.8898 12.4774 34.0262 13.6132C35.1627 14.749 36.0265 16.1285 36.5524 17.6474C35.9793 17.4515 35.3746 17.3653 34.7696 17.3933V17.4048ZM29.1269 49.6203C28.9778 49.6781 28.8151 49.6913 28.6586 49.6583C28.5021 49.6252 28.3586 49.5473 28.2455 49.4341C28.1324 49.3209 28.0546 49.1772 28.0216 49.0205C27.9886 48.8638 28.0018 48.7009 28.0595 48.5516L28.6654 46.9978C29.532 47.4405 30.2368 48.1461 30.679 49.0137L29.1269 49.6203ZM34.7119 46.5645L34.2734 47.0035C33.5802 47.6972 32.7431 48.2297 31.8213 48.5632C31.2478 47.3822 30.2949 46.4282 29.1154 45.854C29.4463 44.9301 29.9784 44.0915 30.6732 43.399L31.1117 42.96L34.7119 46.5645ZM43.5049 37.7669L39.8988 34.1566L41.2605 32.7991L44.8607 36.3921L43.5049 37.7669ZM47.1513 34.1162L45.7262 35.543L42.1201 31.9327L43.5452 30.5059C43.7323 30.3196 43.9853 30.2151 44.2491 30.2151C44.5129 30.2151 44.766 30.3196 44.953 30.5059L47.1513 32.7067C47.3373 32.894 47.4417 33.1474 47.4417 33.4115C47.4417 33.6756 47.3373 33.9289 47.1513 34.1162Z" fill="#162B43"/>
<path d="M20.2316 25.3147V22.373L26.9554 21.0122V35.2804H23.6936V24.4542L20.2316 25.3147Z" fill="#162B43"/>
</g>
<path d="M90.6062 12.5247H93.422C91.8577 14.2064 90.2933 15.8881 88.7289 17.5698C84.466 22.1455 81.1808 25.6263 78.8734 28.0119C74.8843 32.1575 72.0293 35.0125 70.3085 36.5768C70.0738 36.7724 69.8979 36.9679 69.7805 37.1635C69.7023 37.359 69.6045 37.5741 69.4872 37.8088C73.6328 43.2058 77.5241 47.8794 81.1613 51.8294L81.2786 52.2987L79.5774 53.5307C75.7838 49.4242 71.8924 44.7311 67.9033 39.4514C67.8251 39.3731 67.7664 39.2363 67.7273 39.0407C67.7273 38.8452 67.7077 38.6692 67.6686 38.5127C70.1716 35.6187 72.6942 32.7246 75.2363 29.8305C77.7784 26.9364 80.3204 24.0619 82.8625 21.2069C85.4046 18.352 87.9858 15.4579 90.6062 12.5247ZM71.1298 13.9913L73.9457 12.29C72.7333 17.4524 72.0684 20.2879 71.9511 20.7963C71.0516 24.4725 70.2498 27.308 69.5459 29.3025C68.5681 32.0793 67.258 35.0711 65.6154 38.2781C65.0679 39.334 64.5203 40.4095 63.9728 41.5046C63.4253 42.5605 62.8191 43.5187 62.1542 44.3791C59.6904 47.547 57.3634 49.8153 55.1732 51.1841C52.5529 52.8267 49.5024 53.648 46.0217 53.648C44.34 53.648 42.6974 53.472 41.0939 53.12C39.1385 52.5725 37.6523 52.1814 36.6355 51.9467L38.2194 50.5388C39.0407 50.8908 39.7056 51.145 40.214 51.3014C41.7784 51.849 43.0885 52.201 44.1445 52.3574C45.1613 52.4747 46.1195 52.5334 47.019 52.5334C47.8012 52.5334 48.7593 52.416 49.8935 52.1814C51.6925 51.7903 53.2373 51.1646 54.5279 50.3042C56.0923 49.2482 57.9891 47.195 60.2183 44.1445C60.9223 43.2058 61.5089 42.2281 61.9782 41.2113C62.4476 40.1553 62.9364 39.0994 63.4448 38.0434C64.8919 35.032 66.1434 31.9228 67.1993 28.7159C67.5904 27.5426 68.9006 22.6344 71.1298 13.9913Z" fill="#007EEF"/>
<path d="M101.728 13.4047C102.393 14.3042 102.726 15.2232 102.726 16.1618C102.726 16.7094 102.687 17.1787 102.608 17.5698C102.256 18.6648 102.022 19.5057 101.904 20.0923C101.513 21.6958 101.083 23.0646 100.614 24.1988C100.536 24.3943 99.9099 25.6849 98.7366 28.0706C97.5633 30.4562 96.3509 32.6073 95.0994 34.5236C94.1608 35.9315 92.7724 37.7697 90.9343 40.038L88.6464 50.0695C88.49 50.6952 88.4118 51.1646 88.4118 51.4774C88.4118 51.7903 88.49 52.025 88.6464 52.1814C88.7637 52.2987 88.9202 52.3574 89.1157 52.3574C89.3895 52.3574 89.6437 52.2987 89.8784 52.1814C90.6214 51.9467 91.4036 51.3601 92.2249 50.4215C92.4987 50.1086 92.8311 49.6589 93.2222 49.0722L93.4569 49.6589C92.9875 50.3237 92.616 50.8126 92.3422 51.1254C91.4427 52.1814 90.6801 52.8463 90.0544 53.12C89.3895 53.3938 88.9202 53.5698 88.6464 53.648C88.3727 53.7262 88.1184 53.7653 87.8838 53.7653C87.5709 53.7653 87.2776 53.6871 87.0038 53.5307C86.4172 53.1787 86.1239 52.592 86.1239 51.7707C86.1239 51.5361 86.1434 51.3405 86.1825 51.1841C86.1825 51.0277 86.2412 50.6952 86.3585 50.1868L87.5905 44.3791L85.7719 45.8457C85.8892 45.4155 86.0261 45.1026 86.1825 44.9071L87.8251 42.9712C89.6633 34.3281 90.8561 29.1656 91.4036 27.484C93.2809 21.6958 96.0576 17.1591 99.7339 13.874C100.164 13.522 100.516 13.3264 100.79 13.2873C101.298 13.2091 101.611 13.2482 101.728 13.4047ZM101.376 18.8017C101.572 18.1369 101.709 17.6089 101.787 17.2178C101.865 16.8267 101.904 16.4356 101.904 16.0445C101.904 15.5361 101.807 15.0863 101.611 14.6953C101.298 14.7344 101.005 14.7735 100.731 14.8126C100.301 15.2428 100.008 15.6534 99.8512 16.0445C98.0522 19.4079 96.4291 22.9864 94.9821 26.78C93.5742 30.5736 92.4205 34.3672 91.5209 38.1608C92.8898 36.4008 94.1217 34.6605 95.2168 32.9397C96.4683 30.9451 97.5633 28.9114 98.5019 26.8387C99.3232 25.0787 99.8903 23.7686 100.203 22.9082C100.672 21.6958 101.064 20.327 101.376 18.8017Z" fill="#007EEF"/>
<path d="M110.739 49.5415H111.325C111.052 50.5975 110.328 51.5752 109.155 52.4747C108.021 53.3742 106.789 53.7653 105.459 53.648C104.912 53.648 104.52 53.4916 104.286 53.1787C104.051 52.8658 103.934 52.416 103.934 51.8294C103.934 51.0472 104.11 50.1282 104.462 49.0722C104.618 48.5638 104.912 47.8012 105.342 46.7843C104.403 48.1923 103.484 49.6002 102.585 51.0081C101.372 52.5334 99.9643 53.4133 98.3608 53.648C97.4613 53.7653 96.7182 53.4916 96.1315 52.8267C95.5058 52.1227 95.1929 51.2037 95.1929 50.0695C95.1929 49.874 95.232 49.5024 95.3103 48.9549C95.7405 46.8821 96.7377 45.1417 98.3021 43.7338C99.6318 42.4823 101.177 41.6806 102.937 41.3286C103.641 41.1722 104.638 41.0939 105.928 41.0939C106.437 41.0939 106.926 41.1331 107.395 41.2113L106.867 42.3259C106.202 42.2086 105.596 42.1499 105.048 42.1499C102.545 42.1499 100.531 43.1667 99.0061 45.2004C97.7546 46.843 97.1288 48.5051 97.1288 50.1868C97.1288 51.4383 97.7155 52.0641 98.8887 52.0641C99.2407 52.0641 99.6905 51.9467 100.238 51.7121C101.138 51.2819 101.881 50.6757 102.467 49.8935C103.132 48.8376 103.68 47.9967 104.11 47.371C104.736 46.4715 105.713 44.8875 107.043 42.6192C107.239 42.2672 107.512 41.8175 107.864 41.2699H109.272C108.881 42.4432 108.588 43.3818 108.392 44.0858C107.845 45.8066 107.258 47.5079 106.632 49.1895C106.515 49.4242 106.378 49.7762 106.222 50.2455C106.104 50.6757 106.046 51.0081 106.046 51.2428C106.046 51.673 106.163 51.9663 106.398 52.1227C106.671 52.2792 106.887 52.3574 107.043 52.3574C107.395 52.2792 107.669 52.2205 107.864 52.1814C108.607 52.025 109.39 51.4188 110.211 50.3628C110.328 50.2064 110.504 49.9326 110.739 49.5415Z" fill="#007EEF"/>
<path d="M128.272 49.4242L128.507 50.0695C127.842 50.8517 127.177 51.6143 126.512 52.3574C125.456 53.3742 124.517 53.8826 123.696 53.8826C123.305 53.8826 122.934 53.7653 122.582 53.5307C121.995 53.1396 121.702 52.4356 121.702 51.4188C121.702 50.9886 121.78 50.3824 121.936 49.6002C122.093 48.7789 122.406 47.6056 122.875 46.0804C123.031 45.5719 123.266 44.8484 123.579 43.9098C122.875 45.1613 122.308 46.139 121.878 46.843C120.509 49.0722 119.316 50.7735 118.299 51.9467C118.221 52.025 118.025 52.2596 117.712 52.6507C117.4 53.0027 117.145 53.2569 116.95 53.4133C116.52 53.7262 115.992 53.8826 115.366 53.8826C114.154 53.8826 113.508 53.5893 113.43 53.0027C113.352 52.3769 113.313 51.7903 113.313 51.2428C113.313 50.1477 113.469 48.9744 113.782 47.7229C114.056 46.4323 114.721 44.3596 115.777 41.5046L118.064 41.1526C117.673 42.2868 117.36 43.2058 117.126 43.9098C116.344 46.2172 115.874 47.8794 115.718 48.8962C115.522 49.9131 115.327 50.8517 115.131 51.7121C115.131 51.9859 115.17 52.2401 115.249 52.4747C115.288 52.7094 115.464 52.8267 115.777 52.8267C116.089 52.8267 116.481 52.6703 116.95 52.3574C117.38 52.0054 117.752 51.6339 118.064 51.2428C119.707 48.8962 120.861 47.2145 121.526 46.1977C122.582 44.5942 123.501 42.9516 124.283 41.2699H126.336L123.931 51.2428C123.853 51.5948 123.931 51.8685 124.165 52.0641C124.283 52.1423 124.517 52.1814 124.869 52.1814C125.573 52.1814 126.356 51.7316 127.216 50.8321C127.49 50.5584 127.842 50.0891 128.272 49.4242Z" fill="#007EEF"/>
<path d="M138.12 38.8647C138.237 38.9038 138.433 39.0994 138.707 39.4514C138.824 39.6469 138.883 39.8425 138.883 40.038C138.883 40.4682 138.687 40.8788 138.296 41.2699C137.905 41.661 137.436 42.013 136.888 42.3259C138.022 44.164 138.589 46.0999 138.589 48.1336C138.589 49.2287 138.394 50.1868 138.003 51.0081C137.651 51.8294 137.045 52.4747 136.184 52.944C135.089 53.6089 133.896 53.9413 132.606 53.9413C131.315 53.9413 130.337 53.4916 129.673 52.592C129.477 52.201 129.399 51.9076 129.438 51.7121C129.477 51.2819 129.809 51.0668 130.435 51.0668C130.826 51.0668 131.178 51.1646 131.491 51.3601C132.078 51.8294 132.645 52.2792 133.192 52.7094C133.544 52.8267 133.916 52.8854 134.307 52.8854C134.972 52.8854 135.519 52.6116 135.95 52.0641C136.262 51.673 136.478 51.2428 136.595 50.7735C136.751 50.265 136.83 49.7175 136.83 49.1309C136.83 48.2314 136.693 47.2732 136.419 46.2564C136.184 45.2004 135.95 44.1836 135.715 43.2058H135.246L131.139 47.547L130.787 47.4296L135.598 41.9739C135.598 41.2308 135.715 40.6051 135.95 40.0967C136.184 39.5491 136.556 39.1971 137.064 39.0407C137.573 38.8843 137.925 38.8256 138.12 38.8647Z" fill="#007EEF"/>
<path d="M157.718 49.4242L157.953 50.0695C157.288 50.8517 156.623 51.6143 155.959 52.3574C154.903 53.3742 153.964 53.8826 153.143 53.8826C152.752 53.8826 152.38 53.7653 152.028 53.5307C151.441 53.1396 151.148 52.4356 151.148 51.4188C151.148 50.9886 151.226 50.3824 151.383 49.6002C151.539 48.7789 151.852 47.6056 152.321 46.0804C152.478 45.5719 152.712 44.8484 153.025 43.9098C152.321 45.1613 151.754 46.139 151.324 46.843C149.955 49.0722 148.762 50.7735 147.746 51.9467C147.667 52.025 147.472 52.2596 147.159 52.6507C146.846 53.0027 146.592 53.2569 146.396 53.4133C145.966 53.7262 145.438 53.8826 144.812 53.8826C143.6 53.8826 142.955 53.5893 142.876 53.0027C142.798 52.3769 142.759 51.7903 142.759 51.2428C142.759 50.1477 142.916 48.9744 143.228 47.7229C143.502 46.4323 144.167 44.3596 145.223 41.5046L147.511 41.1526C147.12 42.2868 146.807 43.2058 146.572 43.9098C145.79 46.2172 145.321 47.8794 145.164 48.8962C144.969 49.9131 144.773 50.8517 144.578 51.7121C144.578 51.9859 144.617 52.2401 144.695 52.4747C144.734 52.7094 144.91 52.8267 145.223 52.8267C145.536 52.8267 145.927 52.6703 146.396 52.3574C146.827 52.0054 147.198 51.6339 147.511 51.2428C149.154 48.8962 150.307 47.2145 150.972 46.1977C152.028 44.5942 152.947 42.9516 153.729 41.2699H155.783L153.377 51.2428C153.299 51.5948 153.377 51.8685 153.612 52.0641C153.729 52.1423 153.964 52.1814 154.316 52.1814C155.02 52.1814 155.802 51.7316 156.662 50.8321C156.936 50.5584 157.288 50.0891 157.718 49.4242Z" fill="#007EEF"/>
<path d="M168.271 41.2699C168.466 41.1917 168.818 41.1917 169.327 41.2699C170.07 41.4264 170.441 42.013 170.441 43.0299C170.441 43.7729 170.246 44.5551 169.854 45.3764C169.463 46.1977 169.033 46.7452 168.564 47.019L168.036 46.667C168.153 46.315 168.231 46.0413 168.271 45.8457C168.466 45.0635 168.564 44.4964 168.564 44.1445C168.564 43.4405 168.349 43.0885 167.919 43.0885C167.488 43.0885 167.176 43.1472 166.98 43.2645C166.511 43.5774 165.65 44.9266 164.399 47.3123C163.304 49.3851 162.306 51.4579 161.407 53.5307H159.647L161.994 42.0912L164.399 41.2699L162.873 49.0722C164.008 46.5301 164.673 45.0831 164.868 44.7311C165.846 42.9712 166.98 41.8175 168.271 41.2699Z" fill="#007EEF"/>
<path d="M181.65 49.0722L181.357 50.0695C180.34 51.0863 179.304 51.9272 178.248 52.592C176.762 53.5307 175.471 54 174.376 54C173.907 54 173.496 53.9022 173.144 53.7067C172.753 53.5502 172.421 53.2569 172.147 52.8267C171.756 52.201 171.56 51.5165 171.56 50.7735C171.56 49.874 171.815 48.8767 172.323 47.7816C172.831 46.6474 173.379 45.6697 173.966 44.8484C174.552 43.988 175.276 43.2058 176.136 42.5019C177.153 41.6806 177.935 41.2308 178.483 41.1526C179.069 41.0353 179.499 40.9766 179.773 40.9766C180.086 40.9766 180.419 41.0548 180.771 41.2113C181.162 41.3286 181.435 41.5633 181.592 41.9152C181.787 42.2281 181.885 42.6388 181.885 43.1472C181.885 44.164 181.592 45.0244 181.005 45.7284C180.067 46.8625 178.972 47.8403 177.72 48.6616C176.625 49.3655 175.315 50.0304 173.79 50.6561C173.672 51.1254 173.731 51.5948 173.966 52.0641C174.2 52.5334 174.65 52.768 175.315 52.768C175.784 52.768 176.332 52.6311 176.957 52.3574C177.583 52.0445 178.228 51.7121 178.893 51.3601C179.597 50.969 180.125 50.617 180.477 50.3042C180.868 49.9913 181.259 49.5806 181.65 49.0722ZM173.907 50.0695C175.393 49.522 176.762 48.7007 178.013 47.6056C179.499 46.315 180.379 44.9658 180.653 43.5578C180.81 42.6974 180.419 42.1303 179.48 41.8566C178.893 41.7392 178.444 41.8175 178.131 42.0912C175.315 44.2422 173.907 46.9017 173.907 50.0695Z" fill="#007EEF"/>
<path d="M199.877 49.0722L199.995 49.6589C199.174 50.9886 198.313 52.0054 197.414 52.7094C196.553 53.3742 195.771 53.7067 195.067 53.7067C194.793 53.7067 194.461 53.648 194.07 53.5307C193.718 53.3742 193.444 53.1005 193.248 52.7094C193.053 52.3183 192.955 51.8685 192.955 51.3601C192.955 51.0472 193.033 50.5975 193.19 50.0108C193.385 49.4242 193.718 48.5834 194.187 47.4883C194.656 46.3541 195.106 45.2786 195.536 44.2618C195.732 43.7534 195.83 43.3623 195.83 43.0885C195.83 42.6974 195.654 42.2868 195.302 41.8566L195.184 41.7392C194.559 41.4655 193.835 41.837 193.014 42.8539C192.427 43.636 192.017 44.1836 191.782 44.4964C190.843 45.7088 189.572 47.6056 187.969 50.1868C187.46 51.0081 186.776 52.1227 185.916 53.5307L184.332 53.4133L187.617 41.5046L189.905 41.0353L187.499 49.5415L192.31 42.7365C192.779 42.0717 193.268 41.6024 193.776 41.3286C194.285 41.0548 194.872 40.8788 195.536 40.8006C196.006 40.7224 196.514 40.918 197.062 41.3873C197.609 41.8175 197.824 42.3063 197.707 42.8539C197.472 44.2227 197.062 45.6893 196.475 47.2536C195.771 49.0527 195.243 50.4215 194.891 51.3601C194.735 51.7512 194.735 52.025 194.891 52.1814C195.087 52.3378 195.302 52.416 195.536 52.416C195.654 52.416 195.947 52.3183 196.416 52.1227C196.925 51.9272 197.394 51.6534 197.824 51.3014C198.254 50.9495 198.939 50.2064 199.877 49.0722Z" fill="#007EEF"/>
<path d="M114.199 16.6092C114.199 17.8519 114.439 18.9543 114.92 19.9163C115.421 20.8584 116.113 21.6 116.995 22.1412C117.897 22.6823 118.949 22.9529 120.151 22.9529C121.334 22.9529 122.366 22.6823 123.248 22.1412C124.15 21.6 124.842 20.8584 125.323 19.9163C125.824 18.9543 126.074 17.8519 126.074 16.6092C126.074 15.3665 125.834 14.2741 125.353 13.3321C124.872 12.37 124.19 11.6184 123.308 11.0772C122.426 10.536 121.374 10.2654 120.151 10.2654C118.949 10.2654 117.897 10.536 116.995 11.0772C116.113 11.6184 115.421 12.37 114.92 13.3321C114.439 14.2741 114.199 15.3665 114.199 16.6092ZM108.817 16.6092C108.817 14.9857 109.098 13.5024 109.659 12.1595C110.24 10.8166 111.042 9.6541 112.064 8.67197C113.086 7.68984 114.289 6.93821 115.672 6.41708C117.055 5.87591 118.548 5.60532 120.151 5.60532C121.775 5.60532 123.268 5.87591 124.631 6.41708C126.014 6.93821 127.217 7.68984 128.239 8.67197C129.261 9.6541 130.053 10.8166 130.614 12.1595C131.175 13.5024 131.456 14.9857 131.456 16.6092C131.456 18.2327 131.175 19.7259 130.614 21.0889C130.073 22.4518 129.291 23.6344 128.269 24.6366C127.267 25.6388 126.074 26.4204 124.691 26.9817C123.308 27.5228 121.795 27.7934 120.151 27.7934C118.488 27.7934 116.965 27.5228 115.582 26.9817C114.199 26.4204 112.996 25.6388 111.974 24.6366C110.972 23.6344 110.19 22.4518 109.629 21.0889C109.087 19.7259 108.817 18.2327 108.817 16.6092Z" fill="#162B43"/>
<path d="M143.25 18.7137C143.25 17.892 143.09 17.2606 142.769 16.8196C142.469 16.3787 141.957 16.1582 141.236 16.1582C140.755 16.1582 140.334 16.2584 139.973 16.4589C139.612 16.6593 139.332 16.9499 139.131 17.3307C138.931 17.7116 138.831 18.1726 138.831 18.7137V27.132H134.261V13.302H138.831V15.3765C139.232 14.6149 139.773 14.0236 140.454 13.6027C141.156 13.1817 142.018 12.9713 143.04 12.9713C144.763 12.9713 146.016 13.4323 146.798 14.3543C147.58 15.2763 147.97 16.5691 147.97 18.2327V27.132H143.25V18.7137Z" fill="#162B43"/>
<path d="M151.554 3.68115H156.124V27.132H151.554V3.68115Z" fill="#162B43"/>
<path d="M159.387 8.10073C159.387 7.37917 159.648 6.79791 160.169 6.35695C160.69 5.89595 161.311 5.66545 162.033 5.66545C162.774 5.66545 163.396 5.89595 163.897 6.35695C164.418 6.79791 164.678 7.37917 164.678 8.10073C164.678 8.8223 164.418 9.41358 163.897 9.87458C163.396 10.3356 162.774 10.5661 162.033 10.5661C161.311 10.5661 160.69 10.3356 160.169 9.87458C159.648 9.41358 159.387 8.8223 159.387 8.10073ZM159.838 13.302H164.227V27.132H159.838V13.302Z" fill="#162B43"/>
<path d="M176.956 18.7137C176.956 17.892 176.796 17.2606 176.475 16.8196C176.174 16.3787 175.663 16.1582 174.942 16.1582C174.461 16.1582 174.04 16.2584 173.679 16.4589C173.318 16.6593 173.038 16.9499 172.837 17.3307C172.637 17.7116 172.537 18.1726 172.537 18.7137V27.132H167.967V13.302H172.537V15.3765C172.937 14.6149 173.479 14.0236 174.16 13.6027C174.862 13.1817 175.723 12.9713 176.746 12.9713C178.469 12.9713 179.722 13.4323 180.504 14.3543C181.285 15.2763 181.676 16.5691 181.676 18.2327V27.132H176.956V18.7137Z" fill="#162B43"/>
<path d="M192.295 27.4326C190.692 27.4326 189.299 27.142 188.116 26.5608C186.954 25.9594 186.052 25.1176 185.41 24.0353C184.769 22.9529 184.448 21.6802 184.448 20.217C184.448 18.7338 184.759 17.451 185.38 16.3687C186.002 15.2863 186.894 14.4545 188.056 13.8732C189.239 13.292 190.632 13.0014 192.235 13.0014C193.839 13.0014 195.191 13.282 196.294 13.8432C197.396 14.3844 198.238 15.1761 198.819 16.2183C199.401 17.2606 199.691 18.5233 199.691 20.0065C199.691 20.227 199.691 20.4475 199.691 20.668C199.691 20.8684 199.671 21.0388 199.631 21.1791H187.004V18.6536H195.542L194.46 20.0366C194.56 19.8963 194.64 19.7259 194.7 19.5255C194.781 19.305 194.821 19.1246 194.821 18.9843C194.821 18.383 194.71 17.8619 194.49 17.4209C194.269 16.98 193.959 16.6392 193.558 16.3987C193.157 16.1582 192.686 16.0379 192.145 16.0379C191.463 16.0379 190.892 16.1883 190.431 16.4889C189.97 16.7896 189.619 17.2506 189.379 17.8719C189.158 18.4732 189.038 19.2349 189.018 20.1569C189.018 20.9987 189.138 21.7203 189.379 22.3216C189.619 22.9229 189.98 23.3839 190.461 23.7046C190.942 24.0052 191.534 24.1555 192.235 24.1555C193.037 24.1555 193.718 24.0052 194.28 23.7046C194.861 23.4039 195.322 22.9529 195.663 22.3516L199.721 23.3438C199 24.7067 198.018 25.729 196.775 26.4104C195.552 27.0919 194.059 27.4326 192.295 27.4326Z" fill="#162B43"/>
<defs>
<clipPath id="clip0_222_3644">
<rect width="53.5307" height="53.5307" fill="white"/>
</clipPath>
</defs>
</svg>
