<svg width="372" height="420" viewBox="0 0 372 420" fill="none" xmlns="http://www.w3.org/2000/svg">
<g clip-path="url(#clip0_222_5034)">
<path d="M179.963 411.512C179.855 409.913 179.666 408.32 179.397 406.74C179.055 404.093 178.094 401.563 176.592 399.357C175.09 397.151 173.091 395.331 170.755 394.043C165.988 391.213 160.254 390.808 154.841 390.808C150.882 390.808 146.844 390.647 142.886 390.97C140.462 391.294 137.797 391.294 135.616 392.425C135.314 392.619 135.081 392.903 134.951 393.237C134.82 393.572 134.798 393.939 134.889 394.286C134.076 394.831 133.366 395.515 132.791 396.307C131.415 395.597 129.982 395.001 128.508 394.526C127.296 394.204 126.166 394.85 125.034 395.093C123.199 395.503 121.336 395.773 119.461 395.902C111.067 396.063 102.577 395.821 94.1776 395.74C92.7237 395.74 91.3507 395.416 89.9807 395.416V394.931C89.8203 392.748 86.5887 392.586 86.1046 394.607C85.6204 396.629 84.9729 398.408 84.5697 400.35C84.1535 402.698 84.0176 405.087 84.165 407.466C84.2459 409.567 84.2459 411.668 84.4078 413.769C84.5697 415.87 84.811 417.086 86.8315 417.57C90.7077 418.621 94.7472 418.621 98.7058 419.026C104.198 419.431 109.772 419.916 115.264 419.997H132.87C135.213 419.997 137.635 420.078 139.897 419.431C142.159 418.784 141.756 417.489 142.24 416.28C142.724 415.07 142.321 415.957 142.402 415.795C143.004 415.834 143.6 415.942 144.178 416.118C148.576 416.632 152.999 416.902 157.427 416.927C159.98 417.44 162.576 417.711 165.18 417.735C169.634 417.642 174.036 416.766 178.186 415.148C179.801 414.581 180.285 412.965 179.963 411.428V411.512Z" fill="#DBF122"/>
<path d="M185.862 329.506C174.555 332.902 163.326 336.947 151.687 339.292C144.438 340.563 137 340.26 129.878 338.402C126.566 337.512 123.334 336.219 120.023 335.167C117.676 334.549 115.401 333.681 113.238 332.58C111.3 331.609 109.441 330.638 107.584 329.506C105.727 328.375 106.13 328.535 105.241 328.779C104.939 328.859 104.659 329.009 104.425 329.216C104.19 329.423 104.007 329.682 103.89 329.972C103.772 330.262 103.724 330.576 103.748 330.888C103.772 331.2 103.869 331.503 104.03 331.771C104.594 332.413 105.28 332.936 106.049 333.308C107.514 334.195 109.023 335.005 110.573 335.734C112.969 337.006 115.485 338.035 118.085 338.806C118.038 339.218 118.119 339.635 118.317 339.999C118.514 340.364 118.819 340.658 119.19 340.844C119.56 341.029 119.979 341.095 120.389 341.034C120.798 340.973 121.179 340.787 121.48 340.502L121.642 340.259C122.987 340.554 124.311 340.936 125.607 341.402C129 342.696 131.989 344.395 136.674 345.122C138.37 345.446 140.147 345.607 141.921 345.769C142.605 345.971 143.334 345.971 144.019 345.769C144.362 345.631 144.658 345.398 144.872 345.097C145.087 344.796 145.211 344.44 145.23 344.07C149.514 343.873 153.765 343.222 157.912 342.13C167.205 339.622 176.41 336.878 185.538 333.8C186.427 333.477 187.637 333.477 188.204 332.506C188.383 332.15 188.457 331.75 188.417 331.354C188.378 330.957 188.226 330.58 187.981 330.266C187.735 329.952 187.405 329.715 187.03 329.582C186.654 329.448 186.249 329.425 185.861 329.514L185.862 329.506Z" fill="#162B43"/>
<path d="M273.584 397.845C273.231 395.702 272.55 393.627 271.565 391.692C271.162 389.831 268.495 389.752 267.768 391.368C266.999 391.929 266.117 392.316 265.184 392.501C258.552 394.247 251.757 395.303 244.908 395.652C243.12 395.652 241.336 395.814 239.577 396.137C239.395 395.67 239.046 395.287 238.598 395.063C238.15 394.839 237.635 394.789 237.153 394.925C236.081 395.135 235.029 395.432 234.005 395.813C233.843 395.652 233.763 395.409 233.601 395.328C232.147 394.116 230.047 394.681 228.355 394.519H226.497C226.345 393.799 226.236 393.07 226.174 392.336C226.093 390.88 226.012 389.425 226.012 388.05C226.012 386.675 225.931 387 225.851 386.513L226.416 385.867C227.062 385.139 227.951 384.492 227.87 383.44C227.865 383.049 227.746 382.668 227.529 382.343C227.312 382.018 227.005 381.763 226.646 381.609C226.287 381.455 225.891 381.408 225.506 381.475C225.121 381.542 224.763 381.718 224.477 381.984C220.52 386.836 216.399 389.749 211.715 391.288L206.384 392.582C205.633 392.656 204.925 392.968 204.363 393.472C203.314 394.846 203.879 394.603 203.233 395.493C202.587 396.383 203.152 395.574 203.071 395.736C201.612 397.143 200.075 398.465 198.466 399.698C194.27 403.096 189.986 407.704 189.905 413.447C189.905 414.66 190.229 416.196 191.602 416.521C192.975 416.845 193.216 416.843 195.317 417.167C197.439 417.369 199.576 417.369 201.698 417.167C206.222 416.843 210.745 417.005 215.107 415.953C216.894 415.714 218.605 415.079 220.115 414.094C221.541 413.116 222.894 412.035 224.162 410.859C224.299 412.451 224.951 413.956 226.019 415.144C227.068 415.872 228.443 415.712 229.575 415.631C231.211 415.455 232.857 415.401 234.501 415.469C239.268 415.712 246.619 415.872 249.526 416.359C252.462 416.953 255.429 417.385 258.412 417.652C261.645 417.757 264.871 417.292 267.943 416.277C269.881 415.469 270.367 415.631 271.254 414.822C273.437 411.83 273.032 407.866 273.516 404.467C273.786 402.294 273.813 400.097 273.597 397.917L273.584 397.845Z" fill="#007EEF"/>
<path d="M276.246 388.464C273.822 383.211 270.187 370.023 269.783 364.282C269.217 359.915 269.46 355.467 269.46 351.1H269.136L268.49 350.776H268.006C267.699 350.853 267.378 350.856 267.07 350.786C266.761 350.716 266.473 350.574 266.229 350.372H266.067C265.82 350.256 265.6 350.091 265.421 349.886H265.34V351.504C264.986 351.186 264.575 350.939 264.129 350.776C262.918 349.967 261.302 349.725 260.494 350.614C259.994 350.613 259.509 350.785 259.121 351.1C258.977 351.165 258.862 351.279 258.797 351.423L253.143 349.725C252.803 349.516 252.411 349.404 252.012 349.401L251.366 349.239C247.016 348.445 242.619 347.933 238.204 347.706C238.106 347.478 237.961 347.274 237.78 347.105C237.599 346.937 237.386 346.81 237.153 346.73V346.244L233.034 346.568C232.953 346.891 232.953 347.215 232.872 347.618H232.628C232.376 347.348 232.054 347.151 231.699 347.051C231.342 346.952 230.965 346.952 230.609 347.051C230.349 347.116 230.106 347.236 229.897 347.404C229.688 347.571 229.518 347.782 229.398 348.022L228.509 348.184C228.449 347.821 228.34 347.467 228.185 347.134V346.891L224.066 347.215C224.239 347.771 224.373 348.339 224.469 348.914C221.206 349.173 217.982 349.796 214.857 350.773C208.152 352.796 199.672 357.891 194.097 360.64C194.016 359.346 193.935 357.809 193.856 356.438C193.289 349.563 191.594 342.932 189.735 336.3C189.089 334.036 188.362 329.021 184.969 330.478L181.174 333.47H181.012C180.479 333.421 179.945 333.533 179.477 333.793L174.471 335.33C170.512 336.461 166.392 337.109 162.434 338.403C158.477 339.696 156.779 340.102 153.871 340.829L150.56 341.638V340.262C149.803 340.501 149.011 340.61 148.217 340.586C147.912 340.611 147.607 340.537 147.346 340.378C147.085 340.218 146.881 339.979 146.764 339.696H146.602C146.521 340.505 146.521 341.395 146.521 342.285L144.744 342.123C139.464 341.885 134.218 341.154 129.074 339.94L126.806 339.293C123.817 337.513 120.66 335.573 118.162 334.44C115.663 333.307 111.7 331.934 109.197 330.719C106.693 329.505 102.002 327.568 98.2097 326.999C95.0619 326.324 91.8014 326.38 88.6782 327.161V326.271C87.4048 326.818 86.0239 327.067 84.6402 326.999C84.2355 334.764 83.1053 341.071 81.8927 348.511C61.2079 348.592 40.4542 349.158 19.6885 348.511C19.3837 348.514 19.0836 348.586 18.8107 348.722C18.5378 348.858 18.2991 349.054 18.1126 349.295C17.9261 349.536 17.7966 349.817 17.7339 350.115C17.6711 350.414 17.6768 350.723 17.7504 351.019C18.0727 352.313 19.4456 352.637 20.5773 352.556C37.3785 353.04 54.1811 352.878 70.9013 352.637H81.3216C80.2724 361.04 79.4645 368.649 78.4138 375.361C77.444 380.699 76.1519 386.118 76.5551 391.698C76.798 393.881 76.5551 396.792 78.6536 398.168C79.71 398.676 80.9126 398.791 82.0456 398.491C85.3582 398.087 85.8423 397.925 89.0739 397.601C94.7278 397.035 100.466 398.006 106.118 397.844C111.009 397.462 115.929 397.761 120.738 398.734C124.883 399.336 129.072 399.58 133.258 399.462C136.328 399.138 139.963 399.704 142.468 397.763C142.829 397.442 143.112 397.041 143.294 396.592C143.476 396.144 143.552 395.659 143.517 395.176L143.76 392.587H144.003C148.848 391.537 154.988 391.941 160.4 393.234C165.813 394.528 169.286 394.771 173.81 394.367C175.249 394.2 176.62 393.656 177.783 392.79C178.946 391.924 179.86 390.766 180.433 389.433C182.29 385.471 182.048 381.103 181.887 376.817V374.149C182.533 375.685 183.098 377.141 183.501 378.031C184.957 381.832 185.844 385.794 187.138 389.595C187.703 391.616 189.4 393.797 191.66 392.668C193.92 391.54 194.808 389.595 196.265 388.058L197.719 386.684C199.031 388.971 200.545 391.136 202.242 393.153C202.888 393.72 203.534 395.983 205.958 395.176C208.639 394.483 211.239 393.507 213.713 392.263C214.843 391.616 216.702 390.97 216.378 389.352C216.303 388.866 216.06 388.421 215.691 388.097C215.322 387.772 214.851 387.587 214.359 387.574C213.067 387.736 212.017 388.705 210.805 389.191C209.17 389.973 207.463 390.595 205.709 391.051C204.422 389.54 203.234 387.946 202.154 386.28L200.862 384.179L202.073 383.37C206.207 380.39 210.716 377.968 215.482 376.167C218.676 374.831 222.009 373.855 225.418 373.256L226.145 373.094C225.661 377.38 224.853 381.586 223.883 386.357C222.591 392.747 222.834 394.04 225.58 394.768C224.107 396.323 223.028 398.209 222.432 400.268C221.948 402.369 220.171 409.245 223.402 409.572C223.665 409.653 223.947 409.653 224.21 409.572C223.841 409.81 223.559 410.162 223.408 410.575C223.257 410.988 223.244 411.439 223.372 411.859C223.5 412.28 223.761 412.647 224.116 412.906C224.471 413.164 224.901 413.3 225.34 413.292C228.007 413.211 228.007 409.249 225.34 409.249H224.694C225.078 409.03 225.375 408.686 225.537 408.274C225.698 407.862 225.715 407.407 225.583 406.985V406.742C225.504 406.45 225.504 406.143 225.583 405.852C225.635 404.146 225.934 402.457 226.472 400.838C226.85 399.663 227.484 398.586 228.329 397.687C228.894 396.959 229.702 396.474 230.107 395.746L231.318 396.069C235.228 397.026 239.248 397.462 243.273 397.364C248.766 397.121 254.177 395.827 259.59 394.532C262.903 393.644 265.735 393.804 270.172 393.967C272.191 393.804 274.369 394.048 276.318 393.32C278.266 392.592 276.964 390.084 276.237 388.629L276.246 388.464Z" fill="#162B43"/>
<path d="M260.821 352.555H260.579C260.862 352.242 261.045 351.851 261.102 351.432C261.159 351.014 261.09 350.588 260.902 350.21L260.657 349.806C260.253 348.997 259.283 348.756 258.396 348.594C257.508 348.432 254.761 347.623 253.299 348.837L253.056 349.159L251.117 349.322C250.75 349.436 250.418 349.642 250.152 349.92C249.887 350.198 249.697 350.54 249.6 350.912C249.503 351.285 249.502 351.675 249.598 352.048C249.694 352.421 249.884 352.763 250.149 353.042C251.117 353.851 252.491 354.013 253.622 354.497C254.752 354.982 257.661 355.791 259.68 356.519C261.699 357.247 263.315 353.367 260.81 352.637L260.821 352.555Z" fill="#162B43"/>
<path d="M231.822 84.1401C222.614 82.0391 213.086 82.926 203.954 84.7868C199.1 85.692 194.32 86.9627 189.656 88.588C186.982 89.5125 184.364 90.5923 181.816 91.822C180.522 92.5498 178.908 92.955 177.857 94.0069C177.643 94.2688 177.498 94.5804 177.435 94.9132C177.372 95.2459 177.394 95.589 177.499 95.911C177.603 96.233 177.787 96.5235 178.033 96.7559C178.279 96.9883 178.579 97.155 178.906 97.2409C179.679 97.3445 180.462 97.1414 181.087 96.6751L184.479 95.0574C193.042 90.9336 206.128 87.9412 215.656 87.0513C221.391 86.8082 226.319 86.9703 230.762 88.0223C233.277 88.6691 234.326 84.8679 231.822 84.1401Z" fill="#DBF122"/>
<path d="M267.526 351.343C261.63 347.784 254.684 346.895 247.979 346.328C243.362 346.004 238.723 346.248 234.165 347.056C233.907 346.791 233.588 346.594 233.236 346.481C232.884 346.369 232.51 346.344 232.146 346.409C223.504 346.895 214.699 348.189 206.782 351.747C202.096 353.93 197.25 356.195 193.697 360.001C193.051 360.972 191.919 361.699 191.838 362.912C191.844 363.313 191.968 363.702 192.196 364.032C192.423 364.362 192.743 364.616 193.116 364.763C193.488 364.911 193.895 364.944 194.286 364.859C194.677 364.774 195.035 364.575 195.312 364.287C198.301 360.647 200.558 359.354 205.006 357.083C209.781 354.593 214.899 352.824 220.191 351.831C219.938 352.083 219.754 352.396 219.656 352.74C219.557 353.083 219.548 353.446 219.629 353.795C219.71 354.143 219.878 354.464 220.118 354.729C220.358 354.994 220.661 355.193 220.999 355.308C222.372 355.551 223.585 354.58 224.796 354.258C228.754 352.802 232.711 351.184 236.913 350.698C241.114 350.212 252.584 350.213 258.647 352.074C260.324 352.502 261.97 353.042 263.575 353.69C264.464 354.096 265.191 354.904 266.24 355.066C267.289 355.229 269.385 352.394 267.526 351.343Z" fill="#162B43"/>
<path d="M149.188 339.451C148.461 337.43 145.31 338.077 145.31 340.26C143.937 352.876 142.645 365.573 141.997 378.271C142.013 378.579 142.097 378.88 142.242 379.153C142.386 379.426 142.589 379.663 142.836 379.848C143.082 380.033 143.367 380.162 143.669 380.224C143.971 380.287 144.283 380.283 144.583 380.211C146.359 379.726 146.037 377.786 146.118 376.411C146.683 366.544 147.653 356.753 148.621 346.973C148.783 345.274 148.945 343.496 149.188 341.72C149.43 339.945 149.589 340.181 149.188 339.451Z" fill="white"/>
<path d="M236.266 345.842C236.023 343.657 232.792 343.497 232.307 345.518C231.823 347.54 230.209 351.341 228.995 354.171C228.673 355.546 227.703 356.922 227.784 358.373C227.865 359.824 230.126 360.637 231.176 359.504C231.632 358.913 231.937 358.219 232.065 357.483L233.761 353.035C234.488 351.417 235.053 349.8 235.618 348.182C236.184 346.564 236.426 346.654 236.266 345.842Z" fill="white"/>
<path d="M290.871 345.603L290.709 345.441H290.871V345.603Z" fill="#DBF122"/>
<path d="M307.026 184.664C306.299 175.525 302.018 167.438 299.11 158.946C297.333 153.844 295.798 148.675 293.456 143.822C289.741 136.059 285.782 128.376 280.855 121.26C277.981 116.588 274.74 112.153 271.162 107.997C268.43 104.426 265.253 101.218 261.71 98.4525C259.16 96.3525 256.336 94.6111 253.316 93.2767C252.346 92.873 251.218 92.3073 250.246 92.873C249.942 93.0791 249.692 93.3568 249.519 93.6819C248.898 93.4172 248.222 93.3091 247.55 93.3672C246.877 93.4253 246.23 93.6478 245.663 94.0151C245.097 94.3824 244.629 94.8834 244.301 95.4739C243.974 96.0644 243.796 96.7265 243.783 97.402L242.815 98.2109C241.341 99.1477 240.142 100.459 239.34 102.012C238.703 103.215 238.215 104.492 237.886 105.813C236.577 106.747 235.408 107.863 234.413 109.128L232.879 108.885C230.595 109.193 228.33 109.625 226.093 110.18H225.69C225.45 109.731 225.18 109.298 224.882 108.885L223.912 107.592C223.531 107.089 223.206 106.547 222.942 105.974C222.452 104.522 222.074 103.035 221.812 101.526H221.893C221.638 100.357 221.259 99.2181 220.761 98.1299L222.136 95.8654C224.317 92.5489 223.912 92.9541 226.174 90.613C226.75 90.2432 227.2 89.7075 227.466 89.0763C227.692 88.5217 227.779 87.9196 227.717 87.3236C227.655 86.7277 227.447 86.1562 227.111 85.6601C226.775 85.164 226.322 84.7586 225.793 84.4799C225.263 84.2012 224.673 84.0579 224.074 84.0626C220.681 84.7094 218.662 84.9525 216.238 85.3562C215.46 85.2216 214.663 85.2492 213.897 85.4372C212.494 85.6627 211.115 86.0143 209.776 86.4877C209.363 86.593 208.978 86.786 208.646 87.0534C207.775 87.3537 206.957 87.7903 206.222 88.347L203.96 88.1039C198.864 88.185 193.864 89.399 188.935 90.6115L187.724 90.7736C184.9 91.5044 182.432 93.2247 180.766 95.6222C178.585 97.7232 178.182 100.798 177.859 103.709C177.884 106.861 179.03 109.9 181.09 112.283C182.42 114.043 183.557 115.94 184.482 117.943C184.563 118.105 184.644 118.186 184.644 118.348C186.501 123.2 188.441 127.972 190.622 132.743L191.51 134.685C192.788 138.241 193.787 141.891 194.499 145.602C195.064 148.837 195.71 152.152 196.195 155.388C197.514 166.36 197.946 177.422 197.488 188.464L197.972 191.942C198.374 193.38 199.002 194.745 199.831 195.985C199.507 198.574 199.345 200.433 198.618 204.64C196.599 216.528 194.176 228.335 192.722 240.304C191.591 250.009 190.379 259.875 191.995 269.66C192.001 270.262 192.083 270.859 192.237 271.44L191.995 272.977C190.784 280.821 191.914 288.828 193.368 296.51C193.691 298.29 194.014 300.068 194.417 301.848C193.678 301.904 192.946 302.04 192.236 302.252C188.923 303.385 185.941 305.244 184.238 308.405C182.535 311.565 181.816 315.117 182.865 318.675C184.165 322.225 185.27 325.843 186.177 329.513C186.557 331.57 187.237 333.559 188.196 335.417C189.222 339.378 189.977 343.404 190.458 347.467C190.701 350.135 190.942 352.884 191.023 355.554C191.104 358.224 190.539 359.678 192.558 360.325C194.577 360.971 195.385 359.274 196.755 358.546C198.125 357.819 200.631 356.525 202.571 355.554C209.365 351.943 216.753 349.587 224.381 348.598C228.051 348.121 231.747 347.878 235.448 347.871C239.567 348.033 243.692 348.68 247.806 349.085C253.379 349.813 258.953 349.813 264.526 350.54C266.94 350.904 269.318 351.472 271.636 352.238C275.108 353.209 278.662 354.502 282.299 354.179C284.946 354.058 287.573 353.651 290.133 352.965C291.506 352.481 293.041 351.996 293.93 350.701C294.185 350.266 294.268 349.751 294.164 349.257C294.059 348.764 293.774 348.327 293.365 348.033H293.203C292.412 347.284 291.683 346.472 291.022 345.606H290.941V345.444C290.779 345.284 290.779 345.284 290.779 345.365L290.295 344.635C286.821 339.54 286.014 335.739 284.075 329.675C282.135 323.611 279.794 315.764 278.016 308.648C276.886 304.362 275.513 295.951 275.189 293.605C273.655 282.364 273.816 270.962 274.705 259.72C275.028 255.864 275.567 252.03 276.321 248.235C279.614 246.108 282.697 243.67 285.529 240.957C287.953 238.612 290.699 236.59 293.122 234.245C294.99 232.373 296.692 230.344 298.211 228.179C300.878 224.54 303.457 220.739 304.835 216.372C305.872 212.461 306.468 208.446 306.612 204.403C306.935 197.771 307.985 191.14 307.096 184.594L307.026 184.664ZM242.485 252.84C242.223 253.744 242.007 254.662 241.839 255.589C237.549 255.563 233.261 255.778 228.995 256.236H227.46C226.526 255.915 225.527 255.832 224.552 255.994C223.883 256.04 223.227 256.204 222.614 256.479C219.153 256.745 215.737 257.424 212.437 258.5L211.789 258.743C210.902 250.898 210.578 243.054 210.335 235.21C210.32 234.588 210.347 233.967 210.416 233.349C210.983 228.982 211.789 227.526 212.032 227.046C214.94 221.303 214.213 223.164 218.252 217.826C219.918 215.277 220.942 212.361 221.237 209.329C221.883 205.609 222.691 201.976 223.256 198.25C223.416 197.8 223.551 197.341 223.659 196.875C224.295 196.676 224.943 196.514 225.598 196.39L227.295 195.985C227.898 199.345 228.789 202.646 229.96 205.852C231.576 209.904 234.007 213.536 236.019 217.416C240.623 226.152 242.4 235.532 243.288 246.45C243.208 248.571 242.938 250.68 242.48 252.752L242.485 252.84ZM305.007 175.039C304.752 169.53 303.718 164.084 301.937 158.865C300.888 155.872 300.161 152.799 299.11 149.888C298.84 149.429 298.401 149.096 297.887 148.959C297.373 148.823 296.826 148.895 296.364 149.16C295.556 147.22 294.749 145.44 294.022 143.908C291.436 137.276 289.174 130.483 285.458 124.337C284.085 121.992 282.793 119.646 281.261 117.382C279.73 115.117 277.869 113.18 276.165 111.079C274.461 108.978 273.098 106.699 271.322 104.68C267.849 100.798 264.457 96.8363 260.256 93.6819C259.145 92.82 257.869 92.1959 256.508 91.8482C255.146 91.5004 253.728 91.4366 252.34 91.6605C252.079 91.6649 251.821 91.7248 251.584 91.8363C251.348 91.9478 251.137 92.1083 250.967 92.3073C250.705 92.5889 250.529 92.9394 250.46 93.3177C250.39 93.696 250.429 94.0864 250.574 94.443C250.718 94.7996 250.961 95.1077 251.273 95.3309C251.586 95.5541 251.957 95.6833 252.34 95.7033C255.488 95.4602 255.005 95.4602 257.348 96.5932C259.691 97.7262 262.276 100.717 264.861 103.468C267.445 106.218 269.708 109.128 272.776 113.254C274.875 116.003 276.973 118.186 278.108 119.966C283.601 128.295 286.502 135.088 289.82 144.146C292.649 151.021 294.829 155.307 296.929 162.423C297.252 163.394 297.656 165.012 298.06 166.625C298.463 168.238 299.029 171.314 299.434 173.418C299.839 175.522 299.675 177.38 300.321 179.16C300.582 179.581 300.983 179.896 301.453 180.05V181.181C301.615 182.232 301.048 183.282 301.453 184.255C301.58 184.564 301.782 184.838 302.04 185.05C302.299 185.263 302.606 185.407 302.935 185.472C303.263 185.536 303.602 185.517 303.921 185.418C304.241 185.318 304.53 185.141 304.764 184.901C305.491 184.092 305.331 182.961 305.491 181.99C305.45 179.666 305.289 177.346 305.007 175.039Z" fill="#DBF122"/>
<path d="M183.113 327.896C182.548 333.719 181.659 340.107 181.094 344.232C180.77 346.497 180.448 348.761 180.205 351.026C179.962 353.29 179.559 353.532 179.962 354.665C180.056 354.933 180.207 355.177 180.405 355.381C180.603 355.584 180.843 355.741 181.109 355.842C181.374 355.942 181.659 355.982 181.941 355.961C182.224 355.939 182.499 355.855 182.746 355.715C183.076 355.529 183.344 355.249 183.516 354.911C184.891 347.795 186.102 336.958 187.153 327.899C187.072 325.3 183.113 325.3 183.113 327.896Z" fill="white"/>
<path d="M342.729 126.677C341.194 126.839 339.902 127.648 338.532 128.135C336.075 129.332 333.504 130.281 330.858 130.965C326.661 132.015 324.315 132.096 319.466 132.177C314.617 132.258 312.6 132.015 308.075 130.479C306.135 129.67 301.37 127.002 299.108 124.494C296.481 121.649 294.329 118.4 292.733 114.87V114.71C292.327 113.804 292.029 112.853 291.844 111.878C291.764 111.555 291.602 110.341 291.521 109.856C290.551 103.704 291.037 97.4009 290.229 91.1746C289.503 83.6859 287.565 76.3654 284.489 69.5005C283.077 66.0369 280.862 62.9597 278.026 60.5235C277.54 59.4834 276.973 58.4829 276.331 57.5312C275.926 56.8844 275.361 56.1566 274.553 56.1566C274.206 56.0886 273.847 56.1209 273.518 56.2498C273.189 56.3787 272.903 56.5989 272.695 56.8844C268.913 54.9093 264.81 53.6222 260.579 53.0832H259.852L257.428 52.1948C254.197 51.467 250.886 50.5771 247.492 50.4961C242.85 50.513 238.309 51.8602 234.407 54.3783C230.89 56.6464 227.753 59.4574 225.114 62.707C222.771 65.3767 220.917 68.6121 220.671 72.1702C220.347 74.5855 220.347 77.0332 220.671 79.4484C220.831 80.5799 220.831 81.875 221.398 82.8444H221.882C223.008 82.9715 224.117 83.2155 225.193 83.5723L226.728 84.1395C227.358 84.1723 227.982 84.2806 228.586 84.4622L229.475 84.6242C229.51 84.7572 229.537 84.892 229.556 85.0279C225.841 88.5065 222.362 92.2311 220.912 97.2403C218.409 104.762 221.558 112.687 230.605 110.422C233.424 109.713 236.054 108.398 238.314 106.569C240.574 104.739 242.409 102.44 243.692 99.829C244.243 98.7813 244.728 97.7008 245.146 96.5935C245.304 96.2365 245.386 95.8508 245.388 95.4605C247.754 94.9917 250.06 94.2593 252.263 93.2771C252.164 93.3895 252.107 93.5326 252.101 93.6823C252.512 93.6564 252.924 93.7114 253.314 93.8443L254.041 94.0049C255.506 94.1268 256.947 94.4536 258.322 94.9758C259.858 95.5831 261.258 96.4907 262.441 97.6455C263.814 98.777 265.348 99.829 266.723 101.123C268.097 102.416 269.469 104.034 270.761 105.489C273.054 108.18 275.211 110.985 277.223 113.893C279.243 116.886 280.778 120.119 282.797 123.031C286.835 128.934 290.794 135 293.54 141.713C294.833 144.864 295.963 148.183 297.095 151.417L298.549 155.381C298.781 155.568 298.95 155.822 299.033 156.108C299.438 157.159 299.841 158.292 300.165 159.344L300.325 159.586C302.184 162.497 302.911 165.888 303.557 169.29C303.8 170.018 303.96 170.746 304.203 171.474C304.446 172.202 304.527 173.173 304.768 173.981C305.483 173.755 306.184 173.485 306.866 173.173C309.612 172.122 312.277 170.908 315.025 169.696C323.91 165.408 330.613 157.564 335.86 149.396C338.695 145.455 341.004 141.159 342.726 136.618C343.696 134.11 344.747 131.523 344.824 128.774C344.825 128.23 344.615 127.707 344.238 127.316C343.862 126.924 343.348 126.693 342.805 126.673L342.729 126.677ZM240.871 96.1944C237.964 102.422 235.137 105.092 228.997 106.627C227.624 106.87 225.686 106.708 225.04 105.82C224.394 104.931 223.827 98.702 226.494 94.335C227.542 92.8002 228.761 91.3904 230.129 90.1332L231.178 89.0002C231.809 90.2099 232.568 91.3489 233.44 92.3977C234.429 93.4467 235.617 94.2875 236.935 94.8706C238.253 95.4538 239.674 95.7676 241.114 95.7937L240.871 96.1944ZM257.35 84.7893C252.746 89.5599 244.427 92.9574 238.852 91.2587C235.705 90.6119 232.31 83.5753 232.391 78.3995C232.472 73.2237 233.521 70.6365 236.752 66.4302C238.691 64.1672 240.549 61.6595 243.048 59.7987C245.547 57.9379 251.442 56.1596 254.6 57.7773L254.922 58.4241C255.355 60.2083 256.035 61.9231 256.943 63.5189C259.204 67.8063 260.981 69.9087 261.708 74.1946C262.435 78.4805 259.852 82.2787 257.347 84.7893H257.35Z" fill="#162B43"/>
<path d="M79.6374 220.085L77.2961 220.813C75.806 220.017 74.4216 219.038 73.1756 217.897C69.3498 214.279 65.2145 211.005 60.8172 208.111C60.6553 206.817 59.0395 205.765 57.8284 206.574C56.6173 207.383 53.4666 209.405 51.1238 210.456C48.5128 211.535 45.8091 212.374 43.0463 212.963C36.9008 214.177 33.1101 215.064 27.3753 214.985C21.6405 214.907 20.5088 223.881 19.3772 227.602C18.004 232.945 18.0878 238.559 19.62 243.858C21.0739 248.791 24.0627 253.886 29.7975 254.129C31.4544 254.244 33.115 253.967 34.645 253.32C34.8767 253.321 35.1057 253.27 35.315 253.17C35.5251 253.073 35.7102 252.928 35.8561 252.748H35.937C37.4899 251.852 38.8383 250.64 39.8956 249.19C47.3271 242.638 54.1126 236.574 62.0283 231.559C67.5218 228.567 71.3215 227.192 77.1342 225.171C77.4933 225.292 77.8748 225.334 78.2517 225.292C78.6285 225.25 78.9916 225.125 79.3151 224.927C79.668 224.798 79.9574 224.537 80.123 224.2C80.8327 224.051 81.4641 223.649 81.8992 223.068C82.1072 222.722 82.2069 222.322 82.1855 221.919C82.1641 221.515 82.0226 221.128 81.7793 220.806C81.5359 220.484 81.2018 220.242 80.8201 220.112C80.4383 219.982 80.0264 219.969 79.6374 220.076V220.085Z" fill="#4ADEFF"/>
<path d="M272.373 342.603L267.203 341.632C262.004 340.556 256.743 339.8 251.451 339.367C246.282 339.207 241.109 338.883 235.863 339.126C228.583 339.542 221.33 340.325 214.129 341.471C209.445 342.118 204.686 343.007 200.316 345.029C200.074 343.25 199.67 341.471 199.347 339.692C198.507 335.847 197.12 332.143 195.228 328.693L196.843 328.288C197.722 328.123 198.621 328.096 199.509 328.207C200.882 328.207 202.497 328.612 203.628 327.56C204.758 326.508 203.224 323.598 202.74 321.738C202.256 319.877 200.962 316.238 200.236 313.484C197.65 303.86 196.844 296.42 196.682 286.23C196.682 273.371 197.247 260.512 198.216 247.654C199.384 242.884 200.274 238.051 200.882 233.177C201.124 230.67 201.205 230.913 201.931 225.171C202.656 219.43 203.545 215.385 204.029 210.453C204.513 205.52 204.594 200.02 204.594 194.763C204.594 189.506 203.302 181.985 203.221 175.516C203.14 171.464 202.898 167.348 202.494 163.303C202.898 162.01 203.383 160.716 203.786 159.421C205.805 153.355 207.421 147.048 209.845 141.063C211.704 136.534 215.661 128.447 218.408 122.382C219.7 120.036 216.31 118.015 214.934 120.281C211.945 126.993 208.638 133.463 205.886 140.256C204.029 144.785 202.739 149.476 201.283 154.085C200.798 151.173 200.152 148.343 199.506 145.513C198.965 143.372 198.291 141.267 197.487 139.21C197.426 138.768 197.317 138.335 197.163 137.917C195.385 129.829 193.366 121.742 189.893 114.14C187.55 108.888 184.319 104.113 181.17 99.3404C177.596 94.0775 173.076 89.5252 167.841 85.9155C166.099 84.6102 164.201 83.526 162.192 82.6876C161.465 82.3649 160.657 81.8802 159.849 82.1218C159.335 82.2722 158.902 82.6209 158.644 83.0911C158.387 83.5613 158.326 84.1146 158.476 84.6294C158.012 84.9991 157.604 85.4349 157.265 85.923C156.133 87.1355 155.326 88.9964 156.133 90.6141C156.941 92.2318 156.941 91.6645 157.265 92.3128L157.506 92.8786C157.512 92.9408 157.541 92.9985 157.587 93.0406C157.816 93.6409 157.979 94.2644 158.073 94.9C158.314 97.8923 157.992 98.5391 157.265 101.693C156.538 104.848 155.246 107.354 153.791 108.972C152.335 110.589 151.692 111.398 149.51 112.53C147.327 113.661 143.775 112.851 142.643 111.8C141.512 110.75 141.27 110.588 140.302 108.97C139.159 106.485 138.292 103.882 137.716 101.207L137.555 100.559C137.282 96.2449 137.39 91.9152 137.878 87.6202L138.524 87.4582C140.462 86.7303 139.897 83.4949 137.716 83.5759C130.204 83.0102 122.853 85.0316 115.833 87.7013C108.82 90.3521 102.059 93.6256 95.6289 97.4826C90.1355 100.634 84.723 103.952 79.4738 107.51C80.3052 108.382 80.866 109.477 81.0881 110.661C82.1374 113.976 81.6547 117.617 80.604 120.932C80.2008 122.065 79.877 123.197 79.3929 124.248C78.9087 125.3 77.6152 126.674 76.2452 125.865C74.8752 125.056 75.1135 124.086 74.9532 123.034C74.647 123.824 74.0757 124.482 73.3373 124.895L72.6958 125.06C72.5972 125.45 72.4616 125.828 72.2911 126.192L72.0498 127.323C71.7621 128.636 71.325 129.911 70.7473 131.125C70.3441 132.258 69.779 133.632 68.4045 134.036C67.03 134.44 65.7394 132.985 65.6585 131.043H65.5776C65.2737 133.476 64.2942 135.774 62.7506 137.676C62.5004 138.133 62.1225 138.506 61.6635 138.75C61.2044 138.994 60.6842 139.099 60.1665 139.051C59.6617 138.954 59.1891 138.731 58.792 138.404C58.203 138.087 57.7453 137.57 57.5 136.947C57.0339 135.985 56.7595 134.942 56.6921 133.875C56.002 132.962 55.5071 131.915 55.2382 130.802C54.9944 129.462 54.9944 128.09 55.2382 126.75C52.3181 129.471 49.6172 132.418 47.1606 135.565C44.4146 139.125 41.6671 142.768 40.0528 147.05C38.4525 151.216 37.5251 155.611 37.3054 160.069C36.8057 166.074 37.159 172.118 38.3546 178.023C39.4546 184.26 41.7005 190.238 44.9782 195.655C47.4829 200.425 50.713 204.308 53.1367 207.543C55.3523 210.716 57.8681 213.668 60.6492 216.358C64.6872 220.968 69.6156 225.011 75.4313 227.275C76.7123 227.757 78.0385 228.109 79.3899 228.326C78.9852 230.751 78.582 233.177 78.0964 235.529C77.6107 237.88 77.6122 237.874 77.3694 239.006C77.1266 240.137 76.563 241.676 76.0773 243.058C73.3314 250.579 71.0695 255.593 67.676 263.033C63.4791 272.01 58.4683 280.906 56.9334 290.854C54.5906 302.661 53.6209 315.034 56.6097 326.841C57.1762 328.942 59.1143 330.48 61.2143 329.268C65.5761 327.003 71.7965 326.679 78.6629 326.76C85.5294 326.841 91.0213 327.328 97.645 328.783C107.743 331.127 117.281 335.334 127.047 338.892C131.33 340.185 135.53 341.803 139.972 342.369C149.101 343.259 158.148 340.913 166.629 337.76L172.606 335.659C175.838 335.094 179.068 334.447 181.977 332.748L182.381 332.506L183.673 332.101C186.177 331.292 188.769 330.402 191.347 329.675C192.639 332.506 194.012 335.094 194.739 337.763C195.707 341.338 196.356 344.991 196.679 348.681C197.487 350.864 199.425 350.217 200.959 349.165L202.332 348.437C205.276 347.256 208.336 346.389 211.461 345.85C224.224 343.667 237.714 342.291 251.85 343.424C257.439 343.898 262.995 344.708 268.488 345.85C270.104 346.011 272.204 347.306 273.415 345.769C273.61 345.501 273.739 345.191 273.792 344.863C273.844 344.535 273.817 344.2 273.714 343.884C273.613 343.568 273.437 343.281 273.202 343.047C272.968 342.812 272.682 342.637 272.367 342.534L272.373 342.603ZM114.049 222.099C112.993 223.583 111.774 224.942 110.414 226.151C110.473 226.392 110.479 226.643 110.431 226.886C110.383 227.13 110.282 227.36 110.136 227.56C109.99 227.76 109.801 227.926 109.584 228.046C109.367 228.165 109.126 228.236 108.879 228.252H108.152C106.941 228.414 105.729 228.899 104.436 228.98L103.871 228.818L101.61 229.303C101.409 229.502 101.157 229.642 100.883 229.708C98.216 230.355 95.6364 231.244 92.886 231.809L91.3511 232.537C89.1687 233.668 86.5846 234.72 84.2418 233.83L83.7577 233.668L82.8688 233.345C82.0916 232.96 81.482 232.303 81.1546 231.499C80.8272 230.694 80.8046 229.798 81.0911 228.978L81.253 228.735C81.3104 228.093 81.5063 227.472 81.8272 226.913C82.1482 226.355 82.5864 225.872 83.1117 225.5C83.4498 225.188 83.7479 224.835 83.999 224.449C84.8824 223.524 85.8274 222.659 86.8274 221.861H86.9084L87.2306 221.619C87.3733 221.499 87.5406 221.41 87.7208 221.361C87.9015 221.312 88.0906 221.302 88.2754 221.333C88.4594 221.364 88.6346 221.435 88.7895 221.54C88.9438 221.645 89.0736 221.782 89.1702 221.942C90.2194 221.133 91.4305 220.405 92.4003 219.758C93.2564 219.204 94.0669 218.581 94.824 217.898L97.9717 214.824C101.445 211.589 104.353 207.707 108.23 204.876C109.765 203.826 111.46 203.017 112.995 204.633C114.53 206.249 115.016 208.193 115.419 210.133C115.861 212.317 116.104 214.537 116.146 216.765C116.022 218.721 115.288 220.589 114.049 222.107V222.099ZM178.833 232.856C178.833 232.936 178.752 232.936 178.752 233.017C178.752 230.671 178.833 228.408 178.833 226.063H178.914C178.833 228.408 178.833 230.671 178.833 232.936V232.856Z" fill="#007EEF"/>
<path d="M182.386 28.3367C177.254 28.835 172.084 28.8078 166.958 28.2556C164.291 28.0125 153.549 25.3443 150.963 23.8077C148.378 22.271 146.439 21.6242 144.098 20.6563C143.371 20.3321 142.482 19.8474 141.674 20.1716C141.185 20.3724 140.745 20.6758 140.382 21.0614C139.735 21.4651 139.655 21.7082 138.2 22.5966C131.789 26.7117 124.899 30.0243 117.683 32.4605C114.372 33.511 110.898 34.3213 107.425 35.0492C105.566 35.6959 101.447 35.1302 101.771 38.0415C101.805 38.3957 101.935 38.7337 102.149 39.0184C102.363 39.3036 102.651 39.5246 102.982 39.6577C103.663 39.8576 104.372 39.9393 105.08 39.8993H105.485L109.604 40.7082C112.35 41.2739 115.098 41.7586 117.848 42.488C120.598 43.2173 123.823 44.5109 126.805 45.4818L128.178 45.9665C128.27 46.4858 128.465 46.9811 128.754 47.4221C129.967 49.8487 129.886 49.8487 130.852 52.0322C131.819 54.2157 131.419 53.4878 132.306 55.5903C132.451 56.0696 132.699 56.5113 133.033 56.8838C132.719 57.6414 132.476 58.4267 132.306 59.2294C130.287 66.8318 131.176 80.4998 136.503 87.697V87.8591C135.493 92.0499 135.41 96.411 136.26 100.637C136.907 104.357 137.876 108.157 140.3 111.142C144.903 116.561 152.012 113.731 155.566 108.636C158.555 104.754 158.96 99.4967 158.152 94.7246C157.828 92.7843 157.504 90.4387 156.374 88.7415C158.87 86.4281 161.043 83.7893 162.836 80.896C164.29 78.3884 165.098 75.4771 166.148 72.7279C167.109 70.2109 167.707 67.5697 167.925 64.8839C168.168 61.0017 168.491 56.8763 166.795 53.1562C166.668 52.739 166.506 52.3333 166.31 51.9436L166.552 43.9376C168.869 42.0179 171.297 40.2355 173.823 38.5997L183.354 32.2114C183.793 32.0271 184.152 31.6938 184.369 31.2702C184.586 30.8467 184.647 30.3601 184.54 29.8961C184.434 29.4321 184.168 29.0206 183.788 28.7339C183.409 28.4473 182.94 28.304 182.465 28.3292L182.386 28.3367ZM154.195 101.526C153.952 105.408 148.701 111.474 144.902 109.779C141.102 108.085 139.732 100.964 139.655 94.5761C139.579 93.3841 139.66 92.1872 139.897 91.0165C143.774 93.5241 148.944 93.281 152.984 91.1786C153.138 91.3671 153.248 91.5882 153.306 91.8253C154.366 94.9425 154.671 98.2674 154.195 101.526ZM162.272 71.4418C160.818 75.9708 159.041 80.0136 156.699 82.5212C152.741 87.1313 150.236 88.9096 145.552 88.824C144.284 88.6754 143.066 88.2418 141.989 87.5558C140.912 86.8698 140.004 85.949 139.332 84.8623C135.373 78.0687 134.484 68.2049 136.019 60.8426C136.31 59.4582 136.8 58.1233 137.473 56.8793C148.298 53.806 154.033 53.9681 163.323 58.6591H163.969V60.3579C163.888 65.0475 163.888 66.9893 162.272 71.3563V71.4418Z" fill="#162B43"/>
<path d="M82.061 112.852C81.9375 111.272 81.6945 109.704 81.334 108.161L81.0897 107.268C81.1671 107.066 81.2033 106.852 81.1961 106.636C81.1889 106.421 81.1384 106.209 81.0477 106.013C80.9576 105.817 80.8292 105.641 80.6702 105.495C80.5111 105.35 80.3245 105.238 80.1214 105.165C77.2136 103.547 73.5787 105.246 72.0439 108.076C71.72 108.577 71.4753 109.125 71.3184 109.7C68.5709 108.488 65.3408 109.943 63.4012 112.127C62.2907 113.271 61.5821 114.746 61.3822 116.329H60.8171C54.1935 117.3 52.6586 124.983 53.4725 130.806C53.7948 134.04 54.2804 137.518 56.2994 140.11C56.7297 140.688 57.2831 141.163 57.9195 141.5C58.5559 141.837 59.2594 142.028 59.9787 142.059C60.6981 142.09 61.4153 141.96 62.0784 141.679C62.7414 141.398 63.3336 140.973 63.8119 140.434C64.7828 139.309 65.5957 138.057 66.2281 136.712L66.7947 135.579C67.6008 136.074 68.5569 136.263 69.4902 136.113C70.4236 135.963 71.2725 135.484 71.8835 134.761C73.4348 132.745 74.4867 130.389 74.9532 127.887C75.4027 128.387 76.0154 128.71 76.6815 128.799C77.3476 128.888 78.0235 128.736 78.588 128.371C80.6071 126.997 81.334 124.248 81.8991 121.902C82.4771 118.918 82.5319 115.855 82.061 112.852ZM61.7854 138C60.5743 139.212 59.7664 138.971 58.8775 138.324C57.9887 137.677 56.6157 132.824 56.4553 129.751C56.2949 126.677 56.3744 124.333 57.7474 121.907C59.1204 119.48 59.1204 119.965 61.0584 119.561C61.0719 120.345 61.126 121.128 61.2203 121.907C61.625 125.789 62.4329 129.832 64.5329 133.148C63.725 134.926 62.271 137.596 61.7854 138ZM71.7965 127.972L70.9886 130.316C69.6966 133.309 68.8077 133.148 68.2427 132.824L67.5996 132.096H67.5187C67.0197 131.367 66.5614 130.611 66.1457 129.832C65.4143 127.95 64.873 125.999 64.5299 124.009C64.1252 121.42 63.722 116.893 65.1759 114.951L65.6601 114.385C65.8806 114.122 66.1238 113.878 66.387 113.657L67.4362 113.011C68.0679 112.709 68.7557 112.544 69.4553 112.524L70.6664 112.93V114.628C70.8344 117.904 71.5435 121.128 72.7648 124.171C72.8443 124.333 72.8443 124.494 72.9252 124.656L72.7648 124.818C72.0379 125.627 72.1982 127.082 71.795 128.053L71.7965 127.972ZM78.3392 123.443C78.0886 124.18 77.7056 124.865 77.2091 125.465H77.0472C75.6742 123.847 74.5425 120.212 73.8995 116.569C73.2565 112.925 74.3836 107.916 77.5343 107.592H78.0185C78.0414 107.713 78.0974 107.825 78.1803 107.916C78.4232 108.725 78.585 109.532 78.7469 110.341C79.2311 113.901 79.8771 119.076 78.3422 123.281L78.3392 123.443Z" fill="#162B43"/>
<path d="M274.635 245.399C273.181 245.56 272.211 246.855 270.919 247.5C268.563 249.222 265.98 250.609 263.245 251.624C259.163 253.017 254.935 253.939 250.644 254.375C248.442 254.576 246.231 254.656 244.02 254.616H243.374C243.183 254.417 242.922 254.301 242.647 254.293C238.216 253.148 233.596 252.927 229.076 253.645C223.503 254.94 220.514 255.746 214.699 255.344C212.921 255.021 211.789 251.624 213.164 249.44C213.872 248.557 214.788 247.862 215.829 247.419C216.718 247.176 217.686 247.095 218.172 246.205C218.332 245.931 218.426 245.623 218.445 245.307C218.464 244.99 218.409 244.673 218.283 244.382C218.157 244.09 217.964 243.833 217.721 243.63C217.477 243.427 217.189 243.285 216.88 243.214C216.068 243.18 215.259 243.099 214.456 242.971H214.294C214.251 242.971 214.21 242.953 214.18 242.923C214.15 242.893 214.133 242.852 214.132 242.809C213.164 241.029 213.405 241.596 213.164 240.301C213.089 239.506 213.171 238.703 213.407 237.94C213.643 237.177 214.027 236.468 214.537 235.853C215.118 235.111 215.829 234.481 216.635 233.994C217.685 233.266 219.3 232.619 218.978 231.083C218.656 229.546 217.443 229.222 216.312 229.061L215.746 228.818L215.343 228.656L214.858 228.09C214.497 227.473 214.268 226.788 214.185 226.078C214.101 225.368 214.166 224.649 214.373 223.965C215.127 222.333 216.369 220.977 217.927 220.084C219.183 219.478 220.515 219.043 221.886 218.789C222.613 218.386 225.683 219.113 225.521 216.283C225.473 215.985 225.362 215.701 225.194 215.449C225.027 215.198 224.808 214.986 224.551 214.827L224.31 214.26C223.583 212.077 222.532 204.636 224.31 200.432C226.087 196.227 227.056 196.065 228.507 196.23C229.958 196.395 231.253 198.979 232.06 203.346C232.516 206.152 232.652 209.001 232.465 211.838C232.465 212.161 232.384 213.294 232.384 213.535C232.37 213.811 232.315 214.084 232.222 214.344C232.239 214.721 232.358 215.087 232.565 215.402C232.772 215.718 233.06 215.971 233.398 216.137C233.737 216.302 234.114 216.374 234.49 216.343C234.866 216.312 235.226 216.18 235.533 215.962C236.145 215.66 236.653 215.181 236.989 214.587C243.16 208.604 249.989 203.341 257.344 198.898C257.99 198.413 258.879 198.17 259.363 197.523L259.525 197.28C259.832 197.205 260.118 197.061 260.362 196.86C260.606 196.658 260.802 196.404 260.934 196.116C261.066 195.829 261.131 195.515 261.125 195.198C261.119 194.881 261.041 194.57 260.898 194.288C256.536 185.311 255.568 174.797 254.679 164.124C254.517 162.345 254.436 160.566 254.274 158.706C254.285 158.449 254.24 158.194 254.142 157.956C254.045 157.719 253.897 157.506 253.709 157.331C252.012 155.713 249.75 157.493 250.317 159.595C250.963 168.735 251.69 177.791 253.871 186.689C254.488 189.299 255.354 191.844 256.455 194.289C256.539 194.38 256.595 194.492 256.617 194.614L256.133 194.936L253.466 196.554C248.788 199.587 244.284 202.881 239.976 206.421L236.584 209.413C236.703 205.296 235.989 201.197 234.486 197.363C233.82 195.419 232.508 193.763 230.77 192.672C227.054 190.974 222.692 193.481 221.327 197.12C219.646 200.699 218.975 204.671 219.387 208.604C219.492 210.618 219.762 212.62 220.195 214.589L220.357 214.993C218.728 215.352 217.153 215.923 215.672 216.691C213.087 218.309 210.826 220.893 210.261 223.97C209.695 227.046 210.664 230.035 212.845 231.815C210.018 234.483 208.24 238.365 209.453 242.329C209.781 243.574 210.42 244.714 211.31 245.644C210.068 246.752 209.182 248.204 208.765 249.817C208.348 251.429 208.418 253.129 208.967 254.702C210.664 259.393 214.213 259.877 218.66 259.555C222.022 259.384 225.354 258.842 228.597 257.937C230.396 257.518 232.241 257.328 234.088 257.37C236.092 257.33 238.095 257.493 240.066 257.856C240.24 258.127 240.479 258.35 240.762 258.506C241.044 258.661 241.36 258.744 241.682 258.746C249.84 258.988 258.08 258.099 265.754 255.107C269.514 253.484 273.023 251.333 276.175 248.717C276.43 248.432 276.595 248.078 276.649 247.699C276.704 247.32 276.646 246.934 276.482 246.588C276.318 246.243 276.056 245.953 275.728 245.756C275.4 245.559 275.021 245.464 274.64 245.482L274.635 245.399Z" fill="#162B43"/>
<path d="M226.814 224.21C226.607 223.883 226.312 223.623 225.962 223.459C225.613 223.296 225.224 223.236 224.841 223.287C224.459 223.338 224.099 223.498 223.804 223.747C223.51 223.997 223.293 224.325 223.179 224.694C222.776 225.827 222.452 226.959 222.13 228.092C222.039 228.617 222.124 229.157 222.371 229.628C222.568 229.98 222.866 230.265 223.227 230.446C223.587 230.627 223.993 230.695 224.393 230.643C224.793 230.591 225.167 230.42 225.469 230.152C225.771 229.885 225.986 229.533 226.087 229.142C226.329 228.011 226.733 226.959 227.056 225.827C227.136 225.556 227.155 225.271 227.113 224.992C227.071 224.712 226.969 224.445 226.814 224.21Z" fill="#162B43"/>
<path d="M225.684 241.192C225.603 239.657 226.087 237.958 225.684 236.502C225.28 235.047 221.806 235.128 221.806 237.311C221.806 239.495 221.322 242.81 221.887 245.398C222.452 247.987 224.714 247.016 225.441 245.64C226.168 244.264 225.522 242.649 225.684 241.192Z" fill="#162B43"/>
<path d="M119.38 214.102C118.734 209.816 117.765 205.368 114.938 202.051C114.182 200.965 113.15 200.099 111.949 199.544C111.398 197.995 110.695 196.505 109.85 195.096C108.316 192.509 106.376 190.163 104.754 187.574C99.6588 178.955 93.5574 170.974 86.5786 163.798L85.2866 162.423L91.1832 160.24C95.5555 158.504 99.7045 156.251 103.542 153.527C106.388 151.818 109.066 149.841 111.538 147.624C113.195 146.035 114.709 144.303 116.062 142.448C116.467 141.72 117.194 141.154 117.275 140.347C117.323 139.893 117.217 139.435 116.973 139.049C116.729 138.663 116.361 138.372 115.93 138.222C115.499 138.071 115.03 138.072 114.599 138.223C114.169 138.374 113.802 138.667 113.559 139.053C110.542 143.421 106.597 147.066 102.007 149.728C98.7283 152.002 95.2693 154.003 91.6644 155.712L84.3947 158.463C83.3051 158.822 82.2514 159.283 81.247 159.838C79.7122 161.05 80.5201 163.072 81.6517 164.205C83.5898 166.873 86.1754 168.975 88.3563 171.558C93.3848 177.544 97.9227 183.926 101.926 190.643C103.38 192.908 105.157 195.01 106.449 197.356C106.928 198.138 107.36 198.948 107.742 199.782C107.758 199.954 107.813 200.12 107.903 200.267C107.78 200.372 107.696 200.514 107.662 200.672L106.449 202.128C101.203 207.788 93.6864 214.583 88.7625 217.979C86.1784 219.758 83.5164 221.375 80.8468 222.993C79.877 223.64 78.7484 223.964 78.0184 224.771C77.7381 225.094 77.5773 225.503 77.5628 225.93C77.5483 226.357 77.6812 226.776 77.939 227.117C77.3724 229.381 76.8897 231.889 77.939 234.154C78.9882 236.418 82.4626 237.793 85.2086 237.631C86.8161 237.531 88.3977 237.176 89.8942 236.58C91.9132 235.771 93.3671 234.557 94.256 234.397C98.294 232.86 102.5 233.992 107.341 231.646C110.152 230.249 112.651 228.296 114.686 225.904C117.603 222.673 119.946 218.55 119.38 214.102ZM109.444 225.424C108.312 226.468 107.033 227.339 105.648 228.011L103.144 228.82C102.619 229.002 102.078 229.137 101.529 229.224C98.943 229.467 96.3589 229.467 93.9352 230.195C91.5115 230.923 90.3813 231.894 88.6036 232.783C87.8746 233.084 87.1138 233.301 86.3358 233.43H84.0874L83.4414 233.268L82.7145 233.025L82.3113 232.864L82.0684 232.702L81.5843 232.137C81.5737 232.137 81.5632 232.135 81.5534 232.13C81.5436 232.126 81.5347 232.12 81.5273 232.113C81.5122 232.097 81.5037 232.077 81.5033 232.056C81.298 231.15 81.298 230.21 81.5033 229.305C81.7497 228.488 81.912 227.649 81.9875 226.799C90.0335 222.266 97.4479 216.692 104.039 210.219C105.979 208.279 107.917 206.418 109.776 204.397L110.017 204.073C110.255 204.194 110.518 204.257 110.784 204.257C111.051 204.257 111.314 204.194 111.552 204.073C111.958 204.514 112.31 205.003 112.601 205.528C114.217 207.874 114.377 209.816 115.185 213.374C115.993 216.932 114.136 221.056 109.45 225.262L109.444 225.424Z" fill="#162B43"/>
<path d="M244.182 242.406C244.251 239.829 244.035 237.252 243.536 234.723C241.921 227.652 239.65 220.748 236.75 214.1C235.538 212.321 232.63 213.776 233.277 215.879C236.127 222.808 238.344 229.982 239.901 237.311C240.304 239.412 240.304 247.986 239.739 250.25C239.174 252.515 238.769 252.758 239.415 253.889C239.613 254.241 239.911 254.526 240.271 254.707C240.631 254.888 241.037 254.956 241.437 254.904C241.837 254.852 242.211 254.681 242.513 254.414C242.815 254.147 243.03 253.795 243.131 253.404C244.008 249.808 244.362 246.104 244.182 242.406Z" fill="#007EEF"/>
<path d="M252.502 239.333C252.152 234.521 251.477 229.739 250.482 225.018C249.271 219.52 247.817 213.858 244.504 209.249C244.21 208.844 243.777 208.563 243.287 208.46C242.798 208.356 242.288 208.438 241.856 208.69C241.424 208.941 241.1 209.345 240.948 209.821C240.795 210.298 240.825 210.815 241.031 211.271C244.504 216.373 245.474 221.138 246.928 227.688C248.484 235.075 248.893 242.658 248.14 250.17C248.101 251.226 247.993 252.279 247.817 253.321C247.66 253.861 247.718 254.44 247.979 254.939C249.352 256.879 251.936 255.666 251.856 253.402C252.394 248.733 252.61 244.032 252.502 239.333Z" fill="#007EEF"/>
<path d="M262.437 265.293C262.114 268.286 261.468 271.278 261.225 274.27C261.263 274.601 261.382 274.917 261.571 275.191C261.76 275.465 262.013 275.687 262.309 275.839C262.605 275.992 262.933 276.068 263.266 276.062C263.598 276.057 263.924 275.969 264.214 275.807C264.665 275.525 265.007 275.097 265.184 274.595C265.506 271.521 266.152 268.529 266.395 265.537C266.334 265.071 266.113 264.642 265.77 264.322C265.427 264.002 264.984 263.812 264.516 263.783C264.048 263.754 263.585 263.889 263.206 264.165C262.826 264.44 262.554 264.839 262.437 265.293Z" fill="#007EEF"/>
<path d="M268.979 316.641C266.771 309.916 265.467 302.927 265.103 295.857C264.86 292.218 264.698 288.579 264.617 284.859C264.457 283.645 264.779 282.351 264.376 281.219C263.973 280.088 260.417 279.843 260.498 282.028C260.741 295.291 261.387 308.877 266.395 321.332C266.608 321.639 266.904 321.877 267.249 322.018C267.594 322.16 267.973 322.199 268.34 322.131C268.706 322.062 269.046 321.889 269.316 321.632C269.588 321.377 269.779 321.048 269.868 320.685C270.111 319.315 269.222 318.022 268.979 316.641Z" fill="#007EEF"/>
<path d="M79.3957 260.366C74.4567 266.728 70.2811 273.65 66.9549 280.988C63.5629 288.023 60.9773 295.463 60.4931 303.309C60.2503 306.301 60.009 309.374 60.655 312.286C60.7484 312.554 60.8995 312.798 61.0976 313.002C61.2957 313.205 61.536 313.362 61.8014 313.462C62.0669 313.563 62.3511 313.603 62.634 313.581C62.9168 313.56 63.1915 313.476 63.4385 313.336C63.7689 313.15 64.0369 312.87 64.2089 312.532C64.774 311.319 64.2089 309.945 64.2899 308.57C64.047 296.114 68.6516 285.602 74.8721 274.355C76.3693 271.608 78.0421 268.96 79.8799 266.428L82.3036 263.194C82.6259 262.708 83.1115 262.223 83.1115 261.658C83.1599 261.204 83.0533 260.746 82.809 260.361C82.5647 259.975 82.1972 259.684 81.7663 259.534C81.3354 259.384 80.8665 259.385 80.4361 259.536C80.0056 259.687 79.6389 259.979 79.3957 260.366Z" fill="#DBF122"/>
<path d="M110.168 321.014C100.875 319.153 91.5891 317.051 82.0576 316.889C77.616 316.928 73.1853 317.334 68.8104 318.103L65.5787 318.993C65.3277 319.052 65.0912 319.161 64.8832 319.314C64.6751 319.466 64.4998 319.659 64.3676 319.881C64.1597 320.227 64.06 320.627 64.0813 321.03C64.1027 321.434 64.2442 321.821 64.4875 322.143C64.7309 322.465 65.065 322.707 65.4467 322.837C65.8285 322.967 66.2404 322.98 66.6295 322.873C79.2307 319.315 91.8319 321.337 105.16 324.087L109.119 324.895C109.373 324.964 109.639 324.982 109.901 324.948C110.162 324.914 110.415 324.829 110.643 324.698C110.872 324.566 111.073 324.391 111.234 324.182C111.395 323.973 111.513 323.734 111.582 323.479C111.651 323.224 111.669 322.958 111.635 322.696C111.602 322.434 111.517 322.181 111.385 321.952C111.254 321.723 111.079 321.523 110.87 321.361C110.661 321.2 110.423 321.081 110.168 321.012V321.014Z" fill="#DBF122"/>
<path d="M159.932 152.638C159.528 148.436 159.205 144.147 158.559 139.941C157.428 134.199 156.135 128.536 154.6 122.877C153.873 120.371 150.076 121.421 150.724 124.01C153.065 133.228 155.005 140.667 155.57 149.242C156.875 160.355 157.091 171.568 156.216 182.723C155.975 185.716 155.894 188.627 155.813 191.619C155.894 193.075 155.248 195.258 157.024 195.986C158.8 196.714 160.093 195.015 159.77 193.318C159.446 191.621 159.851 189.758 159.932 187.98C160.738 176.18 161.303 164.366 159.932 152.638Z" fill="#DBF122"/>
<path d="M161.222 228.901C161.062 227.526 161.546 225.989 160.576 224.937C160.368 224.722 160.116 224.555 159.836 224.449C159.556 224.343 159.256 224.301 158.958 224.325C158.659 224.349 158.37 224.44 158.111 224.59C157.852 224.74 157.63 224.946 157.46 225.192C157.233 225.523 157.109 225.913 157.103 226.313C157.992 237.718 154.679 246.692 152.579 258.258C149.995 273.38 147.653 288.666 146.926 304.112C146.845 309.773 146.845 315.517 147.007 321.257C147.007 323.036 147.087 324.897 147.248 326.676C147.408 328.456 147.248 328.536 147.894 329.183C148.189 329.441 148.551 329.611 148.938 329.674C149.325 329.736 149.722 329.689 150.084 329.538C150.446 329.386 150.758 329.136 150.985 328.816C151.212 328.496 151.345 328.119 151.368 327.727C151.139 325.362 151.031 322.987 151.045 320.611C150.883 313.332 150.722 306.054 151.287 298.774C152.095 287.614 153.386 278.718 154.922 268.448C155.811 263.029 156.779 257.61 157.911 252.192C159.043 246.775 160.173 242.81 160.738 237.959C161.182 234.961 161.344 231.928 161.222 228.901Z" fill="#DBF122"/>
<path d="M97.8129 198.088C97.005 198.25 96.6003 198.978 96.0353 199.544C95.4702 200.11 93.9368 201.97 92.8051 203.102C88.4418 207.389 85.0498 209.735 79.4769 213.05C77.5796 214.084 75.6081 214.976 73.5788 215.718C73.0768 215.895 72.6498 216.237 72.3677 216.689C72.2238 216.951 72.1399 217.243 72.1222 217.542C72.1045 217.841 72.1533 218.14 72.2652 218.417C72.3771 218.695 72.5492 218.945 72.7691 219.148C72.989 219.351 73.2512 219.502 73.5368 219.591C73.9184 219.711 74.3271 219.714 74.7104 219.6C81.9051 216.932 88.3624 212.565 94.0972 207.47C95.7939 205.853 97.3288 204.154 98.8622 202.455C100.396 200.756 100.397 201.08 100.318 200.03C100.331 199.72 100.27 199.411 100.139 199.129C100.008 198.847 99.8121 198.601 99.5668 198.411C99.3214 198.221 99.0342 198.092 98.729 198.036C98.4239 197.98 98.1098 197.998 97.8129 198.088Z" fill="#DBF122"/>
<path d="M93.4509 187.897C92.9121 188.125 92.4398 188.487 92.0779 188.947L88.7654 192.262C83.1925 197.843 78.1831 201.239 70.9944 205.525C68.2484 207.062 65.3406 208.436 62.5122 209.973C61.4629 210.621 59.9281 210.863 59.6043 212.157C59.498 212.546 59.5107 212.958 59.6407 213.341C59.7707 213.723 60.012 214.057 60.3336 214.301C60.6552 214.545 61.0423 214.686 61.445 214.708C61.8477 214.729 62.2476 214.629 62.5931 214.421C72.6912 209.407 82.7877 203.988 90.7844 195.82C92.1574 194.527 93.5318 193.233 94.8314 191.859C96.1309 190.484 96.1234 190.726 96.0425 189.836C96.0425 189.522 95.9695 189.212 95.8293 188.932C95.6891 188.651 95.4856 188.407 95.2349 188.219C94.9842 188.03 94.6931 187.903 94.3848 187.847C94.0764 187.791 93.7593 187.807 93.4584 187.895L93.4509 187.897Z" fill="#DBF122"/>
<path d="M140.867 120.773C135.536 120.936 135.536 128.779 140.867 128.861C146.199 128.942 146.118 120.936 140.867 120.773Z" fill="#DBF122"/>
<path d="M230.61 120.773C225.279 120.936 225.279 128.779 230.61 128.861C235.942 128.942 235.942 120.936 230.61 120.773Z" fill="#007EEF"/>
<path d="M230.288 364.765C230.126 362.664 226.895 362.42 226.41 364.524C225.926 366.628 224.876 368.648 224.795 370.588C224.714 372.528 228.187 372.934 228.753 370.831C229.32 368.729 229.399 368.163 229.802 366.868C230.206 365.573 230.448 365.493 230.288 364.765Z" fill="white"/>
<path d="M264.854 384.663C263.724 384.096 262.35 384.744 261.058 384.663C259.602 384.769 258.139 384.715 256.696 384.501C255.161 384.095 253.548 383.611 252.01 384.016C248.214 385.147 246.114 387.897 243.852 389.111C241.59 390.325 241.509 390.242 239.974 390.242H238.682C237.148 390.016 235.635 389.665 234.158 389.192C232.866 388.787 231.493 388.141 230.12 388.221C228.747 388.3 227.778 391.617 229.878 392.103C235.29 393.64 240.46 395.904 245.872 392.669C248.295 391.294 249.02 390.161 250.637 389.192L252.577 388.141L253.223 387.979C254.031 387.979 255.242 388.465 257.02 388.707C259.197 388.977 261.401 388.923 263.562 388.545C264.045 388.647 264.549 388.569 264.978 388.324C265.407 388.08 265.732 387.687 265.891 387.219C266.05 386.751 266.033 386.241 265.842 385.785C265.651 385.329 265.299 384.959 264.854 384.745V384.663Z" fill="white"/>
<path d="M211.386 365.576C209.817 367.027 208.015 368.203 206.054 369.053C203.308 370.186 200.32 370.509 197.574 371.723C195.759 372.717 194.208 374.131 193.05 375.846C191.935 377.264 190.91 378.749 189.98 380.294C189.494 381.265 188.607 382.074 188.364 383.125C188.121 384.175 191.11 386.276 192.161 384.42C193.212 382.563 195.796 378.677 196.523 377.868C197.25 377.059 198.22 375.927 199.269 375.362H199.35C201.308 374.658 203.303 374.064 205.327 373.582C208.093 372.792 210.656 371.413 212.84 369.539C213.486 368.972 214.375 368.568 214.698 367.759C214.876 367.325 214.898 366.843 214.76 366.395C214.621 365.946 214.332 365.56 213.94 365.302C213.549 365.044 213.08 364.93 212.614 364.98C212.148 365.03 211.714 365.241 211.386 365.576Z" fill="white"/>
<path d="M182.143 361.369C181.946 361.018 181.648 360.734 181.287 360.554C180.927 360.373 180.522 360.305 180.122 360.357C179.723 360.409 179.348 360.579 179.046 360.846C178.744 361.113 178.529 361.464 178.428 361.854C178.267 362.987 177.782 364.2 177.863 365.333C177.901 365.663 178.02 365.979 178.209 366.252C178.398 366.526 178.651 366.749 178.946 366.901C179.242 367.053 179.57 367.13 179.903 367.124C180.235 367.119 180.561 367.031 180.851 366.869C181.901 366.302 181.901 365.09 182.062 364.119C182.224 363.148 182.629 362.261 182.143 361.369Z" fill="white"/>
<path d="M142.886 385.793C140.221 385.793 140.221 389.756 142.886 389.836C143.422 389.836 143.935 389.623 144.314 389.244C144.693 388.865 144.905 388.35 144.905 387.814C144.905 387.278 144.693 386.764 144.314 386.385C143.935 386.006 143.422 385.793 142.886 385.793Z" fill="white"/>
<path d="M105.406 387.896C104.437 387.006 102.902 387.33 101.61 387.087C97.2322 386.656 92.8244 386.629 88.4419 387.006C87.1395 387.115 85.845 387.305 84.5658 387.573C83.9198 387.734 83.1928 387.654 82.7072 388.139C80.931 389.432 82.4658 392.263 84.4849 391.697C88.9523 390.823 93.5164 390.551 98.0559 390.888L102.659 391.212C103.386 391.212 104.113 391.535 104.757 391.212C105.054 391.071 105.313 390.862 105.514 390.603C105.715 390.343 105.853 390.04 105.916 389.717C105.979 389.394 105.965 389.062 105.876 388.745C105.787 388.429 105.625 388.138 105.403 387.896H105.406Z" fill="white"/>
<path d="M114.775 389.351C113.645 389.27 112.352 388.704 111.303 389.27C110.981 389.489 110.727 389.792 110.568 390.147C110.408 390.502 110.351 390.894 110.401 391.279C110.451 391.665 110.607 392.029 110.852 392.331C111.097 392.633 111.42 392.861 111.787 392.99C112.918 392.99 114.21 393.637 115.26 392.99C115.586 392.784 115.846 392.488 116.009 392.138C116.172 391.788 116.232 391.398 116.181 391.016C116.13 390.633 115.97 390.272 115.721 389.977C115.472 389.682 115.144 389.465 114.775 389.351Z" fill="white"/>
<path d="M170.593 385.876C169.786 384.663 168.008 384.825 166.716 384.501C164.093 384.11 161.43 384.082 158.8 384.42C157.668 384.744 156.214 384.582 155.165 385.31C154.116 386.038 154.922 389.434 156.941 388.787C160.67 387.964 164.535 387.992 168.251 388.868C168.639 388.957 169.044 388.934 169.42 388.8C169.795 388.667 170.125 388.43 170.37 388.116C170.616 387.802 170.768 387.425 170.807 387.028C170.846 386.632 170.772 386.232 170.593 385.876Z" fill="white"/>
<path d="M143.532 409.165C142.376 406.18 140.314 403.635 137.636 401.886C136.344 401.321 134.89 400.027 133.439 400.35C131.988 400.672 131.58 403.666 133.52 404.232C135.459 404.798 136.508 405.769 138.124 407.709C139.74 409.649 141.113 412.811 140.627 414.912C140.789 413.862 140.627 414.993 140.466 415.478C140.304 415.963 139.9 417.418 140.466 418.227C140.672 418.553 140.968 418.814 141.317 418.977C141.667 419.14 142.056 419.2 142.439 419.149C142.821 419.098 143.181 418.938 143.476 418.689C143.77 418.44 143.988 418.111 144.102 417.742C145.011 414.915 144.808 411.847 143.532 409.165Z" fill="#162B43"/>
<path d="M177.298 411.107C173.501 408.034 170.836 408.196 166.473 409.895C164.697 410.541 164.858 410.623 163.808 410.541C162.757 410.46 161.627 409.976 160.576 409.733C159.001 409.291 157.361 409.127 155.73 409.248C154.598 409.49 153.225 409.327 152.176 410.057C151.921 410.261 151.72 410.525 151.59 410.825C151.393 411.278 151.369 411.788 151.521 412.258C151.674 412.727 151.992 413.125 152.418 413.376C152.716 413.527 153.044 413.613 153.379 413.627C153.713 413.641 154.047 413.583 154.357 413.457L156.052 413.295C158.8 412.811 161.222 414.832 165.019 414.589C167.039 414.266 168.816 413.214 170.836 412.811H171.804L172.531 413.052C173.249 413.379 173.927 413.786 174.552 414.266C175.036 414.589 175.439 414.994 176.006 414.994C178.104 415.398 179.153 412.324 177.298 411.274V411.107Z" fill="white"/>
<path d="M129.155 411.27C125.6 409.409 123.662 411.189 119.703 412.401L118.735 412.564H117.603L116.23 411.755C115.244 411.23 114.157 410.922 113.043 410.853C111.928 410.783 110.812 410.953 109.768 411.351C104.761 412.807 103.548 413.857 100.802 411.917C99.7938 410.948 98.6508 410.131 97.4084 409.49C94.3402 407.953 90.6244 408.843 87.9654 410.865C86.9162 411.593 85.8669 412.726 86.2686 414.016C86.3828 414.385 86.6001 414.714 86.8949 414.963C87.1897 415.212 87.5495 415.372 87.932 415.423C88.3144 415.474 88.7035 415.414 89.0531 415.251C89.4027 415.087 89.6983 414.827 89.905 414.501C90.2272 413.773 93.4588 412.4 94.589 412.804C95.7192 413.207 96.5286 413.854 99.1127 415.715C101.697 417.576 104.121 417.252 106.625 416.524C111.795 415.148 112.441 413.935 115.268 415.876C118.095 417.816 122.539 415.148 126.093 414.501H126.334L126.901 414.663H127.142L128.515 416.2C128.746 416.412 129.021 416.57 129.321 416.662C129.62 416.754 129.937 416.778 130.247 416.731C130.557 416.685 130.852 416.569 131.112 416.393C131.371 416.218 131.588 415.986 131.747 415.715C132.796 413.854 130.455 412.236 129.163 411.186L129.155 411.27Z" fill="white"/>
<path d="M267.606 409.651C267.062 409.232 266.434 408.936 265.765 408.782C265.096 408.628 264.402 408.621 263.73 408.761C262.623 409.062 261.6 409.616 260.741 410.379H260.58C257.026 405.126 252.336 410.136 250.159 410.379L249.755 410.217H249.594C248.799 409.405 247.903 408.699 246.928 408.116C245.463 407.483 243.809 407.454 242.323 408.035C240.709 408.682 239.012 409.977 238.366 410.136H238.123L237.724 409.983H237.401C236.399 408.926 235.052 408.266 233.604 408.122C232.168 408.121 230.773 408.606 229.645 409.496C228.736 410.112 227.966 410.911 227.383 411.842C227.241 412.262 227.24 412.718 227.382 413.138C227.523 413.559 227.799 413.921 228.166 414.169C228.534 414.418 228.973 414.538 229.415 414.512C229.858 414.486 230.279 414.315 230.615 414.025C231.187 413.348 231.87 412.774 232.634 412.327H232.715L233.282 412.166H233.523L234.493 412.732C235.128 413.391 235.925 413.871 236.803 414.127C237.682 414.382 238.612 414.403 239.501 414.188C240.898 413.585 242.251 412.883 243.548 412.087L243.87 411.925C244.678 411.762 244.759 411.843 245.002 411.925H245.243C245.648 412.168 246.132 412.814 247.425 413.784C248.719 414.753 252.271 414.432 254.371 413.218C256.471 412.004 255.825 412.328 256.714 412.247C257.26 413.037 257.944 413.722 258.733 414.27C259.241 414.53 259.796 414.685 260.365 414.726C260.934 414.768 261.505 414.695 262.045 414.512C262.879 414.116 263.665 413.628 264.388 413.056H264.705C265.512 413.218 266.401 413.704 267.209 413.137C267.472 412.98 267.695 412.766 267.863 412.51C268.031 412.254 268.138 411.963 268.177 411.66C268.216 411.356 268.185 411.047 268.087 410.757C267.989 410.467 267.827 410.204 267.612 409.986L267.606 409.651Z" fill="white"/>
<path d="M219.706 405.526C219.383 404.313 218.091 403.989 217.04 403.989C216.43 403.894 215.807 403.955 215.228 404.167C214.648 404.38 214.133 404.736 213.729 405.203L211.951 407.628L211.789 407.79C210.659 406.9 208.721 405.122 205.893 406.9C204.278 407.951 203.389 409.732 201.935 410.863C201.935 410.945 201.935 410.944 201.854 410.944L201.208 411.269H200.885L200.239 411.107H200.077L199.835 410.944C199.147 410.244 198.322 409.693 197.412 409.327C196.404 408.994 195.319 408.971 194.298 409.259C193.276 409.547 192.364 410.134 191.677 410.944C191.029 411.753 189.98 412.562 189.98 413.694C189.986 414.094 190.11 414.484 190.337 414.814C190.565 415.144 190.885 415.399 191.257 415.546C191.629 415.693 192.036 415.726 192.427 415.641C192.819 415.556 193.176 415.357 193.453 415.068C193.923 414.491 194.436 413.951 194.988 413.452H195.156L195.478 413.209C196.691 413.29 195.721 413.047 198.064 414.665C198.798 415.112 199.63 415.375 200.488 415.432C201.345 415.488 202.204 415.336 202.991 414.989C204.849 414.18 206.138 412.481 207.433 411.026L207.919 410.46H208.322C209.13 411.026 211.311 413.29 213.735 411.591C216.158 409.893 215.997 408.923 216.643 408.114H216.724C218.5 408.518 220.116 407.548 219.712 405.688L219.706 405.526Z" fill="white"/>
<path d="M135.213 186.927C135.269 185.317 135.078 183.708 134.647 182.157C134.243 180.134 133.92 178.031 133.436 176.004C132.063 170.828 129.801 165.166 124.793 162.417C122.026 160.879 119.023 159.814 115.906 159.265C114.452 159.024 112.838 158.7 111.544 159.428C110.251 160.155 108.798 162.825 107.506 164.441C106.214 166.057 101.69 173.258 101.044 174.146C100.398 175.034 99.0239 176.654 98.135 177.785V177.947L99.4286 179.646C99.4286 179.727 99.4286 179.727 99.5095 179.808L99.7508 180.131L100.397 180.859L100.559 181.183L101.044 180.536C100.971 180.912 100.992 181.301 101.106 181.667C101.219 182.034 101.419 182.367 101.69 182.638C102.77 184.33 103.957 185.951 105.244 187.49C105.266 187.611 105.322 187.724 105.406 187.814V187.976C106.698 190.403 107.828 192.747 108.476 194.365C108.753 195.052 108.996 195.753 109.203 196.465L109.687 197.112C110.191 197.861 110.788 198.542 111.463 199.14L112.595 200.109C116.957 197.684 122.126 195.257 124.872 194.045C127.618 192.832 131.739 191.213 134.566 188.869C134.762 188.666 134.901 188.415 134.97 188.141C135.082 187.96 135.148 187.754 135.162 187.541C135.176 187.329 135.138 187.118 135.051 186.924L135.213 186.927Z" fill="#4ADEFF"/>
<path d="M38.1177 224.857C37.6985 223.077 36.9249 221.401 35.8431 219.928C34.7614 218.455 33.3938 217.216 31.8223 216.285C30.7046 215.549 29.4735 215.003 28.1785 214.667C27.8137 214.496 27.418 214.4 27.0154 214.387C26.6127 214.373 26.2115 214.441 25.8357 214.586C25.5144 214.805 25.26 215.108 25.1008 215.463C24.9416 215.818 24.8839 216.21 24.9341 216.595C24.9843 216.981 25.1404 217.345 25.3851 217.647C25.6297 217.949 25.9534 218.177 26.3199 218.306C28.3389 218.63 30.3669 220.167 31.3277 220.895C33.6705 222.996 33.9942 225.019 35.1244 229.548C35.2464 229.968 35.5014 230.337 35.851 230.6C36.2006 230.863 36.626 231.005 37.0632 231.005C37.5004 231.005 37.9258 230.863 38.2754 230.6C38.6251 230.337 38.88 229.968 39.002 229.548C39.2494 227.93 38.4415 226.393 38.1177 224.857Z" fill="#162B43"/>
<path d="M41.0255 235.455C40.2986 233.434 37.1479 234.081 37.1479 236.183C37.1479 238.286 36.5828 241.521 36.3415 244.189C36.3211 244.647 36.4565 245.098 36.7254 245.468C36.9943 245.839 37.3809 246.107 37.8218 246.229C38.2627 246.351 38.732 246.319 39.1528 246.14C39.5735 245.96 39.921 245.643 40.1382 245.24C40.7033 243.46 40.5414 241.438 40.8636 239.497C41.1859 237.555 41.4302 236.663 41.0255 235.455Z" fill="#162B43"/>
<path d="M25.275 226.555C19.3769 227.688 19.3769 235.451 22.8513 239.171C23.6489 240.026 24.649 240.666 25.7592 241.032C26.2143 241.236 26.729 241.265 27.204 241.112C27.679 240.959 28.0806 240.636 28.3315 240.204C28.5823 239.772 28.6646 239.263 28.5624 238.774C28.4602 238.285 28.1809 237.851 27.7782 237.556C26.0814 236.747 26.648 237.151 25.5973 236.18C24.5466 235.209 25.5164 236.1 25.5164 236.019C24.3862 234.078 24.3052 233.269 24.7084 231.571C24.707 231.561 24.707 231.55 24.7084 231.54C24.713 231.53 24.7191 231.521 24.7264 231.513C24.7343 231.506 24.7434 231.5 24.7534 231.496C24.7633 231.494 24.7735 231.494 24.7834 231.496L25.3485 231.01L25.5104 230.85C28.096 229.96 29.2261 231.496 30.1959 233.599C31.5689 238.29 31.5689 239.097 30.115 243.707C29.7118 245.163 27.8531 247.186 30.6801 248.398C33.507 249.611 33.507 245.649 34.3149 243.95C36.6577 237.481 34.1545 225.192 25.269 226.724L25.275 226.555Z" fill="#162B43"/>
<path d="M56.6158 226.393C55.1618 225.019 53.3856 226.636 51.9317 227.202C48.5568 228.814 45.3388 230.736 42.3193 232.944C41.9167 233.239 41.6375 233.673 41.5353 234.162C41.4332 234.651 41.5154 235.16 41.7661 235.592C42.0168 236.024 42.4183 236.348 42.8932 236.501C43.3681 236.654 43.8828 236.626 44.3383 236.422C47.1289 234.415 50.0728 232.63 53.1428 231.084C54.3539 230.357 55.8888 230.113 56.7776 229.063C57.0975 228.682 57.2591 228.193 57.229 227.696C57.1988 227.199 56.9793 226.733 56.6158 226.393Z" fill="white"/>
<path d="M60.736 222.674C58.1504 222.674 58.1504 226.637 60.736 226.726C63.3215 226.814 63.4025 222.674 60.736 222.674Z" fill="white"/>
<path d="M127.053 176.979C126.65 175.928 126.246 174.878 125.761 173.905C124.388 171.155 122.126 169.052 119.783 167.112C118.817 166.119 117.732 165.25 116.553 164.523C116.122 164.105 115.595 163.8 115.018 163.633C114.534 163.529 114.029 163.606 113.598 163.85C113.167 164.094 112.841 164.488 112.681 164.957C112.521 165.427 112.539 165.938 112.732 166.395C112.924 166.852 113.278 167.222 113.725 167.435C115.223 168.438 116.628 169.575 117.922 170.832C120.264 172.933 120.749 173.178 122.118 175.603C122.661 176.727 123.12 177.89 123.491 179.081C123.608 179.488 123.849 179.847 124.181 180.109C124.512 180.37 124.918 180.52 125.34 180.538C125.647 180.556 125.954 180.505 126.239 180.388C126.524 180.273 126.78 180.096 126.99 179.87C127.199 179.645 127.356 179.376 127.45 179.083C127.561 178.357 127.421 177.614 127.053 176.979Z" fill="white"/>
<path d="M125.68 183.692L120.189 185.957C119.462 186.279 118.573 186.442 118.168 187.088C117.889 187.458 117.745 187.912 117.76 188.375C117.776 188.838 117.949 189.281 118.252 189.632C118.554 189.982 118.968 190.218 119.423 190.299C119.879 190.381 120.348 190.304 120.754 190.081L122.692 189.272L126.739 187.573C126.999 187.509 127.242 187.389 127.451 187.222C127.66 187.054 127.83 186.843 127.95 186.604C128.132 186.259 128.211 185.87 128.178 185.481C128.144 185.093 127.999 184.723 127.76 184.415C127.521 184.107 127.198 183.876 126.831 183.747C126.463 183.619 126.066 183.6 125.688 183.692H125.68Z" fill="white"/>
<path d="M291.436 62.3843C290.871 60.6856 290.467 58.9073 289.901 57.2085C289.334 55.5098 287.882 52.2759 287.236 49.7682C286.59 47.2606 285.458 44.9166 284.974 42.415C284.893 41.444 285.136 40.314 284.328 39.5847C283.625 39.0969 282.827 38.7658 281.985 38.6138C280.493 38.24 278.984 37.9429 277.462 37.7239C273.584 37.1581 270.919 36.9961 268.092 36.5114C263.649 35.5404 259.287 34.4104 254.924 33.1949C253.148 32.8722 251.532 31.9013 249.678 31.6582C244.913 32.2255 248.951 38.7759 250.164 41.1214C251.376 43.4669 252.102 44.5984 253.152 46.2972C252.829 46.944 252.506 47.5908 252.103 48.2376C251.7 48.8843 249.679 50.9868 250.406 52.6045C251.133 54.2222 251.619 53.8981 252.346 54.4653C253.48 55.2193 254.534 56.0861 255.494 57.0525C257.286 59.1304 259.354 60.9535 261.639 62.4714C263.901 64.0081 263.982 64.4117 266.487 65.9484C268.991 67.4851 268.102 67.8903 270.283 67.1625C272.016 66.0652 273.824 65.0924 275.694 64.2512C278.19 64.4073 280.673 64.7311 283.126 65.2206C285.224 65.7863 287.173 66.5952 289.271 67.1625C289.627 67.3227 290.012 67.4056 290.402 67.4056C290.792 67.4056 291.178 67.3227 291.533 67.1625C293.783 65.5387 291.436 63.1122 291.436 62.3843Z" fill="#007EEF"/>
<path d="M142.159 40.3046C140.544 40.1425 138.929 40.8703 137.314 41.1119C134.001 41.8397 130.204 42.326 127.539 44.5905C126.166 46.2877 128.347 48.7143 130.204 47.5828C132.061 46.4513 135.214 45.6409 138.687 44.9131L141.594 44.3473C141.951 44.3195 142.297 44.2103 142.605 44.0283C142.913 43.8462 143.175 43.596 143.372 43.2969C143.517 43.0252 143.6 42.7249 143.616 42.4173C143.632 42.1098 143.581 41.8024 143.465 41.5171C143.349 41.2318 143.172 40.9754 142.947 40.7661C142.721 40.5569 142.452 40.3998 142.159 40.3061V40.3046Z" fill="white"/>
<path d="M150.803 40.2188C148.137 40.2983 148.137 44.2615 150.803 44.2615C153.47 44.2615 153.468 40.3043 150.803 40.2188Z" fill="white"/>
<path d="M278.269 61.8973C277.542 59.067 277.38 55.9936 275.926 53.4065C275.702 53.1055 275.398 52.8733 275.049 52.7358C274.699 52.5983 274.319 52.5611 273.949 52.6283C273.58 52.6955 273.237 52.8644 272.958 53.1162C272.68 53.3679 272.477 53.6924 272.373 54.0533C272.264 54.7536 272.406 55.4699 272.776 56.0747L273.503 58.5012C273.907 60.2 273.826 62.1404 274.715 63.677C275.604 65.2137 278.834 64.0012 278.269 61.8973Z" fill="white"/>
<path d="M270.514 48.3919L266.719 45.9668C266.498 45.8125 266.245 45.7104 265.979 45.6683C265.713 45.6262 265.441 45.6452 265.184 45.7237C264.794 45.8249 264.443 46.0404 264.176 46.3426C263.91 46.6448 263.739 47.0199 263.687 47.4198C263.635 47.8196 263.703 48.2259 263.883 48.5866C264.064 48.9473 264.347 49.2458 264.698 49.4439L267.93 51.5448C268.222 51.7767 268.561 51.9406 268.924 52.0247C269.287 52.1088 269.664 52.1109 270.028 52.031C270.397 51.9167 270.725 51.6992 270.974 51.404C271.223 51.1089 271.382 50.7486 271.433 50.3657C271.484 49.9828 271.424 49.5933 271.261 49.2433C271.098 48.8933 270.838 48.5973 270.512 48.3904L270.514 48.3919Z" fill="white"/>
<path d="M121.723 77.0214C121.694 76.9889 121.671 76.9505 121.657 76.9089C121.643 76.8668 121.638 76.8224 121.642 76.7783C121.402 75.965 121.077 75.1794 120.672 74.4343C120.464 74.1523 120.185 73.9294 119.865 73.7875C119.732 73.1124 119.36 72.5086 118.815 72.0887C118.573 69.0169 118.411 65.9435 118.249 62.8701C117.899 58.512 117.792 54.1379 117.926 49.7678C118.274 43.7932 119.304 37.878 120.996 32.138C121.642 29.6319 117.849 28.4989 117.119 31.0875C115.326 37.2235 114.241 43.5451 113.887 49.9284C113.779 54.5958 113.914 59.2657 114.292 63.9191C114.373 66.3457 114.533 68.7722 114.695 71.1988C114.554 71.4255 114.445 71.6704 114.371 71.9267C114.375 71.9702 114.37 72.0142 114.356 72.0557C114.342 72.0972 114.32 72.1355 114.292 72.1683C113.968 73.3013 113.565 74.5138 113.16 75.6468C112.755 76.7798 112.433 77.3441 112.838 78.1529C113.057 78.6605 113.461 79.0655 113.968 79.2859V79.5275C114.13 79.77 114.339 79.9773 114.582 80.1368C114.948 80.3778 115.379 80.5027 115.817 80.4952C116.255 80.4877 116.68 80.3482 117.038 80.0948C117.381 79.7137 117.654 79.2754 117.846 78.7997H118.088C118.218 79.0739 118.407 79.3154 118.642 79.5064C118.878 79.6973 119.153 79.8328 119.448 79.9027C119.742 79.9726 120.049 79.9752 120.345 79.9102C120.641 79.8453 120.918 79.7145 121.157 79.5275C121.548 79.2364 121.815 78.8085 121.905 78.329C121.995 77.8496 121.901 77.3538 121.642 76.9404L121.723 77.0214Z" fill="#4ADEFF"/>
<path d="M288.933 54.8622C288.819 54.4932 288.602 54.1645 288.307 53.9152C288.012 53.6658 287.652 53.5062 287.27 53.4552C286.888 53.4042 286.499 53.464 286.149 53.6274C285.8 53.7909 285.504 54.0512 285.298 54.3775C282.793 59.4722 279.642 64.1633 277.623 69.4202C275.736 74.5396 274.435 79.857 273.746 85.2702C272.991 85.6487 272.391 86.2778 272.049 87.05L271.808 87.4537C270.838 88.7487 270.111 90.446 271 91.579C271.159 91.7913 271.358 91.9702 271.586 92.1055C271.815 92.2407 272.067 92.3296 272.33 92.3671C272.592 92.4045 272.859 92.3899 273.116 92.3239C273.373 92.258 273.615 92.142 273.827 91.9827L274.23 91.579L274.473 91.8206C274.864 92.0445 275.315 92.1415 275.763 92.0982C276.212 92.055 276.636 91.8736 276.977 91.579L277.946 92.5499C278.268 92.7495 278.639 92.8545 279.018 92.8528C279.396 92.8511 279.767 92.7428 280.087 92.5403C280.407 92.3378 280.664 92.0492 280.828 91.7075C280.992 91.3659 281.057 90.9849 281.015 90.6081C280.983 89.6926 280.792 88.7898 280.45 87.9399C280.207 87.2931 279.966 86.4842 279.32 86.1601C279.081 86.0124 278.811 85.9211 278.531 85.893C278.251 85.865 277.968 85.9008 277.704 85.998C277.866 84.7044 278.027 83.7335 278.431 81.6311C279.214 77.1287 280.515 72.7324 282.309 68.5303C284.004 64.9722 286.104 61.6557 287.882 58.0976C288.366 57.0457 289.255 56.0762 288.933 54.8622Z" fill="#4ADEFF"/>
<path d="M174.066 152.07C173.789 151.782 173.432 151.582 173.041 151.497C172.65 151.412 172.242 151.445 171.87 151.593C171.498 151.74 171.178 151.995 170.95 152.325C170.723 152.654 170.599 153.044 170.593 153.445C170.432 172.203 170.593 190.97 169.785 209.732C168.597 225.973 166.575 242.142 163.727 258.175C163.646 259.389 162.919 260.601 163.565 261.733C164.211 262.864 167.443 262.542 167.443 260.277C170.916 240.468 173.588 220.408 174.147 200.189C174.39 188.784 174.471 177.302 174.631 165.824V156.443C174.471 154.982 175.117 153.202 174.066 152.07Z" fill="#162B43"/>
<path d="M175.763 324.895C174.955 322.55 172.774 323.6 171.158 324.086L163.813 326.187L163.167 326.43C162.521 319.718 163.086 305.079 164.378 296.102C164.985 290.467 165.953 284.876 167.276 279.365C167.922 276.857 164.128 275.726 163.4 278.315C161.149 288.096 159.745 298.053 159.203 308.076C158.961 315.279 158.073 322.715 159.849 329.75C160.818 331.449 162.996 330.64 164.534 330.236L169.22 328.86L174.316 327.323C174.827 327.19 175.266 326.861 175.538 326.408C175.81 325.955 175.893 325.413 175.77 324.898L175.763 324.895Z" fill="#162B43"/>
<path d="M289.586 235.129C288.132 235.208 287.082 236.745 285.79 237.473C284.498 238.201 281.831 240.305 280.055 241.921C278.279 243.537 280.782 246.046 282.639 244.913C284.496 243.78 288.536 240.711 291.202 238.363C291.427 238.062 291.564 237.705 291.598 237.331C291.631 236.958 291.56 236.582 291.392 236.246C291.225 235.91 290.967 235.628 290.648 235.431C290.329 235.233 289.961 235.129 289.586 235.129Z" fill="#162B43"/>
<path d="M303.715 133.633C301.048 133.714 301.048 137.677 303.715 137.677C306.381 137.677 306.374 133.711 303.715 133.633Z" fill="white"/>
<path d="M329.807 136.22C328.757 135.977 327.708 136.624 326.659 136.786C321.811 138.16 318.904 137.998 313.493 137.433C312.956 137.433 312.441 137.646 312.062 138.026C311.682 138.406 311.469 138.921 311.469 139.458C311.469 139.996 311.682 140.511 312.062 140.891C312.441 141.271 312.956 141.484 313.493 141.484C317.046 141.807 320.6 142.212 324.073 141.484C325.626 141.219 327.163 140.869 328.678 140.434C329.337 140.354 329.97 140.134 330.536 139.787C330.836 139.556 331.064 139.246 331.196 138.891C331.328 138.536 331.358 138.152 331.282 137.781C331.206 137.41 331.028 137.068 330.768 136.794C330.507 136.519 330.175 136.324 329.81 136.229L329.807 136.22Z" fill="white"/>
<path d="M294.344 185.874C293.456 179.572 292.487 173.258 291.196 167.032C289.906 160.806 288.691 156.113 286.268 151.018C282.876 143.255 278.595 135.896 275.04 128.294C274.426 126.949 273.887 125.572 273.424 124.169C272.94 123.118 272.94 121.824 271.89 121.176C271.545 120.968 271.145 120.868 270.742 120.89C270.339 120.911 269.952 121.053 269.631 121.296C269.309 121.54 269.068 121.874 268.938 122.257C268.808 122.639 268.795 123.051 268.902 123.441C270.84 129.593 273.909 135.248 276.898 140.91C279.887 146.572 281.503 150.214 283.603 154.982C286.592 162.018 288.849 175.523 290.226 184.986C290.388 186.117 290.226 187.573 291.357 188.137C291.702 188.346 292.102 188.445 292.505 188.424C292.907 188.403 293.294 188.261 293.616 188.017C293.938 187.774 294.179 187.439 294.309 187.057C294.439 186.675 294.452 186.262 294.345 185.873L294.344 185.874Z" fill="white"/>
<path d="M295.637 201.484C295.431 201.158 295.135 200.898 294.785 200.735C294.436 200.571 294.047 200.512 293.664 200.563C293.282 200.614 292.922 200.773 292.627 201.022C292.332 201.272 292.115 201.6 292.001 201.969C290.695 205.452 289.13 208.831 287.317 212.078L285.62 214.99C285.361 215.488 285.303 216.067 285.458 216.607C285.543 216.897 285.691 217.165 285.892 217.391C286.094 217.617 286.343 217.795 286.621 217.912C286.9 218.029 287.202 218.081 287.504 218.065C287.806 218.05 288.101 217.966 288.366 217.821C289.415 217.093 289.82 215.72 290.465 214.747C292.145 211.815 293.603 208.76 294.826 205.608C295.233 204.241 296.445 202.859 295.637 201.484Z" fill="white"/>
<path d="M54.4349 187.331C53.9507 185.875 53.4666 184.339 53.0619 182.883C51.2047 176.171 50.2349 171.966 50.4778 165.334C50.4914 163.064 50.626 160.796 50.881 158.541C50.881 157.57 51.2842 156.518 50.881 155.548C50.4778 154.579 47.0033 154.174 47.0033 156.357C46.035 164.929 46.1145 173.663 48.6191 181.912C49.1842 184.096 49.8302 186.2 50.4778 188.215C51.1253 190.23 50.9619 190.236 51.8508 190.721C52.122 190.867 52.4218 190.951 52.7291 190.967C53.1925 190.992 53.6509 190.862 54.0328 190.598C54.4146 190.334 54.6984 189.951 54.8396 189.509C54.9581 188.758 54.8152 187.989 54.4349 187.331Z" fill="white"/>
<path d="M120.43 94.8946C119.879 94.7735 119.304 94.8624 118.815 95.1437L112.03 98.2951L100.317 103.875L95.389 106.217C94.743 106.621 93.9351 106.783 93.5319 107.349C93.1287 107.914 94.3398 111.474 96.1969 110.341L115.832 100.96L120.356 98.8593C120.815 98.7768 121.232 98.5375 121.535 98.1822C121.838 97.8268 122.009 97.3774 122.018 96.9103C122.027 96.4432 121.875 95.9873 121.586 95.62C121.298 95.2528 120.891 94.997 120.436 94.8961L120.43 94.8946Z" fill="white"/>
<path d="M89.5735 112.121C86.9084 112.202 86.9084 116.173 89.5735 116.173C92.2385 116.173 92.2385 112.202 89.5735 112.121Z" fill="white"/>
<path d="M53.3856 359.996C41.5113 360.32 29.6371 360.805 17.7628 360.967H3.38388C2.49503 361.048 1.52525 360.805 0.718838 361.128C-0.0875689 361.45 -0.655651 365.01 1.52525 365.01C13.5614 365.091 25.5975 364.929 37.5527 364.525C42.8843 364.201 49.0238 364.444 54.1905 363.878C54.6207 363.696 54.9743 363.369 55.191 362.955C55.4077 362.54 55.474 362.063 55.3787 361.605C55.2834 361.147 55.0323 360.736 54.6683 360.443C54.3043 360.15 53.8499 359.992 53.3826 359.996H53.3856Z" fill="#162B43"/>
<path d="M331.502 302.01C330.856 301.282 329.806 301.363 328.918 301.363C315.751 301.282 302.584 301.524 289.417 301.442L279.24 301.201C278.19 301.201 276.897 300.877 276.008 301.686C275.119 302.494 275.765 305.244 277.462 305.163C289.417 305.568 301.372 305.487 313.409 305.406H326.251C327.786 305.325 329.399 305.649 330.856 305.244C331.165 305.128 331.44 304.936 331.654 304.684C331.868 304.433 332.014 304.131 332.079 303.807C332.144 303.483 332.125 303.148 332.024 302.833C331.923 302.519 331.743 302.235 331.502 302.01Z" fill="#162B43"/>
<path d="M345.645 308.883L309.222 309.773H300.417C298.479 309.854 296.46 309.53 294.601 309.935C292.743 310.34 293.228 313.817 295.409 313.817C306.96 313.817 318.431 313.493 329.902 313.169C335.072 312.927 341.533 313.169 346.379 312.603C346.848 312.472 347.25 312.169 347.506 311.755C347.762 311.341 347.854 310.846 347.762 310.368C347.671 309.889 347.403 309.463 347.012 309.173C346.621 308.883 346.136 308.75 345.652 308.802L345.645 308.883Z" fill="#162B43"/>
<path d="M80.6067 15.0721C78.9685 14.2758 77.1808 13.835 75.3606 13.7785C74.5547 13.6975 73.7427 13.6975 72.9369 13.7785C73.3416 10.7051 74.0685 7.55225 73.4225 4.47438C72.7765 1.39651 71.1562 -1.02106 68.3292 0.434588C66.8738 1.48505 66.4706 3.26484 65.8246 4.80153C64.8647 7.44172 64.4526 10.2501 64.6135 13.0552V13.2068H62.515C59.85 13.3688 56.458 13.8535 55.4073 16.4422C54.3565 19.0308 56.6993 19.7572 58.477 20.2419C60.2799 20.793 62.1731 20.9857 64.0499 20.8091H64.2927C64.0499 23.3152 64.0499 27.5216 65.3419 29.7051C66.634 31.8885 68.007 32.5353 69.7847 31.5644C71.5624 30.5935 71.7228 29.2999 72.126 27.9253C72.6523 25.8317 72.977 23.6925 73.0957 21.5369C75.4954 21.7921 77.9161 21.315 80.0401 20.1683C81.8163 19.0353 82.7052 16.2051 80.6052 14.9925L80.6067 15.0721ZM78.5083 17.5797H78.4273C77.1193 18.3856 75.5999 18.7803 74.0655 18.7127C72.3688 18.7127 70.4307 17.9038 70.026 20.0873C69.6213 22.2708 69.8641 24.4542 69.0577 27.2905C68.917 27.8313 68.6989 28.3489 68.4102 28.8272C67.5228 27.6146 67.1181 24.6253 67.361 21.3869C67.4074 20.7626 67.4884 20.1413 67.6038 19.5261C67.7099 19.1162 67.6518 18.6811 67.4419 18.3135C67.3039 18.112 67.1242 17.9427 66.9149 17.8171C66.7057 17.6915 66.4718 17.6126 66.2293 17.5857H65.8261L65.261 17.7478L64.4516 17.9038C64.9357 17.8228 64.9357 17.8228 64.4516 17.8228C62.9996 18.0281 61.5226 17.9732 60.0898 17.6607L58.9581 17.3366H58.6359C58.6357 17.3154 58.6397 17.2945 58.6477 17.2749C58.6557 17.2553 58.6675 17.2376 58.6824 17.2226C58.6973 17.2076 58.7151 17.1958 58.7347 17.1878C58.7542 17.1798 58.7751 17.1758 58.7963 17.176L59.201 16.9329C60.2502 16.4482 62.9167 16.124 65.6627 16.2861C66.2562 16.3403 66.8543 16.313 67.4404 16.2051L67.7627 15.7204L68.0055 14.9115V13.7785L67.8436 13.6164C67.4852 10.165 68.1289 6.68325 69.6977 3.58899V3.42692C69.6977 3.50795 69.7787 3.50795 69.7787 3.58899C69.8075 3.62177 69.8294 3.66006 69.8431 3.70154C69.8571 3.74355 69.8622 3.78801 69.8581 3.8321C70.747 6.01556 70.4247 9.16846 69.8581 12.3229C69.8581 13.6975 68.8089 15.7999 70.5866 16.5247C72.3643 17.2495 73.6548 16.4452 75.1897 16.6868C76.332 16.7003 77.4593 16.948 78.5023 17.4146L78.5083 17.5797Z" fill="#162B43"/>
<path d="M343.376 233.67C341.743 232.848 339.955 232.38 338.13 232.295H335.707C336.111 229.222 336.838 226.143 336.192 223.077C335.546 220.011 333.93 217.577 331.095 219.025C329.641 220.075 329.156 221.855 328.51 223.311C327.61 225.991 327.227 228.818 327.38 231.641V231.803H325.281C322.615 231.965 319.223 232.45 318.172 235.038C317.121 237.627 319.465 238.353 321.242 238.838C323.042 239.406 324.945 239.572 326.816 239.324H326.976C326.816 241.912 326.816 246.118 328.108 248.301C329.4 250.485 330.773 251.051 332.551 250.161C334.328 249.271 334.489 247.896 334.894 246.522C335.419 244.428 335.743 242.289 335.862 240.133C338.271 240.359 340.692 239.851 342.809 238.678C344.587 237.627 345.474 234.795 343.374 233.575L343.376 233.67ZM341.277 236.177C341.196 236.177 341.196 236.177 341.196 236.259C341.196 236.34 338.612 237.39 336.835 237.309C335.057 237.228 333.2 236.58 332.797 238.765C332.393 240.95 332.635 243.132 331.827 245.968C331.422 247.018 331.584 246.858 331.181 247.423C330.292 246.211 329.889 243.298 330.132 240.07C330.178 239.419 330.259 238.771 330.374 238.128C330.432 237.926 330.447 237.714 330.419 237.505C330.391 237.297 330.321 237.096 330.212 236.916C330.075 236.714 329.895 236.545 329.686 236.419C329.477 236.294 329.244 236.215 329.001 236.188H328.597L328.032 236.35L327.224 236.512C327.708 236.431 327.708 236.512 327.224 236.512C325.77 236.676 324.3 236.621 322.862 236.35C322.466 236.275 322.084 236.138 321.73 235.945H321.57C321.57 235.864 321.489 235.864 321.408 235.784H321.57L321.973 235.46C324.08 234.909 326.26 234.691 328.435 234.813C329.028 234.868 329.626 234.84 330.212 234.732L330.536 234.329L330.778 233.52V232.469C330.697 232.388 330.697 232.307 330.617 232.307C330.25 228.855 330.896 225.371 332.474 222.28C332.474 222.199 332.474 222.199 332.555 222.118H332.636C332.691 222.217 332.718 222.329 332.717 222.442C333.604 224.543 333.282 227.778 332.717 230.933C332.717 232.307 331.668 234.41 333.444 235.135C335.22 235.859 336.514 235.055 338.047 235.216C339.195 235.254 340.323 235.529 341.36 236.024C341.357 236.096 341.276 236.096 341.276 236.177H341.277Z" fill="#4ADEFF"/>
<path d="M370.194 280.982C368.523 280.194 366.709 279.754 364.863 279.688H362.44C362.844 276.537 363.651 273.461 362.924 270.384C362.198 267.308 360.663 264.884 357.917 266.333C356.463 267.383 355.977 269.164 355.331 270.62C354.411 273.296 354 276.121 354.12 278.949V279.124H352.022C349.355 279.286 346.044 279.771 344.912 282.36C343.781 284.948 346.206 285.675 347.982 286.161C349.785 286.712 351.679 286.904 353.556 286.727H353.798C353.556 289.315 353.556 293.52 354.847 295.704C356.137 297.887 357.512 298.534 359.29 297.563C361.067 296.592 361.228 295.3 361.632 293.924C362.197 291.838 362.523 289.695 362.602 287.535C365.013 287.798 367.445 287.288 369.548 286.08C371.407 285.025 372.294 282.195 370.194 280.982ZM368.013 283.488C368.013 283.569 368.013 283.569 367.932 283.569C367.851 283.569 365.348 284.783 363.571 284.62C361.793 284.456 359.936 283.892 359.613 286.075C359.291 288.259 359.371 290.442 358.564 293.279C358.425 293.82 358.208 294.337 357.918 294.815C357.029 293.603 356.626 290.613 356.948 287.375C356.962 286.752 357.016 286.131 357.11 285.516C357.186 285.316 357.21 285.1 357.182 284.888C357.154 284.676 357.074 284.475 356.948 284.302C356.81 284.101 356.631 283.932 356.422 283.806C356.213 283.68 355.979 283.601 355.737 283.574H355.333C355.172 283.655 355.01 283.655 354.848 283.817H353.96C352.508 284.022 351.031 283.967 349.598 283.655L348.468 283.332H348.144L348.306 283.17L348.79 282.927C349.76 282.442 352.425 282.118 355.252 282.28C355.822 282.307 356.393 282.252 356.948 282.118L357.272 281.714C357.427 281.473 357.51 281.192 357.513 280.906V279.855L357.353 279.694C357.035 276.244 357.678 272.773 359.21 269.666C359.257 269.624 359.286 269.566 359.291 269.503C359.338 269.545 359.366 269.603 359.372 269.666L359.534 269.909C360.342 272.01 360.018 275.245 359.534 278.399C359.453 279.774 358.402 281.878 360.18 282.601C361.958 283.325 363.25 282.52 364.785 282.762C365.926 282.775 367.053 283.023 368.096 283.49C368.091 283.552 368.062 283.61 368.015 283.652L368.013 283.488Z" fill="#162B43"/>
</g>
<defs>
<clipPath id="clip0_222_5034">
<rect width="372" height="420" fill="white"/>
</clipPath>
</defs>
</svg>
