<svg width="112" height="112" viewBox="0 0 112 112" fill="none" xmlns="http://www.w3.org/2000/svg">
<g clip-path="url(#clip0_222_4202)">
<path d="M35.9443 105.115C35.9231 105.116 35.9018 105.116 35.8806 105.115C33.8038 104.926 31.7552 104.504 29.774 103.855C29.5941 103.791 29.4463 103.66 29.362 103.489C29.2778 103.318 29.2638 103.121 29.323 102.94C29.3822 102.759 29.51 102.608 29.679 102.52C29.8481 102.431 30.0451 102.412 30.2281 102.467C32.104 103.081 34.0437 103.482 36.01 103.661C36.2036 103.669 36.3858 103.754 36.5167 103.896C36.6475 104.039 36.7163 104.227 36.7078 104.42C36.6994 104.614 36.6144 104.795 36.4716 104.926C36.3287 105.056 36.1398 105.125 35.9463 105.117L35.9443 105.115ZM41.9961 104.809C41.8146 104.81 41.6393 104.743 41.5044 104.622C41.3695 104.501 41.2847 104.334 41.2664 104.154C41.2482 103.974 41.2978 103.793 41.4058 103.648C41.5137 103.502 41.6721 103.402 41.85 103.367C43.1608 103.106 44.4326 102.678 45.6343 102.094C46.2013 101.814 46.7581 101.527 47.2926 101.245C47.4598 101.172 47.6483 101.164 47.8209 101.223C47.9936 101.282 48.1379 101.403 48.2253 101.563C48.3128 101.722 48.3372 101.909 48.2936 102.086C48.25 102.262 48.1416 102.417 47.9898 102.517C47.4425 102.814 46.8691 103.11 46.2868 103.396C44.974 104.038 43.5838 104.508 42.1505 104.796C42.1017 104.806 42.0522 104.81 42.0025 104.811L41.9961 104.809ZM24.4487 101.436C24.3206 101.438 24.1946 101.405 24.0839 101.34C22.2753 100.317 20.5766 99.1108 19.0144 97.7417C18.8719 97.6132 18.7859 97.4338 18.7751 97.2424C18.7643 97.0511 18.8295 96.8632 18.9566 96.7194C19.0838 96.5757 19.2625 96.4878 19.4542 96.4746C19.6459 96.4615 19.8351 96.5243 19.9807 96.6493C21.4669 97.9525 23.0833 99.1 24.8046 100.074C24.9454 100.153 25.0558 100.277 25.1184 100.425C25.1811 100.574 25.1924 100.739 25.1506 100.895C25.1089 101.051 25.0164 101.189 24.8877 101.286C24.7591 101.384 24.6015 101.437 24.4398 101.435L24.4487 101.436ZM52.7518 99.3368C52.599 99.3373 52.4498 99.29 52.3254 99.2014C52.2009 99.1129 52.1075 98.9877 52.0582 98.8433C52.0089 98.699 52.0062 98.5429 52.0505 98.397C52.0949 98.251 52.184 98.1227 52.3054 98.03C53.8784 96.8455 55.3073 95.4817 56.5629 93.9662C56.6231 93.891 56.6976 93.8284 56.7821 93.7819C56.8666 93.7354 56.9594 93.7059 57.0553 93.6952C57.1513 93.6851 57.2483 93.6938 57.341 93.7206C57.457 93.7548 57.5627 93.8172 57.6485 93.9022C57.7343 93.9872 57.7977 94.0921 57.8328 94.2075C57.868 94.3229 57.8739 94.4452 57.8499 94.5635C57.826 94.6817 57.773 94.7922 57.6957 94.885C56.3688 96.4898 54.8584 97.9344 53.1951 99.1892C53.068 99.2866 52.9121 99.3393 52.7518 99.3394V99.3368ZM15.4208 93.4394C15.3049 93.4397 15.1906 93.4124 15.0873 93.3599C14.9844 93.3068 14.8954 93.2303 14.8277 93.1366C13.6048 91.4424 12.6044 89.599 11.8509 87.6514C11.8153 87.5619 11.7979 87.4661 11.7996 87.3698C11.8014 87.2735 11.8223 87.1784 11.8611 87.0902C11.8999 87.002 11.9559 86.9223 12.0258 86.8558C12.0957 86.7893 12.1781 86.7373 12.2683 86.7028C12.3585 86.6683 12.4546 86.6519 12.5512 86.6548C12.6477 86.6576 12.7428 86.6795 12.8308 86.7192C12.9188 86.7589 12.998 86.8156 13.0639 86.8861C13.1298 86.9566 13.181 87.0394 13.2146 87.1297C13.9227 88.9597 14.8628 90.6917 16.0121 92.2833C16.0902 92.3921 16.1367 92.5203 16.1466 92.6537C16.1564 92.7872 16.1292 92.9207 16.0679 93.0397C16.0066 93.1587 15.9136 93.2586 15.7991 93.3283C15.6846 93.398 15.5531 93.4349 15.4189 93.435L15.4208 93.4394ZM21.4854 90.1175C20.5644 90.112 19.6479 89.9895 18.758 89.753C17.966 89.5258 17.2132 89.1798 16.5256 88.7267C16.4444 88.6756 16.3742 88.609 16.3189 88.5307C16.2635 88.4527 16.2242 88.3645 16.2035 88.2711C16.1717 88.1306 16.1825 87.9839 16.2343 87.8495C16.2861 87.715 16.3768 87.599 16.4947 87.5159C16.6127 87.4328 16.7527 87.3865 16.897 87.3828C17.0413 87.379 17.1835 87.4181 17.3056 87.4949C17.867 87.8686 18.4821 88.155 19.1298 88.3443C20.2758 88.6527 21.4717 88.7307 22.6481 88.574C22.791 88.5538 22.9367 88.5762 23.0668 88.6384C23.197 88.7005 23.3058 88.7996 23.3797 88.9233C23.4287 89.0055 23.461 89.0965 23.4747 89.1912C23.4884 89.2858 23.4833 89.3822 23.4596 89.4749C23.4359 89.5676 23.3941 89.6547 23.3366 89.7312C23.2791 89.8077 23.2071 89.8722 23.1246 89.9209C23.0423 89.9699 22.951 90.0019 22.8561 90.0151C22.4023 90.0829 21.9442 90.118 21.4854 90.1201V90.1175ZM60.2247 89.9629C60.105 89.963 59.9872 89.9337 59.8815 89.8777C59.7759 89.8217 59.6856 89.7406 59.6187 89.6416C59.5524 89.5424 59.5111 89.4287 59.4982 89.3101C59.486 89.1913 59.5033 89.0714 59.5486 88.9608C60.2754 87.1396 60.7571 85.2304 60.9811 83.2829C60.9933 83.188 61.0239 83.0964 61.0711 83.0132C61.1304 82.9089 61.2145 82.8208 61.3161 82.7567C61.4177 82.6926 61.5336 82.6546 61.6535 82.6459C61.7733 82.6372 61.8935 82.6582 62.0033 82.7069C62.1131 82.7557 62.2092 82.8307 62.283 82.9253C62.4016 83.078 62.4551 83.2712 62.4316 83.463C62.1912 85.5364 61.6765 87.5689 60.9008 89.5074C60.8464 89.6417 60.7529 89.7567 60.6324 89.8375C60.5119 89.9184 60.3699 89.9614 60.2247 89.961V89.9629ZM27.9313 87.1361C27.7925 87.1358 27.6566 87.0962 27.5396 87.0217C27.4226 86.9473 27.3293 86.8411 27.2706 86.7157C27.2119 86.5902 27.1903 86.4507 27.2082 86.3134C27.2262 86.1761 27.2829 86.0468 27.3719 85.9405C28.4932 84.6044 29.2427 82.8229 29.5405 80.7869C29.5698 80.5971 29.6731 80.4266 29.8279 80.3125C29.9827 80.1983 30.1765 80.1498 30.3669 80.1775C30.5574 80.2052 30.7292 80.3069 30.8449 80.4603C30.9606 80.6138 31.0108 80.8066 30.9846 80.9969C30.6503 83.3027 29.7874 85.3329 28.4919 86.8777C28.4234 86.9593 28.3378 87.0249 28.2412 87.0699C28.1446 87.115 28.0392 87.1384 27.9326 87.1386L27.9313 87.1361ZM12.3682 84.8303C12.2663 84.8296 12.1656 84.8077 12.0727 84.7659C11.9798 84.7242 11.8966 84.6635 11.8286 84.5879C10.448 83.0628 9.16638 81.4515 7.99139 79.7638C7.93644 79.6855 7.89763 79.597 7.87722 79.5036C7.85682 79.4103 7.85487 79.3139 7.87148 79.2198C7.89656 79.078 7.96331 78.9469 8.06324 78.843C8.16317 78.7391 8.29179 78.6672 8.43277 78.6364C8.52646 78.6154 8.62342 78.6135 8.71788 78.6306C8.81224 78.6473 8.9024 78.6823 8.98317 78.7337C9.06395 78.7851 9.13375 78.8519 9.1886 78.9303C9.51304 79.3922 9.83982 79.8442 10.1689 80.2862C10.1115 79.6499 10.0828 79.0321 10.0828 78.441C10.0759 77.4004 10.1766 76.3619 10.3833 75.3419C10.4006 75.2464 10.4368 75.1553 10.4898 75.074C10.5434 74.993 10.6123 74.9232 10.6926 74.8685C10.8139 74.7864 10.9571 74.7425 11.1037 74.7425C11.2503 74.7425 11.3935 74.7864 11.5148 74.8685C11.6352 74.9515 11.728 75.0686 11.7811 75.2047C11.8342 75.3408 11.8452 75.4896 11.8126 75.632C11.6266 76.5535 11.536 77.4916 11.5422 78.4315C11.5473 79.4291 11.6238 80.425 11.7712 81.4117C11.7879 81.5261 11.7768 81.6429 11.7386 81.7521C11.701 81.8613 11.6381 81.96 11.555 82.0403C12.0031 82.5858 12.4543 83.1071 12.9084 83.6042C13.0023 83.7086 13.0638 83.8379 13.0857 83.9764C13.1075 84.1149 13.0887 84.2568 13.0315 84.3849C12.9746 84.5132 12.8816 84.6222 12.7639 84.699C12.6462 84.7758 12.5088 84.8169 12.3682 84.8176V84.8303ZM61.9379 78.0351C61.7477 78.0349 61.5652 77.9607 61.4289 77.8284C61.2927 77.696 61.2135 77.5159 61.2082 77.3263C61.1597 75.534 61.0328 73.6787 60.9103 71.8826L60.8702 71.2978C60.8628 71.108 60.9299 70.9227 61.0573 70.7814C61.1847 70.6401 61.3623 70.554 61.5524 70.5413C61.7425 70.5286 61.93 70.5904 62.0751 70.7135C62.2203 70.8366 62.3115 71.0113 62.3295 71.2005L62.3684 71.7846C62.4903 73.5934 62.6191 75.4647 62.6695 77.2875C62.6745 77.4804 62.6026 77.6674 62.4697 77.8075C62.3367 77.9476 62.1535 78.0295 61.9602 78.0351H61.9379ZM29.8505 75.6326C29.7075 75.6327 29.5677 75.5908 29.4484 75.5122C29.3291 75.4335 29.2356 75.3217 29.1795 75.1904C28.5347 73.6882 27.1697 72.2879 25.3366 71.2457C25.1682 71.1502 25.0447 70.992 24.9932 70.8057C24.9418 70.6195 24.9666 70.4205 25.0623 70.2525C25.158 70.0845 25.3166 69.9613 25.5033 69.91C25.6901 69.8587 25.8896 69.8835 26.058 69.9789C28.1628 71.1763 29.751 72.8229 30.5196 74.6153C30.5576 74.7031 30.5777 74.7976 30.5789 74.8932C30.5801 74.9889 30.5623 75.0838 30.5266 75.1726C30.4915 75.2615 30.4388 75.3424 30.3716 75.4106C30.3048 75.4792 30.225 75.5339 30.1369 75.5715C30.0463 75.6104 29.9491 75.6311 29.8505 75.6326ZM5.38649 74.913C5.25485 74.9132 5.12563 74.8778 5.01254 74.8105C4.89946 74.7433 4.80673 74.6468 4.74419 74.5313C3.75293 72.7273 2.8761 70.863 2.11888 68.9494C2.08428 68.8602 2.06738 68.7651 2.06912 68.6695C2.07379 68.4771 2.15422 68.2942 2.293 68.1605C2.36247 68.0945 2.44414 68.0426 2.53347 68.0078C2.6226 67.973 2.71777 67.9561 2.81347 67.9582C2.90967 67.9609 3.00437 67.9826 3.09221 68.0218C3.17979 68.0606 3.25906 68.1159 3.32565 68.1847C3.39211 68.2536 3.44434 68.3349 3.47937 68.4239C4.213 70.2784 5.06366 72.0848 6.02623 73.832C6.088 73.9428 6.11969 74.0678 6.11815 74.1946C6.11662 74.3214 6.08191 74.4456 6.01746 74.5548C5.95302 74.6641 5.86108 74.7547 5.75074 74.8177C5.6404 74.8806 5.5155 74.9137 5.3884 74.9137L5.38649 74.913ZM14.1548 71.1413C14.0008 71.1415 13.8508 71.0931 13.7261 71.003C13.6015 70.913 13.5085 70.7859 13.4606 70.64C13.4127 70.4941 13.4123 70.3368 13.4594 70.1906C13.5065 70.0445 13.5988 69.9169 13.7229 69.8262C15.2263 68.7267 17.1545 68.1452 19.297 68.1452C19.5145 68.1452 19.7371 68.1452 19.9571 68.1637C20.1507 68.1743 20.3322 68.2612 20.4615 68.4053C20.5909 68.5494 20.6576 68.7388 20.6469 68.9319C20.6363 69.1251 20.5491 69.3061 20.4047 69.4351C20.2603 69.5642 20.0703 69.6307 19.8767 69.62C19.6854 69.6086 19.4877 69.6041 19.297 69.6041C17.4721 69.6041 15.8386 70.0896 14.5866 71.0039C14.4616 71.096 14.3101 71.1453 14.1548 71.1445V71.1413ZM61.3147 65.9241C61.1212 65.9241 60.9356 65.8474 60.7988 65.7109C60.6619 65.5744 60.5851 65.3892 60.5851 65.1962V64.8316C60.5836 62.8913 60.7294 60.9537 61.0213 59.0354C61.0367 58.9411 61.0705 58.8507 61.1208 58.7694C61.1705 58.6882 61.2355 58.6173 61.3122 58.5607C61.39 58.5046 61.4781 58.4643 61.5715 58.4421C61.6649 58.42 61.7618 58.4165 61.8566 58.4317C61.9514 58.4469 62.0422 58.4807 62.1239 58.531C62.2056 58.5813 62.2766 58.6472 62.3327 58.7249C62.3887 58.8024 62.429 58.8902 62.4513 58.9832C62.4735 59.0762 62.477 59.1726 62.4616 59.267C62.1805 61.112 62.0398 62.9756 62.0406 64.8418V65.1936C62.0414 65.2892 62.0234 65.384 61.9875 65.4727C61.9516 65.5613 61.8985 65.642 61.8314 65.7102C61.7642 65.7784 61.6842 65.8327 61.596 65.87C61.5078 65.9074 61.4131 65.927 61.3173 65.9279L61.3147 65.9241ZM1.08431 63.6062C0.914025 63.6055 0.749311 63.5456 0.618558 63.4368C0.487805 63.3279 0.399205 63.177 0.368029 63.01C0.14288 61.8373 0.0197453 60.6473 0 59.4534L0 59.2899C0.00398403 58.4389 0.0600046 57.589 0.16775 56.7449C0.178707 56.6494 0.2084 56.5571 0.255133 56.4732C0.3262 56.3471 0.43336 56.2451 0.562896 56.1801C0.692431 56.1152 0.83845 56.0903 0.98226 56.1086C1.07741 56.1202 1.16931 56.1505 1.2527 56.1977C1.33598 56.2451 1.40904 56.3085 1.46771 56.3841C1.52638 56.4598 1.56949 56.5463 1.59458 56.6386C1.62001 56.7309 1.62716 56.8273 1.61563 56.9224C1.5149 57.7063 1.4625 58.4957 1.45872 59.286V59.4356C1.47724 60.5446 1.59141 61.6501 1.79996 62.7396C1.81757 62.8337 1.81641 62.9303 1.79653 63.024C1.77666 63.1176 1.73846 63.2064 1.68414 63.2853C1.62981 63.3642 1.56041 63.4317 1.47992 63.4838C1.39943 63.5359 1.30943 63.5717 1.21507 63.589C1.17204 63.5984 1.1283 63.6041 1.08431 63.6062ZM63.1804 53.9988C63.101 53.9982 63.0221 53.9848 62.9469 53.9593C62.8561 53.929 62.7721 53.881 62.6998 53.8182C62.6275 53.7554 62.5684 53.679 62.5258 53.5933C62.4832 53.5077 62.458 53.4145 62.4515 53.3191C62.4451 53.2237 62.4576 53.128 62.4883 53.0374C63.1514 51.083 63.9773 49.1873 64.9574 47.3703C65.0011 47.2833 65.0618 47.2058 65.136 47.1425C65.2105 47.0788 65.2973 47.0309 65.3911 47.0019C65.5074 46.9656 65.631 46.9589 65.7506 46.9824C65.8702 47.006 65.982 47.059 66.0758 47.1367C66.1696 47.2144 66.2424 47.3142 66.2876 47.4272C66.3327 47.5401 66.3489 47.6625 66.3345 47.7832C66.3223 47.88 66.2911 47.9734 66.2426 48.0581C65.3011 49.8032 64.5068 51.6234 63.868 53.5C63.8195 53.6445 63.7267 53.7702 63.6028 53.8594C63.4789 53.9485 63.33 53.9966 63.1772 53.9969L63.1804 53.9988ZM2.27132 51.6593C2.19307 51.6601 2.11525 51.6478 2.04106 51.623C1.9498 51.593 1.86539 51.5452 1.79268 51.4825C1.71997 51.4198 1.66038 51.3434 1.61736 51.2577C1.57433 51.172 1.5487 51.0786 1.54195 50.983C1.53519 50.8874 1.54744 50.7914 1.57799 50.7005C2.23045 48.7424 3.02979 46.8361 3.96922 44.9977C4.0128 44.9118 4.07299 44.8353 4.14634 44.7727C4.21969 44.71 4.30474 44.6625 4.39659 44.6328C4.48843 44.6031 4.58527 44.5919 4.6815 44.5997C4.77773 44.6075 4.87145 44.6343 4.95727 44.6784C5.04309 44.7225 5.11931 44.7832 5.18152 44.8568C5.24374 44.9305 5.29073 45.0157 5.31978 45.1075C5.34883 45.1994 5.35936 45.296 5.35078 45.392C5.34219 45.4879 5.31466 45.5812 5.26976 45.6664C4.36223 47.4374 3.58955 49.2739 2.95826 51.1605C2.90988 51.3043 2.81766 51.4294 2.6945 51.5184C2.57134 51.6074 2.42338 51.6557 2.27132 51.6567V51.6593ZM99.17 47.8418C96.9376 47.8418 94.9776 47.3665 93.3441 46.4261C93.1764 46.3296 93.0541 46.1706 93.004 45.9841C92.9539 45.7976 92.9801 45.5989 93.0768 45.4317C93.1736 45.2644 93.333 45.1424 93.5199 45.0924C93.7069 45.0424 93.9061 45.0685 94.0738 45.1651C95.5714 46.0266 97.4096 46.4376 99.5483 46.3784C99.7401 46.3762 99.9251 46.4495 100.063 46.5823C100.201 46.7151 100.282 46.8968 100.287 47.0881C100.292 47.2794 100.221 47.465 100.09 47.6047C99.9586 47.7444 99.7776 47.8271 99.5859 47.8348C99.4436 47.8418 99.3103 47.8431 99.17 47.8431V47.8418ZM105.506 46.6793C105.336 46.6792 105.171 46.6197 105.041 46.5113C104.91 46.4029 104.821 46.2523 104.79 46.0855C104.758 45.9187 104.787 45.7463 104.869 45.598C104.952 45.4497 105.084 45.3348 105.242 45.2732C107.233 44.5027 108.708 43.3778 109.622 41.9297C109.698 41.8061 109.809 41.7081 109.941 41.6482C110.074 41.5884 110.221 41.5694 110.365 41.5938C110.484 41.6138 110.596 41.663 110.692 41.7371C110.787 41.8111 110.862 41.9076 110.911 42.018C110.96 42.1283 110.98 42.249 110.971 42.3692C110.961 42.4894 110.922 42.6053 110.856 42.7066C109.772 44.4245 108.058 45.7402 105.768 46.6297C105.684 46.6624 105.596 46.6797 105.506 46.6806V46.6793ZM68.8698 43.339C68.7345 43.3387 68.6019 43.3009 68.4868 43.2298C68.3717 43.1587 68.2788 43.0571 68.2182 42.9363C68.1577 42.8156 68.132 42.6804 68.144 42.5459C68.156 42.4114 68.2052 42.2829 68.2862 42.1747C69.5217 40.5335 70.8587 38.9708 72.2893 37.4957C72.3558 37.4268 72.4352 37.3717 72.5231 37.3335C72.6109 37.2953 72.7055 37.2747 72.8013 37.2729C72.8971 37.2712 72.9924 37.2882 73.0816 37.3232C73.1708 37.3581 73.2523 37.4103 73.3213 37.4766C73.3903 37.5429 73.4455 37.6222 73.4838 37.7098C73.5222 37.7975 73.5428 37.8918 73.5446 37.9874C73.5463 38.083 73.5292 38.178 73.4942 38.267C73.4592 38.356 73.4069 38.4372 73.3404 38.5061C71.9523 39.938 70.6548 41.4545 69.4554 43.047C69.3874 43.1379 69.299 43.2117 69.1974 43.2625C69.0957 43.3133 68.9836 43.3398 68.8698 43.3397V43.339ZM89.9821 41.9068C89.8283 41.9069 89.6785 41.8586 89.554 41.7686C89.4295 41.6787 89.3366 41.5518 89.2887 41.4061C88.924 40.2716 88.7421 39.0866 88.7498 37.8953C88.7536 36.935 88.8551 35.9776 89.0527 35.0378C89.079 34.8944 89.1478 34.762 89.2501 34.6578C89.3523 34.5536 89.4836 34.4824 89.6268 34.4531C89.7223 34.4343 89.8206 34.4347 89.9159 34.4544C90.0112 34.4741 90.1016 34.5126 90.1817 34.5677C90.2618 34.6226 90.3302 34.693 90.3827 34.7746C90.4353 34.8562 90.471 34.9474 90.4879 35.0429C90.5043 35.1386 90.5015 35.2366 90.4796 35.3312C90.3017 36.1744 90.2104 37.0335 90.2072 37.8953C90.2012 38.9318 90.3605 39.9627 90.6792 40.9493C90.7091 41.0401 90.7208 41.136 90.7135 41.2313C90.7063 41.3267 90.6802 41.4197 90.6369 41.505C90.5936 41.5903 90.5339 41.6663 90.4612 41.7286C90.3884 41.7909 90.3041 41.8383 90.213 41.868C90.1396 41.8927 90.0627 41.9058 89.9853 41.9068H89.9821ZM7.78154 40.8818C7.6463 40.8823 7.51358 40.8453 7.39816 40.7749C7.28274 40.7046 7.18913 40.6037 7.12777 40.4835C7.06641 40.3629 7.03988 40.2276 7.05114 40.0928C7.0624 39.9579 7.11101 39.8289 7.19155 39.72C8.4003 38.0378 9.7628 36.471 11.2616 35.0398C11.3308 34.9716 11.4127 34.9175 11.5027 34.8807C11.6388 34.8253 11.7886 34.8122 11.9324 34.8432C12.0761 34.8742 12.2071 34.9478 12.3082 35.0543C12.4093 35.1609 12.4758 35.2954 12.4989 35.4403C12.522 35.5852 12.5007 35.7337 12.4377 35.8662C12.3968 35.9544 12.3384 36.0334 12.2661 36.0985C10.8335 37.468 9.53104 38.9668 8.37536 40.5758C8.30822 40.6698 8.21967 40.7465 8.11699 40.7997C8.01431 40.853 7.90044 40.8811 7.78473 40.8818H7.78154ZM111.274 37.2119C111.101 37.212 110.934 37.1512 110.803 37.0401C110.671 36.9291 110.583 36.7751 110.555 36.6056C110.256 34.8584 109.46 33.0623 108.243 31.4118C108.136 31.2558 108.094 31.0642 108.126 30.8776C108.157 30.691 108.261 30.5242 108.414 30.4125C108.567 30.3008 108.758 30.253 108.946 30.2792C109.134 30.3054 109.304 30.4036 109.421 30.5529C110.765 32.384 111.653 34.392 111.99 36.3606C112.008 36.465 112.002 36.5721 111.974 36.6743C111.932 36.8278 111.841 36.9632 111.714 37.06C111.587 37.1567 111.432 37.2094 111.273 37.21L111.274 37.2119ZM77.2599 34.595C77.1102 34.5953 76.9641 34.5496 76.8414 34.4642C76.7186 34.3788 76.6251 34.2579 76.5736 34.1177C76.5221 33.9776 76.515 33.825 76.5534 33.6807C76.5917 33.5364 76.6736 33.4074 76.7879 33.3111C78.2925 32.0443 79.9267 30.7832 81.6456 29.5648C81.8034 29.453 81.9993 29.4083 82.1902 29.4406C82.381 29.4729 82.5512 29.5795 82.6633 29.7369C82.7753 29.8943 82.8201 30.0897 82.7878 30.2801C82.7554 30.4705 82.6486 30.6403 82.4907 30.7521C80.8049 31.9469 79.2065 33.1787 77.7293 34.4239C77.5976 34.5335 77.4315 34.5936 77.2599 34.5937V34.595ZM16.6219 32.6863C16.46 32.6869 16.3025 32.6338 16.1742 32.5353C16.0459 32.4368 15.954 32.2986 15.9131 32.1423C15.8722 31.9861 15.8845 31.8207 15.9482 31.6722C16.0118 31.5237 16.1232 31.4006 16.2647 31.3221C18.0964 30.2826 20.0844 29.545 22.1519 29.1379C22.2951 29.1067 22.4444 29.1194 22.5802 29.1742C22.7161 29.229 22.8322 29.3235 22.9135 29.4452C22.9675 29.5258 23.0049 29.6163 23.0233 29.7115C23.0417 29.8067 23.0409 29.9047 23.0208 29.9995C23.0007 30.0944 22.9618 30.1843 22.9063 30.2639C22.8509 30.3436 22.78 30.4113 22.6979 30.4632C22.6157 30.5152 22.524 30.5504 22.4281 30.5669C20.5143 30.9467 18.6744 31.6316 16.9791 32.5953C16.8697 32.6553 16.7467 32.6862 16.6219 32.685V32.6863ZM34.0391 32.26C33.9326 32.2602 33.8274 32.2368 33.7311 32.1913C31.9852 31.3634 30.1311 30.7851 28.2234 30.4734C28.1285 30.4587 28.0375 30.4256 27.9555 30.3758C27.8735 30.326 27.8021 30.2606 27.7454 30.1834C27.6887 30.1061 27.6479 30.0184 27.6251 29.9254C27.6024 29.8324 27.5983 29.7358 27.613 29.6412C27.6277 29.5465 27.6609 29.4557 27.7108 29.3739C27.7607 29.2921 27.8263 29.2209 27.9037 29.1643C27.9812 29.1078 28.0691 29.067 28.1623 29.0444C28.2556 29.0217 28.3524 29.0176 28.4473 29.0323C30.4903 29.3642 32.4764 29.9811 34.3472 30.8647C34.4977 30.9349 34.6197 31.0543 34.693 31.2031C34.7663 31.3518 34.7866 31.521 34.7504 31.6828C34.7143 31.8446 34.624 31.9893 34.4943 32.0929C34.3646 32.1966 34.2034 32.253 34.0372 32.253L34.0391 32.26ZM92.0314 30.3188C91.9017 30.3191 91.7743 30.285 91.6622 30.2199C91.5501 30.1548 91.4574 30.0611 91.3936 29.9485C91.3303 29.836 91.2978 29.709 91.2992 29.5801C91.3011 29.451 91.3375 29.3247 91.4044 29.2142C92.4918 27.4338 93.7952 25.7939 95.285 24.3316C95.4223 24.1955 95.6081 24.1194 95.8017 24.12C95.9952 24.1206 96.1806 24.1979 96.317 24.3348C96.4534 24.4717 96.5297 24.6571 96.5291 24.8502C96.5285 25.0433 96.4511 25.2282 96.3138 25.3643C94.9092 26.742 93.6806 28.2874 92.6559 29.9656C92.5905 30.0722 92.4983 30.1599 92.3886 30.2201C92.2789 30.2812 92.1552 30.313 92.0295 30.3124L92.0314 30.3188ZM104.424 27.5873C104.283 27.5855 104.147 27.5433 104.03 27.4658C102.4 26.4116 100.583 25.6774 98.677 25.3026C98.5829 25.2845 98.4933 25.2479 98.4136 25.195C98.2725 25.1021 98.1681 24.9632 98.1183 24.802C98.0685 24.6408 98.0763 24.4674 98.1405 24.3114C98.2047 24.1553 98.3212 24.0264 98.4701 23.9465C98.619 23.8666 98.7911 23.8408 98.957 23.8735C101.043 24.2837 103.031 25.0872 104.814 26.241C104.947 26.3261 105.049 26.4518 105.104 26.5993C105.159 26.7468 105.165 26.9082 105.12 27.0592C105.076 27.2104 104.983 27.343 104.857 27.4372C104.73 27.5314 104.577 27.5821 104.419 27.5816L104.424 27.5873ZM87.1501 27.5555C86.9888 27.5568 86.8317 27.5045 86.7036 27.4066C86.6077 27.3345 86.5311 27.2398 86.4807 27.131C86.4303 27.0223 86.4076 26.9027 86.4147 26.7831C86.4217 26.6635 86.4583 26.5474 86.5212 26.4453C86.5841 26.3432 86.6713 26.2582 86.775 26.1978C88.5841 25.112 90.5626 24.3359 92.6284 23.9015C92.7236 23.8803 92.822 23.8782 92.918 23.8952C93.0137 23.9123 93.105 23.9483 93.1867 24.0009C93.2684 24.0536 93.3388 24.1219 93.3938 24.2018C93.4483 24.2823 93.4864 24.3727 93.5061 24.4678C93.5253 24.563 93.5253 24.6611 93.5059 24.7564C93.4866 24.8516 93.4483 24.9419 93.3934 25.0222C93.3384 25.1024 93.268 25.1709 93.1861 25.2235C93.1043 25.2761 93.0127 25.3119 92.9167 25.3286C91.012 25.7299 89.1878 26.4456 87.5194 27.4461C87.406 27.514 87.276 27.5492 87.1437 27.5479L87.1501 27.5555ZM100.507 21.7408C100.355 21.7413 100.207 21.6947 100.083 21.6073C99.9592 21.5199 99.8657 21.3962 99.8156 21.2533C99.7655 21.1104 99.7613 20.9555 99.8036 20.8101C99.8459 20.6648 99.9325 20.5362 100.052 20.4422C101.312 19.4471 101.924 18.1104 101.924 16.353C101.924 16.1335 101.914 15.9038 101.895 15.671C101.887 15.5754 101.897 15.4792 101.927 15.3878C101.971 15.25 102.055 15.1284 102.168 15.0383C102.282 14.9482 102.419 14.8937 102.564 14.8817C102.708 14.8697 102.853 14.9007 102.98 14.9709C103.106 15.0411 103.21 15.1472 103.276 15.2759C103.32 15.361 103.346 15.454 103.354 15.5494C103.378 15.8224 103.39 16.0934 103.39 16.3543C103.39 18.5545 102.573 20.3137 100.966 21.5856C100.835 21.6872 100.673 21.7415 100.507 21.7395V21.7408ZM100.782 10.5867C100.646 10.5871 100.513 10.5499 100.398 10.4792C100.282 10.4085 100.189 10.3071 100.128 10.1865C99.2286 8.42462 98.1663 6.75037 96.9548 5.18554C96.8941 5.1104 96.8493 5.02385 96.8228 4.93103C96.7961 4.83918 96.7876 4.743 96.7979 4.6479C96.8098 4.55413 96.8399 4.46357 96.8866 4.38131C96.9325 4.2973 96.9947 4.22319 97.0694 4.16324C97.1442 4.10329 97.2301 4.05869 97.3222 4.03201C97.4609 3.99174 97.6085 3.99333 97.7463 4.03658C97.8841 4.07983 98.006 4.16281 98.0965 4.27506C99.3743 5.91806 100.492 7.67867 101.436 9.53305C101.491 9.64398 101.518 9.76729 101.513 9.89132C101.508 10.0153 101.471 10.136 101.406 10.2418C101.34 10.3479 101.249 10.4355 101.14 10.4963C101.031 10.5565 100.907 10.5872 100.782 10.5854V10.5867Z" fill="#162B43"/>
<path d="M82.4129 40.0702C78.4813 39.796 37.3221 70.4232 37.1314 74.0817C36.9101 78.3446 59.4555 106.924 63.0579 107.908C66.154 108.757 105.788 76.9225 106.202 74.2955C106.617 71.6684 86.3624 40.3444 82.4129 40.0702Z" fill="#162B43"/>
<path d="M77.4545 38.5399C73.5241 38.2669 32.3655 68.8891 32.1729 72.5527C31.9503 76.8155 54.497 105.393 58.0982 106.378C61.1955 107.227 100.828 75.3923 101.242 72.7652C101.657 70.1381 81.402 38.8154 77.4545 38.5399Z" fill="#007EEF"/>
<path d="M77.2197 69.3004C76.9958 69.3004 76.7732 69.2921 76.557 69.275C74.5159 69.1172 72.8537 68.222 71.6144 66.6148C70.0645 64.6042 69.5465 62.4117 70.0836 60.0989C71.8121 52.5854 84.1261 46.3648 84.6504 46.1014C84.8228 46.0206 85.0201 46.0102 85.2002 46.0724C85.3802 46.1346 85.5287 46.2646 85.614 46.4346C85.6993 46.6045 85.7147 46.801 85.6568 46.9821C85.5989 47.1631 85.4724 47.3145 85.3042 47.4038C85.1823 47.4674 73.0795 53.5754 71.5066 60.4241C71.0703 62.3195 71.4862 64.0507 72.7759 65.7253C73.7645 67.0093 75.0395 67.6977 76.6667 67.8249C76.8523 67.8396 77.0411 67.8453 77.2305 67.8453C83.9418 67.8453 93.2675 59.0905 93.3638 59.0014C93.506 58.8828 93.6881 58.8226 93.8731 58.833C94.0582 58.8435 94.2323 58.9238 94.3602 59.0576C94.4881 59.1915 94.5601 59.3689 94.5616 59.5538C94.5631 59.7387 94.494 59.9172 94.3684 60.0531C93.9621 60.4425 84.5273 69.3004 77.2197 69.3004Z" fill="#162B43"/>
<path d="M78.9061 64.5176C77.8651 64.5167 76.8642 64.1174 76.1096 63.4021C75.3551 62.6867 74.9044 61.7099 74.8506 60.6728C74.7969 59.6358 75.144 58.6178 75.8206 57.8286C76.4971 57.0394 77.4514 56.5392 78.4867 56.4312C79.522 56.3232 80.5594 56.6155 81.385 57.248C82.2106 57.8805 82.7614 58.8049 82.9239 59.8306C83.0864 60.8562 82.8482 61.905 82.2583 62.7606C81.6685 63.6162 80.772 64.2134 79.7538 64.4291C79.475 64.4878 79.191 64.5174 78.9061 64.5176ZM78.9195 57.8738C78.7366 57.8744 78.5543 57.8936 78.3754 57.9311C77.7284 58.0695 77.1592 58.4501 76.7851 58.9946C76.4111 59.5392 76.2607 60.2061 76.3649 60.8579C76.4691 61.5098 76.82 62.097 77.3453 62.4984C77.8706 62.8999 78.5302 63.0851 79.1883 63.0158C79.8464 62.9465 80.4528 62.6281 80.8825 62.1261C81.3122 61.6242 81.5326 60.9769 81.4981 60.3177C81.4636 59.6585 81.177 59.0376 80.6973 58.5829C80.2175 58.1282 79.5812 57.8744 78.9195 57.8738Z" fill="#162B43"/>
<path d="M60.2936 32.1167C59.3857 32.1167 58.992 30.9047 58.8407 29.7235C57.661 29.572 56.2081 29.2081 56.2081 28.2086C56.2081 27.2091 57.6302 26.8753 58.7804 26.7238C58.901 25.5118 59.2627 23.9365 60.2936 23.9365C61.3244 23.9365 61.6855 25.5118 61.8067 26.7238C62.9262 26.8753 64.379 27.2386 64.379 28.2086C64.379 29.1785 62.896 29.572 61.7458 29.7235C61.5945 30.9047 61.2014 32.1167 60.2936 32.1167ZM57.661 28.2086C58.2241 28.414 58.8167 28.5265 59.4158 28.5417L59.9301 28.6021V29.085C59.9778 29.6215 60.0897 30.1504 60.2634 30.6603C60.4372 30.1519 60.5387 29.6216 60.5648 29.085L60.6251 28.6021L61.1394 28.5417C61.7293 28.5308 62.313 28.4181 62.8647 28.2086C62.3163 28.0307 61.7461 27.9291 61.1701 27.9068L60.6275 27.8464V27.3316C60.6021 26.6832 60.4902 26.0412 60.2948 25.4225C60.0687 26.0333 59.956 26.6803 59.962 27.3316L59.9017 27.8464L59.3875 27.9068C58.8015 27.9329 58.2212 28.0343 57.661 28.2086Z" fill="#162B43"/>
<path d="M68.8882 19.9064C67.2238 19.9064 66.6186 16.6949 66.407 14.8775C64.6515 14.6964 60.9296 14.12 60.9296 12.3624C60.9296 10.6048 64.5912 10.0296 66.3159 9.84797C66.4672 7.96907 67.0122 4 68.8882 4C70.7643 4 71.2791 7.96907 71.4304 9.84797C73.1853 10.029 76.8168 10.6048 76.8168 12.3624C76.8168 14.12 73.125 14.6952 71.3701 14.8775C71.1278 16.6949 70.5225 19.9064 68.8882 19.9064ZM68.8882 5.21197C68.5555 5.27232 67.7085 6.87842 67.4963 10.4232V10.9664H66.9821C63.532 11.2392 62.2311 12.057 62.1702 12.3298C62.1093 12.6027 63.532 13.4205 67.0423 13.6933H67.5246L67.5849 14.2081C67.8863 17.3896 68.6742 18.5713 68.916 18.6317C69.1577 18.6921 69.9149 17.3896 70.2175 14.2081L70.2778 13.6933H70.7926C74.2728 13.4205 75.5737 12.5719 75.6346 12.3298C75.6955 12.0878 74.2728 11.2392 70.8529 10.9664H70.3387V10.4232C70.0686 6.87842 69.1909 5.27232 68.8882 5.21197Z" fill="#DBF122"/>
</g>
<defs>
<clipPath id="clip0_222_4202">
<rect width="112" height="103.925" fill="white" transform="translate(0 4)"/>
</clipPath>
</defs>
</svg>
