<svg width="120" height="120" viewBox="0 0 120 120" fill="none" xmlns="http://www.w3.org/2000/svg">
<g clip-path="url(#clip0_222_4315)">
<path d="M26.9748 8.60131C23.9092 7.55924 23.046 7.76784 20.6948 9.04772C13.9985 12.7085 12.7779 21.3089 12.3616 28.6308C12.1233 32.4404 12.2717 36.2499 12.3315 40.0891L12.5113 51.7857C12.5707 54.4938 12.6012 57.232 12.6601 59.9406C10.6065 59.9406 8.55287 59.9703 6.50104 60.0593C4.44921 60.1483 1.88487 62.0535 2.004 64.5832C2.12314 67.1128 3.96817 69.1965 6.49969 69.0787C9.03121 68.961 12.0649 68.9299 14.8329 68.9888C15.5176 69.4649 20.4583 69.0185 21.3215 68.9888C23.7618 68.8697 22.244 67.6496 22.1842 65.12C22.0655 57.62 21.5297 50.1497 21.4105 42.6197C21.3512 38.9293 21.2307 35.2092 21.2914 31.5188C21.2914 29.7331 21.4402 27.9475 21.589 26.1614L21.6789 25.5662C21.7688 25.1495 21.8277 24.7629 21.9172 24.3461C22.0736 23.5716 22.2723 22.8062 22.5124 22.0534L22.8694 20.9227L23.0492 20.4462V20.3869C23.364 19.6814 23.7212 18.9957 24.1187 18.3333C24.3269 17.9462 24.5948 17.5596 24.8331 17.2022L24.9518 17.0224L25.0417 16.9033C25.6369 16.2487 25.9939 12.2607 26.6786 11.665C28.4926 10.0893 29.1476 9.34533 26.9748 8.60131Z" fill="#DBF122"/>
<path d="M28.8499 10.5949C28.9534 10.5952 29.0537 10.5596 29.1338 10.4941C29.214 10.4287 29.2689 10.3375 29.2893 10.2361C29.3097 10.1347 29.2942 10.0293 29.2456 9.93803C29.197 9.84673 29.1182 9.77511 29.0227 9.73541C28.9272 9.6957 28.8209 9.69036 28.7218 9.7203C28.6228 9.75023 28.5373 9.81359 28.4797 9.89957C28.4222 9.98554 28.3963 10.0888 28.4064 10.1918C28.4166 10.2947 28.4621 10.3909 28.5352 10.4641C28.5765 10.5055 28.6256 10.5383 28.6796 10.5608C28.7336 10.5832 28.7915 10.5948 28.8499 10.5949Z" fill="#DBF122"/>
<path d="M78.1371 10.327C78.1451 10.236 78.1309 10.1444 78.0959 10.06C78.0608 9.97568 78.0058 9.90107 77.9356 9.84258C77.8654 9.78409 77.7821 9.74347 77.6928 9.72418C77.6034 9.70489 77.5108 9.7075 77.4227 9.7318C77.3703 9.66399 77.3025 9.60972 77.2248 9.5735C77.1471 9.53729 77.0619 9.5202 76.9763 9.52366L28.3141 9.46387L28.0444 9.52366C27.9342 9.50189 27.8204 9.50759 27.7129 9.54026C27.6055 9.57292 27.5077 9.63155 27.4283 9.71096C27.3489 9.79037 27.2903 9.88811 27.2576 9.99556C27.2249 10.103 27.2192 10.2168 27.241 10.327L27.4208 11.1308C27.327 11.4582 27.316 11.8038 27.3888 12.1365C27.4616 12.4693 27.616 12.7787 27.838 13.0369L29.2668 19.7353C29.6447 21.2505 29.9034 22.793 30.0405 24.3487C30.1244 26.0038 30.1046 27.6627 29.9811 29.3154C29.9676 29.4087 29.9777 29.5039 30.0104 29.5924C30.043 29.6809 30.0972 29.7598 30.1681 29.822C30.2392 29.8839 30.3246 29.9272 30.4166 29.9478C30.5086 29.9685 30.6043 29.9659 30.695 29.9402C30.7091 30.0084 30.7465 30.0696 30.8008 30.1131C30.8552 30.1566 30.923 30.1797 30.9926 30.1785H52.5112C55.1898 30.2684 57.8386 30.2972 60.5176 30.2082H78.1371C78.1978 30.2058 78.257 30.1881 78.3091 30.1566C78.3611 30.1252 78.4043 30.081 78.4347 30.0284C78.5246 30.0588 78.6207 30.0662 78.7142 30.0498C78.8077 30.0334 78.8955 29.9937 78.9696 29.9344C79.0437 29.8751 79.1017 29.7981 79.1383 29.7105C79.1748 29.6229 79.1887 29.5275 79.1787 29.4331C78.5835 23.125 77.8093 16.7557 78.1371 10.327ZM34.118 22.5594V22.4403L34.3559 22.4996L34.118 22.5594Z" fill="#007EEF"/>
<path d="M24.5641 12.5878C42.5109 13.2126 60.5174 13.4208 78.4642 13.0638C81.9165 12.9739 81.9165 7.61747 78.4642 7.70693C60.5174 8.06388 42.5109 7.85573 24.5641 7.2304C21.1114 7.11352 21.1114 12.4704 24.5641 12.5878Z" fill="#DBF122"/>
<path d="M86.4593 32.1252C86.4068 31.7605 86.2124 31.4312 85.9185 31.209C85.6246 30.9867 85.2549 30.8893 84.8896 30.9381C84.5243 30.9868 84.193 31.1777 83.9677 31.4692C83.7423 31.7608 83.6411 32.1295 83.686 32.4952L85.7877 48.2459C85.812 48.4279 85.8719 48.6034 85.964 48.7623C86.0561 48.9213 86.1787 49.0605 86.3246 49.172C86.4705 49.2836 86.637 49.3653 86.8145 49.4126C86.992 49.4598 87.1771 49.4716 87.3592 49.4473C87.5412 49.423 87.7167 49.3631 87.8757 49.271C88.0346 49.1788 88.1738 49.0563 88.2854 48.9104C88.3969 48.7645 88.4787 48.598 88.5259 48.4205C88.5731 48.243 88.5849 48.0579 88.5606 47.8759L86.4593 32.1252Z" fill="#DBF122"/>
<path d="M26.2603 11.7555C29.058 11.4579 29.2666 14.8507 29.3857 16.8152C29.5049 18.7798 29.6555 20.9512 29.7724 23.0056C30.0106 27.0516 30.2188 31.0711 30.4274 35.1185C30.8437 43.184 31.1714 51.2791 31.4394 59.3446C31.469 59.9101 32.3619 59.9101 32.3322 59.3446C32.0346 50.0887 31.6179 40.8328 31.1413 31.5769C30.9035 27.053 30.6373 22.5291 30.3676 18.0057C30.1878 15.3866 30.1298 10.4459 26.2603 10.8627C25.6948 10.9238 25.6948 11.8148 26.2603 11.7555Z" fill="#162B43"/>
<path d="M102.233 29.2214L96.6579 28.0976C96.5124 28.0682 96.3624 28.0677 96.2167 28.0963C96.071 28.1249 95.9323 28.1819 95.8086 28.264C95.6849 28.3462 95.5786 28.4519 95.4958 28.5751C95.413 28.6984 95.3552 28.8367 95.3259 28.9823L91.1669 49.6088C91.1075 49.9028 91.1674 50.2084 91.3333 50.4583C91.4993 50.7081 91.7576 50.8819 92.0516 50.9413L97.6263 52.0652C97.7719 52.0946 97.9218 52.095 98.0676 52.0664C98.2133 52.0378 98.352 51.9808 98.4757 51.8986C98.5994 51.8164 98.7057 51.7106 98.7885 51.5873C98.8714 51.464 98.9291 51.3256 98.9584 51.18L103.118 30.5535C103.177 30.2595 103.117 29.954 102.951 29.7042C102.785 29.4544 102.527 29.2807 102.233 29.2214Z" fill="#DBF122"/>
<path d="M26.0519 12.2316C22.9705 20.5603 21.4862 29.3951 21.6767 38.2735C21.7063 38.839 22.5992 38.839 22.5695 38.2735C22.3837 29.4753 23.8579 20.721 26.915 12.4689C27.1236 11.934 26.2605 11.6962 26.0519 12.2316Z" fill="#162B43"/>
<path d="M21.1714 40.9816V48.571C21.1714 48.6894 21.2184 48.8029 21.3021 48.8866C21.3859 48.9703 21.4994 49.0174 21.6178 49.0174C21.7362 49.0174 21.8498 48.9703 21.9335 48.8866C22.0172 48.8029 22.0642 48.6894 22.0642 48.571V40.9816C22.0642 40.8632 22.0172 40.7496 21.9335 40.6659C21.8498 40.5822 21.7362 40.5352 21.6178 40.5352C21.4994 40.5352 21.3859 40.5822 21.3021 40.6659C21.2184 40.7496 21.1714 40.8632 21.1714 40.9816Z" fill="#162B43"/>
<path d="M21.1714 52.4407C21.2348 57.6472 21.6124 62.8451 22.3021 68.0061C22.392 68.6018 23.2547 68.3339 23.1652 67.7683C22.4845 62.6857 22.1168 57.5661 22.0642 52.4385C22.0346 51.8756 21.1413 51.8756 21.1714 52.4407Z" fill="#162B43"/>
<path d="M25.695 19.077C25.0305 27.84 24.8121 36.6312 25.0404 45.4164C25.0701 46.0117 25.9629 46.0117 25.9333 45.4164C25.7049 36.6312 25.9234 27.84 26.5878 19.077C26.618 18.4817 25.7251 18.5114 25.695 19.077Z" fill="#162B43"/>
<path d="M24.6236 47.8575C24.464 51.1169 24.6938 54.3837 25.3083 57.5886C25.4269 58.1541 26.2901 57.9163 26.1714 57.3508C25.5802 54.2228 25.3604 51.0361 25.5164 47.8566C25.5461 47.2937 24.6532 47.2937 24.6236 47.8575Z" fill="#162B43"/>
<path d="M28.8797 60.8036C28.0764 57.262 28.374 53.4822 28.3439 49.8794L28.2845 38.7205L28.1946 16.6671C28.1946 16.5487 28.1476 16.4352 28.0638 16.3515C27.9801 16.2677 27.8666 16.2207 27.7482 16.2207C27.6298 16.2207 27.5162 16.2677 27.4325 16.3515C27.3488 16.4352 27.3018 16.5487 27.3018 16.6671C27.3419 24.2068 27.3816 31.7563 27.4209 39.3157V50.4764C27.4506 53.9884 27.1831 57.5893 27.9865 61.041C28.1353 61.5769 28.9984 61.3386 28.8496 60.8027L28.8797 60.8036Z" fill="#162B43"/>
<path d="M47.4218 81.1307C58.3463 81.2795 69.2973 81.0116 80.1908 80.3867C80.7564 80.357 80.7564 79.4642 80.1908 79.4939C69.2973 80.1188 58.3449 80.3867 47.4218 80.2379C47.3034 80.2379 47.1898 80.2849 47.1061 80.3687C47.0224 80.4524 46.9753 80.5659 46.9753 80.6843C46.9753 80.8027 47.0224 80.9163 47.1061 81C47.1898 81.0837 47.3034 81.1307 47.4218 81.1307Z" fill="#162B43"/>
<path d="M78.1963 31.399C78.8513 33.8095 78.4939 36.6075 78.613 39.0774C78.7322 41.5473 78.9403 44.3453 79.2676 46.9644C79.3274 47.5299 80.2202 47.5299 80.1604 46.9644C79.8332 44.1668 79.5953 41.3396 79.4762 38.5127C79.3571 35.6859 79.6843 33.5128 79.0594 31.1616C78.881 30.6253 78.0178 30.8334 78.1963 31.399Z" fill="#162B43"/>
<path d="M34.3558 38.3625H38.1655C38.2839 38.3625 38.3974 38.3155 38.4812 38.2318C38.5649 38.1481 38.6119 38.0345 38.6119 37.9161C38.6119 37.7977 38.5649 37.6842 38.4812 37.6005C38.3974 37.5168 38.2839 37.4697 38.1655 37.4697H34.3558C34.2374 37.4697 34.1239 37.5168 34.0402 37.6005C33.9565 37.6842 33.9094 37.7977 33.9094 37.9161C33.9094 38.0345 33.9565 38.1481 34.0402 38.2318C34.1239 38.3155 34.2374 38.3625 34.3558 38.3625Z" fill="#162B43"/>
<path d="M41.9454 38.0657H46.023C46.1414 38.0657 46.255 38.0186 46.3387 37.9349C46.4224 37.8512 46.4695 37.7377 46.4695 37.6193C46.4695 37.5009 46.4224 37.3873 46.3387 37.3036C46.255 37.2199 46.1414 37.1729 46.023 37.1729H41.9454C41.827 37.1729 41.7135 37.2199 41.6298 37.3036C41.5461 37.3873 41.499 37.5009 41.499 37.6193C41.499 37.7377 41.5461 37.8512 41.6298 37.9349C41.7135 38.0186 41.827 38.0657 41.9454 38.0657Z" fill="#162B43"/>
<path d="M50.9638 37.5593C52.4815 37.589 53.9696 37.589 55.4873 37.5C56.0529 37.4699 56.0529 36.5771 55.4873 36.6072C53.9696 36.6971 52.4815 36.6971 50.9638 36.6665C50.8454 36.6665 50.7318 36.7136 50.6481 36.7973C50.5644 36.881 50.5173 36.9945 50.5173 37.1129C50.5173 37.2313 50.5644 37.3449 50.6481 37.4286C50.7318 37.5123 50.8454 37.5593 50.9638 37.5593Z" fill="#162B43"/>
<path d="M60.785 37.2327H65.3706C65.489 37.2327 65.6026 37.1856 65.6863 37.1019C65.77 37.0182 65.8171 36.9046 65.8171 36.7863C65.8171 36.6679 65.77 36.5543 65.6863 36.4706C65.6026 36.3869 65.489 36.3398 65.3706 36.3398H60.785C60.6666 36.3398 60.5531 36.3869 60.4694 36.4706C60.3857 36.5543 60.3386 36.6679 60.3386 36.7863C60.3386 36.9046 60.3857 37.0182 60.4694 37.1019C60.5531 37.1856 60.6666 37.2327 60.785 37.2327Z" fill="#162B43"/>
<path d="M68.7914 37.2913H73.7321C73.8505 37.2913 73.9641 37.2442 74.0478 37.1605C74.1315 37.0768 74.1786 36.9632 74.1786 36.8448C74.1786 36.7265 74.1315 36.6129 74.0478 36.5292C73.9641 36.4455 73.8505 36.3984 73.7321 36.3984H68.7914C68.673 36.3984 68.5594 36.4455 68.4757 36.5292C68.392 36.6129 68.345 36.7265 68.345 36.8448C68.345 36.9632 68.392 37.0768 68.4757 37.1605C68.5594 37.2442 68.673 37.2913 68.7914 37.2913Z" fill="#162B43"/>
<path d="M34.8024 44.7307H38.523C38.6414 44.7307 38.755 44.6837 38.8387 44.6C38.9224 44.5162 38.9694 44.4027 38.9694 44.2843C38.9694 44.1659 38.9224 44.0524 38.8387 43.9686C38.755 43.8849 38.6414 43.8379 38.523 43.8379H34.8024C34.684 43.8379 34.5704 43.8849 34.4867 43.9686C34.403 44.0524 34.356 44.1659 34.356 44.2843C34.356 44.4027 34.403 44.5162 34.4867 44.6C34.5704 44.6837 34.684 44.7307 34.8024 44.7307Z" fill="#162B43"/>
<path d="M42.8087 44.7307C44.1183 44.7603 45.3982 44.7603 46.6777 44.6709C47.2432 44.6412 47.2432 43.7484 46.6777 43.7781C45.3982 43.868 44.1183 43.868 42.8087 43.8379C42.2431 43.8095 42.2431 44.7024 42.8087 44.7307Z" fill="#162B43"/>
<path d="M51.2016 44.2562L55.7849 44.1663C55.9033 44.1663 56.0168 44.1192 56.1006 44.0355C56.1843 43.9518 56.2313 43.8382 56.2313 43.7198C56.2313 43.6015 56.1843 43.4879 56.1006 43.4042C56.0168 43.3205 55.9033 43.2734 55.7849 43.2734L51.2016 43.3633C51.0832 43.3633 50.9696 43.4104 50.8859 43.4941C50.8022 43.5778 50.7551 43.6914 50.7551 43.8098C50.7551 43.9282 50.8022 44.0417 50.8859 44.1254C50.9696 44.2091 51.0832 44.2562 51.2016 44.2562Z" fill="#162B43"/>
<path d="M86.7086 104.226L78.8515 100.923C76.6788 100.03 74.2381 99.256 72.3629 97.8278C71.4856 97.0841 70.561 96.3981 69.5949 95.7742L68.7021 95.268C68.7069 95.2202 68.6989 95.1719 68.6789 95.1282C68.6588 95.0845 68.6275 95.047 68.5881 95.0195C68.5486 94.992 68.5026 94.9755 68.4546 94.9718C68.4067 94.968 68.3586 94.9772 68.3154 94.9983C68.2858 94.9983 68.2556 94.9983 68.2556 95.0284C67.7202 94.7308 67.1843 94.4628 66.7082 94.1356C65.7556 93.57 65.1307 92.6174 64.1484 92.1126C63.7693 91.9201 63.3701 91.7704 62.9579 91.6662C62.772 91.4456 62.5624 91.246 62.333 91.0709C60.5177 89.7614 58.6129 88.5112 56.4401 87.916C54.2673 87.3207 51.5875 87.7087 49.2672 88.8097C47.3936 89.6727 45.5834 90.6673 43.8504 91.7862C42.8831 92.4407 41.9585 93.1564 41.0824 93.9288C39.2967 94.4049 37.6598 96.1909 36.2909 97.3216C34.922 98.4522 34.0287 99.0775 34.0583 100.714C34.088 102.351 35.2789 103.363 36.2612 104.435L41.8269 110.417C43.4341 112.17 45.1011 113.899 47.0949 115.268C48.0174 115.893 49.0595 116.34 50.0711 116.875C51.0826 117.411 51.9143 118.304 52.9582 118.869C55.1309 120.03 57.9286 120 60.3392 120C65.1511 119.981 69.9199 119.093 74.4165 117.379C76.9646 116.433 79.4082 115.226 81.7085 113.778C82.2741 113.421 82.8396 113.064 83.3751 112.677L83.4942 112.617C84.655 111.933 86.0837 111.338 86.9469 110.296C87.4452 109.675 87.8281 108.969 88.0776 108.213C88.2785 107.955 88.4299 107.663 88.524 107.35C88.9407 105.893 88.0182 104.762 86.7086 104.226ZM43.4952 103.721H43.5249C43.3446 103.899 43.1356 103.78 43.4952 103.721Z" fill="#DBF122"/>
<path d="M62.0651 44.1663H65.1604C65.2788 44.1663 65.3923 44.1192 65.476 44.0355C65.5597 43.9518 65.6068 43.8382 65.6068 43.7198C65.6068 43.6015 65.5597 43.4879 65.476 43.4042C65.3923 43.3205 65.2788 43.2734 65.1604 43.2734H62.0651C61.9467 43.2734 61.8331 43.3205 61.7494 43.4042C61.6657 43.4879 61.6187 43.6015 61.6187 43.7198C61.6187 43.8382 61.6657 43.9518 61.7494 44.0355C61.8331 44.1192 61.9467 44.1663 62.0651 44.1663Z" fill="#162B43"/>
<path d="M69.2379 43.5717C70.3587 43.6211 71.4814 43.6112 72.6011 43.542C73.1667 43.5123 73.1667 42.6191 72.6011 42.6492C71.4814 42.7184 70.3587 42.7283 69.2379 42.6789C69.1195 42.6789 69.006 42.7259 68.9223 42.8096C68.8385 42.8933 68.7915 43.0069 68.7915 43.1253C68.7915 43.2437 68.8385 43.3572 68.9223 43.4409C69.006 43.5246 69.1195 43.5717 69.2379 43.5717Z" fill="#162B43"/>
<path d="M35.6654 52.5295H39.0893C39.2077 52.5295 39.3213 52.4825 39.405 52.3988C39.4887 52.3151 39.5357 52.2015 39.5357 52.0831C39.5357 51.9647 39.4887 51.8512 39.405 51.7675C39.3213 51.6838 39.2077 51.6367 39.0893 51.6367H35.6654C35.547 51.6367 35.4335 51.6838 35.3497 51.7675C35.266 51.8512 35.219 51.9647 35.219 52.0831C35.219 52.2015 35.266 52.3151 35.3497 52.3988C35.4335 52.4825 35.547 52.5295 35.6654 52.5295Z" fill="#162B43"/>
<path d="M43.6423 52.4404C44.1183 52.2606 44.7136 52.3217 45.2193 52.3217L46.8265 52.262C46.8852 52.262 46.9432 52.2504 46.9974 52.228C47.0515 52.2055 47.1008 52.1727 47.1422 52.1312C47.1837 52.0898 47.2165 52.0405 47.239 51.9864C47.2614 51.9322 47.273 51.8742 47.273 51.8155C47.273 51.7569 47.2614 51.6989 47.239 51.6447C47.2165 51.5906 47.1837 51.5413 47.1422 51.4999C47.1008 51.4584 47.0515 51.4256 46.9974 51.4031C46.9432 51.3807 46.8852 51.3691 46.8265 51.3691L44.9833 51.4285C44.4527 51.3879 43.919 51.4384 43.4053 51.5777C42.8681 51.7562 43.0767 52.6194 43.6423 52.4404Z" fill="#162B43"/>
<path d="M52.4223 51.5474L55.9936 51.3096C56.5592 51.2795 56.5592 50.3866 55.9936 50.4168L52.4223 50.6546C51.827 50.7144 51.827 51.609 52.4223 51.5474Z" fill="#162B43"/>
<path d="M62.3626 51.7861C63.5531 51.8455 64.7454 51.8455 65.9345 51.8158C66.0529 51.8158 66.1664 51.7688 66.2501 51.685C66.3339 51.6013 66.3809 51.4878 66.3809 51.3694C66.3809 51.251 66.3339 51.1374 66.2501 51.0537C66.1664 50.97 66.0529 50.923 65.9345 50.923C64.7436 50.9526 63.5518 50.9526 62.3626 50.8933C61.7971 50.8636 61.7971 51.7565 62.3626 51.7861Z" fill="#162B43"/>
<path d="M70.458 51.875C71.2477 51.969 72.0483 51.898 72.8092 51.6665C73.3451 51.5177 73.1068 50.6545 72.5714 50.8033C71.8874 51.0102 71.1676 51.0715 70.4584 50.9831C69.8928 50.9224 69.8928 51.8153 70.458 51.875Z" fill="#162B43"/>
<path d="M70.22 59.9105C71.2454 59.7662 72.2799 59.6966 73.3153 59.7024C73.4337 59.7024 73.5473 59.6554 73.631 59.5716C73.7147 59.4879 73.7617 59.3744 73.7617 59.256C73.7617 59.1376 73.7147 59.024 73.631 58.9403C73.5473 58.8566 73.4337 58.8096 73.3153 58.8096C72.2001 58.8137 71.0863 58.8931 69.9818 59.0474C69.4162 59.1368 69.6545 60 70.22 59.9105Z" fill="#162B43"/>
<path d="M62.0057 59.4934H64.6546C64.773 59.4934 64.8865 59.4464 64.9703 59.3627C65.054 59.2789 65.101 59.1654 65.101 59.047C65.101 58.9286 65.054 58.8151 64.9703 58.7313C64.8865 58.6476 64.773 58.6006 64.6546 58.6006H62.0057C61.9471 58.6006 61.8891 58.6121 61.8349 58.6346C61.7807 58.657 61.7315 58.6899 61.6901 58.7313C61.6486 58.7728 61.6157 58.822 61.5933 58.8762C61.5709 58.9303 61.5593 58.9884 61.5593 59.047C61.5593 59.1056 61.5709 59.1637 61.5933 59.2178C61.6157 59.272 61.6486 59.3212 61.6901 59.3627C61.7315 59.4041 61.7807 59.437 61.8349 59.4594C61.8891 59.4819 61.9471 59.4934 62.0057 59.4934Z" fill="#162B43"/>
<path d="M51.9753 59.9411C52.8983 60.0004 53.7911 60.0004 54.7136 59.9707C54.832 59.9707 54.9456 59.9237 55.0293 59.84C55.113 59.7563 55.16 59.6427 55.16 59.5243C55.16 59.4059 55.113 59.2924 55.0293 59.2087C54.9456 59.1249 54.832 59.0779 54.7136 59.0779C53.7911 59.1076 52.8983 59.1076 51.9753 59.0478C51.0523 58.988 51.4102 59.8813 51.9753 59.9411Z" fill="#162B43"/>
<path d="M44.743 61.2795L47.7493 61.2197C48.3148 61.19 48.3445 60.2972 47.7493 60.3269L44.743 60.3867C44.1775 60.4164 44.1775 61.3092 44.743 61.2795Z" fill="#162B43"/>
<path d="M52.0368 68.7818C53.2363 68.7023 54.4399 68.7122 55.6379 68.8115C56.2034 68.8709 56.2034 67.978 55.6379 67.9187C54.4399 67.8194 53.2363 67.8094 52.0368 67.889C51.4695 67.9164 51.4695 68.8093 52.0368 68.7818Z" fill="#162B43"/>
<path d="M52.8983 74.0481C54.2673 74.1074 55.6362 74.1074 57.0056 74.0778C57.124 74.0778 57.2375 74.0307 57.3213 73.947C57.405 73.8633 57.452 73.7497 57.452 73.6314C57.452 73.513 57.405 73.3994 57.3213 73.3157C57.2375 73.232 57.124 73.1849 57.0056 73.1849C55.6362 73.2146 54.2673 73.2146 52.8983 73.1553C52.7799 73.1553 52.6664 73.2023 52.5827 73.286C52.4989 73.3697 52.4519 73.4833 52.4519 73.6017C52.4519 73.7201 52.4989 73.8336 52.5827 73.9173C52.6664 74.0011 52.7799 74.0481 52.8983 74.0481Z" fill="#162B43"/>
<path d="M62.422 68.5715H66.0828C66.2012 68.5715 66.3148 68.5245 66.3985 68.4408C66.4822 68.3571 66.5293 68.2435 66.5293 68.1251C66.5293 68.0067 66.4822 67.8932 66.3985 67.8095C66.3148 67.7257 66.2012 67.6787 66.0828 67.6787H62.422C62.3634 67.6787 62.3053 67.6903 62.2512 67.7127C62.197 67.7351 62.1478 67.768 62.1063 67.8095C62.0649 67.8509 62.032 67.9001 62.0096 67.9543C61.9871 68.0084 61.9756 68.0665 61.9756 68.1251C61.9756 68.1837 61.9871 68.2418 62.0096 68.296C62.032 68.3501 62.0649 68.3993 62.1063 68.4408C62.1478 68.4822 62.197 68.5151 62.2512 68.5375C62.3053 68.56 62.3634 68.5715 62.422 68.5715Z" fill="#162B43"/>
<path d="M71.3234 68.4221H74.8952C75.0136 68.4221 75.1271 68.3751 75.2109 68.2914C75.2946 68.2076 75.3416 68.0941 75.3416 67.9757C75.3416 67.8573 75.2946 67.7438 75.2109 67.66C75.1271 67.5763 75.0136 67.5293 74.8952 67.5293H71.3234C71.205 67.5293 71.0914 67.5763 71.0077 67.66C70.924 67.7438 70.877 67.8573 70.877 67.9757C70.877 68.0941 70.924 68.2076 71.0077 68.2914C71.0914 68.3751 71.205 68.4221 71.3234 68.4221Z" fill="#162B43"/>
<path d="M53.4039 47.1426C51.9159 47.2914 50.3087 47.5 49.2967 48.7794C48.2847 50.0589 48.3148 51.6665 48.7311 52.9154C49.1474 54.1642 50.6643 54.79 52.0053 55.0283C53.3464 55.2665 55.4576 55.5641 57.0648 55.1474C59.7734 54.433 60.3687 51.0402 58.7017 49.0163C57.7495 47.8556 56.4399 47.3498 55.0112 47.1116C52.9279 46.7245 50.8446 46.4867 48.7622 46.2188C47.631 46.07 47.631 47.8556 48.7622 48.0044C50.756 48.2741 52.7799 48.4805 54.7441 48.8675C56.7083 49.2546 58.8217 50.5938 57.6016 52.6474C56.7087 54.1651 53.3158 53.5106 51.9464 53.1828C50.5771 52.8551 50.0713 52.0522 50.399 50.7426C50.7268 49.4331 52.0656 49.046 53.4048 48.9269C54.7441 48.8078 54.5647 47.0235 53.4039 47.1426Z" fill="#DBF122"/>
<path d="M48.0168 51.5476C48.0047 51.4989 47.9816 51.4536 47.9493 51.4152C47.917 51.3768 47.8762 51.3464 47.8303 51.3263C47.7843 51.3062 47.7343 51.2969 47.6842 51.2992C47.634 51.3014 47.5851 51.3152 47.5411 51.3394C46.4673 52.1373 45.3098 52.8156 44.0889 53.3624C43.7018 53.5423 44.0291 54.1065 44.4162 53.928L45.5181 53.3624C45.5388 53.4565 45.5914 53.5405 45.6669 53.6003C45.8405 53.6856 45.9929 53.8085 46.1133 53.9599C46.193 54.0956 46.2831 54.2249 46.383 54.3465C46.4575 54.3978 46.5458 54.4252 46.6361 54.4252C46.7265 54.4252 46.8148 54.3978 46.8892 54.3465C46.6806 54.8527 46.4428 55.3288 46.2342 55.7752C46.0256 56.2216 46.6213 56.4599 46.7998 56.1025C47.4215 54.6729 48.3742 53.1251 48.0168 51.5476Z" fill="#162B43"/>
<path d="M99.3575 86.6069H81.6185C81.3459 86.6086 81.0824 86.5092 80.8789 86.3278C80.6755 86.1464 80.5465 85.896 80.517 85.6251L76.4709 49.8215C76.4544 49.6658 76.4704 49.5083 76.5179 49.359C76.5654 49.2097 76.6434 49.072 76.747 48.9545C76.8505 48.8369 76.9774 48.7422 77.1194 48.6762C77.2615 48.6103 77.4158 48.5745 77.5724 48.5713H102.811C102.966 48.5703 103.12 48.6022 103.262 48.6648C103.404 48.7274 103.531 48.8193 103.635 48.9345C103.739 49.0498 103.818 49.1857 103.865 49.3333C103.913 49.481 103.929 49.6371 103.912 49.7914L100.489 85.5954C100.459 85.8743 100.327 86.1323 100.118 86.3194C99.9091 86.5064 99.638 86.609 99.3575 86.6073V86.6069Z" fill="#007EEF"/>
<path d="M85.2501 52.7981H99.7447C99.8631 52.7981 99.9766 52.7511 100.06 52.6673C100.144 52.5836 100.191 52.4701 100.191 52.3517C100.191 52.2333 100.144 52.1197 100.06 52.036C99.9766 51.9523 99.8631 51.9053 99.7447 51.9053H85.2501C85.1317 51.9053 85.0182 51.9523 84.9345 52.036C84.8507 52.1197 84.8037 52.2333 84.8037 52.3517C84.8037 52.4701 84.8507 52.5836 84.9345 52.6673C85.0182 52.7511 85.1317 52.7981 85.2501 52.7981Z" fill="white"/>
<path d="M79.6547 52.7981H82.8691C82.9875 52.7981 83.101 52.7511 83.1848 52.6673C83.2685 52.5836 83.3155 52.4701 83.3155 52.3517C83.3155 52.2333 83.2685 52.1197 83.1848 52.036C83.101 51.9523 82.9875 51.9053 82.8691 51.9053H79.6547C79.5363 51.9053 79.4227 51.9523 79.339 52.036C79.2553 52.1197 79.2083 52.2333 79.2083 52.3517C79.2083 52.4701 79.2553 52.5836 79.339 52.6673C79.4227 52.7511 79.5363 52.7981 79.6547 52.7981Z" fill="white"/>
<path d="M78.494 55.5956C76.8868 54.7325 77.2141 52.7086 77.1251 51.1612C77.0954 50.4765 76.7978 49.5837 77.4524 49.1966C78.1069 48.8096 79.2978 49.2564 79.7452 49.2865C79.8636 49.2865 79.9771 49.2395 80.0608 49.1558C80.1446 49.0721 80.1916 48.9585 80.1916 48.8401C80.1916 48.7217 80.1446 48.6082 80.0608 48.5245C79.9771 48.4408 79.8636 48.3937 79.7452 48.3937C78.7629 48.3339 77.4829 48.0961 76.5011 48.3641C76.4295 48.3827 76.3641 48.4201 76.3118 48.4724C76.2595 48.5247 76.2221 48.59 76.2035 48.6617C75.9054 50.1794 76.2035 52.1736 76.3523 53.721C76.3786 54.2723 76.5491 54.807 76.8467 55.2718C77.1443 55.7366 77.5587 56.1152 78.0485 56.3698C78.5538 56.6372 79.0002 55.8636 78.494 55.5956Z" fill="#162B43"/>
<path d="M76.7677 55.6842C77.1548 59.6129 77.6012 63.5712 78.1668 67.4999C78.2261 68.0654 79.0893 67.8272 79.03 67.2616C78.4941 63.3927 78.018 59.5535 77.6606 55.6842C77.6012 55.1191 76.7084 55.089 76.7677 55.6842Z" fill="#162B43"/>
<path d="M78.4051 70.5059L79.2084 74.2853C79.3276 74.8212 80.1907 74.5829 80.0419 74.0475L79.2682 70.2677C79.1491 69.7021 78.2859 69.9404 78.4051 70.5059Z" fill="#162B43"/>
<path d="M100.995 72.9765L100.459 81.9649C100.369 83.5419 100.519 85.685 98.5262 86.0419C97.187 86.2802 95.6094 86.0419 94.2701 86.072C94.1518 86.072 94.0382 86.1191 93.9545 86.2028C93.8708 86.2865 93.8237 86.4 93.8237 86.5184C93.8237 86.6368 93.8708 86.7504 93.9545 86.8341C94.0382 86.9178 94.1518 86.9648 94.2701 86.9648C96.9487 86.9347 100.461 87.7385 101.145 84.3754C101.473 82.6788 101.415 80.8635 101.532 79.1372L101.892 72.9783C101.917 72.3812 101.024 72.3812 100.995 72.9765Z" fill="#162B43"/>
<path d="M88.554 56.4286H96.292C96.3518 56.4305 96.4115 56.4204 96.4673 56.3988C96.5232 56.3772 96.5741 56.3446 96.6171 56.303C96.6601 56.2613 96.6943 56.2114 96.7177 56.1563C96.741 56.1012 96.753 56.0419 96.753 55.982C96.753 55.9221 96.741 55.8629 96.7177 55.8077C96.6943 55.7526 96.6601 55.7027 96.6171 55.6611C96.5741 55.6194 96.5232 55.5868 96.4673 55.5652C96.4115 55.5436 96.3518 55.5335 96.292 55.5354H88.554C88.438 55.5391 88.328 55.5877 88.2473 55.6711C88.1665 55.7545 88.1213 55.866 88.1213 55.982C88.1213 56.0981 88.1665 56.2096 88.2473 56.2929C88.328 56.3763 88.438 56.425 88.554 56.4286Z" fill="#162B43"/>
<path d="M99.4173 56.5471H100.815C100.874 56.5471 100.932 56.5356 100.986 56.5131C101.04 56.4907 101.089 56.4578 101.131 56.4164C101.172 56.3749 101.205 56.3257 101.227 56.2715C101.25 56.2174 101.261 56.1593 101.261 56.1007C101.261 56.0421 101.25 55.984 101.227 55.9299C101.205 55.8757 101.172 55.8265 101.131 55.785C101.089 55.7436 101.04 55.7107 100.986 55.6883C100.932 55.6658 100.874 55.6543 100.815 55.6543H99.4164C99.3578 55.6543 99.2997 55.6658 99.2456 55.6883C99.1914 55.7107 99.1422 55.7436 99.1007 55.785C99.0593 55.8265 99.0264 55.8757 99.004 55.9299C98.9815 55.984 98.97 56.0421 98.97 56.1007C98.97 56.1593 98.9815 56.2174 99.004 56.2715C99.0264 56.3257 99.0593 56.3749 99.1007 56.4164C99.1422 56.4578 99.1914 56.4907 99.2456 56.5131C99.2997 56.5356 99.3578 56.5471 99.4164 56.5471H99.4173Z" fill="#162B43"/>
<path d="M91.0837 48.957L99.5064 49.1058C101.054 49.1354 103.316 48.7484 103.435 50.9211C103.525 52.4091 103.733 54.0459 102.215 54.9091C101.709 55.1788 102.155 55.9507 102.661 55.6828C104.03 54.9091 104.328 54.1354 104.328 52.5876C104.328 51.0397 104.598 49.5225 103.525 48.6593C103.018 48.2426 102.423 48.2723 101.828 48.2426L98.3456 48.1828L91.0837 48.0641C90.5199 48.0358 90.5199 48.9286 91.0837 48.957Z" fill="#162B43"/>
<path d="M45.4872 10.2971L73.4643 10.5947C73.5827 10.5947 73.6962 10.5477 73.7799 10.464C73.8637 10.3803 73.9107 10.2667 73.9107 10.1483C73.9107 10.0299 73.8637 9.91637 73.7799 9.83265C73.6962 9.74894 73.5827 9.7019 73.4643 9.7019L45.4872 9.4043C45.3688 9.4043 45.2552 9.45133 45.1715 9.53505C45.0878 9.61877 45.0408 9.73231 45.0408 9.85071C45.0408 9.9691 45.0878 10.0826 45.1715 10.1664C45.2552 10.2501 45.3688 10.2971 45.4872 10.2971Z" fill="white"/>
<path d="M75.3695 10.5354H77.9887C78.1071 10.5354 78.2207 10.4884 78.3044 10.4046C78.3881 10.3209 78.4351 10.2074 78.4351 10.089C78.4351 9.97059 78.3881 9.85705 78.3044 9.77333C78.2207 9.68961 78.1071 9.64258 77.9887 9.64258H75.3695C75.2511 9.64258 75.1376 9.68961 75.0539 9.77333C74.9701 9.85705 74.9231 9.97059 74.9231 10.089C74.9231 10.2074 74.9701 10.3209 75.0539 10.4046C75.1376 10.4884 75.2511 10.5354 75.3695 10.5354Z" fill="white"/>
<path d="M35.6061 17.47H66.9761C67.0945 17.47 67.208 17.4229 67.2917 17.3392C67.3755 17.2555 67.4225 17.142 67.4225 17.0236C67.4225 16.9052 67.3755 16.7916 67.2917 16.7079C67.208 16.6242 67.0945 16.5771 66.9761 16.5771H35.6061C35.4877 16.5771 35.3741 16.6242 35.2904 16.7079C35.2067 16.7916 35.1597 16.9052 35.1597 17.0236C35.1597 17.142 35.2067 17.2555 35.2904 17.3392C35.3741 17.4229 35.4877 17.47 35.6061 17.47Z" fill="white"/>
<path d="M37.9869 20.4165C47.6895 20.4765 57.3923 20.3575 67.0951 20.0596C67.6603 20.0299 67.6603 19.1366 67.0951 19.1668C57.392 19.4644 47.6892 19.5833 37.9869 19.5237C37.8686 19.5237 37.755 19.5707 37.6713 19.6545C37.5876 19.7382 37.5405 19.8517 37.5405 19.9701C37.5405 20.0885 37.5876 20.2021 37.6713 20.2858C37.755 20.3695 37.8686 20.4165 37.9869 20.4165Z" fill="white"/>
<path d="M49.0289 25.9524H74.2978C74.4162 25.9524 74.5298 25.9054 74.6135 25.8216C74.6972 25.7379 74.7442 25.6244 74.7442 25.506C74.7442 25.3876 74.6972 25.274 74.6135 25.1903C74.5298 25.1066 74.4162 25.0596 74.2978 25.0596H49.0289C48.9105 25.0596 48.797 25.1066 48.7133 25.1903C48.6296 25.274 48.5825 25.3876 48.5825 25.506C48.5825 25.6244 48.6296 25.7379 48.7133 25.8216C48.797 25.9054 48.9105 25.9524 49.0289 25.9524Z" fill="white"/>
<path d="M40.2492 26.1604H42.6004C42.7188 26.1604 42.8323 26.1134 42.9161 26.0296C42.9998 25.9459 43.0468 25.8324 43.0468 25.714C43.0468 25.5956 42.9998 25.482 42.9161 25.3983C42.8323 25.3146 42.7188 25.2676 42.6004 25.2676H40.2492C40.1308 25.2676 40.0172 25.3146 39.9335 25.3983C39.8498 25.482 39.8027 25.5956 39.8027 25.714C39.8027 25.8324 39.8498 25.9459 39.9335 26.0296C40.0172 26.1134 40.1308 26.1604 40.2492 26.1604Z" fill="white"/>
<path d="M41.2608 57.8869C41.1421 56.4582 39.2669 56.3391 38.1358 56.3984C36.142 56.5175 34.3558 57.44 32.7486 58.5711C31.1414 59.7022 29.1476 61.3094 27.0342 62.351C24.9208 63.3926 24.2365 64.5538 23.314 66.339C21.2335 70.3105 20.045 74.6883 19.8316 79.1666C19.7417 81.3389 19.7417 83.6622 20.5163 85.714C21.2909 87.7657 22.5106 89.4938 23.7901 91.19C26.4987 94.7617 29.594 98.5713 34.0286 99.9402C34.5941 100.12 34.8324 99.2555 34.2668 99.077C29.8323 97.7081 26.5581 93.5713 23.9389 89.9402C22.6293 88.0948 21.3498 86.0412 20.9034 83.8092C20.457 81.5772 20.6651 78.4222 21.0832 75.8925C21.4762 73.4153 22.1755 70.9966 23.1652 68.692C24.1178 66.5193 25.0983 64.3762 27.3012 63.2456C29.2192 62.1919 31.0505 60.9876 32.7779 59.6442C33.8195 58.9002 34.9205 58.1562 36.1411 57.7394C36.766 57.5016 40.2479 56.6978 40.367 57.8887C40.3976 58.452 41.2922 58.452 41.2608 57.8869Z" fill="#162B43"/>
<path d="M33.6415 99.8216C33.8501 101.994 34.8918 103.75 36.2607 105.387C37.9574 107.5 39.8024 109.554 41.9455 111.221C42.3919 111.578 43.0168 110.951 42.5704 110.596C40.8453 109.163 39.2517 107.579 37.8086 105.863C36.2908 104.11 34.7726 102.233 34.5348 99.8216C34.475 99.2561 33.5822 99.2561 33.6415 99.8216Z" fill="#162B43"/>
<path d="M42.8982 53.6607C41.8561 55.5354 40.2192 56.8449 38.7312 58.3334C37.2431 59.8219 35.6655 61.9937 34.0287 63.7497C30.6951 67.3807 26.9453 70.5951 23.85 74.4343C22.9571 75.5654 22.7485 77.1132 23.85 78.2438C24.9514 79.3745 26.7367 79.3749 27.63 78.2438C30.8439 74.2261 34.7727 70.9525 38.1948 67.1726C39.7724 65.4166 41.1417 63.4521 42.838 61.7856C44.5342 60.1191 46.3203 58.5119 47.5108 56.3689C49.1778 53.333 44.5351 50.6249 42.8982 53.6607Z" fill="#007EEF"/>
<path d="M34.2668 100C37.9854 96.2765 42.2142 93.0998 46.8264 90.5656C49.148 89.2857 52.3031 87.1728 55.0409 87.8575C57.7788 88.5421 60.4578 90.5656 62.9282 91.9646C64.2377 92.7086 65.6368 93.3928 66.8273 94.3158C68.0177 95.2387 68.4641 95.8038 69.357 96.4885C71.2303 97.8533 73.2583 98.9921 75.3987 99.8813C79.7739 101.756 84.3869 103.065 88.4645 105.596C88.9406 105.893 89.387 105.119 88.911 104.821C85.6075 102.768 81.9467 101.488 78.3461 100.089C76.4139 99.3911 74.5342 98.5557 72.7211 97.5894C70.7565 96.5181 69.1794 95.0895 67.4531 93.6904C65.7267 92.2914 63.7329 91.3977 61.8577 90.3278C59.9826 89.2578 58.0481 87.9766 55.9648 87.2321C53.8815 86.4877 52.6609 86.8158 50.9647 87.5598C48.9233 88.4238 46.9442 89.4282 45.0416 90.5656C40.8949 93.0116 37.0663 95.9606 33.6428 99.3454C33.5584 99.4288 33.5101 99.5421 33.5084 99.6607C33.5066 99.7794 33.5515 99.894 33.6335 99.9799C33.7154 100.066 33.8278 100.116 33.9464 100.12C34.065 100.124 34.1804 100.081 34.2677 100H34.2668Z" fill="#162B43"/>
<path d="M53.1064 110.565C52.0351 111.577 50.9633 112.619 49.8623 113.601C48.7613 114.583 48.5231 115.238 47.1838 114.672C46.6183 114.405 45.9632 113.661 45.4871 113.244C45.011 112.827 44.4158 113.514 44.8622 113.869C45.8144 114.672 47.392 116.756 48.7312 115.802C50.547 114.522 52.1542 112.707 53.7313 111.189C53.7824 111.151 53.8247 111.102 53.8554 111.046C53.8863 110.99 53.9045 110.928 53.9089 110.864C53.9135 110.8 53.9043 110.736 53.8819 110.676C53.8596 110.616 53.8247 110.561 53.7794 110.516C53.7342 110.471 53.6798 110.436 53.6198 110.414C53.5598 110.392 53.4958 110.382 53.432 110.387C53.3682 110.391 53.3061 110.409 53.2498 110.44C53.1937 110.471 53.1448 110.514 53.1064 110.565Z" fill="#162B43"/>
<path d="M47.7493 116.042C49.8474 117.82 52.2888 119.148 54.9217 119.942C54.9803 119.964 55.0428 119.974 55.1054 119.971C55.168 119.968 55.2292 119.951 55.2851 119.923C55.341 119.895 55.3904 119.855 55.4301 119.807C55.4698 119.758 55.4989 119.702 55.5156 119.642C55.5323 119.581 55.5362 119.518 55.527 119.456C55.5178 119.394 55.4958 119.335 55.4623 119.282C55.4288 119.229 55.3846 119.183 55.3325 119.149C55.2805 119.114 55.2217 119.09 55.16 119.079C52.6748 118.328 50.3668 117.083 48.3742 115.418C47.9575 115.03 47.3029 115.655 47.7493 116.042Z" fill="#162B43"/>
<path d="M33.4036 75.6549C35.1299 74.6128 36.2012 72.7679 36.8261 70.8631C37.451 68.9583 37.6893 66.9344 38.1955 65C38.5525 63.6904 39.0286 62.3809 39.8621 61.3392C40.6956 60.2976 42.0052 59.5239 43.3444 59.5833C43.7186 59.5807 44.0873 59.6736 44.4157 59.853C45.3679 60.3889 45.5469 61.7281 45.5167 62.8587C45.4894 65.011 45.1894 67.1512 44.6239 69.2281C44.0885 71.1922 43.3444 73.1841 43.731 75.1505C43.9059 75.9522 44.2181 76.7175 44.654 77.4127C46.7373 80.9839 50.636 83.3054 52.6599 86.9361L33.4036 75.6549Z" fill="white"/>
<path d="M33.642 76.0413C37.0942 73.7486 37.5703 69.6428 38.4335 65.9222C38.9694 63.6295 39.9215 60.6247 42.6005 60.0892C46.0528 59.3749 45.0705 64.5848 44.7728 66.4878C44.4752 68.3907 43.5527 70.7437 43.2551 72.9164C43.0334 74.7182 43.4781 76.5388 44.5053 78.0355C46.648 81.4283 50.2198 83.6604 52.3031 87.1426C52.5729 87.6484 53.3448 87.202 53.0471 86.6962C50.7256 82.7676 46.0528 80.2972 44.4154 75.9518C43.4053 73.2734 44.892 70.4164 45.4283 67.7973C45.8451 65.8332 46.2317 63.5715 45.9044 61.5773C45.2197 57.7381 40.8148 59.1366 39.178 61.5175C36.2913 65.7433 37.8985 72.1427 33.1659 75.2676C32.6893 75.5949 33.1358 76.3686 33.642 76.0413Z" fill="#162B43"/>
<path d="M99.7448 31.6966C100.586 31.7965 101.414 31.9861 102.215 32.2621C102.602 32.4109 102.781 31.786 102.395 31.6372C101.534 31.351 100.647 31.1516 99.7461 31.042C99.328 31.0119 99.328 31.6669 99.7448 31.6966Z" fill="#162B43"/>
<path d="M96.5303 47.1726C97.374 47.2579 98.2038 47.4478 99.0007 47.7377C99.3878 47.8569 99.5663 47.232 99.1495 47.1128C98.3036 46.8098 97.4242 46.6099 96.5303 46.5176C96.1136 46.488 96.1136 47.1133 96.5303 47.1726Z" fill="#162B43"/>
<path d="M97.1551 43.7205C97.9969 43.8172 98.8255 44.0068 99.6255 44.2861C100.013 44.4349 100.191 43.81 99.8053 43.6612C98.9482 43.3672 98.0589 43.1773 97.1565 43.0957C96.7388 43.0359 96.7689 43.6909 97.1551 43.7205Z" fill="#162B43"/>
<path d="M97.8102 40.5051C98.6546 40.5905 99.4852 40.7805 100.283 41.0707C100.669 41.2195 100.848 40.5946 100.463 40.4458C99.6017 40.1595 98.7144 39.9601 97.8138 39.8506C97.3934 39.8213 97.3934 40.4763 97.8102 40.5051Z" fill="#162B43"/>
<path d="M98.4647 37.2916C99.3091 37.3769 100.14 37.5669 100.937 37.8571C101.324 37.9763 101.473 37.3514 101.086 37.2323C100.238 36.9327 99.3587 36.7336 98.4647 36.6388C98.0479 36.6074 98.0479 37.2323 98.4647 37.2916Z" fill="#162B43"/>
<path d="M99.09 34.4944C99.9341 34.5768 100.764 34.7668 101.56 35.06C101.947 35.1791 102.126 34.5839 101.74 34.4351C100.884 34.1318 99.9945 33.932 99.0909 33.8399C98.6733 33.8098 98.6733 34.4648 99.09 34.4944Z" fill="#162B43"/>
<path d="M84.3276 34.821C84.9306 34.5749 85.5905 34.5028 86.2324 34.6128C86.7979 34.6425 86.7979 33.7497 86.2324 33.72C85.6668 33.6903 84.6252 33.6602 83.8811 34.0473C83.1371 34.4344 83.8214 35.0889 84.3276 34.821Z" fill="#162B43"/>
<path d="M86.5894 39.6726C86.4732 40.5487 86.2533 41.408 85.9344 42.2323L86.7976 42.3515C86.4703 39.6726 87.1248 36.9348 86.0239 34.4051C85.7856 33.8692 85.0119 34.3152 85.2497 34.8515C86.2913 37.2023 85.6094 39.8515 85.9047 42.3515C85.897 42.4102 85.901 42.4698 85.9164 42.527C85.9319 42.5842 85.9584 42.6377 85.9946 42.6846C86.0307 42.7314 86.0754 42.7708 86.1264 42.8006C86.1905 42.8384 86.263 42.8597 86.3374 42.8626C86.4118 42.8654 86.4857 42.8498 86.5526 42.817C86.6194 42.7843 86.6771 42.7354 86.7204 42.6749C86.7637 42.6144 86.7913 42.544 86.8007 42.4702C87.1439 41.5696 87.3738 40.6299 87.485 39.6726C87.542 39.1075 86.6492 39.1075 86.5894 39.6726Z" fill="#162B43"/>
<path d="M25.0701 74.6426C26.1118 74.9896 27.0315 75.6296 27.719 76.4857C28.0764 76.9322 28.7013 76.3059 28.3439 75.8609C27.5456 74.8975 26.4944 74.176 25.3084 73.7776C24.7725 73.6009 24.5342 74.4636 25.0701 74.6426Z" fill="#162B43"/>
<path d="M24.9213 76.6074C25.1081 76.6148 25.2875 76.6826 25.4325 76.8008C25.5775 76.9189 25.6802 77.0809 25.7251 77.2624C25.8438 77.8275 26.707 77.5897 26.5878 77.0241C26.4864 76.6564 26.2699 76.3309 25.97 76.0952C25.6701 75.8595 25.3025 75.7261 24.9213 75.7146C24.326 75.6849 24.326 76.5777 24.9213 76.6074Z" fill="white"/>
<path d="M28.9395 74.2564C29.9912 73.1253 31.0625 72.0242 32.1534 70.953C32.1966 70.912 32.2311 70.8628 32.255 70.8083C32.291 70.7265 32.302 70.6359 32.2866 70.5479C32.2711 70.4598 32.23 70.3784 32.1683 70.3137C32.1276 70.2709 32.0788 70.2365 32.0248 70.2125C31.9708 70.1885 31.9126 70.1754 31.8536 70.1739C31.7336 70.1714 31.6174 70.2163 31.5303 70.2989C30.4293 71.4003 29.3576 72.4716 28.3159 73.6027C27.9275 74.0482 28.5524 74.6717 28.9395 74.2564Z" fill="white"/>
<path d="M33.1358 69.5537L33.3444 69.3154C33.378 69.252 33.4298 69.2001 33.4932 69.1666C33.4932 69.1369 33.5229 69.1369 33.5526 69.1072H33.5823C33.6329 69.0797 33.6772 69.0419 33.7125 68.9963C33.7478 68.9508 33.7733 68.8984 33.7873 68.8425C33.8014 68.7865 33.8037 68.7282 33.794 68.6713C33.7843 68.6144 33.7629 68.5602 33.7311 68.512C33.6748 68.4105 33.5811 68.3349 33.47 68.3013C33.3588 68.2677 33.2389 68.2788 33.1358 68.3322C32.8359 68.5476 32.5825 68.8213 32.3909 69.1369C32.3436 69.1851 32.3078 69.2434 32.2861 69.3073C32.2536 69.4038 32.255 69.5086 32.29 69.6042C32.3251 69.6999 32.3918 69.7807 32.479 69.8333C32.5371 69.8679 32.6023 69.8891 32.6696 69.8953C32.7712 69.9044 32.8728 69.8784 32.9575 69.8216C33.0421 69.7648 33.1048 69.6807 33.1349 69.5833L33.1358 69.5537Z" fill="white"/>
<path d="M47.1838 52.1429L46.6479 53.3625C46.5932 53.4701 46.5814 53.5944 46.6148 53.7104C46.6482 53.8263 46.7242 53.9253 46.8277 53.9874C46.8777 54.0182 46.9335 54.0381 46.9917 54.0459C47.0499 54.0536 47.109 54.049 47.1653 54.0324C47.2217 54.0152 47.2738 53.9863 47.3182 53.9476C47.3626 53.9088 47.3983 53.8611 47.4229 53.8076L47.9588 52.5871C48.0134 52.4848 48.0262 52.3652 47.9943 52.2537C47.9624 52.1422 47.8884 52.0475 47.788 51.9895C47.6875 51.9315 47.5684 51.9149 47.4559 51.9431C47.3435 51.9713 47.2463 52.0421 47.1851 52.1406L47.1838 52.1429Z" fill="white"/>
<path d="M46.2015 54.5238C45.8648 55.0404 45.4858 55.5281 45.0686 55.9821C44.7022 56.3232 44.373 56.7022 44.0867 57.1128C43.7891 57.5889 44.5628 58.0654 44.8604 57.5592C45.158 57.053 45.5748 56.7558 45.9317 56.3391C46.3117 55.9086 46.6598 55.4511 46.9734 54.9702C47.3029 54.5238 46.5288 54.0774 46.2015 54.5238Z" fill="white"/>
<path d="M43.88 58.7795C43.9834 58.7797 44.0837 58.7441 44.1639 58.6787C44.244 58.6133 44.2989 58.5221 44.3193 58.4207C44.3397 58.3193 44.3243 58.2139 44.2756 58.1226C44.227 58.0313 44.1483 57.9597 44.0527 57.92C43.9572 57.8803 43.8509 57.8749 43.7519 57.9049C43.6529 57.9348 43.5673 57.9982 43.5098 58.0841C43.4523 58.1701 43.4264 58.2734 43.4365 58.3763C43.4466 58.4793 43.4921 58.5755 43.5653 58.6486C43.6487 58.7322 43.7619 58.7792 43.88 58.7795Z" fill="white"/>
<path d="M86.411 84.9104H89.9527C90.0711 84.9104 90.1847 84.8634 90.2684 84.7796C90.3521 84.6959 90.3991 84.5824 90.3991 84.464C90.3991 84.3456 90.3521 84.232 90.2684 84.1483C90.1847 84.0646 90.0711 84.0176 89.9527 84.0176H86.411C86.2926 84.0176 86.1791 84.0646 86.0953 84.1483C86.0116 84.232 85.9646 84.3456 85.9646 84.464C85.9646 84.5824 86.0116 84.6959 86.0953 84.7796C86.1791 84.8634 86.2926 84.9104 86.411 84.9104Z" fill="white"/>
<path d="M94.566 85.0889L96.9173 85.0291C97.4527 84.9995 98.2268 85.1191 98.7029 84.8803C99.179 84.6416 99.3575 82.9473 99.3278 82.2019C99.2982 81.4565 98.4053 81.6363 98.435 82.2019C98.4647 82.7674 98.435 83.0947 98.4053 83.5114C98.3757 83.9282 98.2255 84.077 97.5718 84.1067L94.566 84.1966C94.0005 84.2258 94.0005 85.1186 94.566 85.0889Z" fill="white"/>
<path d="M99.5366 80.3865V77.5889C99.5329 77.4729 99.4843 77.3629 99.4009 77.2822C99.3175 77.2014 99.206 77.1563 99.09 77.1562C98.9739 77.1563 98.8624 77.2014 98.779 77.2822C98.6957 77.3629 98.647 77.4729 98.6433 77.5889V80.3865C98.647 80.5025 98.6957 80.6125 98.779 80.6933C98.8624 80.7741 98.9739 80.8192 99.09 80.8192C99.206 80.8192 99.3175 80.7741 99.4009 80.6933C99.4843 80.6125 99.5329 80.5025 99.5366 80.3865Z" fill="white"/>
<path d="M99.0897 76.756C99.1931 76.7563 99.2935 76.7207 99.3736 76.6553C99.4537 76.5898 99.5086 76.4986 99.529 76.3972C99.5494 76.2958 99.534 76.1905 99.4854 76.0992C99.4368 76.0079 99.358 75.9362 99.2624 75.8965C99.1669 75.8568 99.0606 75.8515 98.9616 75.8814C98.8626 75.9114 98.777 75.9747 98.7195 76.0607C98.662 76.1467 98.6361 76.2499 98.6462 76.3529C98.6563 76.4558 98.7018 76.5521 98.775 76.6252C98.8587 76.7084 98.9717 76.7554 99.0897 76.756Z" fill="white"/>
<path d="M100.012 67.4999V66.0118C100.012 65.8934 99.9654 65.7799 99.8817 65.6962C99.798 65.6125 99.6844 65.5654 99.566 65.5654C99.4476 65.5654 99.3341 65.6125 99.2504 65.6962C99.1667 65.7799 99.1196 65.8934 99.1196 66.0118V67.4999C99.1196 67.6183 99.1667 67.7318 99.2504 67.8155C99.3341 67.8992 99.4476 67.9463 99.566 67.9463C99.6844 67.9463 99.798 67.8992 99.8817 67.8155C99.9654 67.7318 100.012 67.6183 100.012 67.4999Z" fill="white"/>
<path d="M113.822 70.982H113.793L101.977 70.7734C101.897 70.7739 101.818 70.7575 101.746 70.7255C101.673 70.6934 101.608 70.6464 101.554 70.5874C101.501 70.5284 101.46 70.4589 101.436 70.3832C101.411 70.3076 101.403 70.2277 101.411 70.1486C101.419 69.9959 101.485 69.8521 101.596 69.7468C101.706 69.6416 101.853 69.5829 102.006 69.583L113.822 69.7916C113.901 69.7915 113.978 69.8069 114.05 69.8368C114.122 69.8667 114.188 69.9105 114.243 69.9658C114.299 70.0211 114.342 70.0867 114.372 70.159C114.402 70.2312 114.418 70.3086 114.418 70.3868C114.41 70.5423 114.345 70.6894 114.235 70.7995C114.125 70.9095 113.978 70.9746 113.822 70.982Z" fill="#162B43"/>
<path d="M20.6949 86.1602H4.35536C4.23696 86.1602 4.12341 86.2072 4.03969 86.2909C3.95597 86.3746 3.90894 86.4882 3.90894 86.6066C3.90894 86.725 3.95597 86.8385 4.03969 86.9222C4.12341 87.0059 4.23696 87.053 4.35536 87.053H20.6949C20.8133 87.053 20.9269 87.0059 21.0106 86.9222C21.0943 86.8385 21.1413 86.725 21.1413 86.6066C21.1413 86.4882 21.0943 86.3746 21.0106 86.2909C20.9269 86.2072 20.8133 86.1602 20.6949 86.1602Z" fill="#162B43"/>
<path d="M23.2545 91.2793H15.0994C14.9415 91.2793 14.7901 91.2166 14.6785 91.105C14.5669 90.9933 14.5042 90.8419 14.5042 90.6841C14.5042 90.5262 14.5669 90.3748 14.6785 90.2632C14.7901 90.1516 14.9415 90.0889 15.0994 90.0889H23.2545C23.4124 90.0889 23.5638 90.1516 23.6754 90.2632C23.7871 90.3748 23.8498 90.5262 23.8498 90.6841C23.8498 90.8419 23.7871 90.9933 23.6754 91.105C23.5638 91.2166 23.4124 91.2793 23.2545 91.2793Z" fill="#162B43"/>
<path d="M8.43282 69.583H4.35524C4.19737 69.583 4.04598 69.5203 3.93435 69.4087C3.82272 69.297 3.76001 69.1457 3.76001 68.9878C3.76001 68.8299 3.82272 68.6785 3.93435 68.5669C4.04598 68.4553 4.19737 68.3926 4.35524 68.3926H8.43282C8.59069 68.3926 8.74209 68.4553 8.85371 68.5669C8.96534 68.6785 9.02805 68.8299 9.02805 68.9878C9.02805 69.1457 8.96534 69.297 8.85371 69.4087C8.74209 69.5203 8.59069 69.583 8.43282 69.583Z" fill="#162B43"/>
<path d="M22.6293 69.583H12.3018C12.1439 69.583 11.9925 69.5203 11.8809 69.4087C11.7693 69.297 11.7065 69.1457 11.7065 68.9878C11.7065 68.8299 11.7693 68.6785 11.8809 68.5669C11.9925 68.4553 12.1439 68.3926 12.3018 68.3926H22.6293C22.7871 68.3926 22.9385 68.4553 23.0501 68.5669C23.1618 68.6785 23.2245 68.8299 23.2245 68.9878C23.2245 69.1457 23.1618 69.297 23.0501 69.4087C22.9385 69.5203 22.7871 69.583 22.6293 69.583Z" fill="#162B43"/>
<path d="M84.4764 32.4402L85.1908 32.3503C85.4286 32.3202 85.6669 32.1705 85.6372 31.9034C85.6371 31.7851 85.59 31.6716 85.5063 31.5879C85.4227 31.5042 85.3092 31.4572 85.1908 31.457L84.4764 31.5469C84.3603 31.5539 84.2508 31.6031 84.1685 31.6854C84.0862 31.7677 84.037 31.8772 84.03 31.9934C84.0597 32.2024 84.2382 32.4699 84.4764 32.4402Z" fill="white"/>
<path d="M98.4647 29.8217L101.709 30.4767C102.274 30.5959 102.513 29.7624 101.947 29.6136L98.7021 28.9586C98.1375 28.8696 97.8992 29.7327 98.4647 29.8217Z" fill="white"/>
<path d="M96.3222 29.464C96.5695 29.5538 96.8345 29.5846 97.0959 29.5539C97.1545 29.554 97.2126 29.5425 97.2668 29.5201C97.321 29.4977 97.3702 29.4648 97.4117 29.4233C97.4531 29.3818 97.486 29.3326 97.5084 29.2784C97.5308 29.2242 97.5423 29.1662 97.5423 29.1075C97.5126 28.8994 97.3341 28.6314 97.0959 28.6611C96.9151 28.6873 96.7306 28.6668 96.56 28.6018C96.4456 28.5748 96.3252 28.594 96.225 28.6553C96.1247 28.7166 96.0527 28.815 96.0245 28.929C96.0065 28.9838 95.9999 29.0416 96.0052 29.099C96.0133 29.1851 96.0479 29.2665 96.1043 29.3321C96.1606 29.3976 96.236 29.444 96.3199 29.4649L96.3222 29.464Z" fill="white"/>
<path d="M84.3572 35.2084C84.287 35.5053 84.3078 35.8164 84.417 36.1012C84.4451 36.2153 84.5171 36.3137 84.6174 36.375C84.7176 36.4363 84.838 36.4555 84.9524 36.4285C85.0689 36.3939 85.1677 36.316 85.2285 36.2108C85.2894 36.1057 85.3077 35.9812 85.2797 35.863C85.2185 35.7333 85.1978 35.5883 85.2203 35.4467C85.2473 35.3323 85.2281 35.2118 85.1668 35.1115C85.1056 35.0112 85.0072 34.9391 84.893 34.9108C84.8384 34.8927 84.7805 34.8861 84.7232 34.8915C84.6658 34.8969 84.6102 34.9142 84.5599 34.9423C84.5097 34.9704 84.4657 35.0085 84.4309 35.0543C84.396 35.1001 84.3709 35.1525 84.3572 35.2084Z" fill="white"/>
<path d="M85.1309 37.5002C85.2344 37.5004 85.3347 37.4648 85.4148 37.3994C85.495 37.334 85.5499 37.2428 85.5703 37.1414C85.5907 37.04 85.5752 36.9346 85.5266 36.8433C85.478 36.752 85.3992 36.6804 85.3037 36.6407C85.2082 36.601 85.1019 36.5956 85.0028 36.6256C84.9038 36.6555 84.8183 36.7189 84.7607 36.8048C84.7032 36.8908 84.6773 36.9941 84.6874 37.097C84.6976 37.2 84.7431 37.2962 84.8162 37.3693C84.8999 37.4526 85.0129 37.4995 85.1309 37.5002Z" fill="white"/>
<path d="M43.6718 104.077C46.5584 104.077 46.5584 99.6133 43.6718 99.6133C40.7851 99.6133 40.7846 104.077 43.6718 104.077Z" fill="#DBF122"/>
<path d="M57.6008 106.935C60.1898 105.685 62.0065 103.482 63.9698 101.458C64.9627 100.342 66.1162 99.3789 67.3924 98.6015C68.4043 98.0063 69.3866 97.6489 69.865 96.4886C70.0736 95.9824 69.2104 95.7446 69.0018 96.2504C68.5554 97.3814 66.5018 98.036 65.5496 98.7503C64.6593 99.4826 63.8237 100.279 63.0495 101.133C61.2337 103.008 59.5375 105.002 57.1566 106.163C56.6185 106.429 57.0945 107.203 57.6008 106.935Z" fill="#162B43"/>
<path d="M45.8446 104.167C45.671 104.417 45.5571 104.704 45.5116 105.005C45.4661 105.306 45.4903 105.614 45.5822 105.904C45.6742 106.195 45.8315 106.46 46.042 106.68C46.2525 106.9 46.5107 107.069 46.7968 107.174C48.315 107.74 50.4576 107.472 51.5289 106.162C52.6002 104.853 52.0945 103.692 50.6662 103.127C49.8789 102.836 49.0285 102.76 48.2022 102.907C47.3758 103.053 46.6033 103.416 45.9637 103.96C45.5168 104.347 46.1435 104.972 46.5886 104.615C47.302 103.991 48.2312 103.67 49.1777 103.722C50.16 103.752 51.7672 104.347 50.8447 105.565C49.9222 106.783 49.2375 106.547 48.2848 106.518C47.3322 106.488 45.7848 105.923 46.5886 104.613C46.9159 104.137 46.1422 103.691 45.8446 104.167Z" fill="#162B43"/>
<path d="M47.3615 105.089L48.552 105.506C48.939 105.576 49.2994 105.751 49.5936 106.012C49.9807 106.459 50.6056 105.804 50.2486 105.387C49.9484 105.078 49.5663 104.862 49.1472 104.762L47.5998 104.226C47.0351 104.048 46.7968 104.911 47.3615 105.089Z" fill="#162B43"/>
<path d="M48.1959 105.863C48.3933 105.606 48.6233 105.376 48.8801 105.179L49.7136 104.435C50.16 104.078 49.5338 103.453 49.0887 103.81C48.6436 104.167 47.8384 104.762 47.4217 105.417C47.0049 106.071 47.8681 106.34 48.1959 105.863Z" fill="#162B43"/>
<path d="M41.6774 65.5656C42.5109 65.6249 43.2846 65.5953 43.9095 65.0001C44.5344 64.4049 44.7727 63.601 44.9813 62.8274C44.9969 62.7708 45.0012 62.7116 44.9939 62.6534C44.9867 62.595 44.968 62.5387 44.939 62.4875C44.91 62.4364 44.8712 62.3915 44.8248 62.3553C44.7786 62.319 44.7255 62.2923 44.6688 62.2767C44.6121 62.2613 44.5528 62.257 44.4944 62.2641C44.4361 62.2713 44.3797 62.29 44.3285 62.3189C44.2776 62.3482 44.2327 62.3869 44.1963 62.4331C44.1604 62.4797 44.1338 62.5328 44.1181 62.5895C43.9693 63.1546 43.8205 63.78 43.4038 64.256C42.987 64.7321 42.3028 64.7321 41.6774 64.6728C41.0521 64.6134 41.1123 65.5058 41.6774 65.5656Z" fill="#162B43"/>
<path d="M110.786 97.4107C109.15 97.4107 108.525 94.3155 108.286 92.4701C106.322 92.2903 102.899 91.6964 102.899 89.9108C102.899 88.1252 106.262 87.5596 108.197 87.3807C108.377 85.4764 108.941 81.6367 110.786 81.6367C112.631 81.6367 113.227 85.4764 113.376 87.3807C115.34 87.5605 118.674 88.1845 118.674 89.9108C118.674 91.6371 115.281 92.2934 113.316 92.4701C113.078 94.3169 112.453 97.4107 110.786 97.4107ZM104.268 89.9108C104.447 90.2084 105.785 90.9228 108.94 91.1606L109.536 91.2204V91.7859C109.805 94.6132 110.488 95.8629 110.756 96.0419C111.024 96.2208 111.708 94.6132 111.976 91.7859L112.036 91.2204L112.601 91.1606C115.786 90.9228 117.097 90.2084 117.274 89.9108C117.45 89.6132 115.816 88.9285 112.661 88.6606H112.125L112.065 88.0654C111.886 84.9108 111.143 83.2439 110.785 83.0357C110.428 82.8276 109.714 84.9108 109.506 88.0654V88.6606H108.91C105.757 88.9285 104.447 89.6415 104.269 89.9113L104.268 89.9108Z" fill="#DBF122"/>
<path d="M91.4407 22.2619C90.7861 22.2619 90.31 21.6069 90.1311 20.3572C89.0895 20.238 88.0474 19.8811 88.0474 19.0161C88.0474 18.1512 89.0593 17.8257 90.0704 17.6765C90.2192 16.5755 90.5465 15.4736 91.4394 15.4736C92.3322 15.4736 92.6599 16.5746 92.8087 17.6765C93.8207 17.8257 94.8318 18.1827 94.8318 19.0161C94.8318 19.8496 93.7901 20.2362 92.7485 20.3554C92.543 21.6069 92.0957 22.2619 91.4407 22.2619ZM90.31 19.0161L90.7861 19.0755H91.3517L91.411 19.6707C91.4062 19.7708 91.4162 19.8711 91.4407 19.9683C91.4407 19.8784 91.4704 19.7601 91.4704 19.6707L91.5302 19.0755H92.0957L92.5718 19.0161H92.1254L91.5302 18.9563V18.3629C91.5005 18.1548 91.5005 17.9462 91.4704 17.7677C91.4344 17.9642 91.4146 18.1632 91.411 18.3629V18.9581L90.8158 19.0161H90.31Z" fill="#162B43"/>
<path d="M98.1078 12.7674C96.7685 12.7674 96.2327 10.5353 95.9948 8.83872C94.3876 8.68992 91.7388 8.18417 91.7388 6.69614C91.7388 5.20811 94.3283 4.73158 95.9355 4.5531C96.0838 2.85738 96.5892 0 98.1078 0C99.6264 0 100.131 2.85738 100.311 4.55355C101.888 4.73338 104.507 5.23823 104.507 6.69659C104.507 8.15495 101.858 8.69037 100.221 8.83917C100.013 10.5358 99.4767 12.7674 98.1078 12.7674ZM93.167 6.69839C93.4647 6.96587 94.5661 7.38261 96.6791 7.56108H97.2446L97.304 8.12663C97.4838 10.0314 97.8992 11.0137 98.1078 11.3113C98.3456 11.0137 98.7624 10.0314 98.9413 8.12663L99.0006 7.56108H99.5662C101.65 7.38126 102.751 6.96587 103.078 6.69839C102.751 6.46012 101.679 6.01371 99.6255 5.86491L99.0303 5.80557V5.20811C98.8815 3.03585 98.4351 1.78564 98.1375 1.42869C97.8677 1.78564 97.3934 3.03585 97.2743 5.20811V5.80377L96.6791 5.86311C94.5661 6.01191 93.4647 6.45832 93.167 6.69839Z" fill="#DBF122"/>
<path d="M12.1827 51.0419C11.4984 51.0419 11.052 50.3869 10.8434 49.1668C9.80177 49.018 8.78979 48.6611 8.78979 47.7979C8.78979 46.9348 9.7721 46.6075 10.8129 46.4587C10.932 45.3573 11.2889 44.2559 12.1818 44.2559C13.0746 44.2559 13.4024 45.3568 13.5211 46.4587C14.5632 46.6075 15.5747 46.9644 15.5747 47.7979C15.5747 48.6314 14.533 49.018 13.4914 49.1668C13.2841 50.3869 12.8377 51.0419 12.1827 51.0419ZM11.052 47.7979L11.4984 47.8573L12.0937 47.917V48.4821C12.1233 48.6013 12.1233 48.6907 12.153 48.7797C12.1827 48.8688 12.1827 48.5999 12.1827 48.4821L12.2425 47.917L12.808 47.8573L13.2841 47.7979H12.8377L12.2425 47.7381V47.1429C12.2128 46.9348 12.2128 46.7262 12.1827 46.5477C12.1468 46.7442 12.1269 46.9432 12.1233 47.1429V47.7381L11.5281 47.7979H11.052Z" fill="#162B43"/>
<path d="M39.1478 100.03C40.755 98.2445 43.0469 97.5001 44.9814 96.1312C46.9159 94.7623 48.6422 92.5896 50.3385 90.7743C50.7552 90.3575 50.1006 89.7326 49.7136 90.1489C47.8703 92.1135 46.1121 94.435 43.8206 95.8632C41.9774 96.9647 39.9813 97.768 38.4932 99.3752C38.1061 99.8216 38.7607 100.447 39.1478 100.03Z" fill="white"/>
<path d="M51.8863 90.0304C52.4039 89.762 52.9541 89.5619 53.5232 89.4351C53.5798 89.4193 53.6328 89.3926 53.6792 89.3565C53.7256 89.3203 53.7644 89.2754 53.7934 89.2243C53.8224 89.1731 53.8411 89.1168 53.8483 89.0584C53.8558 89.0002 53.8515 88.941 53.8357 88.8844C53.82 88.8278 53.7935 88.7748 53.7574 88.7284C53.6844 88.6348 53.5772 88.5739 53.4594 88.559C53.4009 88.5518 53.3417 88.5563 53.2849 88.572C52.6465 88.7292 52.0281 88.9587 51.4417 89.2562C50.9337 89.5242 51.3801 90.2978 51.8863 90.0304Z" fill="white"/>
<path d="M63.9402 98.9285C64.3944 98.1439 65.1277 97.5594 65.9938 97.2916C66.5297 97.1118 66.2914 96.25 65.7556 96.4285C64.6748 96.7646 63.754 97.4841 63.1665 98.4515C63.1352 98.5023 63.1143 98.5587 63.1048 98.6176C63.0954 98.6765 63.0977 98.7367 63.1115 98.7947C63.1253 98.8528 63.1504 98.9075 63.1854 98.9558C63.2204 99.0042 63.2645 99.0451 63.3153 99.0764C63.3661 99.1076 63.4226 99.1286 63.4815 99.138C63.5404 99.1475 63.6005 99.1452 63.6586 99.1314C63.7166 99.1176 63.7713 99.0925 63.8197 99.0575C63.868 99.0225 63.9089 98.9784 63.9402 98.9276V98.9285Z" fill="white"/>
<path d="M58.8506 103.572C59.5213 102.852 60.2815 102.222 61.1128 101.696C61.1654 101.666 61.2113 101.625 61.2479 101.577C61.2845 101.528 61.311 101.473 61.3258 101.414C61.3407 101.355 61.3435 101.294 61.3343 101.234C61.3251 101.174 61.3039 101.116 61.2721 101.065C61.2402 101.013 61.1983 100.968 61.1489 100.933C61.0994 100.898 61.0434 100.873 60.9841 100.86C60.9249 100.846 60.8635 100.845 60.8038 100.856C60.744 100.867 60.6871 100.89 60.6363 100.923C59.7442 101.496 58.9249 102.176 58.196 102.946C58.1131 103.033 58.0681 103.149 58.0709 103.269C58.0737 103.389 58.124 103.503 58.2108 103.586C58.2976 103.668 58.4138 103.713 58.5338 103.711C58.6537 103.708 58.7677 103.657 58.8506 103.571V103.572Z" fill="white"/>
</g>
<defs>
<clipPath id="clip0_222_4315">
<rect width="120" height="120" fill="white"/>
</clipPath>
</defs>
</svg>
