<svg width="104" height="104" viewBox="0 0 104 104" fill="none" xmlns="http://www.w3.org/2000/svg">
<g clip-path="url(#clip0_222_5361)">
<path d="M54.8809 12.5725L13.504 33.9883C12.9063 34.2975 12.3751 34.7217 11.9409 35.2368C11.5067 35.7519 11.178 36.3477 10.9735 36.9902C10.7691 37.6328 10.6928 38.3094 10.7492 38.9815C10.8056 39.6536 10.9935 40.3079 11.3021 40.9072L31.0079 79.195C31.3161 79.7945 31.7392 80.3272 32.2528 80.7626C32.7665 81.198 33.3606 81.5277 34.0014 81.7328C34.6421 81.9379 35.3169 82.0143 35.9871 81.9578C36.6573 81.9013 37.3099 81.7129 37.9075 81.4034L79.2844 59.9877C79.8821 59.6785 80.4133 59.2543 80.8475 58.7392C81.2816 58.2241 81.6104 57.6283 81.8148 56.9857C82.0193 56.3432 82.0955 55.6666 82.0392 54.9945C81.9828 54.3224 81.7949 53.668 81.4863 53.0688L61.7805 14.7805C61.4722 14.1811 61.0491 13.6485 60.5355 13.2131C60.0218 12.7777 59.4277 12.4481 58.7869 12.243C58.1462 12.038 57.4714 11.9615 56.8012 12.0181C56.131 12.0746 55.4785 12.263 54.8809 12.5725Z" fill="#162B43"/>
<path d="M44.751 20.506L6.42333 47.0207C5.86963 47.4035 5.39658 47.892 5.03119 48.4582C4.6658 49.0244 4.41525 49.6573 4.29383 50.3206C4.17242 50.984 4.18253 51.6648 4.32359 52.3242C4.46464 52.9837 4.73388 53.6088 5.11591 54.1638L29.5137 89.6287C29.8955 90.184 30.3826 90.6584 30.9472 91.0248C31.5119 91.3912 32.143 91.6424 32.8045 91.7642C33.466 91.8859 34.1449 91.8758 34.8025 91.7343C35.4601 91.5929 36.0834 91.3229 36.637 90.9398L74.9646 64.4255C75.5184 64.0427 75.9915 63.5542 76.3569 62.9879C76.7223 62.4217 76.9729 61.7888 77.0943 61.1254C77.2157 60.462 77.2056 59.7811 77.0645 59.1217C76.9234 58.4622 76.6541 57.8371 76.272 57.282L51.875 21.8171C51.1036 20.6959 49.9197 19.9279 48.5837 19.682C47.2477 19.4362 45.8691 19.7326 44.751 20.506Z" fill="#007EEF"/>
<path d="M11.1952 56.0641C14.8803 53.1834 18.6599 50.4166 22.5148 47.8017C22.8159 47.5933 22.5336 47.1006 22.2313 47.3109C18.326 49.964 14.515 52.7496 10.7985 55.6677C10.515 55.8934 10.9118 56.2913 11.1952 56.0641Z" fill="white"/>
<path d="M16.2032 61.5216C18.4322 59.9717 20.571 58.2954 22.6093 56.5008C22.8928 56.2547 22.4772 55.8564 22.2125 56.103C20.2119 57.8659 18.1108 59.5107 15.9197 61.029C15.6175 61.2374 15.9009 61.73 16.2032 61.5216Z" fill="white"/>
<path d="M20.3795 68.7997C23.1312 67.1684 25.7474 65.3175 28.2029 63.2651C28.4863 63.0186 28.0704 62.6207 27.7888 62.8499C25.381 64.8805 22.8083 66.7061 20.0975 68.3074C19.7937 68.4966 20.0772 68.9892 20.3795 68.7997Z" fill="white"/>
<path d="M24.0453 75.1274C27.0776 73.5029 29.8645 71.4547 32.3223 69.0443C32.3521 69.0188 32.3764 68.9875 32.3936 68.9523C32.4109 68.9171 32.4208 68.8788 32.4228 68.8396C32.4248 68.8004 32.4187 68.7613 32.4051 68.7245C32.3914 68.6878 32.3704 68.6542 32.3433 68.6259C32.3163 68.5975 32.2837 68.5751 32.2477 68.5598C32.2116 68.5445 32.1729 68.5368 32.1338 68.5371C32.0946 68.5374 32.056 68.5457 32.0202 68.5615C31.9844 68.5773 31.9522 68.6003 31.9256 68.629C29.4986 71.0053 26.7504 73.0275 23.7618 74.6362C23.4407 74.8054 23.7242 75.298 24.0453 75.1274Z" fill="white"/>
<path d="M28.3163 81.2299C31.3561 79.5485 34.0854 77.3564 36.3855 74.7489C36.631 74.4847 36.235 74.0668 35.9888 74.351C33.7174 76.9171 31.027 79.0767 28.0328 80.7373C27.7117 80.9079 27.9952 81.4005 28.3163 81.2299Z" fill="white"/>
<path d="M31.4908 87.1234C34.2086 85.4293 36.618 83.2823 38.6151 80.7749C38.841 80.4911 38.445 80.0928 38.2183 80.3771C36.2572 82.8578 33.878 84.975 31.1885 86.6327C31.1528 86.6507 31.1213 86.6759 31.0958 86.7068C31.0704 86.7377 31.0516 86.7735 31.0407 86.812C31.0298 86.8506 31.027 86.8909 31.0325 86.9306C31.038 86.9703 31.0516 87.0084 31.0726 87.0425C31.0935 87.0766 31.1213 87.106 31.1541 87.1288C31.187 87.1515 31.2242 87.1672 31.2634 87.1748C31.3026 87.1824 31.3429 87.1818 31.3819 87.173C31.4208 87.1641 31.4575 87.1472 31.4896 87.1234H31.4908Z" fill="white"/>
<path d="M56.5945 19.7218L16.2698 43.0684C15.6872 43.4055 15.1766 43.8543 14.767 44.3893C14.3575 44.9244 14.0571 45.535 13.883 46.1865C13.7089 46.838 13.6645 47.5175 13.7524 48.1861C13.8402 48.8548 14.0586 49.4996 14.395 50.0836L35.8776 87.3964C36.2139 87.9805 36.6615 88.4924 37.1951 88.9029C37.7287 89.3134 38.3377 89.6145 38.9873 89.789C39.637 89.9634 40.3145 90.0078 40.9813 89.9196C41.648 89.8314 42.2909 89.6123 42.8732 89.2748L83.198 65.9285C83.7806 65.5915 84.2912 65.1426 84.7007 64.6075C85.1103 64.0725 85.4106 63.4617 85.5847 62.8102C85.7588 62.1587 85.8031 61.4792 85.7152 60.8105C85.6273 60.1418 85.4088 59.497 85.0723 58.913L63.5901 21.6013C63.254 21.0172 62.8063 20.5051 62.2728 20.0945C61.7393 19.6839 61.1303 19.3827 60.4806 19.2081C59.831 19.0336 59.1534 18.9891 58.4866 19.0772C57.8198 19.1654 57.1769 19.3844 56.5945 19.7218Z" fill="white"/>
<path d="M20.9841 51.839C24.2912 49.4701 28.5621 48.6555 31.5289 45.737C31.7924 45.4909 31.3964 45.0737 31.1321 45.3391C28.2029 48.2195 23.9697 48.9964 20.7006 51.3463C20.3983 51.5547 20.6818 52.0473 20.9841 51.839Z" fill="#162B43"/>
<path d="M24.1587 58.4706C26.5172 57.5842 28.7185 56.3238 30.6785 54.7375C30.9619 54.511 30.5459 54.1119 30.2817 54.3392C28.3966 55.8644 26.2779 57.0739 24.0077 57.9209C23.6674 58.0553 23.8188 58.6042 24.1587 58.4706Z" fill="#162B43"/>
<path d="M27.8815 64.5542C27.7117 64.1767 32.5303 61.7305 33.0216 61.4462C33.5128 61.162 33.0592 60.783 32.7381 60.9555L28.5429 63.302C27.976 63.604 27.0123 64.0223 27.3902 64.8373C27.5604 65.1605 28.0516 64.8762 27.8815 64.5542Z" fill="#162B43"/>
<path d="M32.7191 71.1876L38.6531 67.7954C38.7181 67.755 38.7646 67.6905 38.7823 67.616C38.8 67.5414 38.7875 67.4628 38.7476 67.3975C38.7075 67.3321 38.6431 67.2854 38.5686 67.2676C38.4941 67.2499 38.4157 67.2625 38.3505 67.3027L32.4357 70.695C32.1145 70.8656 32.398 71.3582 32.7191 71.1876Z" fill="#162B43"/>
<path d="M37.0281 78.3316C39.8248 77.0809 42.7159 75.9439 45.324 74.2953C45.6251 74.1066 45.3428 73.6128 45.0405 73.8023C42.4325 75.4513 39.5413 76.6072 36.7447 77.839C36.4028 77.9903 36.6878 78.483 37.0281 78.3316Z" fill="#162B43"/>
<path d="M47.0061 73.4034L47.1758 73.2524C47.2204 73.1957 47.2447 73.1256 47.2447 73.0533C47.2447 72.9811 47.2204 72.9109 47.1758 72.8542C47.1199 72.8011 47.0458 72.7715 46.9688 72.7715C46.8918 72.7715 46.8177 72.8011 46.7617 72.8542L46.6112 73.0052C46.5701 73.0599 46.5501 73.1277 46.5549 73.1961C46.5597 73.2644 46.589 73.3288 46.6373 73.3772C46.6857 73.4256 46.7498 73.4549 46.818 73.4597C46.8862 73.4644 46.9537 73.4443 47.0083 73.4031L47.0061 73.4034Z" fill="#007EEF"/>
<path d="M51.7301 34.4421C54.1033 33.1504 56.3008 31.558 58.2687 29.704C58.5322 29.4575 58.1362 29.0596 57.8719 29.3061C55.9331 31.1183 53.7743 32.6783 51.4467 33.9494C51.3872 33.9897 51.3452 34.0512 51.3292 34.1213C51.3132 34.1914 51.3242 34.2651 51.3602 34.3273C51.3962 34.3896 51.4543 34.4359 51.523 34.4568C51.5917 34.4778 51.6657 34.4718 51.7301 34.4402V34.4421Z" fill="#162B43"/>
<path d="M56.8325 36.8688C59.3645 36.2625 61.9725 35.5426 63.8623 33.6472C64.1258 33.401 63.7298 32.9839 63.4652 33.2493C61.6322 35.0688 59.119 35.7317 56.6811 36.3384C56.322 36.4143 56.4733 36.9635 56.8325 36.8688Z" fill="#162B43"/>
<path d="M62.8037 43.5386C65.3011 42.5224 67.6625 41.1984 69.8336 39.597C70.117 39.3705 69.8524 38.8768 69.5501 39.1063C67.4237 40.6874 65.1061 41.9921 62.6528 42.9893C62.3124 43.1218 62.4638 43.6722 62.8037 43.5386Z" fill="#162B43"/>
<path d="M66.2054 56.9367C68.6998 54.2454 72.4225 53.1843 74.8416 50.4176C75.0675 50.1333 74.6714 49.7354 74.4275 50.0197C72.0276 52.7864 68.3049 53.8476 65.8105 56.5384C65.5628 56.8038 65.96 57.2017 66.2054 56.9367Z" fill="#162B43"/>
<path d="M50.9742 73.0823C59.9883 69.1597 66.8857 61.75 75.6732 57.4295C76.012 57.2785 75.7296 56.7851 75.3897 56.9368C66.6022 61.2574 59.7052 68.667 50.6907 72.5893C50.3692 72.7403 50.6531 73.2337 50.9742 73.0823Z" fill="#162B43"/>
<path d="M33.2105 53.8098C41.4622 48.6418 49.9707 43.8981 58.7031 39.5971C59.0419 39.4265 58.7599 38.9527 58.4196 39.1064C49.687 43.4139 41.1785 48.164 32.927 53.3383C32.8653 53.3576 32.812 53.3975 32.776 53.4514C32.7401 53.5054 32.7236 53.57 32.7294 53.6346C32.7326 53.6773 32.7455 53.7188 32.767 53.7558C32.7891 53.7927 32.8193 53.824 32.8552 53.8475C32.8911 53.871 32.9319 53.8861 32.9744 53.8915C33.017 53.8969 33.0602 53.8926 33.1008 53.8788C33.1415 53.865 33.1784 53.8422 33.209 53.812L33.2105 53.8098Z" fill="#162B43"/>
<path d="M38.3129 64.593C42.697 63.1898 46.4009 60.4238 50.1432 57.8466C54.3196 54.9851 58.7418 52.637 63.5415 50.9866C63.8803 50.8734 63.7298 50.3233 63.3909 50.4373C58.7858 52.0338 54.4135 54.2387 50.3894 56.9938C46.4966 59.6469 42.6982 62.5843 38.163 64.0433C37.8216 64.1569 37.9537 64.7066 38.3129 64.593Z" fill="#162B43"/>
<path d="M81.2476 48.9183C80.4917 51.5144 78.9991 53.7696 77.6005 56.0433C76.202 58.317 74.7847 60.7998 73.4618 63.2257C70.8073 68.1642 68.4227 73.244 66.3187 78.4424C65.9599 79.2952 66.6951 80.3186 67.5094 80.527C68.3236 80.7354 69.2478 80.2046 69.5881 79.3522C71.6926 74.2154 74.0772 69.1986 76.7313 64.3246C78.0542 61.8991 79.4523 59.5303 80.8885 57.1803C82.3246 54.8304 83.7612 52.4808 84.5171 49.8277C85.1217 47.7065 81.8334 46.7967 81.2476 48.9183Z" fill="#007EEF"/>
<path d="M67.2635 78.028C67.9218 78.0894 68.5733 78.2098 69.2102 78.3878C69.5689 78.501 69.7203 77.9521 69.3607 77.8385C68.6732 77.6544 67.9716 77.5281 67.2632 77.461C66.9044 77.421 66.9044 77.9899 67.2635 78.028Z" fill="#162B43"/>
<path d="M68.4543 75.8854L68.492 77.3256C68.4934 77.3718 68.5061 77.417 68.5289 77.4572C68.5517 77.4974 68.5839 77.5314 68.6228 77.5563C68.6616 77.5812 68.7059 77.5962 68.7519 77.6001C68.7978 77.604 68.844 77.5966 68.8865 77.5785C68.9431 77.554 68.9903 77.5119 69.0212 77.4585C70.3441 75.1085 71.7422 72.7774 72.6683 70.2195C72.7812 69.8797 72.2335 69.7287 72.1202 70.0685C71.2133 72.5698 69.8336 74.8628 68.53 77.175L69.057 77.326L69.0194 75.8858C69.0036 75.5253 68.4355 75.5253 68.4543 75.8854Z" fill="#162B43"/>
<path d="M81.4179 49.6973C82.0225 49.8679 83.043 49.9816 83.4586 50.5312C83.8742 51.0808 84.1581 50.5312 83.9503 50.2469C83.4021 49.5267 82.4004 49.3942 81.5692 49.1477C81.2289 49.0529 81.0776 49.6025 81.4179 49.6973Z" fill="#162B43"/>
<path d="M76.8257 62.4497C77.1848 61.7675 77.5816 61.1042 77.9972 60.441C78.205 60.139 77.7137 59.8536 77.5078 60.1567C77.0937 60.82 76.6951 61.4833 76.3363 62.1654C76.1643 62.4878 76.6555 62.7728 76.8257 62.4497Z" fill="white"/>
<path d="M79.0743 58.452C79.5027 57.5805 79.8996 56.6898 80.265 55.78C80.3972 55.4403 79.8491 55.2893 79.7169 55.629C79.3781 56.5007 78.999 57.3346 78.583 58.1685C78.4148 58.4901 78.9042 58.7932 79.0743 58.452Z" fill="white"/>
<path d="M27.3526 42.1938C26.1539 41.2734 24.7762 40.615 23.3084 40.261C22.9496 40.1855 22.7983 40.7348 23.1578 40.8107C24.5755 41.1621 25.9067 41.8005 27.0695 42.6865C27.3714 42.8949 27.6549 42.4022 27.3526 42.1938Z" fill="#162B43"/>
<path d="M29.9603 39.2921C29.4345 37.7796 28.7303 36.3354 27.8627 34.9905C27.6745 34.6885 27.1824 34.9712 27.3733 35.2747C28.2195 36.5787 28.9103 37.9777 29.4314 39.4431C29.5447 39.7855 30.0928 39.6338 29.9603 39.2921Z" fill="#162B43"/>
<path d="M70.2683 79.6013C70.7035 80.3302 71.2237 81.0045 71.8178 81.61C71.8432 81.6399 71.8744 81.6642 71.9095 81.6815C71.9446 81.6988 71.9829 81.7088 72.0219 81.7108C72.061 81.7127 72.1 81.7067 72.1367 81.693C72.1733 81.6793 72.2068 81.6582 72.2351 81.6311C72.2633 81.6039 72.2857 81.5713 72.3009 81.5352C72.3162 81.499 72.3239 81.4602 72.3236 81.4209C72.3233 81.3817 72.315 81.343 72.2992 81.3071C72.2835 81.2712 72.2606 81.2389 72.2319 81.2121C71.6635 80.6448 71.1683 80.0081 70.7581 79.3171C70.5706 79.0139 70.0794 79.2982 70.2683 79.6013Z" fill="#162B43"/>
<path d="M68.4543 81.7413V82.8972C68.4543 82.9726 68.4842 83.0449 68.5374 83.0982C68.5905 83.1515 68.6626 83.1815 68.7378 83.1815C68.813 83.1815 68.8851 83.1515 68.9383 83.0982C68.9914 83.0449 69.0213 82.9726 69.0213 82.8972V81.7413C69.0213 81.6659 68.9914 81.5936 68.9383 81.5403C68.8851 81.487 68.813 81.457 68.7378 81.457C68.6626 81.457 68.5905 81.487 68.5374 81.5403C68.4842 81.5936 68.4543 81.6659 68.4543 81.7413Z" fill="#162B43"/>
<path d="M7.52896 43.0075C5.99868 44.2377 4.44883 45.4518 2.93625 46.7217C1.74666 47.707 0.575145 48.8433 0.177989 50.379C-0.672415 53.6753 1.671 56.5376 4.01441 58.5074C4.27792 58.7339 4.69465 58.3367 4.41119 58.1095C2.0866 56.1385 -0.539904 52.9754 1.00957 49.7523C1.671 48.3903 2.93625 47.4416 4.07087 46.513L7.92611 43.4072C8.20958 43.1777 7.8128 42.7798 7.52896 43.0075Z" fill="#162B43"/>
<path d="M5.99872 60.6892L8.62522 64.6307C8.81345 64.9327 9.30547 64.6496 9.11461 64.3465L6.48999 60.405C6.28181 60.1018 5.79054 60.3861 5.99872 60.6892Z" fill="#162B43"/>
<path d="M85.5753 55.0232C85.6882 54.9662 88.8067 60.1573 89.109 60.6703C89.6571 61.6556 90.5264 63.3989 89.5058 64.3653C88.4852 65.3317 87.5972 65.7677 86.6899 66.431C86.3888 66.6575 86.6711 67.1513 86.9734 66.9236L89.1655 65.3321C89.6571 64.9923 90.2237 64.6688 90.4507 64.0433C90.8098 63.001 90.2805 61.7315 89.8081 60.7839C89.0902 59.3626 88.1641 58.0172 87.3137 56.6529C86.9373 56.0463 86.5955 55.2694 86.123 54.7579C85.6506 54.2463 85.6317 54.3407 85.2918 54.5314C85.2432 54.5595 85.204 54.6014 85.1792 54.6519C85.1544 54.7023 85.145 54.759 85.1523 54.8148C85.1596 54.8706 85.1832 54.923 85.2202 54.9653C85.2571 55.0076 85.3058 55.038 85.3599 55.0527C85.4328 55.0716 85.5101 55.061 85.5753 55.0232Z" fill="#162B43"/>
<path d="M82.5894 69.9176C83.4473 69.5703 84.2114 69.0249 84.8195 68.3257C85.0453 68.0414 84.6493 67.6435 84.4227 67.9104C83.8867 68.5484 83.2063 69.0486 82.4384 69.3694C82.0981 69.5193 82.2494 70.069 82.5894 69.9176Z" fill="#162B43"/>
<path d="M93.6821 49.2804C93.1151 49.2804 92.8693 48.5223 92.7748 47.7836C92.0381 47.6888 91.1309 47.4612 91.1309 46.836C91.1309 46.2109 92.0189 46.0021 92.7372 45.9074C92.8125 45.1493 93.0383 44.1641 93.6821 44.1641C94.3258 44.1641 94.5513 45.1493 94.627 45.9074C95.326 46.0021 96.2333 46.2294 96.2333 46.836C96.2333 47.4427 95.3072 47.6888 94.5889 47.7836C94.4944 48.5223 94.249 49.2804 93.6821 49.2804ZM92.0381 46.836C92.3897 46.9645 92.7598 47.0349 93.134 47.0444L93.4551 47.0822V47.3842C93.4849 47.7198 93.5548 48.0506 93.6632 48.3694C93.7718 48.0515 93.8351 47.7198 93.8515 47.3842L93.8891 47.0822L94.2102 47.0444C94.5786 47.0376 94.9431 46.9671 95.2876 46.836C94.9452 46.7248 94.5891 46.6612 94.2294 46.6473L93.8906 46.6095V46.2875C93.8747 45.882 93.8049 45.4804 93.6828 45.0935C93.5417 45.4755 93.4713 45.8801 93.475 46.2875L93.4374 46.6095L93.1163 46.6473C92.7503 46.6636 92.3879 46.727 92.0381 46.836Z" fill="#162B43"/>
<path d="M99.049 41.644C98.0096 41.644 97.6317 39.6353 97.4995 38.4987C96.4033 38.3854 94.0791 38.0249 94.0791 36.9256C94.0791 35.8263 96.3657 35.4666 97.4427 35.3529C97.5372 34.1778 97.8775 31.6953 99.049 31.6953C100.221 31.6953 100.542 34.1778 100.637 35.3529C101.732 35.4662 104 35.8263 104 36.9256C104 38.0249 101.695 38.3847 100.599 38.4987C100.448 39.6353 100.07 41.644 99.049 41.644ZM99.049 32.4533C98.8412 32.4911 98.3123 33.4956 98.1798 35.7127V36.0525H97.8587C95.7042 36.2231 94.8919 36.7346 94.8538 36.9052C94.8158 37.0759 95.7042 37.5874 97.8963 37.758H98.1975L98.2351 38.08C98.4233 40.0698 98.9154 40.809 99.0663 40.8467C99.2173 40.8845 99.6901 40.0698 99.8791 38.08L99.9167 37.758H100.238C102.411 37.5874 103.224 37.0566 103.262 36.9052C103.3 36.7539 102.411 36.2231 100.276 36.0525H99.9548V35.7127C99.7861 33.4956 99.238 32.4911 99.049 32.4533Z" fill="#DBF122"/>
<path d="M14.0909 87.1128C13.0515 87.1128 12.6735 85.1041 12.5414 83.9671C11.4452 83.8538 9.12097 83.4933 9.12097 82.394C9.12097 81.2947 11.4075 80.9349 12.4846 80.8213C12.5791 79.6465 12.9194 77.1641 14.0909 77.1641C15.2624 77.1641 15.585 79.6473 15.6784 80.8213C16.7742 80.9346 19.042 81.2951 19.042 82.394C19.042 83.4929 16.7366 83.8534 15.6404 83.9671C15.4894 85.1041 15.1114 87.1128 14.0909 87.1128ZM14.0909 77.9217C13.8831 77.9595 13.3538 78.964 13.2217 81.1815V81.5212H12.9005C10.7461 81.6918 9.93335 82.2034 9.89571 82.374C9.85806 82.5446 10.7461 83.0561 12.9382 83.2268H13.2394L13.277 83.5488C13.4652 85.5386 13.9572 86.2777 14.1082 86.3155C14.2592 86.3532 14.7508 85.5386 14.921 83.5488L14.9586 83.2268H15.2801C17.453 83.0561 18.2657 82.5257 18.3034 82.374C18.341 82.2222 17.453 81.6918 15.3177 81.5212H14.9966V81.1815C14.828 78.964 14.2799 77.9598 14.0909 77.9217Z" fill="#DBF122"/>
<path d="M11.6677 35.2573C11.1007 35.2573 10.8553 34.4997 10.7608 33.7601C10.0237 33.6654 9.11646 33.4381 9.11646 32.8126C9.11646 32.1871 10.0049 31.9791 10.7228 31.8843C10.7981 31.1263 11.0239 30.1406 11.6677 30.1406C12.3114 30.1406 12.5358 31.1263 12.6111 31.8843C13.3101 31.9791 14.2174 32.2063 14.2174 32.8126C14.2174 33.4189 13.2913 33.6654 12.5734 33.7601C12.4804 34.4989 12.2346 35.2573 11.6677 35.2573ZM10.0237 32.8126C10.3753 32.9412 10.7454 33.0117 11.1196 33.0214L11.441 33.0591V33.3611C11.4706 33.6972 11.5404 34.0285 11.6488 34.3479C11.7577 34.0299 11.8211 33.6981 11.8371 33.3622L11.8747 33.0602L12.1962 33.0225C12.5645 33.0157 12.9289 32.945 13.2732 32.8137C12.9308 32.7024 12.5747 32.6389 12.215 32.625L11.8762 32.5872V32.2652C11.8603 31.8597 11.7904 31.4581 11.6684 31.0712C11.5274 31.4532 11.457 31.8579 11.4606 32.2652L11.423 32.5872L11.1015 32.625C10.7357 32.6412 10.3735 32.7042 10.0237 32.8126Z" fill="#162B43"/>
</g>
<defs>
<clipPath id="clip0_222_5361">
<rect width="104" height="79.8483" fill="white" transform="translate(0 12)"/>
</clipPath>
</defs>
</svg>
