<svg width="104" height="104" viewBox="0 0 104 104" fill="none" xmlns="http://www.w3.org/2000/svg">
<path d="M64.4739 28.416H15.7261C15.0191 28.4157 14.319 28.5551 13.6657 28.8262C13.0124 29.0974 12.4187 29.4949 11.9186 29.9962C11.4186 30.4974 11.0218 31.0926 10.7511 31.7477C10.4804 32.4028 10.341 33.1049 10.3409 33.814V59.4008C10.3409 60.11 10.4803 60.8122 10.7509 61.4674C11.0216 62.1225 11.4183 62.7178 11.9184 63.2192C12.4185 63.7205 13.0121 64.1181 13.6655 64.3893C14.3188 64.6605 15.0191 64.7999 15.7261 64.7996H64.4739C65.181 64.7999 65.8812 64.6605 66.5346 64.3893C67.1879 64.1181 67.7816 63.7205 68.2817 63.2192C68.7818 62.7178 69.1785 62.1225 69.4492 61.4674C69.7198 60.8122 69.8591 60.11 69.8591 59.4008V33.814C69.8583 32.3821 69.2906 31.0091 68.2807 29.9969C67.2709 28.9846 65.9016 28.416 64.4739 28.416Z" fill="#007EEF"/>
<path d="M63.1747 33.5586H17.6511C16.9128 33.5588 16.2048 33.8531 15.6829 34.3768C15.161 34.9005 14.8678 35.6107 14.8679 36.3511V56.0132C14.8679 56.7538 15.1613 57.4641 15.6834 57.9878C16.2056 58.5115 16.9138 58.8057 17.6522 58.8057H63.1747C63.9132 58.8057 64.6215 58.5115 65.1437 57.9878C65.6659 57.4641 65.9593 56.7538 65.9594 56.0132V36.3511C65.9594 35.9844 65.8874 35.6212 65.7475 35.2824C65.6075 34.9435 65.4024 34.6357 65.1438 34.3764C64.8852 34.1171 64.5782 33.9114 64.2404 33.7711C63.9025 33.6307 63.5404 33.5585 63.1747 33.5586Z" fill="#DBF122"/>
<path d="M67.1197 64.4395H12.3374L2.17459 80.8455C2.01781 81.0876 1.93007 81.3681 1.92085 81.6566C1.91164 81.9451 1.98131 82.2307 2.12232 82.4823C2.26332 82.734 2.47029 82.9421 2.72081 83.0842C2.97132 83.2264 3.25583 83.297 3.54352 83.2886H75.7755C76.1037 83.284 76.4249 83.1923 76.7062 83.0226C76.9875 82.853 77.219 82.6116 77.377 82.323C77.535 82.0344 77.6139 81.709 77.6056 81.3798C77.5973 81.0507 77.5021 80.7297 77.3298 80.4495L67.1197 64.4395Z" fill="#007EEF"/>
<path d="M20.9227 79.1699C29.2913 79.3097 37.6521 79.1778 46.0048 78.7742C46.9098 78.7276 46.9098 77.3315 46.0048 77.3781C37.6518 77.7661 29.2911 77.898 20.9227 77.7738C20.0407 77.7503 20.0407 79.1468 20.9227 79.1699Z" fill="#162B43"/>
<path d="M14.9131 68.3965H17.4652C18.3701 68.3965 18.3701 67 17.4652 67H14.9131C14.0093 67 14.0093 68.3965 14.9131 68.3965Z" fill="#162B43"/>
<path d="M23.4055 68.5117H25.5635C26.4684 68.5117 26.4684 67.1152 25.5635 67.1152H23.4055C22.5006 67.1152 22.5006 68.5117 23.4055 68.5117Z" fill="#162B43"/>
<path d="M31.2012 68.3965H35.1456C36.0506 68.3965 36.0506 67 35.1456 67H31.2012C30.2962 67 30.2962 68.3965 31.2012 68.3965Z" fill="#162B43"/>
<path d="M38.9975 68.3965H41.2714C42.1533 68.3965 42.1533 67 41.2714 67H38.9975C38.093 67 38.093 68.3965 38.9975 68.3965Z" fill="#162B43"/>
<path d="M46.3066 68.3027H49.0679C49.9495 68.3027 49.9729 66.9062 49.0679 66.9062H46.3066C45.4017 66.9063 45.4017 68.3027 46.3066 68.3027Z" fill="#162B43"/>
<path d="M16.1891 72.957H20.1336C21.0386 72.957 21.0386 71.5605 20.1336 71.5605H16.1891C15.3072 71.5613 15.2842 72.957 16.1891 72.957Z" fill="#162B43"/>
<path d="M26.2589 72.6543H29.9271C30.8086 72.6543 30.8086 71.2578 29.9271 71.2578H26.2589C25.354 71.2578 25.354 72.6543 26.2589 72.6543Z" fill="#162B43"/>
<path d="M11.0614 76.8203H13.9152C14.8201 76.8203 14.8201 75.4238 13.9152 75.4238H11.0614C10.1565 75.4223 10.1565 76.8203 11.0614 76.8203Z" fill="#162B43"/>
<path d="M13.4285 79.6832H17.0713C17.9758 79.6832 17.9758 78.2871 17.0713 78.2871H13.4285C12.5235 78.2871 12.5235 79.6832 13.4285 79.6832Z" fill="#162B43"/>
<path d="M20.5284 76.7265H24.2871C25.192 76.7265 25.192 75.3301 24.2871 75.3301H20.5284C19.6465 75.3301 19.6465 76.7265 20.5284 76.7265Z" fill="#162B43"/>
<path d="M33.9625 76.3316H37.2108C38.1158 76.3316 38.1158 74.9355 37.2108 74.9355H33.9625C33.0576 74.9355 33.0576 76.3316 33.9625 76.3316Z" fill="#162B43"/>
<path d="M56.1678 68.2091C57.7455 68.1625 59.3232 68.1856 60.9243 68.2788C61.8059 68.3254 61.8059 66.9293 60.9243 66.8827C59.3244 66.7896 57.7455 66.7653 56.1678 66.8126C55.2859 66.8361 55.2859 68.2322 56.1678 68.2091Z" fill="#162B43"/>
<path d="M45.3087 74.5385C46.858 74.5816 48.4084 74.5193 49.9493 74.3522C50.8308 74.2348 50.8542 72.8395 49.9493 72.9561C48.4084 73.1229 46.8579 73.185 45.3087 73.142C44.4267 73.119 44.4267 74.515 45.3087 74.5385Z" fill="#162B43"/>
<path d="M57.8614 71.8633H62.2933C63.1982 71.8633 63.1982 70.4668 62.2933 70.4668H57.8614C56.9568 70.4668 56.9568 71.8633 57.8614 71.8633Z" fill="#162B43"/>
<path d="M58.0469 77.5177C60.3208 77.5412 62.5946 77.5177 64.8685 77.4249C65.7501 77.3784 65.7501 75.9819 64.8685 76.0285C62.5946 76.1216 60.3208 76.1459 58.0469 76.1216C57.1419 76.0981 57.1419 77.4962 58.0469 77.5177Z" fill="#162B43"/>
<path d="M44.543 71.0019H49.4389C50.3204 71.0019 50.3438 69.6055 49.4389 69.6055H44.543C43.6611 69.6055 43.6611 71.0019 44.543 71.0019Z" fill="#DBF122"/>
<path d="M44.0573 70.3036C43.454 71.1647 43.0364 72.4445 44.4982 72.6308C46.3323 72.8402 48.3268 72.6308 50.1827 72.6308C51.0646 72.6308 51.0646 71.2347 50.1827 71.2347H47.3742C46.9797 71.2347 44.8916 71.4907 44.6364 71.2347L44.8217 71.9095C44.8919 71.5751 45.0434 71.2634 45.2627 71.0019C45.7961 70.2805 44.5895 69.5823 44.0573 70.3036Z" fill="#DBF122"/>
<path d="M43.823 70.1637C43.6139 70.662 43.4734 71.1866 43.4055 71.723C43.359 72.0956 43.7536 72.4212 44.1016 72.4212C44.2846 72.4156 44.4585 72.3403 44.588 72.2106C44.7175 72.0808 44.7928 71.9065 44.7986 71.723C44.8656 71.3118 44.9906 70.9122 45.1697 70.5363C45.2182 70.3576 45.1941 70.1668 45.1026 70.0059C45.0112 69.8449 44.8599 69.7269 44.6818 69.6776C44.5038 69.6283 44.3135 69.6518 44.1527 69.7429C43.9919 69.834 43.8736 69.9853 43.8238 70.1637H43.823Z" fill="#DBF122"/>
<path d="M49.0676 70.7926C49.4153 71.1883 49.5082 71.6071 49.6011 72.119C49.6939 72.6309 50.1115 72.7006 50.4366 72.6078C50.6151 72.5585 50.7668 72.4401 50.8584 72.2787C50.9039 72.1988 50.9331 72.1106 50.9442 72.0193C50.9554 71.928 50.9484 71.8354 50.9236 71.7468C50.84 71.0189 50.5318 70.3354 50.042 69.7918C49.8098 69.5128 49.3228 69.5594 49.0665 69.7918C48.9373 69.9262 48.8651 70.1056 48.8651 70.2922C48.8651 70.4789 48.9373 70.6582 49.0665 70.7926H49.0676Z" fill="#DBF122"/>
<path d="M44.7748 71.8868C46.3529 71.8171 47.9306 71.794 49.5313 71.8406C50.4132 71.8406 50.4132 70.4441 49.5313 70.4441C47.9314 70.3975 46.3529 70.421 44.7748 70.4907C43.8698 70.5373 43.8698 71.9333 44.7748 71.8868Z" fill="#DBF122"/>
<path d="M45.7034 71.0242H48.5802C48.6268 71.0258 48.6733 71.0179 48.7169 71.0011C48.7605 70.9843 48.8002 70.9588 48.8338 70.9262C48.8674 70.8937 48.894 70.8547 48.9123 70.8116C48.9305 70.7685 48.9399 70.7221 48.9399 70.6753C48.9399 70.6285 48.9305 70.5821 48.9123 70.539C48.894 70.4959 48.8674 70.4569 48.8338 70.4243C48.8002 70.3918 48.7605 70.3663 48.7169 70.3495C48.6733 70.3327 48.6268 70.3248 48.5802 70.3264H45.7034C45.6567 70.3248 45.6102 70.3327 45.5666 70.3495C45.5231 70.3663 45.4833 70.3918 45.4497 70.4243C45.4162 70.4569 45.3895 70.4959 45.3712 70.539C45.353 70.5821 45.3436 70.6285 45.3436 70.6753C45.3436 70.7221 45.353 70.7685 45.3712 70.8116C45.3895 70.8547 45.4162 70.8937 45.4497 70.9262C45.4833 70.9588 45.5231 70.9843 45.5666 71.0011C45.6102 71.0179 45.6567 71.0258 45.7034 71.0242Z" fill="white"/>
<path d="M38.6958 63.4146C40.0417 63.4146 40.0417 61.3203 38.6958 61.3203C37.3499 61.3203 37.3499 63.4146 38.6958 63.4146Z" fill="white"/>
<path d="M38.6032 63.648C40.3896 63.648 40.3896 60.8555 38.6032 60.8555C36.8167 60.8555 36.8167 63.648 38.6032 63.648Z" fill="white"/>
<path d="M43.8229 62.0185H58.4406C58.533 62.0185 58.6215 61.9818 58.6868 61.9163C58.7521 61.8508 58.7887 61.762 58.7887 61.6694C58.7887 61.5768 58.7521 61.488 58.6868 61.4226C58.6215 61.3571 58.533 61.3203 58.4406 61.3203H43.8229C43.7306 61.3203 43.6421 61.3571 43.5768 61.4226C43.5115 61.488 43.4749 61.5768 43.4749 61.6694C43.4749 61.762 43.5115 61.8508 43.5768 61.9163C43.6421 61.9818 43.7306 62.0185 43.8229 62.0185Z" fill="white"/>
<path d="M20.7665 21.0837C20.6808 19.8112 20.4788 18.5493 20.1632 17.3139C19.8644 16.0807 19.4447 14.8802 18.9102 13.7299C18.5855 13.0086 18.1446 12.4266 17.263 12.6595C15.2444 13.218 16.1946 16.3612 16.5669 17.7311C17.2217 20.0247 18.344 22.157 19.8628 23.9932C19.8806 24.0153 19.9028 24.0334 19.9279 24.0465C19.953 24.0597 19.9805 24.0677 20.0087 24.07C20.037 24.0722 20.0654 24.0686 20.0922 24.0594C20.119 24.0503 20.1437 24.0357 20.1648 24.0167C20.2058 24.048 20.257 24.063 20.3084 24.0586C20.3598 24.0543 20.4078 24.031 20.443 23.9932C21.1146 23.3408 20.836 21.9447 20.7665 21.0837Z" fill="#162B43"/>
<path d="M21.3233 26.7623C22.6688 26.7623 22.6688 24.668 21.3233 24.668C19.9777 24.668 19.9773 26.7623 21.3233 26.7623Z" fill="#162B43"/>
<path d="M79.6721 44.7759C79.5134 43.2708 79.6236 41.7494 79.9975 40.2832C80.1595 39.5786 80.3928 38.8925 80.6937 38.2354C80.8252 37.9365 80.9804 37.6485 81.1577 37.3744C81.2505 37.2116 81.3434 37.1184 81.4363 36.9787C81.5292 36.839 81.7379 36.7924 81.5534 36.8159L80.9965 36.6531C80.7624 36.5356 80.9731 36.4668 80.8572 36.6065C80.7413 36.7462 80.7401 36.9787 80.6714 37.1184C80.6028 37.2581 80.3003 37.7 80.138 37.9795C79.7149 38.6726 79.3276 39.3872 78.9778 40.1203C78.3321 41.5236 77.9769 43.0435 77.9336 44.5884C77.9105 46.0314 80.138 46.0314 80.161 44.5884C80.2074 42.5407 81.0429 40.7019 82.1122 39.0033C82.6226 38.1888 83.133 37.3744 83.0636 36.3971C82.9941 35.4198 82.4138 34.5353 81.416 34.5818C79.5366 34.6515 78.5853 37.3744 78.099 38.817C77.4766 40.7374 77.2538 42.7656 77.4446 44.7759C77.5141 45.3809 77.9316 45.8929 78.5583 45.8929C79.185 45.8929 79.7415 45.3798 79.6721 44.7759Z" fill="#DBF122"/>
<path d="M76.3076 59.5533C78.5581 59.5533 78.5581 56.0625 76.3076 56.0625C74.0572 56.0625 74.0568 59.5533 76.3076 59.5533Z" fill="#DBF122"/>
<path d="M17.8198 14.0567L18.6783 15.8254C18.887 16.2211 19.4903 15.8719 19.2816 15.4532L18.4231 13.7076C18.2373 13.2888 17.634 13.6618 17.8198 14.0567Z" fill="white"/>
<path d="M19.0496 16.7554V16.9182C19.0551 17.009 19.0936 17.0946 19.1577 17.1589C19.2218 17.2232 19.3071 17.2617 19.3976 17.2673C19.4899 17.2672 19.5784 17.2304 19.6437 17.1649C19.7089 17.0995 19.7456 17.0107 19.7457 16.9182V16.7554C19.7458 16.7095 19.7368 16.6641 19.7193 16.6217C19.7019 16.5793 19.6762 16.5408 19.6439 16.5084C19.6116 16.476 19.5732 16.4502 19.5309 16.4327C19.4887 16.4152 19.4434 16.4062 19.3976 16.4063C19.3071 16.4118 19.2218 16.4504 19.1577 16.5147C19.0936 16.579 19.0551 16.6646 19.0496 16.7554Z" fill="white"/>
<path d="M21.4162 25.9474C21.4966 25.9474 21.5745 25.9193 21.6366 25.8681C21.6988 25.8169 21.7412 25.7456 21.7569 25.6665C21.7725 25.5874 21.7603 25.5053 21.7223 25.4341C21.6844 25.363 21.623 25.3073 21.5487 25.2765C21.4744 25.2456 21.3917 25.2416 21.3148 25.2651C21.2378 25.2885 21.1713 25.338 21.1267 25.405C21.082 25.4721 21.0619 25.5527 21.0698 25.6329C21.0777 25.7132 21.1131 25.7883 21.1699 25.8453C21.2023 25.8777 21.2407 25.9034 21.2829 25.9209C21.3252 25.9385 21.3705 25.9475 21.4162 25.9474Z" fill="white"/>
<path d="M65.9822 27.2759L66.3073 27.7879C66.3591 27.865 66.4379 27.9198 66.528 27.9416C66.6182 27.9633 66.7132 27.9504 66.7943 27.9053C66.834 27.8838 66.8687 27.8542 66.8962 27.8184C66.9375 27.7647 66.9611 27.6993 66.9637 27.6315C66.9663 27.5637 66.9477 27.4967 66.9106 27.4399L66.5855 26.928C66.5532 26.8683 66.503 26.8202 66.4421 26.7905C66.3811 26.7608 66.3124 26.751 66.2456 26.7624C66.2013 26.77 66.159 26.7868 66.1216 26.8118C66.0427 26.8561 65.9841 26.9294 65.9581 27.0162C65.9321 27.103 65.9407 27.1966 65.9822 27.2771V27.2759Z" fill="white"/>
<path d="M80.4606 35.513C78.7205 36.7001 78.1192 39.4691 77.8156 41.4006C77.7461 41.8429 78.4189 42.0292 78.4883 41.5869C78.767 39.8648 79.2774 37.1643 80.8087 36.1181C81.1802 35.8621 80.8321 35.257 80.4606 35.513Z" fill="white"/>
<path d="M76.3768 57.7837L76.4466 57.6208C76.4901 57.543 76.5022 57.4513 76.4805 57.3648C76.4587 57.2782 76.4047 57.2033 76.3296 57.1555C76.292 57.1306 76.2498 57.1138 76.2054 57.1062C76.1611 57.0986 76.1157 57.1003 76.072 57.1113C76.0284 57.1223 75.9875 57.1423 75.9519 57.1699C75.9164 57.1975 75.8868 57.2322 75.8652 57.2717L75.7723 57.4345C75.7495 57.4743 75.7346 57.5181 75.7287 57.5636C75.7227 57.6091 75.7257 57.6553 75.7376 57.6996C75.7494 57.7439 75.7699 57.7854 75.7977 57.8218C75.8256 57.8582 75.8603 57.8887 75.8999 57.9116C75.9395 57.9346 75.9833 57.9494 76.0286 57.9554C76.0739 57.9614 76.12 57.9583 76.1642 57.9465C76.2084 57.9346 76.2498 57.9141 76.286 57.8861C76.3223 57.8582 76.3528 57.8234 76.3756 57.7837H76.3768Z" fill="white"/>
<path d="M12.1519 64.8346C20.4123 65.0209 28.6722 65.0753 36.9316 64.9978C37.3726 64.9743 37.3726 64.276 36.9316 64.2995C28.6717 64.3614 20.4118 64.3071 12.1519 64.1367C12.0616 64.1398 11.9761 64.1778 11.9133 64.2429C11.8505 64.308 11.8154 64.3951 11.8154 64.4856C11.8154 64.5762 11.8505 64.6632 11.9133 64.7283C11.9761 64.7934 12.0616 64.8315 12.1519 64.8346Z" fill="#162B43"/>
<path d="M38.7888 65.0887H45.5176C45.5643 65.0902 45.6108 65.0824 45.6543 65.0655C45.6979 65.0487 45.7377 65.0233 45.7712 64.9907C45.8048 64.9581 45.8315 64.9191 45.8497 64.876C45.8679 64.8329 45.8773 64.7866 45.8773 64.7397C45.8773 64.6929 45.8679 64.6466 45.8497 64.6034C45.8315 64.5603 45.8048 64.5213 45.7712 64.4888C45.7377 64.4562 45.6979 64.4308 45.6543 64.4139C45.6108 64.3971 45.5643 64.3893 45.5176 64.3908H38.7888C38.7422 64.3893 38.6956 64.3971 38.6521 64.4139C38.6085 64.4308 38.5688 64.4562 38.5352 64.4888C38.5016 64.5213 38.4749 64.5603 38.4567 64.6034C38.4385 64.6466 38.4291 64.6929 38.4291 64.7397C38.4291 64.7866 38.4385 64.8329 38.4567 64.876C38.4749 64.9191 38.5016 64.9581 38.5352 64.9907C38.5688 65.0233 38.6085 65.0487 38.6521 65.0655C38.6956 65.0824 38.7422 65.0902 38.7888 65.0887Z" fill="#162B43"/>
<path d="M1.66414 82.9635C2.08169 84.3595 3.12595 85.8722 4.65722 86.1517C5.09818 86.2214 5.28355 85.5466 4.84297 85.4766C3.5435 85.2441 2.68499 83.9642 2.3369 82.776C2.19759 82.3584 1.52483 82.5451 1.66414 82.9635Z" fill="#162B43"/>
<path d="M8.39333 86.4078C13.8131 86.8072 19.2503 86.9159 24.6816 86.7334C25.1226 86.7103 25.1226 86.0121 24.6816 86.0352C19.2503 86.2179 13.8131 86.1092 8.39333 85.7095C7.92895 85.6865 7.92895 86.3843 8.39333 86.4078Z" fill="#162B43"/>
<path d="M40.7844 87.5945C51.272 87.6102 61.7674 87.5093 72.2706 87.292C72.3629 87.292 72.4515 87.2552 72.5168 87.1897C72.582 87.1243 72.6187 87.0355 72.6187 86.9429C72.6187 86.8503 72.582 86.7615 72.5168 86.696C72.4515 86.6305 72.3629 86.5938 72.2706 86.5938C61.7674 86.8268 51.272 86.9276 40.7844 86.8963C40.7387 86.8963 40.6934 86.9053 40.6512 86.9229C40.6089 86.9404 40.5706 86.9661 40.5382 86.9985C40.5059 87.031 40.4803 87.0694 40.4628 87.1118C40.4453 87.1542 40.4363 87.1996 40.4363 87.2454C40.4363 87.2912 40.4453 87.3366 40.4628 87.379C40.4803 87.4214 40.5059 87.4599 40.5382 87.4923C40.5706 87.5247 40.6089 87.5504 40.6512 87.5679C40.6934 87.5855 40.7387 87.5945 40.7844 87.5945Z" fill="#162B43"/>
<path d="M74.4284 86.5477C76.0278 85.78 77.3671 84.558 78.28 83.0335C78.3104 82.9837 78.3281 82.9272 78.3316 82.8689C78.3351 82.8106 78.3242 82.7524 78.2999 82.6994C78.2757 82.6463 78.2388 82.6 78.1925 82.5647C78.1462 82.5293 78.092 82.5059 78.0345 82.4965C77.9886 82.4893 77.9416 82.4912 77.8964 82.502C77.8511 82.5126 77.8085 82.5322 77.7708 82.5595C77.7332 82.5869 77.7013 82.6215 77.6771 82.6612C76.8312 84.0903 75.5786 85.233 74.0803 85.9426C73.6628 86.1285 74.0108 86.7332 74.4284 86.5477Z" fill="#162B43"/>
<path d="M50.9254 56.3409C49.5939 57.0297 48.4658 58.0568 47.6537 59.3197C46.8528 60.5656 46.2793 61.9446 45.9601 63.3921C45.7049 64.5557 44.9389 68.0464 46.54 69.0468C47.3985 69.5591 48.7444 69.3032 49.5101 68.6049C50.2757 67.9067 50.902 66.6965 51.1342 65.2782C51.5053 63.0676 52.4567 61.9514 54.3825 61.5549C56.7028 61.0895 56.935 61.5549 60.4155 64.1146C60.9724 64.5333 61.6916 65.5807 61.0648 65.2551C55.0787 62.0203 52.9906 65.0457 54.1507 67.8382C54.777 69.3505 65.5201 75.9829 69.9516 77.7982C74.9634 79.8694 77.0285 87.6885 81.5068 87.1523C83.5254 86.9175 84.871 85.5476 86.5185 83.7547C87.6322 82.5676 93.2695 76.5172 92.8992 68.4421C92.2729 54.7828 74.8705 45.7989 68.7684 48.5449C67.4459 49.1269 65.9377 50.593 62.993 50.9186C60.4639 51.1977 58.7699 50.4533 57.2152 51.6622C56.2638 52.4059 56.3103 53.1284 55.5911 54.1988C54.8719 55.2693 53.453 55.061 50.9254 56.3409Z" fill="white"/>
<path d="M81.0642 87.6419C78.651 87.6419 76.934 85.4775 75.1011 83.1507C73.5464 81.1726 71.9453 79.1245 69.7643 78.2404C65.5182 76.4948 54.4504 69.7927 53.7312 68.0252C53.012 66.2577 53.3136 65.0699 54.2881 64.1857C55.2625 63.3016 56.4691 62.8358 59.4621 63.976C59.3152 63.8863 59.1756 63.7851 59.0446 63.6734C56.5861 61.8339 56.3067 61.6492 54.4738 62.0214C52.6409 62.3936 51.9213 63.3247 51.5966 65.3482C51.318 66.9528 50.7846 68.0244 49.8332 68.9321C48.8818 69.8397 47.3041 70.0491 46.3063 69.444C44.4269 68.2804 45.2136 64.6503 45.4942 63.2992C45.8355 61.8041 46.4318 60.3794 47.2569 59.0879C48.1056 57.7414 49.2996 56.6483 50.7139 55.9232C51.6051 55.4878 52.5283 55.1215 53.4752 54.8273C54.3567 54.5483 54.8906 54.362 55.1922 53.9197C55.4143 53.5956 55.6083 53.2531 55.7721 52.8958C56.0083 52.2663 56.4091 51.712 56.9323 51.2912C58.0694 50.407 59.2526 50.4536 60.6215 50.5002C61.3951 50.5414 62.1706 50.5258 62.9418 50.4536C64.9835 50.2442 66.3064 49.4297 67.3737 48.7781C67.7636 48.5387 68.1664 48.3211 68.5803 48.1264C71.5035 46.8 76.8403 48.009 81.8291 51.1052C88.7432 55.387 93.0592 61.8566 93.3608 68.419C93.6855 75.6099 89.4394 81.3112 86.8638 84.0572C85.2167 85.8258 83.8013 87.362 81.5504 87.6188L81.0642 87.6419ZM56.6314 64.3239C56.0098 64.2899 55.3978 64.489 54.9144 64.8824C54.2416 65.4875 54.1257 66.5579 54.5663 67.6518C55.0069 68.7458 65.1935 75.3547 70.1123 77.3793C72.5255 78.3578 74.2878 80.6141 75.8433 82.5922C77.6774 84.919 79.2773 86.9436 81.4353 86.6877C83.5933 86.4317 84.4284 85.3147 86.1919 83.4298C88.6503 80.777 92.7349 75.3081 92.4332 68.4663C92.155 62.2065 88.0018 56.016 81.3424 51.897C76.6803 48.9882 71.5742 47.8012 68.9538 48.9651C68.5713 49.1541 68.1995 49.364 67.84 49.5937C66.7029 50.2685 65.2875 51.1295 63.0371 51.3855C62.2196 51.4575 61.3982 51.473 60.5786 51.4321C59.3025 51.3855 58.3746 51.3624 57.4926 52.0371C57.0056 52.4093 56.8429 52.7808 56.6111 53.2704C56.4289 53.6841 56.2115 54.0812 55.9614 54.4575C55.474 55.1553 54.7317 55.4117 53.7804 55.7138C52.8794 55.9909 52.0025 56.3411 51.1584 56.7612C49.8921 57.4087 48.8193 58.381 48.049 59.5791C47.2715 60.7811 46.7126 62.1118 46.3983 63.5094C45.774 66.372 45.9109 68.0941 46.7929 68.6526C47.6748 69.2111 48.5563 68.862 49.1826 68.2569C49.809 67.6518 50.4357 66.6045 50.6675 65.2084C51.0854 62.7881 52.1991 61.5083 54.2873 61.0891C56.3754 60.6699 57.118 61.0891 59.6007 62.9286L60.6933 63.7431C60.6933 63.7431 62.1087 64.8832 61.6908 65.5348C61.6213 65.628 61.3891 65.9536 60.8557 65.6523C59.2069 64.7662 57.7451 64.3239 56.6314 64.3239Z" fill="#162B43"/>
<path d="M101.065 77.9843C99.7654 75.1217 98.2342 72.3993 96.0067 70.2349C95.1482 68.6525 93.9186 67.2095 92.0158 67.6983C87.9555 68.0009 84.1269 69.467 80.577 71.4216C78.6976 72.4689 76.8877 73.6325 75.1242 74.8427C73.3608 76.0528 71.6902 76.937 70.6229 78.5659C70.6078 78.5944 70.5995 78.626 70.5987 78.6583C70.5979 78.6905 70.6045 78.7226 70.618 78.7518C70.6315 78.7811 70.6517 78.8068 70.6768 78.827C70.7018 78.8473 70.7312 78.8615 70.7626 78.8685C70.7626 78.892 70.7392 78.8919 70.7392 78.915C70.5808 79.1657 70.5107 79.4623 70.5401 79.7576C70.5696 80.0529 70.6968 80.3298 70.9015 80.544C71.8065 81.4982 72.665 82.5009 73.5469 83.4762C74.0399 84.2941 74.5739 85.0864 75.1469 85.85C76.2566 87.2504 77.628 88.4202 79.1842 89.2942C80.6925 90.1783 82.363 90.83 84.0106 91.4351C85.6582 92.0402 87.7229 92.5521 89.788 92.1787C91.8531 91.8053 93.5467 91.1544 95.3102 90.3865C97.0388 89.6856 98.6816 88.7883 100.206 87.7122C101.668 86.6414 102.875 85.1753 102.875 83.2672C102.875 81.3592 101.831 79.6133 101.065 77.9843ZM77.6998 73.7006L77.3747 73.8634L78.442 73.2122L77.6998 73.7006ZM74.544 75.8184L72.5253 77.1683C73.1797 76.6402 73.8697 76.158 74.5904 75.7253C74.5674 75.7503 74.5674 75.775 74.544 75.82V75.8184ZM84.3357 88.641V88.7106H84.3591L84.1269 88.6175L84.3357 88.641Z" fill="#DBF122"/>
<path d="M92.5032 67.0931C89.8106 67.7447 87.0735 68.3032 84.4051 69.0476C81.7367 69.7921 79.7879 71.2817 77.6299 72.4453C77.2358 72.655 77.5835 73.2601 77.978 73.0503C80.2055 71.8406 82.4793 70.2578 84.9632 69.6296C87.447 69.0015 90.1142 68.3964 92.6898 67.7678C93.1295 67.6516 92.9438 66.9999 92.5032 67.0931Z" fill="#162B43"/>
<path d="M72.8735 76.7501C73.9408 76.1916 75.0779 75.6797 76.0059 74.8887C76.331 74.5862 75.8436 74.0973 75.4955 74.3999C74.637 75.1435 73.5233 75.61 72.5254 76.1451C72.1313 76.3548 72.479 76.9595 72.8735 76.7501Z" fill="#162B43"/>
<path d="M85.9836 87.7579C87.7006 86.0824 90.3456 85.5705 92.5036 84.6398C94.6616 83.709 97.3994 82.4754 100.137 82.6151C100.578 82.6382 100.578 81.9404 100.137 81.9169C97.4225 81.7772 94.9628 82.8245 92.5278 83.8738C90.0927 84.9231 87.3537 85.4562 85.4974 87.2714C85.1715 87.572 85.6585 88.0605 85.9836 87.7579Z" fill="#162B43"/>
<path d="M101.715 81.9157C103.13 81.0782 103.478 79.7283 102.086 78.5647C101.761 78.2856 101.39 78.0762 101.065 77.7737C100.74 77.4712 100.23 76.7263 99.9047 76.1213C99.4549 75.1363 98.8692 74.2197 98.1647 73.3984C97.863 73.0728 97.3757 73.5612 97.6773 73.8872C98.6751 75.0043 99.1157 76.3772 99.9512 77.5874C100.787 78.7976 103.733 79.8911 101.344 81.3341C101.281 81.3891 101.239 81.4649 101.227 81.5478C101.215 81.6307 101.233 81.7152 101.278 81.7858C101.323 81.8564 101.392 81.9083 101.472 81.9322C101.552 81.956 101.638 81.9502 101.715 81.9157Z" fill="#162B43"/>
<path d="M82.2013 82.0333C81.2733 82.103 81.1805 83.1965 81.3198 83.9413C81.4591 84.6861 82.4799 84.9421 83.1539 84.8258C83.8278 84.7096 84.3605 83.8716 84.2211 83.0802C84.1828 82.6741 84.0019 82.2947 83.7107 82.0098C83.3857 81.7538 82.8288 81.8701 82.4577 81.8701C82.3654 81.8701 82.2768 81.9069 82.2116 81.9723C82.1463 82.0378 82.1096 82.1266 82.1096 82.2192C82.1096 82.3118 82.1463 82.4006 82.2116 82.4661C82.2768 82.5315 82.3654 82.5683 82.4577 82.5683H83.0844C83.3396 82.5918 83.3396 82.6149 83.4321 82.8478C83.5246 83.0806 83.6643 83.7088 83.3396 83.9879C83.0149 84.2669 82.5982 84.1973 82.2953 84.0575C81.9925 83.9178 81.9937 83.755 81.9937 83.4528C81.9937 83.1507 81.9008 82.7546 82.2025 82.7311C82.5041 82.7076 82.6423 81.9867 82.2013 82.0333Z" fill="#162B43"/>
<path d="M82.3169 83.6392C82.5857 83.6895 82.8393 83.801 83.0583 83.9652C83.107 83.9926 83.1616 84.0078 83.2174 84.0096C83.2732 84.0114 83.3287 83.9998 83.3791 83.9756C83.4294 83.9514 83.4733 83.9155 83.5069 83.8707C83.5405 83.826 83.563 83.7739 83.5723 83.7186C83.5839 83.6491 83.5743 83.5776 83.5447 83.5136C83.5151 83.4496 83.4669 83.3961 83.4064 83.3601C83.1349 83.1677 82.8269 83.033 82.5015 82.9644C82.4122 82.9433 82.3183 82.9583 82.24 83.0062C82.1618 83.0542 82.1055 83.1311 82.0835 83.2204C82.0695 83.2633 82.0644 83.3086 82.0688 83.3536C82.0731 83.3985 82.0867 83.4421 82.1087 83.4814C82.1308 83.5208 82.1607 83.5552 82.1967 83.5823C82.2326 83.6095 82.2738 83.6289 82.3177 83.6392H82.3169Z" fill="#162B43"/>
<path d="M82.5492 82.8L82.4099 83.6841C82.3853 83.7736 82.3971 83.8692 82.4428 83.95C82.4884 84.0307 82.5642 84.0899 82.6534 84.1146C82.7426 84.1393 82.838 84.1275 82.9185 84.0817C82.999 84.0359 83.0581 83.9599 83.0827 83.8704L83.222 82.9859C83.243 82.8964 83.2279 82.8023 83.1801 82.7239C83.1324 82.6455 83.0557 82.5892 82.9668 82.5671C82.9242 82.5531 82.8791 82.548 82.8345 82.5522C82.7898 82.5565 82.7465 82.5699 82.7073 82.5918C82.6679 82.6134 82.6334 82.6432 82.6062 82.679C82.579 82.7149 82.5596 82.7561 82.5492 82.8Z" fill="#162B43"/>
<path d="M70.8784 77.5641C70.5558 77.9536 70.348 78.4258 70.2783 78.9273C70.2086 79.4289 70.2798 79.94 70.4839 80.4032C71.1336 81.8693 72.7344 82.4744 73.2682 83.9871C73.4075 84.4059 74.0803 84.2219 73.941 83.8008C73.6793 83.0254 73.2048 82.3398 72.572 81.8227C71.5742 80.9852 70.2306 79.4028 71.3654 78.0764C71.6671 77.7273 71.1567 77.2384 70.8784 77.5641Z" fill="#162B43"/>
<path d="M44.8914 68.7444V66.1382C44.8914 66.0456 44.8547 65.9568 44.7894 65.8913C44.7241 65.8258 44.6356 65.7891 44.5433 65.7891C44.451 65.7891 44.3624 65.8258 44.2971 65.8913C44.2319 65.9568 44.1952 66.0456 44.1952 66.1382V68.7444C44.1952 68.837 44.2319 68.9258 44.2971 68.9913C44.3624 69.0567 44.451 69.0935 44.5433 69.0935C44.6356 69.0935 44.7241 69.0567 44.7894 68.9913C44.8547 68.9258 44.8914 68.837 44.8914 68.7444Z" fill="#DBF122"/>
<path d="M44.1022 68.9546C43.7986 68.0792 43.5509 67.1853 43.3608 66.2783C43.3361 66.1889 43.2771 66.1129 43.1966 66.0671C43.1161 66.0213 43.0207 66.0094 42.9315 66.0341C42.8423 66.0588 42.7665 66.1181 42.7209 66.1988C42.6752 66.2795 42.6634 66.3752 42.688 66.4646C42.8781 67.3715 43.1258 68.2653 43.4294 69.1405C43.5688 69.5828 44.2415 69.3949 44.1022 68.9546Z" fill="#DBF122"/>
<path d="M50.9255 69.5112C51.3664 69.069 51.8074 68.6267 52.2015 68.1614C52.5957 67.696 51.9928 67.3234 51.6911 67.6725C51.2976 68.1371 50.8793 68.58 50.4381 68.9993C50.3705 69.0642 50.3313 69.1533 50.3292 69.2471C50.3281 69.2935 50.3362 69.3396 50.353 69.3829C50.3695 69.4266 50.3946 69.4665 50.4268 69.5003C50.4586 69.5341 50.4968 69.5612 50.5392 69.5801C50.5816 69.599 50.6273 69.6093 50.6737 69.6104C50.72 69.6115 50.7662 69.6034 50.8094 69.5865C50.8526 69.5696 50.8921 69.5443 50.9255 69.512V69.5112Z" fill="#DBF122"/>
<path d="M40.1524 26.5223C39.6653 26.5223 39.3403 26.08 39.201 25.1958C38.2496 25.0561 37.7626 24.7305 37.7626 24.2174C37.7626 23.7043 38.25 23.3794 39.1779 23.2389C39.2708 22.471 39.526 21.7031 40.1535 21.7031C40.781 21.7031 41.0585 22.4468 41.1513 23.2389C42.0793 23.3786 42.5667 23.7047 42.5667 24.2174C42.5667 24.7301 42.0563 25.055 41.1279 25.1958C40.9734 26.0801 40.6482 26.5223 40.1524 26.5223Z" fill="#162B43"/>
<path d="M44.7697 19.9596C43.7941 19.9596 43.4008 18.4003 43.2619 17.2367C41.9854 17.097 40.3148 16.7248 40.3148 15.7009C40.3148 14.6771 41.9624 14.3045 43.2154 14.1647C43.3313 12.9569 43.6794 11 44.7697 11C45.86 11 46.2085 12.9569 46.3244 14.1647C47.5774 14.3045 49.225 14.6771 49.225 15.7009C49.225 16.7248 47.531 17.097 46.278 17.2367C46.1156 18.4003 45.7445 19.9596 44.7697 19.9596ZM41.4527 15.7009C41.731 15.8637 42.4736 16.1197 43.7731 16.2129L44.2136 16.2594L44.2601 16.7013C44.3771 17.8649 44.6082 18.5408 44.7705 18.796C44.9332 18.54 45.165 17.8649 45.2813 16.7013V16.2594L45.7453 16.2129C47.0213 16.1197 47.764 15.8637 48.0422 15.7009C47.764 15.5377 47.0444 15.2818 45.7683 15.1655H45.3043V14.7002C45.2114 13.2806 44.9562 12.4661 44.7705 12.1867C44.5851 12.4661 44.3065 13.2826 44.237 14.7002L44.1906 15.1655H43.7496C42.4728 15.2818 41.7302 15.5377 41.452 15.7009H41.4527Z" fill="#DBF122"/>
<path d="M4.4783 66.9986C3.50272 66.9986 3.10937 65.4628 2.94664 64.2981C1.694 64.1595 0 63.7873 0 62.7634C0 61.7396 1.67058 61.367 2.9002 61.2272C3.01727 60.0171 3.36458 58.0625 4.4783 58.0625C5.59202 58.0625 5.9167 60.0171 6.0326 61.2272C7.26261 61.367 8.93319 61.7392 8.93319 62.7634C8.93319 63.7877 7.23919 64.1595 5.98616 64.2992C5.82382 65.4628 5.4293 66.9986 4.4783 66.9986ZM1.16133 62.7634C1.43957 62.9262 2.18218 63.1822 3.48165 63.2754L3.92261 63.3219L3.96905 63.7638C4.06153 64.9274 4.31675 65.6033 4.47947 65.8585C4.6184 65.6025 4.87361 64.9274 4.96648 63.7638L5.01292 63.3219L5.45388 63.2754C6.75335 63.1822 7.49558 62.9262 7.7742 62.7634C7.49558 62.6002 6.77638 62.3212 5.50032 62.228H5.03399V61.7623C4.94112 60.3427 4.66249 59.5282 4.50015 59.2488C4.3144 59.5282 4.03617 60.3447 3.94329 61.7623V62.2276H3.48048C2.15798 62.3212 1.4384 62.6002 1.16016 62.7634H1.16133Z" fill="#DBF122"/>
<path d="M92.9441 46.7527C92.4571 46.7527 92.132 46.3105 91.9931 45.4263C91.0417 45.2866 90.5543 44.9606 90.5543 44.4479C90.5543 43.9351 91.0417 43.6103 91.9467 43.4694C92.0637 42.678 92.3178 41.9336 92.9441 41.9336C93.5704 41.9336 93.8491 42.6772 93.9419 43.4694C94.8703 43.6091 95.3573 43.9347 95.3573 44.4479C95.3573 44.961 94.8469 45.2858 93.9189 45.4263C93.7488 46.3106 93.4238 46.7527 92.9441 46.7527Z" fill="#162B43"/>
<path d="M30.1973 25.9324C29.7181 25.9324 29.393 25.4903 29.2218 24.606C28.2938 24.4663 27.8064 24.1403 27.8064 23.6275C27.8064 23.1148 28.2704 22.79 29.1987 22.6491C29.2912 21.8577 29.5699 21.1133 30.1962 21.1133C30.8225 21.1133 31.0781 21.8569 31.194 22.6491C32.0989 22.7888 32.5863 23.1144 32.5863 23.6275C32.5863 24.1406 32.0989 24.4655 31.1476 24.606C31.0094 25.4901 30.6847 25.9324 30.1973 25.9324Z" fill="#162B43"/>
<path d="M55.1231 55.0389C57.7451 55.0158 60.6457 54.9923 62.9426 56.505C63.8475 57.087 64.6132 57.9014 65.5645 58.46C66.4957 58.9917 67.5064 59.3689 68.5576 59.577C68.9986 59.6701 69.1839 58.995 68.7434 58.9018C67.4455 58.6519 66.2179 58.1198 65.147 57.3429C64.1956 56.6447 63.3835 55.8533 62.2928 55.3649C60.0424 54.3406 57.5363 54.3175 55.1231 54.3406C55.0308 54.3406 54.9423 54.3774 54.877 54.4429C54.8117 54.5083 54.775 54.5971 54.775 54.6897C54.775 54.7823 54.8117 54.8711 54.877 54.9366C54.9423 55.0021 55.0308 55.0389 55.1231 55.0389Z" fill="#162B43"/>
<path d="M70.4139 60.1585L71.1101 60.3933C71.1964 60.4152 71.2878 60.403 71.3655 60.3593C71.4431 60.3157 71.5012 60.2438 71.5276 60.1585C71.5505 60.0691 71.5395 59.9743 71.4967 59.8926C71.4539 59.8108 71.3823 59.748 71.2958 59.7162L70.5996 59.4838C70.5555 59.4694 70.5089 59.4641 70.4627 59.4681C70.4164 59.4723 70.3715 59.4856 70.3304 59.5072C70.2893 59.5289 70.2529 59.5586 70.2234 59.5945C70.1939 59.6305 70.1719 59.672 70.1587 59.7166C70.137 59.8091 70.1513 59.9064 70.1988 59.9886C70.2462 60.0708 70.3232 60.1317 70.4139 60.1589V60.1585Z" fill="#162B43"/>
<path d="M63.2446 51.4085C65.1934 50.8962 67.1192 51.5259 68.9756 52.0833C70.8319 52.6406 72.5953 53.2234 74.2659 54.1079C74.6835 54.3173 75.0316 53.7122 74.637 53.5028C72.7577 52.5244 70.762 51.8981 68.7668 51.2919C66.7715 50.6856 65.0081 50.2214 63.0589 50.7334C62.9716 50.7598 62.8981 50.8195 62.8541 50.8995C62.8101 50.9796 62.799 51.0737 62.8233 51.1619C62.8475 51.25 62.9051 51.3251 62.9839 51.3712C63.0626 51.4173 63.1562 51.4307 63.2446 51.4085Z" fill="#162B43"/>
<path d="M75.6814 54.5961C75.733 54.7942 75.8349 54.9756 75.9772 55.1225C76.1195 55.2693 76.2974 55.3767 76.4935 55.434C76.5798 55.4559 76.6712 55.4437 76.7489 55.4C76.8265 55.3563 76.8846 55.2845 76.911 55.1992C76.9337 55.1095 76.9223 55.0146 76.879 54.9329C76.8357 54.8512 76.7637 54.7886 76.6769 54.7573C76.6769 54.7573 76.584 54.7338 76.6304 54.7573L76.561 54.7107H76.5145L76.4681 54.6642H76.4466C76.4226 54.6382 76.4065 54.6059 76.4002 54.571C76.3768 54.571 76.3538 54.5013 76.3768 54.5479V54.4548C76.3549 54.3655 76.2987 54.2886 76.2205 54.2406C76.1423 54.1927 76.0484 54.1777 75.9592 54.1988C75.8686 54.226 75.7917 54.2869 75.7443 54.369C75.6969 54.4511 75.6825 54.5483 75.704 54.6407L75.6814 54.5961Z" fill="#162B43"/>
<path d="M58.4416 69.2336C58.4416 68.9079 58.7432 68.5588 58.8591 68.2794C59.0004 67.9575 59.064 67.6067 59.0449 67.2555C59.0466 67.0193 58.9765 66.7882 58.8441 66.5928C58.7117 66.3975 58.5231 66.2472 58.3034 66.162C57.8859 65.9988 57.7001 66.6739 58.1181 66.8367C58.536 66.9995 58.2804 67.9537 58.1181 68.2563C57.9557 68.5588 57.7236 68.8379 57.7466 69.2347C57.7466 69.2806 57.7556 69.326 57.7731 69.3683C57.7906 69.4107 57.8162 69.4492 57.8485 69.4816C57.8809 69.514 57.9192 69.5397 57.9615 69.5573C58.0037 69.5748 58.049 69.5838 58.0947 69.5838C58.1404 69.5838 58.1856 69.5748 58.2279 69.5573C58.2701 69.5397 58.3085 69.514 58.3408 69.4816C58.3731 69.4492 58.3988 69.4107 58.4163 69.3683C58.4338 69.326 58.4428 69.2806 58.4428 69.2347L58.4416 69.2336Z" fill="#162B43"/>
<path d="M73.5231 64.3225C76.5092 61.3758 79.8172 58.7762 83.3843 56.5731C83.7554 56.3406 83.4073 55.7355 83.0362 55.9684C79.4129 58.1972 76.0573 60.8369 73.0357 63.8353C72.7111 64.1597 73.2215 64.6486 73.5231 64.3225Z" fill="#162B43"/>
</svg>
