<svg width="112" height="112" viewBox="0 0 112 112" fill="none" xmlns="http://www.w3.org/2000/svg">
<g clip-path="url(#clip0_222_4488)">
<path d="M25.7725 78.9396C26.828 82.6518 31.6614 84.7107 35.0694 82.9002C34.3765 84.5678 35.6517 86.5957 37.3824 87.1119C39.1131 87.6281 41.0221 86.9142 42.3861 85.7305C43.7502 84.5468 44.6738 82.9486 45.5727 81.3822C54.8393 65.2305 64.1064 49.0785 73.3739 32.9262C73.9306 31.9579 74.5063 30.9007 74.3857 29.7874C74.2388 28.4317 73.1118 27.4166 72.0283 26.5878C66.2445 22.1757 59.5222 19.1553 52.3826 17.7607L52.2894 21.3306C52.2691 22.1247 50.9655 23.6467 50.5588 24.3529C49.8963 25.5023 49.2302 26.6498 48.5606 27.7956C47.2768 29.9921 45.9805 32.1803 44.6718 34.3601C42.0261 38.7678 39.3287 43.1446 36.5797 47.4907C31.1413 56.087 25.5043 64.5535 19.6688 72.8901C18.0536 75.1981 16.5747 76.6713 19.58 78.4928C21.4118 79.6028 23.8094 79.8609 25.7725 78.9396Z" fill="#DBF122"/>
<path d="M70.0461 0.426758C68.3361 0.839479 66.5971 1.92538 65.6154 3.75223C64.6337 5.57909 64.6607 8.197 65.9663 9.39977C66.9577 10.3127 68.435 10.2406 69.6728 9.59711C70.8385 8.99139 71.8827 7.8888 72.441 6.49703C72.9993 5.10527 73.0267 3.43067 72.4076 2.21822C71.7885 1.00577 70.4986 0.354632 69.2912 0.768021" fill="white"/>
<path d="M81.6943 6.38965C79.9843 6.8027 78.2453 7.88827 77.2636 9.71512C76.2819 11.542 76.3089 14.1599 77.6145 15.3627C78.6056 16.2756 80.0832 16.2038 81.321 15.56C82.4864 14.9543 83.5309 13.852 84.0892 12.4599C84.6475 11.0678 84.6749 9.39356 84.0558 8.18145C83.4367 6.96933 82.1471 6.31786 80.9397 6.73091" fill="white"/>
<path d="M19.6016 72.1904C18.3137 74.241 17.4719 75.6498 17.2819 76.1239C16.953 75.9847 17.0842 76.7313 17.1707 77.0796C16.8518 78.7519 16.3522 83.7379 15.8427 89.6349C14.8229 101.428 14.8509 101.706 14.9651 102.136C15.1885 103.037 16.013 103.486 16.8952 103.343C17.5396 103.238 18.0111 103.015 18.6152 102.647L20.2848 101.635C29.8979 95.998 35.5531 93.0138 39.5788 90.069C41.7065 88.4996 41.6407 88.2137 41.4912 87.9887C41.4609 87.9411 41.4194 87.9018 41.3703 87.8741C41.768 87.4534 42.6822 86.2243 43.9501 84.4258C45.5666 82.1217 47.7484 78.9028 50.0975 75.3098C59.8709 60.4172 68.9234 44.7114 72.8002 37.1348C72.5017 38.5687 76.0575 47.8098 70.787 61.5879C70.622 62.0624 70.4885 62.4457 70.3803 62.7566C69.9495 64.0008 70.1429 64.1751 70.3873 64.3063C70.6317 64.4375 70.8735 64.5163 71.6562 63.3827C72.0305 62.8698 72.7247 61.5214 73.1214 60.541C74.605 57.0262 75.375 53.0466 75.4254 49.4463C75.5663 42.1599 73.1618 36.9245 72.8486 37.045C72.8463 37.045 72.8456 37.0503 72.8433 37.0513C73.3401 36.079 74.1121 34.5526 74.4958 33.5258C75.2859 34.0327 76.9187 33.0463 76.9822 31.3554C78.3038 31.4849 80.0362 29.4754 79.0484 27.1217C79.0505 27.1184 79.0527 27.1153 79.0551 27.1123C81.3475 23.8226 83.4628 23.2903 85.0529 19.3958C85.3825 18.5884 85.6777 17.6772 85.7298 16.5746C85.7905 15.4636 85.496 14.2832 84.9574 13.2157C84.9401 13.1723 84.914 13.1376 84.8967 13.0941C85.1128 12.6174 85.2698 12.1161 85.3641 11.6012C85.9164 8.50346 84.3784 6.31898 82.4925 6.01144C81.6243 5.88121 81.1992 6.15035 81.0342 6.29761C81.0117 6.31635 80.9938 6.34014 80.9821 6.36706C80.4098 6.45522 79.6087 6.73437 78.8905 7.18315C77.5799 6.34135 76.1911 5.49053 74.7937 4.56157C74.4765 4.35702 74.149 4.16879 73.8126 3.99759C73.6236 0.481445 70.4354 -0.711305 69.3244 0.403977C68.1758 0.579951 66.6965 1.33093 65.6444 2.59113C64.9148 2.7945 64.225 3.12025 63.6045 3.55448C62.016 4.67444 61.0874 6.28024 60.3928 7.59921C57.611 12.7292 57.1024 12.8511 56.5862 13.6391C55.7083 13.564 54.6101 13.562 53.9533 14.1617C53.246 14.7701 53.0944 15.5975 53.2657 16.0827C53.4434 16.5836 53.7616 16.659 53.782 16.617C53.8431 16.5602 53.6638 16.3675 53.6634 16.0069C53.6484 15.6643 53.8835 15.1147 54.4187 14.7904C56.1681 13.6294 64.4029 17.759 66.234 18.8125C70.1008 20.9809 72.9124 23.3461 75.951 26.1413C76.338 26.4976 76.6669 26.8141 76.9234 27.1133C78.0457 28.3939 77.8453 29.5726 76.8566 30.4612C76.6599 29.7599 76.2345 29.0737 75.6969 28.4757C71.6078 24.1177 66.4434 20.7245 61.1048 18.6672C59.4497 18.0169 57.7531 17.4779 56.0262 17.0537C55.2392 16.8801 54.4815 16.6196 53.603 16.7035C52.7348 16.7853 51.9561 17.4047 51.8666 18.2027C51.9905 19.2068 52.458 19.6897 52.8487 19.8877C52.5218 20.2603 52.0519 20.8894 51.346 21.9413C48.8086 25.6614 44.2453 33.447 19.6016 72.1904ZM80.0615 7.44394C80.4175 7.20085 80.7387 7.00985 80.9992 6.86226C81.0462 6.95316 81.1272 7.02181 81.2246 7.05326C81.5107 7.22022 82.9963 7.29869 83.4381 9.13623C83.5596 9.6311 83.6031 10.2996 83.4715 11.0202C83.1823 12.631 82.2627 13.5065 82.2103 13.594C81.9886 12.4443 81.0322 11.5798 79.7393 11.7241C78.99 11.3975 77.9839 11.5441 77.3708 12.3859C77.3708 12.3816 77.3708 12.3772 77.3708 12.3729C77.3622 12.3645 77.3708 12.3645 77.3708 12.3645C77.3027 10.3514 78.5125 8.44002 80.0615 7.44328V7.44394ZM79.1934 13.3636L79.196 13.3619L79.2064 13.3573C79.3092 13.5807 79.1433 13.9814 79.1199 14.0682C78.9603 13.9236 78.9252 13.8244 78.9195 13.7049C78.9125 13.5626 78.9803 13.4771 78.9726 13.4711C78.9553 13.4521 79.0491 13.4197 79.1042 13.4251C79.1262 13.4301 79.1279 13.416 79.178 13.3746L79.1934 13.3636ZM69.3505 0.898841C69.5094 1.18401 69.8711 1.13492 70.4704 1.41074C72.5157 2.52234 72.1864 5.71826 70.6611 7.51273C70.3155 6.47592 69.2056 5.91427 68.3177 6.05452C68.309 6.04583 68.3003 6.04583 68.3003 6.05452C67.4021 5.84482 66.2968 6.24719 65.8267 7.34777C65.6063 6.40379 65.7021 5.18099 66.2083 4.0233H66.217C66.8728 2.59981 67.9978 1.66518 69.3505 0.898841ZM68.1354 8.87544C67.9809 8.83749 67.8453 8.74499 67.7537 8.61499C67.5887 8.38125 67.6495 8.04232 67.7016 8.00759C67.7016 7.93781 67.9878 7.88572 67.9965 7.88572C68.0833 7.86835 68.2135 7.9555 68.1968 8.15485C68.2222 8.42399 68.1267 8.62367 68.1354 8.87544ZM72.7007 20.7044C68.9107 17.8024 64.7321 15.7862 60.1975 14.4198C59.1073 14.1073 58.0297 13.7957 56.9966 13.6775C57.6113 13.1265 58.1035 12.7452 59.0562 11.5054C61.3849 8.55989 62.1569 6.13866 64.3945 4.74389C64.4174 4.7244 64.444 4.70965 64.4726 4.70048C63.1226 8.74856 65.8123 12.2213 69.663 10.6809C71.6518 9.88855 73.1551 8.0116 73.6296 6.01111C73.6771 6.03949 73.3542 5.8378 77.3361 8.50212C76.1323 9.88788 75.5717 11.8617 75.8432 13.6408C76.5173 17.6247 80.7701 18.0188 83.577 15.0816C83.7246 15.5675 83.7941 16.045 83.7677 16.4961C83.6899 18.0321 82.9953 19.4563 82.3615 20.5325C81.1434 22.5196 79.3005 23.8266 78.3546 25.9376C78.0343 25.5239 75.342 22.727 72.7007 20.7044ZM33.4908 91.827C31.1798 93.1223 26.5684 95.6384 22.9905 97.7173C22.7588 97.0932 21.8819 96.4394 21.2541 96.0721C20.6347 95.7048 19.5408 95.3402 18.5982 95.3095C18.4352 95.3011 18.2823 95.3028 18.135 95.3095C18.0232 95.2761 17.92 95.2403 17.7911 95.2059C17.5323 95.1368 17.3166 95.257 17.1353 95.4797C17.0983 95.4933 17.0625 95.5098 17.0281 95.5288C17.1126 93.551 17.1914 91.5869 17.2598 89.713C17.4431 84.6872 17.5533 80.3133 17.5136 78.073C17.6405 78.371 17.7846 78.6615 17.945 78.9429C19.6133 81.7625 23.0192 81.8226 25.5904 79.9062C25.5677 80.6976 25.8405 81.5531 26.2415 82.2373C27.852 85.0909 31.6269 85.8262 34.145 83.99C34.1513 86.1474 35.8997 88.3887 38.8135 88.8702L33.4908 91.827ZM53.6561 19.4376C53.5365 19.3671 53.4063 19.3277 53.0827 19.6379C53.0583 19.6139 53.036 19.5879 53.016 19.5601C52.8938 19.3898 52.7946 19.2043 52.7208 19.0081C52.6343 18.7744 52.5538 18.5073 52.6146 18.3133C52.7007 18.0027 53.1489 17.6965 53.6704 17.7179C54.202 17.7179 54.9119 18.0041 55.6739 18.2608C62.6378 20.6717 68.6793 24.3605 74.3429 29.7352C74.9182 30.3099 75.2197 30.7941 75.3233 31.1924C75.4902 31.73 75.1827 32.3511 74.7269 32.6717C74.7359 32.459 74.6564 32.3935 74.5643 32.3428C73.5291 31.7678 69.7412 39.6452 48.8944 74.5559L43.2916 84.0037C42.2652 85.7614 41.5513 87.039 41.2758 87.6454C40.9722 87.0066 40.2002 87.3656 38.2178 86.64C37.1556 86.2296 36.419 85.7594 35.7017 84.8515C35.271 84.3173 35.0052 83.7442 34.8001 83.3793C35.0272 83.0941 35.2676 82.6904 35.0519 82.3969C37.0744 79.4287 66.3733 32.7572 65.5301 32.2426C64.662 31.7117 36.7225 78.9492 34.9217 82.2583C34.3597 81.7574 34.1263 82.1348 32.9375 82.5879C30.6532 83.431 28.7252 82.8607 27.3979 81.4112C26.7093 80.6993 26.3667 79.8812 26.127 79.4394C26.5688 78.9639 26.4903 78.7315 26.2392 78.3755C26.4242 78.1004 26.0826 78.6263 28.1111 75.4838C55.3253 32.5054 59.7998 26.6535 59.2692 26.2979C59.154 26.2207 58.9834 26.2498 57.256 28.6687C48.3692 41.226 31.2419 68.7584 26.1086 78.238C25.1573 77.47 21.8896 80.9427 19.076 78.0777C18.331 77.3053 17.75 76.4722 17.4021 76.2014C19.7522 74.0293 42.7817 41.2387 52.5648 22.6675C54.0457 19.8169 53.8948 19.5788 53.6561 19.4376Z" fill="#162B43"/>
<path d="M72.4567 14.5229C72.1722 14.4895 71.7221 14.3923 71.3131 14.0096C70.9033 13.6677 70.691 13.1491 70.4182 13.1134C70.1554 13.0583 69.7787 13.7549 70.0585 14.6768C70.4983 16.1831 72.258 16.9908 73.7146 16.2956C74.0655 16.1233 74.2529 15.9176 74.342 15.75C74.5146 15.4054 74.3337 15.2094 74.158 15.001C73.5904 14.3252 73.3376 14.6257 72.4567 14.5229Z" fill="#162B43"/>
<path d="M15.9102 43.8058C14.5137 45.0987 14.3932 46.8982 15.2089 47.9948C16.7693 50.1098 20.3466 49.7311 21.2725 46.7456C22.0385 48.6526 24.5853 48.6065 25.0792 46.8458C25.6134 45.1428 24.2678 42.4354 22.9161 41.7809C22.4282 41.5579 22.2482 41.7529 22.0679 41.9576C21.4068 42.7025 22.2916 43.0488 23.047 45.2012C23.1308 45.446 23.4063 46.3165 23.2643 46.5316C23.2273 46.593 23.0306 46.6391 22.8526 46.613C22.3424 46.5947 21.8075 45.8934 21.4502 45.6413C21.4494 45.476 21.4355 45.3109 21.4084 45.1478C21.2305 44.3778 20.9273 44.4132 20.6678 44.4466C19.9355 44.5297 20.0951 45.1812 19.5158 46.2163C19.2603 46.6651 18.7925 47.2401 18.0719 47.3123C17.6639 47.3714 17.0108 47.2388 16.6795 46.8701C16.3326 46.5633 16.2751 45.8016 16.594 45.1321C16.9016 44.4309 17.5233 43.8652 18.0282 43.3533C18.5959 43.1146 18.9805 42.8448 19.2336 42.6244C19.9185 41.9849 19.7399 41.7382 19.5792 41.5315C19.1281 40.9448 18.5561 41.5378 16.9016 41.7986C16.0544 41.9322 14.0192 41.9532 13.9744 41.0914C13.9871 40.1103 16.0113 38.98 17.0418 38.7473C17.8549 38.5521 18.7117 38.6691 19.4427 39.0752C20.0227 39.3971 20.2932 39.7821 20.4294 39.7197C20.4361 39.7173 20.4404 39.7076 20.4464 39.7016C20.4301 39.8719 20.5002 39.9601 20.587 40.0382C21.1466 40.5424 22.1721 39.2652 25.1647 36.7585C38.9624 24.9321 50.6599 23.889 50.4953 23.0398C50.4568 22.7904 46.6672 23.1697 42.1961 24.6179C35.0312 26.9303 28.7342 30.7714 23.9225 35.3864C23.1014 36.1568 20.8258 38.4708 20.4832 39.5447C20.4761 39.3243 20.3446 38.9216 19.9432 38.4728C19.0109 37.3933 17.0962 36.883 14.9054 37.8243C13.503 38.4501 12.1382 39.4014 12.0137 40.9395C11.9707 41.3479 12.0352 41.7604 12.2008 42.1362C12.3663 42.512 12.6273 42.838 12.9577 43.0819C13.6856 43.5924 14.4937 43.8706 15.9102 43.8058Z" fill="#162B43"/>
<path d="M68.4813 71.91C69.9265 72.3521 71.6121 71.2973 72.0342 69.5435C72.9254 71.1373 74.9269 71.4208 76.0906 69.9502C77.3404 68.3808 76.7344 65.9305 74.218 64.7284C73.5588 64.4396 73.1124 64.3675 72.8045 64.3461C72.1911 64.3167 72.0936 64.5525 71.9998 64.8136C71.5927 65.9389 73.8894 66.0738 74.6137 67.7133C74.7616 68.0806 74.831 68.4479 74.598 68.856C74.3562 69.2453 74.073 69.4203 73.5361 69.2076C72.7424 68.8857 72.3861 67.9334 71.9874 67.4959C71.8174 66.8655 71.6121 66.4902 71.4481 66.2488C71.0868 65.7449 70.8411 65.8173 70.5799 65.9062C69.4446 66.2932 70.8113 68.3174 69.8333 69.5949C69.6042 69.9022 69.2323 70.1626 68.9451 70.1189C68.6309 70.1326 68.1514 69.635 68.0168 69.055C67.8725 68.4873 67.9637 67.8158 68.0402 67.2352C68.5634 66.7446 68.7831 66.3403 68.9147 66.0624C69.1745 65.4444 68.9741 65.2804 68.7581 65.1098C68.5421 64.9391 68.3197 64.8209 67.8124 65.1662C67.4451 65.4 66.7035 66.0895 66.1141 66.1486C65.8103 66.195 65.3161 66.0982 65.1912 65.785C65.072 65.4233 65.6253 64.8527 65.9822 64.6233C67.7604 63.4879 69.7301 64.1892 69.8694 63.9174C70.014 63.6623 68.7083 62.589 66.7306 62.7607C65.6196 62.8609 64.5397 63.3093 63.8255 64.1858C62.8571 65.3522 63.1172 66.9423 64.2128 67.6442C65.1875 68.2643 66.1115 68.2195 66.8204 67.9781C66.1686 69.8437 67.1326 71.52 68.4813 71.91Z" fill="#162B43"/>
<path d="M98.9655 96.8666C98.8162 96.8532 98.7127 96.9173 98.4733 97.512C96.8732 101.309 92.4257 103.097 85.6102 98.2406C82.0182 95.755 79.1135 95.1352 75.6461 98.6343C73.3087 101.028 71.0153 105.362 66.9689 107.88C63.979 109.754 60.3353 110.248 57.2292 107.955C56.5992 107.442 56.0157 106.875 55.4855 106.26C54.3652 104.998 53.3398 103.496 52.0976 102.05C49.0426 98.5702 45.9846 97.318 41.1602 98.9442C38.0454 100.022 33.9476 102.219 31.1483 103.967C25.2874 107.643 22.8943 110.785 19.0606 111.037C16.7883 111.21 14.5527 110.264 14.0371 108.017C13.8544 107.291 13.8825 106.528 14.1183 105.818C14.5523 104.641 15.3227 104.343 15.2489 104.258C15.2375 104.233 15.0542 104.279 14.748 104.467C12.9703 105.547 12.7252 109.18 15.2282 110.945C16.9793 112.206 20.0396 112.581 23.4933 110.687C26.7103 108.951 29.0604 106.281 36.6282 102.64C38.2694 101.863 39.9748 101.076 41.6751 100.527C45.7569 99.2327 48.0833 100.199 50.6871 103.248C51.8248 104.606 52.8282 106.12 54.036 107.517C54.6372 108.229 55.3011 108.886 56.0198 109.479C59.8448 112.392 64.3938 111.853 68.0238 109.588C72.4946 106.758 74.6761 102.538 77.0535 100.007C79.6444 97.2686 81.5895 97.7905 84.563 99.7666C93.4505 105.867 99.0423 101.236 99.2343 97.6837C99.2613 96.9267 99.0904 96.8756 98.9655 96.8666Z" fill="#162B43"/>
<path d="M44.5596 12.5201C48.3249 13.8758 49.2679 14.2548 49.348 14.1052C49.5043 13.8157 46.7288 12.2353 44.9046 11.5765C42.0917 10.6005 41.9457 10.8933 41.8803 11.1357C41.7992 11.4276 41.8292 11.5725 44.5596 12.5201Z" fill="#162B43"/>
<path d="M50.3208 11.5891C50.5856 11.4555 49.3755 8.76248 48.137 7.06652C46.3773 4.72643 46.0878 4.89606 45.8998 5.06101C45.669 5.26136 45.6206 5.39259 47.3216 7.65555C49.7061 10.9426 50.1753 11.6625 50.3208 11.5891Z" fill="#162B43"/>
<path d="M53.081 9.40842C53.3585 9.40375 53.5448 7.21559 53.5268 6.19815C53.4934 4.34057 53.2687 4.30584 52.9925 4.31085C52.7164 4.31586 52.4916 4.35827 52.525 6.21418C52.5404 7.23329 52.8045 9.41343 53.081 9.40842Z" fill="#162B43"/>
<path d="M57.4032 71.3993C57.1785 71.2367 56.9357 71.1863 54.1258 75.0741C52.5854 77.2045 49.4613 81.9084 49.6847 82.0706C49.9081 82.2329 53.3979 77.7932 54.9382 75.6628C57.7515 71.775 57.6279 71.5619 57.4032 71.3993Z" fill="#162B43"/>
<path d="M57.048 78.855C57.8724 77.901 57.7191 77.734 57.5094 77.5527C57.2997 77.3714 57.1121 77.2445 56.288 78.1979C55.8362 78.7204 55.0371 79.9893 55.2472 80.1706C55.4572 80.3519 56.5965 79.3776 57.048 78.855Z" fill="#162B43"/>
<path d="M63.2065 45.5433C63.4436 45.6878 63.5197 45.9887 57.9607 54.7927C56.438 57.2046 53.9944 60.9685 51.9037 64.109C49.8131 67.2495 48.0737 69.7686 47.9578 69.6924C47.842 69.6163 49.3696 66.962 51.306 63.725C53.2424 60.488 55.5878 56.6684 57.1092 54.2591C62.6612 45.4665 62.9697 45.399 63.2065 45.5433Z" fill="white"/>
</g>
<defs>
<clipPath id="clip0_222_4488">
<rect width="87.2387" height="112" fill="white" transform="translate(12)"/>
</clipPath>
</defs>
</svg>
