<svg width="112" height="112" viewBox="0 0 112 112" fill="none" xmlns="http://www.w3.org/2000/svg">
<g clip-path="url(#clip0_222_4554)">
<path d="M12.2263 29.4016C21.2968 50.814 28.4847 74.6881 31.6753 97.797C31.8257 98.8855 32.8228 99.6634 33.9103 99.5051C40.1642 98.5954 45.8795 95.203 51.7744 92.7529C63.1915 88.0076 75.6646 86.7193 88.0353 85.8192C90.1127 85.6681 91.5113 83.627 90.9043 81.6349L72.0996 19.8873C71.9273 19.318 71.5532 18.831 71.0476 18.5178C70.5419 18.2045 69.9394 18.0864 69.3529 18.1856C50.4406 21.4084 30.9492 25.2937 12.2263 29.2389" fill="#007EEF"/>
<path d="M19.9418 28.9979C19.5688 23.4261 23.2016 17.8203 28.4399 15.885C29.3606 15.5445 30.3923 15.2582 30.9588 14.457C31.8802 13.1554 31.0657 11.401 30.7225 9.84385C29.9056 6.13155 32.5009 2.00548 36.2019 1.13546C39.9029 0.265442 44.0643 2.80356 44.9857 6.49189C45.446 8.334 45.2984 10.5549 46.7503 11.7784C48.3147 13.0965 50.6452 12.3772 52.685 12.2258C57.2478 11.886 61.7986 16.2467 62.7919 20.7132" fill="white"/>
<path d="M68.5203 60.7174C66.707 60.6832 65.0786 62.0533 64.3655 63.7217C63.2584 66.3109 64.2072 69.6156 66.5186 71.223C68.8299 72.8305 72.2586 72.5695 74.3004 70.6305C76.3422 68.6914 76.7793 65.2812 75.2938 62.8894C73.8082 60.4975 70.5549 59.3809 67.9123 60.3536" fill="#DBF122"/>
<path d="M101.491 92.5628C103.322 88.8635 79.6424 10.8284 77.8821 11.421C77.7951 11.4508 100.863 92.3483 100.916 92.435C96.6961 92.4127 56.3317 101.568 30.9861 109.652C28.4319 110.478 26.6833 111.088 26.0815 111.373C26.0856 110.794 25.9544 109.655 25.5516 107.368C24.7522 103.037 23.0967 94.5631 19.0186 78.1462C17.88 73.6543 16.3777 67.883 14.6343 61.7892C11.4762 50.7081 7.86971 39.3643 3.79707 28.6388C2.46362 25.1957 1.53366 22.9905 1.29286 22.6887H1.29492C2.96918 22.7319 11.7557 21.7434 21.8784 20.4942C21.2025 21.5302 20.6714 22.6537 20.2997 23.8335C19.866 25.2477 19.7174 26.4709 19.7273 27.3553C14.8466 28.4254 12.201 29.0512 12.226 29.2392C12.266 29.4009 14.1123 29.0912 19.755 27.9719C19.7985 28.6398 19.892 28.9957 19.9458 28.9957C20.0325 28.9957 20.0325 28.5966 20.102 27.9023C20.128 27.7119 20.1541 27.4862 20.1976 27.2515C20.3515 26.1694 20.6335 25.1093 21.0378 24.0938C22.4764 20.4849 25.4564 17.469 29.4335 16.2787C33.8161 14.7318 31.6431 11.2459 31.4633 9.18325C31.203 6.97122 32.2874 4.6208 34.0048 3.25755C35.7048 1.83503 37.9781 1.62678 39.825 2.3293C41.6987 2.98866 43.0691 4.42864 43.685 5.82512C44.5995 7.70902 44.0049 10.7623 46.1049 12.5301C48.6468 14.6637 51.9101 12.5924 54.9353 13.3802C58.3006 14.3496 60.6174 17.0155 62.1862 20.1623C60.9997 19.9338 55.6354 21.1782 46.6091 22.9792C45.8741 23.1268 19.892 28.2757 20.0441 29.0303C20.0989 29.3022 24.6998 28.6494 30.3627 27.7913C36.0257 26.9333 42.7478 25.8047 47.0017 24.9484C48.3012 24.6887 62.1389 21.927 62.5524 20.6754C62.6387 20.735 62.7164 20.7267 62.7942 20.7096C62.9243 20.6836 63.0456 20.623 63.037 20.1198C63.0365 20.0033 63.025 19.8871 63.0028 19.7728C69.4584 18.7343 69.5091 18.4791 70.3757 18.7319C70.789 18.8718 71.1451 19.1435 71.3892 19.5053C71.605 19.8444 90.3498 81.4968 90.3765 81.5855C90.9043 83.069 90.1943 84.4822 89.0235 85.0549C87.9274 85.6276 84.831 85.3012 74.4771 86.6511C49.5144 89.9051 46.3036 96.9485 33.8565 99.1242C32.9875 99.2612 32.1096 98.6515 32.0178 97.528C29.4982 81.4998 26.1733 66.2745 19.0679 46.4991C15.8561 37.5718 12.3109 29.4026 12.2243 29.4026C12.2243 29.6968 15.1785 36.5052 18.6949 46.6289C28.1668 73.8546 30.0397 91.1526 31.2725 97.6311C31.3595 99.0697 32.6313 100.08 33.9699 99.8863C47.462 97.3931 49.5415 90.7963 74.5994 87.5605C85.8483 86.1294 88.0606 86.6381 89.4489 85.9212C90.2722 85.5126 90.9168 84.8161 91.2606 83.9637C91.6044 83.1114 91.6234 82.1625 91.314 81.2971C91.2879 81.2101 72.6041 19.5474 72.1965 18.9655C71.6827 18.1962 70.7983 17.6639 69.7331 17.6639C69.2124 17.6639 62.8826 18.835 62.7938 18.8521C62.3931 17.5317 61.6553 16.3222 60.7901 15.2696C77.5831 12.8151 77.9472 12.3725 77.878 11.9039C77.8088 11.4354 77.3228 11.0973 59.0555 13.5436C57.011 11.8844 54.5866 11.0463 52.0207 11.323C49.5038 11.5724 47.3044 12.1567 46.6088 9.69225C46.1724 8.18513 46.295 6.70028 45.5247 5.0082C44.6745 3.09998 42.8872 1.30446 40.4847 0.471778C39.2873 0.0754746 37.9429 -0.132782 36.5721 0.0929434C35.1896 0.320028 33.8962 0.923205 32.8337 1.8364C30.6912 3.62336 29.416 6.52902 29.8065 9.40007C30.1148 11.3744 31.1766 13.1028 30.2141 14.1883C29.3656 15.1432 26.0825 15.408 23.1957 18.7682C11.3827 20.5983 1 22.3328 1 22.6452C1.00856 22.6713 1.08666 22.6887 1.22538 22.6887H1.22812C1.20654 23.0155 1.91626 25.3262 3.05927 28.8967C6.46878 39.7983 8.88222 47.4616 12.8518 62.2817C14.4914 68.3848 15.9345 74.154 17.0713 78.6346C21.1406 95.0101 23.0118 103.425 24.1651 107.674C25.2831 111.931 25.5663 112.05 25.8373 111.992C25.95 111.967 26.0507 111.909 26.0771 111.541C26.6878 111.482 28.5206 111.065 31.1995 110.404C86.7686 96.6131 102.793 93.9113 101.491 92.5628Z" fill="#162B43"/>
<path d="M36.3292 5.90444C34.7475 6.18873 34.1278 9.14679 36.0864 10.2326C37.4455 11.0132 39.4329 10.1004 39.747 8.48058C39.8388 7.93094 39.7111 7.36723 39.3914 6.91078C38.8622 6.19147 38.1076 5.93903 37.5524 5.97363L37.674 5.67871L36.3292 5.90444Z" fill="#162B43"/>
<path d="M41.5551 46.4947C39.7486 46.7146 39.2187 48.9407 36.4857 48.5636C35.4876 48.4228 35.1598 48.0155 34.3097 47.7758C33.9781 47.6768 33.5126 47.6261 33.0916 47.8302C32.0044 48.3245 32.3795 49.6432 30.4436 50.3307C29.3982 50.7027 28.3093 50.5917 27.5444 50.5132C26.7706 50.4221 26.2808 50.3605 26.2651 50.431C26.2336 50.5749 30.2857 52.2444 32.4254 49.9858C33.3728 48.9524 33.0317 48.1156 34.7546 49.0171C36.6779 50.0789 38.9146 49.6336 40.2491 48.245C41.4897 47.0102 41.837 47.1911 42.3272 47.0616C42.367 47.0571 42.4048 47.0415 42.4363 47.0167C42.4678 46.9919 42.4918 46.9588 42.5056 46.9212C42.5327 46.8585 42.5573 46.7944 42.4508 46.6906C42.3467 46.5951 42.074 46.4433 41.5551 46.4947Z" fill="#162B43"/>
<path d="M61.5376 42.9925C58.8546 42.9003 58.1842 43.0761 55.6153 45.0644C54.3174 46.0855 52.8408 47.097 51.2532 46.6058C50.6671 46.4321 50.2623 46.1119 50.0482 45.8433C49.8283 45.5755 49.7536 45.3837 49.7135 45.398C49.6882 45.4039 49.695 45.6214 49.8817 45.9584C50.3695 46.8682 51.8989 47.5543 53.5152 47.0203C55.456 46.4277 56.7997 44.7596 58.5781 44.1245C60.6782 43.3251 62.6374 44.813 67.0334 42.914C70.6861 41.3494 72.9732 39.7628 75.8706 39.3463C76.7207 39.1798 77.2934 39.2511 77.316 38.9695C77.3219 38.901 77.3143 38.8325 77.1215 38.7691C76.929 38.7236 76.5447 38.5924 75.8041 38.6386C71.218 38.7023 66.8991 43.2771 61.5376 42.9925Z" fill="#162B43"/>
<path d="M41.2756 64.7535C35.3523 67.0827 28.1226 63.057 27.9647 63.5159C27.9305 63.6088 30.3442 64.574 31.7383 65.034C42.5937 68.573 44.6875 62.4613 48.9414 60.4312C51.6912 59.1165 54.5311 60.3284 57.4127 59.6598C59.2367 59.283 60.3691 58.0499 61.6258 56.8435C63.818 54.6747 64.7428 54.8507 67.62 54.8377C68.6476 54.8339 69.6957 54.7637 70.5976 54.3356C71.5087 53.9149 72.1047 53.2861 72.6661 52.8319C73.8687 51.8187 74.4736 51.7539 75.8071 52.0441C76.8004 52.2938 77.7938 52.4612 78.5638 52.1708C79.766 51.7563 80.0476 50.3955 79.5091 49.7789C79.1786 49.4546 79.082 49.5734 79.0604 49.6111C79.0114 49.6796 79.0553 49.7282 79.1806 49.9903C79.3742 50.4945 79.13 51.2878 78.3445 51.4957C77.1615 51.8516 75.6149 50.8144 74.102 51.0668C72.4983 51.3203 71.5231 52.8891 70.202 53.4625C68.6216 54.2037 66.3123 53.5693 64.2564 54.0314C61.2579 54.6685 60.0464 58.0924 57.1874 58.7038C54.6277 59.3429 51.4891 58.1647 48.5584 59.6372C47.6018 60.1123 46.7653 60.7548 45.9878 61.4132C44.4389 62.7343 43.0112 64.1085 41.2756 64.7535Z" fill="#162B43"/>
<path d="M32.7124 40.982C26.7891 43.3112 19.5594 39.2855 19.4015 39.7445C19.3672 39.8373 21.781 40.8025 23.1751 41.2625C34.0304 44.8015 36.1243 38.6898 40.3781 36.6597C43.128 35.3451 45.9678 36.5569 48.8495 35.8883C50.6735 35.5115 51.8059 34.2784 53.0626 33.072C55.2548 30.9032 56.1796 31.0792 59.0568 31.0662C60.0844 31.0624 61.1325 30.9922 62.0344 30.5641C62.9455 30.1434 63.5415 29.5146 64.1029 29.0604C65.3055 28.0472 65.9104 27.9824 67.2439 28.2726C68.2372 28.5223 69.2305 28.6898 70.0005 28.3993C71.2028 27.9848 71.4843 26.624 70.9459 26.0074C70.6154 25.6831 70.5188 25.8019 70.4972 25.8396C70.4482 25.9081 70.492 25.9567 70.6174 26.2188C70.8109 26.723 70.5667 27.5163 69.7813 27.7259C68.5982 28.0818 67.0517 27.0446 65.5388 27.2971C63.9351 27.5505 62.9599 29.1193 61.6388 29.6927C60.0583 30.4339 57.749 29.7996 55.6932 30.2616C52.6947 30.8987 51.4832 34.3226 48.6241 34.934C46.0644 35.5732 42.9259 34.3949 39.9952 35.8674C39.0385 36.3425 38.2021 36.9851 37.4245 37.6434C35.8756 38.9628 34.448 40.337 32.7124 40.982Z" fill="#162B43"/>
<path d="M79.3456 74.559C80.4708 74.3737 80.4575 74.148 80.4126 73.8739C80.3876 73.7225 80.351 73.591 80.1386 73.5314C79.6536 72.671 77.4186 70.0346 76.0759 68.9224C78.1352 64.1955 74.6698 59.3765 69.7912 59.6519C68.8119 59.7365 68.3348 59.9475 68.1091 60.0838C67.8833 60.2201 67.8878 60.2859 67.9111 60.351C68.0799 60.8185 70.6026 59.4799 73.5604 61.6841C74.2965 62.2599 75.0367 63.1066 75.4056 64.3168C76.1249 66.5997 75.373 69.4088 73.2411 70.8385C71.8751 71.7421 69.9837 72.0983 68.1666 71.5341C68.1618 71.317 68.1323 71.317 68.057 71.5071C64.0621 70.1788 62.8437 64.4784 66.1087 61.7663C67.3894 60.7045 68.5461 60.8124 68.5191 60.7154C68.5252 60.6278 67.2212 60.4835 65.87 61.457C62.0881 64.1722 63.1595 70.7278 67.8162 72.3541C67.0602 75.492 66.6958 79.949 66.7297 80.5166C66.7414 80.8193 66.9041 81.2061 67.2092 81.3509C67.5086 81.5202 67.8943 81.4561 68.1841 81.2674C68.6294 80.9612 68.804 80.67 69.062 80.3816C69.2934 80.093 69.5085 79.7917 69.7063 79.479C69.7234 79.4581 69.7248 79.4657 69.7248 79.4657V79.479C69.6696 79.392 69.9347 79.8757 70.3646 80.1298C71.1959 80.6162 72.154 80.2977 72.3917 79.5688C72.5211 79.2235 72.5146 78.9385 72.5205 78.7056C72.5297 77.4009 72.5636 73.7489 72.392 72.5679C73.3785 74.6535 75.4813 76.856 76.6342 77.4369C76.9719 77.5958 77.0603 77.5054 77.148 77.3985C77.18 77.3648 77.2029 77.3234 77.2146 77.2783C77.2262 77.2333 77.2262 77.186 77.2144 77.141C77.6467 76.7573 78.1132 75.7023 77.9844 74.598C78.4352 74.6364 79.0028 74.6155 79.3456 74.559ZM71.5449 78.0418C71.509 78.784 71.6107 79.2677 71.2874 79.3544C70.5273 79.5225 70.1745 77.998 69.8248 77.1279C69.3589 78.0528 69.0651 78.8145 68.3194 79.7996C68.1139 80.0562 67.8679 80.386 67.6956 80.4987C67.6669 80.5237 67.6114 80.5426 67.6004 80.4412C67.5847 80.323 67.598 80.1244 67.6004 79.9367C67.6627 78.9468 67.4634 79.889 68.1142 72.4353C69.3332 72.7981 70.5023 72.8498 71.8423 72.499C71.6347 73.5818 71.5806 76.7351 71.5449 78.0418ZM76.9147 76.6765C76.9103 76.6714 74.4297 74.1517 73.4812 73.0889C73.1778 72.7532 72.9051 72.4453 72.6856 72.2141C73.8323 71.7499 74.8356 71.0433 75.6409 69.7537C76.701 71.0169 78.5965 72.7641 79.6125 73.5136C78.9696 73.5782 78.342 73.7497 77.7556 74.0209C77.6642 73.962 77.5618 73.9716 77.4713 73.9866C76.9942 74.0476 77.0603 74.2254 76.9147 76.6765Z" fill="#162B43"/>
<path d="M54.0037 72.43C52.8514 73.2805 51.2737 74.9767 48.9452 73.7607C47.3631 73.1068 45.4974 71.7741 43.5282 73.5867C42.0697 74.9681 41.7025 76.7294 39.1466 77.0767C37.3312 77.3312 35.6771 76.6383 34.5567 76.1324C33.424 75.6021 32.727 75.2356 32.6893 75.3024C32.6591 75.3562 33.2791 75.8316 34.3773 76.479C35.4593 77.0932 37.1548 77.9628 39.2274 77.7806C42.1509 77.5378 42.8493 75.4117 44.1492 74.2711C45.572 72.9565 46.9949 74.0238 48.5462 74.6821C49.929 75.2809 50.96 75.387 52.3421 74.7568C54.0756 73.8662 55.7105 71.885 57.0912 71.36C57.9294 71.0065 58.3586 71.151 58.3952 70.8756C58.4045 70.8071 58.4034 70.741 58.2099 70.6701C56.8597 70.1899 55.108 71.5158 54.0037 72.43Z" fill="#162B43"/>
<path d="M109.929 57.5753C110.117 55.431 102.156 24.5345 100.237 21.4418C100.254 21.2942 100.239 21.0965 100.169 20.8112C100.047 20.3854 99.7792 19.7566 99.1174 19.0328C97.5716 17.3801 95.3154 16.5848 93.1146 17.03L93.7709 16.6834C94.0244 16.755 94.3011 16.8711 94.5176 16.4454C94.6142 16.2361 94.6546 15.8514 94.4556 15.4202C94.0052 14.4296 92.7063 13.898 91.7079 14.4954C90.4785 15.2534 90.6762 17.0581 91.7116 17.5226C89.5986 18.5413 88.3086 20.5413 88.1514 22.3711C88.0911 23.1387 88.2415 23.5956 88.3672 23.5959C88.5169 23.6007 88.6385 23.1695 88.9098 22.5601C90.5679 18.9126 94.5272 17.6058 97.8155 20.3495C98.3673 20.8198 98.6718 21.2133 98.9081 21.4678C99.0196 21.6034 99.1492 21.723 99.2935 21.823C99.3024 22.1364 99.3582 22.5913 99.4771 23.2421C97.387 23.4774 92.5916 25.3812 90.4189 26.5865C90.2343 25.944 90.0733 25.4196 89.9291 24.9989C89.3396 23.2281 89.0783 23.2096 88.8077 23.2705C88.5371 23.3315 88.309 23.4586 88.5453 25.3161C89.2304 30.3204 92.1713 42.1684 95.9179 52.2825C97.5219 56.659 99.0883 60.1884 99.5778 60.8039C99.5524 60.8039 99.5147 60.7926 99.5031 60.8039C99.3661 60.9574 100.081 61.8377 102.533 65.0944C103.228 65.9918 104.779 67.9298 105.691 68.6084C105.852 68.7351 106.224 68.9584 106.551 69.0362C106.617 69.0484 106.685 69.0568 106.752 69.0615C106.217 69.7548 107.534 71.7415 108.247 71.5168C108.923 71.3047 108.932 69.0543 108.135 68.6776C108.854 68.0381 108.913 67.1985 109.215 65.739C110.682 58.4124 110.415 57.7311 109.929 57.5753ZM90.6789 27.5124C92.968 27.2041 97.7651 25.9313 99.8083 24.8359C101.883 33.9923 107.996 53.6441 109.495 57.0604C109.457 57.0443 109.421 57.0282 109.377 57.0128C108.84 56.8566 107.727 56.6936 105.651 57.156C102.751 57.791 100.137 59.8986 99.737 60.8234C99.7891 60.2319 98.5981 56.4525 97.266 51.839C94.6125 42.763 91.8867 31.8827 90.6796 27.5124H90.6789ZM106.872 67.1472C106.142 66.9571 102.133 62.3518 100.131 61.0632C101.085 60.8114 102.684 59.8668 106.106 59.1108C107.447 58.8118 108.317 58.6963 108.88 58.5751C107.82 61.4376 107.005 67.1228 106.872 67.1472H106.872Z" fill="#162B43"/>
<path d="M109.475 33.6018C109.075 32.146 107.14 25.3061 106.221 23.6616C104.671 20.8766 102.11 20.4597 100.823 21.2133C100.517 21.3903 100.408 21.565 100.44 21.6144C100.513 21.7555 101.175 21.4027 102.181 21.6664C104.495 22.2234 105.195 24.6536 105.692 26.7591C106.193 28.8523 106.797 31.4319 107.539 34.1334C110.099 43.459 110.586 43.535 111.121 43.3884C111.655 43.2418 112.035 42.9284 109.475 33.6018Z" fill="#162B43"/>
<path d="M77.6965 10.0762C77.9705 10.0338 77.8212 7.59566 77.6479 6.47526C77.3321 4.43106 77.1032 4.4225 76.8292 4.46463C76.5552 4.50676 76.3398 4.58417 76.6559 6.62871C76.8289 7.74877 77.4228 10.1187 77.6965 10.0762Z" fill="#162B43"/>
<path d="M80.6261 8.80718C81.1954 8.13959 81.7616 7.25485 82.0548 6.65851C82.5919 5.57064 82.7398 4.95992 82.7676 4.6376C82.7885 4.31152 82.6737 4.26082 82.5429 4.2139C82.2521 4.11114 82.1291 4.13169 81.1567 6.20911C80.8785 6.77428 80.4398 7.66382 80.0387 8.40745C79.6434 9.15313 79.3012 9.76317 79.4101 9.85257C79.5191 9.94197 80.0609 9.47922 80.6261 8.80718Z" fill="#162B43"/>
<path d="M81.8269 11.6624C81.9242 11.922 84.0944 11.3483 85.0689 10.9831C86.8473 10.3159 86.8055 10.0926 86.7082 9.83225C86.611 9.57193 86.4948 9.376 84.7164 10.0429C83.742 10.4084 81.7296 11.4027 81.8269 11.6624Z" fill="#162B43"/>
<path d="M10.5419 76.8788C10.2788 76.9661 12.3305 83.8636 13.3848 87.0443C15.3109 92.8487 15.5643 92.8998 15.8277 92.8124C16.0911 92.7251 16.2638 92.5329 14.3377 86.7278C13.2835 83.5471 10.8049 76.7918 10.5419 76.8788Z" fill="#162B43"/>
<path d="M8.6383 82.922C8.37798 83.0179 8.99247 85.3471 9.37747 86.3966C10.0793 88.3116 10.305 88.2743 10.5654 88.1777C10.8257 88.0811 11.0219 87.9647 10.3198 86.0496C9.93648 85.0015 8.89965 82.8268 8.6383 82.922Z" fill="#162B43"/>
<path d="M70.7683 67.877C71.6369 67.4101 72.0425 66.4452 71.8301 65.5985C71.6016 64.6935 70.6254 63.9623 69.5177 64.1863C68.6408 64.3479 67.9781 65.3039 68.2689 66.2678C67.8462 67.5177 69.4615 68.5781 70.7683 67.877ZM69.8534 66.3791C69.8294 66.4517 69.7243 66.4993 69.6136 66.5161C69.7092 66.1914 69.7095 66.1698 69.8746 66.0311C69.8801 66.1681 69.8955 66.128 69.8935 66.1431C69.8935 66.1431 69.8955 66.1404 69.9048 66.14C69.914 66.1397 69.9359 66.1346 69.939 66.1743C69.9293 66.249 69.8997 66.3197 69.8534 66.3791Z" fill="#162B43"/>
</g>
<defs>
<clipPath id="clip0_222_4554">
<rect width="110.51" height="112" fill="white" transform="translate(1)"/>
</clipPath>
</defs>
</svg>
