<svg width="112" height="112" viewBox="0 0 112 112" fill="none" xmlns="http://www.w3.org/2000/svg">
<g clip-path="url(#clip0_222_4152)">
<path d="M79.5439 108.447H73.2929L57.9623 108.271L38.6808 107.803L20.5197 107.214C9.90595 106.801 13.3849 107.744 23.8218 108.862C38.7162 110.261 53.6809 110.773 68.6362 110.394C85.6774 109.864 93.5195 109.511 98.4139 109.334C102.417 109.244 106.413 108.929 110.381 108.389C112.916 108.036 112.267 107.859 109.85 107.859L98.7644 108.094L85.7932 108.389L79.5439 108.447Z" fill="#162B43"/>
<path d="M47.349 58.7092C40.4699 52.1955 33.8854 45.3481 27.5955 38.1669C27.1829 37.6958 25.532 38.3434 26.0036 38.873C32.2538 45.9953 38.8581 52.8823 45.7571 59.4158C46.2274 59.8865 47.8205 59.1804 47.349 58.7092Z" fill="#162B43"/>
<path d="M50.8865 30.5142H50.7088L50.3548 30.6319L50.119 30.7499L50.0011 30.8676C49.9421 30.8676 49.8832 30.9265 49.9421 30.9853C49.924 31.0873 49.945 31.1924 50.0011 31.2795C49.9984 31.3114 50.0022 31.3435 50.0124 31.3738C50.0225 31.4042 50.0387 31.4322 50.06 31.456C50.0752 31.4564 50.0897 31.4626 50.1004 31.4734C50.1058 31.4786 50.1101 31.4849 50.1131 31.4918C50.1161 31.4987 50.1177 31.5061 50.1178 31.5137H51.2381L51.5918 31.3371C51.6511 31.2783 51.7097 31.2783 51.7097 31.2195C51.7097 31.1606 51.769 31.1606 51.828 31.1018V30.5142C51.828 30.4553 51.769 30.4553 51.7097 30.3965H50.6487L50.2946 30.573L50.1767 30.6911C50.1178 30.6911 50.1178 30.7499 50.1178 30.8676V31.2207H50.2357L50.4125 31.103H50.6487L50.8845 30.9853H51.769C51.7652 30.9399 51.7439 30.8978 51.7097 30.8676C51.7126 30.8358 51.7088 30.8037 51.6988 30.7733C51.6883 30.7436 51.6721 30.7162 51.6511 30.6927V30.5158L50.8275 30.9849H51.0633L51.358 30.8672L51.6532 30.7495C51.6844 30.7493 51.7144 30.7368 51.7364 30.7147C51.7585 30.6926 51.7709 30.6627 51.7711 30.6314V30.5138L50.8865 30.5142Z" fill="#162B43"/>
<path d="M61.1465 7.6761C63.4371 7.29594 65.7858 7.8241 67.6919 9.14796C70.9342 11.5613 72.4091 15.7403 73.6473 19.4485C74.3543 21.5677 74.9445 23.6868 75.6515 25.8055C75.7112 26.0413 76.2417 25.9232 76.3596 25.8647C79.2491 25.2759 82.1968 24.8052 85.0859 23.981C85.2046 23.9221 85.9705 23.7456 85.853 23.5103C84.9095 20.5682 83.848 17.626 82.6098 14.7396C81.5837 12.1688 80.0839 9.81285 78.1881 7.79378C74.4132 3.96784 69.2838 1.2603 63.8584 1.02493C53.7772 0.553792 42.4545 6.79347 39.978 16.9195C38.3861 23.2177 39.7422 29.9281 41.5703 35.9908C41.6882 36.4027 43.0444 35.8731 43.2212 35.6966L46.4054 32.106L45.6977 32.4591L50.8275 31.1053C50.9454 31.0465 51.7121 30.8699 51.6532 30.6342C49.9417 23.8045 48.5287 12.6797 56.3704 8.97103C57.8877 8.3008 59.4981 7.86419 61.1465 7.6761C61.3234 7.6761 62.149 7.49957 62.149 7.2642C62.149 7.02884 61.6775 7.08768 61.4998 7.08768C58.1395 7.61726 54.6012 8.55913 52.1841 10.9725C49.7669 13.3858 48.5279 18.5655 48.7051 22.6272C48.7897 25.4713 49.2047 28.2959 49.9417 31.0445L50.7088 30.6322L45.5814 31.9275C44.6968 32.2217 44.1684 33.1043 43.5175 33.752L41.6898 35.8123L43.2818 35.5181C41.7476 30.3379 40.5695 24.864 41.1589 19.4485C41.4025 16.9127 42.1668 14.4541 43.4042 12.2261C44.6416 9.99811 46.3255 8.0485 48.351 6.49885C52.129 3.45018 56.8201 1.75109 61.6775 1.67219C66.8662 1.61335 71.7603 4.02668 75.5336 7.44073C77.781 9.46224 79.5532 11.9546 80.7232 14.7396C82.0203 17.7417 83.1407 20.8612 84.1432 23.9221L84.968 23.451C82.2309 24.2055 79.4556 24.8146 76.6539 25.2759L77.3621 25.3936C75.947 21.1558 75.0035 16.6233 72.7627 12.7385C71.2286 9.97215 68.8712 7.55882 65.628 7.02924C64.2567 6.843 62.8652 6.86283 61.4998 7.08808C61.3234 7.14692 60.4981 7.32345 60.4981 7.55882C60.4981 7.79419 60.9697 7.73494 61.1465 7.6761Z" fill="#162B43"/>
<path d="M43.9286 32.6334C45.2851 39.3438 46.8181 45.9949 48.41 52.5877C49.335 56.6093 50.4767 60.5782 51.8301 64.477C53.4809 68.7741 56.783 72.4235 60.4974 75.131C65.5469 78.9022 71.7748 80.7592 78.0691 80.3704C83.8477 79.9581 89.4495 77.7805 93.459 73.4834C96.5235 69.9926 98.4741 65.6678 99.0608 61.0633C99.3555 58.9377 99.4148 56.7861 99.2376 54.6475C99.0018 52.5877 98.4705 50.6451 98.0583 48.6424C96.1127 39.9898 94.2846 31.2784 92.3984 22.5665C92.3875 22.3847 92.3474 22.2057 92.2797 22.0365L90.3341 23.2726L88.921 22.7431L90.3946 21.8012C88.9816 22.2131 87.4474 22.4488 85.9721 22.7431L75.4174 25.1008L51.3601 30.3401L50.1808 30.5755H49.4731L47.6437 30.985L46.4644 31.2203H45.9925C46.3457 31.1522 46.7104 31.1724 47.0539 31.2792L47.3486 31.5734C46.7002 30.5727 43.516 31.8088 43.9286 32.4564C44.3412 33.1041 45.6978 32.7506 46.4051 32.633L50.0629 32.0449L60.9128 29.7477L85.5583 24.335L89.5076 23.4508C90.3922 23.2742 91.8662 23.0977 92.2789 22.2147C92.6915 21.3317 91.0996 21.6851 90.8658 21.6851C90.4532 21.8028 88.743 22.1558 88.8617 22.9212C90.4532 30.3369 92.0451 37.7526 93.6964 45.1707C94.1679 47.4075 94.6395 49.7032 95.1704 51.9416C95.6032 53.837 95.86 55.7681 95.9375 57.7105C96.0093 62.0528 94.9312 66.337 92.8122 70.1298C91.7257 72.084 90.2627 73.8043 88.5076 75.1919C87.6289 75.9401 86.658 76.5732 85.6185 77.0756L84.2054 77.6645L82.4358 78.2529C79.605 78.8823 76.6745 78.9224 73.8274 78.3706C71.0136 77.828 68.3185 76.7918 65.867 75.31C61.7397 72.8374 57.7887 69.188 55.7249 64.7152C54.2508 61.4188 53.4236 57.7105 52.4821 54.1784C50.595 46.9384 49.0031 39.5219 47.4697 32.1642C47.4108 32.0465 47.4108 31.8696 47.3518 31.7519C47.1718 30.75 43.7518 31.5738 43.9286 32.6334Z" fill="#162B43"/>
<path d="M69.8737 65.5962C75.0625 64.3601 80.1927 62.3006 86.2653 62.0056C83.4343 57.3555 79.4252 50.7611 77.2435 45.7599C77.1044 45.5061 77.0239 45.2246 77.0077 44.9357C77.1099 44.5553 77.3135 44.2096 77.5967 43.9354C79.5431 41.404 77.8923 37.3427 74.9438 36.2831C73.426 35.7626 71.7775 35.7637 70.2604 36.2863C68.7434 36.8088 67.4449 37.8227 66.5716 39.1668C64.6846 42.4039 67.161 46.8775 68.8123 46.6422L71.4657 47.0541L71.2888 48.7024C70.9941 54.3537 70.5221 59.9461 69.8737 65.5962Z" fill="#DBF122"/>
<path d="M43.9875 32.163L39.4471 37.2838L38.3268 38.5788C38.0994 38.7719 37.9182 39.0133 37.7963 39.2853C37.8176 39.7061 37.8968 40.122 38.0316 40.5214C39.3878 45.9953 40.7439 51.4696 42.1594 56.8843C42.9265 59.9473 43.7513 62.947 44.6359 65.9496C45.2989 68.5285 46.3954 70.9764 47.8787 73.1892C53.7732 81.4887 64.5072 84.9028 74.2949 84.3127C79.0122 84.0185 84.0831 82.959 88.1519 80.428C92.2274 77.957 95.3449 74.1815 96.9969 69.7163C97.39 68.61 97.6674 67.466 97.8245 66.3027C98.0014 64.9489 94.5224 65.5369 94.4045 66.7145C93.8851 70.4812 92.1456 73.9748 89.4515 76.6625C88.2364 77.8988 86.8455 78.9499 85.3237 79.7819L84.6164 80.1354C84.2063 80.362 83.7709 80.5397 83.3192 80.6649L81.0179 81.4307C76.9389 82.5262 72.6729 82.741 68.5041 82.0609C64.3354 81.3808 60.3598 79.8214 56.8424 77.4867C54.1139 75.648 51.8199 73.2375 50.1202 70.4232C49.2248 68.6834 48.5323 66.8467 48.0563 64.9493C46.5222 59.8877 45.2262 54.7075 43.929 49.5863L42.1602 42.5816C41.8651 41.346 41.6883 39.9918 41.2756 38.8145C41.2756 38.7557 41.2167 38.6969 41.2167 38.638L41.1 39.1088L47.1734 32.2218C47.7628 31.633 46.7014 31.2211 46.2298 31.2211C45.8092 31.1977 45.3887 31.2703 45.0004 31.4335C44.6122 31.5967 44.2663 31.8462 43.9891 32.163H43.9875Z" fill="#162B43"/>
<path d="M44.8144 12.562L43.9298 14.1515C43.278 15.4891 42.7639 16.8892 42.3956 18.3305C41.9172 20.1358 41.6793 21.9962 41.6882 23.8637C41.6564 25.6086 41.8546 27.3501 42.2777 29.0434C42.6314 30.5148 42.9854 30.986 43.2212 30.6914C43.4842 29.7935 43.6035 28.8599 43.5749 27.925C43.6928 26.5144 43.7517 24.6286 43.9875 22.5687C44.248 20.3884 44.6419 18.226 45.1668 16.0937C45.6234 14.386 46.3393 12.7583 47.2896 11.267C47.7848 10.4672 48.3576 9.718 48.9999 9.03022C49.8003 8.27397 50.53 7.44649 51.18 6.55805C51.652 5.96963 51.4162 5.91079 50.7674 6.205C49.8166 6.7294 48.9435 7.38319 48.173 8.14759C47.2652 9.01902 46.4547 9.98601 45.7555 11.0317C45.1668 11.9147 44.8144 12.562 44.8144 12.562Z" fill="#162B43"/>
<path d="M39.5658 39.638L39.3885 40.5798V40.6979L39.5068 40.8156H40.0963L40.7451 40.5802L40.863 40.4626C40.9809 40.4037 41.0398 40.3449 41.0398 40.2272L41.2167 39.3442C41.2356 39.3274 41.2487 39.3051 41.254 39.2805C41.2593 39.2558 41.2565 39.2301 41.2461 39.2071C41.2393 39.1917 41.2292 39.178 41.2167 39.1668L41.0398 39.0491H40.5089C40.2802 39.0439 40.0549 39.1052 39.8605 39.2257L39.6837 39.3433L39.5068 39.5787L39.5658 39.638Z" fill="#162B43"/>
<path d="M41.6883 42.6988C42.3956 40.639 43.1623 38.6964 43.9896 36.6937H42.3383L41.6294 46.7033C41.5704 47.5271 43.1635 47.0564 43.3392 46.5268C44.2238 43.76 45.2852 41.1113 46.4075 38.4626H44.7563L42.1029 53.8256C41.9851 54.5317 43.516 54.1198 43.7538 53.7668L48.3531 45.4672H46.7023C46.0535 50.5293 45.6409 55.6501 45.4051 60.771C45.4051 61.5952 46.9393 61.0652 47.1149 60.5945L50.0044 53.4133L48.2942 53.5903L47.2328 66.5984C47.1738 67.4226 48.767 66.9514 49.0019 66.4219L51.7142 58.4754L50.0044 58.6519L49.8272 71.7193C49.7682 72.485 51.3613 72.0727 51.5374 71.4839L53.422 63.832L51.7122 64.0085C51.536 67.529 51.7138 71.0582 52.2431 74.5433C52.361 75.2494 53.7773 74.6021 53.9529 74.1902C54.6555 72.2097 55.1302 70.1558 55.368 68.0682L53.6582 68.4217L55.9595 78.4869C56.0774 79.1346 57.5514 78.6634 57.6693 78.1339L58.6128 71.4234L56.903 71.7773C57.9051 74.7194 58.9665 77.6615 60.0868 80.5472C60.3222 81.1948 61.856 80.7237 61.797 80.0764L61.1482 74.5433L59.4368 74.9556L62.0902 82.019C62.3259 82.6667 63.6821 82.1956 63.7996 81.666C64.2537 80.0597 64.4137 78.3847 64.2719 76.7216L62.5617 77.1924C63.5728 79.1819 64.7359 81.0908 66.0407 82.9021C66.3358 83.314 67.6919 83.0198 67.6919 82.4902L67.8688 78.0166L66.2171 78.4285C67.2994 79.7017 68.2481 81.0825 69.0481 82.549C69.3428 83.0786 70.5823 82.549 70.6985 82.1367C71.1011 80.902 71.1822 79.5854 70.9343 78.3108L69.2249 78.7815C69.7655 80.355 70.6291 81.7985 71.7604 83.0198C72.1136 83.4316 73.234 83.0786 73.4116 82.549C73.7165 81.4986 73.8166 80.3996 73.7064 79.3115L72.0547 79.8999L73.7064 82.6667C74.0011 83.1963 75.2405 82.6667 75.3568 82.2544L75.9471 80.2534L74.2954 80.7241L76.3597 82.9005C76.7719 83.3124 77.6565 82.9593 77.9512 82.5474C78.6811 81.6509 79.2048 80.6052 79.4854 79.4844L77.8337 79.9551L80.3102 82.0154C80.7236 82.3689 81.3716 82.1331 81.7851 81.8389C82.7428 81.0508 83.4241 79.9786 83.7302 78.7779L82.079 79.2523L84.0839 80.9002C84.4961 81.1948 85.5579 81.0179 85.6754 80.4295C85.7422 79.7758 86.0101 79.1588 86.4425 78.6634C86.7372 78.3692 87.2096 78.6634 87.3263 79.1346C87.443 79.6057 88.8605 79.2523 89.0365 78.7811L90.0394 75.7205L88.5052 76.2501L89.5666 76.9566C90.039 77.3097 91.5715 76.6036 90.8638 76.1324L89.8613 75.3667C89.5846 75.2556 89.277 75.2481 88.9951 75.3454C88.7133 75.4427 88.4761 75.6383 88.3271 75.8962L87.3275 79.0169L89.0377 78.6634C88.7434 77.4273 87.2096 77.3097 86.2071 77.6039C85.2047 77.8981 84.262 79.3111 83.9664 80.606L85.6177 80.1941L83.6717 78.5457C83.5335 78.4636 83.38 78.4106 83.2206 78.3899C83.0611 78.3693 82.8991 78.3813 82.7445 78.4255C82.59 78.4696 82.446 78.5448 82.3216 78.6465C82.1973 78.7482 82.095 78.8743 82.0212 79.0169C81.7487 79.9956 81.17 80.8618 80.3696 81.4891L81.8444 81.3125L79.4269 79.2523C79.2886 79.1702 79.135 79.1173 78.9755 79.0966C78.816 79.0759 78.654 79.088 78.4993 79.1321C78.3447 79.1762 78.2007 79.2513 78.0762 79.3529C77.9516 79.4545 77.8492 79.5805 77.7752 79.723C77.4844 80.7264 77.0048 81.6654 76.3621 82.4898L77.9536 82.1952L75.8905 80.0188C75.4771 79.6065 74.4157 79.9596 74.2389 80.4895L73.6498 82.4321L75.3003 81.961L73.6498 79.2535C73.3543 78.7235 71.9392 79.1946 71.9982 79.783C72.0495 80.773 71.9502 81.7649 71.7038 82.7251L73.3543 82.3128C72.2847 81.1563 71.4622 79.7945 70.9367 78.3104C70.701 77.722 69.0505 78.1339 69.2273 78.7811C69.4154 79.9611 69.3348 81.1682 68.9916 82.3128L70.6424 81.9009C69.8368 80.424 68.8677 79.042 67.7533 77.7808C67.4578 77.3685 66.1606 77.6039 66.1606 78.1927L65.9842 82.6663L67.6354 82.1952C66.3366 80.4859 65.2107 78.6523 64.2743 76.7212C63.9796 76.1324 62.5641 76.4859 62.5641 77.192C62.6731 78.7769 62.5137 80.3689 62.0926 81.9009L63.802 81.5479L61.149 74.5433C60.9133 73.8956 59.3803 74.3079 59.4392 74.9552L60.0876 80.5472L61.7978 80.0764C60.6775 77.192 59.6177 74.2491 58.6136 71.3058C58.4368 70.6585 57.0217 71.0704 56.9038 71.6L55.9574 78.3104L57.6673 78.0162L55.366 67.9505C55.2481 67.3033 53.7151 67.7152 53.6562 68.2456C53.4232 70.3527 52.9491 72.4262 52.2431 74.4256L53.9529 74.1314C53.4527 70.7417 53.275 67.3124 53.422 63.8892C53.422 63.065 51.8301 63.4769 51.7122 64.0658L49.8251 71.7773L51.5354 71.5411L51.7122 58.5326C51.7711 57.7092 50.178 58.1795 50.0024 58.7091L47.2308 66.6556L48.9999 66.4791L50.0024 53.4706C50.0613 52.6468 48.5279 53.1764 48.2922 53.6475L45.4031 60.8282L47.1129 60.6517C47.3486 55.5308 47.7617 50.41 48.4101 45.3479C48.469 44.5822 46.936 44.9945 46.7592 45.4068L42.1599 53.6475H43.8107L46.4645 38.401C46.5824 37.6944 44.99 38.0479 44.8132 38.4598C43.6339 41.2262 42.5725 43.9926 41.6294 46.8182L43.3392 46.6417L44.0473 36.6361C44.1063 35.8703 42.5729 36.2242 42.3961 36.6949C41.5119 38.7552 40.7452 40.8155 39.9785 42.9346C39.8017 43.5819 41.5127 43.3465 41.6887 42.7581L41.6883 42.6988Z" fill="#162B43"/>
<path d="M64.9796 80.0176L60.9108 92.9084C60.7929 93.3791 62.445 93.2026 62.621 92.6726L66.6894 79.7818C66.8663 79.3111 65.1565 79.4876 64.9796 80.0176Z" fill="#162B43"/>
<path d="M77.2434 81.6058C77.7743 85.8441 78.4817 90.0819 79.3073 94.2609C79.4252 94.9082 81.1354 94.4963 81.0175 93.8486C80.1919 89.6108 79.4833 85.4314 78.9536 81.1347C78.8947 80.5475 77.1845 80.961 77.2434 81.6058Z" fill="#162B43"/>
<path d="M45.6977 103.739L45.875 103.974L46.4055 104.621C47.0605 105.392 47.8889 105.997 48.823 106.388C50.1426 107.036 51.5984 107.359 53.0687 107.33C54.7675 107.332 56.4635 107.194 58.1396 106.917L60.8518 106.329L62.2649 105.917L62.9727 105.681C63.2652 105.557 63.5423 105.399 63.7983 105.211C64.164 104.963 64.4505 104.616 64.6235 104.21C64.7684 103.891 64.8683 103.554 64.9203 103.208C64.9792 102.561 64.9792 102.089 64.9792 101.619C64.9792 101.148 64.9792 99.735 64.9203 98.7927V96.0267C64.9298 95.5558 64.9101 95.0847 64.8613 94.6161V93.8504C64.8736 93.4451 64.7928 93.0424 64.6251 92.6731C64.551 92.5062 64.437 92.3599 64.2932 92.247C64.1493 92.1342 63.98 92.0583 63.7999 92.0259C63.4149 91.9283 63.0174 91.8886 62.6206 91.9082H59.4364C59.1055 91.9434 58.7849 92.0434 58.4928 92.2024C58.2333 92.3772 58.0288 92.6221 57.9034 92.9085V93.3208L57.7855 93.5562C57.7261 93.8504 57.6083 94.145 57.5493 94.3804C57.4904 94.6157 57.3135 95.2626 57.2546 95.5576C57.1956 95.8526 57.1956 96.2637 57.4314 96.0872C57.8607 95.6332 58.2186 95.1168 58.4928 94.5557L58.8465 93.908C58.9555 93.6933 59.0946 93.4952 59.2595 93.3196H59.9079L61.0283 93.4373H63.0332C63.0922 93.4373 63.1511 93.4961 63.0922 93.555V93.7903C63.0922 94.2615 63.0332 94.6734 63.0332 95.1441C62.9153 97.0867 62.8564 99.2058 62.7974 101.443C62.8158 101.914 62.796 102.387 62.7385 102.855L62.6206 103.032L62.2076 103.267C61.2051 103.621 60.0848 103.915 58.9648 104.209L55.4858 104.798C54.3368 104.991 53.1715 105.07 52.0069 105.033C49.7661 104.857 47.938 103.856 47.0539 102.502C46.659 101.928 46.4284 101.258 46.3868 100.563C46.3452 99.868 46.4941 99.1749 46.8177 98.5581C47.4005 97.6879 48.248 97.0277 49.2352 96.6748C49.9795 96.422 50.7527 96.2637 51.5365 96.2037L53.2467 96.3213L54.0138 96.4983L54.7216 96.6748C55.8062 97.0052 56.8241 97.5236 57.7286 98.2063C58.3184 98.677 58.5542 98.9128 58.6131 98.7355C58.4435 98.3427 58.2038 97.984 57.9058 97.6767C57.2501 96.9319 56.4471 96.3305 55.5472 95.9107C54.3479 95.3372 53.0431 95.0166 51.7142 94.9688C50.9973 94.9801 50.2846 95.0788 49.5917 95.2626C48.8899 95.4199 48.2146 95.6779 47.5868 96.0283C46.9417 96.4004 46.3637 96.8779 45.877 97.4409C45.4696 98.0242 45.1884 98.6858 45.0514 99.3836C44.8705 100.388 44.9517 101.422 45.2871 102.386C45.3769 102.85 45.5145 103.303 45.6977 103.739Z" fill="#162B43"/>
<path d="M95.346 102.974L95.2281 103.091L94.9333 103.563C94.5311 104.064 94.0546 104.5 93.5203 104.858C92.6672 105.451 91.7052 105.871 90.6893 106.094C89.3738 106.382 88.0238 106.481 86.6802 106.388L84.379 106.211L81.9614 105.857C81.1762 105.713 80.4058 105.497 79.6601 105.213C79.08 104.971 78.5573 104.61 78.1259 104.153C78.055 103.884 78.035 103.605 78.067 103.328V102.034C78.067 101.15 78.067 100.209 78.008 99.3264C77.9491 98.4433 77.9483 97.6187 77.9483 96.7365C77.9572 96.3041 77.9375 95.8715 77.8893 95.4416V95.3239C77.9483 95.2643 77.8304 95.2643 78.5386 95.147L79.9516 94.8528L81.3078 94.4409L81.6033 94.3232H81.957L82.0749 94.4997H82.1334V94.6174C82.1995 94.7244 82.2398 94.8453 82.2513 94.9705C82.4281 95.4416 82.605 95.7946 82.6639 96.03C82.7228 96.2654 83.0773 96.7958 83.1363 96.7365C83.1952 96.6773 83.3127 96.2654 83.2542 95.6181C83.2377 95.2433 83.1984 94.8698 83.1363 94.4997C83.0887 94.3884 83.0685 94.2674 83.0773 94.1467C83.0107 93.9977 82.9708 93.8382 82.9594 93.6755C82.8587 93.3361 82.7404 93.002 82.605 92.6748L81.8379 92.9102L81.4244 93.0283H81.0708L79.774 93.3225L78.2999 93.499L77.3564 93.6167H75.9413C75.8824 95.5004 75.8824 97.5603 75.8235 99.7383C75.8235 100.68 75.7645 101.681 75.7645 102.68V103.446C75.7597 103.761 75.7794 104.076 75.8235 104.388C75.8802 104.805 76.0206 105.205 76.2361 105.566C76.4462 105.879 76.7051 106.158 77.0032 106.39C78.0001 107.136 79.1465 107.658 80.3642 107.921C81.4841 108.208 82.6292 108.386 83.7834 108.452C86.14 108.792 88.5393 108.692 90.8593 108.157C93.6309 107.451 95.8131 105.743 96.7538 103.683C97.1719 102.804 97.374 101.838 97.3432 100.866C97.3125 99.8932 97.0498 98.942 96.5769 98.0911C96.1549 97.4631 95.6142 96.9233 94.985 96.502L93.3935 95.6189C92.5414 95.1836 91.6258 94.8856 90.6804 94.7359C89.9747 94.6332 89.2565 94.6532 88.5576 94.7947C87.9783 94.928 87.4219 95.1462 86.9067 95.4424C85.7651 96.0566 84.7461 96.8745 83.9001 97.8557C82.7798 99.0918 83.1924 98.9153 84.4302 98.0911C85.2127 97.5318 86.0411 97.0395 86.9067 96.6196C87.9421 96.0262 89.1404 95.7786 90.3268 95.9131C90.9379 96.0076 91.5331 96.1857 92.0955 96.4423C92.7284 96.7088 93.3396 97.0238 93.9236 97.3846C94.4014 97.6787 94.821 98.0578 95.1619 98.503C95.466 98.8994 95.6686 99.364 95.7521 99.8564C95.9332 100.637 95.8921 101.452 95.6334 102.211C95.6124 102.444 95.5312 102.667 95.3976 102.859L95.346 102.974Z" fill="#162B43"/>
<path d="M22.1117 35.5178C21.2996 35.6457 20.553 36.0389 19.9888 36.6358C19.7465 36.902 19.576 37.2254 19.4935 37.5756C19.411 37.9258 19.4192 38.2911 19.5173 38.6373C19.7531 39.5203 20.7555 39.3438 21.4629 39.3438C22.4896 39.3012 23.5132 39.203 24.5292 39.0496C26.3187 38.8233 28.0116 38.1109 29.4233 36.9901C30.2489 36.3424 32.1355 34.2233 30.7205 33.3407C29.9212 33.0003 29.0511 32.8588 28.185 32.9284C27.1025 32.9499 26.0445 33.2544 25.1167 33.8114C24.8219 34.0468 24.8809 34.2233 25.2345 34.2233C25.6483 34.2458 26.0593 34.1432 26.4138 33.9291C27.1809 33.3995 29.7749 33.4583 29.4822 34.8121C29.1895 36.1659 28.0082 37.1666 26.9468 37.7542C25.8854 38.3418 23.9394 38.52 22.4653 38.5784C22.1706 38.6373 21.6397 38.7549 21.4039 38.5196C21.2969 38.4015 21.2197 38.2596 21.1787 38.1058C21.1377 37.9519 21.134 37.7905 21.1681 37.6349C21.1678 37.2984 21.2706 36.9699 21.4629 36.6935L21.6986 36.34C21.8165 36.2223 22.1117 36.1046 21.8165 36.1635C21.5214 36.2223 22.7601 35.9869 22.819 35.6927C22.878 35.3985 22.2885 35.4586 22.1117 35.5178Z" fill="#162B43"/>
<path d="M26.652 25.5704C26.6613 25.4898 26.6811 25.4106 26.711 25.3351C26.7747 25.0045 26.7747 24.6649 26.711 24.3343C26.6376 24.1268 26.5386 23.9291 26.4162 23.7459C26.2983 23.5694 26.18 23.4513 26.18 23.3336C26.0214 23.0902 25.9584 22.7968 26.0032 22.5098C26.0622 22.451 26.0622 22.3922 26.1211 22.3922C26.1289 22.392 26.1366 22.3934 26.1439 22.3963C26.1511 22.3992 26.1576 22.4035 26.1632 22.409C26.1687 22.4145 26.173 22.4211 26.1759 22.4283C26.1788 22.4355 26.1802 22.4432 26.18 22.451L26.2983 22.7452C27.0978 24.1031 27.6937 25.5705 28.0671 27.1007C28.2297 27.8147 28.3088 28.545 28.3029 29.2771C28.2793 29.969 28.2005 30.658 28.0671 31.3374C27.8313 32.75 27.8903 33.3388 28.2439 33.1623C28.5976 32.9857 29.1875 32.1615 29.718 30.6901C30.0636 29.8082 30.2436 28.8703 30.2489 27.9233C30.2153 26.7631 30.0167 25.6136 29.659 24.5093L28.9517 22.8629L28.5387 22.0383L28.0082 21.0964C27.7642 20.6195 27.4226 20.1989 27.0057 19.8619L26.3573 19.6262C26.1201 19.588 25.8772 19.6082 25.6495 19.685C25.2047 19.8795 24.8329 20.2095 24.5873 20.6277C24.2808 21.1014 24.1171 21.653 24.1158 22.2168C24.0855 22.3724 24.0855 22.5324 24.1158 22.688C24.1158 22.8645 24.1747 23.041 24.1747 23.1587C24.237 23.445 24.3361 23.722 24.4694 23.9829L24.941 24.5713L25.0589 24.7483C25.1182 24.7483 25.1182 24.7483 25.1182 24.8071C25.1182 24.8659 24.8239 25.8671 24.4702 26.3946L23.4678 27.8661C22.9769 28.5343 22.5801 29.2666 22.2885 30.0424C22.1276 30.5567 22.048 31.0928 22.0527 31.6316C22.1189 32.2216 22.3661 32.7767 22.7604 33.2211C22.9962 33.5153 23.173 33.5153 23.232 33.4565C23.2909 33.3976 23.232 33.1623 23.173 32.8677C23.0898 32.5016 23.0698 32.124 23.1141 31.7513C23.1757 31.2233 23.3147 30.7073 23.5267 30.2198C24.1064 29.2 24.7775 28.2347 25.5317 27.3357L26.3573 26.1585L26.652 25.5704Z" fill="#162B43"/>
<path d="M27.9492 10.6782L19.8124 14.0922L11.2642 17.7417L0 22.686L5.95547 32.5167L11.6752 41.875L14.2114 40.2854L15.6854 39.2851L18.2798 37.5779C22.9373 34.5173 23.9987 33.4577 22.5836 34.0482C21.2272 34.5897 19.9075 35.2189 18.6331 35.9319L15.4488 37.6351L13.6207 38.6947L12.6772 39.2263L12.2646 39.4028C12.253 39.2776 12.2126 39.1568 12.1467 39.0497L11.6162 38.1667L10.4971 36.1653C9.72997 34.8115 8.96287 33.3989 8.07951 31.9274L5.4835 27.395L4.07044 24.9816L3.36108 23.8044C3.24319 23.6867 3.30213 23.7456 3.30213 23.6867L4.18631 23.3333L6.30914 22.3918L10.5548 20.4492C13.4439 19.1543 16.3334 17.8593 19.2225 16.4467L31.7819 10.5625L32.1372 11.3843L32.7266 12.6204C33.0803 13.4446 33.4343 14.1519 33.7291 14.9176L35.4982 18.6851C36.3824 20.8039 37.0902 22.3346 37.6784 23.6295L36.0275 24.9244L34.2584 26.335C33.1384 27.2769 31.9591 28.2772 30.4257 29.7491C28.8924 31.2209 29.1285 31.1597 30.8388 30.0433L34.1994 27.6888L36.3223 26.0997L39.1528 24.0394C38.0317 21.3931 36.8532 18.5654 35.6739 15.9756C34.4946 13.3857 33.3726 10.6782 32.4896 8.67676L27.9492 10.6782Z" fill="#162B43"/>
<path d="M8.72675 28.8668C9.61132 30.1617 12.0289 28.7491 12.0289 28.7491C12.0289 28.7491 7.84217 27.6307 8.72675 28.8668Z" fill="#007EEF"/>
<path d="M10.8495 32.1037C12.3837 31.9272 12.2057 29.1016 12.2057 29.1016C11.2032 29.2781 9.31657 32.3391 10.8495 32.1037Z" fill="#007EEF"/>
<path d="M10.2007 25.4524C9.55229 26.8062 11.9698 28.278 11.9698 28.278C12.3825 27.3361 10.9084 24.0398 10.2007 25.4524Z" fill="#007EEF"/>
<path d="M12.5007 28.6309C13.0902 29.3966 16.687 29.6904 15.8025 28.4543C14.9179 27.2182 12.5007 28.6309 12.5007 28.6309Z" fill="#007EEF"/>
<path d="M12.3236 28.278C13.3261 28.0427 15.2708 25.0409 13.7387 25.2174C12.2065 25.394 12.3236 28.278 12.3236 28.278Z" fill="#007EEF"/>
<path d="M14.3285 31.9272C15.0363 30.5142 12.5598 29.1016 12.5598 29.1016C12.1468 29.9846 13.6212 33.2822 14.3285 31.9272Z" fill="#007EEF"/>
<path d="M17.0404 24.4517C17.925 25.7467 20.3425 24.2752 20.3425 24.2752C20.3425 24.2752 16.1562 23.2156 17.0404 24.4517Z" fill="#007EEF"/>
<path d="M19.1636 27.6892C20.6977 27.5127 20.5197 24.6875 20.5197 24.6875C19.5172 24.864 17.6302 27.9246 19.1636 27.6892Z" fill="#007EEF"/>
<path d="M18.5151 21.0373C17.8663 22.3915 20.2839 23.863 20.2839 23.863C20.6969 22.9211 19.2225 19.6247 18.5151 21.0373Z" fill="#007EEF"/>
<path d="M20.8145 24.2158C21.4043 24.9816 25.0008 25.2754 24.1755 24.0393C23.3503 22.8032 20.8145 24.2158 20.8145 24.2158Z" fill="#007EEF"/>
<path d="M20.6377 23.8634C21.6397 23.6276 23.5849 20.6259 22.0528 20.8024C20.5206 20.9789 20.6377 23.8634 20.6377 23.8634Z" fill="#007EEF"/>
<path d="M22.6425 27.5127C23.3499 26.1001 20.8734 24.6875 20.8734 24.6875C20.4608 25.5701 21.9348 28.8665 22.6425 27.5127Z" fill="#007EEF"/>
<path d="M27.8317 19.3892C28.7159 20.6842 31.1335 19.2127 31.1335 19.2127C31.1335 19.2127 26.9472 18.1531 27.8317 19.3892Z" fill="#007EEF"/>
<path d="M29.8953 22.6272C31.4295 22.4506 31.3083 19.625 31.3083 19.625C30.3079 19.8015 28.3619 22.8037 29.8953 22.6272Z" fill="#007EEF"/>
<path d="M29.3054 15.9164C28.657 17.329 31.0746 18.742 31.0746 18.742C31.0746 18.742 30.0132 14.5626 29.3054 15.9164Z" fill="#007EEF"/>
<path d="M31.605 19.1543C32.1944 19.92 35.7913 20.2139 34.9071 18.9778C34.0229 17.7417 31.605 19.1543 31.605 19.1543Z" fill="#007EEF"/>
<path d="M31.4282 18.7426C32.4307 18.5657 34.3173 15.5051 32.7831 15.7404C31.2489 15.9758 31.4282 18.7426 31.4282 18.7426Z" fill="#007EEF"/>
<path d="M33.4328 22.4509C34.1405 21.0379 31.664 19.5664 31.664 19.5664C31.2514 20.5067 32.7254 23.8046 33.4328 22.4509Z" fill="#007EEF"/>
</g>
<defs>
<clipPath id="clip0_222_4152">
<rect width="112" height="109.511" fill="white" transform="translate(0 1)"/>
</clipPath>
</defs>
</svg>
