<svg width="112" height="112" viewBox="0 0 112 112" fill="none" xmlns="http://www.w3.org/2000/svg">
<g clip-path="url(#clip0_222_4518)">
<path d="M12.4552 7.89544C13.1382 7.89512 13.8057 7.69231 14.3734 7.31265C14.9411 6.93299 15.3835 6.39352 15.6447 5.76246C15.9059 5.1314 15.974 4.43707 15.8406 3.76726C15.7072 3.09745 15.3782 2.48223 14.8952 1.99938C14.4122 1.51654 13.7968 1.18774 13.127 1.05457C12.4571 0.921402 11.7628 0.989831 11.1319 1.25121C10.5009 1.51259 9.96158 1.95518 9.58212 2.52303C9.20266 3.09088 9.00008 3.75849 9 4.44146C9.00005 4.89513 9.08947 5.34434 9.26314 5.76346C9.43682 6.18257 9.69135 6.56337 10.0122 6.8841C10.333 7.20484 10.7139 7.45924 11.1331 7.63276C11.5523 7.80629 12.0015 7.89555 12.4552 7.89544Z" fill="#DBF122"/>
<path d="M100.538 51.6555C100.952 51.6552 101.357 51.5322 101.701 51.3018C102.046 51.0715 102.314 50.7443 102.472 50.3615C102.631 49.9787 102.672 49.5575 102.591 49.1512C102.51 48.7449 102.311 48.3718 102.018 48.079C101.725 47.7861 101.351 47.5867 100.945 47.506C100.539 47.4253 100.117 47.4668 99.7348 47.6254C99.3521 47.784 99.025 48.0525 98.7949 48.3969C98.5647 48.7414 98.4419 49.1464 98.4419 49.5606C98.4419 49.8358 98.4961 50.1083 98.6015 50.3626C98.7068 50.6168 98.8612 50.8478 99.0559 51.0423C99.2505 51.2369 99.4816 51.3911 99.7359 51.4964C99.9902 51.6016 100.263 51.6556 100.538 51.6555Z" fill="#DBF122"/>
<path d="M35.2832 78.2075C34.9008 76.6242 33.9797 75.2233 32.6778 74.2446C32.111 73.7919 31.2049 73.3943 31.0348 72.6032C30.8648 71.8121 31.6017 71.5271 31.998 71.0748C32.3944 70.6226 32.6211 70.1687 32.2244 69.7152C31.8276 69.2618 31.1482 69.2063 30.7518 68.7529C30.3555 68.2994 31.1482 66.2058 29.9587 65.526C29.5969 65.4498 29.2204 65.4896 28.8825 65.6398C28.8258 65.6961 28.1461 65.9795 28.3728 66.0924C28.5995 66.2054 28.3728 68.4132 29.1659 69.2626C29.9591 70.112 30.3551 69.7152 30.6951 70.225C31.0352 70.7347 30.4117 71.3007 30.0154 71.6971C29.7909 71.8634 29.6184 72.0901 29.518 72.3508C29.4176 72.6115 29.3935 72.8953 29.4485 73.1692C29.6186 73.7919 30.2988 74.2446 30.8081 74.5863C32.2331 75.539 33.2454 76.995 33.6422 78.6626C33.6973 79.0002 35.3978 78.546 35.2832 78.2075Z" fill="#DBF122"/>
<path d="M79.7491 73.6776L79.9195 71.6403C79.9195 71.3002 79.9758 70.9042 79.9758 70.5645C79.9724 70.4669 79.9918 70.3699 80.0325 70.2811C79.8624 70.2244 79.8624 70.2244 79.9758 70.2244H80.2021C81.1086 70.2811 82.3552 70.3382 82.8079 69.4321C83.2605 68.526 82.4682 67.6774 81.9018 66.9976C81.7056 66.8151 81.5675 66.5788 81.505 66.3182C81.505 66.2053 81.5621 66.0919 81.5621 65.9789C81.5621 65.866 81.2787 65.9789 81.505 66.149C81.7313 66.319 82.7516 65.9218 83.0346 65.6955C83.3707 65.4109 83.5991 65.0196 83.6816 64.587C83.7642 64.1543 83.6958 63.7065 83.4881 63.3181C83.2191 62.8438 82.9161 62.3895 82.5816 61.9589C82.5253 61.846 82.3552 61.6196 82.3552 61.5063C82.3552 61.3929 81.9584 61.846 82.4115 61.45C82.6067 61.3151 82.8155 61.2013 83.0346 61.1103C83.4246 60.8402 83.7388 60.4745 83.947 60.0483C84.1553 59.622 84.2507 59.1495 84.2241 58.6758C84.1783 58.2731 84.0428 57.8857 83.8278 57.5422C83.6066 57.3148 83.4332 57.0454 83.318 56.7498C83.1476 56.2964 83.318 56.2401 83.6581 56.0138C84.5956 55.5098 85.2951 54.6547 85.603 53.6358C85.9109 52.6169 85.8022 51.5175 85.3007 50.5787C85.0173 50.0119 83.431 50.5787 83.7707 51.2581C84.0121 51.677 84.1485 52.1481 84.1683 52.6312C84.1881 53.1143 84.0907 53.595 83.8844 54.0323C83.7062 54.4469 83.4348 54.8149 83.0913 55.1076C82.6949 55.4473 82.1852 55.5607 81.8447 55.9579C81.5042 56.3551 82.1281 57.6555 82.4682 58.5049C82.5581 58.732 82.5995 58.9754 82.5897 59.2195C82.5799 59.4635 82.5192 59.7028 82.4115 59.922C82.1852 60.3755 81.8447 60.4888 81.4487 60.7152C81.0527 60.9415 80.7118 61.2241 80.6556 61.6205C80.5993 62.0168 81.0523 62.6399 81.3349 63.0375C81.689 63.4227 81.9421 63.8895 82.0718 64.3963C82.0754 64.6337 82.0168 64.8679 81.9018 65.0757C81.9585 65.019 82.2981 65.0757 81.7884 65.0194H81.3349C81.1175 65.0315 80.9052 65.0899 80.7122 65.1907C80.5192 65.2915 80.3499 65.4323 80.2158 65.6038C80.0816 65.7753 79.9856 65.9735 79.9343 66.1851C79.8829 66.3967 79.8773 66.6169 79.9179 66.8308C80.0199 67.2544 80.2588 67.6325 80.5977 67.9065L81.0507 68.4163C81.147 68.5352 81.2234 68.6689 81.277 68.8122V68.9823C81.2208 69.1515 81.277 69.2086 81.3904 69.1515H80.0879C79.5784 69.2039 79.1004 69.4229 78.728 69.7746C78.4163 70.2433 78.2579 70.7971 78.2745 71.3597L78.1049 73.8505C77.9935 74.6408 79.6912 74.3574 79.7491 73.6776Z" fill="#DBF122"/>
<path d="M21.7449 64.9039C21.2981 64.2748 20.9362 63.5895 20.6688 62.8657C20.442 62.1859 20.442 61.3936 20.2157 60.7146C19.9894 60.0357 17.893 59.4688 16.8168 59.0162C15.7406 58.5635 15.6832 58.3364 15.7406 57.657C15.7981 56.9776 16.3075 56.8068 16.6468 56.4683C16.986 56.1298 17.9496 55.0513 17.3832 54.1472C16.8168 53.2431 16.0803 53.1848 15.3443 52.8451C15.0269 52.7442 14.7494 52.5458 14.5511 52.2783C14.3811 51.8252 14.8345 51.428 15.0609 51.1446C15.2872 50.8612 16.137 49.5595 15.4572 48.7672C14.7774 47.9749 13.8713 48.0878 13.3049 47.4651C12.7385 46.8424 13.475 46.163 13.7013 45.6533C13.9141 45.1134 13.992 44.5297 13.928 43.9528C13.8067 43.3563 13.519 42.8062 13.0984 42.3662C12.6777 41.9262 12.1411 41.6141 11.5506 41.4661C11.3491 41.4058 11.1344 41.4058 10.9329 41.4662C10.7314 41.5266 10.5521 41.6446 10.4169 41.8058C10.3655 41.86 10.3282 41.9262 10.3085 41.9983C10.2888 42.0704 10.2872 42.1463 10.304 42.2192C10.3208 42.2924 10.3554 42.3603 10.4049 42.4168C10.4544 42.4733 10.5171 42.5167 10.5874 42.5431C11.1165 42.676 11.5798 42.9954 11.8922 43.4426C12.2046 43.8898 12.3451 44.4347 12.2879 44.9772C12.1745 45.9962 10.9283 46.9019 11.6648 48.0344C12.4012 49.1668 13.0818 48.8846 13.7604 49.3365C14.439 49.7883 13.477 50.8086 13.1373 51.4313C13.0247 51.6046 12.9485 51.7989 12.9132 52.0025C12.8779 52.2061 12.8843 52.4148 12.9319 52.6159C12.9796 52.817 13.0675 53.0063 13.1904 53.1724C13.3133 53.3385 13.4687 53.478 13.647 53.5824C14.2701 53.9787 15.1767 54.0354 15.6864 54.6014C16.1961 55.1675 15.1767 56.0732 14.7236 56.5258C14.2705 56.9785 13.8171 58.4514 14.6669 59.3C15.1571 59.7701 15.7629 60.1021 16.4229 60.2624C17.046 60.4324 18.2355 60.4887 18.5752 61.1126C18.6596 61.4858 18.7165 61.8647 18.7452 62.2463L19.0849 63.435C19.368 64.2091 19.7693 64.9347 20.2744 65.5861C20.6688 66.2059 22.2547 65.5833 21.7449 64.9039Z" fill="#DBF122"/>
<path d="M90.2855 50.9203C90.3874 50.1831 90.5777 49.4609 90.8523 48.7692C91.1357 48.0898 91.5892 47.5238 91.8726 46.9007C92.156 46.2776 91.1357 44.4666 90.626 43.3908C90.1162 42.3151 90.1162 42.2021 90.4563 41.8057C90.7964 41.4094 91.3066 41.5223 91.7025 41.5223C92.0985 41.5223 93.7415 41.2389 94.1382 40.2769C94.535 39.3149 93.9111 38.5785 93.5714 37.7857C93.2317 36.993 93.118 36.9355 93.4014 36.6521C93.6848 36.3687 94.3646 36.482 94.648 36.3687C94.9314 36.2553 96.4606 35.463 96.2906 34.4439C96.1205 33.4248 95.214 32.4624 95.6675 31.8964C96.1209 31.3304 96.2906 31.6701 96.5177 31.5567L97.4242 31.1604C97.8869 30.8238 98.2571 30.376 98.5008 29.8583C98.7587 29.3702 98.8741 28.8195 98.834 28.269C98.7938 27.7184 98.5996 27.1903 98.2736 26.7448C97.8777 26.1221 96.2897 26.7448 96.8011 27.4242C97.076 27.8429 97.2079 28.3394 97.1773 28.8394C97.1466 29.3393 96.955 29.8159 96.6311 30.198C95.895 30.934 94.5917 30.7077 94.0803 31.7831C93.569 32.8584 94.2504 33.5382 94.5338 34.3872C94.8172 35.2362 94.7605 35.0103 94.5338 35.2375C94.3071 35.4646 94.0803 35.3508 93.9103 35.3508L93.0601 35.5205C92.1535 35.8601 91.4738 36.5962 91.7009 37.5586C91.928 38.521 92.6637 39.1437 92.607 39.9927C92.5503 40.8417 92.2106 40.3324 91.8709 40.3324C91.3353 40.3482 90.8032 40.4242 90.2846 40.5591C89.784 40.668 89.3427 40.9615 89.0487 41.3812C88.7547 41.8008 88.6296 42.3158 88.6983 42.8236C88.7332 43.4396 88.9501 44.0314 89.3215 44.5241C89.7178 45.0909 90.6243 45.9958 90.3409 46.7318C90.0575 47.4679 89.8879 47.3545 89.7178 47.6942C89.5025 48.0295 89.3311 48.391 89.2081 48.77C88.9329 49.52 88.7427 50.2986 88.6413 51.0911C88.5858 51.8826 90.2292 51.6563 90.2855 50.9203Z" fill="#DBF122"/>
<path d="M72.1605 82.0004C75.3291 79.5143 78.2675 76.7481 80.9402 73.7353C81.337 73.2822 80.6005 73.1684 80.3171 73.1684C77.202 73.0551 74.0865 72.3753 70.9714 71.9789C69.3753 71.7443 67.768 71.5932 66.1562 71.5263C65.0225 71.47 63.7205 71.3566 62.7577 72.036C60.322 73.9608 58.0559 76.1119 55.7339 78.0937L53.0715 80.4145C52.6747 80.7546 52.788 81.0372 53.2411 81.1505C53.8698 81.2091 54.4974 81.0269 54.997 80.6408L63.5488 73.3393L64.795 72.2631L63.3217 72.7158C68.7033 72.4894 73.9699 74.1879 79.2956 74.3579L78.6725 73.7911C76.1071 76.7053 73.2614 79.3603 70.1766 81.7178C69.7798 82.0574 69.9495 82.3971 70.4029 82.4534C71.0253 82.5348 71.655 82.3724 72.1605 82.0004Z" fill="#162B43"/>
<path d="M30.8631 87.8307L47.5747 92.7564L49.9538 93.4925L49.274 92.8698C49.9538 98.0785 50.4635 103.286 51.0299 108.495L51.3696 111.326L53.9758 109.854L37.7751 103.003L35.4528 102.041L36.1326 102.664C34.4896 97.2849 34.2066 91.511 32.5636 86.1322L31.2044 87.6044L50.5202 82.0576L53.2956 81.2653H52.4454L68.8723 81.8321L71.1947 81.9446L70.1764 81.2644C70.9125 86.9821 71.3101 92.8131 72.3858 98.4744L72.9526 97.3987L54.9936 108.155L52.4429 109.683C51.9332 110.023 51.5927 110.817 52.2729 111.212C52.9531 111.607 53.9734 111.382 54.5956 110.985L72.5518 100.229L75.1025 98.7008C75.2946 98.5996 75.4515 98.4427 75.5527 98.2507C75.6538 98.0587 75.6945 97.8406 75.6694 97.625C74.5928 91.9074 74.1964 86.1322 73.46 80.4146C73.4033 79.962 72.7239 79.7352 72.3842 79.7352L54.4851 79.1121C53.8034 79.0654 53.1185 79.1034 52.4462 79.2255L49.5007 80.0757L38.4549 83.3026L30.638 85.567C30.0712 85.7371 29.0517 86.2468 29.2784 87.0392C30.2979 90.4361 30.8077 94.003 31.4874 97.4558C31.8275 99.1542 32.1672 100.91 32.6211 102.551C32.7911 103.23 32.8478 103.797 33.5843 104.137L33.9807 104.306L47.3488 109.911L52.0502 111.892C52.9567 112.289 54.826 111.553 54.656 110.42C53.9766 105.269 53.4665 100.06 52.9 94.852L52.5603 92.0216C52.5037 91.7381 52.1069 91.5118 51.8806 91.4547L35.1694 86.4723L32.7903 85.7363C32.3824 85.6303 31.9539 85.6319 31.5469 85.7412C31.1398 85.8504 30.768 86.0634 30.468 86.3594C30.3492 86.4642 30.262 86.6002 30.2164 86.7519C30.1707 86.9036 30.1684 87.065 30.2096 87.218C30.2508 87.371 30.334 87.5094 30.4496 87.6177C30.5653 87.7259 30.709 87.7997 30.8643 87.8307H30.8631Z" fill="#162B43"/>
<path d="M70.7993 81.4336L53.2958 90.8311L50.8034 92.1336C50.4637 92.3599 50.124 92.7567 50.577 93.0393C51.0301 93.3219 51.8799 93.0393 52.333 92.8129L69.7794 83.415L72.2718 82.0567C72.6119 81.8866 73.0079 81.434 72.4982 81.2064C71.9884 80.9789 71.1957 81.2072 70.7993 81.4336Z" fill="#162B43"/>
<path d="M37.8319 87.4351C38.5598 86.2448 39.3739 85.1095 40.2677 84.0381L38.6814 84.2653L39.4745 88.3407C39.5312 88.7942 39.5879 89.5295 39.9842 89.8692C40.184 89.9783 40.408 90.0356 40.6357 90.0356C40.8633 90.0356 41.0874 89.9783 41.2871 89.8692C41.7574 89.6718 42.1395 89.3095 42.3617 88.8505L43.3815 86.9824L45.5905 83.1891H44.0063C43.6662 85.6799 43.3832 88.2845 44.2326 90.7198C44.4593 91.2866 45.7622 90.8894 45.8756 90.4364C46.4509 87.5057 47.3239 84.6413 48.4809 81.8879L46.8384 82.2276C47.4615 85.5111 46.3286 88.908 47.1218 92.1915C47.2914 92.8142 48.651 92.3045 48.7643 91.9081L51.9932 81.2652L50.3502 81.4915V92.0777C50.3502 92.8138 51.8232 92.3612 51.9932 91.9081C53.2957 88.0586 53.8621 84.0386 55.1087 80.2457L53.4657 80.5854C53.5791 82.2859 53.4657 83.9823 53.4091 85.6803V89.6999C53.3807 89.8686 53.3807 90.0409 53.4091 90.2097C53.4091 90.3793 53.2957 90.4931 53.4657 90.2659L54.995 89.9825C55.2784 90.2088 54.9387 90.2659 55.0516 90.0951C55.1057 90.0112 55.1261 89.91 55.1087 89.8117C55.2221 89.5282 55.2784 89.189 55.3921 88.9055C55.5059 88.6221 55.9015 86.9812 56.1845 86.0188C56.7513 84.0349 57.3181 82.1122 57.9404 80.1886L56.2978 80.472C56.4416 81.0067 56.499 81.561 56.4679 82.1138C56.525 82.964 56.525 83.8685 56.525 84.7183C56.525 85.5682 56.5813 86.4731 56.6375 87.3225C56.6107 87.8751 56.668 88.4285 56.8076 88.9639C57.0347 89.587 58.2801 89.0772 58.4502 88.6804C58.8964 87.3699 59.2376 86.0259 59.4704 84.6613C59.6968 83.811 59.8664 83.0195 60.0935 82.2267C60.1771 81.6924 60.3494 81.1758 60.6033 80.6983L59.017 80.8684C59.3567 81.9433 59.187 83.2458 59.187 84.3216C59.187 85.3973 59.187 85.6799 59.2433 86.3026C59.2117 86.7437 59.2696 87.1865 59.4134 87.6047C59.6401 88.1715 60.6033 87.831 60.8867 87.5484C61.1701 87.2658 61.9058 85.6236 62.1892 84.7742L62.869 82.9057C62.9285 82.6483 63.0239 82.4006 63.1524 82.1697C63.1524 82.0571 63.3787 81.7174 63.3224 81.7737L61.8491 81.8871L62.3021 86.416C62.3592 87.0958 63.8317 86.4727 63.9447 86.1326L66.2675 80.5295L64.6249 80.8129L65.2476 84.8329C65.361 85.4552 66.6647 85.0022 66.8339 84.6629L69.1012 80.304L67.5149 80.4732L68.4761 83.1329C68.6457 83.6997 70.2891 83.2458 70.119 82.6794L69.1563 80.019C68.9862 79.5092 67.7963 79.8489 67.57 80.2453L65.3027 84.6042L66.889 84.3778L66.2654 80.4149C66.1521 79.736 64.7929 80.3587 64.6229 80.6983L62.3001 86.3026L63.9427 85.9633L63.49 81.4344C63.4329 80.8676 62.1871 81.2648 62.0175 81.4911C61.8479 81.7174 61.0543 83.4721 60.7709 84.3778L60.0952 86.1897C59.9945 86.5772 59.8213 86.9421 59.5846 87.265H61.058C60.9183 86.846 60.8607 86.4041 60.8883 85.9633C60.8312 85.2273 60.8312 84.5463 60.8312 83.8681C60.8312 83.1899 61.0009 81.4911 60.6612 80.5287C60.3215 79.5663 59.302 80.3587 59.0749 80.6983C58.8277 81.1843 58.6375 81.6971 58.5081 82.2267C58.2809 83.077 58.0546 83.9252 57.885 84.7179C57.62 86.1367 57.2604 87.5361 56.8084 88.9068L58.451 88.5671C58.3078 88.0517 58.2504 87.5164 58.2809 86.9824C58.2246 86.1322 58.2246 85.2273 58.1684 84.3216C58.1121 83.4159 58.1684 82.6231 58.1113 81.7737C58.1395 81.2016 58.0822 80.6284 57.9412 80.0732C57.7149 79.5064 56.412 79.9603 56.2987 80.4129C55.6193 82.451 55.0525 84.4896 54.486 86.4706C54.2026 87.433 53.9192 88.3954 53.6933 89.3582C53.4674 90.321 53.2398 90.4919 53.4666 90.717C53.7219 90.8436 54.013 90.8789 54.2912 90.817C54.5695 90.7551 54.8181 90.5998 54.9958 90.3769C55.1095 90.2072 55.0525 89.8671 55.0525 89.6408V88.5072C55.0525 87.4885 55.0525 86.469 55.1095 85.45C55.1666 84.4309 55.2229 81.9397 55.1095 80.1866C55.1095 79.5643 53.6366 80.0732 53.4666 80.5267C52.2204 84.3195 51.6539 88.3387 50.349 92.132L51.992 91.962V81.321C51.992 80.585 50.4624 81.0376 50.349 81.5474L47.1206 92.134L48.7631 91.7939C47.97 88.5108 49.1028 85.1135 48.4797 81.8308C48.3664 81.151 47.0072 81.7737 46.8371 82.1142C45.6882 84.8706 44.8153 87.7341 44.2314 90.6627L45.8744 90.3234C45.0241 88.0019 45.3075 85.5111 45.6476 83.0762C45.7043 82.3401 44.2306 82.7928 44.0617 83.1333L42.2491 86.303L41.3989 87.7751C41.1841 88.2736 40.9183 88.7485 40.6057 89.1922L41.3989 89.0788C41.1721 89.0788 40.8891 86.9844 40.8891 86.701L40.3223 83.8139C40.1523 83.1912 38.9053 83.7576 38.736 84.0402C37.843 85.0921 37.0289 86.2085 36.3003 87.3804C35.9059 88.0602 37.5485 87.8881 37.8319 87.4351Z" fill="#162B43"/>
<path d="M53.4658 90.605C53.4658 90.4916 53.0694 90.3787 52.2763 90.0953C51.1471 89.8068 50.0614 89.3692 49.0478 88.794C48.3462 88.3858 47.7458 87.8245 47.2914 87.1518C46.766 86.4034 46.4705 85.5179 46.4412 84.6039C46.3625 84.1106 46.3821 83.6066 46.4987 83.1209C46.6154 82.6352 46.8269 82.1772 47.121 81.7735C47.465 81.4463 47.899 81.2295 48.3672 81.1508H50.1798L54.5415 81.6034C56.0145 81.7172 57.487 82.0569 58.3931 82.9055C59.2992 83.7541 58.6198 83.1318 58.7328 83.2456L58.9028 83.4152H58.9615C58.9735 83.4259 58.983 83.4391 58.9895 83.4537C58.9964 83.4682 59 83.4841 59 83.5003C59 83.5164 58.9964 83.5323 58.9895 83.5468C58.983 83.5615 58.9735 83.5746 58.9615 83.5853H58.7915L58.5644 83.6987L57.4307 84.0379C55.8577 84.4035 54.2159 84.3448 52.673 83.8679C51.0058 83.3213 49.4512 82.4774 48.0846 81.3771C46.6643 80.2555 45.4721 78.8721 44.5727 77.3016C44.1738 76.5447 43.9238 75.7183 43.8362 74.8671C43.8419 74.0479 44.0152 73.2386 44.3456 72.4889C45.189 70.8816 46.605 69.6493 48.3134 69.0357C50.0721 68.387 51.9826 68.2689 53.8079 68.696C55.6252 69.198 57.3213 70.0648 58.7927 71.2435C59.5612 71.8049 60.2811 72.4298 60.945 73.1116C61.2782 73.4226 61.5816 73.7639 61.8515 74.1311C62.0999 74.3915 62.2927 74.6996 62.4184 75.0368C62.5464 75.2563 62.6041 75.5098 62.5838 75.7631C62.5636 76.0164 62.4663 76.2574 62.305 76.4538C61.8254 76.8423 61.2213 77.0437 60.6045 77.0207C59.7944 76.9792 58.9938 76.8269 58.2251 76.568C57.4818 76.2856 56.7621 75.9447 56.0728 75.5485C54.6989 74.6509 53.4264 73.607 52.2775 72.435C51.1438 71.3014 50.0685 70.1706 49.049 68.9811C48.1255 67.9795 47.3439 66.8559 46.7262 65.6417C46.2892 64.5824 46.2097 63.4095 46.4999 62.301C46.664 61.845 46.927 61.4308 47.27 61.0883C47.613 60.7458 48.0275 60.4835 48.4838 60.32C48.9418 60.1536 49.4172 60.0396 49.9009 59.9803L51.3179 59.8103C52.1504 59.7591 52.9859 59.797 53.8103 59.9232C54.9805 60.1233 56.1218 60.4657 57.2088 60.9427C58.002 61.2261 58.3984 61.3953 58.4555 61.3391C58.1957 60.9779 57.8686 60.6702 57.4923 60.4329C56.4247 59.764 55.2586 59.2673 54.0367 58.9608C53.1477 58.7295 52.236 58.5965 51.3179 58.5645H49.732L48.0316 58.9045C47.3784 59.1232 46.7659 59.4484 46.2189 59.8669C45.6432 60.3433 45.2116 60.9707 44.9727 61.6787C44.4538 63.1473 44.4739 64.7526 45.0294 66.2077C45.6355 67.6744 46.4774 69.032 47.5218 70.2269C48.5413 71.4156 49.5612 72.6614 50.7507 73.9072C51.9798 75.2204 53.3471 76.3971 54.829 77.4166C55.6635 77.9516 56.5568 78.3885 57.4914 78.7187C58.4742 79.0781 59.5053 79.288 60.5503 79.3414C61.1433 79.3504 61.7345 79.2742 62.3058 79.1151C62.9468 78.9183 63.5303 78.5687 64.0063 78.0964C64.5299 77.5704 64.8848 76.9003 65.0258 76.1716C65.1066 75.4605 65.0092 74.7405 64.7423 74.0764C64.2699 73.0303 63.5958 72.0877 62.7585 71.3026C62.0056 70.5424 61.2115 69.8242 60.3798 69.1511C58.6235 67.7543 56.599 66.733 54.4318 66.1506C52.676 65.6731 50.8304 65.6297 49.0541 66.0242C47.2778 66.4187 45.6241 67.2392 44.2355 68.415C43.3174 69.2239 42.5669 70.2049 42.0265 71.3026C41.502 72.4565 41.25 73.7156 41.29 74.9825C41.4134 76.1869 41.7592 77.3579 42.3099 78.4361C42.8532 79.3894 43.4978 80.2812 44.2326 81.0961C44.9645 81.8752 45.74 82.6122 46.5554 83.3035C48.1868 84.58 50.0539 85.5222 52.0499 86.0761C54.005 86.6507 56.0785 86.6898 58.0538 86.1894L59.4138 85.6797L59.8118 85.5093L60.2648 85.2829C60.5695 85.0344 60.82 84.726 61.0009 84.3768C61.187 84.0467 61.2801 83.6723 61.2701 83.2935C61.2602 82.9147 61.1477 82.5456 60.9446 82.2257L60.7746 81.9423L60.6049 81.7727L60.3786 81.4893L59.8118 80.9795C59.0698 80.3599 58.1981 79.9148 57.2611 79.677C56.4241 79.4707 55.5705 79.3382 54.7104 79.2811L50.292 79.0547C49.5159 79.0102 48.7373 79.0482 47.9692 79.1681C47.1379 79.3386 46.3948 79.8002 45.8736 80.4698C45.3998 81.0591 45.0874 81.7614 44.9671 82.5079C44.882 83.1467 44.882 83.7939 44.9671 84.4327C45.0237 85.0382 45.1768 85.6307 45.4205 86.1878C45.6484 86.7086 45.9335 87.2023 46.2708 87.6599C46.9106 88.3668 47.6803 88.9441 48.5381 89.3604C49.6713 89.9169 50.9033 90.244 52.1633 90.3228C53.0127 90.7188 53.4658 90.7188 53.4658 90.605Z" fill="#DBF122"/>
<path d="M77.086 57.7138C76.69 53.2979 77.7091 48.8256 78.446 44.523L80.6554 31.1622C80.6554 31.0492 79.0691 31.1055 79.012 31.6152L76.8034 44.9761C76.0665 49.2787 75.0475 53.7513 75.4434 58.1102C75.5005 58.3928 77.1431 58.1098 77.086 57.7138Z" fill="#162B43"/>
<path d="M78.2197 58.8458H79.2962L79.9756 58.7324H80.372C80.3662 58.5794 80.3855 58.4265 80.4291 58.2798V57.3174C80.4196 57.0707 80.4385 56.8237 80.4854 56.5813C80.542 54.8262 80.6554 52.3354 80.8255 49.6175C81.1651 44.0707 81.8445 37.3903 82.2425 32.5771C82.4688 30.1426 82.3559 29.2936 82.0725 29.69C81.7891 30.0863 81.2222 31.5581 80.6554 33.8792C79.1794 40.5497 78.5133 47.3739 78.6715 54.2039C78.7278 54.9966 78.7278 55.7323 78.7841 56.4684V57.0352C78.8978 57.2052 78.6715 57.2052 78.6144 57.2052L77.9347 57.3186H77.1415L76.122 57.2052H75.1592C75.2155 57.4316 75.2155 57.6579 75.2726 57.9413V58.3373H75.2155L74.9321 58.7336C74.6631 58.9568 74.356 59.1295 74.0256 59.2434L73.5721 59.3563L73.1191 59.4697L72.1567 59.5831C71.5735 59.6881 71.0272 59.9416 70.5704 60.3191C70.2142 60.6237 69.9413 61.0138 69.7772 61.4528L69.3805 62.2451C69.222 62.4785 69.0311 62.6881 68.8136 62.8678C68.2557 63.3487 67.5628 63.6457 66.8298 63.718H66.0366C65.9232 63.718 66.0366 63.831 66.32 64.0014C66.727 64.1902 67.1765 64.2683 67.6233 64.2278C68.3493 64.2167 69.0496 63.9569 69.6072 63.4917C69.9785 63.244 70.2884 62.9149 70.5133 62.5293C70.7404 62.1334 70.853 61.7933 71.0239 61.5669C71.1519 61.3396 71.351 61.1607 71.5907 61.0576L72.5535 60.7742L73.743 60.6046C74.1974 60.5509 74.6386 60.4166 75.0459 60.2082C75.4736 59.9744 75.8572 59.6678 76.1795 59.3021L76.4062 59.0187L76.5192 58.7915V58.679H78.2197V58.8458Z" fill="#162B43"/>
<path d="M65.418 62.7517L65.0212 62.6392L62.4154 61.7889C60.1481 60.9387 56.9209 59.6945 53.0693 58.1094C49.2177 56.5243 44.7993 54.5996 40.1538 52.4485C37.8865 51.3727 35.5091 50.1836 33.2434 48.9382C32.1098 48.3155 31.034 47.6361 30.0145 46.9568C29.54 46.6262 29.0859 46.2671 28.655 45.8814L28.4286 45.6547L28.3153 45.5417V45.315C28.3153 45.1453 28.372 44.8623 28.372 44.6923C28.4198 44.2352 28.4954 43.7815 28.5983 43.3335C28.7683 42.4278 28.9951 41.5221 29.2214 40.5597C29.4477 39.5974 30.1846 36.8798 30.6943 35.1247C31.7138 31.5015 32.6782 28.105 33.5831 24.9911C34.773 20.9727 35.2261 18.7641 35.1143 18.0848C35.0026 17.4054 34.2641 18.3111 33.1305 20.4059C31.504 23.533 30.048 26.7457 28.7687 30.0302C27.9185 32.1246 27.0128 34.5024 26.163 37.0499C25.7099 38.352 25.3127 39.7107 24.9168 41.1262C24.6879 41.8512 24.4986 42.5883 24.3499 43.3339L24.1799 44.5231C24.0992 45.0665 24.0614 45.6154 24.0669 46.1648C24.1755 46.7366 24.3665 47.2896 24.6338 47.8066C24.9145 48.201 25.217 48.5795 25.5399 48.9402C26.0784 49.4456 26.6462 49.9188 27.2403 50.3573C28.374 51.1498 29.5076 51.8857 30.6413 52.5651C32.9636 53.8672 35.3994 55.0563 37.8351 56.245C42.8809 58.5318 48.0426 60.5537 53.2993 62.3023L59.7566 64.3971L62.7021 65.2474L64.175 65.5867L64.5147 65.7L65.0815 65.8134C65.419 65.8705 65.7636 65.8705 66.101 65.8134C66.7691 65.6154 67.3618 65.2203 67.8015 64.6797L68.312 63.9999L68.6517 63.4331C69.1024 62.7081 69.4998 61.9513 69.8408 61.1687C70.4643 59.6965 70.9745 58.3378 71.4271 57.0357C73.1835 51.9974 74.2025 48.5439 74.9957 45.9397C76.5249 40.6184 77.0917 38.5236 77.7711 32.6926C78.4505 26.8616 75.9589 35.2401 72.9001 44.8077C71.3138 49.5629 69.6145 54.715 68.0286 58.3945C67.457 59.854 66.7154 61.241 65.8192 62.527C65.7864 62.5562 65.766 62.597 65.7625 62.6408H65.6492L65.5358 62.7533L65.418 62.7517Z" fill="#162B43"/>
<path d="M77.9364 32.4636C80.9381 33.3697 83.9969 30.6522 84.9039 27.6517L86.0375 24.0285C86.944 21.028 87.51 18.7068 84.5075 17.8578L39.4745 6.1387C36.4724 5.23299 33.6974 6.59175 32.7904 9.64896L32.2803 11.4037C31.8583 12.8529 32.0264 14.4101 32.748 15.7359C33.4696 17.0616 34.6861 18.0482 36.1323 18.4805L77.9364 32.4636Z" fill="#007EEF"/>
<path d="M32.1109 32.7466C34.6255 34.3243 37.2578 35.706 39.9845 36.8796C42.6579 38.1619 45.4 39.2959 48.1982 40.2765C48.5841 40.3629 48.9883 40.3022 49.3319 40.1064C49.5015 39.9931 49.8416 39.7101 49.5015 39.5971C46.773 38.6493 44.1058 37.5338 41.515 36.2569C38.8525 35.0115 36.0771 33.8224 33.641 32.1239C33.2438 31.8976 31.8275 32.5203 32.1109 32.7466Z" fill="#162B43"/>
<path d="M30.638 40.3904C32.5707 41.7532 34.6175 42.9465 36.7557 43.9569C39.3611 45.3157 41.9668 46.6177 44.5726 47.8068L47.6881 49.1089C48.0989 49.1718 48.5188 49.0918 48.8776 48.8822C49.0477 48.8259 49.3874 48.5425 49.0477 48.4295C46.1103 47.325 43.2523 46.0199 40.4939 44.5233C37.6598 43.1063 34.7163 41.6924 32.1672 39.8243C31.7709 39.5413 30.3546 40.164 30.638 40.3904Z" fill="#162B43"/>
<path d="M44.0061 10.8948V10.7814C44.0628 10.6684 44.0628 10.498 44.1758 10.2146C44.4173 9.37058 44.701 8.53927 45.026 7.72378C45.3657 6.70471 45.7625 5.57228 46.1597 4.55321L47.2933 1.77942C47.6334 0.929181 47.5767 0.362357 47.067 0.137651C46.5573 -0.087054 45.7074 -0.0890784 44.6876 0.533618C43.4379 1.33801 42.4374 2.47516 41.7988 3.81715C41.0307 5.36225 40.6608 7.07476 40.7226 8.79913C40.6829 9.72182 40.8174 10.6437 41.119 11.5166C41.3442 12.277 41.8243 12.9367 42.4786 13.3847C42.976 13.7393 43.5683 13.9367 44.179 13.9516C44.6171 13.9059 45.0412 13.771 45.4252 13.5552C45.8499 13.305 46.1865 12.9291 46.3884 12.4794C46.5385 11.9968 46.5185 11.4773 46.3317 11.0077C46.105 10.3846 45.7649 10.4409 45.3686 10.7243L44.8017 11.234C44.639 11.3738 44.4443 11.4712 44.2349 11.5175C44.1782 11.5175 44.1782 11.5175 44.1782 11.4608V11.5741C44.2349 11.4608 44.2349 11.4608 44.1782 11.4608C44.1747 11.4172 44.1544 11.3767 44.1215 11.3478C44.0384 11.2118 43.9982 11.0539 44.0061 10.8948Z" fill="#162B43"/>
<path d="M58.7343 13.103C58.7343 13.103 58.9039 12.7066 59.1302 12.0273C59.3566 11.3479 59.6971 10.4422 60.0934 9.42311C60.4898 8.40404 60.8866 7.27201 61.3396 6.19626C61.7927 5.12051 61.5097 5.62944 61.6231 5.34602C61.7364 5.06261 61.7927 4.94965 61.8498 4.72333C61.9066 4.59745 61.9447 4.4639 61.9627 4.32696C61.942 4.30349 61.9264 4.27589 61.917 4.24598C61.9075 4.21675 61.9038 4.18594 61.9061 4.15529C61.8293 3.99659 61.7905 3.82222 61.7927 3.64596C61.7927 3.47591 61.8498 3.47591 61.8498 3.47591L61.9627 3.36295L62.1895 3.07954C62.2568 2.91935 62.2652 2.74052 62.2134 2.57468C62.1615 2.40885 62.0526 2.26672 61.9061 2.17343C61.6291 1.99502 61.3087 1.8955 60.9794 1.88559C60.6501 1.87567 60.3244 1.95573 60.0372 2.11715C59.3174 2.44543 58.6934 2.95199 58.2241 3.58887C57.7125 4.16405 57.2921 4.81427 56.9775 5.51688C56.1987 7.0218 55.7908 8.69101 55.7876 10.3855C55.7876 12.1406 55.8447 13.4427 55.8447 14.4051C55.8415 14.9009 55.8986 15.3952 56.0147 15.8772C56.1705 16.3062 56.4223 16.694 56.7508 17.0109C57.0726 17.268 57.4725 17.4078 57.8844 17.4072C58.0203 17.4147 58.1561 17.3933 58.283 17.3444C58.41 17.2956 58.5251 17.2204 58.6209 17.1238C58.832 16.9744 59.0074 16.7802 59.1346 16.5551C59.2619 16.33 59.3378 16.0796 59.357 15.8217C59.4141 15.1424 59.0173 15.0857 58.6209 15.1424L57.9978 15.2557H57.8844V15.4821C57.9415 15.7084 57.8278 15.7655 57.9415 15.6517C58.0553 15.5379 57.9415 15.5954 58.0541 15.5387H58.1679L58.3946 15.4262C58.4517 15.3695 58.4517 15.3128 58.4517 15.1999C58.465 14.9327 58.5027 14.6674 58.5642 14.4071C58.678 13.5561 58.7343 13.103 58.7343 13.103Z" fill="#162B43"/>
<path d="M72.6117 16.8958C72.6117 16.8958 72.6117 16.5561 72.668 15.9334C72.7243 15.3107 72.9514 14.2916 73.1777 13.2159C73.4041 12.1401 73.8579 11.0081 74.2543 9.93235C74.6507 8.85659 75.1045 7.72457 75.5005 6.81846C75.8965 5.91235 75.7268 5.34674 75.2738 5.12001C74.8207 4.89328 73.8567 5.06373 72.7814 5.74311C71.5091 6.65874 70.4945 7.88718 69.8359 9.30965C69.0447 11.0648 68.7886 13.0143 69.0994 14.9143C69.2071 15.8033 69.4162 16.677 69.7226 17.5185C69.808 17.7033 69.8836 17.8925 69.9489 18.0853L70.1189 18.3687L70.2894 18.5954C70.4911 18.9139 70.7392 19.2005 71.0254 19.4457C71.3668 19.7097 71.7611 19.8969 72.1815 19.9947C72.6018 20.0926 73.0383 20.0986 73.4612 20.0125C73.9489 19.9934 74.4209 19.8348 74.8211 19.5554C75.4434 19.2157 75.7268 18.7627 75.8969 17.7436C76.0669 16.7245 75.3301 17.0075 74.424 17.3472C74.0732 17.5284 73.6851 17.6254 73.2903 17.6306C73.2017 17.6359 73.1133 17.6176 73.034 17.5776C72.9544 17.5381 72.8865 17.4783 72.8372 17.4043C72.7243 17.2909 72.7243 17.178 72.6672 17.1209C72.6648 17.0428 72.6459 16.9661 72.6117 16.8958Z" fill="#162B43"/>
<path d="M58.451 37.5593C58.6206 37.616 58.451 37.899 58.5073 37.9556C58.5635 38.0123 58.451 38.1253 58.7344 37.899L58.3939 37.6722C58.2092 37.4559 58.0732 37.2024 57.9952 36.9289C57.9171 36.6554 57.8987 36.3684 57.9413 36.0871C58.0213 35.5562 58.2349 35.0543 58.5621 34.6285C58.8893 34.2027 59.3193 33.8671 59.8118 33.653C60.987 33.2128 62.2405 33.0198 63.4937 33.0862C64.0763 33.0434 64.6616 33.1165 65.2157 33.3011C65.7699 33.4858 66.2821 33.7783 66.7226 34.162C68.2518 35.6341 68.423 38.1816 67.4024 39.9922C67.1654 40.4854 66.807 40.9104 66.3609 41.2273C65.9147 41.5442 65.3954 41.7426 64.8516 41.804C63.4925 41.9173 62.1333 41.4643 60.8871 41.0679L59.9239 42.087C61.7928 42.54 63.9459 43.2757 64.569 45.3138C65.1921 47.352 64.3419 49.5031 63.0965 51.0319C61.8511 52.5607 60.1502 53.4097 58.2813 52.6736C57.3672 52.2735 56.5542 51.6738 55.9019 50.9185C55.5481 50.5334 55.2953 50.0665 55.1662 49.5597C55.0525 49.2763 54.9391 48.5407 55.2788 48.371L54.5994 48.4844C54.4857 48.4277 54.4294 48.371 54.4294 48.2577L54.8828 47.8613H54.7691C53.7496 48.371 54.6557 49.1638 55.4488 48.7115C56.242 48.2593 56.0719 47.1831 54.9954 47.2945C54.495 47.4038 54.0541 47.6974 53.7603 48.117C53.4665 48.5366 53.3414 49.0513 53.4099 49.5589C53.6933 51.7104 56.1853 53.4652 58.168 53.8615C62.6993 54.8239 67.061 49.8419 66.3817 45.4831C65.9282 42.7656 63.2641 41.5768 60.8871 41.0104C60.6897 40.9562 60.4817 40.9539 60.2831 41.0035C60.0846 41.0531 59.9021 41.1531 59.7535 41.2938C59.6811 41.3367 59.6243 41.4015 59.5912 41.4789C59.5581 41.5562 59.5504 41.6421 59.5694 41.724C59.5883 41.806 59.6328 41.8798 59.6965 41.9348C59.7602 41.9898 59.8397 42.0231 59.9235 42.0299C62.6427 42.9356 65.9278 43.5587 68.1372 41.2376C68.985 40.3198 69.5188 39.1562 69.6614 37.9149C69.804 36.6737 69.548 35.4193 68.9304 34.3332C67.457 31.7854 64.1719 31.7291 61.5661 32.0688C58.9603 32.4085 55.9582 33.9369 56.2987 36.9374C56.3135 37.268 56.4064 37.5903 56.5697 37.8781C56.733 38.1659 56.9622 38.411 57.2384 38.5932C57.5146 38.7754 57.83 38.8896 58.1589 38.9265C58.4877 38.9634 58.8206 38.9219 59.1304 38.8055C60.1498 38.4091 60.6596 36.9374 59.4138 36.4843C58.168 36.0313 57.5445 37.1637 58.451 37.5034V37.5593Z" fill="#162B43"/>
</g>
<defs>
<clipPath id="clip0_222_4518">
<rect width="93.6337" height="112" fill="white" transform="translate(9)"/>
</clipPath>
</defs>
</svg>
