<svg width="120" height="120" viewBox="0 0 120 120" fill="none" xmlns="http://www.w3.org/2000/svg">
<g clip-path="url(#clip0_222_4058)">
<path d="M55.6006 43.5746C55.7434 44.4363 56.1922 45.2176 56.8647 45.775C57.8225 46.5288 59.6153 46.7324 60.6336 46.0194C61.652 45.3064 61.7744 43.7782 61.7134 42.5764C61.6779 42.0144 61.5683 41.4595 61.3874 40.9262C61.3058 40.702 61.2246 40.3966 60.9394 40.3352C60.8247 40.3021 60.7019 40.3103 60.5925 40.3584C60.4832 40.4065 60.3941 40.4914 60.341 40.5984C60.3058 40.6694 60.2875 40.7474 60.2875 40.8266C60.3691 41.193 60.5726 41.5396 60.6543 42.1916C60.7969 43.2508 60.756 44.8194 60.1041 45.166C59.4521 45.5126 59.513 45.4293 58.6373 45.4104C57.7615 45.3915 57.2517 45.0234 56.7835 44.0248C56.7009 43.8136 56.6399 43.5945 56.6014 43.371C56.4992 42.9226 56.3566 42.1078 56.3566 42.0872C56.339 41.9858 56.3323 41.8828 56.3364 41.78C56.4173 41.7524 56.4899 41.7048 56.5476 41.6417C56.6052 41.5786 56.6461 41.502 56.6664 41.4189C56.6866 41.3359 56.6857 41.2491 56.6636 41.1665C56.6415 41.0839 56.599 41.0082 56.54 40.9464C56.153 40.6204 55.7862 40.2536 55.2975 40.1127C54.0343 39.7872 52.7303 40.215 51.5083 40.5813C50.4857 40.8732 49.5004 41.2829 48.5722 41.802C47.5992 42.3894 46.6969 43.0866 45.883 43.88C44.3553 45.3472 42.9903 47.0584 42.1347 49.0135C41.7203 49.8833 41.4124 50.8 41.2177 51.7436C40.9733 53.231 41.1567 54.7588 41.2585 56.2462C41.4621 58.5076 42.0329 60.7892 43.3571 62.6434C43.8178 63.2341 44.3676 63.7495 44.9866 64.1712C44.4571 64.7622 43.9069 65.3528 43.3773 65.964C42.7139 66.6367 42.2001 67.442 41.8697 68.3272C41.8576 68.4208 41.8717 68.5159 41.9105 68.602C41.9493 68.688 42.0112 68.7616 42.0895 68.8145C42.1677 68.8673 42.259 68.8974 42.3533 68.9013C42.4476 68.9052 42.5412 68.8828 42.6235 68.8366C42.8679 68.694 42.9087 68.3882 43.0513 68.1644C43.2318 67.7967 43.4499 67.4487 43.702 67.1259L44.9651 65.6994C45.2723 65.3532 45.6171 65.0272 45.9023 64.681C46.348 64.8807 46.8214 65.0112 47.3064 65.068C47.8863 65.1561 48.4717 65.2038 49.0583 65.2106C49.1026 65.2685 49.1579 65.3169 49.2211 65.3532C49.4655 65.4757 49.7713 65.394 50.0547 65.4142C50.7804 65.4188 51.5023 65.3087 52.1937 65.0882C52.5807 64.9662 52.7641 64.7811 52.8255 64.5793C53.0493 64.803 53.4161 64.7012 53.703 64.6201C54.2125 64.5203 54.7107 64.3701 55.1904 64.1716C56.4933 63.7989 57.7311 63.2281 58.8606 62.4793C59.3494 62.1533 59.818 61.7865 60.2866 61.4201C60.7552 61.0538 60.7754 61.0941 60.8978 60.8497C60.9265 60.7718 60.9365 60.6882 60.9272 60.6057C60.9178 60.5232 60.8892 60.444 60.8438 60.3745C60.7981 60.3052 60.7368 60.2475 60.6648 60.2061C60.5928 60.1647 60.5121 60.1408 60.4292 60.1363C60.2485 60.1586 60.0821 60.2456 59.9606 60.3811L59.3292 60.8901H59.2884C59.6372 60.3235 59.8721 59.6942 59.9799 59.0376C60.1225 58.3044 59.9799 57.5708 59.8373 56.8578C59.7372 56.1784 59.5736 55.5098 59.3485 54.861C59.0952 54.158 58.6921 53.5186 58.1669 52.987C58.1097 52.9504 58.061 52.9017 58.0243 52.8444C58.1262 52.7794 58.2154 52.6965 58.2876 52.5996C59.449 51.4386 58.4916 49.7678 57.8396 48.6068C57.5341 48.1142 57.1149 47.7019 56.6172 47.4046C56.0786 46.9872 55.439 46.7202 54.7635 46.6306C53.7245 46.549 52.5631 46.7732 51.8501 47.588C51.3676 48.178 50.9318 48.8047 50.5466 49.4624C50.2241 50.1828 49.8354 50.8717 49.3856 51.5202C49.0652 52.027 48.7184 52.5166 48.3467 52.987C48.2483 53.1055 48.1392 53.2147 48.0207 53.313C47.891 53.3508 47.7816 53.4385 47.7166 53.557C47.6516 53.6754 47.6363 53.8147 47.674 53.9444C47.7556 54.2515 48.1018 54.3314 48.3467 54.4946C48.5915 54.6578 49.4058 55.0036 49.9354 55.2278C51.1376 55.6762 52.4411 56.0615 53.4599 56.4502C52.5824 57.4076 51.9116 58.5488 51.708 59.8524C51.4392 61.2689 51.467 62.7257 51.7896 64.1308L51.3412 64.2533C51.056 64.1308 50.7098 64.2124 50.404 64.1918C49.752 64.1918 49.0798 64.1918 48.4076 64.1515C46.6351 64.0698 45.5759 63.6012 44.2311 62.1138C44.1701 62.073 43.1921 60.3824 43.2127 60.3008C42.7529 59.0953 42.4516 57.8352 42.3164 56.552C42.1738 55.2892 42.0312 52.9664 42.1531 52.2126C42.2704 51.4686 42.4827 50.7428 42.785 50.053C43.0531 49.3974 43.3593 48.7581 43.702 48.1382C44.0688 47.5472 44.4759 46.9768 44.9042 46.4064C46.0041 45.0414 47.3893 43.7374 48.5709 42.984C49.7524 42.2306 51.2398 41.6598 53.0326 41.171C53.9492 40.9468 54.7236 40.9468 55.1307 41.11L55.4164 41.2934C55.3497 41.3819 55.3138 41.4898 55.3141 41.6006C55.3493 42.2599 55.4448 42.9147 55.5993 43.5566L55.6006 43.5746ZM52.6061 60.7304C52.6671 59.9968 52.9523 58.8152 53.5227 58.0206C53.7596 57.6792 54.0254 57.3589 54.3173 57.0632C54.4685 56.9286 54.6051 56.7784 54.7249 56.6152C54.7705 56.5591 54.8038 56.4941 54.8227 56.4243C54.8511 56.3194 54.8451 56.2081 54.8056 56.1068C54.7661 56.0055 54.6952 55.9195 54.6033 55.8614C53.1993 55.2094 51.69 54.8224 50.264 54.2924L49.0623 53.7426C49.3851 53.3532 49.6841 52.9447 49.9578 52.5193C50.2838 52.0301 50.6098 51.5615 50.895 51.0714C51.1802 50.5813 51.3837 50.0525 51.6689 49.5839C51.9541 49.1153 52.5855 48.2597 52.9115 48.036C53.2375 47.8122 53.2783 47.8118 53.8487 47.6894H53.9913C54.5213 47.6485 54.6231 47.6485 54.9285 47.7302C55.2338 47.8118 56.2118 48.3822 56.5584 48.6875C56.9051 48.9929 56.8436 48.9732 57.1288 49.4822C57.414 49.9911 57.5768 50.2768 57.7194 50.7252C57.8826 51.5808 57.9642 51.6216 57.149 52.2938C57.2104 52.2328 57.2104 52.2736 57.1288 52.314C57.1234 52.3141 57.1182 52.3163 57.1144 52.3201C57.1105 52.324 57.1083 52.3291 57.1082 52.3346C57.0115 52.3899 56.9366 52.4766 56.8959 52.5804C56.8552 52.6841 56.8511 52.7986 56.8844 52.905C56.8737 52.9784 56.8792 53.0533 56.9007 53.1244C56.922 53.1946 56.958 53.2596 57.0064 53.3148C57.0157 53.4251 57.0637 53.5287 57.142 53.607C57.2203 53.6853 57.3238 53.7333 57.4342 53.7426C58.188 54.5574 58.4938 55.2094 58.7584 56.5946C59.023 57.9798 59.1866 59.2228 58.2898 60.6488C57.9654 61.1411 57.5744 61.5861 57.128 61.9712L57.2297 61.89C56.5984 62.399 55.5186 62.929 55.0092 63.1734C54.6438 63.2842 54.2685 63.3593 53.8886 63.3977C53.298 63.438 53.2164 63.438 52.8496 63.3568L52.646 63.2954C52.646 63.2551 52.6254 63.2344 52.6254 63.2142C52.5338 62.3953 52.527 61.5691 52.6052 60.7488L52.6061 60.7304Z" fill="#DBF122"/>
<path d="M63.4022 29.0891C62.9134 28.8855 62.404 28.7222 61.9148 28.5393C60.5498 28.0707 59.4906 27.4797 58.0239 26.7259C57.4329 26.4407 56.9235 26.0129 56.3329 25.7685C55.7423 25.5241 55.4773 25.8703 55.1513 26.1555C54.8253 26.4407 54.4993 26.6851 54.194 26.9703L51.4434 29.5783C50.2416 30.6985 49.2228 31.6971 48.0211 32.3895C47.5933 32.5527 47.2467 32.9599 47.6135 33.3877C47.9803 33.8155 48.469 33.7751 49.121 34.1011C49.8682 34.3946 50.5962 34.7347 51.3008 35.1195C51.6268 35.3235 51.9326 35.5679 52.299 35.7513L53.4397 36.3419L53.3581 36.3011C53.4297 36.3493 53.5133 36.3768 53.5996 36.3805C53.6859 36.3841 53.7715 36.3638 53.8469 36.3217L53.9895 36.2603C54.1119 36.1791 54.2137 36.0365 54.3563 35.9343C54.8507 35.5818 55.3926 35.3012 55.9657 35.1006C57.1064 34.754 57.5956 34.6728 58.7364 34.7136C59.1844 34.693 59.6328 34.8562 60.0812 34.7948C60.1811 34.8149 60.2848 34.8019 60.3766 34.7578C60.4685 34.7137 60.5434 34.6409 60.5902 34.5504C61.5883 33.206 62.5053 31.8204 63.4627 30.4554C63.8703 29.9666 64.1147 29.4164 63.4017 29.0904L63.4022 29.0891Z" fill="#007EEF"/>
<path d="M60.4698 33.0817C60.1499 32.3705 59.6006 31.7873 58.9098 31.4253C58.2191 31.0633 57.4269 30.9436 56.66 31.0854C56.308 31.1307 55.9605 31.2055 55.621 31.3091C55.5177 31.3166 55.417 31.3459 55.3258 31.3951C55.2345 31.4442 55.1547 31.5121 55.0915 31.5943C55.0551 31.6621 55.034 31.7369 55.0296 31.8137C55.0257 31.8912 55.0387 31.9686 55.0678 32.0406C55.0966 32.1128 55.1411 32.1778 55.198 32.2309C55.2549 32.284 55.3228 32.3239 55.3968 32.3477C55.5472 32.3753 55.7022 32.3613 55.8453 32.3073C56.0914 32.2245 56.3444 32.1634 56.6012 32.1248C57.7214 31.88 58.8828 32.2266 59.4532 33.3472C59.555 33.5302 59.6366 33.775 59.881 33.836C59.9787 33.8578 60.0807 33.8515 60.175 33.8177C60.2693 33.7839 60.3521 33.724 60.4138 33.645C60.4755 33.566 60.5134 33.4712 60.5233 33.3715C60.5333 33.2718 60.5147 33.1713 60.4698 33.0817Z" fill="#162B43"/>
<path d="M56.436 26.0337C56.3892 25.9266 56.307 25.8389 56.2031 25.7852C56.0992 25.7316 55.9801 25.7154 55.8656 25.7393C55.7512 25.7631 55.6485 25.8257 55.5747 25.9164C55.501 26.0071 55.4607 26.1204 55.4607 26.2373C55.4607 27.1149 55.4607 27.9893 55.44 28.8857C55.4607 29.2324 55.3382 29.6395 55.44 29.9862C55.4683 30.052 55.5101 30.1112 55.5628 30.1597C55.6154 30.2083 55.6778 30.2453 55.7457 30.2681C55.8136 30.291 55.8856 30.2992 55.9569 30.2924C56.0282 30.2855 56.0973 30.2637 56.1596 30.2284C56.243 30.181 56.3114 30.1112 56.357 30.027C56.4588 29.8637 56.418 29.6395 56.4382 29.4359C56.4584 29.2324 56.479 28.5584 56.479 28.1319V26.2373C56.4772 26.1676 56.4634 26.0988 56.4382 26.0337H56.436Z" fill="#162B43"/>
<path d="M50.2832 33.0009C50.0384 32.7772 49.6514 32.818 49.3254 32.7377C48.9994 32.6574 48.307 32.5744 47.8385 32.6969C47.3699 32.8193 47.4918 33.6749 48.0219 33.6749C48.4513 33.6542 48.8818 33.6815 49.3052 33.756C49.6514 33.7968 50.0998 34.0009 50.3236 33.6542C50.4031 33.5617 50.4434 33.4418 50.4359 33.32C50.4284 33.1983 50.3736 33.0842 50.2832 33.0022V33.0009Z" fill="#162B43"/>
<path d="M51.7912 33.0215C51.1191 33.0417 51.1191 34.0403 51.7912 34.0403C52.4634 34.0403 52.4634 33.0417 51.7912 33.0215Z" fill="#162B43"/>
<path d="M68.2724 114.657C67.928 114.227 67.5233 113.849 67.0707 113.536C66.5912 113.249 66.0779 113.023 65.5425 112.864C65.2218 112.763 64.8953 112.681 64.5649 112.619C64.5682 112.537 64.5612 112.455 64.5443 112.374C64.5035 111.926 64.5035 111.478 64.2999 111.071V111.03C64.2946 110.926 64.2561 110.826 64.1901 110.746C64.1241 110.665 64.0341 110.608 63.9331 110.582C61.5292 110.052 58.6974 109.889 56.6805 109.543C55.7231 109.38 54.7249 109.196 53.7675 109.441C53.5864 109.498 53.4335 109.622 53.3393 109.787C53.2745 109.814 53.217 109.856 53.1713 109.909C53.1256 109.963 53.093 110.026 53.0761 110.094C52.7909 111.826 52.4442 113.557 52.4039 115.33C52.3488 116.127 52.4379 116.928 52.6671 117.693C52.7487 117.978 52.7689 118.304 52.9304 118.571C53.0919 118.837 53.8268 119.202 54.3156 119.404C55.3343 119.853 56.4751 119.894 57.5751 119.751L59.7145 119.547C60.2 119.476 60.6915 119.455 61.1812 119.486C61.9144 119.629 64.1964 120.22 65.4811 119.914C66.2318 119.742 66.9305 119.393 67.5182 118.895C67.8956 118.64 68.2207 118.315 68.476 117.938C69.0872 116.878 69.1276 115.595 68.272 114.658L68.2724 114.657Z" fill="#162B43"/>
<path d="M38.6917 79.0649C38.6307 78.6673 38.6101 78.2645 38.6303 77.8627C38.6101 77.5775 38.6917 77.2721 38.6303 76.9852C38.6801 76.8835 38.6875 76.7663 38.6509 76.6592C38.4473 75.4978 37.551 75.009 36.6326 74.4386C35.7143 73.8682 35.3085 74.0516 34.4327 74.7646C33.9641 75.1516 33.6789 75.6812 33.3937 76.2125C33.1181 76.5678 32.788 76.8773 32.4157 77.1295C31.7229 77.6183 30.9898 78.0259 30.3172 78.5336C29.8751 78.8974 29.4661 79.2996 29.0948 79.7354C28.6468 80.2856 28.2173 80.8968 28.0558 81.6098C27.9987 82.0165 28.0125 82.4301 28.0966 82.8322C28.1734 83.2885 28.3546 83.7208 28.6262 84.0954C28.8486 84.4904 29.1632 84.8258 29.5432 85.073C30.5414 85.7456 31.7839 85.3362 32.7619 84.8694C33.1696 84.6543 33.5522 84.3947 33.9027 84.0954L33.9435 84.0546L33.9843 84.0138C34.6973 83.4842 35.5125 83.0968 36.2048 82.5264C36.8972 81.956 37.2438 81.4466 37.794 80.9376C38.3442 80.4286 38.7325 79.7977 38.6917 79.0649Z" fill="#162B43"/>
<path d="M67.9871 105.692C67.6616 104.53 67.68 103.288 67.4984 101.8C67.3794 100.335 67.1685 98.8794 66.867 97.4409C66.7854 97.1557 66.7854 96.8499 66.7038 96.5633C66.7669 96.4976 66.8127 96.4173 66.8371 96.3294C66.8615 96.2416 66.8637 96.1491 66.8436 96.0603C66.8234 95.9714 66.7814 95.8889 66.7215 95.8203C66.6616 95.7516 66.5855 95.6989 66.5002 95.6669C64.5648 95.1373 62.5075 95.1373 60.5331 95.4037C58.4462 95.6628 56.4157 96.2614 54.5221 97.1759C53.5441 97.6651 52.5038 98.0534 51.6495 98.7243C51.2419 99.1727 51.2419 99.8243 51.2011 100.374C51.2217 102.514 51.5881 104.631 51.3029 106.751C51.3235 106.894 51.0791 108.055 50.9366 108.646C50.794 109.237 50.6733 109.869 50.7532 110.5C50.833 111.131 51.3845 111.295 51.9549 111.315C52.6821 111.335 53.4098 111.314 54.1347 111.254C55.4185 111.152 56.7018 111.172 58.0058 111.193C60.2058 111.213 62.3859 111.437 64.5872 111.396C65.4647 111.416 66.8077 111.152 67.2154 111.089C67.4355 111.087 67.653 111.04 67.8549 110.952C68.0567 110.864 68.239 110.736 68.3909 110.577C68.5428 110.418 68.6612 110.229 68.7393 110.023C68.8173 109.817 68.8534 109.598 68.8453 109.378C68.7229 108.115 68.3153 106.913 67.9893 105.692L67.9871 105.692Z" fill="#007EEF"/>
<path d="M81.4127 23.5077C81.2293 22.5705 80.3737 22.1628 79.5791 21.8575C78.7845 21.5521 77.7056 21.1848 76.768 20.797C75.8304 20.4091 75.342 20.3284 74.6286 20.084C73.3659 19.6154 72.8157 20.6136 72.3269 21.6117C71.6135 23.1194 71.2673 24.4637 70.6157 25.6866C69.9642 26.9094 69.5768 27.4794 69.088 28.3758C68.5992 29.2722 68.0692 30.3941 67.4786 31.3502C66.8881 32.3063 66.1545 33.6524 65.3392 34.6914C64.1169 36.2806 62.9559 37.951 61.9169 39.2546C61.5909 39.6824 61.5501 39.6416 61.4891 39.6622C61.0205 39.7842 60.552 39.825 60.0851 39.9066C59.6183 39.9882 59.6573 39.9268 59.5147 40.0492C59.0663 40.3752 59.4331 41.1084 59.9425 40.9456L60.9179 40.8047C61.0201 41.3751 61.0403 41.9863 61.3461 42.4957C61.3703 42.55 61.4138 42.5935 61.4681 42.6177C61.3865 43.3105 61.3053 44.0033 61.2645 44.6957C60.6125 44.8181 60.0421 45.2051 59.4919 45.4903L59.3699 45.5719C59.2328 45.5215 59.0883 45.4939 58.9421 45.4903C58.7185 45.4841 58.4984 45.5473 58.3123 45.6714C58.1261 45.7955 57.983 45.9743 57.9027 46.1831L57.7198 46.0204L57.2714 45.5921C56.701 44.9199 56.0898 44.2885 55.6822 43.8401C56.2324 42.9845 56.1916 41.7419 55.397 41.0083C54.6024 40.2747 53.523 40.2953 52.5042 40.5603C51.7383 40.7328 51.0033 41.0214 50.3245 41.4159C48.5822 42.3431 46.9777 43.5087 45.5574 44.8791C44.5967 45.9276 43.8123 47.1249 43.2346 48.4244C42.7619 49.3637 42.3799 50.346 42.0938 51.358C41.9038 52.2838 41.7947 53.2244 41.7678 54.1691C41.727 55.779 41.7477 57.4292 42.2566 58.9772C42.6769 60.0279 43.181 61.0431 43.7642 62.013C44.1685 62.6522 44.6864 63.2119 45.2924 63.6645C45.5556 63.8681 45.8018 64.0721 46.087 64.2551C45.5447 64.3719 45.0533 64.6573 44.6829 65.0703C44.342 65.4501 44.0352 65.8591 43.7659 66.2927C43.6848 66.2481 43.5937 66.2247 43.5012 66.2247C43.4086 66.2247 43.3175 66.2481 43.2364 66.2927C42.9512 66.5165 42.7884 66.8833 42.544 67.1702C41.9194 67.9721 41.3607 68.8232 40.8732 69.7151C39.9158 71.6097 39.3047 73.6675 38.6728 75.7047C38.4771 76.3678 38.3609 77.0518 38.3267 77.7423C38.3267 78.1293 38.3267 78.576 38.5302 78.9239C38.7338 79.2719 39.5289 79.2311 40.0378 79.2701H40.1602C40.3515 79.3285 40.5509 79.3561 40.7508 79.3517L41.0768 79.3109C42.931 79.4127 44.4794 79.6571 45.947 79.8405C47.047 79.9831 50.0419 80.4925 51.0401 80.9611C53.1791 81.8983 53.892 83.3445 54.483 85.5656C54.8292 86.9915 54.3198 88.5808 53.5051 90.1085C53.0365 91.0458 52.6903 91.7386 52.101 92.2884C51.8162 92.5495 51.5169 92.7944 51.2046 93.022C50.9614 93.1661 50.7746 93.3888 50.6751 93.6534C50.5733 94.061 50.6343 94.5089 50.6343 94.9166C50.6343 95.3242 50.6549 96.2206 50.6953 96.8721C50.7356 97.5237 50.7769 98.1762 51.0419 98.7672C51.3069 99.3582 51.9383 99.1335 52.3252 98.7057C52.7122 98.2779 54.057 97.4632 54.4848 97.3206C55.7888 96.8318 57.1331 96.5668 58.4775 96.3018C59.5608 96.0868 60.656 95.9372 61.7572 95.8538C63.3464 95.8538 64.2836 95.8946 65.7095 96.3632C66.3699 96.5892 67.0162 96.8546 67.6449 97.1578C68.1135 97.3206 68.6229 97.6466 69.1117 97.421C69.6005 97.1955 69.5395 96.708 69.5601 96.2601C69.5807 95.8121 69.7435 95.5466 69.6009 95.1596V94.1816C69.6009 91.5538 69.2749 88.9256 69.3376 86.2974C69.4004 83.6692 69.6838 81.3468 69.5618 78.8612C69.5004 77.6186 69.3986 76.376 69.2152 75.1536C69.0318 73.9312 68.7063 72.6478 68.5229 71.3846C68.1969 69.3066 68.0951 65.9654 68.1561 63.399C68.1622 62.9837 68.1894 62.569 68.2377 62.1565C68.3188 61.8493 68.4005 61.5654 68.5009 61.2789C69.0713 59.8121 69.6825 58.3655 70.2327 56.8987C70.7829 55.4319 71.2515 54.5969 72.0457 53.2521C72.5959 52.3355 73.0443 51.3777 73.5532 50.4611C74.399 49.0146 75.1412 47.51 75.7742 45.9585C76.3038 44.8379 76.8742 43.7379 77.2612 42.5765C77.7706 41.0285 78.015 39.4174 78.3818 37.8295C78.7486 36.2416 79.2781 34.4273 79.7858 32.7362C80.1526 31.4937 80.397 30.2304 80.8041 29.0067C81.1031 28.2597 81.3416 27.4898 81.5171 26.7045C81.6979 25.6424 81.6633 24.5548 81.4153 23.5063L81.4127 23.5077ZM51.8115 97.7874C51.8115 97.7264 51.7913 97.665 51.7913 97.5838L52.0155 97.6246L51.8115 97.7874ZM58.8605 61.4421C58.4706 61.6726 58.0694 61.8834 57.6583 62.0735C56.64 62.5013 55.6212 62.9072 54.5822 63.2959C53.8267 63.6123 53.0508 63.8778 52.2599 64.0905V64.0497C52.1783 62.5829 51.8321 61.1161 51.9339 59.6493C51.9614 59.5388 51.9954 59.4299 52.0357 59.3233L52.4226 58.5695C52.4605 58.4966 52.4945 58.4218 52.5244 58.3453L52.8711 58.0601C53.1298 57.8912 53.3236 57.6396 53.4208 57.3463C53.472 57.1571 53.4726 56.9577 53.4225 56.7682C53.3725 56.5787 53.2735 56.4057 53.1356 56.2664C53.0365 56.1611 52.9164 56.0777 52.7831 56.0215C52.6498 55.9654 52.5063 55.9378 52.3617 55.9404L52.1173 55.6144C51.6079 55.0849 50.8949 54.9624 50.2021 54.9216L49.5707 54.718H49.5299C49.3939 54.656 49.2642 54.581 49.1425 54.4943L48.9183 54.2705C48.7978 54.1014 48.6888 53.9243 48.5923 53.7405V53.7001L48.4291 53.2719C48.9857 52.613 49.4898 51.9115 49.9366 51.1737C50.3649 50.4607 50.7519 49.7257 51.159 49.0141C51.363 48.6271 51.6074 48.2809 51.811 47.8935L52.0743 47.5473L51.8299 47.8733L52.0931 47.5661L52.4398 47.6069C54.3751 47.485 54.2325 47.3217 55.4343 48.0962L55.5361 48.1572L56.8646 49.3405C57.025 49.5064 57.2259 49.6275 57.4475 49.6919C57.669 49.7562 57.9036 49.7615 58.1278 49.7073L58.3125 49.624C58.3125 50.0926 58.3125 50.5612 58.2923 51.028C58.1699 51.4379 58.1081 51.8635 58.1089 52.2912C58.0408 52.6564 58.0547 53.0321 58.1497 53.3912C57.9429 53.1259 57.6466 52.9448 57.3161 52.8818C57.1791 52.8816 57.0473 52.9346 56.9485 53.0296C56.8497 53.1246 56.7916 53.2542 56.7865 53.3912C56.7791 53.7652 56.7927 54.1393 56.8273 54.5118C56.8475 54.8378 56.9901 55.2042 57.3363 55.2656C57.6313 55.2997 57.9301 55.2719 58.2138 55.184C58.3241 55.2016 58.4372 55.1874 58.5398 55.1432C58.5398 55.1638 58.56 55.2042 58.56 55.2248C58.6416 56.1822 58.499 56.5082 58.3564 57.4656C58.3088 57.5219 58.2678 57.5835 58.234 57.649C58.1717 57.6832 58.1168 57.7294 58.0725 57.785C58.0057 57.8685 57.9658 57.9704 57.9579 58.077C57.9501 58.1837 57.9748 58.2902 58.0287 58.3826C58.2919 58.7494 58.3138 58.7086 58.4156 59.014V59.1364C58.4564 59.4436 58.3955 59.7678 58.5381 60.0328C58.5902 60.134 58.6746 60.2148 58.778 60.2625C58.8813 60.3102 58.9976 60.322 59.1084 60.2961C59.0883 60.3979 59.0474 60.5199 59.0268 60.6217C59.0062 60.7234 58.9049 61.1719 58.864 61.4553L58.8605 61.4421ZM59.7381 57.0821C59.6771 57.4489 59.6161 57.8157 59.5345 58.1825C59.5345 58.1211 59.5143 58.0399 59.5143 57.9785C59.4818 57.838 59.434 57.7014 59.3717 57.5713V57.4897C59.4529 57.0211 59.5547 56.5727 59.5955 56.1247C59.6363 55.6767 59.5955 55.7579 59.5753 55.5745C59.6551 55.7862 59.7165 56.0043 59.7587 56.2265C59.7721 56.5192 59.7652 56.8124 59.7381 57.1041V57.0821ZM77.6455 22.2853C77.4496 22.2023 77.2591 22.1071 77.0751 22.0001C77.8289 22.2853 78.7051 22.5705 79.3567 22.8557C78.7863 22.6516 78.1953 22.509 77.6455 22.2853Z" fill="#DBF122"/>
<path d="M54.8266 85.8076C54.2988 84.4518 53.4905 83.2228 52.4546 82.2011C51.4187 81.1795 50.1786 80.3883 48.8156 79.8794C47.7523 79.4612 46.6337 79.2003 45.4951 79.105C44.4359 79.0642 43.3763 79.1866 42.3172 79.166C41.6538 79.1339 40.9939 79.0522 40.3428 78.9216C39.9961 78.8606 39.6298 78.718 39.2832 78.8198C39.0954 78.8537 38.9157 78.9227 38.7536 79.0234C38.7068 79.0526 38.6665 79.091 38.635 79.1363C38.6035 79.1815 38.5814 79.2327 38.5702 79.2866C38.2191 79.876 37.8384 80.4471 37.4294 80.9978C36.904 81.5668 36.3084 82.0666 35.6568 82.4853C34.9438 82.9131 34.0883 83.3 33.7623 84.1355C33.5179 84.665 33.6807 85.2763 33.9865 85.7247C34.2923 86.1731 34.6994 86.4377 35.0456 86.7839C35.3918 87.13 35.9828 87.8637 36.4497 88.3933C36.9165 88.9228 37.2833 89.6973 37.7738 90.4309C38.2644 91.1645 38.8334 91.7551 39.4038 92.3865C39.9665 92.8974 40.5657 93.3666 41.1966 93.7905C41.6447 94.0525 42.1237 94.2579 42.6225 94.4017C43.1727 94.5443 43.7633 94.5443 44.3337 94.6053C45.3423 94.7483 46.3674 94.7278 47.3695 94.5443C48.3718 94.2885 49.3372 93.9051 50.242 93.4035C51.3634 92.8898 52.3789 92.1712 53.2365 91.2847C53.5448 90.9009 53.8305 90.4995 54.0921 90.0825C54.3702 89.6891 54.6026 89.2653 54.7849 88.8193C55.1244 87.8451 55.1387 86.7871 54.8257 85.8041L54.8266 85.8076Z" fill="#007EEF"/>
<path d="M95.7146 17.4156C94.981 15.134 93.9218 12.9951 92.842 10.8556C92.3124 9.73501 91.8438 8.59422 91.273 7.49423C90.7022 6.39424 90.0103 5.21264 89.4193 4.05123C88.8856 2.98324 88.2869 1.94902 87.6265 0.954409C87.2395 0.282217 86.8933 -0.247375 86.0373 0.120751C85.5112 0.348762 85.0124 0.635329 84.5504 0.975031C84.0612 1.30103 83.5522 1.60642 83.0428 1.9118C82.1653 2.42121 81.2702 2.849 80.3738 3.33823C79.4775 3.82746 78.1739 4.58082 77.0125 5.11041C75.8511 5.64 75.0771 5.98794 74.2418 6.59783C73.0804 7.39244 74.3435 9.18656 74.792 10.1018C75.2404 11.0171 75.5251 11.2834 75.8919 11.8538C75.9749 12.0171 76.0702 12.1737 76.1771 12.3224C76.2489 12.3981 76.3429 12.4488 76.4455 12.4672C76.5481 12.4856 76.654 12.4707 76.7475 12.4247C76.8587 12.3719 76.948 12.2819 77.0001 12.1704C77.0521 12.0588 77.0637 11.9326 77.0327 11.8135C77.0327 11.7928 77.0125 11.7928 77.0125 11.7726C77.0125 11.7673 77.0146 11.7621 77.0182 11.7582C77.022 11.7543 77.0272 11.7521 77.0327 11.752C77.3793 10.8745 78.0515 10.9372 78.4367 11.0798C78.8219 11.2224 78.9663 11.8538 79.0479 12.6691C79.1261 13.3182 79.133 13.974 79.0685 14.6246C79.0479 14.7062 79.0071 14.9098 78.9869 15.0323C78.903 15.0449 78.8234 15.0776 78.7548 15.1274C78.6862 15.1773 78.6306 15.243 78.5926 15.3188C78.5547 15.3947 78.5355 15.4786 78.5368 15.5634C78.5381 15.6483 78.5597 15.7315 78.5999 15.8062C79.2313 16.8659 79.6999 18.0268 80.2501 19.1273C80.8003 20.2277 81.3501 21.0017 81.8797 21.9591C82.6334 23.2425 83.1428 24.6891 84.1208 25.8097C84.6302 26.2779 85.3226 25.9523 85.832 25.6873C86.3414 25.4223 86.9118 25.0151 87.4822 24.7299C88.5619 24.1595 89.4566 23.8738 90.7825 23.3258C92.4327 22.633 93.9609 21.6958 95.611 20.9828C96.7926 20.4532 95.9774 18.3344 95.7128 17.4174L95.7146 17.4156Z" fill="#007EEF"/>
<path d="M39.9952 53.5176L39.9141 53.5786C39.9952 53.5382 39.9952 53.5176 39.9952 53.5176Z" fill="#162B43"/>
<path d="M60.7551 41.0892C60.6603 40.8485 60.5444 40.6167 60.4089 40.3964C60.3784 40.3144 60.3294 40.2406 60.2658 40.1805C60.2022 40.1205 60.1257 40.0759 60.0421 40.0502H59.9605C60.2833 39.6678 60.5258 39.2243 60.6735 38.7462C61.0201 37.7682 60.9587 36.709 60.7753 35.6902C60.7331 35.3224 60.6511 34.9604 60.5309 34.6104L60.4699 34.6718L60.4089 34.7121C60.4089 34.7149 60.4084 34.7175 60.4073 34.72C60.4063 34.7225 60.4047 34.7248 60.4028 34.7266C60.3989 34.7305 60.3937 34.7327 60.3883 34.7328L60.4699 34.6718L60.3475 34.753H60.3681L60.3067 34.7938C60.3042 34.7931 60.3017 34.7931 60.2992 34.7938C60.2967 34.7948 60.2945 34.7963 60.2926 34.7981C60.2907 34.8 60.2893 34.8023 60.2882 34.8047C60.2875 34.8073 60.2875 34.81 60.2882 34.8126H59.5125C59.7203 35.4105 59.8436 36.0344 59.8789 36.6664C59.9605 38.1332 59.7569 38.887 58.8399 39.8255C57.9229 40.7641 57.1489 40.9053 55.9064 40.0497C54.6638 39.1941 54.3172 38.0314 54.2562 36.6067V36.0162C54.2561 36.0216 54.2539 36.0268 54.2501 36.0306C54.2482 36.0325 54.2461 36.034 54.2436 36.035C54.2412 36.036 54.2386 36.0364 54.236 36.0363C54.2333 36.0363 54.2306 36.0368 54.2281 36.0379C54.2256 36.0389 54.2234 36.0405 54.2215 36.0425C54.2177 36.0463 54.2154 36.0515 54.2154 36.057H54.1952L54.0934 36.1386H54.0728L54.0118 36.1789C54.0114 36.1765 54.0114 36.1739 54.0118 36.1715C54.0129 36.1691 54.0144 36.1668 54.0162 36.1649C54.0181 36.1629 54.0205 36.1614 54.0232 36.1605C54.0257 36.1599 54.0282 36.1599 54.0307 36.1605H53.9899C53.9899 36.1807 53.9697 36.1807 53.9495 36.1807L53.8473 36.2215H53.5217L53.3585 36.1807L53.2567 36.1403H53.2361C53.2361 36.4036 53.2567 36.6493 53.2769 36.8941C52.2618 36.7038 51.2332 36.5948 50.2008 36.5681C48.4724 36.5545 46.7467 36.7045 45.0467 37.0161C43.2099 37.3146 41.4129 37.8201 39.6899 38.5228C37.9806 39.1209 36.352 39.9284 34.8412 40.9268C33.0356 42.1757 31.4866 43.7595 30.2781 45.5923C29.6229 46.4478 29.1262 47.4137 28.8113 48.4442C28.7674 48.5477 28.755 48.6617 28.7757 48.7722C28.7964 48.8826 28.8492 48.9845 28.9276 49.065C29.0059 49.1455 29.1063 49.2011 29.2161 49.2247C29.326 49.2484 29.4403 49.2391 29.5449 49.198C30.4005 48.7904 31.1745 48.22 31.9897 47.772C32.5524 47.4211 33.1379 47.1079 33.7421 46.8344C33.1511 47.303 32.5605 47.7716 31.8269 48.403C31.0933 49.0344 30.3399 49.829 29.627 50.5828C28.914 51.3366 28.1597 52.5572 27.4468 53.598C26.9694 54.2151 26.4301 54.7817 25.8374 55.289C25.8374 55.3096 25.8172 55.3096 25.7966 55.3298C25.267 55.6558 25.2876 55.6558 24.7782 55.7984C24.5063 55.8349 24.2396 55.9032 23.9836 56.002C23.8841 56.0625 23.8063 56.1531 23.7615 56.2606C23.7167 56.3682 23.7072 56.4872 23.7344 56.6005C23.7616 56.7138 23.824 56.8156 23.9127 56.8911C24.0015 56.9666 24.1119 57.012 24.228 57.0208C25.2562 57.2691 26.3081 57.4057 27.3656 57.4284C28.5064 57.4692 29.6471 57.2858 30.7677 57.1024C33.2902 56.6554 35.7383 55.86 38.0419 54.7392C38.6918 54.4009 39.3061 53.9981 39.8755 53.537C39.9036 53.4904 39.9465 53.4546 39.9974 53.4352C40.405 53.1281 40.8127 52.8442 41.1996 52.498C41.2198 52.2944 41.2606 52.0904 41.3014 51.8868C41.3422 51.6832 41.4238 51.1128 41.505 50.7254C41.5803 50.3472 41.6965 49.9784 41.8516 49.6254L42.0552 49.2384L42.1978 48.994L42.2588 48.9124C42.2996 48.7698 42.3812 48.6491 42.422 48.5254L42.6853 48.0568L42.8682 47.7497C43.002 47.4275 43.1804 47.1257 43.3983 46.8533L43.6834 46.4869L43.9278 46.1403H43.948L44.4372 45.4681C44.9476 44.8186 45.5518 44.2487 46.23 43.7771L47.3909 43.0641L48.4097 42.4529C49.8985 41.6952 51.4446 41.056 53.0338 40.5412C53.4378 40.4055 53.8541 40.31 54.2768 40.256H54.5401L54.7437 40.2152C55.0647 40.5263 55.4202 40.7998 55.8033 41.0304C55.6832 41.8428 55.7816 42.6726 56.0884 43.4344C56.2865 44.1336 56.6593 44.7708 57.1717 45.286C58.5367 46.6308 60.3703 45.999 60.9815 44.2672C61.4501 43.208 61.1851 41.9856 60.7573 40.9668L60.7551 41.0892ZM60.1031 43.8394C59.4919 45.7748 57.7399 45.4084 57.0879 43.3098C56.8436 42.5968 56.7619 42.3524 56.7619 41.782C56.7586 41.6792 56.7655 41.5763 56.7826 41.4749C56.9974 41.5164 57.2158 41.5369 57.4346 41.5363C58.1749 41.4535 58.8681 41.1315 59.409 40.6193C59.4379 40.745 59.4936 40.8631 59.5722 40.9655L59.8166 41.4749C60.0408 41.9233 60.4076 43.2677 60.1018 43.8381L60.1031 43.8394Z" fill="#162B43"/>
<path d="M79.0294 15.5216V15.4602C79.1312 14.8082 79.3756 14.1768 79.4366 13.5046C79.4822 12.6483 79.3142 11.7942 78.9478 11.019C78.2761 9.71495 76.872 10.5912 76.3016 11.5078C75.7313 12.4243 75.0793 14.1158 74.6717 15.4808C74.1808 17.1109 74.0625 18.8306 74.3255 20.5126C74.5089 21.022 75.303 20.8592 75.303 20.309C75.1604 18.5368 75.1604 17.3754 75.6496 15.7862C76.1389 14.197 76.2578 13.3817 76.9514 12.384C77.4402 11.6912 77.2976 11.7118 77.9496 11.3858C77.9496 11.3652 77.9496 11.3652 77.9698 11.3652C77.99 11.3652 77.9698 11.3858 77.9904 11.406L78.0922 11.5692C78.2784 12.031 78.3885 12.52 78.4182 13.0171C78.4994 13.8323 78.0514 14.5655 78.0106 15.6453C78.0514 15.9713 78.1734 16.3991 78.52 16.5009C78.5959 16.5231 78.6758 16.5273 78.7536 16.5132C78.8313 16.4991 78.9047 16.4671 78.968 16.4198C79.0311 16.3721 79.0824 16.3105 79.118 16.2399C79.1535 16.1692 79.172 16.0912 79.172 16.0121C79.1618 15.8817 79.1198 15.7557 79.0496 15.6453C79.0421 15.6371 79.0365 15.6274 79.0329 15.6168C79.0293 15.6064 79.0281 15.5953 79.0294 15.5843V15.5234V15.5216Z" fill="#162B43"/>
<path d="M81.3109 20.6961C81.0257 20.879 80.9849 21.2665 80.8015 21.5297C80.6729 21.7944 80.5015 22.036 80.2943 22.2449C80.1517 22.3875 79.9477 22.4898 79.8661 22.6933C79.7845 22.8969 80.3145 23.6306 80.6997 23.2436C81.2495 22.7721 81.6816 22.1788 81.9616 21.5109C82.2876 21.0216 81.8598 20.4104 81.3096 20.6961H81.3109Z" fill="#162B43"/>
<path d="M45.2923 63.9888C45.1291 63.7646 44.8439 63.7036 44.6197 63.5404C44.0233 63.1549 43.5219 62.6395 43.1529 62.0328C42.766 61.3399 42.7252 61.0346 42.3584 60.1992C42.313 60.1295 42.2499 60.0733 42.1754 60.0364C42.1432 59.9587 42.0923 59.8902 42.0272 59.8369C41.9621 59.7837 41.8849 59.7473 41.8023 59.7312C41.7198 59.715 41.6346 59.7195 41.5542 59.7443C41.4739 59.7691 41.4009 59.8133 41.3418 59.8731C39.9768 61.544 38.3266 62.9292 36.758 64.396C36.2078 64.9462 35.5558 65.3538 35.0469 65.9242C34.8275 66.3119 34.6954 66.7429 34.6599 67.187C34.4155 69.0206 35.5563 71.4869 37.3899 72.1174C37.8918 72.2675 38.4145 72.3363 38.9382 72.321C39.3454 72.3008 39.7719 72.321 40.1606 72.1582C40.3248 72.0537 40.4473 71.8951 40.5068 71.7098C40.6292 71.4246 40.792 71.16 40.9346 70.895C41.4773 70.0599 41.9738 69.1957 42.422 68.3063C42.9108 67.4726 43.461 66.6767 44.0107 65.8614C44.1479 65.6685 44.2977 65.4849 44.4591 65.3117C44.6323 65.1329 44.8152 64.9638 45.0071 64.8053C45.1213 64.7315 45.2185 64.6343 45.2923 64.5201C45.337 64.439 45.3604 64.3479 45.3604 64.2553C45.3604 64.1627 45.337 64.0717 45.2923 63.9905V63.9888ZM36.4294 67.8188V67.717C36.5288 67.3912 36.6888 67.087 36.9011 66.8206C36.668 67.1191 36.5076 67.4677 36.4325 67.839L36.4294 67.8188Z" fill="#4ADEFF"/>
<path d="M57.2104 48.4637C56.7767 48.0979 56.2974 47.7898 55.7845 47.5472C55.4309 47.3226 55.0322 47.1786 54.6167 47.1255C54.2012 47.0725 53.7792 47.1115 53.3805 47.24C52.8101 47.4234 52.4635 47.9127 52.1375 48.4014C51.5671 49.279 51.1801 50.296 50.5689 51.1516C49.9578 52.0072 49.8152 52.3538 49.4076 52.9444C48.9999 53.535 48.8372 53.5556 48.7762 53.9023C48.7667 53.9776 48.7742 54.0542 48.7982 54.1263C48.8222 54.1984 48.862 54.2642 48.9147 54.3189C48.9674 54.3736 49.0317 54.4158 49.1029 54.4424C49.1741 54.469 49.2503 54.4793 49.3259 54.4727C49.4484 54.6964 49.7336 54.7579 49.9578 54.8188C50.2563 54.8849 50.5496 54.9729 50.8353 55.0821C51.3916 55.3345 51.9708 55.5332 52.5649 55.6758C52.8909 55.7574 53.2778 55.8798 53.5837 55.6556C53.8895 55.4314 54.3576 54.9426 54.7652 54.596L54.8262 54.3924L54.867 54.3314H54.8903C54.9215 54.2792 54.9486 54.2246 54.9714 54.1682L55.1548 53.822C55.2113 53.6964 55.259 53.5671 55.2974 53.435C55.3435 53.2527 55.434 53.0846 55.5607 52.9457C55.6084 52.8931 55.6704 52.8554 55.7391 52.8374C55.8078 52.8193 55.8803 52.8216 55.9477 52.844C56.0142 52.866 56.0746 52.9032 56.1241 52.9528C56.1736 53.0023 56.2108 53.0627 56.2329 53.1292C56.2509 53.1744 56.2578 53.2233 56.2531 53.2718L56.6405 52.8646L56.8849 52.6605L56.9459 52.6197H56.8647C57.1839 52.4955 57.4749 52.3085 57.7207 52.07C58.9225 50.8269 58.2095 49.5435 57.2113 48.4637H57.2104Z" fill="#4ADEFF"/>
<path d="M60.8976 74.5416C60.84 74.5732 60.7901 74.6171 60.7513 74.6702C60.7126 74.7233 60.686 74.7842 60.6734 74.8487L60.164 76.2751C59.4532 78.1873 58.9824 80.185 58.2686 82.0998C58.187 82.4069 57.5556 83.5477 57.1278 84.1576C56.374 85.2374 55.7238 86.358 55.131 87.1526C55.087 87.2617 55.0821 87.3826 55.1171 87.4948C55.1521 87.6071 55.2248 87.7038 55.323 87.7685C55.4211 87.8332 55.5386 87.862 55.6556 87.85C55.7726 87.8379 55.8817 87.7858 55.9646 87.7024C56.474 87.0912 56.8816 86.358 57.3296 85.6841C58.0426 84.6451 58.7775 83.6061 59.2448 82.4245C59.7121 81.2429 60.1004 79.6541 60.5484 78.2685C60.7932 77.5353 61.0784 76.7815 61.3228 76.0277C61.4246 75.6609 61.6689 75.2941 61.6488 74.9071C61.6361 74.8256 61.6041 74.7484 61.5553 74.682C61.4815 74.5818 61.3736 74.5121 61.252 74.486C61.1304 74.4598 61.0034 74.4792 60.895 74.5403L60.8976 74.5416Z" fill="#162B43"/>
<path d="M61.9164 71.6895C61.7985 71.6894 61.6843 71.7301 61.5931 71.8049C61.502 71.8796 61.4395 71.9836 61.4165 72.0992C61.3934 72.2148 61.4111 72.3348 61.4667 72.4388C61.5222 72.5428 61.612 72.6243 61.7209 72.6694C61.8298 72.7146 61.951 72.7206 62.0638 72.6864C62.1766 72.6522 62.274 72.5799 62.3395 72.4819C62.405 72.3839 62.4345 72.2663 62.423 72.149C62.4114 72.0316 62.3595 71.922 62.2762 71.8386C62.1807 71.7433 62.0513 71.6897 61.9164 71.6895Z" fill="#162B43"/>
<path d="M68.4354 53.6186C68.0719 55.4811 67.8403 57.367 67.7426 59.2621C67.7018 59.7917 67.6816 60.3419 67.661 60.8715C67.6369 61.0003 67.6439 61.133 67.6816 61.2585C67.7225 61.3423 67.7847 61.4138 67.8621 61.4659C67.9395 61.5179 68.0292 61.5486 68.1222 61.5548C68.2153 61.561 68.3083 61.5425 68.3919 61.5011C68.4755 61.4598 68.5466 61.3971 68.5982 61.3195C68.7206 61.0957 68.6596 60.8508 68.6798 60.6065C68.7206 60.0159 68.7408 59.4455 68.7816 58.8545C68.8777 57.185 69.0888 55.5241 69.4134 53.8837C69.4327 53.7596 69.4056 53.6328 69.3371 53.5275C69.2686 53.4223 69.1637 53.346 69.0425 53.3134C68.9213 53.2808 68.7922 53.2941 68.6802 53.3507C68.5682 53.4074 68.481 53.5034 68.4354 53.6204V53.6186Z" fill="#162B43"/>
<path d="M58.0458 58.0191C58.2165 57.8618 58.367 57.684 58.4938 57.4895C59.1458 56.5523 59.1458 55.2483 57.8624 54.9223C57.5903 54.8419 57.3008 54.8419 57.0287 54.9223L57.0897 54.5353C57.1915 53.9241 57.2323 53.2927 56.9879 52.7223C56.8675 52.4481 56.6549 52.2246 56.387 52.0906C56.1191 51.9567 55.8128 51.9206 55.5212 51.9887C55.0324 52.1111 54.7266 52.5591 54.4616 52.9667C54.0935 53.5152 53.8951 54.1599 53.8912 54.8205C53.9017 54.8881 53.9017 54.9569 53.8912 55.0245H53.8504C52.2002 54.6169 50.6913 54.3519 49.5111 53.5766L49.3483 53.4542L49.2259 53.3524L49.1851 53.2914C49.1241 53.1282 49.1241 52.9452 49.0021 52.8228C48.695 52.3744 47.9631 52.7412 48.1246 53.2708C48.1686 53.5392 48.2809 53.7918 48.4506 54.0044C48.7086 54.2728 49.0121 54.4936 49.347 54.6564C50.4469 55.247 51.6693 55.573 52.8917 55.8178C53.236 55.878 53.5713 55.9812 53.8899 56.1249C53.9921 56.1451 53.9513 56.2675 54.3177 56.3083C54.4288 56.3119 54.5378 56.2776 54.6267 56.2109C54.7156 56.1442 54.7792 56.0492 54.8069 55.9415C54.8732 55.8529 54.9089 55.7451 54.9087 55.6344C54.8948 55.1575 54.9221 54.6802 54.9903 54.208C54.9903 54.0246 55.54 53.169 55.6217 53.1282C55.6446 53.0848 55.6801 53.0493 55.7234 53.0264L55.7849 52.9856H55.9476C55.9678 53.0062 55.9885 53.0264 55.9885 53.047C56.0261 53.071 56.0548 53.1068 56.0701 53.1488C56.1066 53.2618 56.1337 53.3775 56.1512 53.495C56.1613 53.6103 56.1613 53.7263 56.1512 53.8416C56.1719 54.0654 55.9885 54.6972 55.9476 55.2895C55.9678 55.3303 55.9678 55.3913 55.9885 55.4321L55.7441 55.6362C55.5199 55.8806 55.1123 56.0841 55.1123 56.4509C55.1174 56.5477 55.15 56.641 55.2062 56.7199C55.2625 56.7988 55.3401 56.86 55.4299 56.8963C55.5197 56.9327 55.618 56.9426 55.7133 56.9251C55.8086 56.9075 55.8969 56.8631 55.9678 56.7971C56.8015 56.0231 57.1902 55.7788 57.618 55.8805L57.7422 55.942H57.8032L57.8646 56.003H57.8848C57.8861 56.0187 57.8935 56.0333 57.9054 56.0438C57.9041 56.0549 57.9053 56.0661 57.9089 56.0767C57.9125 56.0872 57.9181 56.0969 57.9256 56.1052V56.2052C57.8238 56.6532 57.8238 56.5922 57.5386 57.02L57.3346 57.2442L57.2534 57.3052L57.192 57.346C56.9068 57.5904 56.4996 57.6532 56.2548 57.9164C56.1841 57.9977 56.1435 58.1007 56.1398 58.2084C56.1361 58.316 56.1696 58.4216 56.2346 58.5074C56.2799 58.6223 56.3614 58.7194 56.4666 58.784C56.5718 58.8487 56.6952 58.8774 56.8181 58.8659C56.8996 58.8584 56.9784 58.8334 57.0494 58.7926L57.2126 58.7518H57.3346L57.4772 58.7926L57.5794 58.8536L57.6606 58.9352H57.6812C57.7014 58.9761 57.7014 59.037 57.722 59.0778V59.3016L57.6606 59.5868C57.5962 59.8585 57.4785 60.1147 57.3144 60.3406C57.07 60.7482 56.4996 61.1967 55.705 61.5836C55.0759 61.8853 54.4131 62.111 53.7306 62.2558H53.8732C53.6588 62.2992 53.4394 62.3129 53.2212 62.2966C53.1978 62.2032 53.1841 62.1077 53.1804 62.0114C53.1414 61.8832 53.0533 61.7755 52.9354 61.7117C52.8175 61.6479 52.6792 61.6332 52.5505 61.6707C52.4218 61.7083 52.3131 61.795 52.2479 61.9122C52.1827 62.0294 52.1664 62.1675 52.2024 62.2966C52.5095 64.4764 52.0804 63.4782 49.3303 63.3155C48.4967 63.3356 46.9873 63.519 46.6407 63.4173C45.8259 63.193 45.6017 63.1321 44.9905 62.7446C44.787 62.6428 43.9924 61.7872 43.5426 61.2967C43.4877 61.2425 43.4211 61.2015 43.348 61.1768C43.2749 61.1521 43.1971 61.1444 43.1206 61.1542C43.044 61.164 42.9707 61.1911 42.9062 61.2334C42.8416 61.2758 42.7876 61.3322 42.7481 61.3985C42.4848 61.9079 43.0942 62.2541 43.3592 62.5801C43.6243 62.9061 44.3162 63.6204 44.9664 63.9069C45.5274 64.2097 46.1323 64.4229 46.7592 64.5387C47.5538 64.5997 48.3685 64.4365 49.1631 64.4163C49.9577 64.3961 50.7725 64.6796 51.9541 64.7831C52.2701 64.7863 52.5765 64.6747 52.8164 64.4688C53.0563 64.263 53.2132 63.9771 53.2581 63.6643C53.2782 63.5827 53.2782 63.4809 53.2989 63.401C54.2562 63.4216 55.1934 63.014 56.0898 62.627C56.9862 62.24 57.6382 61.7714 58.127 61.0584C58.6157 60.3454 58.8198 59.7136 58.718 58.9804C58.6868 58.78 58.6099 58.5893 58.4934 58.4233C58.3768 58.2572 58.2237 58.1201 58.0458 58.0226V58.0191Z" fill="#162B43"/>
<path d="M42.3181 59.8733C41.6454 59.8733 41.6454 60.8715 42.3181 60.8916C42.3862 60.8936 42.454 60.882 42.5175 60.8573C42.5811 60.8326 42.639 60.7954 42.6879 60.7479C42.7368 60.7004 42.7756 60.6436 42.8022 60.5808C42.8287 60.5181 42.8424 60.4506 42.8424 60.3825C42.8424 60.3143 42.8287 60.2468 42.8022 60.1841C42.7756 60.1213 42.7368 60.0645 42.6879 60.017C42.639 59.9695 42.5811 59.9323 42.5175 59.9076C42.454 59.883 42.3862 59.8713 42.3181 59.8733Z" fill="#162B43"/>
<path d="M39.6082 67.6353C39.323 67.0649 38.7118 66.7183 38.1822 66.3927C37.7381 66.1076 37.2587 65.8815 36.7563 65.7201C36.3285 65.6389 35.8392 65.5573 35.4321 65.6793C35.0249 65.8013 35.0855 66.6573 35.6155 66.6573C36.0604 66.6045 36.5114 66.675 36.919 66.8609C37.5508 67.1869 38.2638 67.5945 38.5082 67.8595C38.7526 68.1246 38.7324 68.1855 38.936 68.2465C39.1396 68.3075 39.7306 68.0223 39.6082 67.6353Z" fill="white"/>
<path d="M40.2602 68.8174C39.5881 68.8174 39.5881 69.8156 40.2602 69.8358C40.9324 69.8559 40.9122 68.8174 40.2602 68.8174Z" fill="white"/>
<path d="M38.7527 69.082C38.5083 68.573 38.0196 67.9618 37.3878 68.1856C36.7559 68.4094 36.6954 68.9394 37.1434 69.2246C37.2225 69.2641 37.3097 69.2846 37.3981 69.2846C37.4865 69.2846 37.5737 69.2641 37.6528 69.2246C38.4675 70.4268 37.8155 70.9156 36.9398 69.9784C36.4304 69.3878 36.247 68.7766 36.7766 68.0838C36.8302 67.9685 36.8388 67.8373 36.8007 67.716C36.7626 67.5947 36.6805 67.4921 36.5705 67.4282C36.4605 67.3644 36.3307 67.344 36.2064 67.371C36.0822 67.3981 35.9725 67.4706 35.899 67.5744C35.2879 68.308 35.3287 69.4286 35.8376 70.2026C36.3466 70.9766 36.6936 71.2416 37.3452 71.425C37.6343 71.5155 37.9456 71.5042 38.2274 71.393C38.5091 71.2818 38.7443 71.0774 38.8936 70.8138C39.1568 70.2636 39.016 69.612 38.751 69.082H38.7527Z" fill="white"/>
<path d="M52.5042 49.3814C51.954 50.3388 51.1594 50.9908 50.3446 52.0504C50.1002 52.5392 50.793 53.0078 51.1594 52.6002C51.5258 52.1926 52.219 51.48 52.7078 50.8688C52.8912 50.624 53.0746 50.3796 53.2374 50.115C53.3448 50.0028 53.4159 49.8607 53.4414 49.7074C53.5432 49.1778 52.7688 48.9128 52.5042 49.3814Z" fill="white"/>
<path d="M55.8656 48.668C55.7028 48.4438 55.4378 48.3609 55.2136 48.2196C54.7046 47.9625 54.1518 47.8036 53.584 47.751C53.4668 47.7664 53.3586 47.8221 53.278 47.9085C53.1973 47.9949 53.1492 48.1068 53.142 48.2248C53.1347 48.3428 53.1687 48.4596 53.2382 48.5553C53.3076 48.651 53.4082 48.7195 53.5226 48.7492C53.9565 48.8044 54.3772 48.9356 54.7656 49.1366C55.0289 49.2586 55.2544 49.5236 55.5602 49.4218C55.6343 49.3984 55.7023 49.3589 55.7594 49.3062C55.8165 49.2535 55.8613 49.1889 55.8906 49.117C55.92 49.045 55.9331 48.9675 55.929 48.8899C55.925 48.8123 55.904 48.7365 55.8673 48.668H55.8656Z" fill="white"/>
<path d="M56.436 49.1572C56.3181 49.1572 56.2039 49.1981 56.1128 49.2729C56.0217 49.3477 55.9594 49.4517 55.9364 49.5673C55.9134 49.6829 55.9312 49.8029 55.9868 49.9068C56.0424 50.0107 56.1322 50.0922 56.2411 50.1373C56.35 50.1824 56.4712 50.1883 56.5839 50.1541C56.6967 50.1199 56.7941 50.0476 56.8596 49.9496C56.9251 49.8516 56.9545 49.734 56.943 49.6167C56.9314 49.4994 56.8796 49.3897 56.7962 49.3064C56.7006 49.211 56.5711 49.1574 56.436 49.1572Z" fill="white"/>
<path d="M61.6514 47.7715C59.6331 47.8527 59.6331 50.7459 61.6514 50.8271C63.6697 50.9082 63.6478 47.8325 61.6514 47.7715Z" fill="#007EEF"/>
<path d="M64.2388 58.3861C64.1001 57.2286 63.8684 56.0841 63.546 54.9637L63.3016 54.0862C63.2625 53.9563 63.175 53.8464 63.0572 53.7791C62.9705 53.7331 62.8723 53.7131 62.7745 53.7216C62.6767 53.7301 62.5834 53.7667 62.5059 53.827C62.4284 53.8872 62.37 53.9686 62.3376 54.0613C62.3053 54.154 62.3004 54.2541 62.3236 54.3495C62.7106 55.7145 63.1388 57.4647 63.2406 58.4445C63.4275 60.4285 63.4819 62.4227 63.4034 64.4139L63.3424 65.3305C63.2978 65.4572 63.305 65.5965 63.3626 65.7179C63.546 66.2269 64.3406 66.0641 64.3406 65.5345C64.531 63.1526 64.4969 60.7581 64.2388 58.3826V58.3861Z" fill="#007EEF"/>
<path d="M46.474 68.7758C45.9238 68.4906 45.6592 69.1628 45.374 69.509C44.0321 71.4139 42.8336 73.416 41.7885 75.4986C41.7761 75.613 41.8028 75.7283 41.8643 75.8255C41.9258 75.9228 42.0185 75.9964 42.1272 76.0342C42.2359 76.072 42.3542 76.0719 42.4628 76.0338C42.5714 75.9958 42.6639 75.922 42.7252 75.8246C43.8256 73.8501 44.9256 71.852 46.2498 70.0184C46.3924 69.774 46.6776 69.5704 46.7184 69.2852C46.7324 69.1857 46.7167 69.0842 46.6732 68.9935C46.6297 68.9029 46.5604 68.8272 46.474 68.7758Z" fill="#007EEF"/>
<path d="M51.6281 76.9255C51.4719 76.8098 51.2904 76.7329 51.0985 76.7013L49.7538 76.3551C48.7466 76.0814 47.7172 75.8973 46.6776 75.8049C45.7746 75.7201 44.8646 75.7476 43.9683 75.8865C43.705 75.9067 43.3571 75.9273 43.2755 76.2125C43.2422 76.2886 43.2279 76.3717 43.2341 76.4545C43.2402 76.5373 43.2665 76.6174 43.3107 76.6877C43.3549 76.758 43.4156 76.8164 43.4875 76.8579C43.5595 76.8993 43.6405 76.9226 43.7235 76.9255C45.3371 76.6693 46.9857 76.7386 48.5722 77.1291C49.2448 77.2717 49.8964 77.4363 50.569 77.6183C50.8134 77.6592 51.0577 77.8219 51.3228 77.7811C51.4163 77.7696 51.5048 77.7324 51.5785 77.6736C51.6521 77.6148 51.7079 77.5366 51.7398 77.4479C51.7716 77.3592 51.7782 77.2634 51.7588 77.1712C51.7394 77.0789 51.6948 76.9939 51.6299 76.9255H51.6281Z" fill="#007EEF"/>
<path d="M78.4793 24.2197C78.3775 24.0363 78.1941 23.9959 78.0107 23.9126L76.9309 23.4642C76.0345 23.057 75.2197 22.4866 74.3233 22.079C74.0381 21.9772 73.7731 21.7328 73.4673 21.8157C73.3689 21.8412 73.2804 21.8955 73.2132 21.9716C73.1459 22.0478 73.1029 22.1423 73.0898 22.2431C73.0767 22.3439 73.094 22.4463 73.1396 22.5371C73.1851 22.628 73.2568 22.7031 73.3453 22.7529C74.179 23.1197 74.9749 23.5866 75.7695 24.0161C76.5641 24.4457 77.1143 24.6475 77.7878 24.9331C77.8865 24.9937 78.0029 25.0187 78.1177 25.0042C78.2325 24.9898 78.339 24.9367 78.4197 24.8537C78.5003 24.7707 78.5502 24.6627 78.5613 24.5475C78.5724 24.4322 78.5439 24.3166 78.4806 24.2197H78.4793Z" fill="#007EEF"/>
<path d="M80.2109 24.7891C79.5387 24.8097 79.5387 25.8079 80.2109 25.8079C80.8831 25.8079 80.8647 24.811 80.2109 24.7891Z" fill="#007EEF"/>
<path d="M53.2172 56.2489C53.1918 56.1506 53.1375 56.0621 53.0613 55.9948C52.9851 55.9275 52.8906 55.8846 52.7898 55.8714C52.6891 55.8583 52.5867 55.8757 52.4958 55.9212C52.405 55.9667 52.3298 56.0384 52.28 56.127C51.7413 57.2594 51.2851 58.4292 50.9151 59.6274C50.8666 59.7214 50.8396 59.8251 50.8361 59.9308C50.8326 60.0365 50.8527 60.1417 50.8949 60.2387C50.9694 60.3468 51.0802 60.4248 51.2071 60.4584C51.3341 60.4921 51.469 60.4792 51.5872 60.4221C51.6775 60.3557 51.7519 60.2701 51.8051 60.1714C51.8582 60.0728 51.8887 59.9636 51.8944 59.8517L52.0778 59.2813C52.2612 58.7719 52.4446 58.2624 52.6683 57.7737C52.8921 57.2849 52.9943 57.0199 53.1777 56.6329C53.2096 56.5742 53.2297 56.5098 53.2367 56.4434C53.2437 56.377 53.2375 56.3099 53.2186 56.2459L53.2172 56.2489Z" fill="#007EEF"/>
<path d="M50.9358 61.748C50.8007 61.748 50.6711 61.8017 50.5756 61.8973C50.4801 61.9928 50.4264 62.1224 50.4264 62.2575C50.4264 62.3926 50.4801 62.5221 50.5756 62.6177C50.6711 62.7132 50.8007 62.7669 50.9358 62.7669C51.608 62.7669 51.5873 61.7682 50.9358 61.748Z" fill="#007EEF"/>
<path d="M67.5801 117.121C67.3966 116.938 67.0908 116.938 66.8464 116.897C66.6021 116.856 65.8685 117.081 65.4205 117.285C64.1165 117.855 64.1371 116.551 62.3852 116.877C61.8959 116.999 61.4682 117.244 60.9811 117.366L60.7363 117.407C60.3699 117.407 60.5735 117.468 60.0847 117.183C59.596 116.898 58.5974 116.531 57.8436 116.795C57.3956 116.959 56.7028 117.386 56.6212 117.366C56.5326 117.412 56.4356 117.44 56.336 117.447H56.214C55.8266 117.366 55.888 117.325 55.3988 117.06C55.2253 116.966 55.0328 116.911 54.8354 116.9C54.6379 116.89 54.4406 116.924 54.258 116.999L53.4025 117.407C53.2861 117.477 53.2024 117.59 53.1698 117.722C53.1371 117.854 53.1583 117.994 53.2285 118.11C53.2987 118.226 53.4123 118.31 53.5442 118.343C53.6762 118.375 53.8157 118.354 53.932 118.284C54.645 117.917 54.6858 117.897 54.849 117.938H54.8894C55.1479 118.104 55.4207 118.248 55.7046 118.366C56.0352 118.502 56.4034 118.516 56.7436 118.406C57.2012 118.24 57.6441 118.035 58.0678 117.795H58.1494C58.225 117.756 58.3087 117.735 58.3938 117.734H58.5364C58.6825 117.737 58.8271 117.765 58.9642 117.815C59.2274 117.836 59.6973 118.284 60.2883 118.447C60.8793 118.61 61.6533 118.243 62.3066 118.019C62.4997 117.934 62.707 117.886 62.9178 117.876H63.0196L63.264 117.958H63.3048C63.5697 118.125 63.8486 118.268 64.1384 118.386C64.5571 118.505 64.9996 118.512 65.4218 118.406C66.0124 118.223 66.1348 118.06 66.5218 117.978H66.5626C66.7199 117.96 66.8793 117.974 67.0312 118.019C67.1021 118.052 67.1798 118.067 67.2578 118.063C67.3358 118.06 67.4119 118.038 67.4796 117.999C67.5461 117.957 67.6025 117.901 67.645 117.835C67.6872 117.769 67.7142 117.694 67.7239 117.616C67.7336 117.538 67.7259 117.458 67.7011 117.384C67.6766 117.309 67.6357 117.241 67.5814 117.184L67.5801 117.121Z" fill="white"/>
<path d="M36.1451 74.4196C35.0855 74.603 35.1061 75.5811 35.0245 75.9887C35.0134 76.059 34.9929 76.1275 34.9635 76.1923L34.9025 76.2941L34.7599 76.4367L34.6985 76.4775C34.5357 76.5999 34.1891 76.6609 33.7205 76.8851C33.2519 77.1093 32.743 77.8833 32.7022 78.6573C32.6868 78.7753 32.6595 78.8914 32.6206 79.0039C32.6004 79.0241 32.6004 79.0442 32.5797 79.0442L32.5188 79.085H32.1112C31.704 79.0649 31.2775 79.0241 30.8888 79.2276C29.809 79.6146 29.8906 80.5317 29.6054 81.4281C29.6054 81.4482 29.6054 81.4483 29.5852 81.4689C29.5607 81.5074 29.5401 81.5482 29.5238 81.5909C29.5239 81.5935 29.5235 81.5962 29.5225 81.5987C29.5215 81.6012 29.52 81.6035 29.5181 81.6053C29.5143 81.6092 29.5091 81.6114 29.5036 81.6115C29.3417 81.6221 29.1862 81.6786 29.0552 81.7743C28.9604 81.8505 28.8959 81.9581 28.8736 82.0777C28.8512 82.1973 28.8724 82.3209 28.9332 82.4263C29.1965 82.9155 30.074 82.5689 30.3373 82.2227C30.5181 81.9365 30.6426 81.6184 30.7041 81.2855C30.9484 80.2258 30.8467 80.3684 31.3964 80.1241C31.4982 80.0429 32.4762 80.2258 33.0058 79.9205C33.1726 79.8218 33.3168 79.6893 33.4291 79.5314C33.5414 79.3735 33.6193 79.1938 33.6578 79.0039C33.8618 77.9644 33.5968 78.0052 34.3506 77.6389C35.1044 77.2725 36.0007 76.8851 36.1025 75.642C36.1044 75.5723 36.1182 75.5035 36.1433 75.4385V75.3977H36.1635C36.3675 75.3367 36.5913 75.2959 36.6935 75.0905C36.733 75.0253 36.7572 74.9521 36.7646 74.8762C36.7719 74.8004 36.7622 74.7238 36.736 74.6523C36.7099 74.5807 36.668 74.5159 36.6135 74.4627C36.559 74.4094 36.4932 74.3691 36.4211 74.3446C36.3249 74.3118 36.2211 74.3086 36.1232 74.3354L36.1451 74.4196Z" fill="white"/>
<path d="M62.3443 112.619C62.1972 112.511 62.0163 112.461 61.8349 112.476L60.7753 112.394L59.1251 112.313C58.9215 112.313 58.6973 112.252 58.5139 112.333C58.4056 112.38 58.3166 112.462 58.2621 112.566C58.2076 112.671 58.1909 112.791 58.215 112.906C58.239 113.021 58.3023 113.125 58.394 113.199C58.4857 113.273 58.6002 113.312 58.7179 113.311L61.0605 113.433C61.4273 113.413 61.8142 113.556 62.181 113.454C62.2555 113.418 62.3205 113.366 62.371 113.301C62.4215 113.235 62.4561 113.159 62.4719 113.078C62.4878 112.997 62.4845 112.914 62.4623 112.834C62.4402 112.755 62.3997 112.681 62.3443 112.62V112.619Z" fill="white"/>
<path d="M63.281 112.374C62.6295 112.394 62.6295 113.393 63.281 113.393C63.9326 113.393 63.9536 112.394 63.281 112.374Z" fill="white"/>
<path d="M34.4949 81.5505C34.1924 81.8936 33.8582 82.2074 33.4967 82.4877C33.3335 82.6097 33.1707 82.7119 33.1093 82.8953C33.0925 82.9686 33.0916 83.0446 33.1064 83.1183C33.1213 83.1919 33.1517 83.2616 33.1955 83.3226C33.2394 83.3837 33.2957 83.4347 33.3608 83.4723C33.4259 83.5099 33.4982 83.5332 33.573 83.5407C33.6728 83.5509 33.7734 83.5323 33.863 83.4872C34.4185 83.1013 34.9131 82.6344 35.3303 82.102C35.554 81.6128 34.8617 81.1648 34.4966 81.5518L34.4949 81.5505Z" fill="white"/>
<path d="M36.1044 80.4912C35.4322 80.4912 35.4322 81.4894 36.1044 81.5096C36.7765 81.5298 36.7765 80.4912 36.1044 80.4912Z" fill="white"/>
<path d="M67.641 90.6159C67.5185 89.7195 67.1522 88.9047 66.8464 88.0491C66.5406 87.1935 66.5204 86.3989 66.6428 85.1765C66.7648 84.4227 67.1925 82.1411 67.3759 80.8765C67.5593 79.612 67.7226 78.8582 67.6203 77.8613C67.5181 76.8645 67.1522 75.5591 66.8464 74.4389C66.8155 74.3332 66.7511 74.2402 66.663 74.1741C66.5748 74.108 66.4676 74.0723 66.3574 74.0723C66.2472 74.0723 66.1399 74.108 66.0518 74.1741C65.9636 74.2402 65.8993 74.3332 65.8684 74.4389C65.8276 74.8259 66.0724 75.2726 66.1316 75.6614C66.3453 76.3883 66.5019 77.1307 66.6002 77.882C66.702 79.2062 66.4984 79.8174 66.315 81.0806C66.0706 82.7918 65.6222 84.4626 65.5406 86.1738C65.5259 87.1936 65.7419 88.2035 66.1724 89.128C66.5594 90.1872 66.702 90.6558 66.6818 91.6728C66.6617 92.6899 66.4984 93.5473 66.3966 94.6064C66.437 95.136 67.2522 95.1975 67.3948 94.6674C67.5782 93.3432 67.802 91.9782 67.6392 90.6132L67.641 90.6159Z" fill="white"/>
<path d="M65.237 43.1471C64.7075 42.2099 64.0963 41.2113 63.1999 40.5584C62.7107 40.3342 62.2627 41.0064 62.6497 41.392C63.4833 42.1459 63.7703 42.6145 64.3407 43.6333C64.5649 43.9593 64.6039 44.4669 65.0128 44.6113C65.0885 44.6293 65.1673 44.6304 65.2434 44.6146C65.3196 44.5987 65.3914 44.5663 65.4536 44.5196C65.5158 44.4729 65.567 44.4131 65.6035 44.3444C65.64 44.2757 65.661 44.1998 65.6648 44.1221C65.6038 43.7552 65.3796 43.47 65.237 43.1445V43.1471Z" fill="white"/>
<path d="M41.2585 39.9896C41.0141 39.847 40.7289 40.0097 40.4639 40.0712C40.1989 40.1326 39.6899 40.3344 39.3231 40.499C38.0967 40.9663 36.9224 41.5602 35.8192 42.2711C35.3914 42.5783 34.9022 42.7805 34.5152 43.1272C34.1282 43.4738 34.6986 44.1662 35.1672 43.881C36.186 43.2698 37.1416 42.577 38.2231 42.0676C39.3047 41.5581 39.3639 41.5581 40.1787 41.2528C40.5455 41.0895 40.9733 41.0286 41.3194 40.8451C41.4161 40.764 41.4806 40.6509 41.5014 40.5264C41.5221 40.4019 41.4977 40.2741 41.4326 40.1659C41.3888 40.0944 41.3287 40.0343 41.2571 39.9904L41.2585 39.9896Z" fill="white"/>
<path d="M43.7458 39.4795C43.628 39.4795 43.5138 39.5204 43.4227 39.5951C43.3316 39.6699 43.2692 39.774 43.2462 39.8896C43.2232 40.0052 43.2411 40.1251 43.2966 40.2291C43.3522 40.333 43.4421 40.4145 43.5509 40.4595C43.6598 40.5046 43.781 40.5106 43.8938 40.4764C44.0065 40.4421 44.1039 40.3699 44.1694 40.2719C44.2349 40.1739 44.2643 40.0562 44.2528 39.9389C44.2412 39.8217 44.1894 39.712 44.106 39.6287C44.0587 39.5814 44.0026 39.5438 43.9408 39.5182C43.879 39.4926 43.8127 39.4795 43.7458 39.4795Z" fill="white"/>
<path d="M84.4279 2.80746C84.1207 2.50032 83.7149 2.78727 83.4095 2.92987C81.2908 3.86796 79.3554 5.13292 77.3178 6.22984C76.7919 6.5067 76.2818 6.81271 75.79 7.14642C75.6066 7.28902 75.3623 7.39126 75.3013 7.63565C75.2403 7.88004 75.6676 8.43026 76.0344 8.20605C76.9922 7.49305 78.0922 7.00382 79.1106 6.41324C80.7938 5.38359 82.5353 4.45214 84.3261 3.62356C84.3927 3.58176 84.4492 3.52572 84.4915 3.45946C84.5556 3.35943 84.5843 3.24071 84.5727 3.12243C84.5612 3.00415 84.5101 2.8932 84.4279 2.80746Z" fill="#4ADEFF"/>
<path d="M91.1508 9.83738C90.8384 9.29431 90.5661 8.72914 90.3361 8.14637C89.7859 7.00558 89.1137 5.92577 88.5837 4.76436C88.0536 3.60294 87.7891 2.62537 86.9541 1.85138C86.5873 1.42358 86.2205 1.50476 85.8133 1.81058C85.4062 2.1164 85.2833 2.11771 84.9981 2.23837C84.9095 2.26504 84.8283 2.31211 84.7611 2.37581C84.6939 2.43951 84.6425 2.51806 84.6111 2.60518C84.5889 2.70304 84.595 2.80519 84.6286 2.89973C84.6622 2.99428 84.722 3.07732 84.801 3.13921C84.88 3.20109 84.9749 3.23926 85.0748 3.24928C85.1746 3.25929 85.2752 3.24073 85.3649 3.19576L86.3223 2.68635C86.4924 2.8519 86.6429 3.03652 86.7707 3.23657C87.1375 3.90876 87.4021 4.64062 87.7281 5.33519C88.1967 6.35357 88.7877 7.30964 89.2765 8.30959C89.7652 9.30954 90.1101 10.2244 90.7244 11.08C90.7875 11.1677 90.876 11.234 90.9779 11.27C91.0799 11.3059 91.1903 11.3099 91.2946 11.2812C91.3988 11.2525 91.4917 11.1927 91.561 11.1096C91.6302 11.0266 91.6723 10.9244 91.6817 10.8167C91.6409 10.4499 91.2947 10.1647 91.1521 9.8387L91.1508 9.83738Z" fill="#4ADEFF"/>
<path d="M95.4695 18.353C95.1624 17.64 94.7772 16.949 94.4104 16.2548C94.0436 15.5607 93.5956 14.6656 93.2082 13.8302L92.74 12.8114C92.6584 12.6482 92.6176 12.4446 92.4544 12.3428C92.2912 12.241 91.4154 12.5481 91.7019 12.9952C92.4355 14.5638 93.1691 16.1105 93.9835 17.5992L94.5337 18.7198C94.5598 18.8065 94.6069 18.8854 94.671 18.9493C94.735 19.0131 94.8136 19.0602 94.9 19.0866C94.9954 19.1098 95.0955 19.105 95.1882 19.0726C95.2809 19.0403 95.3622 18.9818 95.4225 18.9043C95.4828 18.8268 95.5193 18.7336 95.5278 18.6358C95.5363 18.5379 95.5164 18.4398 95.4704 18.353H95.4695Z" fill="#4ADEFF"/>
<path d="M90.1119 21.4299C89.0523 21.9797 87.9726 22.4891 86.8928 23.0187C86.3838 23.282 85.8336 23.5281 85.3242 23.8339C85.2592 23.6196 85.1551 23.4193 85.0171 23.2429C84.0799 22.0205 83.5095 20.5739 82.8369 19.2089C82.1643 17.8439 81.2683 16.3161 80.5755 14.8287C80.4329 14.5843 80.3518 14.2175 80.0258 14.1363C79.9276 14.1094 79.8237 14.1125 79.7274 14.1452C79.631 14.178 79.5467 14.2389 79.4853 14.32C79.4239 14.4012 79.3882 14.4988 79.3829 14.6005C79.3776 14.7021 79.4028 14.803 79.4554 14.8901C80.25 16.5197 81.1257 18.1089 81.9611 19.7165C82.4091 20.6336 82.7948 21.5708 83.3055 22.4672C83.8162 23.3636 84.0391 23.5873 84.4059 24.1784C84.4273 24.2294 84.4607 24.2745 84.5033 24.31C84.5458 24.3454 84.5962 24.3701 84.6503 24.3819C84.5077 24.7896 84.9763 25.2595 85.3835 24.9931C86.6265 24.2192 87.9506 23.6281 89.2546 22.9968L90.3748 22.4465C90.4972 22.3649 90.6819 22.3246 90.7824 22.1833C90.8828 22.042 90.5788 21.1438 90.1102 21.4295L90.1119 21.4299Z" fill="#4ADEFF"/>
<path d="M91.7019 20.9199C91.5668 20.9199 91.4372 20.9736 91.3417 21.0691C91.2462 21.1647 91.1925 21.2942 91.1925 21.4293C91.1925 21.5644 91.2462 21.694 91.3417 21.7895C91.4372 21.8851 91.5668 21.9387 91.7019 21.9387C92.3732 21.9374 92.3732 20.9401 91.7019 20.9199Z" fill="#4ADEFF"/>
<path d="M87.3004 8.00393C87.0986 7.37642 86.8107 6.77999 86.4448 6.23175C86.1815 5.88512 85.8946 5.49813 85.4466 5.37571C85.2725 5.35126 85.095 5.37969 84.9372 5.45732C84.326 5.72058 83.7556 6.08871 83.1646 6.39453C82.5736 6.70035 81.7606 7.16852 81.0665 7.55595L79.7015 8.26894C79.4979 8.37074 79.2737 8.47253 79.2127 8.71692C79.1517 8.96132 79.1921 8.79854 79.1921 8.83934C79.12 8.93876 79.0846 9.06014 79.092 9.18275C79.0995 9.30536 79.1493 9.42157 79.2329 9.51153C79.3957 9.81867 79.5791 10.0819 79.7423 10.3671C79.9055 10.6523 80.4145 11.9155 81.2293 11.4877C82.6772 10.7339 84.2036 10.1227 85.6502 9.32813C86.0546 9.13806 86.449 8.92732 86.8318 8.69674C87.095 8.55414 87.3613 8.30975 87.3004 8.00393Z" fill="#162B43"/>
<path d="M87.4228 10.9579C86.5453 11.3449 85.7116 11.8354 84.878 12.3027C84.0444 12.77 83.187 13.1991 82.3723 13.6879C82.2688 13.7614 82.1966 13.871 82.1697 13.9951C82.1427 14.1191 82.1631 14.2488 82.2268 14.3586C82.2905 14.4684 82.3929 14.5505 82.514 14.5887C82.635 14.627 82.766 14.6187 82.8812 14.5654C84.1242 13.8318 85.4076 13.2004 86.6502 12.4668L87.6874 11.9341C87.83 11.8731 87.9945 11.8323 88.0748 11.6897C88.1551 11.5471 87.8914 10.6709 87.4228 10.9561V10.9579Z" fill="#162B43"/>
<path d="M84.5502 4.35675C84.4791 4.28226 84.387 4.23109 84.2862 4.21001C84.1853 4.18892 84.0805 4.1989 83.9854 4.23863C83.8904 4.27836 83.8096 4.34597 83.7538 4.43254C83.698 4.51912 83.6697 4.62059 83.6727 4.72356C83.5099 8.28898 82.9189 11.8338 82.5728 15.3786C82.5728 16.0512 83.5709 16.0512 83.5911 15.3786C83.9377 12.0782 84.3857 8.79707 84.6709 5.49798C84.6709 5.15135 84.8135 4.64195 84.5489 4.35719L84.5502 4.35675Z" fill="white"/>
<path d="M87.5855 5.15139C87.5145 5.07666 87.4224 5.02528 87.3215 5.00406C87.2206 4.98284 87.1156 4.99277 87.0204 5.03254C86.9253 5.07231 86.8445 5.14004 86.7887 5.22677C86.7329 5.3135 86.7048 5.41512 86.708 5.5182C86.2394 9.81811 85.791 13.5656 84.8946 17.905C84.5485 18.8624 85.8116 19.1073 85.8928 18.1086C86.6941 14.0871 87.2924 10.0277 87.6856 5.94599C87.7062 5.68273 87.808 5.35541 87.5838 5.15139H87.5855Z" fill="white"/>
<path d="M88.9711 9.12544C88.6245 11.8146 88.1765 14.4837 87.6061 17.111C87.5792 17.2091 87.5823 17.3131 87.6151 17.4094C87.6478 17.5058 87.7087 17.5901 87.7899 17.6515C87.871 17.7129 87.9687 17.7486 88.0703 17.7539C88.1719 17.7592 88.2728 17.734 88.3599 17.6814C88.6859 17.4778 88.6451 17.0298 88.7469 16.7038C89.2357 14.2792 89.6433 11.855 89.9487 9.4102C90.1119 8.75819 89.1545 8.49318 88.9711 9.125V9.12544Z" fill="white"/>
<path d="M87.4632 20.166C87.3454 20.166 87.2312 20.2069 87.1401 20.2817C87.049 20.3564 86.9866 20.4605 86.9636 20.5761C86.9407 20.6917 86.9585 20.8117 87.014 20.9156C87.0696 21.0195 87.1595 21.101 87.2684 21.1461C87.3772 21.1912 87.4984 21.1971 87.6112 21.1629C87.7239 21.1287 87.8214 21.0564 87.8868 20.9584C87.9523 20.8604 87.9818 20.7427 87.9702 20.6255C87.9586 20.5082 87.9068 20.3985 87.8234 20.3152C87.7279 20.2197 87.5983 20.1661 87.4632 20.166Z" fill="white"/>
<path d="M73.4677 3.62327C73.4422 3.52486 73.388 3.43631 73.3119 3.36899C73.2357 3.30167 73.1412 3.25867 73.0404 3.2455C72.9396 3.23234 72.8372 3.24962 72.7464 3.29512C72.6555 3.34063 72.5803 3.41228 72.5305 3.50085C71.281 5.17884 70.2729 7.02366 69.5355 8.98149C69.3113 9.55189 69.0875 10.1223 68.9041 10.7129C68.7207 11.3034 68.6597 11.4259 68.9853 11.6501C69.0799 11.7248 69.1988 11.762 69.3191 11.7544C69.4394 11.7469 69.5527 11.6952 69.6373 11.6093C69.8207 11.4259 69.8207 11.1407 69.9225 10.8963C70.1059 10.3259 70.3301 9.75548 70.5337 9.18508C71.0492 7.83329 71.7113 6.54205 72.5081 5.33446L73.2435 4.25509C73.386 4.07125 73.5286 3.86766 73.4677 3.62327Z" fill="#162B43"/>
<path d="M68.5983 3.39923C67.3558 6.17004 66.1742 8.98166 65.1352 11.8543C64.7886 12.7915 64.4424 13.7489 64.1164 14.7063C64.0348 15.0529 63.8093 15.3789 63.8312 15.7251C63.8437 15.8066 63.8757 15.8838 63.9246 15.9502C63.9735 16.0166 64.0377 16.0702 64.1119 16.1062C64.186 16.1423 64.2678 16.1598 64.3502 16.1573C64.4326 16.1548 64.5132 16.1324 64.585 16.0919C64.8482 15.9493 64.8702 15.6435 64.972 15.3789C65.8056 12.8525 66.7446 10.3467 67.7634 7.86105C68.3337 6.47586 68.9041 5.3162 69.5561 3.72523C69.5822 3.60323 69.5626 3.4759 69.501 3.36739C69.4394 3.25888 69.3402 3.17674 69.2221 3.13654C69.104 3.09634 68.9753 3.10089 68.8603 3.1493C68.7453 3.19772 68.6521 3.28665 68.5983 3.39923Z" fill="#162B43"/>
<path d="M28.9942 87.8451C28.7906 87.8249 28.648 87.9675 28.4848 88.0693L27.6292 88.5989C26.4069 89.3325 25.7145 89.6585 24.3697 90.0029C24.0437 90.1047 23.6567 90.0639 23.3715 90.2473C23.0863 90.4307 23.3106 91.2863 23.8195 91.1437C25.8571 90.8366 27.7517 89.8603 29.3812 88.6585C29.4456 88.5867 29.4873 88.4975 29.5011 88.4021C29.5149 88.3067 29.5002 88.2093 29.4589 88.1222C29.4175 88.0351 29.3514 87.9622 29.2687 87.9125C29.186 87.8629 29.0905 87.8388 28.9942 87.8433V87.8451Z" fill="#162B43"/>
<path d="M32.4579 88.3951C32.0911 88.5579 31.8467 88.9045 31.5207 89.1283C30.8754 89.6666 30.2016 90.1698 29.5024 90.6359L28.6468 91.1453C28.4707 91.203 28.3104 91.3006 28.1782 91.4305C28.1074 91.5236 28.0708 91.6383 28.0746 91.7552C28.0784 91.8721 28.1223 91.9841 28.1989 92.0725C28.2755 92.1609 28.3802 92.2202 28.4954 92.2405C28.6107 92.2607 28.7293 92.2408 28.8315 92.1839C29.7926 91.6868 30.7004 91.093 31.5409 90.4117C31.9485 90.1045 32.3354 89.7799 32.7022 89.4539C33.069 89.1278 32.9874 89.2503 33.0484 89.087C33.0852 89.0001 33.097 88.9046 33.0826 88.8112C33.0682 88.7179 33.0281 88.6304 32.9669 88.5586C32.9056 88.4867 32.8255 88.4333 32.7356 88.4044C32.6457 88.3754 32.5496 88.3721 32.4579 88.3947V88.3951Z" fill="#162B43"/>
<path d="M63.3017 105.773C63.0384 103.879 62.8124 101.353 62.6089 99.0503C62.5682 98.3577 62.5071 97.665 62.4255 96.9723C62.4053 96.7481 62.4255 96.4831 62.2421 96.3203C62.1698 96.2534 62.0797 96.2088 61.9826 96.192C61.8855 96.1752 61.7857 96.187 61.6951 96.2258C61.6046 96.2646 61.5272 96.3288 61.4724 96.4107C61.4177 96.4926 61.3878 96.5886 61.3865 96.6871C61.6107 98.9279 61.7735 101.189 61.9977 103.431C62.0793 104.205 62.1609 104.958 62.2829 105.732C62.3645 106.079 62.3237 106.507 62.5071 106.812C62.5608 106.876 62.629 106.927 62.7061 106.96C62.7832 106.992 62.8669 107.006 62.9504 107C63.034 106.994 63.1149 106.969 63.1865 106.925C63.2582 106.882 63.3185 106.822 63.3626 106.751C63.5259 106.444 63.3218 106.099 63.3017 105.773Z" fill="white"/>
<path d="M48.3685 90.6568C48.2233 90.5853 48.0585 90.5638 47.8999 90.5958H47.0224C44.761 90.6568 43.0086 89.781 41.3383 88.212C39.6679 86.643 38.6083 85.4008 37.2841 83.956C37.1214 83.7932 36.9581 83.569 36.6936 83.5892C36.5967 83.594 36.5032 83.6265 36.4242 83.6827C36.3451 83.7389 36.2837 83.8165 36.2473 83.9064C36.2109 83.9963 36.2009 84.0947 36.2186 84.1901C36.2362 84.2855 36.2808 84.3738 36.3469 84.4448C37.751 85.9322 39.0361 87.56 40.6029 88.9066C41.2609 89.5246 41.9774 90.0773 42.7423 90.5568C43.5423 91 44.4093 91.3096 45.309 91.4734C46.0019 91.5918 46.705 91.6397 47.4076 91.6164C47.7538 91.5958 48.1816 91.7182 48.4668 91.4532C48.5209 91.3982 48.5619 91.3317 48.5865 91.2585C48.6111 91.1854 48.6188 91.1076 48.6089 91.0311C48.5991 90.9546 48.5721 90.8813 48.5298 90.8168C48.4875 90.7522 48.4312 90.6981 48.365 90.6586L48.3685 90.6568Z" fill="white"/>
<path d="M56.314 108.055C56.1261 107.982 55.9254 107.947 55.7239 107.953L54.3997 107.912C53.9367 107.909 53.4739 107.936 53.0145 107.994C52.7903 108.055 52.5253 108.014 52.3419 108.157C52.2466 108.229 52.1794 108.331 52.152 108.447C52.1247 108.563 52.1389 108.685 52.1923 108.792C52.2456 108.899 52.3347 108.983 52.444 109.031C52.5533 109.079 52.6758 109.087 52.7903 109.053C53.6057 108.929 54.4324 108.894 55.2553 108.951C55.5813 108.951 55.9275 109.053 56.2535 108.951C56.5795 108.85 56.6611 108.238 56.3149 108.055H56.314Z" fill="#162B43"/>
<path d="M58.1471 108.524C57.4749 108.545 57.4749 109.543 58.1471 109.543C58.8193 109.543 58.8197 108.545 58.1471 108.524Z" fill="#162B43"/>
<path d="M41.2583 80.9999C41.2329 80.9015 41.1786 80.813 41.1024 80.7458C41.0262 80.6785 40.9317 80.6355 40.8309 80.6224C40.7302 80.6093 40.6278 80.6266 40.5369 80.6722C40.4461 80.7177 40.3709 80.7894 40.3211 80.8779C39.9009 81.9363 39.2622 82.8942 38.4468 83.6891C37.9786 84.1985 37.4894 84.7079 36.9989 85.1967C36.5083 85.6855 36.3267 85.7061 36.5303 86.1138C36.5759 86.2261 36.6617 86.3174 36.7709 86.3701C36.8801 86.4228 37.0049 86.4331 37.1213 86.399C37.5285 86.2155 37.7728 85.8079 38.1195 85.5214C38.8324 84.7676 39.5454 84.0344 40.1768 83.2196C40.5509 82.7033 40.8718 82.1504 41.1346 81.5694C41.2445 81.4013 41.2886 81.1985 41.2583 80.9999Z" fill="#162B43"/>
<path d="M50.3648 102.514C47.7573 102.758 45.1498 102.962 42.5216 103.003C39.3029 103.043 36.1043 102.942 32.9058 103.003C32.8267 103.003 32.7487 103.021 32.6779 103.056C32.6072 103.092 32.5457 103.143 32.4982 103.206C32.4508 103.27 32.4187 103.343 32.4046 103.421C32.3905 103.499 32.3948 103.579 32.417 103.655C32.5188 104.062 32.9874 104.021 33.3336 104.021C38.5285 103.96 43.744 104.205 48.9389 103.655L50.3648 103.532C50.433 103.534 50.5008 103.523 50.5643 103.498C50.6278 103.473 50.6858 103.436 50.7347 103.389C50.7836 103.341 50.8224 103.284 50.849 103.221C50.8755 103.159 50.8892 103.091 50.8892 103.023C50.8892 102.955 50.8755 102.887 50.849 102.825C50.8224 102.762 50.7836 102.705 50.7347 102.658C50.6858 102.61 50.6278 102.573 50.5643 102.548C50.5008 102.524 50.433 102.512 50.3648 102.514Z" fill="#162B43"/>
<path d="M50.7931 104.693C43.0512 104.796 35.3098 105.203 27.5683 105.427C27.3441 105.427 27.0997 105.407 26.937 105.59C26.8881 105.636 26.8491 105.691 26.8224 105.752C26.7823 105.845 26.7718 105.947 26.7923 106.046C26.8128 106.144 26.8633 106.234 26.937 106.303C27.1813 106.548 27.5683 106.425 27.8737 106.425C32.9874 106.262 38.0805 106.099 43.1736 105.896C45.4552 105.814 47.7367 105.753 50.0183 105.712C50.3851 105.671 50.833 105.835 51.1389 105.549C51.205 105.478 51.2495 105.39 51.2671 105.295C51.2847 105.199 51.2748 105.101 51.2385 105.011C51.2021 104.921 51.1408 104.844 51.0619 104.787C50.9829 104.731 50.8895 104.698 50.7927 104.693H50.7931Z" fill="#162B43"/>
<path d="M31.1332 102.738C28.261 103.024 25.3271 103.045 22.4343 103.288C21.9456 103.492 22.1083 104.286 22.6379 104.266C25.0827 104.144 27.5081 104.042 29.9516 103.858L31.1332 103.757C31.2688 103.756 31.3995 103.705 31.5 103.614C31.5744 103.543 31.6256 103.451 31.6467 103.35C31.6678 103.249 31.6578 103.144 31.6181 103.049C31.5783 102.954 31.5107 102.873 31.4242 102.818C31.3376 102.762 31.2361 102.734 31.1332 102.737V102.738Z" fill="#162B43"/>
<path d="M20.4175 102.982C19.7453 102.982 19.7655 103.981 20.4175 104.001C21.0695 104.022 21.0897 102.982 20.4175 102.982Z" fill="#162B43"/>
<path d="M96.4275 99.2336C96.3458 98.7856 96.2441 98.356 96.1423 97.9094C95.8694 96.5072 95.4389 95.1404 94.8589 93.835C94.5267 93.0349 94.1527 92.2528 93.7383 91.492C93.2911 90.7838 92.8013 90.1035 92.2715 89.4548C91.4379 88.4158 90.5806 87.397 89.4802 86.6638C88.3798 85.9306 86.3838 85.5024 85.365 84.932C85.0579 83.9746 84.7539 82.9966 84.2651 82.1204C83.5315 80.8168 82.2073 80.0424 81.0459 79.1666C79.8845 78.2908 78.3366 77.8827 76.829 77.6993C75.7694 77.5567 74.7102 77.3531 73.6305 77.4957C72.8693 77.5952 72.1191 77.7657 71.3897 78.0052L70.6969 78.2684C70.5135 78.3904 70.2485 78.411 70.1265 78.6146C70.0046 78.8182 70.3099 79.6334 70.7785 79.3478C71.8731 78.8354 73.0556 78.5375 74.2623 78.4702C74.952 78.4725 75.6403 78.5338 76.3196 78.6537C77.0662 78.7428 77.8074 78.872 78.5402 79.0406C79.5998 79.2649 81.2499 80.5684 82.0037 81.1186C82.4027 81.4298 82.7649 81.7852 83.0835 82.1783C83.3442 82.5393 83.5629 82.9288 83.7355 83.3392L83.7759 83.4617C83.7965 83.4818 83.7965 83.4818 83.7965 83.5025C84.7337 85.9675 84.0409 85.6616 86.7502 86.5379C88.7685 87.1289 89.9286 88.1065 91.3953 90.0015C92.3803 91.1339 93.1719 92.421 93.7383 93.8109C94.4105 95.1759 95.1033 97.5404 95.4293 99.4749C95.4903 99.7382 95.4701 100.045 95.7364 100.188C95.8049 100.225 95.8807 100.246 95.9583 100.25C96.0359 100.254 96.1134 100.241 96.1854 100.211C96.2573 100.182 96.3219 100.137 96.3746 100.08C96.4273 100.023 96.4668 99.9548 96.4902 99.8808C96.5011 99.6616 96.4806 99.4421 96.4292 99.2288L96.4275 99.2336Z" fill="#162B43"/>
<path d="M87.6264 90.7178C87.6123 90.5113 87.5782 90.3066 87.5246 90.1066C87.4754 89.9971 87.3891 89.9086 87.2811 89.8564C87.173 89.8042 87.0499 89.7918 86.9336 89.8214C86.3023 90.0254 86.6892 90.7792 86.6484 91.2693C86.6691 92.1657 86.6484 92.5119 86.4247 93.2047C86.2349 93.6181 85.9387 93.9736 85.5664 94.235C85.1942 94.4963 84.7592 94.6541 84.3059 94.6922C84.5297 94.6513 84.3467 94.6715 84.2243 94.6922H84.0207C84.2055 93.8393 84.3279 92.9741 84.3871 92.1034C84.4077 91.3904 84.4077 90.6555 84.4077 89.9438C84.3871 89.7196 84.4485 89.4752 84.3669 89.2716C84.3295 89.1787 84.2646 89.0994 84.1808 89.0445C84.097 88.9896 83.9984 88.9617 83.8983 88.9645C83.1647 89.0053 83.4503 89.9223 83.3889 90.4313C83.4025 91.1793 83.3754 91.9275 83.3077 92.6725C83.1445 94.7505 82.6557 95.9321 81.25 97.2155C80.5572 97.7047 80.3536 97.7249 79.5792 98.0307C78.8048 98.3366 78.459 98.3769 77.9698 98.3769C77.7247 98.3835 77.4795 98.3699 77.2366 98.3361H77.094C77.1349 96.9101 77.1752 95.4635 77.1958 94.0362C77.1752 91.6932 76.9923 89.3708 76.9514 87.0278C76.9106 85.2556 76.9308 83.5032 76.9716 81.731C76.9716 81.079 75.9735 81.0588 75.9528 81.731C75.8717 84.2758 75.9326 86.8242 76.0143 89.3708H75.9945L75.7313 89.1874C74.8349 88.4134 74.7125 88.1076 74.4883 86.8852C74.2641 85.6628 74.225 84.1144 74.2439 82.5458C74.2439 82.2198 74.3663 81.853 74.1219 81.6086C74.0507 81.5348 73.959 81.4842 73.8586 81.4633C73.7581 81.4425 73.6537 81.4526 73.5591 81.4922C73.4644 81.5319 73.3839 81.5992 73.3282 81.6853C73.2724 81.7716 73.244 81.8727 73.2466 81.9754C73.2058 83.5646 73.1856 85.174 73.43 86.7426C73.4989 87.2898 73.6217 87.8289 73.7968 88.352C74.0093 88.8341 74.3137 89.2702 74.6932 89.6358C75.0184 89.9714 75.4152 90.2291 75.8541 90.3896L76.0581 90.4506C76.0985 91.469 76.1393 92.4689 76.1599 93.4658C76.1801 96.1142 76.0581 98.7626 76.0375 101.411C76.0387 101.527 76.0794 101.639 76.1529 101.729C76.2263 101.818 76.3282 101.88 76.4416 101.904C76.5168 101.92 76.5947 101.919 76.6693 101.9C77.0563 101.798 77.0765 101.391 77.0563 101.067C77.0361 100.742 77.0765 99.9258 77.0765 99.3554C78.1085 99.4901 79.1577 99.3422 80.1123 98.9276C80.7852 98.7285 81.4143 98.4035 81.966 97.9698C82.669 97.339 83.2433 96.578 83.657 95.729H83.7588C84.2744 95.7226 84.7873 95.6541 85.2865 95.5249C85.7549 95.3442 86.1838 95.0745 86.5497 94.7308C87.6703 93.7528 87.7721 92.1026 87.6295 90.7169L87.6264 90.7178Z" fill="#162B43"/>
<path d="M100.4 103.39C97.7315 103.227 95.0625 103.268 92.3935 103.268C89.7246 103.268 87.5045 103.268 85.0597 103.431C84.2041 103.533 84.5297 104.613 85.1615 104.45C86.1799 104.368 87.2193 104.348 88.2376 104.327C92.251 104.307 96.2643 104.185 100.26 104.409C100.504 104.409 100.789 104.47 100.973 104.266C101.156 104.063 100.952 103.329 100.402 103.389L100.4 103.39Z" fill="#162B43"/>
<path d="M92.2308 105.121C91.8841 104.979 91.4563 105.101 91.09 105.06C88.4215 105.08 85.7525 105.141 83.0633 105.223C82.7781 105.264 82.4113 105.162 82.167 105.386C82.1024 105.461 82.0601 105.552 82.0445 105.65C82.029 105.747 82.0411 105.847 82.0792 105.938C82.1173 106.029 82.1802 106.108 82.2606 106.165C82.3411 106.222 82.436 106.256 82.5346 106.262L88.6259 106.099H90.8245C91.2523 106.079 91.7411 106.16 92.1689 106.058C92.2526 106.018 92.3241 105.955 92.3761 105.878C92.428 105.8 92.4587 105.711 92.4649 105.618C92.4711 105.525 92.4527 105.432 92.4115 105.348C92.3704 105.264 92.3078 105.193 92.2303 105.141L92.2308 105.121Z" fill="#162B43"/>
<path d="M99.1573 35.9149C98.7439 35.7141 98.2926 35.603 97.8332 35.5889C97.63 35.5683 97.4252 35.5683 97.222 35.5889C97.3238 34.8145 97.5072 34.0203 97.3439 33.2459C97.1807 32.4715 96.7736 31.8607 96.0606 32.2275C95.6938 32.4908 95.5718 32.9405 95.4086 33.3275C95.1817 33.9956 95.0849 34.701 95.1234 35.4055V35.4463H94.5938C93.9212 35.4871 93.0656 35.6091 92.8011 36.2611C92.5365 36.9131 93.127 37.0948 93.575 37.2185C94.0288 37.3592 94.5062 37.4077 94.979 37.3611H95.0198C94.979 37.9929 94.979 39.0525 95.305 39.6023C95.631 40.1521 95.9772 40.3158 96.4256 40.0709C96.874 39.8261 96.9144 39.5005 97.0162 39.1543C97.1488 38.6267 97.2307 38.0877 97.2606 37.5445C97.8688 37.6105 98.4822 37.4823 99.013 37.1781C99.461 36.9149 99.6852 36.2001 99.1556 35.8943L99.1573 35.9149ZM98.6273 36.5463H98.6071C98.2773 36.7493 97.8941 36.8487 97.5072 36.8315C97.0789 36.8315 96.5902 36.6279 96.4884 37.1781C96.3866 37.7283 96.4476 38.2781 96.244 38.9911C96.2087 39.1275 96.1537 39.258 96.0808 39.3785C95.857 39.0714 95.7548 38.3189 95.8175 37.5041C95.8277 37.3468 95.8481 37.1902 95.8785 37.0355C95.9057 36.9318 95.8911 36.8215 95.8377 36.7284C95.8034 36.6776 95.7585 36.635 95.7061 36.6033C95.6534 36.5718 95.5946 36.5519 95.5336 36.545H95.4314L95.2884 36.5858C95.248 36.5858 95.1458 36.6266 95.0848 36.6064C94.7186 36.6581 94.3462 36.6443 93.9848 36.5656L93.6996 36.484H93.618C93.618 36.4786 93.619 36.4732 93.6211 36.4682C93.6231 36.4633 93.6261 36.4588 93.6299 36.455C93.6336 36.4513 93.6381 36.4483 93.643 36.4463C93.648 36.4442 93.6534 36.4431 93.6588 36.4432L93.7606 36.3822C94.0239 36.2598 94.6978 36.1782 95.3906 36.219C95.5401 36.2327 95.6909 36.2259 95.8386 36.1988L95.9202 36.0764L95.9812 35.8728V35.6095L95.9404 35.5687C95.8504 34.6992 96.0131 33.8222 96.409 33.0427V33.0019C96.409 33.0221 96.409 33.0221 96.4296 33.0427C96.4372 33.0508 96.443 33.0604 96.4465 33.071C96.45 33.0815 96.4511 33.0927 96.4498 33.1037C96.674 33.6539 96.5924 34.4486 96.4498 35.2432C96.4498 35.5893 96.1865 36.1207 96.6332 36.3023C97.0798 36.484 97.4071 36.2822 97.7946 36.3432C98.0818 36.3485 98.3652 36.4109 98.6282 36.5266C98.627 36.5423 98.6198 36.5569 98.608 36.5674L98.6273 36.5463Z" fill="#4ADEFF"/>
<path d="M25.4495 67.6963C25.028 67.4975 24.5705 67.3866 24.1047 67.3703C23.9084 67.3497 23.7105 67.3497 23.5142 67.3703C23.5958 66.5959 23.7994 65.8013 23.616 65.0273C23.4326 64.2533 23.0456 63.6421 22.3528 64.0085C21.986 64.2718 21.864 64.7215 21.7008 65.1089C21.4683 65.776 21.3641 66.4811 21.3937 67.1869V67.2479H20.8658C20.1932 67.2887 19.3583 67.4107 19.0731 68.0627C18.7879 68.7147 19.3991 68.8964 19.847 69.0205C20.3013 69.1589 20.7782 69.2073 21.2511 69.1631H21.312C21.2511 69.7945 21.2511 70.8542 21.5753 71.4039C21.8995 71.9537 22.2475 72.1169 22.6959 71.8725C23.1443 71.6281 23.1847 71.3021 23.2865 70.9761C23.4291 70.4439 23.5111 69.8972 23.5308 69.3465C24.1364 69.4107 24.7473 69.2899 25.2828 68.9999C25.7514 68.7367 25.9756 68.0017 25.446 67.6963H25.4495ZM24.8993 68.3479H24.8792C24.7774 68.4703 24.2272 68.655 23.7787 68.6331C23.3303 68.6112 22.8622 68.4501 22.7806 68.9797C22.699 69.5093 22.7196 70.0797 22.5173 70.7927C22.4951 70.9331 22.4391 71.0659 22.3541 71.1797C22.1299 70.8726 22.0281 70.1205 22.1097 69.3057C22.1097 69.2443 22.1505 68.9183 22.1505 68.8371C22.1693 68.7868 22.1755 68.7325 22.1685 68.6792C22.1615 68.6258 22.1413 68.575 22.1097 68.5313C22.0762 68.4813 22.0311 68.4402 21.9781 68.4115C21.925 68.3829 21.8656 68.3678 21.8052 68.3677H21.7008L21.5788 68.4085L21.3748 68.4493C20.825 68.4695 20.6008 68.4896 20.2546 68.3878L19.9694 68.3062H19.8878C19.908 68.286 19.9286 68.286 19.9286 68.2659L20.0506 68.2044C20.2954 68.0825 20.9676 68.021 21.6806 68.0417C21.8234 68.0559 21.9676 68.0489 22.1084 68.021C22.1425 67.9854 22.1701 67.9441 22.19 67.8991C22.229 67.8382 22.2501 67.7677 22.251 67.6955V67.4322C22.251 67.4116 22.2308 67.4116 22.2102 67.3914C22.1406 66.5227 22.3022 65.651 22.6788 64.865C22.6906 64.8547 22.698 64.8402 22.6994 64.8246V64.865C22.7196 64.8856 22.7196 64.9058 22.7398 64.9466C22.9438 65.4762 22.8622 66.2708 22.7398 67.0654C22.7196 67.4116 22.4546 67.9618 22.903 68.125C23.3514 68.2882 23.677 68.1044 24.0639 68.1654C24.3584 68.1711 24.649 68.2333 24.92 68.3488L24.8792 68.4102L24.8993 68.3479Z" fill="#162B43"/>
<path d="M25.4495 67.6963C25.028 67.4975 24.5705 67.3866 24.1047 67.3703C23.9084 67.3497 23.7105 67.3497 23.5142 67.3703C23.5958 66.5959 23.7994 65.8013 23.616 65.0273C23.4326 64.2533 23.0456 63.6421 22.3528 64.0085C21.986 64.2718 21.864 64.7215 21.7008 65.1089C21.4683 65.776 21.3641 66.4811 21.3937 67.1869V67.2479H20.8658C20.1932 67.2887 19.3583 67.4107 19.0731 68.0627C18.7879 68.7147 19.3991 68.8964 19.847 69.0205C20.3013 69.1589 20.7782 69.2073 21.2511 69.1631H21.312C21.2511 69.7945 21.2511 70.8542 21.5753 71.4039C21.8995 71.9537 22.2475 72.1169 22.6959 71.8725C23.1443 71.6281 23.1847 71.3021 23.2865 70.9761C23.4291 70.4439 23.5111 69.8972 23.5308 69.3465C24.1364 69.4107 24.7473 69.2899 25.2828 68.9999C25.7514 68.7367 25.9756 68.0017 25.446 67.6963H25.4495ZM24.8993 68.3479H24.8792C24.7774 68.4703 24.2272 68.655 23.7787 68.6331C23.3303 68.6112 22.8622 68.4501 22.7806 68.9797C22.699 69.5093 22.7196 70.0797 22.5173 70.7927C22.4951 70.9331 22.4391 71.0659 22.3541 71.1797C22.1299 70.8726 22.0281 70.1205 22.1097 69.3057C22.1097 69.2443 22.1505 68.9183 22.1505 68.8371C22.1693 68.7868 22.1755 68.7325 22.1685 68.6792C22.1615 68.6258 22.1413 68.575 22.1097 68.5313C22.0762 68.4813 22.0311 68.4402 21.9781 68.4115C21.925 68.3829 21.8656 68.3678 21.8052 68.3677H21.7008L21.5788 68.4085L21.3748 68.4493C20.825 68.4695 20.6008 68.4896 20.2546 68.3878L19.9694 68.3062H19.8878C19.908 68.286 19.9286 68.286 19.9286 68.2659L20.0506 68.2044C20.2954 68.0825 20.9676 68.021 21.6806 68.0417C21.8234 68.0559 21.9676 68.0489 22.1084 68.021C22.1425 67.9854 22.1701 67.9441 22.19 67.8991C22.229 67.8382 22.2501 67.7677 22.251 67.6955V67.4322C22.251 67.4116 22.2308 67.4116 22.2102 67.3914C22.1406 66.5227 22.3022 65.651 22.6788 64.865C22.6906 64.8547 22.698 64.8402 22.6994 64.8246V64.865C22.7196 64.8856 22.7196 64.9058 22.7398 64.9466C22.9438 65.4762 22.8622 66.2708 22.7398 67.0654C22.7196 67.4116 22.4546 67.9618 22.903 68.125C23.3514 68.2882 23.677 68.1044 24.0639 68.1654C24.3584 68.1711 24.649 68.2333 24.92 68.3488L24.8792 68.4102L24.8993 68.3479Z" fill="#162B43"/>
<path d="M90.2955 47.3035C89.8799 47.1056 89.4306 46.9881 88.9713 46.9573H88.3601C88.4619 46.1627 88.6453 45.3887 88.4821 44.6143C88.3189 43.8399 87.8915 43.2291 87.1987 43.5955C86.8319 43.8587 86.7099 44.3089 86.5467 44.6753C86.32 45.3499 86.2232 46.0614 86.2615 46.7721V46.8129H85.7319C85.0598 46.8537 84.2037 46.9757 83.9392 47.6277C83.6746 48.2797 84.2463 48.4614 84.693 48.5851C85.1472 48.7239 85.6242 48.7723 86.097 48.7277H86.158C86.1172 49.3797 86.097 50.4389 86.4432 50.9891C86.7893 51.5393 87.1153 51.6819 87.5638 51.4577C87.8653 51.234 88.0753 50.9082 88.1543 50.5411C88.2868 50.0137 88.3688 49.4748 88.3991 48.9317C89.007 48.9936 89.6191 48.8654 90.1511 48.5649C90.5991 48.3017 90.8233 47.5869 90.2937 47.2815L90.2955 47.3035ZM89.7453 47.9353C89.4161 48.1381 89.0306 48.2304 88.6453 48.1986C88.2175 48.2192 87.7283 48.0152 87.6265 48.5654C87.5247 49.1156 87.5655 49.6654 87.3821 50.3784C87.2803 50.6416 87.3211 50.6026 87.2189 50.7452C86.9745 50.46 86.8727 49.7062 86.9556 48.8914C86.9658 48.734 86.9862 48.5775 87.0166 48.4228C87.044 48.319 87.0294 48.2086 86.9758 48.1156C86.9379 48.0634 86.8891 48.02 86.8329 47.9885C86.7766 47.9569 86.7141 47.9378 86.6498 47.9327H86.6296C86.5888 47.9327 86.5686 47.9327 86.5686 47.9121C86.5686 47.8914 86.4664 47.9327 86.4261 47.973H86.222C85.856 48.0264 85.4832 48.0127 85.1221 47.9327L84.8369 47.8511H84.7351L84.7961 47.8103L84.8979 47.7287C85.4294 47.5898 85.9794 47.5349 86.5278 47.5659C86.6703 47.59 86.8162 47.583 86.9556 47.5452C86.9933 47.5212 87.022 47.4854 87.0372 47.4435C87.073 47.3794 87.1002 47.3109 87.1184 47.2399V46.9766L87.0574 46.9358C86.9876 46.0672 87.1493 45.1956 87.526 44.4098C87.5462 44.4098 87.5462 44.3892 87.5668 44.369C87.568 44.3847 87.5753 44.3993 87.587 44.4098C87.587 44.43 87.6076 44.4506 87.6076 44.4708C87.8314 45.0004 87.7502 45.8156 87.6076 46.6098C87.6076 46.9564 87.3444 47.4873 87.791 47.6694C88.2377 47.8515 88.565 47.6488 88.9318 47.6896C89.2264 47.7094 89.5156 47.7783 89.7874 47.8936C89.7873 47.9044 89.7829 47.9147 89.7753 47.9224C89.7677 47.93 89.7574 47.9343 89.7466 47.9344L89.7453 47.9353Z" fill="#162B43"/>
<path d="M90.2955 47.3035C89.8799 47.1056 89.4306 46.9881 88.9713 46.9573H88.3601C88.4619 46.1627 88.6453 45.3887 88.4821 44.6143C88.3189 43.8399 87.8915 43.2291 87.1987 43.5955C86.8319 43.8587 86.7099 44.3089 86.5467 44.6753C86.32 45.3499 86.2232 46.0614 86.2615 46.7721V46.8129H85.7319C85.0598 46.8537 84.2037 46.9757 83.9392 47.6277C83.6746 48.2797 84.2463 48.4614 84.693 48.5851C85.1472 48.7239 85.6242 48.7723 86.097 48.7277H86.158C86.1172 49.3797 86.097 50.4389 86.4432 50.9891C86.7893 51.5393 87.1153 51.6819 87.5638 51.4577C87.8653 51.234 88.0753 50.9082 88.1543 50.5411C88.2868 50.0137 88.3688 49.4748 88.3991 48.9317C89.007 48.9936 89.6191 48.8654 90.1511 48.5649C90.5991 48.3017 90.8233 47.5869 90.2937 47.2815L90.2955 47.3035ZM89.7453 47.9353C89.4161 48.1381 89.0306 48.2304 88.6453 48.1986C88.2175 48.2192 87.7283 48.0152 87.6265 48.5654C87.5247 49.1156 87.5655 49.6654 87.3821 50.3784C87.2803 50.6416 87.3211 50.6026 87.2189 50.7452C86.9745 50.46 86.8727 49.7062 86.9556 48.8914C86.9658 48.734 86.9862 48.5775 87.0166 48.4228C87.044 48.319 87.0294 48.2086 86.9758 48.1156C86.9379 48.0634 86.8891 48.02 86.8329 47.9885C86.7766 47.9569 86.7141 47.9378 86.6498 47.9327H86.6296C86.5888 47.9327 86.5686 47.9327 86.5686 47.9121C86.5686 47.8914 86.4664 47.9327 86.4261 47.973H86.222C85.856 48.0264 85.4832 48.0127 85.1221 47.9327L84.8369 47.8511H84.7351L84.7961 47.8103L84.8979 47.7287C85.4294 47.5898 85.9794 47.5349 86.5278 47.5659C86.6703 47.59 86.8162 47.583 86.9556 47.5452C86.9933 47.5212 87.022 47.4854 87.0372 47.4435C87.073 47.3794 87.1002 47.3109 87.1184 47.2399V46.9766L87.0574 46.9358C86.9876 46.0672 87.1493 45.1956 87.526 44.4098C87.5462 44.4098 87.5462 44.3892 87.5668 44.369C87.568 44.3847 87.5753 44.3993 87.587 44.4098C87.587 44.43 87.6076 44.4506 87.6076 44.4708C87.8314 45.0004 87.7502 45.8156 87.6076 46.6098C87.6076 46.9564 87.3444 47.4873 87.791 47.6694C88.2377 47.8515 88.565 47.6488 88.9318 47.6896C89.2264 47.7094 89.5156 47.7783 89.7874 47.8936C89.7873 47.9044 89.7829 47.9147 89.7753 47.9224C89.7677 47.93 89.7574 47.9343 89.7466 47.9344L89.7453 47.9353Z" fill="#162B43"/>
</g>
<defs>
<clipPath id="clip0_222_4058">
<rect width="120" height="120" fill="white"/>
</clipPath>
</defs>
</svg>
