<svg width="120" height="120" viewBox="0 0 120 120" fill="none" xmlns="http://www.w3.org/2000/svg">
<g clip-path="url(#clip0_222_4726)">
<path d="M62.1802 52.5842C40.2019 46.023 16.8125 48.5348 16.8125 48.5348L4.08179 112.269V112.554C4.08179 112.554 27.0905 110.452 49.251 116.37C63.6602 120.219 79.7182 118.157 90.554 115.783L102.829 51.9673C91.5606 54.3463 75.1467 56.4548 62.1802 52.5842Z" fill="white"/>
<path d="M14.6646 59.9157C14.5699 59.9155 14.4764 59.8943 14.3909 59.8537C14.3053 59.8131 14.2298 59.7541 14.1698 59.6809C14.1098 59.6077 14.0667 59.5221 14.0438 59.4303C14.0208 59.3385 14.0185 59.2427 14.037 59.1499L16.1805 48.4041C16.207 48.2708 16.2754 48.1494 16.3758 48.0576C16.4761 47.9658 16.6031 47.9084 16.7383 47.8936C16.7834 47.8936 21.2518 47.418 27.9795 47.418H27.9957C34.2124 47.418 43.7002 47.8323 53.5797 49.8004C53.6619 49.8168 53.7401 49.8492 53.8098 49.8958C53.8795 49.9424 53.9393 50.0022 53.9858 50.0719C54.0323 50.1416 54.0646 50.2198 54.0808 50.302C54.0971 50.3842 54.0969 50.4688 54.0804 50.5509C54.0473 50.7169 53.9496 50.8629 53.8087 50.9569C53.6679 51.0509 53.4954 51.0851 53.3293 51.0521C43.5605 49.1053 34.1681 48.6951 28.0161 48.6934H27.9795C22.5633 48.6934 18.6391 49.0006 17.3404 49.1189L15.2897 59.4051C15.2604 59.5492 15.1822 59.6788 15.0683 59.7718C14.9544 59.8648 14.8118 59.9157 14.6646 59.9157Z" fill="#162B43"/>
<path d="M68.384 119.137C68.2575 119.138 68.1336 119.101 68.0279 119.032C67.9222 118.962 67.8395 118.863 67.7903 118.747C67.741 118.631 67.7275 118.502 67.7513 118.378C67.7751 118.254 67.8353 118.14 67.9241 118.05C67.983 117.99 68.0531 117.943 68.1304 117.91C68.2077 117.878 68.2907 117.861 68.3746 117.86C75.1875 117.753 82.4636 116.875 90.0055 115.249L102.022 52.7875C90.5897 55.1232 74.6859 56.9832 61.9969 53.1943C61.1351 52.939 60.2477 52.6837 59.357 52.4514C59.1932 52.408 59.0534 52.3013 58.9684 52.1549C58.8834 52.0085 58.86 51.8344 58.9035 51.6708C58.947 51.5072 59.0537 51.3675 59.2002 51.2825C59.3468 51.1976 59.5211 51.1742 59.6848 51.2177C60.585 51.4559 61.4843 51.7095 62.3597 51.9707C75.1475 55.7886 91.3552 53.7363 102.7 51.3427C102.803 51.3211 102.909 51.3253 103.011 51.3548C103.112 51.3844 103.204 51.4384 103.279 51.5122C103.354 51.5859 103.41 51.6771 103.441 51.7776C103.473 51.8781 103.479 51.9847 103.459 52.0881L91.1841 115.904C91.16 116.026 91.1008 116.139 91.0138 116.228C90.9262 116.317 90.8147 116.38 90.6927 116.407C82.9209 118.109 75.4191 119.026 68.3968 119.137H68.384Z" fill="#162B43"/>
<path d="M61.2433 118.953H61.1982C56.8975 118.649 52.8243 117.989 49.0909 116.996C37.7108 113.956 26.0975 113.081 18.3649 112.889C9.97228 112.677 4.20178 113.192 4.14302 113.197C4.05469 113.206 3.96553 113.195 3.88158 113.167C3.79737 113.139 3.71993 113.093 3.6542 113.034C3.58878 112.974 3.53632 112.901 3.50006 112.82C3.46446 112.74 3.4459 112.653 3.44556 112.565V112.28C3.44559 112.238 3.44987 112.196 3.45833 112.155L8.20264 88.389C8.23741 88.2247 8.33561 88.0806 8.47594 87.9882C8.61628 87.8957 8.78744 87.8623 8.9523 87.8951C9.11716 87.9279 9.26242 88.0243 9.35659 88.1635C9.45077 88.3026 9.48625 88.4732 9.45535 88.6383L4.81579 111.855C6.68337 111.723 11.7138 111.436 18.3725 111.6C26.1826 111.797 37.9084 112.676 49.4162 115.749C53.0713 116.726 57.0645 117.372 61.2842 117.67C61.368 117.673 61.4505 117.693 61.5269 117.727C61.6032 117.762 61.672 117.812 61.7292 117.873C61.7864 117.934 61.831 118.006 61.8603 118.085C61.8897 118.164 61.9033 118.247 61.9003 118.331C61.8973 118.415 61.8779 118.497 61.8431 118.573C61.8082 118.65 61.7587 118.718 61.6973 118.776C61.6359 118.833 61.5638 118.877 61.4852 118.907C61.4066 118.936 61.3229 118.95 61.239 118.947L61.2433 118.953Z" fill="#162B43"/>
<path d="M9.79346 84.2894C9.69883 84.2893 9.60542 84.2681 9.52009 84.2273C9.43469 84.1878 9.35929 84.1297 9.29952 84.0571C9.23946 83.9839 9.19639 83.8983 9.17342 83.8065C9.15045 83.7147 9.14814 83.6189 9.16667 83.5261L13.2076 63.305C13.2423 63.1407 13.3405 62.9967 13.4809 62.9042C13.6212 62.8118 13.7924 62.7783 13.9572 62.8111C14.1221 62.8439 14.2673 62.9404 14.3615 63.0795C14.4557 63.2186 14.4912 63.3892 14.4603 63.5543L10.4228 83.7737C10.3943 83.9189 10.3164 84.0497 10.2022 84.1439C10.0882 84.2381 9.94483 84.2896 9.79686 84.2894H9.79346Z" fill="#162B43"/>
<path d="M0.638672 18.4104C0.638672 18.4104 1.36254 32.4653 8.24608 43.3582C8.24608 43.3582 31.2139 34.9269 51.9872 34.0496C51.9872 34.0496 45.5507 16.9469 44.9657 12.125C44.9648 12.125 23.8995 17.3868 0.638672 18.4104Z" fill="white"/>
<path d="M116.015 48.5332C116.015 48.5332 110.662 50.32 102.832 51.9673L90.5566 115.783C98.2313 114.104 103.288 112.269 103.288 112.269L116.015 48.5332Z" fill="#DBF122"/>
<path d="M90.5565 116.422C90.4623 116.421 90.3693 116.4 90.284 116.36C90.1557 116.3 90.0512 116.199 89.987 116.072C89.9227 115.946 89.9022 115.802 89.9288 115.663L102.205 51.8468C102.228 51.7234 102.288 51.6098 102.376 51.52C102.464 51.4303 102.577 51.3685 102.7 51.3423C110.4 49.7179 115.76 47.9447 115.814 47.9268C115.921 47.8919 116.034 47.8852 116.144 47.9073C116.253 47.9296 116.355 47.9804 116.439 48.0545C116.523 48.128 116.586 48.2225 116.621 48.3284C116.657 48.4344 116.664 48.548 116.642 48.6577L103.915 112.394C103.893 112.501 103.845 112.601 103.773 112.684C103.702 112.767 103.61 112.83 103.507 112.868C103.456 112.886 98.3214 114.74 90.6936 116.406C90.6485 116.416 90.6026 116.421 90.5565 116.422ZM103.379 52.5037L91.3715 114.949C97.3106 113.602 101.549 112.197 102.737 111.788L115.182 49.4678C113.289 50.0455 108.97 51.3082 103.379 52.5037Z" fill="#DBF122"/>
<path d="M20.4666 51.3832L14.9312 78.4726C14.9312 78.4726 43.3467 76.2952 62.0736 83.2852L66.8366 57.1692C66.8366 57.1692 42.639 49.9086 20.4666 51.3832Z" fill="#DBF122"/>
<path d="M62.0822 83.9235C62.0058 83.9235 61.93 83.9099 61.8583 83.8835C52.27 80.3038 40.0469 79.1951 31.4823 78.8956C22.1776 78.5706 15.059 79.1033 14.9883 79.1092C14.8896 79.1169 14.7905 79.1015 14.6988 79.0641C14.607 79.0266 14.5251 78.9683 14.4595 78.8939C14.395 78.8202 14.3479 78.733 14.3215 78.6387C14.2964 78.543 14.2938 78.4428 14.3139 78.346L19.8425 51.254C19.8702 51.1167 19.9423 50.9924 20.0477 50.9001C20.1532 50.8079 20.286 50.7528 20.4258 50.7435C31.9455 49.9777 44.0017 51.5943 52.0869 53.0936C60.8414 54.7103 66.9653 56.5371 67.0267 56.5558C67.1771 56.601 67.3057 56.7 67.3877 56.8339C67.4697 56.9678 67.4994 57.1272 67.4712 57.2816L62.7073 83.4036C62.6904 83.4954 62.6537 83.5823 62.5997 83.6584C62.5457 83.7346 62.4758 83.798 62.3948 83.8444C62.2986 83.8988 62.1902 83.928 62.0797 83.9294L62.0822 83.9235ZM25.3779 77.5155C27.26 77.5155 29.3217 77.5444 31.5036 77.621C39.9575 77.9154 51.9421 78.9935 61.5815 82.4276L66.1061 57.6194C64.4258 57.1429 59.0267 55.6743 51.8323 54.3452C43.943 52.886 32.2291 51.3084 20.9947 51.9891L15.7284 77.7878C17.2621 77.6857 20.7793 77.5155 25.3779 77.5155Z" fill="#DBF122"/>
<path d="M89.8174 116.421C89.7759 116.421 89.7345 116.417 89.6939 116.409C89.6113 116.394 89.5328 116.362 89.4631 116.315C89.3932 116.269 89.3333 116.209 89.2868 116.139C89.2398 116.07 89.2071 115.991 89.1906 115.909C89.1741 115.827 89.1741 115.742 89.1906 115.66L89.6011 113.572C89.6174 113.49 89.6498 113.412 89.6964 113.343C89.7424 113.273 89.802 113.213 89.8719 113.166C89.9414 113.12 90.0196 113.087 90.1018 113.07C90.2258 113.045 90.3544 113.058 90.4714 113.106C90.5883 113.154 90.6882 113.236 90.7584 113.341C90.8522 113.481 90.8868 113.653 90.8546 113.819L90.4408 115.907C90.4116 116.051 90.3333 116.181 90.2192 116.274C90.105 116.367 89.9621 116.418 89.8148 116.418L89.8174 116.421Z" fill="#162B43"/>
<path d="M91.0104 110.365C90.969 110.364 90.9277 110.36 90.8869 110.353C90.7208 110.32 90.5745 110.223 90.4799 110.082C90.4329 110.013 90.4003 109.935 90.3838 109.852C90.3672 109.77 90.3672 109.685 90.3836 109.603L91.1654 105.634C91.1814 105.551 91.2136 105.473 91.26 105.403C91.3065 105.333 91.3664 105.273 91.4362 105.226C91.5772 105.132 91.7494 105.098 91.9157 105.13C91.998 105.146 92.0763 105.178 92.1461 105.225C92.216 105.271 92.276 105.331 92.3227 105.401C92.4166 105.541 92.4512 105.713 92.419 105.879L91.6329 109.848C91.6042 109.993 91.5262 110.124 91.4121 110.218C91.298 110.312 91.1549 110.363 91.007 110.364L91.0104 110.365ZM92.5748 102.425C92.5331 102.425 92.4915 102.421 92.4505 102.413C92.3681 102.397 92.2897 102.365 92.2199 102.318C92.15 102.271 92.09 102.212 92.0434 102.142C91.9964 102.072 91.9637 101.994 91.9472 101.912C91.9307 101.83 91.9307 101.746 91.9472 101.664L92.729 97.6942C92.7451 97.6118 92.7775 97.5334 92.8243 97.4637C92.8702 97.3937 92.9299 97.3337 92.9998 97.2875C93.105 97.2176 93.2285 97.1803 93.3549 97.1803C93.4812 97.1803 93.6048 97.2176 93.71 97.2875C93.7797 97.3342 93.8396 97.394 93.8863 97.4637C93.9332 97.533 93.9657 97.6112 93.9817 97.6934C93.9983 97.7757 93.9983 97.8604 93.9817 97.9427L93.1999 101.912C93.1702 102.056 93.0917 102.185 92.9777 102.278C92.8637 102.371 92.7211 102.422 92.574 102.423L92.5748 102.425ZM94.1384 94.4856C94.0969 94.4855 94.0556 94.4815 94.0149 94.4737C93.9325 94.4574 93.8541 94.4251 93.7843 94.3785C93.7144 94.3319 93.6544 94.272 93.6078 94.2022C93.5608 94.1329 93.5281 94.0549 93.5116 93.9728C93.4951 93.8907 93.4951 93.8061 93.5116 93.724L94.2934 89.7538C94.3097 89.6717 94.3421 89.5936 94.3887 89.5241C94.4347 89.4541 94.4943 89.3942 94.5642 89.348C94.6694 89.2781 94.7929 89.2408 94.9193 89.2408C95.0456 89.2408 95.1692 89.2781 95.2744 89.348C95.3441 89.3946 95.404 89.4545 95.4507 89.5241C95.4976 89.5935 95.5301 89.6716 95.5461 89.7538C95.5627 89.8361 95.5627 89.9209 95.5461 90.0032L94.7634 93.9725C94.734 94.1166 94.6556 94.2462 94.5415 94.3392C94.4275 94.4323 94.2848 94.4831 94.1375 94.483L94.1384 94.4856ZM95.7028 86.5469C95.6611 86.5463 95.6195 86.5423 95.5784 86.535C95.4123 86.5021 95.266 86.4047 95.1717 86.2641C95.0773 86.1236 95.0426 85.9514 95.0751 85.7853L95.8569 81.8151C95.8731 81.7329 95.9054 81.6547 95.9519 81.5849C95.9984 81.5151 96.0581 81.4551 96.1278 81.4085C96.1975 81.3618 96.2757 81.3292 96.3579 81.3127C96.4402 81.2962 96.5249 81.2961 96.6072 81.3123C96.6895 81.3285 96.7678 81.3607 96.8376 81.4072C96.9075 81.4536 96.9675 81.5133 97.0142 81.5829C97.0609 81.6525 97.0935 81.7307 97.11 81.8128C97.1265 81.895 97.1267 81.9797 97.1105 82.0619L96.3287 86.0312C96.3003 86.1764 96.2224 86.3072 96.1083 86.4014C95.9941 86.4956 95.8508 86.5473 95.7028 86.5477V86.5469ZM97.2663 78.6073C97.2249 78.6072 97.1835 78.6032 97.1428 78.5954C96.9767 78.5625 96.8304 78.4652 96.7358 78.3248C96.6888 78.2553 96.656 78.1772 96.6395 78.095C96.623 78.0127 96.623 77.928 96.6395 77.8458L97.4213 73.8764C97.4539 73.7103 97.5513 73.564 97.6919 73.4696C97.8325 73.3752 98.0049 73.3405 98.1712 73.3731C98.3374 73.4058 98.4838 73.503 98.5783 73.6435C98.6728 73.784 98.7075 73.9563 98.6749 74.1223L97.8923 78.0925C97.8637 78.2375 97.7857 78.368 97.6715 78.4619C97.5574 78.5558 97.4142 78.6072 97.2663 78.6073ZM98.8307 70.6678C98.789 70.6681 98.7473 70.6641 98.7064 70.6559C98.5403 70.6229 98.3939 70.5256 98.2993 70.3853C98.2523 70.3158 98.2196 70.2376 98.2031 70.1554C98.1866 70.0732 98.1866 69.9885 98.2031 69.9062L98.9849 65.9369C99.0011 65.8546 99.0334 65.7764 99.0798 65.7066C99.1263 65.6368 99.1861 65.5769 99.2558 65.5302C99.3254 65.4835 99.4036 65.451 99.4859 65.4345C99.5681 65.418 99.6528 65.4178 99.7351 65.434C99.8174 65.4502 99.8958 65.4825 99.9656 65.5289C100.035 65.5753 100.095 65.6351 100.142 65.7047C100.189 65.7743 100.221 65.8524 100.238 65.9346C100.254 66.0168 100.255 66.1014 100.238 66.1836L99.4567 70.153C99.4272 70.2971 99.3488 70.4267 99.2348 70.5197C99.1207 70.6128 98.978 70.6635 98.8307 70.6635V70.6678ZM100.394 62.7291C100.353 62.7289 100.311 62.725 100.271 62.7172C100.188 62.701 100.11 62.6687 100.04 62.6223C99.9705 62.5759 99.9105 62.5161 99.8637 62.4465C99.817 62.3769 99.7844 62.2988 99.7679 62.2166C99.7514 62.1344 99.7513 62.0498 99.7675 61.9675L100.549 57.9973C100.582 57.8313 100.68 57.6851 100.82 57.5906C100.925 57.5207 101.049 57.4834 101.175 57.4834C101.302 57.4834 101.425 57.5207 101.53 57.5906C101.6 57.6373 101.66 57.6971 101.707 57.7667C101.8 57.9076 101.835 58.0797 101.803 58.2458L101.02 62.2143C100.992 62.3595 100.914 62.4903 100.8 62.5845C100.686 62.6787 100.542 62.7304 100.394 62.7308V62.7291Z" fill="#162B43"/>
<path d="M101.959 54.7894C101.917 54.7893 101.875 54.7853 101.834 54.7775C101.668 54.7446 101.522 54.6473 101.427 54.5069C101.38 54.4374 101.348 54.3593 101.331 54.2771C101.314 54.1948 101.314 54.1101 101.331 54.0279L101.742 51.9407C101.775 51.7747 101.873 51.6285 102.013 51.534C102.118 51.4641 102.242 51.4268 102.368 51.4268C102.495 51.4268 102.618 51.4641 102.723 51.534C102.793 51.5806 102.853 51.6405 102.9 51.7101C102.994 51.8509 103.028 52.023 102.996 52.1892L102.585 54.2764C102.555 54.4205 102.477 54.5501 102.363 54.6431C102.249 54.7361 102.106 54.7869 101.959 54.7869V54.7894Z" fill="#162B43"/>
<path d="M57.9093 63.347C57.8517 63.3469 57.7943 63.3386 57.739 63.3224C49.4009 60.9714 41.2672 60.2192 35.9114 60.0039C30.1001 59.7691 26.2142 60.0958 26.1759 60.0992C26.0901 60.1089 26.0032 60.1014 25.9204 60.0771C25.8388 60.0527 25.7629 60.0122 25.6973 59.958C25.6309 59.9045 25.5764 59.8379 25.5372 59.7623C25.4973 59.687 25.473 59.6046 25.4656 59.5198C25.4575 59.4336 25.4674 59.3467 25.4946 59.2645C25.5341 59.1426 25.6094 59.0354 25.7107 58.9568C25.812 58.8782 25.9346 58.8318 26.0626 58.8238C26.1018 58.8238 30.0498 58.4834 35.9361 58.7234C41.366 58.942 49.6155 59.7036 58.083 62.092C58.2314 62.1336 58.3596 62.2275 58.4441 62.3561C58.5287 62.4848 58.5638 62.6397 58.5431 62.7922C58.5223 62.9448 58.4471 63.0847 58.3313 63.1861C58.2154 63.2876 58.0668 63.3439 57.9127 63.3445L57.9093 63.347Z" fill="white"/>
<path d="M56.8474 68.9092C56.7898 68.909 56.7325 68.9009 56.6771 68.8854C48.3356 66.5335 40.2019 65.7865 34.8436 65.5669C29.0322 65.3321 25.1472 65.6588 25.108 65.6614C25.0222 65.6711 24.9354 65.6636 24.8525 65.6393C24.7709 65.6149 24.695 65.5744 24.6294 65.5201C24.563 65.4667 24.5085 65.4001 24.4693 65.3244C24.4294 65.2492 24.4051 65.1667 24.3978 65.0819C24.3901 64.9958 24.4 64.9089 24.4267 64.8267C24.4663 64.7048 24.5416 64.5976 24.6429 64.519C24.7442 64.4404 24.8668 64.394 24.9948 64.3859C25.0339 64.3859 28.982 64.0456 34.8683 64.2864C40.3007 64.5076 48.5511 65.2666 57.0177 67.6558C57.1661 67.6975 57.2943 67.7913 57.3788 67.92C57.4634 68.0487 57.4985 68.2036 57.4778 68.3561C57.457 68.5086 57.3818 68.6485 57.266 68.75C57.1501 68.8515 57.0015 68.9077 56.8474 68.9083V68.9092Z" fill="white"/>
<path d="M36.4488 71.2758H36.4062C29.0951 70.7908 23.9727 71.2196 23.9233 71.2239C23.8397 71.2311 23.7555 71.2219 23.6755 71.1966C23.5955 71.1714 23.5212 71.1306 23.457 71.0767C23.3927 71.0228 23.3398 70.9567 23.301 70.8823C23.2623 70.8079 23.2387 70.7267 23.2314 70.6431C23.2241 70.5596 23.2334 70.4755 23.2587 70.3955C23.284 70.3156 23.3247 70.2414 23.3787 70.1772C23.4327 70.113 23.4988 70.0601 23.5732 70.0214C23.6477 69.9827 23.729 69.9591 23.8126 69.9518C23.8646 69.9476 29.0756 69.5102 36.4905 70.002C36.5743 70.0049 36.6567 70.0239 36.7332 70.0582C36.8097 70.0929 36.8786 70.1423 36.9359 70.2037C37.022 70.2961 37.079 70.4118 37.0996 70.5363C37.1202 70.6609 37.1035 70.7888 37.0517 70.9039C37.0166 70.9801 36.9671 71.0489 36.9061 71.1064C36.8452 71.1638 36.7734 71.2084 36.6949 71.2375C36.6163 71.2671 36.5327 71.281 36.4488 71.2783V71.2758Z" fill="white"/>
<path d="M54.175 102.314C53.0449 102.314 51.9344 102.261 50.8742 102.21C49.5635 102.146 48.0783 102.073 46.76 101.406C46.5838 101.32 46.4194 101.22 46.2567 101.127C46.0114 100.973 45.7519 100.843 45.4818 100.738C44.6668 100.458 43.6934 100.738 42.743 101.004L42.4398 101.089C40.3704 101.664 38.8367 101.525 37.75 100.664C37.3302 100.332 37.0313 99.9275 36.7417 99.537C36.5978 99.3438 36.4616 99.16 36.3159 98.9941C35.6219 98.1951 34.5923 97.7348 33.5371 97.6523C33.4103 98.4347 32.9897 99.1395 32.3611 99.6229C31.7777 100.065 31.1015 100.219 30.5046 100.048C30.2981 99.9869 30.1058 99.8851 29.939 99.7488C29.7722 99.6125 29.6342 99.4445 29.5329 99.2545C29.4431 99.0908 29.3877 98.9105 29.3702 98.7247C29.3526 98.5389 29.3732 98.3515 29.4307 98.1739C29.5772 97.7391 29.9076 97.4659 30.1792 97.2762C30.805 96.8446 31.5192 96.558 32.2699 96.4372C32.2087 96.0782 32.078 95.7345 31.885 95.4255C31.2787 94.4777 30.1682 93.7765 28.585 93.3392L28.5254 93.3222C28.4011 93.5638 28.258 93.8114 28.0996 94.0684C26.0558 97.3017 22.4279 99.514 18.6212 99.8544C17.8548 99.9224 16.7477 99.9258 15.9872 99.1737C15.3059 98.5083 15.1356 97.3919 15.5452 96.3955C15.9054 95.5268 16.6038 94.9039 17.1726 94.4589C20.1175 92.1513 24.0792 91.1924 27.7607 91.8425C27.8247 91.6302 27.8697 91.4126 27.8952 91.1924C27.9804 90.4266 27.7658 89.6991 27.3161 89.255C26.6783 88.6245 25.5678 88.4722 24.0153 88.8031C20.1647 89.6413 16.7499 91.8487 14.4066 95.0146C14.3052 95.1473 14.1557 95.235 13.9902 95.2589C13.8247 95.2828 13.6565 95.2409 13.5216 95.1422C13.3867 95.0435 13.296 94.8959 13.2688 94.7311C13.2416 94.5663 13.2801 94.3974 13.3762 94.2607C15.9041 90.8463 19.5871 88.4654 23.7402 87.5609C25.7407 87.1354 27.2437 87.4009 28.2061 88.353C28.9316 89.0703 29.2868 90.1867 29.1565 91.3405C29.1256 91.6089 29.0732 91.8743 28.9998 92.1343C30.8546 92.6602 32.1848 93.5366 32.9563 94.7406C33.2694 95.2383 33.4726 95.797 33.5525 96.3794C33.664 96.387 33.7756 96.3972 33.8871 96.4108C35.2395 96.581 36.442 97.1979 37.2774 98.1568C37.4545 98.3611 37.6112 98.5721 37.7637 98.7771C38.0149 99.1175 38.2516 99.4357 38.5386 99.6629C39.2829 100.251 40.4454 100.315 42.0932 99.8569L42.3904 99.7718C43.4728 99.4646 44.6992 99.1166 45.8931 99.5268C46.2418 99.6574 46.5767 99.8221 46.8929 100.019C47.0453 100.104 47.1892 100.189 47.3332 100.263C48.4079 100.807 49.7492 100.873 50.9321 100.931C53.8045 101.07 57.0636 101.228 59.9157 100.229C60.0746 100.176 60.2477 100.188 60.398 100.262C60.5482 100.336 60.6636 100.465 60.7193 100.623C60.775 100.78 60.7666 100.954 60.696 101.105C60.6254 101.257 60.4981 101.375 60.3415 101.434C58.3479 102.136 56.2265 102.314 54.175 102.314ZM32.1848 97.7595C31.7275 97.8685 31.2944 98.0612 30.9074 98.3279C30.7004 98.4725 30.6519 98.5508 30.6391 98.5831C30.6366 98.6114 30.6438 98.6396 30.6595 98.6631C30.7008 98.7389 30.7688 98.7965 30.8503 98.8248C31.0513 98.8818 31.3332 98.7984 31.5861 98.607C31.8661 98.3898 32.0739 98.0933 32.1822 97.7561L32.1848 97.7595ZM25.4571 92.9256C22.7694 92.9256 20.0732 93.8131 17.9578 95.4706C17.5124 95.8203 16.9691 96.2968 16.723 96.8916C16.5433 97.3238 16.5399 97.9373 16.8805 98.2717C17.1701 98.5568 17.7015 98.6606 18.5046 98.5891C21.9238 98.2836 25.1854 96.2917 27.0206 93.3919C27.093 93.2771 27.1603 93.1656 27.2242 93.0516C26.6375 92.9674 26.0455 92.9264 25.4528 92.9291L25.4571 92.9256Z" fill="#162B43"/>
<path d="M50.8955 111.053C50.835 111.053 50.7748 111.044 50.7167 111.027C48.9283 110.507 47.0999 110.022 45.2758 109.587C45.1941 109.568 45.117 109.532 45.0493 109.483C44.9813 109.434 44.9237 109.372 44.8799 109.301C44.836 109.23 44.8067 109.15 44.7938 109.068C44.7804 108.985 44.7835 108.901 44.803 108.819C44.8224 108.738 44.8578 108.661 44.907 108.593C44.9564 108.525 45.0186 108.467 45.0901 108.423C45.1615 108.379 45.2409 108.35 45.3235 108.338C45.4062 108.325 45.4906 108.328 45.5721 108.347C47.4167 108.787 49.2681 109.278 51.0744 109.804C51.2225 109.846 51.3502 109.941 51.434 110.07C51.5177 110.199 51.5519 110.354 51.5301 110.507C51.5083 110.659 51.432 110.798 51.3154 110.899C51.1987 110.999 51.0496 111.054 50.8955 111.054V111.053Z" fill="#162B43"/>
<path d="M40.9522 108.631C40.9102 108.63 40.8683 108.626 40.827 108.619C23.8724 105.26 11.157 106.651 11.0301 106.662C10.9459 106.673 10.8602 106.667 10.7781 106.645C10.6961 106.623 10.6192 106.585 10.5521 106.533C10.485 106.481 10.4291 106.416 10.3874 106.342C10.3458 106.267 10.3194 106.186 10.3098 106.101C10.3001 106.017 10.3075 105.932 10.3313 105.85C10.3552 105.769 10.3951 105.693 10.4487 105.627C10.5023 105.561 10.5685 105.506 10.6435 105.466C10.7185 105.426 10.8007 105.402 10.8854 105.394C11.0165 105.379 14.17 105.025 19.4866 105.087C26.7364 105.192 33.9618 105.954 41.074 107.363C41.1903 107.385 41.298 107.44 41.385 107.52C41.472 107.6 41.5349 107.703 41.5667 107.817C41.5984 107.932 41.5977 108.052 41.5647 108.166C41.5317 108.28 41.4676 108.382 41.3797 108.461C41.2637 108.568 41.112 108.629 40.9539 108.631H40.9522Z" fill="#162B43"/>
<path d="M44.9648 12.125C44.9648 12.125 23.8995 17.3868 0.638672 18.4104C0.638672 18.4104 1.36169 32.4678 8.24778 43.3616C8.47601 43.2212 30.9857 36.0594 51.9872 34.0496C51.9872 34.0487 45.5507 16.9461 44.9648 12.125ZM45.2374 32.7775C31.1407 34.6724 18.1171 37.7075 12.8592 39.2638C12.6361 38.4053 11.9608 37.6046 10.9857 37.1664C10.0302 36.7409 9.00827 36.7588 8.22479 37.1374C6.4296 32.855 5.1045 28.0228 4.3074 24.7146C5.13408 24.592 5.88594 24.1676 6.41768 23.5234C7.20116 22.5993 7.4328 21.4234 7.11259 20.4883C23.208 19.2971 43.3459 15.1635 43.3459 15.1635C43.6355 17.5528 46.5173 24.0875 48.0085 28.3521C46.6195 28.4653 45.0236 30.7346 45.2416 32.7818L45.2374 32.7775Z" fill="#162B43"/>
<path d="M8.24869 44.0037C8.14067 44.004 8.03437 43.9768 7.93977 43.9247C7.84517 43.8726 7.76539 43.7973 7.70791 43.7059C4.10051 37.9991 2.19801 31.4371 1.2357 26.9377C0.196737 22.0638 0.0127895 18.588 1.54236e-05 18.4425C-0.00469706 18.3585 0.0074139 18.2745 0.0356378 18.1953C0.0638617 18.1161 0.10763 18.0434 0.164376 17.9813C0.220873 17.9189 0.28918 17.8683 0.365355 17.8324C0.441542 17.7966 0.523992 17.7761 0.608063 17.772C23.5393 16.7637 44.5979 11.5606 44.8065 11.5053C44.8943 11.4833 44.9857 11.4804 45.0747 11.4967C45.209 11.5212 45.3319 11.5878 45.4255 11.687C45.5192 11.7863 45.5786 11.9128 45.5951 12.0481C46.1648 16.7407 52.5169 33.6545 52.5783 33.8247C52.6123 33.9165 52.6251 34.0148 52.6157 34.1123C52.6062 34.2099 52.5741 34.304 52.5221 34.3871C52.4703 34.4703 52.4001 34.5405 52.3168 34.5921C52.2335 34.6438 52.1393 34.6755 52.0417 34.6849C41.2919 35.7136 30.2065 38.1131 22.8001 39.945C14.8512 41.9114 9.02024 43.7442 8.50843 43.9442C8.42672 43.9821 8.33792 44.0024 8.24783 44.0037H8.24869ZM1.32341 19.0177C1.55422 21.5973 1.94414 24.1602 2.49097 26.6917C3.40645 30.9717 5.19482 37.1576 8.52375 42.5955C10.2781 42.0127 15.5844 40.4258 22.1733 38.787C29.5167 36.961 40.4173 34.5845 51.0965 33.4962C49.8804 30.2254 45.3345 17.8264 44.4386 12.905C40.6736 13.7975 21.8139 18.0443 1.32341 19.0177ZM12.8593 39.9059C12.7179 39.9058 12.5806 39.8589 12.4687 39.7725C12.3569 39.6862 12.2768 39.5652 12.241 39.4286C12.0571 38.7232 11.4899 38.0969 10.7226 37.7532C9.97489 37.4188 9.14458 37.4043 8.50076 37.7157C8.42272 37.7534 8.33783 37.7748 8.25124 37.7787C8.16448 37.7829 8.07779 37.7692 7.9965 37.7387C7.91521 37.7081 7.84106 37.6612 7.7786 37.6009C7.71614 37.5405 7.66659 37.4682 7.63297 37.3881C5.82075 33.0631 4.48203 28.191 3.68322 24.8649C3.66173 24.7779 3.65881 24.6874 3.67467 24.5992C3.69053 24.511 3.7248 24.4271 3.77525 24.353C3.8257 24.2789 3.8912 24.2163 3.96749 24.1692C4.04378 24.122 4.12914 24.0915 4.21803 24.0795C4.8861 23.9738 5.49212 23.6268 5.92124 23.1044C6.52929 22.3863 6.75582 21.4384 6.49863 20.6879C6.46697 20.5956 6.45695 20.4972 6.46933 20.4003C6.48171 20.3035 6.51617 20.2108 6.57005 20.1293C6.62393 20.0479 6.6958 19.9799 6.78012 19.9305C6.86445 19.8812 6.95898 19.8518 7.05644 19.8447C22.9278 18.6756 43.0062 14.5735 43.2106 14.5327C43.2974 14.5148 43.3869 14.5148 43.4737 14.5327C43.5604 14.5509 43.6423 14.587 43.7143 14.6385C43.7863 14.6901 43.8468 14.756 43.8919 14.8322C43.937 14.9083 43.966 14.9929 43.977 15.0807C44.1584 16.5748 45.4741 19.9477 46.7456 23.2091C47.4099 24.9109 48.0954 26.6705 48.6089 28.1374C48.6416 28.2296 48.6527 28.3282 48.6414 28.4254C48.63 28.5226 48.5965 28.6159 48.5433 28.6981C48.49 28.7803 48.4186 28.8492 48.3347 28.8998C48.2502 28.949 48.1555 28.9781 48.0579 28.9849C47.6934 29.0138 47.2361 29.321 46.835 29.8051C46.1537 30.6305 45.7739 31.7706 45.8744 32.7109C45.8918 32.8761 45.8441 33.0415 45.7414 33.1721C45.6387 33.3027 45.489 33.3882 45.3243 33.4103C31.3051 35.295 18.3351 38.3096 13.0381 39.877C12.9802 39.8952 12.92 39.9049 12.8593 39.9059ZM9.52439 36.2131C10.1166 36.2161 10.7016 36.3436 11.2412 36.5875C12.1115 36.9671 12.8209 37.6398 13.2459 38.4883C18.8214 36.8946 31.191 34.0578 44.5851 32.2259C44.6508 31.0405 45.0949 29.9073 45.8523 28.9925C46.2085 28.5407 46.662 28.1748 47.1791 27.9221C46.7056 26.6143 46.1239 25.1219 45.561 23.6677C44.3688 20.6046 43.2302 17.692 42.8359 15.9069C39.3221 16.6063 22.0975 19.9417 7.88164 21.0564C7.96255 22.04 7.61764 23.0832 6.90655 23.923C6.42452 24.5035 5.79198 24.9403 5.07815 25.1857C5.8446 28.2812 7.02578 32.4922 8.58166 36.3322C8.88982 36.2541 9.20649 36.2147 9.52439 36.2148V36.2131Z" fill="#162B43"/>
<path d="M27.3723 30.4658C32.0561 29.5205 35.5665 27.3065 35.2071 25.5214C34.8477 23.7362 30.754 23.0538 26.0676 23.9983C21.3812 24.9428 17.8735 27.1576 18.2328 28.9436C18.5922 30.7296 22.685 31.4111 27.3723 30.4658Z" fill="#DBF122"/>
<path d="M23.3339 31.5278C22.578 31.5329 21.823 31.476 21.0763 31.3576C19.07 31.0241 17.8402 30.2115 17.6077 29.0696C17.0968 26.5629 21.5251 24.2639 25.9399 23.373C30.3546 22.4821 35.3263 22.8888 35.8321 25.3938C36.0629 26.5349 35.2437 27.7618 33.5243 28.8475C31.9803 29.8218 29.8411 30.6182 27.5 31.0905C26.1291 31.3729 24.7337 31.5194 23.3339 31.5278ZM30.1051 24.2034C28.7904 24.2137 27.4799 24.3539 26.1928 24.6221C21.3233 25.604 18.6399 27.7261 18.8596 28.8152C18.9729 29.3759 19.9028 29.8669 21.2867 30.0975C22.938 30.3723 25.0542 30.2804 27.2479 29.838C29.4417 29.3955 31.4276 28.6603 32.843 27.7669C34.0284 27.0182 34.6944 26.2047 34.5811 25.6448C34.4261 24.8816 32.7621 24.2034 30.1059 24.2034H30.1051Z" fill="#DBF122"/>
<path d="M47.3699 23.7317C52.2888 21.9866 54.4689 15.5012 52.2445 9.24551C50.0201 2.98984 44.2309 -0.665534 39.3146 1.07707C34.3982 2.81967 32.2164 9.30847 34.4408 15.5633C36.6652 21.8181 42.4536 25.4769 47.3699 23.7317Z" fill="#007EEF"/>
<path d="M44.8133 24.8049C43.0556 24.8049 41.2545 24.2578 39.5555 23.1882C36.993 21.5716 34.9628 18.9389 33.8387 15.7796C32.7146 12.6203 32.6294 9.29592 33.5943 6.42505C34.5753 3.50228 36.534 1.38615 39.1016 0.475706C41.6692 -0.434734 44.5195 -0.0297159 47.1306 1.61674C49.693 3.23341 51.7233 5.87113 52.8474 9.02789C53.9715 12.1847 54.0575 15.5082 53.0918 18.3791C52.1082 21.3052 50.1521 23.418 47.5862 24.3293C46.6959 24.6449 45.758 24.8058 44.8133 24.8049ZM35.0428 15.3491C37.1463 21.2627 42.5804 24.7513 47.157 23.127C49.3456 22.3493 51.0241 20.5199 51.8757 17.9723C52.7512 15.3712 52.6669 12.3463 51.6381 9.45503C50.6094 6.56375 48.7648 4.16427 46.4433 2.6982C44.1704 1.26277 41.7135 0.900295 39.524 1.67715C34.9483 3.30233 32.936 9.43461 35.0394 15.3482L35.0428 15.3491Z" fill="#007EEF"/>
<path d="M44.3193 24.8112L47.0214 23.8514L38.9661 1.2002L36.2622 2.15999C31.3467 3.90599 29.1649 10.3948 31.3893 16.6471C33.6137 22.8993 39.4029 26.5615 44.3193 24.8112Z" fill="#007EEF"/>
<path d="M41.7619 25.8879C40.0042 25.8879 38.2031 25.3416 36.5041 24.2712C33.9416 22.6546 31.9114 20.0228 30.7873 16.8635C29.6631 13.7042 29.5771 10.3806 30.5428 7.51233C31.5273 4.58275 33.4809 2.47002 36.0485 1.55617L38.7523 0.595531C38.9119 0.538792 39.0875 0.547704 39.2405 0.620307C39.3935 0.692909 39.5114 0.823257 39.5682 0.982681L47.6244 23.6339C47.6812 23.7934 47.6723 23.9688 47.5996 24.1217C47.5269 24.2745 47.3965 24.3923 47.2369 24.4491L44.5331 25.4089C43.6433 25.7245 42.7061 25.8854 41.7619 25.8845V25.8879ZM44.1055 24.21L46.2073 23.4638L38.5778 2.0148L36.4768 2.76102C31.9003 4.3862 29.888 10.5193 31.9914 16.4321C34.0949 22.3449 39.5273 25.8343 44.1055 24.21Z" fill="#007EEF"/>
<path d="M33.1217 21.1531C32.9697 21.155 32.8219 21.1027 32.7051 21.0056C32.5882 20.9084 32.5098 20.7728 32.4841 20.6231C32.4583 20.4734 32.4869 20.3195 32.5645 20.1889C32.6422 20.0583 32.764 19.9597 32.9079 19.9108L35.4721 19.0004C35.6298 18.9515 35.8002 18.9655 35.9478 19.0394C36.0954 19.1133 36.2085 19.2415 36.2636 19.397C36.3187 19.5524 36.3114 19.7232 36.2432 19.8734C36.175 20.0236 36.0513 20.1416 35.8979 20.2027L33.3354 21.1131C33.267 21.1386 33.1947 21.1522 33.1217 21.1531Z" fill="white"/>
<path d="M30.7713 10.6492C30.6205 10.6495 30.4745 10.5966 30.359 10.4997C30.2436 10.4028 30.1661 10.2682 30.1404 10.1198C30.1148 9.97135 30.1424 9.81862 30.2186 9.68862C30.2948 9.55862 30.4145 9.45973 30.5567 9.40946L33.298 8.4369C33.4556 8.388 33.6261 8.40198 33.7737 8.47591C33.9212 8.54985 34.0344 8.67799 34.0895 8.83348C34.1446 8.98897 34.1372 9.15972 34.0691 9.30993C34.0009 9.46014 33.8771 9.57815 33.7238 9.6392L30.9884 10.6152C30.9196 10.6383 30.8473 10.6498 30.7747 10.6492H30.7713Z" fill="white"/>
<path d="M37.5219 24.8634C37.3712 24.8635 37.2253 24.8104 37.11 24.7135C36.9947 24.6165 36.9174 24.482 36.8918 24.3336C36.8663 24.1852 36.894 24.0326 36.9702 23.9027C37.0464 23.7727 37.1661 23.6739 37.3081 23.6237L40.0597 22.6469C40.2173 22.598 40.3878 22.6119 40.5354 22.6859C40.6829 22.7598 40.7961 22.888 40.8512 23.0434C40.9062 23.1989 40.8989 23.3697 40.8307 23.5199C40.7626 23.6701 40.6388 23.7881 40.4855 23.8492L37.739 24.826C37.6694 24.8511 37.5959 24.8638 37.5219 24.8634Z" fill="white"/>
<path d="M33.6622 9.68075C33.6369 9.68077 33.6116 9.67907 33.5864 9.67564C33.5033 9.66572 33.4229 9.63971 33.3497 9.59906C33.2766 9.55783 33.2121 9.50295 33.1598 9.4374C33.0556 9.30401 33.0081 9.13495 33.0278 8.96686C33.5217 4.82478 35.7913 1.6493 39.0998 0.475087C39.1791 0.445241 39.2637 0.431642 39.3484 0.435096C39.433 0.438609 39.5161 0.458853 39.5928 0.494657C39.6696 0.530731 39.7385 0.581632 39.7955 0.644428C39.8525 0.707223 39.8965 0.78067 39.925 0.860535C39.9812 1.022 39.9711 1.19917 39.8969 1.35319C39.8596 1.42922 39.8076 1.4971 39.7438 1.55289C39.6801 1.60869 39.6059 1.65129 39.5256 1.67823C36.6872 2.68652 34.731 5.46805 34.2958 9.11832C34.2773 9.27325 34.2026 9.41603 34.0859 9.51966C33.9691 9.6233 33.8184 9.6806 33.6622 9.68075Z" fill="white"/>
<path d="M44.8133 24.8046C43.0556 24.8046 41.2545 24.2575 39.5555 23.1879C36.993 21.5713 34.9628 18.9386 33.8387 15.7793C33.6362 15.211 33.4656 14.6317 33.3277 14.0444C33.3072 13.9623 33.3031 13.877 33.3158 13.7934C33.3285 13.7097 33.3574 13.6294 33.401 13.5568C33.4448 13.4848 33.5028 13.4223 33.5713 13.373C33.6399 13.3233 33.7178 13.2877 33.8004 13.2684C33.8842 13.2491 33.9711 13.2468 34.0558 13.2616C34.1393 13.2753 34.219 13.306 34.29 13.3518C34.3615 13.3958 34.4234 13.4537 34.4723 13.5219C34.5207 13.5914 34.5548 13.6698 34.5728 13.7525C34.6993 14.2929 34.856 14.8258 35.042 15.3488C37.1455 21.2624 42.5796 24.751 47.1561 23.1267C47.236 23.0952 47.3214 23.0799 47.4073 23.0816C47.4933 23.0834 47.5779 23.1028 47.656 23.1386C47.7346 23.1736 47.8051 23.2246 47.863 23.2883C47.9211 23.3514 47.9659 23.4255 47.995 23.5062C48.0233 23.5881 48.0352 23.6749 48.0299 23.7614C48.0246 23.8472 48.002 23.9311 47.9636 24.008C47.9251 24.0849 47.8714 24.1533 47.8059 24.209C47.7401 24.2643 47.664 24.3059 47.5819 24.3315C46.6931 24.6456 45.757 24.8053 44.8142 24.8037L44.8133 24.8046Z" fill="white"/>
<path d="M47.0216 13.1976C46.9107 13.1975 46.8018 13.1686 46.7055 13.1137C46.6092 13.0589 46.5288 12.98 46.4722 12.8848C46.4156 12.7895 46.3848 12.6812 46.3827 12.5705C46.3806 12.4597 46.4074 12.3504 46.4604 12.2531L49.4589 6.77426C49.5402 6.62577 49.6772 6.51564 49.8398 6.46809C50.0024 6.42054 50.1772 6.43946 50.3258 6.5207C50.4744 6.60194 50.5847 6.73884 50.6323 6.90128C50.6799 7.06373 50.6609 7.23841 50.5796 7.3869L47.5836 12.8623C47.5289 12.9636 47.4477 13.0482 47.3488 13.1072C47.2499 13.1662 47.1368 13.1974 47.0216 13.1976Z" fill="white"/>
<path d="M41.027 11.7418C40.9161 11.7415 40.8071 11.7122 40.7111 11.6567C40.5656 11.5739 40.4586 11.4373 40.413 11.2764C40.3674 11.1155 40.387 10.9431 40.4675 10.7964L41.8735 8.22763C41.9136 8.1538 41.968 8.08871 42.0336 8.03618C42.099 7.98391 42.1739 7.9449 42.2542 7.92132C42.4168 7.87376 42.5916 7.89242 42.7404 7.97322C42.814 8.0138 42.879 8.06811 42.9321 8.13318C42.9848 8.19863 43.0242 8.2738 43.0479 8.35441C43.071 8.43508 43.0785 8.5194 43.07 8.60287C43.0606 8.68608 43.0351 8.76669 42.9951 8.84027L41.5882 11.415C41.5327 11.5149 41.4513 11.5981 41.3526 11.6557C41.2538 11.7134 41.1414 11.7434 41.027 11.7426V11.7418Z" fill="white"/>
<path d="M64.3729 32.2114C67.3484 29.1678 66.6161 23.6311 62.737 19.8455C58.8579 16.06 53.302 15.4576 50.3299 18.5011C47.3578 21.5447 48.0859 27.0814 51.965 30.867C55.8441 34.6525 61.4008 35.255 64.3729 32.2114Z" fill="#007EEF"/>
<path d="M59.4687 34.7936C59.1242 34.7936 58.7799 34.7749 58.4374 34.7375C55.9516 34.4677 53.4981 33.2561 51.5156 31.3254C49.533 29.3948 48.2684 26.9681 47.9388 24.4912C47.605 21.9573 48.2863 19.6726 49.8686 18.0577C51.4508 16.4427 53.7178 15.7041 56.2616 15.9807C58.7466 16.2496 61.2051 17.4612 63.1826 19.3919C65.16 21.3225 66.4306 23.7492 66.7593 26.2261C67.0949 28.76 66.4093 31.0455 64.8304 32.6605C63.4679 34.0534 61.5909 34.7936 59.4687 34.7936ZM55.2465 17.2017C53.5237 17.2017 51.9363 17.7726 50.784 18.9511C49.4845 20.2793 48.925 22.1844 49.2077 24.3261C49.4973 26.5205 50.6341 28.6826 52.4089 30.4141C54.1836 32.1457 56.3731 33.2314 58.5754 33.4697C60.7197 33.7028 62.6171 33.0987 63.9167 31.7679C65.2162 30.4371 65.7757 28.5303 65.493 26.3912C65.2034 24.1959 64.0666 22.0338 62.2918 20.3023C60.202 18.2644 57.5986 17.2017 55.2465 17.2017Z" fill="#007EEF"/>
<path d="M62.5267 34.1028L64.1626 32.4325L50.1162 18.7197L48.4803 20.3934C45.4997 23.4361 46.2363 28.9728 50.1154 32.7592C53.9944 36.5456 59.5503 37.1464 62.5267 34.1028Z" fill="#007EEF"/>
<path d="M57.6216 36.6863C57.2774 36.6863 56.9334 36.6676 56.5912 36.6302C54.1053 36.3604 51.6467 35.1488 49.6693 33.2181C47.6919 31.2875 46.4255 28.8582 46.0925 26.3796C45.757 23.8457 46.4426 21.5602 48.0214 19.9453L49.6599 18.2724C49.7184 18.2124 49.7882 18.1644 49.8652 18.1312C50.021 18.0652 50.1966 18.063 50.354 18.1252C50.4318 18.1566 50.5027 18.2028 50.5626 18.2614L64.609 31.9724C64.7302 32.0908 64.7994 32.2523 64.8015 32.4215C64.8035 32.5908 64.7383 32.754 64.6201 32.8752L62.9833 34.5455C61.6208 35.9418 59.7447 36.6863 57.6216 36.6863ZM50.1275 19.6245L48.9352 20.8421C46.2101 23.6287 46.939 28.7714 50.5601 32.3051C52.334 34.0367 54.5243 35.1224 56.7266 35.3606C58.8709 35.5929 60.7692 34.9897 62.0679 33.6589L63.2601 32.4421L50.1275 19.6245Z" fill="#007EEF"/>
<path d="M49.8403 33.344C49.7467 33.3436 49.6544 33.3227 49.5698 33.2827C49.4852 33.2426 49.4104 33.1845 49.3508 33.1124C49.2911 33.0404 49.2481 32.9561 49.2247 32.8655C49.2012 32.775 49.198 32.6804 49.2153 32.5884C49.2383 32.4651 49.2976 32.3513 49.3856 32.2617L50.9415 30.6723C51.0603 30.5515 51.2222 30.4829 51.3917 30.4815C51.5611 30.48 51.7242 30.5459 51.845 30.6646C51.9659 30.7833 52.0345 30.9451 52.036 31.1144C52.0374 31.2837 51.9715 31.4467 51.8527 31.5674L50.3002 33.1551C50.2404 33.2164 50.1689 33.2651 50.0899 33.2981C50.0109 33.3314 49.926 33.3482 49.8403 33.3474V33.344Z" fill="white"/>
<path d="M55.26 36.3705C55.134 36.3707 55.0108 36.3337 54.9057 36.2642C54.8275 36.2121 54.7618 36.1435 54.7132 36.0631C54.6646 35.9828 54.6343 35.8927 54.6245 35.7993C54.6148 35.706 54.6258 35.6116 54.6567 35.5229C54.6876 35.4343 54.7378 35.3536 54.8035 35.2865L56.4684 33.5847C56.5886 33.4742 56.7466 33.4138 56.91 33.4161C57.0734 33.4184 57.2297 33.4831 57.3467 33.597C57.4637 33.7109 57.5327 33.8653 57.5393 34.0284C57.5459 34.1915 57.4896 34.3509 57.3822 34.4739L55.7164 36.1757C55.6573 36.2372 55.5863 36.2861 55.5078 36.3195C55.4296 36.3533 55.3452 36.3707 55.26 36.3705Z" fill="white"/>
<path d="M48.6344 25.4414C48.4844 25.4411 48.3394 25.3881 48.2246 25.2916C48.1099 25.1952 48.0327 25.0614 48.0068 24.9139C47.5324 22.2481 48.2137 19.7524 49.8701 18.0558C49.9281 17.9944 49.9979 17.9452 50.0753 17.9111C50.1529 17.8777 50.2361 17.8595 50.3206 17.8575C50.4052 17.8559 50.4893 17.8712 50.568 17.9025C50.6467 17.9338 50.7183 17.9804 50.7787 18.0396C50.8697 18.1286 50.9321 18.2427 50.9579 18.3673C50.9837 18.4919 50.9717 18.6213 50.9235 18.739C50.8909 18.8169 50.8435 18.8877 50.7839 18.9475C49.4213 20.3421 48.866 22.4361 49.2646 24.6918C49.2791 24.7744 49.2773 24.8591 49.2595 24.9411C49.2414 25.023 49.2072 25.1005 49.159 25.1691C49.1107 25.2378 49.0494 25.2962 48.9784 25.341C48.9077 25.3861 48.8286 25.4168 48.746 25.4312C48.7092 25.438 48.6718 25.4414 48.6344 25.4414Z" fill="white"/>
<path d="M59.4687 34.7938C59.1242 34.7938 58.7799 34.7751 58.4374 34.7376C55.9516 34.4679 53.4981 33.2563 51.5155 31.3256C50.5355 30.3743 49.7146 29.272 49.0842 28.0608C49.0456 27.9864 49.0222 27.905 49.0152 27.8215C49.0082 27.738 49.0177 27.6539 49.0433 27.5741C49.0687 27.4942 49.1098 27.4201 49.1642 27.3563C49.2183 27.2924 49.2843 27.2395 49.3584 27.2006C49.4332 27.1624 49.5148 27.1393 49.5986 27.1325C49.6819 27.1248 49.7659 27.1341 49.8455 27.1597C49.9255 27.1856 49.9998 27.2266 50.0644 27.2805C50.1284 27.3347 50.181 27.4009 50.2194 27.4754C50.7866 28.5656 51.5259 29.5574 52.4089 30.4126C54.1828 32.145 56.3731 33.2299 58.5754 33.4681C60.7197 33.7013 62.6171 33.0971 63.9166 31.7664C63.975 31.7063 64.0448 31.6586 64.1219 31.626C64.1991 31.5928 64.2821 31.5751 64.3661 31.5741C64.4502 31.5731 64.5336 31.5887 64.6116 31.62C64.6892 31.6515 64.7601 31.6978 64.8202 31.7562C64.9408 31.8749 65.0099 32.0363 65.0127 32.2054C65.0136 32.2893 64.998 32.3725 64.9667 32.4503C64.9354 32.5281 64.8891 32.599 64.8304 32.6589C63.4678 34.0535 61.5909 34.7938 59.4687 34.7938Z" fill="white"/>
<path d="M56.5943 22.3176C56.4794 22.3173 56.3667 22.2862 56.268 22.2274C56.1693 22.1686 56.0883 22.0843 56.0335 21.9834C55.9787 21.8825 55.9521 21.7687 55.9565 21.6539C55.961 21.5392 55.9962 21.4278 56.0587 21.3314L57.9569 18.412C58.0492 18.27 58.1941 18.1704 58.3599 18.1351C58.5257 18.0998 58.6987 18.1318 58.8409 18.224C58.9831 18.3162 59.0828 18.461 59.118 18.6267C59.1533 18.7923 59.1213 18.9651 59.0291 19.1072L57.13 22.0266C57.0721 22.1159 56.9928 22.1893 56.8992 22.2402C56.8056 22.291 56.7008 22.3176 56.5943 22.3176Z" fill="white"/>
<path d="M59.891 28.8714C59.7762 28.8708 59.6637 28.8395 59.5653 28.7805C59.4668 28.7216 59.386 28.6373 59.3314 28.5364C59.2768 28.4356 59.2504 28.3219 59.2549 28.2073C59.2594 28.0927 59.2947 27.9815 59.357 27.8852L62.0242 23.7831C62.0697 23.7127 62.1287 23.652 62.1979 23.6045C62.267 23.557 62.3449 23.5237 62.4271 23.5066C62.5094 23.49 62.5942 23.49 62.6766 23.5066C62.7797 23.5259 62.8765 23.5703 62.9584 23.6359C63.0403 23.7015 63.1049 23.7862 63.1463 23.8825C63.1877 23.9789 63.2047 24.084 63.1959 24.1884C63.187 24.2929 63.1526 24.3936 63.0956 24.4817L60.4283 28.5838C60.3705 28.6731 60.2911 28.7465 60.1976 28.7974C60.104 28.8482 59.9992 28.8748 59.8927 28.8748L59.891 28.8714Z" fill="white"/>
<path d="M55.1458 28.5309C55.0309 28.5306 54.9182 28.4995 54.8195 28.4407C54.7208 28.3818 54.6398 28.2976 54.585 28.1967C54.5302 28.0957 54.5036 27.9819 54.508 27.8672C54.5125 27.7525 54.5478 27.6411 54.6102 27.5447L55.2625 26.5424C55.3555 26.4005 55.501 26.3014 55.667 26.2667C55.7493 26.2497 55.8342 26.2497 55.9165 26.2667C56.0415 26.2893 56.1569 26.3487 56.2479 26.4372C56.3389 26.5258 56.4014 26.6394 56.4275 26.7636C56.4445 26.8458 56.4445 26.9307 56.4275 27.0129C56.4121 27.0954 56.3806 27.174 56.3347 27.2443L55.6824 28.2467C55.6238 28.3351 55.5442 28.4076 55.4507 28.4577C55.3574 28.5081 55.2528 28.5341 55.1467 28.5334L55.1458 28.5309Z" fill="white"/>
<path d="M81.8794 51.824C81.7101 51.8238 81.5478 51.7565 81.428 51.6368C81.3083 51.5172 81.2409 51.355 81.2407 51.1858V26.455H71.5664C71.397 26.455 71.2346 26.3878 71.1148 26.2681C70.995 26.1484 70.9277 25.9861 70.9277 25.8169C70.9277 25.6476 70.995 25.4853 71.1148 25.3656C71.2346 25.2459 71.397 25.1787 71.5664 25.1787H81.8794C82.0487 25.1789 82.2111 25.2462 82.3308 25.3659C82.4505 25.4855 82.5179 25.6477 82.5181 25.8169V51.1858C82.5179 51.355 82.4505 51.5172 82.3308 51.6368C82.2111 51.7565 82.0487 51.8238 81.8794 51.824Z" fill="#162B43"/>
<path d="M115.847 19.1082L109.077 15.4111L73.8796 79.7512L80.6474 83.4483L115.847 19.1082Z" fill="#162B43"/>
<path d="M80.6396 84.0893C80.5324 84.09 80.4268 84.0631 80.333 84.011L73.5628 80.3131C73.4889 80.2734 73.4237 80.2193 73.3711 80.154C73.3186 80.0888 73.2792 80.0139 73.2553 79.9336C73.2077 79.7712 73.2264 79.5965 73.3073 79.4478L108.508 15.1102C108.589 14.9616 108.726 14.8513 108.888 14.8034C109.051 14.7555 109.226 14.7741 109.375 14.855L116.145 18.5529C116.219 18.5929 116.284 18.647 116.336 18.712C116.389 18.7773 116.429 18.8525 116.452 18.9332C116.476 19.0135 116.484 19.0976 116.475 19.1809C116.466 19.2643 116.44 19.3452 116.4 19.4191L81.2 83.7575C81.1597 83.8317 81.1052 83.8972 81.0396 83.9503C80.974 84.0035 80.8986 84.0432 80.8176 84.0672C80.7595 84.0824 80.6997 84.0898 80.6396 84.0893ZM74.7363 79.5005L80.385 82.585L114.975 19.3646L109.325 16.2819L74.7363 79.5005Z" fill="#162B43"/>
<path d="M70.1325 95.2541C69.9652 95.2543 69.8046 95.1887 69.6854 95.0715C69.5662 94.9543 69.498 94.7949 69.4955 94.6278C69.4932 94.5174 69.5199 94.4082 69.573 94.3113L71.2498 91.2481C71.3332 91.1037 71.4698 90.9976 71.6304 90.9525C71.791 90.9074 71.9629 90.9269 72.1094 91.0068C72.2558 91.0868 72.3651 91.2208 72.4139 91.3802C72.4627 91.5396 72.4471 91.7118 72.3705 91.8599L70.6937 94.9231C70.6384 95.0234 70.5572 95.1071 70.4587 95.1656C70.3597 95.2231 70.247 95.2526 70.1325 95.2507V95.2541Z" fill="#162B43"/>
<path d="M79.6874 80.1746C79.5806 80.1745 79.4755 80.1476 79.3817 80.0963L74.9934 77.6994C74.9197 77.6593 74.8549 77.6049 74.8026 77.5394C74.7231 77.4413 74.6746 77.3217 74.6634 77.1959C74.6522 77.0701 74.6787 76.9438 74.7396 76.8332C74.7797 76.7596 74.8341 76.6948 74.8997 76.6426C74.9979 76.5631 75.1176 76.5147 75.2435 76.5035C75.3694 76.4923 75.4958 76.5188 75.6065 76.5796L79.9949 78.9757C80.1194 79.0438 80.2177 79.1513 80.2742 79.2814C80.3308 79.4115 80.3423 79.5567 80.3071 79.6941C80.2718 79.8315 80.1918 79.9532 80.0796 80.04C79.9674 80.1269 79.8294 80.1739 79.6874 80.1737V80.1746Z" fill="#DBF122"/>
<path d="M113.23 25.3848L105.24 21.0215L103.761 23.7239L111.751 28.0872L113.23 25.3848Z" fill="#DBF122"/>
<path d="M99.9729 37.609C99.862 37.6091 99.753 37.5803 99.6566 37.5254C99.5603 37.4704 99.48 37.3913 99.4236 37.2959C99.3682 37.2005 99.3388 37.0922 99.3384 36.9819C99.3369 36.8711 99.3638 36.7618 99.4168 36.6645L102.782 30.5135C102.823 30.44 102.877 30.3751 102.942 30.3226C103.008 30.27 103.083 30.2309 103.163 30.2073C103.244 30.1838 103.328 30.1763 103.412 30.1854C103.495 30.1944 103.576 30.2197 103.649 30.26C103.723 30.3002 103.788 30.3545 103.84 30.4198C103.893 30.4851 103.932 30.5601 103.956 30.6405C103.979 30.721 103.987 30.8053 103.978 30.8886C103.969 30.9719 103.943 31.0526 103.903 31.1262L100.538 37.2772C100.483 37.3777 100.402 37.4615 100.303 37.5199C100.204 37.5783 100.092 37.6091 99.9772 37.609H99.9729Z" fill="#DBF122"/>
<path d="M87.558 60.2917C87.447 60.2918 87.338 60.2629 87.2417 60.208C87.1453 60.1531 87.065 60.074 87.0087 59.9785C86.9518 59.8836 86.9209 59.7753 86.9193 59.6646C86.9177 59.5538 86.9446 59.4445 86.9976 59.3472L97.9765 39.2826C98.0156 39.2071 98.0694 39.1401 98.1348 39.0856C98.2001 39.0312 98.2757 38.9903 98.3571 38.9654C98.4385 38.9405 98.524 38.9322 98.6087 38.9408C98.6934 38.9494 98.7754 38.9749 98.8501 39.0156C98.9248 39.0564 98.9906 39.1117 99.0436 39.1782C99.0966 39.2447 99.1358 39.3212 99.1588 39.403C99.1818 39.4849 99.1882 39.5706 99.1777 39.6549C99.1671 39.7393 99.1397 39.8207 99.0972 39.8944L88.1217 59.9598C88.0664 60.0608 87.9848 60.1449 87.8856 60.2034C87.7864 60.2618 87.6731 60.2923 87.558 60.2917Z" fill="#DBF122"/>
<path d="M79.2668 75.4496C79.0995 75.4492 78.9391 75.3833 78.8199 75.2661C78.7006 75.1489 78.6321 74.9896 78.629 74.8225C78.6274 74.7117 78.6544 74.6024 78.7073 74.5051L84.9326 63.1272C84.9728 63.0536 85.0272 62.9887 85.0926 62.9361C85.158 62.8835 85.2331 62.8443 85.3136 62.8207C85.3941 62.7971 85.4786 62.7896 85.562 62.7986C85.6454 62.8076 85.7263 62.833 85.7999 62.8732C85.8736 62.9134 85.9386 62.9677 85.9912 63.0331C86.0438 63.0984 86.0831 63.1734 86.1067 63.2539C86.1303 63.3344 86.1378 63.4187 86.1288 63.5021C86.1198 63.5854 86.0944 63.6662 86.0541 63.7398L79.828 75.1178C79.7732 75.2185 79.692 75.3026 79.5932 75.361C79.4944 75.4194 79.3816 75.45 79.2668 75.4496Z" fill="#DBF122"/>
<path d="M117.685 10.0605C117.767 9.9166 117.819 9.75782 117.839 9.59342C117.859 9.42903 117.846 9.26232 117.8 9.10305C117.755 8.94377 117.678 8.79513 117.575 8.66582C117.471 8.53651 117.343 8.42912 117.197 8.34992C117.052 8.27073 116.892 8.22133 116.727 8.20461C116.562 8.18789 116.396 8.20418 116.237 8.25254C116.079 8.30089 115.931 8.38034 115.804 8.48623C115.676 8.59213 115.571 8.72234 115.495 8.86926L113.349 12.7978C113.267 12.9417 113.214 13.1004 113.195 13.2648C113.175 13.4292 113.188 13.5959 113.233 13.7552C113.278 13.9145 113.355 14.0631 113.459 14.1924C113.562 14.3218 113.691 14.4291 113.836 14.5083C113.982 14.5875 114.142 14.6369 114.306 14.6537C114.471 14.6704 114.638 14.6541 114.796 14.6057C114.955 14.5574 115.102 14.4779 115.23 14.372C115.357 14.2661 115.462 14.1359 115.538 13.989L117.685 10.0605Z" fill="#007EEF"/>
<path d="M114.144 15.1928C113.88 15.1928 113.618 15.1372 113.377 15.0295C113.135 14.9219 112.919 14.7647 112.743 14.5682C112.566 14.3717 112.433 14.1402 112.351 13.8888C112.27 13.6374 112.243 13.3717 112.271 13.109C112.298 12.8635 112.373 12.6256 112.491 12.4088L114.636 8.48962C114.875 8.05081 115.28 7.72513 115.76 7.58423C116.24 7.44333 116.756 7.49875 117.196 7.73829C117.635 7.97784 117.961 8.38189 118.102 8.86156C118.243 9.34123 118.187 9.85723 117.948 10.296L115.799 14.2101C115.681 14.4271 115.521 14.6186 115.328 14.7736C115.135 14.9285 114.914 15.0438 114.677 15.1129C114.504 15.1634 114.324 15.1892 114.144 15.1894V15.1928ZM116.292 8.78658C116.234 8.78666 116.177 8.79497 116.122 8.81125C115.968 8.85668 115.838 8.96133 115.761 9.10225L113.617 13.0188C113.54 13.1597 113.523 13.3253 113.568 13.4792C113.613 13.6331 113.717 13.7628 113.858 13.8399C113.999 13.9167 114.165 13.9347 114.319 13.8901C114.473 13.8447 114.603 13.7401 114.68 13.5991L116.824 9.6851C116.874 9.59323 116.899 9.49017 116.897 9.38585C116.895 9.28153 116.866 9.17946 116.813 9.08949C116.76 8.99905 116.684 8.92403 116.593 8.87181C116.502 8.81959 116.399 8.79197 116.294 8.79168L116.292 8.78658Z" fill="#007EEF"/>
<path d="M105.586 46.9224C105.472 46.9222 105.361 46.8917 105.263 46.8341C105.165 46.7765 105.085 46.6939 105.03 46.5948C104.974 46.4958 104.946 46.3839 104.949 46.2706C104.951 46.1573 104.983 46.0466 105.042 45.9499L118.338 24.312C118.523 24.0121 118.644 23.678 118.695 23.3299C118.746 22.9817 118.725 22.6269 118.635 22.2869C118.544 21.9469 118.386 21.6288 118.168 21.3519C117.951 21.075 117.68 20.8451 117.371 20.6762L115.535 19.673C115.461 19.633 115.396 19.5786 115.344 19.5131C115.265 19.4149 115.216 19.2953 115.205 19.1695C115.194 19.0438 115.22 18.9175 115.281 18.8068C115.321 18.7332 115.376 18.6684 115.441 18.6162C115.54 18.5368 115.659 18.4883 115.785 18.4771C115.911 18.4659 116.037 18.4924 116.148 18.5533L117.984 19.5564C118.445 19.8082 118.85 20.1509 119.174 20.5639C119.498 20.9768 119.735 21.4513 119.87 21.9585C120.005 22.4657 120.035 22.995 119.959 23.5143C119.883 24.0336 119.702 24.5319 119.427 24.9791L106.131 46.617C106.074 46.7103 105.994 46.7874 105.898 46.8408C105.803 46.8942 105.695 46.922 105.586 46.9216V46.9224Z" fill="#007EEF"/>
<path d="M109.071 15.4147L111.446 11.0752C111.446 11.0752 119.205 12.9667 115.842 19.1134L109.071 15.4147Z" fill="white"/>
<path d="M115.841 19.7545C115.734 19.7547 115.629 19.7278 115.535 19.6762L108.763 15.9766C108.614 15.8955 108.504 15.7587 108.456 15.5963C108.408 15.4339 108.427 15.2591 108.508 15.1104L110.883 10.7709C110.95 10.6473 111.056 10.5495 111.185 10.4927C111.314 10.4359 111.458 10.4233 111.595 10.4569C111.76 10.4969 115.662 11.478 116.932 14.3531C117.595 15.8566 117.416 17.5618 116.399 19.4218C116.344 19.522 116.263 19.6058 116.165 19.6643C116.067 19.7228 115.955 19.754 115.841 19.7545ZM109.938 15.1597L115.563 18.2331C116.126 16.973 116.195 15.843 115.765 14.8679C114.979 13.0811 112.734 12.1587 111.757 11.8328L109.938 15.1597Z" fill="#007EEF"/>
<path d="M73.8694 79.7539C71.0514 85.5492 70.1087 90.623 71.8102 91.553C73.5117 92.4831 77.2784 88.9502 80.6397 83.4518L73.8694 79.7539Z" fill="#DBF122"/>
<path d="M72.4326 92.3453C72.1083 92.3477 71.7887 92.2681 71.5035 92.1139C70.3964 91.508 70.0635 89.9118 70.5157 87.3668C70.91 85.1545 71.897 82.3466 73.2944 79.4749C73.3323 79.3972 73.3856 79.3281 73.451 79.2716C73.5165 79.2152 73.5927 79.1726 73.6751 79.1465C73.7575 79.1201 73.8445 79.1108 73.9306 79.1192C74.0167 79.1269 74.1002 79.1524 74.1759 79.1941L80.9453 82.8895C81.0212 82.9309 81.0879 82.9872 81.1414 83.0551C81.1948 83.123 81.2339 83.2011 81.2563 83.2846C81.2787 83.368 81.2839 83.4551 81.2715 83.5407C81.2592 83.6262 81.2296 83.7083 81.1846 83.7821C79.5171 86.51 77.6879 88.8533 76.0358 90.3789C74.6213 91.6884 73.4137 92.3453 72.4326 92.3453ZM74.1554 80.6372C71.3622 86.601 71.1535 90.4683 72.1116 90.9941C72.2126 91.0449 72.3246 91.0701 72.4377 91.0673C73.6658 91.0673 76.5484 88.7367 79.736 83.6885L74.1554 80.6372Z" fill="#DBF122"/>
<path d="M24.1985 30.0113C22.3505 30.0113 20.8364 29.574 20.6115 28.4619C20.5 27.9097 20.6967 27.0622 22.262 26.1645C23.2839 25.5757 24.6924 25.0822 26.2219 24.7733C29.1634 24.1777 32.4847 24.3113 32.8261 26.0011C32.9394 26.5602 32.741 27.417 31.1323 28.3266C31.0595 28.3758 30.9771 28.4092 30.8904 28.4244C30.8041 28.4404 30.7154 28.4383 30.6299 28.4185C30.5444 28.3983 30.464 28.3608 30.3936 28.3083C30.3233 28.2557 30.2646 28.1892 30.2211 28.113C30.1775 28.0367 30.1502 27.9522 30.1409 27.8649C30.1315 27.7776 30.1403 27.6893 30.1667 27.6055C30.1931 27.5217 30.2365 27.4442 30.2942 27.378C30.3519 27.3117 30.4227 27.2581 30.5021 27.2204C31.4287 26.6955 31.5845 26.3075 31.5743 26.2581C31.5641 26.2088 31.2796 25.9178 30.2534 25.7918C29.2273 25.6659 27.8732 25.7467 26.4749 26.0284C25.0765 26.31 23.8068 26.7533 22.8981 27.2749C21.9894 27.7965 21.8523 28.1683 21.8617 28.2168C21.8711 28.2653 22.1564 28.5572 23.1825 28.6831C24.2087 28.809 25.567 28.7282 26.962 28.4466C27.2754 28.3827 27.5879 28.3104 27.8911 28.2304C27.9724 28.2086 28.0571 28.2029 28.1406 28.2134C28.224 28.2244 28.3044 28.2518 28.3772 28.2939C28.45 28.336 28.5137 28.3921 28.5648 28.4589C28.6158 28.5257 28.6531 28.6019 28.6746 28.6832C28.6961 28.7644 28.7013 28.8491 28.6899 28.9324C28.679 29.0156 28.6515 29.0958 28.609 29.1681C28.5666 29.2408 28.5102 29.3043 28.4431 29.3551C28.376 29.406 28.2996 29.443 28.2181 29.4642C27.8911 29.5493 27.553 29.6293 27.2141 29.6974C26.2214 29.8992 25.2115 30.0043 24.1985 30.0113Z" fill="white"/>
<path d="M3.55112 23.8931C3.4333 23.8936 3.31764 23.8615 3.21694 23.8004C3.11624 23.7393 3.03443 23.6515 2.98054 23.5468C2.92633 23.442 2.90245 23.3241 2.91156 23.2065C2.92132 23.0915 2.96257 22.9814 3.03079 22.8882L4.98267 20.1416C5.0821 20.0072 5.23031 19.9172 5.39547 19.8908C5.56062 19.8644 5.72954 19.9038 5.86593 20.0006C6.00232 20.0973 6.09529 20.2436 6.12489 20.4081C6.15448 20.5725 6.11832 20.742 6.02419 20.8802L4.0723 23.6242C4.01305 23.7072 3.93487 23.7749 3.84424 23.8216C3.7536 23.8684 3.65312 23.8929 3.55112 23.8931Z" fill="#DBF122"/>
<path d="M11.4968 40.8985C11.4166 40.8983 11.3372 40.8833 11.2626 40.8543L7.85615 39.5099C7.70073 39.4462 7.57667 39.3239 7.51083 39.1696C7.44499 39.0152 7.44267 38.8411 7.50438 38.685C7.56608 38.5289 7.68684 38.4034 7.84051 38.3356C7.99418 38.2678 8.16837 38.2633 8.32538 38.3229L11.7318 39.6664C11.8704 39.7209 11.9855 39.8219 12.0574 39.9522C12.1293 40.0825 12.1534 40.2337 12.1255 40.3798C12.0977 40.526 12.0196 40.6578 11.9048 40.7525C11.79 40.8472 11.6456 40.8988 11.4968 40.8985Z" fill="#DBF122"/>
<path d="M103.339 95.4819C103.294 95.4822 103.249 95.4773 103.205 95.4675C103.123 95.4503 103.045 95.417 102.976 95.3696C102.907 95.3221 102.848 95.2614 102.803 95.1909C102.757 95.1208 102.725 95.0421 102.711 94.9595C102.694 94.8775 102.694 94.793 102.711 94.711L103.835 89.4466C103.85 89.3624 103.882 89.282 103.929 89.2101C103.987 89.1201 104.067 89.0464 104.162 88.9957C104.257 88.945 104.363 88.9189 104.47 88.92C104.577 88.921 104.683 88.949 104.776 89.0015C104.87 89.054 104.949 89.1293 105.006 89.2203C105.05 89.2937 105.079 89.3749 105.091 89.4594C105.104 89.5444 105.1 89.6313 105.079 89.7147L103.956 94.9731C103.926 95.1168 103.848 95.2459 103.734 95.339C103.621 95.4323 103.479 95.4835 103.332 95.4836L103.339 95.4819Z" fill="white"/>
<path d="M105.587 84.9526C105.542 84.9527 105.497 84.9475 105.453 84.9373C105.371 84.9203 105.293 84.887 105.224 84.8395C105.155 84.7922 105.095 84.7317 105.05 84.6614C105.004 84.5912 104.973 84.5126 104.958 84.4302C104.941 84.3479 104.941 84.2632 104.958 84.1809L111.846 51.9326C111.872 51.8088 111.935 51.6956 112.026 51.6075C112.117 51.5195 112.232 51.4605 112.357 51.4382C112.439 51.4216 112.524 51.4216 112.606 51.4382C112.73 51.4645 112.844 51.5271 112.932 51.6181C113.02 51.709 113.079 51.8241 113.101 51.9488C113.118 52.031 113.118 52.1158 113.101 52.1981L106.213 84.4464C106.183 84.5891 106.104 84.717 105.991 84.8088C105.877 84.9006 105.736 84.9511 105.59 84.9518L105.587 84.9526Z" fill="white"/>
<path d="M33.9519 20.8603C35.8561 20.3685 36.7264 21.1632 38.8972 22.7322L36.488 19.4316L33.9519 20.8603Z" fill="white"/>
<path d="M5.75932 106.856C5.55749 108.594 4.85066 111.72 12.6224 111.67L4.29541 112.225L5.75932 106.856Z" fill="#162B43"/>
<path d="M111.176 12.8809C110.722 13.8645 110.022 15.1502 113.352 17.0791L109.146 15.2812L111.176 12.8809Z" fill="#007EEF"/>
</g>
<defs>
<clipPath id="clip0_222_4726">
<rect width="120" height="120" fill="white"/>
</clipPath>
</defs>
</svg>
