<svg width="104" height="104" viewBox="0 0 104 104" fill="none" xmlns="http://www.w3.org/2000/svg">
<path d="M75.0914 19.5426C75.0914 21.2684 64.8807 22.8463 53.0412 22.8463C41.2016 22.8463 30.9272 21.2684 30.9272 19.5426C30.9272 17.8168 41.1984 16.5996 53.038 16.5996C64.8775 16.5996 75.0914 17.8162 75.0914 19.5426Z" fill="#162B43"/>
<path d="M62.1978 19.2291C66.6161 11.5759 66.6168 3.30454 62.1978 0.75347C57.7788 -1.7976 50.6163 2.33904 46.198 9.99416C41.7797 17.6493 41.7797 25.9187 46.198 28.4698C50.6163 31.0209 57.7795 26.8817 62.1978 19.2291Z" fill="#007EEF"/>
<path d="M46.836 28.4146C46.5527 28.419 46.2696 28.3955 45.9909 28.3445C45.8965 28.3239 45.807 28.2849 45.7277 28.2297C45.6483 28.1745 45.5806 28.1042 45.5284 28.0228C45.423 27.8585 45.3872 27.659 45.4288 27.4683C45.4705 27.2775 45.5862 27.1112 45.7506 27.0057C45.9149 26.9003 46.1144 26.8645 46.3051 26.9062C46.3127 26.9062 47.7167 27.1713 49.8739 26.2154C51.905 25.3168 55.0277 23.1334 58.3626 17.8439C64.7317 7.74354 60.5421 1.55546 60.4982 1.48919C60.4389 1.41038 60.396 1.32049 60.372 1.22482C60.348 1.12915 60.3435 1.02965 60.3586 0.932195C60.3821 0.785247 60.4494 0.64882 60.5518 0.540789C60.6541 0.432758 60.7867 0.35816 60.9322 0.32677C61.0286 0.306235 61.1282 0.305184 61.225 0.323679C61.3219 0.342175 61.4141 0.379844 61.4962 0.434472C61.5771 0.487739 61.6467 0.556638 61.7007 0.63713C61.7523 0.709781 62.9619 2.46105 63.2882 5.57676C63.5807 8.3974 63.1811 12.9451 59.6085 18.6182C54.0399 27.4593 48.8288 28.4146 46.836 28.4146Z" fill="#162B43"/>
<path d="M46.2055 23.7878C46.0032 23.7875 45.8085 23.7104 45.6609 23.5719C45.5133 23.4335 45.4239 23.2441 45.4108 23.0421C45.0514 17.4792 46.289 12.7308 49.0899 8.92809C49.1522 8.84387 49.2303 8.77264 49.3199 8.71842C49.501 8.60911 49.7181 8.57611 49.9235 8.62666C50.0252 8.65167 50.1209 8.69652 50.2052 8.75864C50.2896 8.82076 50.3608 8.89892 50.4148 8.98863C50.4961 9.12375 50.5356 9.27989 50.5283 9.4374C50.5211 9.59492 50.4674 9.74676 50.374 9.87383C47.7987 13.3662 46.6682 17.7616 47.0028 22.9383C47.0094 23.0427 46.9954 23.1473 46.9616 23.2464C46.9278 23.3454 46.8749 23.4367 46.8057 23.5153C46.7366 23.5938 46.6527 23.6579 46.5588 23.704C46.4649 23.7501 46.3628 23.7773 46.2584 23.7839L46.2055 23.7878Z" fill="white"/>
<path d="M54.6956 5.68086C54.5209 5.68084 54.351 5.62345 54.2122 5.51749C54.0733 5.41154 53.973 5.2629 53.9268 5.09442C53.8806 4.92594 53.891 4.74696 53.9565 4.58498C54.0219 4.423 54.1387 4.28701 54.289 4.19789C54.7849 3.8963 55.3026 3.63195 55.8376 3.40702C56.033 3.33951 56.247 3.35049 56.4345 3.43763C56.622 3.52478 56.7683 3.6813 56.8427 3.87421C56.917 4.06712 56.9136 4.28136 56.8331 4.47179C56.7526 4.66222 56.6013 4.81398 56.4112 4.89509C55.9589 5.08781 55.5212 5.31316 55.1015 5.56934C54.9785 5.64193 54.8384 5.68042 54.6956 5.68086Z" fill="white"/>
<path d="M60.9258 20.2775C60.7797 20.2788 60.6366 20.236 60.5153 20.1545L58.5735 18.8461C58.4935 18.792 58.4249 18.7227 58.3715 18.6422C58.3181 18.5617 58.2811 18.4715 58.2626 18.3767C58.2441 18.2818 58.2445 18.1843 58.2638 18.0897C58.2834 17.9949 58.3213 17.9048 58.3753 17.8246C58.4291 17.7444 58.4982 17.6758 58.5786 17.6225C58.6592 17.5691 58.7495 17.532 58.8445 17.5135C58.9394 17.4951 59.037 17.4955 59.1318 17.5148C59.2266 17.5339 59.3167 17.5716 59.3969 17.6257L61.3368 18.9347C61.469 19.0223 61.5693 19.1502 61.6229 19.2994C61.6764 19.4487 61.6803 19.6112 61.6339 19.7628C61.5876 19.9145 61.4934 20.0471 61.3656 20.1408C61.2378 20.2346 61.083 20.2845 60.9245 20.2832L60.9258 20.2775Z" fill="#162B43"/>
<path d="M64.1854 12.7412C64.1209 12.7412 64.0566 12.7328 63.9942 12.7163L62.0824 12.2065C61.9147 12.1653 61.7669 12.0666 61.6647 11.9275C61.5625 11.7885 61.5124 11.6179 61.5232 11.4456C61.5339 11.2734 61.6049 11.1104 61.7237 10.9852C61.8424 10.8599 62.0014 10.7804 62.1729 10.7605C62.27 10.7497 62.3682 10.7579 62.4622 10.7847L64.3741 11.2977C64.5031 11.3317 64.6205 11.4003 64.7136 11.4959C64.8066 11.5915 64.8719 11.7107 64.9025 11.8407C64.933 11.9706 64.9276 12.1064 64.8868 12.2335C64.846 12.3606 64.7714 12.4742 64.671 12.5621C64.537 12.6804 64.3642 12.7455 64.1854 12.745V12.7412Z" fill="#162B43"/>
<path d="M62.5603 5.61968C62.3757 5.61974 62.1978 5.55042 62.0618 5.42545C61.9259 5.30048 61.8419 5.12899 61.8265 4.945C61.8111 4.76101 61.8655 4.57794 61.9787 4.43212C62.092 4.2863 62.2559 4.18836 62.438 4.15773L64.0541 3.87796C64.1513 3.85694 64.2517 3.85583 64.3493 3.87472C64.447 3.8936 64.5397 3.93209 64.6221 3.98784C64.7044 4.0436 64.7745 4.11547 64.8283 4.19911C64.8821 4.28275 64.9183 4.37642 64.9348 4.47447C64.9513 4.57253 64.9479 4.67291 64.9247 4.7696C64.9014 4.86629 64.859 4.9573 64.7997 5.03719C64.7402 5.11678 64.6652 5.18353 64.5792 5.23347C64.4933 5.2834 64.3981 5.31548 64.2995 5.3278L62.675 5.60757C62.6372 5.61471 62.5988 5.61876 62.5603 5.61968Z" fill="#162B43"/>
<path d="M56.0242 26.0524C55.8981 26.0523 55.7741 26.0198 55.6641 25.9581C55.5541 25.8964 55.4618 25.8075 55.3959 25.7L54.4246 24.1131C54.3705 24.0307 54.3334 23.9383 54.3157 23.8413C54.298 23.7443 54.2999 23.6447 54.3214 23.5485C54.3425 23.4521 54.383 23.361 54.4406 23.2808C54.4979 23.2005 54.5709 23.1325 54.6551 23.0809C54.7393 23.0293 54.833 22.9953 54.9306 22.9807C55.0777 22.9588 55.228 22.9819 55.3617 23.0471C55.4954 23.1123 55.6061 23.2165 55.6795 23.3459L56.6507 24.9327C56.7011 25.0152 56.7347 25.1068 56.7496 25.2023C56.7645 25.2978 56.7605 25.3953 56.7377 25.4893C56.7149 25.5832 56.6738 25.6717 56.6168 25.7497C56.5597 25.8278 56.4879 25.8938 56.4053 25.9441C56.2904 26.014 56.1587 26.0514 56.0242 26.0524Z" fill="#162B43"/>
<path d="M49.9573 29.1809C49.7832 29.1809 49.6149 29.1193 49.482 29.0069C49.3491 28.8946 49.2603 28.7388 49.2314 28.5672L49.0568 27.4883C49.0414 27.3928 49.0449 27.2953 49.0672 27.2012C49.0895 27.1071 49.1301 27.0183 49.1867 26.94C49.2433 26.8616 49.3148 26.7951 49.3971 26.7444C49.4794 26.6936 49.5709 26.6596 49.6663 26.6442C49.7618 26.6288 49.8593 26.6323 49.9534 26.6546C50.0475 26.6769 50.1362 26.7175 50.2146 26.7741C50.293 26.8307 50.3595 26.9022 50.4102 26.9845C50.461 27.0668 50.495 27.1583 50.5104 27.2537L50.6844 28.3333C50.6997 28.429 50.696 28.5268 50.6735 28.621C50.651 28.7153 50.6101 28.8042 50.5531 28.8826C50.4963 28.9611 50.4243 29.0274 50.3415 29.0777C50.2589 29.1283 50.1671 29.162 50.0713 29.1771C50.0334 29.1809 49.9953 29.1822 49.9573 29.1809Z" fill="#162B43"/>
<path d="M53.0379 23.5798C47.2736 23.5798 41.8566 23.2509 37.7742 22.6563C35.7597 22.3632 34.169 22.019 33.0468 21.6309C32.1099 21.3072 30.8647 20.7591 30.8647 19.7191C30.8572 19.6212 30.8694 19.5229 30.9004 19.4298C30.9315 19.3367 30.9808 19.2507 31.0455 19.177C31.1102 19.1032 31.189 19.0431 31.2773 19.0001C31.3655 18.9572 31.4614 18.9323 31.5594 18.9269C31.6574 18.9215 31.7555 18.9357 31.8479 18.9687C31.9403 19.0017 32.0252 19.0529 32.0976 19.1191C32.17 19.1854 32.2285 19.2654 32.2695 19.3545C32.3106 19.4436 32.3335 19.5401 32.3368 19.6381C32.4687 19.7815 33.4406 20.5941 38.6415 21.2951C42.5729 21.8215 47.691 22.1121 53.0442 22.1121C58.3975 22.1121 63.4805 21.8215 67.3743 21.2951C72.5249 20.5985 73.4642 19.7853 73.593 19.6445C73.598 19.5479 73.6221 19.4532 73.6637 19.3659C73.7054 19.2786 73.7638 19.2003 73.8357 19.1355C73.9076 19.0708 73.9916 19.0209 74.0828 18.9886C74.174 18.9563 74.2707 18.9423 74.3673 18.9473C74.4639 18.9524 74.5586 18.9764 74.6459 19.0181C74.7332 19.0597 74.8115 19.1182 74.8762 19.1901C74.941 19.262 74.9909 19.3459 75.0232 19.4371C75.0555 19.5283 75.0695 19.625 75.0645 19.7216C75.0645 20.7604 73.8383 21.3097 72.9111 21.6335C71.8073 22.021 70.2281 22.3696 68.2353 22.6602C64.1828 23.2528 58.7875 23.5798 53.0379 23.5798Z" fill="#162B43"/>
<path d="M50.8546 104C32.0915 104 25.1476 98.8197 24.8532 98.6043C24.8335 98.589 24.815 98.573 24.7971 98.5565C22.3786 96.2775 20.4923 92.4602 19.189 87.2089C18.1011 82.818 17.4403 77.5629 17.2268 71.5896C16.831 60.5963 18.0718 50.4004 19.4465 47.256C21.2532 43.1276 25.11 40.9328 28.2092 39.1694C29.8719 38.2224 31.3083 37.4041 31.9692 36.5412C32.3025 36.1079 32.9888 34.3547 32.1215 27.449C31.6308 23.5437 30.8801 19.9125 30.8731 19.8774C30.8364 19.6876 30.8759 19.491 30.9829 19.3301C31.09 19.1691 31.2561 19.0568 31.4453 19.0173C31.6346 18.9778 31.8317 19.0143 31.9943 19.1189C32.1568 19.2236 32.2716 19.388 32.314 19.5766C32.321 19.6136 33.0825 23.2952 33.5796 27.2572C34.6158 35.5158 33.5019 36.9631 33.1335 37.436C32.2885 38.5398 30.7335 39.4205 28.9331 40.4446C26.0367 42.0978 22.4105 44.1645 20.8013 47.8436C19.4841 50.8516 18.328 61.0883 18.7034 71.5329C18.9704 78.9611 20.2443 92.1912 25.7773 97.4539C26.0003 97.6133 27.7529 98.8184 31.474 100.003C35.1066 101.161 41.4074 102.531 50.8616 102.531H51.2083C69.8911 102.467 73.8321 101.143 80.3273 97.38C84.0312 95.2362 86.4765 86.3638 87.038 73.0356C87.514 61.7556 86.4536 50.6961 85.1987 47.8391C83.5896 44.16 79.9672 42.0971 77.0567 40.4402C75.2564 39.4161 73.7014 38.5283 72.8564 37.4315C72.4887 36.9561 71.3759 35.5088 72.4103 27.2528C72.9003 23.2907 73.6683 19.6091 73.6753 19.5722C73.7153 19.381 73.8295 19.2136 73.9928 19.1067C74.1562 18.9997 74.3553 18.962 74.5465 19.0018C74.689 19.0316 74.8196 19.1029 74.9217 19.2068C75.0237 19.3107 75.0928 19.4425 75.12 19.5855C75.1388 19.6804 75.1388 19.7781 75.12 19.873C75.1124 19.908 74.3604 23.5393 73.8716 27.4446C73.0068 34.3502 73.6899 36.1034 74.0232 36.5368C74.6867 37.3952 76.1263 38.218 77.7832 39.165C80.8824 40.9283 84.7393 43.1232 86.546 47.2515C88.0519 50.6929 88.9492 62.5318 88.5082 73.1006C88.2482 79.2721 87.5574 84.7381 86.5116 88.9054C85.2262 94.0241 83.3927 97.3036 81.064 98.6521C74.4528 102.48 70.1664 103.933 51.214 104L50.8546 104Z" fill="#162B43"/>
<path d="M51.3709 56.5602C55.7892 48.872 55.7733 40.5719 51.3352 38.0215C46.8971 35.4711 39.7168 39.6351 35.2985 47.3259C30.8801 55.0167 30.8961 63.3142 35.3341 65.8647C39.7722 68.4151 46.9526 64.2485 51.3709 56.5602Z" fill="#007EEF"/>
<path d="M35.7361 65.9518C35.4528 65.9562 35.1698 65.9327 34.8911 65.8817C34.7003 65.84 34.5339 65.7243 34.4285 65.56C34.3231 65.3956 34.2873 65.1961 34.329 65.0054C34.3706 64.8147 34.4864 64.6483 34.6507 64.5429C34.815 64.4375 35.0145 64.4017 35.2052 64.4433C35.2123 64.4433 36.6168 64.7078 38.7741 63.7525C40.8045 62.8539 43.9246 60.6699 47.2615 55.3804C50.5824 50.1069 50.9826 45.9371 50.7347 43.3726C50.4658 40.6036 49.4066 39.0429 49.3964 39.0276C49.3411 38.9485 49.3019 38.8593 49.281 38.765C49.2488 38.6226 49.2598 38.4738 49.3124 38.3376C49.3651 38.2014 49.4571 38.084 49.5767 38.0003C49.696 37.9168 49.8373 37.8705 49.9829 37.8674C50.1284 37.8642 50.2716 37.9042 50.3944 37.9824C50.4762 38.0342 50.5468 38.1018 50.6021 38.1813C50.6538 38.2546 51.8627 40.0058 52.1877 43.1222C52.4821 45.9428 52.0826 50.4899 48.5087 56.163C42.9387 64.9958 37.7276 65.9518 35.7361 65.9518Z" fill="#162B43"/>
<path d="M35.1116 61.3249C34.9092 61.3247 34.7143 61.2475 34.5665 61.1091C34.4188 60.9707 34.3291 60.7813 34.3157 60.5792C33.9569 55.0163 35.1939 50.2679 37.9954 46.4652C38.0569 46.3805 38.135 46.3092 38.2248 46.2555C38.4059 46.1462 38.6229 46.1132 38.8283 46.1638C38.9299 46.189 39.0256 46.2338 39.11 46.2957C39.1949 46.3576 39.2667 46.4356 39.3214 46.5252C39.3761 46.6149 39.4125 46.7145 39.4286 46.8183C39.4441 46.9216 39.4393 47.027 39.4146 47.1286C39.3894 47.2303 39.3444 47.3261 39.2821 47.4103C36.7081 50.909 35.5686 55.2987 35.9044 60.4747C35.9111 60.5792 35.8972 60.684 35.8637 60.7832C35.8129 60.932 35.7193 61.0625 35.5945 61.1582C35.4698 61.2539 35.3195 61.3106 35.1626 61.321L35.1116 61.3249Z" fill="white"/>
<path d="M43.5946 43.2178C43.4195 43.2184 43.249 43.1613 43.1096 43.0553C42.9701 42.9494 42.8694 42.8004 42.8231 42.6315C42.7767 42.4626 42.7873 42.2831 42.8532 42.1208C42.919 41.9585 43.0365 41.8224 43.1874 41.7336C43.6852 41.4321 44.2047 41.1682 44.7418 40.944C44.8399 40.9039 44.9451 40.8838 45.0511 40.8848C45.1571 40.8858 45.2619 40.908 45.3592 40.95C45.4565 40.9921 45.5445 41.0531 45.618 41.1295C45.6915 41.2059 45.749 41.2963 45.7871 41.3952C45.8253 41.4941 45.8433 41.5996 45.8401 41.7056C45.837 41.8116 45.8128 41.9159 45.7688 42.0124C45.7249 42.1089 45.6622 42.1956 45.5843 42.2676C45.5064 42.3395 45.415 42.3952 45.3153 42.4314C44.8622 42.6247 44.4234 42.8503 44.0025 43.1063C43.8789 43.1792 43.7381 43.2177 43.5946 43.2178Z" fill="white"/>
<path d="M49.8286 57.8136C49.6825 57.8148 49.5393 57.7721 49.4176 57.6912L47.4764 56.3829C47.3189 56.272 47.2111 56.1037 47.1762 55.9143C47.1414 55.7248 47.1821 55.5293 47.2898 55.3695C47.3975 55.2098 47.5635 55.0987 47.7522 55.0599C47.9409 55.0212 48.1372 55.058 48.2991 55.1624L50.2403 56.4708C50.3727 56.5582 50.4733 56.6861 50.5271 56.8354C50.5808 56.9847 50.5848 57.1474 50.5385 57.2992C50.4922 57.451 50.3981 57.5837 50.2701 57.6775C50.1422 57.7714 49.9873 57.8213 49.8286 57.8199V57.8136Z" fill="#162B43"/>
<path d="M53.0845 50.2793C53.0199 50.28 52.9556 50.2719 52.8933 50.2551L50.9814 49.7453C50.793 49.6945 50.6324 49.5711 50.535 49.4019C50.4376 49.2328 50.4113 49.0319 50.462 48.8435C50.5127 48.655 50.6362 48.4944 50.8054 48.397C50.9745 48.2996 51.1753 48.2734 51.3638 48.3241L53.2757 48.8339C53.4488 48.8795 53.5994 48.9867 53.6992 49.1353C53.799 49.284 53.8411 49.464 53.8176 49.6415C53.7942 49.819 53.7068 49.9819 53.5718 50.0995C53.4368 50.2172 53.2635 50.2816 53.0845 50.2806V50.2793Z" fill="#162B43"/>
<path d="M51.4587 43.1567C51.2741 43.1567 51.0962 43.0874 50.9603 42.9624C50.8244 42.8375 50.7404 42.666 50.725 42.482C50.7096 42.298 50.7639 42.1149 50.8771 41.9691C50.9904 41.8233 51.1543 41.7254 51.3364 41.6947L52.9589 41.415C53.055 41.3955 53.1541 41.3955 53.2502 41.415C53.3462 41.4347 53.4374 41.4734 53.5183 41.5289C53.5992 41.5844 53.6681 41.6555 53.7211 41.7381C53.7873 41.8415 53.8266 41.9598 53.8354 42.0822C53.8442 42.2046 53.8223 42.3273 53.7717 42.4392C53.721 42.551 53.6432 42.6484 53.5454 42.7225C53.4475 42.7966 53.3327 42.8451 53.2113 42.8635L51.5862 43.1439C51.5442 43.152 51.5015 43.1563 51.4587 43.1567Z" fill="#162B43"/>
<path d="M44.9227 63.5902C44.7967 63.5903 44.6727 63.558 44.5628 63.4964C44.4529 63.4348 44.3607 63.346 44.2949 63.2385L43.3288 61.6516C43.2528 61.5275 43.2153 61.3836 43.221 61.2382C43.2268 61.0927 43.2756 60.9523 43.3613 60.8346C43.4324 60.7366 43.5267 60.6577 43.6356 60.6049C43.7446 60.5521 43.8649 60.527 43.9859 60.5318C44.1069 60.5367 44.2248 60.5714 44.3292 60.6327C44.4336 60.6941 44.5212 60.7803 44.5843 60.8837L45.5555 62.4705C45.6241 62.5824 45.6614 62.7106 45.6638 62.8418C45.6661 62.973 45.6333 63.1024 45.5687 63.2167C45.5041 63.3309 45.4102 63.4258 45.2966 63.4915C45.183 63.5572 45.0539 63.5913 44.9227 63.5902Z" fill="#162B43"/>
<path d="M38.8563 66.7165C38.6825 66.7163 38.5143 66.6547 38.3816 66.5425C38.2489 66.4303 38.1601 66.2748 38.1311 66.1034L37.9571 65.0245C37.9323 64.9259 37.9284 64.8232 37.9456 64.723C37.9621 64.6226 37.9997 64.5268 38.0559 64.442C38.1117 64.357 38.1845 64.2844 38.2697 64.2289C38.3549 64.1734 38.4507 64.1362 38.551 64.1195C38.6515 64.1026 38.7545 64.1069 38.8532 64.132C38.952 64.1571 39.0444 64.2026 39.1246 64.2654C39.2048 64.328 39.2712 64.4065 39.3196 64.496C39.3679 64.5855 39.3973 64.6841 39.4057 64.7855L39.5796 65.8644C39.5951 65.9601 39.5914 66.0579 39.5689 66.1522C39.5464 66.2465 39.5054 66.3354 39.4483 66.4137C39.3331 66.5718 39.1598 66.6777 38.9666 66.7082C38.93 66.7135 38.8932 66.7163 38.8563 66.7165Z" fill="#162B43"/>
<path d="M82.1124 77.4101C85.5977 73.6845 83.1913 65.7707 76.7381 59.7337C70.2849 53.6966 62.229 51.823 58.7424 55.5486C55.2557 59.2742 57.6634 67.188 64.1166 73.2244C70.5698 79.2608 78.627 81.1357 82.1124 77.4101Z" fill="#007EEF"/>
<path d="M78.8712 77.4952C78.2972 77.4948 77.7238 77.4586 77.1544 77.3869C74.3439 77.0351 70.0021 75.6139 65.2868 70.847C56.1187 61.5764 58.7877 55.6311 58.9101 55.3813C58.949 55.2905 59.006 55.2085 59.0777 55.1404C59.1493 55.0723 59.2339 55.0192 59.3265 54.9845C59.419 54.9498 59.5176 54.934 59.6164 54.9382C59.7152 54.9423 59.8121 54.9663 59.9014 55.0087C59.9907 55.0511 60.0706 55.1111 60.1362 55.185C60.2015 55.2594 60.2511 55.3461 60.2822 55.44C60.3133 55.534 60.3252 55.6332 60.3172 55.7318C60.3092 55.8303 60.2817 55.9263 60.2363 56.0141C60.2363 56.0211 59.6627 57.3295 60.1012 59.6467C60.5154 61.8287 61.941 65.3619 66.3345 69.8114C70.7139 74.238 74.683 75.5751 77.2436 75.9135C80.0018 76.2812 81.7626 75.6018 81.7811 75.5948C81.9602 75.5323 82.1565 75.5414 82.3291 75.6201C82.5016 75.6989 82.6372 75.8412 82.7074 76.0174C82.7775 76.1936 82.777 76.3902 82.7058 76.566C82.6346 76.7418 82.4983 76.8834 82.3253 76.9612C82.2635 76.9854 80.9781 77.4952 78.8712 77.4952Z" fill="#162B43"/>
<path d="M76.5145 64.1147C76.3981 64.116 76.2829 64.0916 76.177 64.0435C76.0711 63.9954 75.977 63.9247 75.9014 63.8363C73.0807 60.5396 69.0569 58.4403 63.9388 57.5908C63.7337 57.5527 63.5517 57.4356 63.4318 57.2647C63.312 57.0939 63.264 56.8829 63.298 56.677C63.3321 56.4711 63.4455 56.2868 63.6139 56.1636C63.7823 56.0404 63.9923 55.9881 64.1988 56.018C69.698 56.928 74.043 59.2044 77.1129 62.8C77.2122 62.9156 77.2762 63.0573 77.2974 63.2082C77.3186 63.3591 77.296 63.513 77.2323 63.6514C77.1686 63.7899 77.0665 63.9071 76.9381 63.9893C76.8097 64.0714 76.6605 64.115 76.5081 64.1147H76.5145Z" fill="white"/>
<path d="M80.1751 71.5339C79.9833 71.5336 79.7981 71.4641 79.6533 71.3383C79.5085 71.2125 79.4139 71.0387 79.3868 70.8489C79.3021 70.3629 79.1824 69.8837 79.0287 69.415C78.9923 69.314 78.9766 69.2066 78.9827 69.0994C78.9888 68.9922 79.0165 68.8874 79.0641 68.7911C79.1117 68.6949 79.1783 68.6093 79.2598 68.5394C79.3413 68.4695 79.4361 68.4168 79.5385 68.3845C79.6414 68.3523 79.7498 68.3411 79.8571 68.3513C80.0181 68.3673 80.1704 68.4317 80.2939 68.5362C80.4174 68.6407 80.5062 68.7802 80.5486 68.9364C80.7309 69.4886 80.8703 70.054 80.9654 70.6277C80.9876 70.7836 80.9632 70.9426 80.8951 71.0846C80.8271 71.2266 80.7185 71.3453 80.583 71.4256C80.4927 71.4786 80.3929 71.5135 80.2892 71.5282C80.2514 71.5328 80.2133 71.5347 80.1751 71.5339Z" fill="white"/>
<path d="M64.0993 72.6592C63.9526 72.658 63.8096 72.6131 63.6887 72.5302C63.5677 72.4472 63.4743 72.33 63.4204 72.1936C63.3665 72.0572 63.3546 71.9078 63.3862 71.7645C63.4178 71.6213 63.4915 71.4908 63.5978 71.3897L65.3153 69.7965C65.459 69.6681 65.6473 69.6012 65.8399 69.6102C66.0324 69.6191 66.2137 69.7032 66.3448 69.8444C66.476 69.9856 66.5466 70.1726 66.5414 70.3653C66.5362 70.5579 66.4557 70.7408 66.3171 70.8748L64.6002 72.468C64.4632 72.5923 64.2844 72.6606 64.0993 72.6592Z" fill="#162B43"/>
<path d="M70.6998 77.5393C70.5729 77.5392 70.4482 77.5063 70.3379 77.4437C70.171 77.349 70.0477 77.1929 69.9941 77.0087C69.9406 76.8245 69.961 76.6266 70.0511 76.4572L70.9821 74.7098C71.0741 74.5375 71.2307 74.4089 71.4175 74.3521C71.6043 74.2953 71.806 74.3151 71.9782 74.4071C72.1505 74.499 72.2791 74.6556 72.3359 74.8424C72.3927 75.0292 72.3729 75.2309 72.2809 75.4031L71.3499 77.1531C71.2866 77.2703 71.1928 77.3682 71.0783 77.4362C70.9638 77.5042 70.833 77.5398 70.6998 77.5393Z" fill="#162B43"/>
<path d="M77.9127 79.2159H77.8693C77.7728 79.2106 77.6784 79.1861 77.5915 79.1439C77.5044 79.1019 77.4264 79.0433 77.362 78.9712C77.2978 78.8988 77.2482 78.8146 77.2161 78.7233C77.1842 78.6319 77.1708 78.535 77.1766 78.4384L77.269 76.7942C77.2746 76.6976 77.2991 76.603 77.3412 76.5159C77.3833 76.4287 77.4422 76.3507 77.5145 76.2864C77.5867 76.222 77.671 76.1725 77.7624 76.1406C77.8537 76.1088 77.9505 76.0953 78.0471 76.1008C78.1438 76.1064 78.2383 76.1309 78.3255 76.1731C78.4126 76.2152 78.4906 76.274 78.555 76.3463C78.6194 76.4185 78.6689 76.5028 78.7007 76.5942C78.7326 76.6856 78.7461 76.7823 78.7405 76.879L78.6462 78.5219C78.6359 78.7094 78.5541 78.8859 78.4177 79.015C78.2813 79.1441 78.1005 79.216 77.9127 79.2159Z" fill="#162B43"/>
<path d="M59.5854 66.5758C59.41 66.5766 59.2401 66.5149 59.1063 66.4015C58.9725 66.2882 58.8836 66.1308 58.8556 65.9577C58.8276 65.7846 58.8624 65.6072 58.9537 65.4575C59.0449 65.3078 59.1867 65.1956 59.3534 65.1412L61.118 64.5549C61.2105 64.5209 61.3089 64.5059 61.4073 64.5106C61.5058 64.5154 61.6022 64.5398 61.691 64.5826C61.7798 64.6253 61.8591 64.6854 61.9243 64.7594C61.9894 64.8333 62.039 64.9196 62.0701 65.0131C62.1009 65.1067 62.1128 65.2055 62.1052 65.3037C62.0932 65.4515 62.037 65.5922 61.9439 65.7076C61.8508 65.823 61.7252 65.9076 61.5833 65.9506L59.8173 66.5375C59.7426 66.5629 59.6642 66.5758 59.5854 66.5758Z" fill="#162B43"/>
<path d="M59.0042 60.0328H58.9526L57.8622 59.9576C57.7656 59.951 57.6712 59.9254 57.5844 59.8823C57.4977 59.8392 57.4203 59.7795 57.3567 59.7065C57.293 59.6335 57.2444 59.5487 57.2135 59.4569C57.1826 59.3651 57.1702 59.2681 57.1768 59.1715C57.1834 59.0749 57.209 58.9805 57.252 58.8938C57.2951 58.807 57.3549 58.7296 57.4279 58.666C57.5009 58.6023 57.5857 58.5537 57.6775 58.5228C57.7693 58.492 57.8662 58.4795 57.9629 58.4861L59.0533 58.5607C59.2452 58.5718 59.4251 58.6576 59.5546 58.7996C59.6842 58.9416 59.7531 59.1286 59.7467 59.3207C59.7403 59.5128 59.6591 59.6948 59.5203 59.8278C59.3816 59.9608 59.1964 60.0344 59.0042 60.0328Z" fill="#162B43"/>
<path d="M48.1512 97.0039C56.6061 94.4337 62.2569 88.3928 60.7733 83.5125C59.2897 78.6321 51.2325 76.7572 42.7776 79.3287C34.3226 81.9002 28.6718 87.9391 30.1592 92.8201C31.6467 97.7011 39.6963 99.5741 48.1512 97.0039Z" fill="#007EEF"/>
<path d="M39.1114 95.8835C32.4498 95.8835 30.2015 92.7678 30.0829 92.5944C30.027 92.5151 29.9873 92.4254 29.9663 92.3306C29.9248 92.139 29.9607 91.9388 30.0664 91.7736C30.1191 91.6919 30.1876 91.6215 30.2678 91.5665C30.3882 91.4836 30.5305 91.4384 30.6767 91.4367C30.8229 91.435 30.9663 91.4768 31.0886 91.5569C31.1698 91.6104 31.2398 91.6792 31.2944 91.7596C31.2944 91.7596 32.1439 92.9169 34.3725 93.6931C36.4699 94.4292 40.2394 94.9626 46.2898 93.3745C52.3148 91.7959 55.4553 89.0256 57.0288 86.9799C58.7253 84.7743 59.0242 82.9159 59.0242 82.8917C59.0518 82.6984 59.1551 82.5241 59.3113 82.4069C59.4675 82.2898 59.6638 82.2395 59.8571 82.2672C60.0504 82.2948 60.2247 82.3981 60.3419 82.5543C60.459 82.7105 60.5093 82.9068 60.4816 83.1001C60.4689 83.1881 60.1553 85.293 58.2639 87.7906C56.5534 90.0498 53.1528 93.0985 46.6652 94.8007C43.6757 95.5833 41.1801 95.8835 39.1114 95.8835Z" fill="#162B43"/>
<path d="M33.8976 89.6301C33.747 89.629 33.5998 89.5854 33.473 89.5042C33.3461 89.4231 33.2448 89.3077 33.1807 89.1715C33.1166 89.0352 33.0923 88.8836 33.1107 88.7342C33.1291 88.5847 33.1893 88.4435 33.2845 88.3268C36.8215 84.0194 40.9702 81.3976 45.6148 80.5341C45.8208 80.5001 46.0319 80.5483 46.2028 80.6683C46.3736 80.7884 46.4906 80.9707 46.5285 81.176C46.5663 81.3813 46.5222 81.5933 46.4054 81.7665C46.2887 81.9396 46.1087 82.06 45.9041 82.1018C41.64 82.8952 37.8105 85.329 34.5145 89.3369C34.4401 89.4288 34.3461 89.5028 34.2393 89.5535C34.1325 89.6043 34.0158 89.6304 33.8976 89.6301Z" fill="white"/>
<path d="M54.0131 82.6521C53.9109 82.6521 53.8096 82.6324 53.7148 82.5941C53.2518 82.4252 52.7773 82.2896 52.2949 82.1882C52.1923 82.165 52.0952 82.1217 52.0094 82.0607C51.9235 82.0008 51.8503 81.9246 51.794 81.8363C51.7377 81.7481 51.6994 81.6495 51.6812 81.5464C51.6629 81.4433 51.6651 81.3377 51.6876 81.2354C51.7331 81.029 51.8587 80.8491 52.0368 80.7351C52.125 80.6786 52.2235 80.6401 52.3266 80.6217C52.4298 80.6033 52.5355 80.6055 52.6378 80.6281C53.2071 80.7478 53.7667 80.9097 54.312 81.1124C54.484 81.1815 54.6266 81.3083 54.7152 81.4711C54.8039 81.6339 54.833 81.8225 54.7976 82.0045C54.7622 82.1865 54.6646 82.3504 54.5214 82.4681C54.3782 82.5859 54.1984 82.65 54.0131 82.6496V82.6521Z" fill="white"/>
<path d="M47.008 97.1042C46.8413 97.1039 46.6796 97.047 46.5494 96.9428C46.4193 96.8386 46.3284 96.6933 46.2917 96.5306L45.7679 94.2542C45.7434 94.159 45.7382 94.0598 45.7525 93.9625C45.7669 93.8653 45.8005 93.7718 45.8514 93.6877C45.9283 93.5612 46.0416 93.4608 46.1764 93.3997C46.3113 93.3385 46.4614 93.3195 46.6073 93.345C46.7531 93.3705 46.8879 93.4395 46.9939 93.5428C47.1 93.6461 47.1724 93.779 47.2018 93.9241L47.7263 96.2069C47.7697 96.397 47.7361 96.5966 47.6326 96.762C47.5814 96.8439 47.5144 96.915 47.4357 96.971C47.3568 97.0268 47.2678 97.0666 47.1737 97.0883C47.1192 97.0996 47.0637 97.1049 47.008 97.1042Z" fill="#162B43"/>
<path d="M54.5319 93.8316C54.4066 93.8319 54.2834 93.8001 54.1738 93.7393C54.0643 93.6785 53.9721 93.5907 53.9061 93.4843L52.8609 91.8057C52.8075 91.7237 52.7711 91.6318 52.7539 91.5355C52.7277 91.3907 52.7457 91.2413 52.8053 91.1068C52.865 90.9723 52.9636 90.8588 53.0884 90.7809C53.1713 90.7294 53.2636 90.6948 53.36 90.6793C53.4564 90.6638 53.5549 90.6676 53.6498 90.6904C53.7447 90.7133 53.8341 90.7549 53.9127 90.8126C53.9914 90.8704 54.0578 90.9432 54.1081 91.0269L55.1552 92.7055C55.2249 92.8168 55.2636 92.9447 55.2672 93.076C55.2708 93.2073 55.2392 93.3371 55.1757 93.4521C55.1121 93.567 55.019 93.6628 54.9059 93.7295C54.7928 93.7963 54.6639 93.8315 54.5325 93.8316H54.5319Z" fill="#162B43"/>
<path d="M59.5867 88.4232C59.4435 88.4227 59.3036 88.3799 59.1846 88.3002L57.8074 87.3965C57.6597 87.2833 57.5604 87.1185 57.5294 86.935C57.4983 86.7516 57.5379 86.5632 57.6401 86.4078C57.7423 86.2524 57.8996 86.1414 58.0803 86.0972C58.2611 86.0531 58.4518 86.0789 58.6142 86.1697L59.9914 87.074C60.1228 87.1614 60.2228 87.2887 60.2764 87.4371C60.33 87.5856 60.3344 87.7474 60.2891 87.8986C60.2437 88.0498 60.151 88.1824 60.0245 88.2768C59.898 88.3713 59.7445 88.4226 59.5867 88.4232Z" fill="#162B43"/>
<path d="M39.4779 97.9732C39.3686 97.9733 39.2608 97.9491 39.1621 97.9022C39.0634 97.8554 38.9764 97.7872 38.9074 97.7026C38.8384 97.6179 38.7891 97.519 38.7631 97.4129C38.7371 97.3068 38.735 97.1963 38.7571 97.0893L39.1248 95.2667C39.1514 95.1214 39.221 94.9874 39.3246 94.8822C39.4283 94.777 39.5611 94.7053 39.706 94.6765C39.8513 94.6473 40.0021 94.6627 40.1385 94.7205C40.275 94.7784 40.3908 94.8761 40.4708 95.0009C40.5235 95.0836 40.5595 95.1758 40.5765 95.2724C40.5933 95.3691 40.5904 95.4681 40.5683 95.5637L40.2006 97.3863C40.1663 97.552 40.0759 97.7008 39.9448 97.8077C39.8136 97.9146 39.6496 97.9731 39.4804 97.9732H39.4779Z" fill="#162B43"/>
<path d="M32.9137 96.1125C32.7799 96.1132 32.6484 96.0773 32.5335 96.0088C32.4185 95.9403 32.3245 95.8417 32.2614 95.7237C32.1983 95.6057 32.1686 95.4727 32.1755 95.3391C32.1825 95.2055 32.2257 95.0763 32.3006 94.9654L32.9137 94.0579C32.9949 93.9365 33.1103 93.8419 33.2453 93.7862C33.3803 93.7305 33.5289 93.7161 33.672 93.745C33.791 93.7689 33.9022 93.8218 33.9958 93.8989C34.0895 93.976 34.1627 94.075 34.209 94.1872C34.2553 94.2993 34.2732 94.4211 34.2613 94.5418C34.2493 94.6625 34.2078 94.7785 34.1404 94.8793L33.521 95.7919C33.4532 95.8904 33.3625 95.9708 33.2567 96.0263C33.1509 96.0818 33.0332 96.1108 32.9137 96.1106V96.1125Z" fill="#162B43"/>
<path d="M92.5493 58.6047C92.4524 58.6048 92.3564 58.5857 92.2669 58.5486C92.1774 58.5114 92.0961 58.457 92.0277 58.3884C91.9593 58.3197 91.9051 58.2383 91.8683 58.1486C91.8315 58.059 91.8128 57.963 91.8132 57.8661C91.8132 57.7959 91.7864 50.8903 89.96 45.0209C88.47 40.2374 83.5539 38.0183 83.4998 37.9967C83.3208 37.9185 83.1803 37.7724 83.1091 37.5907C83.0379 37.4089 83.0418 37.2063 83.1199 37.0273C83.1981 36.8484 83.3441 36.7079 83.5259 36.6367C83.7077 36.5654 83.9103 36.5693 84.0892 36.6475C84.3161 36.7469 89.6719 39.1406 91.3658 44.5843C93.2605 50.6723 93.2847 57.5754 93.2847 57.8661C93.2848 57.9627 93.2658 58.0584 93.2289 58.1477C93.192 58.237 93.1378 58.3181 93.0695 58.3865C93.0012 58.4549 92.9201 58.5091 92.8308 58.5461C92.7416 58.5831 92.6459 58.6021 92.5493 58.6021V58.6047Z" fill="#162B43"/>
<path d="M97.9364 55.7799H97.8911C97.7458 55.7712 97.6063 55.7195 97.4904 55.6315C97.3745 55.5434 97.2872 55.423 97.2398 55.2853C97.2082 55.1941 97.195 55.0975 97.2009 55.0011C97.8446 44.447 93.4613 40.5678 93.4174 40.5302C93.3402 40.4686 93.2762 40.3921 93.2291 40.3052C93.1821 40.2184 93.1531 40.123 93.1437 40.0247C93.1343 39.9264 93.1448 39.8272 93.1746 39.733C93.2043 39.6389 93.2527 39.5517 93.3169 39.4766C93.3811 39.4015 93.4597 39.3401 93.5481 39.2961C93.6364 39.252 93.7328 39.2262 93.8313 39.2201C93.9299 39.2141 94.0287 39.2279 94.1218 39.2608C94.2149 39.2938 94.3004 39.3451 94.3733 39.4117C94.5772 39.587 99.3575 43.8128 98.6654 55.089C98.6538 55.275 98.572 55.4496 98.4365 55.5775C98.301 55.7054 98.122 55.777 97.9357 55.7779L97.9364 55.7799Z" fill="#162B43"/>
<path d="M15.8344 95.9647C15.6917 95.9652 15.552 95.924 15.4323 95.8463C15.3127 95.7685 15.2183 95.6575 15.1608 95.5269C12.054 88.5085 11.1045 81.3638 10.8559 76.6026C10.5857 71.4521 11.0471 67.989 11.0643 67.8444C11.0758 67.7473 11.1065 67.6535 11.1548 67.5684C11.2031 67.4834 11.2682 67.4091 11.346 67.3498C11.4231 67.2899 11.5114 67.2459 11.6058 67.2205C11.7001 67.1952 11.7985 67.1888 11.8953 67.202C11.9921 67.2151 12.0852 67.2474 12.1694 67.2969C12.2531 67.346 12.3265 67.4109 12.3854 67.4881C12.444 67.5663 12.4865 67.6554 12.5103 67.7501C12.5342 67.8449 12.5389 67.9434 12.5243 68.04C12.5059 68.177 10.7399 81.8979 16.5074 94.9266C16.5581 95.0388 16.5798 95.162 16.5705 95.2848C16.5612 95.4075 16.5212 95.526 16.4543 95.6294C16.3873 95.7327 16.2954 95.8175 16.1871 95.8761C16.0788 95.9347 15.9575 95.9652 15.8344 95.9647Z" fill="#162B43"/>
<path d="M10.5844 99.7906C10.4494 99.7907 10.3169 99.7536 10.2017 99.6833C10.0864 99.6131 9.99282 99.5123 9.93113 99.3923C5.46182 90.7258 5.01699 78.9117 5.00042 78.4127C4.99714 78.3161 5.01295 78.2197 5.04696 78.1291C5.08097 78.0386 5.13251 77.9556 5.19862 77.885C5.29801 77.7782 5.42689 77.7034 5.5689 77.67C5.71092 77.6365 5.85966 77.6461 5.99624 77.6974C6.13282 77.7487 6.25108 77.8394 6.336 77.958C6.42092 78.0766 6.46868 78.2178 6.4732 78.3636C6.4732 78.486 6.92567 90.3504 11.2401 98.7212C11.2844 98.8072 11.3113 98.901 11.3193 98.9974C11.3273 99.0938 11.3161 99.1908 11.2865 99.2828C11.2569 99.3749 11.2095 99.4602 11.1468 99.5339C11.0842 99.6076 11.0076 99.6682 10.9215 99.7122C10.8172 99.7655 10.7014 99.7924 10.5844 99.7906Z" fill="#162B43"/>
</svg>
