<svg width="104" height="104" viewBox="0 0 104 104" fill="none" xmlns="http://www.w3.org/2000/svg">
<path d="M80.3506 62.6799C82.2912 64.7241 85.2249 65.5104 87.9507 65.8776C90.6764 66.2447 94.188 66.3491 97.2798 66.6635C98.8184 66.7702 100.335 67.0877 101.787 67.607C102.263 67.7128 102.761 67.6573 103.202 67.4494C103.308 67.397 104.25 66.9259 103.936 66.8203C101.264 65.8244 98.3281 65.72 95.4979 65.5104C92.6678 65.3008 89.3133 65.196 86.4304 64.2525C84.9368 63.8225 83.5817 63.0093 82.4996 61.8936C82.1324 61.528 80.0362 62.3128 80.3506 62.6799Z" fill="#007EEF"/>
<path d="M63.9453 64.9331C67.509 66.663 71.7022 66.2962 75.3171 64.9855C78.932 63.6749 82.1832 61.0023 84.8041 57.9607C86.2716 56.1788 87.5823 54.2914 88.8921 52.4048C89.1541 51.9857 88.6305 51.8809 88.3158 51.8809C87.7622 51.9139 87.2319 52.115 86.7955 52.4572C84.2798 56.2312 81.502 60.1097 77.6749 62.6778C73.8477 65.246 69.708 65.8755 65.7772 63.9881C65.3581 63.7789 64.5741 64.0405 64.205 64.2505C63.8359 64.4604 63.4738 64.7236 63.9453 64.9331Z" fill="#007EEF"/>
<path d="M66.9854 51.7777C69.6579 47.7413 75.3714 48.0037 79.2498 49.8907C79.5195 49.9765 79.8047 50.0022 80.0853 49.966C80.366 49.9298 80.6354 49.8325 80.8744 49.6811C81.1888 49.4715 81.5556 48.9996 81.0844 48.7884C75.9477 46.3251 68.2953 46.587 64.836 51.7237C64.522 52.1429 65.098 52.3525 65.4647 52.3525C65.7451 52.3758 66.0272 52.3362 66.2903 52.2364C66.5534 52.1367 66.7909 51.9794 66.9854 51.7761V51.7777Z" fill="#007EEF"/>
<path d="M80.8744 49.6294C83.4426 46.9037 86.4303 43.7068 90.4135 43.3396C91.9862 43.2348 94.0303 43.6016 94.9211 45.0694C95.8118 46.5373 94.2395 47.952 93.0344 48.7383C90.8855 50.1533 88.6837 51.4636 86.4827 52.7747C86.3261 52.8631 86.2075 53.006 86.1494 53.1761C86.0913 53.3463 86.0977 53.5319 86.1675 53.6976C86.2136 53.8075 86.2858 53.9045 86.3779 53.9801C86.6318 54.1248 86.9242 54.1873 87.215 54.1591C87.5059 54.1309 87.7808 54.0133 88.0022 53.8226C90.2563 52.4599 92.6153 51.1496 94.7639 49.6309C96.9125 48.1122 98.118 46.748 97.2796 44.6514C96.4413 42.5548 94.0827 41.7689 92.0906 41.6629C89.6729 41.5348 87.2747 42.1572 85.2244 43.4448C82.8139 44.8602 80.8744 46.904 78.9878 48.9482C78.8965 49.0231 78.8281 49.1221 78.7903 49.2339C78.7525 49.3458 78.7468 49.466 78.774 49.5809C78.8012 49.6957 78.8603 49.8005 78.9444 49.8833C79.0285 49.966 79.1342 50.0235 79.2494 50.0489C79.5307 50.1534 79.8372 50.1693 80.1277 50.0943C80.4182 50.0194 80.6788 49.8573 80.8744 49.6298V49.6294Z" fill="#007EEF"/>
<path d="M62.1632 64.5658C60.9054 65.4584 58.9132 64.9325 57.6557 64.3558C56.0863 63.5969 54.7742 62.3941 53.882 60.8965C51.7862 57.5425 52.0998 53.1397 53.7268 49.68C54.6818 47.6396 55.9555 45.7642 57.5 44.1242C57.5771 44.0474 57.633 43.9519 57.6622 43.8471C57.6914 43.7422 57.6928 43.6316 57.6665 43.526C57.6401 43.4204 57.5868 43.3235 57.5118 43.2447C57.4368 43.1658 57.3426 43.1078 57.2384 43.0763C56.9538 43.0121 56.6579 43.0166 56.3753 43.0895C56.0927 43.1624 55.8315 43.3015 55.6134 43.4954C52.5209 46.8499 50.0576 51.0955 50.11 55.7599C50.1623 60.4242 52.4165 64.1982 56.5569 65.9284C58.8107 66.8716 61.6412 66.9764 63.685 65.5617C63.7886 65.5097 63.8773 65.4322 63.9425 65.3365C64.0078 65.2407 64.0476 65.1299 64.058 65.0144C64.069 64.899 64.0498 64.7827 64.0025 64.6768C63.9557 64.5705 63.8825 64.4781 63.7898 64.4082C63.3687 64.0938 62.5824 64.3034 62.1632 64.5658Z" fill="#007EEF"/>
<path d="M57.498 43.4433C54.5663 41.0372 52.6103 37.6466 51.995 33.9042C51.6174 32.1501 51.6895 30.3291 52.2046 28.6103C52.4976 27.7632 53.0028 27.0053 53.672 26.4089C53.7715 26.2934 53.8973 26.2036 54.0388 26.147C53.7244 26.3041 53.8835 26.147 53.9864 26.2518H54.3011C54.7348 26.4329 55.127 26.7005 55.4538 27.0381C56.2488 27.788 56.8435 28.7249 57.1837 29.7634C57.498 30.8113 57.6556 31.9124 58.0224 32.9607C58.3892 34.009 60.4857 32.9083 60.3286 32.3843C60.1714 31.8604 59.8046 30.1306 59.4359 29.0299C59.0749 28.0012 58.4832 27.0688 57.7061 26.3042C56.8526 25.5518 55.7463 25.15 54.609 25.1792C53.4717 25.2084 52.3875 25.6666 51.5739 26.4617C48.3246 29.3966 49.3205 34.9001 50.9451 38.4118C51.9296 40.6593 53.4402 42.6371 55.3494 44.1784C55.8738 44.5975 57.8648 43.7068 57.498 43.392V43.4433Z" fill="#007EEF"/>
<path d="M62.7395 41.8194C60.5402 37.7136 59.8012 32.9824 60.6437 28.4015C61.0104 26.4097 61.6396 23.9988 63.0546 22.4246C63.2019 22.2245 63.3785 22.0479 63.5786 21.9006C63.6314 21.8482 63.9454 21.743 63.7886 21.743C63.6318 21.743 63.893 21.7954 63.893 21.7954L64.3106 21.9014C64.6331 22.0058 64.9352 22.1653 65.2032 22.3729C66.0925 23.1693 66.73 24.208 67.0375 25.3614C67.9885 28.1569 68.2937 31.1315 67.9301 34.0618C67.8777 34.6909 70.1311 34.2714 70.1835 33.695C70.5538 30.772 70.2847 27.8034 69.3949 24.9947C68.9753 23.7892 68.451 22.4789 67.4027 21.6402C66.8773 21.2468 66.2679 20.9806 65.6223 20.8624C64.9767 20.7442 64.3125 20.7773 63.6818 20.959C61.1661 21.5878 59.9078 23.7368 59.1219 26.0433C58.2759 28.5374 57.9201 31.1715 58.074 33.8006C58.2261 36.8197 59.0306 39.7701 60.4321 42.4485C60.7477 43.0249 62.9494 42.2386 62.7395 41.8194Z" fill="#007EEF"/>
<path d="M68.7669 40.8757C69.4865 35.4959 71.4615 30.3609 74.5323 25.8855C75.187 24.8554 75.9808 23.9207 76.8913 23.1078C77.4672 22.5834 78.8827 21.6399 79.4594 22.6882C79.7206 23.2999 79.8285 23.966 79.7738 24.6288C79.8175 25.3991 79.7824 26.1718 79.669 26.935C79.4299 28.4525 79.1154 29.955 78.7255 31.4425L76.2097 41.8203C75.9478 42.8682 78.2539 42.6066 78.4635 41.6631C79.3562 38.1515 80.193 34.6922 81.0321 31.233C81.4943 29.5841 81.827 27.9017 82.0272 26.2011C82.0973 25.3819 82.1151 24.5591 82.0804 23.7377C82.0894 22.9747 81.8703 22.2264 81.4512 21.5887C80.5077 20.3308 78.6207 20.5408 77.3628 21.0124C76.0777 21.5517 74.9442 22.3974 74.0611 23.4757C72.0905 25.7879 70.4822 28.3858 69.2912 31.1806C67.8819 34.3312 66.9289 37.6667 66.4611 41.0864C66.3035 42.1859 68.6097 41.8716 68.7669 40.8757Z" fill="#007EEF"/>
<path d="M78.7255 42.0286C79.3546 36.6824 82.2899 31.9652 86.1163 28.1916C87.0288 27.2231 88.0485 26.3615 89.1556 25.6234C90.3615 24.8895 90.6763 27.1433 90.5711 27.8772C90.4663 29.3971 89.6804 30.8121 88.9988 32.1752C88.3173 33.5382 87.6362 34.7433 86.9546 36.0012C85.382 38.8313 83.9662 41.7666 83.4954 45.0163C83.3401 46.1694 85.6964 45.855 85.8015 44.8611C86.2731 41.6114 87.793 38.6761 89.3132 35.846C90.0995 34.4309 90.9378 33.0154 91.6194 31.548C92.3009 30.0805 93.0344 28.3507 92.8773 26.6213C92.7201 24.8918 91.8814 23.9479 90.3615 23.7908C88.8416 23.6336 87.1646 24.8895 85.9587 25.9374C83.6197 27.9491 81.5734 30.2778 79.8789 32.8559C78.0328 35.6823 76.8501 38.8898 76.4197 42.2382C76.2621 43.3913 78.6207 43.0769 78.7255 42.0286Z" fill="#007EEF"/>
<path d="M60.2238 43.4959C63.3675 42.1328 66.9324 42.028 70.3396 42.0804C73.7469 42.1328 77.3645 42.3952 79.6687 45.1205C80.2978 45.8545 82.4988 44.9653 81.7645 44.1246C79.144 41.0321 74.9512 40.5606 71.1248 40.5082C67.2983 40.4558 63.0015 40.613 59.2263 42.2376C58.8072 42.3952 58.3337 42.9191 58.6496 43.3907C58.9655 43.8623 59.8046 43.7055 60.2238 43.4959Z" fill="#007EEF"/>
<path d="M56.1878 66.3478C55.7162 68.392 57.5505 69.8071 59.3855 70.1739C61.2205 70.5407 63.9454 70.2263 66.094 69.8591C70.5492 69.0708 74.8273 67.4911 78.7256 65.1948C80.3506 64.2513 83.3379 62.6262 82.6564 60.3204C82.4472 59.6389 80.193 60.268 80.403 60.8964C81.0322 63.0458 77.7297 64.5132 76.2622 65.2996C74.211 66.4484 72.0288 67.3458 69.7629 67.9725C67.5577 68.6106 65.2914 69.0146 63.0015 69.178C61.9012 69.2304 60.643 69.2824 59.6995 68.654C59.2445 68.4008 58.8793 68.0128 58.654 67.5435C58.4287 67.0741 58.3545 66.5464 58.4416 66.0331C58.5988 65.2996 56.293 65.6663 56.1878 66.3478Z" fill="#007EEF"/>
<path d="M61.272 70.2798C68.4448 75.9139 76.235 80.7143 84.4925 84.5884C84.964 84.7984 85.6976 84.536 86.1167 84.3264C86.5359 84.1168 86.7982 83.8549 86.3791 83.6449C78.2037 79.8041 70.4855 75.0572 63.3697 69.4935C63.0026 69.1791 62.269 69.4411 61.9023 69.5459C61.5355 69.6507 60.9052 70.0174 61.272 70.2798Z" fill="#007EEF"/>
<path d="M16.6157 59.1689H16.5109L16.3013 59.3265L15.9869 59.5361L15.5674 59.9032L15.3054 60.2172L15.0958 60.5844L14.9386 61.1083C14.9386 61.2636 14.8862 61.4751 14.8862 61.6326C14.937 62.0191 15.0615 62.3923 15.253 62.7318C15.4922 63.1719 15.8123 63.563 16.1965 63.8845L16.3537 63.9893C16.4061 64.0417 16.4061 64.0945 16.4585 64.0417H16.5109L16.9304 63.8864L17.7164 63.5197L18.5551 63.2053C19.2191 62.9689 19.9034 62.7935 20.5993 62.6813C22.2557 62.4828 23.9318 62.5181 25.5784 62.7861C27.4546 63.0243 29.2997 63.4636 31.0819 64.0964C32.8496 64.737 34.4456 65.7771 35.7454 67.1357C36.3321 67.8085 36.8096 68.5691 37.1605 69.3899C37.3541 69.7701 37.4952 70.1749 37.58 70.593C37.6324 70.803 37.6324 71.0122 37.6848 71.2222C37.7372 71.4321 37.7372 71.6937 37.7896 71.9557C37.826 72.549 38.0058 73.1246 38.3136 73.6331C38.5089 73.9857 38.7996 74.2763 39.1523 74.4715C39.5341 74.6262 39.9491 74.6804 40.3578 74.629C40.748 74.5521 41.1101 74.3709 41.4057 74.1047C41.6162 73.8685 41.7925 73.6039 41.9296 73.3188C42.1653 72.8622 42.3079 72.3634 42.3492 71.8513C42.4816 70.6507 42.3565 69.4357 41.9824 68.2873C41.7725 67.6581 41.6153 67.5529 41.5629 67.8673C41.5105 68.1817 41.5629 68.8632 41.4581 69.8591C41.4338 70.4403 41.3637 71.0187 41.2485 71.5889C41.1908 71.901 41.0847 72.2022 40.9341 72.4816C40.799 72.7514 40.6012 72.985 40.3574 73.1627H40.0954L39.8334 73.0576C39.6176 72.8504 39.4867 72.5702 39.4663 72.2716C39.4139 71.8525 39.4139 71.4333 39.3615 70.9086C39.3075 70.3412 39.2023 69.7799 39.0471 69.2315C38.2774 66.8776 36.6991 64.8722 34.592 63.5709C32.3906 62.1558 29.77 61.4219 27.1495 60.9503C24.4248 60.3844 21.6046 60.4742 18.9215 61.2123C18.2538 61.4199 17.6047 61.6829 16.9809 61.9986L16.8761 62.1034C16.8237 62.1034 16.7709 62.2082 16.7709 62.1558L16.5613 61.9459C16.4557 61.8117 16.4001 61.645 16.4041 61.4743C16.3956 61.3497 16.4135 61.2247 16.4565 61.1075C16.5338 60.9339 16.6618 60.7878 16.8237 60.6884C16.962 60.521 17.1431 60.3942 17.3477 60.3216L18.6055 59.7969L19.811 59.4825C20.5673 59.2918 21.3391 59.169 22.1172 59.1157C24.2191 58.9155 26.3389 59.0223 28.4101 59.4328C29.5982 59.633 30.7714 59.9134 31.9217 60.2719C33.1161 60.6135 34.2745 61.0699 35.381 61.6346C36.0447 62.0537 36.3592 62.2109 36.3245 62.1061C36.2951 61.9647 36.2216 61.8363 36.1145 61.7394C35.9052 61.4918 35.6575 61.2794 35.381 61.1102C34.5917 60.4413 33.6847 59.9251 32.7065 59.5881C31.4707 59.0701 30.19 58.6665 28.8805 58.3822C26.1598 57.7991 23.3608 57.6752 20.5993 58.0154C19.6201 58.1574 18.6554 58.3854 17.7164 58.697L17.2448 58.8545L16.878 59.0098L16.6157 59.1689Z" fill="#162B43"/>
<path d="M18.3965 57.752C17.5689 57.4776 16.864 56.9213 16.4047 56.1801C15.828 55.3418 15.7232 54.2395 15.6184 53.2448C15.4474 51.2324 14.6811 49.3165 13.417 47.7414C12.1068 46.2215 10.2201 45.1732 9.2254 43.391C8.23066 41.6088 8.1247 39.6697 9.95893 39.4078C10.9548 39.2506 12.0031 39.8793 12.7371 40.4037C13.7118 41.0731 14.563 41.9066 15.2528 42.867C15.8816 43.6009 18.0305 42.7098 17.3486 41.8711C15.9332 40.0369 13.837 38.2023 11.426 37.8879C9.01504 37.5735 6.55129 38.8838 6.3941 41.2948C6.23692 43.7057 7.86156 45.4864 9.4866 46.9554C11.1116 48.4244 12.8411 50.4147 13.2078 52.9828C13.4698 54.3459 13.4698 55.7086 14.2037 56.966C14.8591 58.0424 15.8836 58.8437 17.0863 59.2202C17.3749 59.2873 17.6759 59.2792 17.9604 59.1965C18.245 59.1139 18.5035 58.9595 18.7113 58.7483C18.7919 58.674 18.8496 58.5783 18.8778 58.4724C18.906 58.3665 18.9034 58.2548 18.8705 58.1503C18.8375 58.0458 18.7754 57.9528 18.6916 57.8823C18.6077 57.8118 18.5055 57.7666 18.3969 57.752H18.3965Z" fill="#162B43"/>
<path d="M19.8653 58.1723C19.3281 56.3167 18.9252 54.4248 18.6598 52.5113C18.3978 50.6246 18.6074 48.79 18.6598 46.9034C18.7122 43.2866 17.2971 40.0897 16.0917 36.7876C15.4781 35.0679 15.022 33.296 14.729 31.4937C14.4318 29.8852 14.3963 28.2392 14.6238 26.6194C14.729 26.1475 14.9386 25.4663 15.4625 25.2567C15.7403 25.1929 16.0284 25.1878 16.3083 25.242C16.5882 25.2961 16.8536 25.4082 17.0876 25.5711C18.5026 26.4098 19.4446 28.0869 20.3372 29.4495C22.4556 32.6905 24.0477 36.2462 25.0544 39.9849C25.3164 41.0328 27.6225 40.4041 27.3082 39.3558C26.3057 35.6334 24.751 32.0823 22.6958 28.8208C21.7523 27.3529 20.7552 25.7283 19.3413 24.6291C18.6526 24.0501 17.8111 23.6827 16.9183 23.5711C16.0255 23.4596 15.1195 23.6087 14.3094 24.0004C12.7372 24.7863 12.2136 26.4638 12.1605 28.0884C12.1566 30.0103 12.3676 31.9265 12.7896 33.8015C13.6283 37.5751 15.6197 40.9816 16.1965 44.8608C16.5632 47.1669 16.0917 49.5779 16.2488 51.9365C16.4701 54.2652 16.9267 56.5655 17.6115 58.8022C17.8735 59.849 20.1797 59.2206 19.8653 58.1723Z" fill="#162B43"/>
<path d="M27.1507 39.5136C26.4171 36.5786 25.7356 33.6433 25.0548 30.6556C24.3741 27.6679 23.5346 24.7854 24.6877 22.1125C25.0548 21.2198 25.6312 20.7498 26.6283 20.8546C27.1543 20.9468 27.6568 21.1426 28.1066 21.4305C28.5564 21.7183 28.9447 22.0926 29.2488 22.5316C30.8214 24.5758 31.293 27.4063 31.6598 29.8173C32.102 33.0828 32.3117 36.3755 32.2874 39.6707C32.2874 40.7714 34.5935 40.3523 34.5935 39.4612C34.612 36.1676 34.4194 32.8762 34.0168 29.6073C33.5976 26.8296 33.0209 23.4751 31.1343 21.2737C29.2476 19.0724 26.2075 18.6532 23.9542 20.2258C21.7008 21.7985 21.7004 26.0961 22.2243 28.8218C22.9583 32.5954 23.9542 36.3691 24.8449 40.1431C25.0545 41.0334 27.3622 40.4571 27.1507 39.5136Z" fill="#162B43"/>
<path d="M33.9119 29.1875C33.5976 27.0916 33.9643 24.9419 34.4363 22.9C34.5207 22.481 34.6618 22.0755 34.8554 21.6945L35.1174 21.2226L35.275 21.1178C35.1174 21.1702 35.1174 21.1178 35.2226 21.1702C35.3278 21.2226 35.6942 21.3798 35.8513 21.4846L36.3757 21.8517C36.7357 22.2294 37.0684 22.6323 37.3712 23.0572C39.8349 26.4641 40.6209 30.814 40.4637 34.9024C40.303 37.5998 39.9351 40.2808 39.363 42.9217C39.2058 43.7604 41.512 43.3932 41.6692 42.6597C42.6127 37.4706 43.399 32.0723 41.8244 26.9356C41.1957 24.8398 40.1474 22.4805 38.4699 20.9606C38.0417 20.5554 37.5256 20.2547 36.962 20.082C36.3983 19.9092 35.8024 19.8691 35.2207 19.9647C34.6623 20.038 34.1309 20.2486 33.6739 20.5775C33.2168 20.9065 32.8484 21.3436 32.6017 21.8498C32.1448 23.0465 31.8448 24.2973 31.709 25.571C31.4644 26.9739 31.4296 28.4054 31.6058 29.8185C31.709 30.5501 34.0167 30.0262 33.9119 29.1875Z" fill="#162B43"/>
<path d="M42.6149 35.5306C42.6673 32.4905 42.7197 29.0836 44.3968 26.4099C44.4492 26.4099 44.8159 25.8856 44.8159 25.938H44.3444L44.7111 26.0932C45.0268 26.3139 45.3093 26.5787 45.5499 26.8795C46.1016 27.6076 46.5265 28.4237 46.8066 29.2932C47.4482 31.0582 47.9048 32.885 48.1692 34.7443C48.7571 38.6303 49.0555 42.5545 49.0619 46.4847C49.0095 50.4683 48.6951 54.6087 47.5945 58.4872C46.4501 62.3385 44.0042 65.6731 40.6744 67.9214C40.2552 68.1838 40.4124 68.4458 40.8296 68.5506C41.3927 68.5822 41.9491 68.4153 42.4019 68.079C45.6515 65.8248 48.2197 62.8899 49.5304 59.1163C50.841 55.3427 51.2598 50.4683 51.3122 46.118C51.3668 41.6381 50.9983 37.163 50.2115 32.7525C49.6352 29.7124 48.1157 23.3182 43.7125 25.3624C41.9827 26.1483 41.2488 28.4021 40.882 30.1319C40.4803 32.1155 40.2871 34.1356 40.3057 36.1593C40.3068 36.6309 42.5606 36.3165 42.6149 35.5306Z" fill="#162B43"/>
<path d="M24.0585 43.7067C23.3246 44.6502 22.9578 45.9605 23.5342 47.0612C23.8301 47.5621 24.268 47.964 24.7924 48.2158C25.5327 48.4839 26.3371 48.5204 27.0986 48.3206C27.3829 48.253 27.6503 48.1281 27.8845 47.9535C27.9893 47.9011 28.1989 47.7439 28.1465 47.5867C28.0941 47.4295 27.8322 47.3771 27.7274 47.3771C27.447 47.3407 27.1623 47.3585 26.8886 47.4295H27.0986C27.3082 47.3771 27.0986 47.3771 27.0458 47.3771C26.993 47.3771 27.2558 47.4295 27.151 47.3771H27.0458C27.2034 47.4295 26.9934 47.3771 26.9934 47.3771H26.7315C26.3844 47.2225 26.092 46.9667 25.8927 46.6432V46.748C25.5934 46.2816 25.4639 45.7264 25.526 45.1757V45.2805C25.5648 44.9941 25.6351 44.7128 25.7356 44.4418C25.8368 44.1873 25.9596 43.9419 26.1027 43.7083C26.4171 43.3411 25.8403 43.2363 25.5784 43.2363L24.6857 43.4463C24.4591 43.5366 24.2472 43.6602 24.057 43.8131L24.0585 43.7067Z" fill="#162B43"/>
<path d="M30.8198 44.3337C30.538 44.8164 30.4027 45.3705 30.4303 45.9287C30.4578 46.4868 30.6471 47.0249 30.975 47.4775C31.3613 47.9425 31.8714 48.2885 32.4463 48.4753C33.1056 48.6953 33.8123 48.7315 34.4905 48.5801C34.7773 48.4928 35.0442 48.3504 35.2765 48.1609C35.4247 47.986 35.4999 47.7607 35.4864 47.5318C35.2765 47.0078 34.5938 47.0602 34.1234 47.165C33.653 47.2698 34.4905 47.1126 34.281 47.1126H34.071C34.071 47.1126 34.3334 47.165 34.1762 47.1126H33.9138C33.9662 47.1126 34.2282 47.165 34.0186 47.1126H33.9138L33.7042 47.0078C33.5994 46.9554 33.9138 47.1126 33.7566 47.0602H33.6495L33.2303 46.7455L33.3856 46.903C33.173 46.7418 33.0102 46.5239 32.916 46.2743V46.4295C32.7912 46.1266 32.7033 45.8099 32.654 45.486V45.6956C32.6102 45.3774 32.6462 45.0533 32.7588 44.7525V44.9621C32.8074 44.8126 32.878 44.6712 32.9684 44.5425C33.0113 44.4504 33.0291 44.3485 33.0199 44.2473C33.0107 44.146 32.9749 44.0491 32.916 43.9662C32.7464 43.8036 32.5221 43.7101 32.2872 43.7042C31.9955 43.664 31.6983 43.7065 31.4295 43.8269C31.1607 43.9473 30.9311 44.1408 30.767 44.3853L30.8198 44.3337Z" fill="#162B43"/>
<path d="M38.2627 45.5396C37.9621 45.867 37.7461 46.2628 37.6335 46.6927C37.573 47.0592 37.5908 47.4344 37.6859 47.7934C37.835 48.1733 38.0844 48.5056 38.4075 48.7548C38.7306 49.0041 39.1153 49.161 39.5205 49.2089C40.2297 49.3319 40.9594 49.2406 41.6164 48.9465C41.8518 48.8512 42.0529 48.6868 42.1931 48.475C42.2979 48.3197 42.3483 48.1082 42.1931 48.003C42.0378 47.8978 41.0924 47.741 40.6732 47.951C40.8828 47.8982 40.9876 47.8982 40.8285 47.8982H40.7761C40.5665 47.951 41.0381 47.8982 40.8809 47.8982H40.7237C40.5684 47.8982 41.0381 47.951 40.8285 47.8982H40.7237L40.3041 47.6362L40.4594 47.7934C40.262 47.6597 40.1001 47.4799 39.9878 47.2695L40.0926 47.4247C39.9444 47.19 39.8713 46.9157 39.883 46.6384V46.848C39.8787 46.5949 39.9317 46.3441 40.0383 46.1144L39.9335 46.2697L40.1955 45.9029L40.0402 46.0582L40.145 45.9534C40.2184 45.8884 40.2756 45.8071 40.312 45.7161C40.3484 45.625 40.363 45.5267 40.3546 45.429C40.317 45.3306 40.2532 45.2444 40.1701 45.1797C40.0869 45.1151 39.9877 45.0744 39.883 45.0623C39.5943 45.0203 39.2999 45.0407 39.0196 45.122C38.7394 45.2033 38.4798 45.3438 38.2584 45.5338L38.2627 45.5396Z" fill="#162B43"/>
<path d="M20.1276 100.575C26.5746 94.4424 33.0735 88.2054 37.9483 80.6577C39.2831 78.5477 40.457 76.3401 41.4599 74.0536C41.9315 72.9529 39.6777 73.1101 39.3109 73.8983C35.7469 81.9711 29.8766 88.6261 23.6917 94.7583L18.2414 99.9978C18.1613 100.069 18.1025 100.16 18.0715 100.262C18.0405 100.365 18.0384 100.473 18.0656 100.577C18.0929 100.68 18.1482 100.774 18.2256 100.848C18.3029 100.921 18.3992 100.972 18.5037 100.994C18.7884 101.058 19.0843 101.054 19.3668 100.981C19.6494 100.908 19.9105 100.769 20.1284 100.575H20.1276Z" fill="#162B43"/>
<path d="M16.6684 63.0998C13.6283 65.93 12.0036 69.8608 9.48827 73.1629C6.9729 76.4649 2.88373 78.4571 0.105605 81.654C-0.261163 82.0732 0.420366 82.3355 0.734738 82.3355C1.01914 82.3523 1.30364 82.3044 1.56688 82.1954C1.83011 82.0865 2.06523 81.9193 2.25459 81.7064C3.56487 80.1338 5.29469 78.9283 6.97173 77.67C8.67145 76.4596 10.1893 75.0122 11.4793 73.372C13.9427 70.1751 15.5157 66.2443 18.5042 63.4662C18.8713 63.1518 18.7665 62.7851 18.2946 62.6799C18.0099 62.6156 17.714 62.6201 17.4315 62.693C17.1489 62.766 16.8878 62.9053 16.6699 63.0994L16.6684 63.0998Z" fill="#162B43"/>
<path d="M19.1317 75.7831H18.9745L18.7125 75.6278C18.3211 75.427 17.9667 75.1609 17.6646 74.8411C17.2366 74.4443 16.9275 73.9362 16.7719 73.3736C16.6823 73.0497 16.6469 72.7132 16.6671 72.3777C16.724 72.0325 16.8299 71.6972 16.9815 71.3818C17.3627 70.6514 17.9693 70.0634 18.7113 69.7052C19.5214 69.2874 20.4204 69.0716 21.3319 69.076C22.1658 69.0369 22.9975 69.1918 23.7615 69.5286C24.5254 69.8653 25.2009 70.3747 25.7347 71.0166C26.0209 71.4092 26.2671 71.8296 26.4694 72.2714C26.5741 72.5334 26.6789 72.6382 26.7837 72.4814C26.8661 72.3743 26.9195 72.2479 26.939 72.1142C27.0119 71.8949 27.0299 71.661 26.9914 71.4331C26.8959 70.6647 26.5866 69.9385 26.0987 69.3372C25.4008 68.495 24.4716 67.8753 23.4258 67.5546C22.1442 67.1218 20.7718 67.0313 19.4445 67.2923C17.892 67.6051 16.5209 68.5067 15.6185 69.808C15.132 70.5241 14.8427 71.3556 14.7797 72.219C14.7627 73.0819 14.9801 73.9333 15.4089 74.6824C16.1885 75.8415 17.3319 76.7082 18.6586 77.1457C19.6939 77.4784 20.7867 77.5942 21.8688 77.486C22.9508 77.3778 23.999 77.0478 24.9479 76.5166C25.549 76.1572 26.0675 75.675 26.4694 75.1015C26.8335 74.5043 26.9987 73.8068 26.9409 73.1097C26.8885 72.6382 26.8361 72.5334 26.7313 72.5858C26.6265 72.6382 26.6265 72.8481 26.4694 73.1625C26.1077 74.1609 25.4014 74.9972 24.4776 75.5207C23.3673 76.1068 22.112 76.3616 20.8611 76.2546C20.4326 76.2198 20.0101 76.1319 19.6032 75.993L19.2361 75.8875L19.1317 75.7831Z" fill="#162B43"/>
<path d="M26.417 71.9048C30.3191 74.3264 33.5037 77.7462 35.6417 81.8106C35.8513 82.1774 37.2663 81.6011 37.1616 81.3915C34.9922 77.3044 31.7951 73.8532 27.8856 71.3781C27.6236 71.2229 27.1517 71.3781 26.8897 71.4833C26.6277 71.5885 26.2074 71.7472 26.417 71.9048Z" fill="#162B43"/>
<path d="M21.2298 76.8839C25.1185 79.3217 28.299 82.7378 30.453 86.7905C30.6102 87.1573 32.0776 86.5806 31.9728 86.371C29.8004 82.2697 26.5817 78.816 22.6434 76.3604C22.4338 76.2028 21.9094 76.4127 21.6998 76.4648C21.4903 76.5168 21.0183 76.7271 21.2298 76.8839Z" fill="#162B43"/>
<path d="M13.3123 68.4448C14.7609 68.5258 16.1993 68.7364 17.6103 69.0739C17.967 69.1537 18.3407 69.0975 18.6582 68.9164C18.8134 68.864 19.1822 68.602 18.8678 68.4972C17.3541 68.1212 15.811 67.8758 14.2554 67.7637C13.8841 67.7715 13.5219 67.8802 13.2075 68.078C13.1551 68.1304 12.9979 68.1828 13.0523 68.288C13.1066 68.3932 13.2091 68.3928 13.3123 68.4448Z" fill="#162B43"/>
<path d="M10.4837 74.3147C12.8958 74.0976 15.3188 74.5901 17.4547 75.7318C17.6073 75.7863 17.7693 75.8097 17.9312 75.8003C18.093 75.791 18.2513 75.7492 18.3966 75.6774C18.5014 75.6774 19.1301 75.363 18.8682 75.2055C16.4872 73.9496 13.7897 73.4211 11.1109 73.6856C10.745 73.6796 10.39 73.8103 10.1154 74.0524C9.907 74.3147 10.2742 74.3671 10.4837 74.3147Z" fill="#162B43"/>
<path d="M11.3748 72.1677L12.1083 73.1632C12.3053 73.4984 12.5335 73.8143 12.7899 74.1067C13.0142 74.265 13.2842 74.3455 13.5586 74.3361C13.833 74.3266 14.0968 74.2277 14.3097 74.0543C14.5844 73.7854 14.7678 73.437 14.834 73.0584C14.9039 72.2742 14.9214 71.4863 14.8864 70.6998C14.9395 69.8729 15.0445 69.0502 15.2008 68.2365L13.7334 68.656C14.3916 69.8023 14.8189 71.0663 14.9912 72.3769C15.096 72.9016 16.6159 72.5344 16.5111 71.9577C16.271 70.5827 15.8109 69.2554 15.1484 68.0269C14.9912 67.8169 14.5193 67.8693 14.3097 67.9225C14.1001 67.9756 13.7334 68.1317 13.681 68.446C13.5214 69.3651 13.4163 70.2927 13.3662 71.2242V72.5868C13.3662 72.796 13.3138 73.006 13.3138 73.216C13.3138 73.4259 13.2614 73.4252 13.209 73.4776V73.6875L13.5234 73.5323H13.4714L13.8905 73.4271H14.1525C14.2573 73.4795 14.1001 73.2718 14.1001 73.2718L13.8905 73.0619L13.5762 72.5379L12.8422 71.542C12.5279 71.1229 11.06 71.6468 11.4272 72.1712L11.3748 72.1677Z" fill="#162B43"/>
<path d="M26.5742 78.8767L27.0462 76.1509L25.5259 76.4653C26.2743 79.0968 27.4045 81.6042 28.8804 83.9078C29.09 84.2749 30.2955 83.9602 30.3483 83.4886C30.4003 80.5001 30.4003 77.4616 30.3483 74.4735L28.828 74.8403C29.4719 78.0897 30.3836 81.2803 31.5537 84.3793C31.7633 84.9033 32.6544 84.5346 32.9164 84.3266C33.2582 84.015 33.4654 83.5827 33.4943 83.1211C33.5467 82.4396 33.5467 81.8108 33.5467 81.1293C33.5467 80.4477 33.5467 78.4567 33.4419 77.1461L31.9221 77.5128C32.4883 79.3004 33.2439 81.0224 34.1758 82.6495C34.4378 83.1735 35.9053 82.7019 35.6957 82.23C34.7641 80.621 34.0085 78.9164 33.4419 77.1457C33.2847 76.5689 31.9221 76.9881 31.9221 77.5124C31.9221 78.0368 32.0269 79.9238 32.0269 81.1289C32.0269 82.334 32.0269 82.2296 31.9745 82.8063C31.9221 83.3831 32.0269 83.8022 31.7125 84.0642L33.0752 83.959C31.9049 80.8779 30.9933 77.7047 30.3498 74.4723C30.2446 73.8964 28.8296 74.3171 28.8296 74.8391C28.882 77.7748 28.882 80.7621 28.8296 83.6974L30.297 83.2779C28.8466 81.0493 27.7505 78.6094 27.0477 76.045C26.8902 75.5206 25.6323 75.8874 25.5275 76.3597L25.0559 79.0847C24.9496 79.6618 26.5218 79.3995 26.5742 78.8767Z" fill="#162B43"/>
<path d="M21.5426 69.4941C21.1758 69.4941 20.9139 70.1757 20.8615 71.0668C20.8091 71.9579 21.1234 72.639 21.4378 72.639C21.7522 72.639 22.067 71.9575 22.067 71.0668C22.067 70.1761 21.8574 69.4941 21.5426 69.4941Z" fill="#007EEF"/>
<path d="M24.3736 72.7941C24.426 72.4805 23.8496 72.0605 23.0109 72.0605C22.1722 72.0605 21.5434 72.3229 21.5958 72.6373C21.6482 72.9517 22.2246 73.214 22.9585 73.214C23.6924 73.214 24.3208 73.1616 24.3736 72.7941Z" fill="#007EEF"/>
<path d="M44.866 18.4955C43.6605 17.4996 41.8259 15.7174 43.1362 14.0928C43.5557 13.6208 44.1841 13.0448 44.0288 12.3105C43.8736 11.5762 43.0329 10.9479 42.4566 10.4763C41.8802 10.0047 41.0939 9.5328 40.4648 9.00845C40.2903 8.92058 40.144 8.78571 40.0421 8.61906C39.9403 8.45242 39.8871 8.26063 39.8884 8.06534C39.8884 7.69818 40.2552 7.38381 40.4124 7.06944C40.7612 6.43386 40.8837 5.69858 40.7596 4.98425C40.6356 4.26993 40.2724 3.61898 39.7297 3.13823C39.3105 2.71906 37.843 3.34781 38.367 3.76736C38.6653 4.03738 38.9001 4.37014 39.0544 4.74171C39.2088 5.11329 39.2789 5.51445 39.2597 5.91635C39.2597 6.75468 38.7357 7.17423 38.421 7.90776C38.3222 8.22495 38.3301 8.56574 38.4435 8.87801C38.5568 9.19027 38.7693 9.4568 39.0485 9.63681C39.7297 10.2132 40.5684 10.6847 41.2499 11.2615C41.9314 11.8382 42.8746 12.4145 42.3506 13.2533C41.8267 14.092 41.3027 14.354 41.1975 15.2975C41.0423 17.0793 42.403 18.2859 43.6609 19.2807C44.9188 20.2754 45.4951 19.0195 44.866 18.4955Z" fill="#007EEF"/>
<path d="M55.6115 75.101C56.2406 74.8911 56.9742 75.3634 57.3413 75.835C57.7085 76.3065 57.7081 77.6692 57.8129 78.6127C57.8186 78.9749 57.9182 79.3295 58.1019 79.6418C58.2855 79.9541 58.547 80.2134 58.8608 80.3945C59.2219 80.5153 59.6043 80.559 59.9834 80.523C60.3625 80.487 60.7298 80.3719 61.0618 80.1853C61.6385 79.9234 62.0053 79.5562 62.4768 80.1326C62.8046 80.6139 63.0525 81.1449 63.2112 81.7052C63.4196 82.2379 63.7626 82.7074 64.2067 83.0679C64.4819 83.2738 64.8081 83.4007 65.1502 83.435C65.4125 83.487 66.4084 83.6442 66.0428 84.1686C65.6772 84.6929 66.2524 84.5877 66.4624 84.6401C66.6482 84.642 66.8324 84.6057 67.0037 84.5336C67.175 84.4616 67.3297 84.3551 67.4583 84.2209C67.5369 84.0944 67.5844 83.9511 67.597 83.8027C67.6096 83.6543 67.587 83.5051 67.5309 83.3671C67.4747 83.2289 67.3866 83.1061 67.2737 83.0086C67.1608 82.9112 67.0264 82.842 66.8815 82.8067C66.2524 82.5443 65.6233 82.6495 65.1517 82.0727C64.6802 81.496 64.5226 80.0285 63.7367 79.3474C63.5164 79.1767 63.2619 79.0556 62.9906 78.9922C62.7193 78.9289 62.4375 78.9248 62.1644 78.9802C61.8006 79.0288 61.4469 79.1351 61.1165 79.295C60.8545 79.3994 60.4874 79.7142 60.2238 79.7142C59.9603 79.7142 59.3312 78.5611 59.2803 78.0895C59.2295 77.618 59.3855 76.4125 59.0187 75.6262C58.652 74.8398 56.3974 73.9468 55.0347 74.5243C54.8256 74.5771 54.4056 74.8387 54.6156 75.101C54.8256 75.3634 55.4015 75.2058 55.6115 75.101Z" fill="#007EEF"/>
<path d="M49.7951 74.6828C48.9899 80.1586 47.8699 85.5835 46.4406 90.9305C46.3882 91.1928 47.8556 90.9829 47.9604 90.6161C49.365 85.228 50.4847 79.7696 51.3149 74.2637C51.3661 74.1061 49.8983 74.2109 49.7951 74.6828Z" fill="#007EEF"/>
<path d="M59.7517 89.7242C60.0213 89.7242 60.2849 89.6442 60.509 89.4944C60.7332 89.3446 60.9079 89.1317 61.0111 88.8826C61.1142 88.6335 61.1412 88.3595 61.0886 88.095C61.0359 87.8306 60.9061 87.5878 60.7154 87.3971C60.5247 87.2065 60.2818 87.0767 60.0174 87.0242C59.753 86.9716 59.4789 86.9987 59.2298 87.1019C58.9808 87.2051 58.7679 87.3799 58.6182 87.6041C58.4685 87.8283 58.3886 88.0919 58.3887 88.3615C58.3886 88.5405 58.4238 88.7177 58.4923 88.8831C58.5608 89.0485 58.6612 89.1987 58.7878 89.3253C58.9144 89.4518 59.0647 89.5522 59.2301 89.6207C59.3955 89.6891 59.5727 89.7243 59.7517 89.7242Z" fill="#007EEF"/>
<path d="M29.7714 17.2894C30.3932 17.2894 31.001 17.105 31.518 16.7596C32.035 16.4142 32.4379 15.9232 32.6758 15.3487C32.9138 14.7743 32.976 14.1422 32.8547 13.5324C32.7334 12.9225 32.434 12.3624 31.9944 11.9227C31.5547 11.4831 30.9945 11.1837 30.3847 11.0624C29.7749 10.9411 29.1428 11.0033 28.5684 11.2413C27.9939 11.4792 27.5029 11.8821 27.1575 12.3991C26.8121 12.9161 26.6277 13.5239 26.6277 14.1457C26.6277 14.5585 26.709 14.9673 26.867 15.3487C27.025 15.7301 27.2565 16.0767 27.5485 16.3686C28.138 16.9582 28.9376 17.2894 29.7714 17.2894Z" fill="#007EEF"/>
<path d="M50.3699 20.6976C51.9422 15.6657 53.6196 10.6342 55.3494 5.60265C55.6114 4.81633 54.0912 4.92112 53.882 5.49747C52.1521 10.5818 50.4747 15.7181 48.8501 20.8548C48.6401 21.4823 50.2127 21.3252 50.3699 20.6976Z" fill="#007EEF"/>
<path d="M60.6952 17.6576C60.5681 16.8622 60.6586 16.0472 60.9572 15.2991C61.062 15.0895 61.2719 14.7223 61.5339 14.6699C61.7959 14.6175 62.1103 14.8799 62.3202 14.9847C62.903 15.3858 63.6074 15.5711 64.312 15.5086C64.656 15.4836 64.9859 15.3622 65.264 15.1583C65.5421 14.9543 65.7571 14.6761 65.8843 14.3556C66.0939 13.7268 65.8843 13.1501 65.8843 12.5213C65.9105 12.2548 65.9625 11.9915 66.0395 11.735C66.1443 11.6302 66.0919 11.6302 65.9344 11.735C65.7768 11.8398 65.6728 11.7874 65.8824 11.7874C66.0787 11.8782 66.2959 11.9144 66.5111 11.8922C67.9786 11.8922 69.1844 10.8963 70.1275 9.848C71.0707 8.7997 69.2349 9.16686 68.8701 9.58602C68.5052 10.0052 67.9266 10.7391 67.2974 10.8963C67.0379 10.9487 66.7706 10.9487 66.5111 10.8963C66.1034 10.8421 65.6886 10.8957 65.3079 11.0515C65.0388 11.1819 64.8094 11.3818 64.6435 11.6306C64.4776 11.8794 64.3813 12.168 64.3644 12.4666C64.312 13.0957 64.5736 13.7773 64.4168 14.4072C64.26 15.0371 64.3644 14.512 64.3644 14.6168C64.3644 14.7216 64.2596 14.7216 64.4168 14.6168L64.0497 14.512L62.9494 13.9356C62.6022 13.8093 62.2333 13.7534 61.8643 13.7714C61.4953 13.7894 61.1336 13.8809 60.8004 14.0404C59.1754 14.7739 59.0706 16.4514 59.1754 18.0236C59.1754 18.6031 60.6952 18.234 60.6952 17.6576Z" fill="#007EEF"/>
</svg>
