<svg width="384" height="381" viewBox="0 0 384 381" fill="none" xmlns="http://www.w3.org/2000/svg">
<g clip-path="url(#clip0_222_4818)">
<path d="M290.142 19.3555C289.98 17.0913 289.843 14.6955 290.829 12.6589C292.223 9.76422 295.463 8.31963 298.498 7.2451C313.79 1.83123 330.107 -0.0513802 346.228 1.73814C351.533 2.33297 357.307 3.62679 360.517 7.89475C363.48 11.8365 363.423 17.2146 363.091 22.1323C361.402 47.3179 355.954 72.0841 350.523 96.7353C347.065 112.426 343.607 128.116 340.151 143.806C338.836 149.774 337.275 156.169 332.657 160.165C329.028 163.304 324.106 164.411 319.368 165.141C314.89 165.831 309.571 165.963 306.676 162.487C305.186 160.694 304.693 158.299 304.274 156.007C302.604 146.87 301.31 137.667 300.393 128.398C299.939 123.755 299.574 119.102 299.298 114.44C299.065 110.353 299.437 105.882 298.394 101.9C297.652 99.068 296.46 96.6256 296.162 93.6487C295.688 88.912 295.307 84.1616 294.894 79.4194C294.072 70.0064 293.287 60.5951 292.538 51.1857C291.79 41.7762 291.076 32.354 290.397 22.919L290.142 19.3555Z" fill="#DBF122"/>
<path d="M210.167 58.1534C209.383 55.0751 208.362 51.6789 205.618 50.0835C203.446 48.8198 200.756 49.0337 198.258 49.2995C133.082 56.2566 69.0755 71.6079 7.8276 94.9725C4.90249 96.1073 1.65693 97.519 0.481961 100.438C-0.243838 102.245 -0.0165123 104.276 0.290241 106.195C2.12528 117.677 6.38696 128.615 10.7418 139.396C34.3343 197.812 61.4409 254.732 88.5256 311.608C89.7663 314.215 91.0837 316.92 93.3597 318.694C97.7829 322.139 104.11 320.972 109.541 319.582C121.349 316.565 133.091 313.307 144.768 309.807C156.518 306.287 168.19 302.527 179.785 298.527C191.343 294.542 202.815 290.319 214.201 285.86C219.911 283.624 225.597 281.329 231.259 278.977C235.915 277.042 240.746 275.269 245.194 272.881C247.958 271.398 250.447 269.427 251.266 266.261C252.447 261.694 250.795 256.393 250.078 251.867C248.1 239.428 246.015 227.002 243.822 214.588C241.629 202.174 239.326 189.797 236.912 177.456C234.516 165.17 232.017 152.906 229.413 140.662C226.789 128.343 224.059 116.05 221.224 103.783C218.388 91.515 215.445 79.2712 212.394 67.0512C211.659 64.0798 210.917 61.1139 210.167 58.1534Z" fill="#007EEF"/>
<path d="M41.6471 143.616C39.0096 143.616 36.4707 142.964 34.3891 140.976C32.0392 138.729 30.8588 135.511 29.818 132.674C29.5742 132.007 29.3442 131.377 29.1004 130.755L23.5268 116.63C22.1848 113.209 21.1796 109.645 22.9626 106.696C24.0746 104.854 26.0685 103.431 28.5745 102.691C35.1314 100.756 41.5403 98.8533 47.7466 96.9866C79.4572 87.5022 106.846 79.3117 137.759 73.2647L180.335 64.9344C183.896 64.2381 187.549 63.9092 190.08 66.2227C191.57 67.5933 192.203 69.5121 192.712 71.0608C194.131 75.3809 194.772 79.5447 195.393 83.5741C195.897 86.8334 196.415 90.2022 197.346 93.6643C197.346 93.7109 198.56 98.5819 197.716 100.424C196.79 102.441 190.663 103.93 189.195 104.19C176.988 106.359 168.563 108.771 159.643 111.317C153.168 113.173 146.472 115.092 138.126 116.939C138.049 116.956 137.97 116.964 137.891 116.964C137.208 117.022 136.535 117.167 135.889 117.394C135.53 117.504 135.158 117.614 134.793 117.696C126.637 119.615 118.04 121.978 106.914 125.385C102.332 126.788 97.7364 128.052 93.2939 129.275C88.72 130.533 83.9818 131.835 79.2874 133.285C76.2993 134.206 73.2263 135.204 70.2491 136.193C64.0374 138.233 57.6147 140.343 51.2797 141.884C50.847 141.988 50.3978 142.103 49.9404 142.218C47.3549 142.879 44.4463 143.616 41.6471 143.616ZM184.693 66.6092C183.363 66.6428 182.038 66.8006 180.738 67.0807L138.168 75.4165C107.361 81.447 80.0187 89.6184 48.3628 99.0863C42.1621 100.939 35.7641 102.858 29.1908 104.793C28.0432 105.133 25.9507 105.978 24.8332 107.831C23.4638 110.076 24.4964 113.132 25.559 115.824L31.1354 129.957C31.3901 130.596 31.6366 131.267 31.8721 131.917C32.8773 134.658 33.9181 137.495 35.901 139.389C39.3136 142.651 44.9064 141.237 49.4009 140.099C49.8665 139.981 50.3211 139.866 50.7703 139.762C57.0204 138.241 63.3992 136.144 69.5699 134.118C72.5525 133.137 75.6392 132.123 78.6465 131.196C83.3792 129.738 88.1257 128.43 92.716 127.169C97.1448 125.95 101.721 124.689 106.276 123.296C117.445 119.875 126.086 117.488 134.292 115.569C134.582 115.5 134.908 115.402 135.251 115.295C136.059 115.018 136.899 114.843 137.751 114.774C145.982 112.948 152.612 111.049 159.029 109.209C168.005 106.638 176.482 104.209 188.801 102.022C191.737 101.501 195.221 100.133 195.725 99.4755C195.999 98.7985 195.665 95.8791 195.221 94.2262C194.26 90.649 193.728 87.2171 193.216 83.9003C192.581 79.7886 191.981 75.8852 190.62 71.7379C190.094 70.1371 189.579 68.7363 188.59 67.8345C187.601 66.9327 186.215 66.6092 184.693 66.6092Z" fill="#162B43"/>
<path d="M60.5014 199.503C59.7049 199.521 58.9161 199.344 58.2035 198.988C56.3246 198.023 54.5635 193.985 52.3286 187.779C52.0547 187.02 51.7973 186.302 51.7096 186.134C51.3618 185.427 51.0249 184.695 50.6963 183.988C50.0581 182.601 49.3953 181.167 48.6366 179.876C48.5654 179.756 48.4778 179.641 48.3874 179.517C48.0396 179.054 47.4589 178.281 47.9382 177.094C48.3792 175.998 49.6226 175.348 50.5894 174.992L70.2545 167.758C70.7502 167.574 71.9143 167.146 72.8975 167.815C73.3812 168.185 73.732 168.701 73.8972 169.287C76.332 175.959 78.4684 182.818 80.2486 189.687C80.7471 191.606 79.7282 193.574 77.9288 194.16C74.8257 195.172 72.2566 196.079 69.9861 196.902C65.5354 198.478 62.6651 199.503 60.5014 199.503ZM49.9568 177.936C49.9951 178.001 50.0773 178.108 50.1375 178.19C50.2767 178.366 50.4056 178.549 50.5237 178.739C51.321 180.135 52.0433 181.572 52.6874 183.045C53.0079 183.741 53.3393 184.459 53.6734 185.142C53.8103 185.416 54.0048 185.964 54.391 187.025C55.2126 189.309 57.716 196.26 59.2032 197.025C60.7835 197.847 63.9715 196.696 69.2548 194.81C71.5336 193.988 74.119 193.072 77.2496 192.05C77.5998 191.91 77.8847 191.644 78.0476 191.303C78.2105 190.963 78.2395 190.574 78.1287 190.213C76.3649 183.415 74.2505 176.623 71.8294 170.03C71.7848 169.893 71.7279 169.76 71.6595 169.633C71.4312 169.652 71.2078 169.71 70.9995 169.805L51.3317 177.028C50.4498 177.354 50.028 177.724 49.9622 177.894L49.9568 177.936Z" fill="white"/>
<path d="M136.669 175.639C136.262 175.646 135.859 175.552 135.497 175.365C134.632 174.907 134.281 174.019 134.07 173.487C132.747 170.124 131.43 166.7 130.162 163.318C128.926 160.028 127.905 157.287 126.897 154.417C126.404 153.019 125.254 149.757 128.874 148.365C133.911 146.446 141.26 143.905 147.66 142.784C148.553 142.627 150.213 142.337 151.495 143.263C152.352 143.883 152.741 144.812 153.067 145.711C155.099 151.325 156.901 158.869 157.794 163.871C157.923 164.603 158.12 165.708 157.687 166.749C157.255 167.791 156.285 168.465 155.428 168.978C151.046 171.612 145.469 173.23 140.558 174.658C139.704 174.907 138.863 175.151 138.041 175.398C137.598 175.545 137.136 175.627 136.669 175.639ZM149.268 144.804C148.857 144.815 148.447 144.861 148.044 144.941C141.816 146.037 134.61 148.504 129.663 150.423C128.461 150.884 128.176 151.448 128.968 153.713C129.97 156.561 130.989 159.294 132.219 162.572C133.484 165.944 134.793 169.354 136.116 172.714C136.203 172.985 136.341 173.236 136.524 173.454C136.658 173.531 137.236 173.38 137.417 173.325C138.239 173.079 139.09 172.832 139.95 172.583C144.965 171.124 150.153 169.617 154.305 167.128C154.888 166.777 155.474 166.399 155.674 165.935C155.847 165.521 155.762 164.918 155.647 164.291C154.776 159.39 153.004 151.986 151.018 146.492C150.799 145.892 150.574 145.33 150.221 145.075C149.934 144.888 149.594 144.798 149.252 144.818L149.268 144.804Z" fill="white"/>
<path d="M178.574 162.001C177.864 162.044 177.159 161.865 176.556 161.489C175.77 160.941 175.46 160.077 175.266 159.502C175.228 159.385 175.207 159.263 175.205 159.14C175.205 158.559 174.753 157.55 174.384 156.738C174.178 156.275 173.981 155.839 173.836 155.439L169.744 143.707C169.659 143.458 169.566 143.214 169.47 142.978C168.876 141.418 167.977 139.061 170.924 137.77C174.189 136.344 177.643 135.177 180.982 134.047C182.625 133.499 184.296 132.926 185.912 132.337C188.218 131.514 190.603 130.64 193.131 130.27C193.978 130.147 194.958 130.097 195.818 130.656C196.93 131.38 197.187 132.742 197.322 133.474C198.527 139.886 199.666 146.402 200.71 152.843C200.803 153.416 200.984 154.488 200.348 155.354C199.85 156.045 199.094 156.292 198.59 156.451L186.928 160.25C184.287 161.102 181.557 161.988 178.637 162.007L178.574 162.001ZM177.391 158.934C177.464 159.214 177.605 159.472 177.802 159.685C178.062 159.79 178.344 159.832 178.623 159.809C181.203 159.792 183.77 158.962 186.254 158.164L197.943 154.381C198.178 154.324 198.4 154.225 198.598 154.088C198.661 153.997 198.655 153.701 198.573 153.208C197.533 146.785 196.382 140.286 195.196 133.894C195.12 133.483 194.977 132.721 194.649 132.523C194.397 132.359 193.887 132.408 193.471 132.468C191.162 132.806 188.886 133.631 186.681 134.428C185.038 135.023 183.34 135.596 181.699 136.152C178.413 137.265 174.997 138.419 171.817 139.806C170.903 140.207 170.826 140.355 171.543 142.219C171.642 142.474 171.743 142.737 171.837 143.008L175.926 154.74C176.064 155.122 176.221 155.498 176.397 155.864C176.829 156.823 177.325 157.931 177.388 158.929L177.391 158.934Z" fill="white"/>
<path d="M74.7874 233.564C74.1333 233.563 73.4942 233.368 72.9504 233.004C72.4066 232.64 71.9823 232.124 71.7308 231.519L64.5029 213.869C64.4482 213.735 64.3769 213.581 64.3003 213.417C63.8648 212.482 63.265 211.202 63.7689 210.048C64.3441 208.732 66.0093 208.384 67.2254 208.129C67.4993 208.074 67.7457 208.022 67.9156 207.97L87.0876 202.364C87.2274 202.325 87.3733 202.313 87.5176 202.329C87.662 202.345 87.8018 202.389 87.9285 202.46C88.0547 202.53 88.1663 202.623 88.2571 202.735C88.3515 202.847 88.4223 202.978 88.4653 203.118C90.3496 209.938 92.0888 216.898 93.6308 223.803C93.8381 224.722 93.6967 225.686 93.2342 226.507C92.7716 227.328 92.0208 227.948 91.1275 228.246L75.8391 233.392C75.5007 233.508 75.1452 233.566 74.7874 233.564ZM86.6165 204.782L68.5208 210.075C68.2689 210.149 67.9731 210.212 67.6636 210.275C67.1925 210.374 65.9436 210.637 65.7683 210.931C65.6724 211.205 66.1134 212.137 66.2777 212.49C66.3708 212.69 66.4557 212.874 66.5215 213.039L73.7521 230.689C73.8605 230.951 74.064 231.163 74.3218 231.281C74.5799 231.401 74.8746 231.416 75.1434 231.322L90.4017 226.174C90.7821 226.049 91.1024 225.786 91.2999 225.438C91.4973 225.089 91.5579 224.679 91.4698 224.288C90.01 217.772 88.3804 211.216 86.6165 204.763V204.782Z" fill="white"/>
<path d="M111.061 223.404C110.612 223.412 110.169 223.296 109.782 223.066C108.96 222.576 108.665 221.696 108.484 221.172L102.261 202.966C102.212 202.818 102.163 202.691 102.116 202.552C101.598 201.093 101.393 199.983 103.499 198.988C104.633 198.44 105.86 197.892 107.358 197.261C112.606 195.024 118.006 193.164 123.517 191.694C124.019 191.56 125.065 191.28 125.961 191.856C126.856 192.431 127.04 193.465 127.138 194.021L130.838 215.194C130.983 215.771 130.943 216.379 130.723 216.932C130.282 217.894 129.255 218.198 128.762 218.343L112.444 223.16C111.997 223.308 111.532 223.39 111.061 223.404ZM103.981 201.2C104.022 201.357 104.107 201.598 104.181 201.803C104.23 201.938 104.28 202.077 104.334 202.242L110.557 220.449C110.617 220.627 110.776 221.093 110.908 221.172C111.039 221.252 111.324 221.189 111.836 221.035L128.152 216.222C128.361 216.178 128.562 216.097 128.743 215.983C128.737 215.839 128.719 215.695 128.688 215.553L124.988 194.38C124.973 194.134 124.903 193.894 124.783 193.679C124.546 193.676 124.31 193.715 124.087 193.794C118.673 195.243 113.369 197.077 108.215 199.281C106.745 199.906 105.545 200.444 104.436 200.973C104.279 201.043 104.127 201.125 103.981 201.217V201.2Z" fill="white"/>
<path d="M150.687 213.466C150.502 213.468 150.317 213.444 150.139 213.395C149.287 213.165 148.846 212.446 148.611 212.06C146.507 208.623 144.701 205.012 143.215 201.265C142.566 199.621 141.974 197.976 141.451 196.293C141.364 196.019 141.265 195.745 141.177 195.438C140.75 194.24 140.271 192.869 140.356 191.499C140.537 188.659 143.369 187.661 145.22 187.003L145.844 186.778C146.392 186.573 148.52 185.844 151.21 184.917C155.37 183.489 161.07 181.532 164.406 180.326C164.907 180.144 165.442 180.073 165.973 180.117C166.505 180.162 167.02 180.321 167.484 180.583C167.948 180.845 168.349 181.204 168.662 181.636C168.974 182.067 169.19 182.561 169.295 183.083L173.403 203.623C173.502 204.116 173.652 204.864 173.359 205.607C172.877 206.846 171.541 207.252 170.894 207.447L151.678 213.285C151.359 213.398 151.025 213.459 150.687 213.466ZM150.484 210.914C150.558 211.04 150.642 211.159 150.736 211.271C150.821 211.254 150.966 211.21 151.043 211.188L170.272 205.355C170.511 205.281 171.234 205.062 171.33 204.807C171.357 204.553 171.335 204.296 171.267 204.05L167.158 183.514C167.117 183.3 167.03 183.097 166.901 182.922C166.774 182.744 166.609 182.596 166.419 182.488C166.229 182.382 166.018 182.317 165.8 182.299C165.583 182.281 165.364 182.31 165.159 182.384C161.804 183.596 156.099 185.559 151.933 186.989C149.257 187.908 147.143 188.634 146.62 188.831L145.962 189.067C144.018 189.755 142.637 190.342 142.555 191.633C142.498 192.554 142.876 193.653 143.24 194.714C143.349 195.029 143.453 195.333 143.547 195.63C144.053 197.247 144.642 198.867 145.256 200.446C146.701 204.076 148.454 207.575 150.495 210.906L150.484 210.914Z" fill="white"/>
<path d="M190.398 201.954C189.658 201.954 189.39 201.195 189.028 200.186C188.823 199.597 188.533 198.747 188.168 197.659C187.508 195.685 186.739 193.333 186.229 191.779L185.714 190.211C185.405 189.298 185.073 188.366 184.75 187.47C183.88 185.157 183.132 182.8 182.507 180.408C181.795 177.459 182.888 175.59 185.851 174.685C190.318 173.314 194.925 172.144 199.381 171.004C201.592 170.439 203.876 169.852 206.108 169.255C206.669 169.104 208.159 168.707 209.145 169.732C209.506 170.144 209.744 170.649 209.833 171.19C211.446 178.109 212.846 185.17 214.012 192.184C214.1 192.705 214.245 193.58 213.818 194.377C213.391 195.175 212.572 195.548 212.084 195.748C205.256 198.761 198.052 200.835 190.669 201.916C190.58 201.939 190.489 201.952 190.398 201.954ZM190.346 199.761C190.299 199.767 190.252 199.777 190.206 199.788L190.31 199.766L190.346 199.761ZM207.431 171.253C207.176 171.267 206.924 171.311 206.68 171.385C204.437 171.985 202.145 172.572 199.929 173.139C195.498 174.274 190.915 175.444 186.495 176.793C184.635 177.36 184.202 178.087 184.643 179.904C185.251 182.219 185.977 184.5 186.818 186.741C187.144 187.651 187.481 188.594 187.793 189.52C187.859 189.712 188.051 190.299 188.316 191.11C188.965 193.089 190.507 197.823 191.162 199.646C198.07 198.564 204.809 196.587 211.208 193.766C211.459 193.675 211.691 193.535 211.89 193.355C211.934 193.089 211.922 192.816 211.857 192.555C210.704 185.589 209.307 178.575 207.705 171.7C207.679 171.553 207.636 171.41 207.579 171.272C207.531 171.255 207.481 171.245 207.431 171.245V171.253Z" fill="white"/>
<path d="M103.556 305.832C104.014 306.847 104.6 307.97 105.674 308.261C106.427 308.467 110.604 306.616 111.343 306.359L124.364 301.8C125.22 301.483 125.918 300.843 126.309 300.017C126.7 299.191 126.753 298.246 126.456 297.381L111.012 252.114C110.836 251.596 108.974 246.429 107.613 242.72C106.777 240.448 103.009 241.18 102.291 241.426L87.2602 246.596C85.343 247.254 82.9766 247.789 81.4456 249.189C79.9146 250.59 80.3993 252.257 81.0594 254.003C86.3262 267.983 90.2236 276.532 95.3015 287.256C98.1801 293.39 100.763 299.659 103.556 305.832Z" fill="#DBF122"/>
<path d="M127.393 258.238C124.876 258.238 123.558 254.949 123.065 253.671L122.978 253.449C122.285 252.112 121.594 250.725 120.934 249.338C119.768 246.895 118.661 244.403 117.648 241.898C117.555 241.673 117.462 241.457 117.374 241.246C116.859 240.053 116.371 238.927 116.864 237.789C117.21 236.989 117.96 236.418 119.182 235.966C123.016 234.596 126.946 233.305 130.756 232.06C132.649 231.443 134.61 230.805 136.524 230.163C137.099 229.925 137.734 229.873 138.34 230.015C139.466 230.352 139.822 231.479 139.956 231.904L145.434 249.318C145.584 249.798 145.864 250.689 145.434 251.547C145.075 252.268 144.398 252.643 143.79 252.917C138.397 255.491 129.781 258.01 127.658 258.208C127.571 258.225 127.482 258.235 127.393 258.238ZM137.674 232.123C137.518 232.155 137.364 232.198 137.214 232.252C135.297 232.893 133.328 233.535 131.427 234.154C127.636 235.391 123.714 236.671 119.924 238.039C119.047 238.354 118.897 238.617 118.875 238.669C118.76 238.943 119.091 239.705 119.384 240.385C119.48 240.607 119.581 240.837 119.677 241.078C120.68 243.545 121.77 245.996 122.917 248.4C123.566 249.771 124.246 251.125 124.936 252.46C125.001 252.591 125.059 252.727 125.108 252.865C126.281 255.823 127.149 256.073 127.472 256.042C129.178 255.881 137.474 253.526 142.865 250.952C143.097 250.868 143.31 250.738 143.492 250.571C143.473 250.371 143.428 250.175 143.358 249.987L137.88 232.57C137.833 232.412 137.764 232.262 137.674 232.123Z" fill="white"/>
<path d="M155.945 283.472C155.085 280.041 154.431 277.404 153.776 274.767C153.122 272.13 152.47 269.501 151.613 266.074C151.514 265.685 151.254 264.652 150.243 264.337C149.858 264.229 149.451 264.229 149.065 264.337C143.808 265.54 138.701 267.325 133.837 269.657C133.662 269.742 133.361 269.86 133.043 269.986C131.534 270.578 130.337 271.082 129.836 271.905C129.203 272.925 129.732 274.301 130.159 275.405C130.247 275.636 130.329 275.852 130.373 275.992C130.871 277.658 135.99 290.863 136.779 291.658C137.169 292.039 137.633 292.336 138.142 292.532C138.651 292.727 139.195 292.816 139.74 292.792C141.175 292.792 142.547 292.266 143.174 292.025C146.524 290.736 149.854 289.284 153.089 287.724L154.138 287.214C154.653 286.956 155.614 286.482 155.978 285.479C156.258 284.717 156.071 283.982 155.945 283.472ZM153.919 284.733C153.856 284.912 153.354 285.158 153.165 285.254C149.662 286.987 146.044 288.579 142.388 289.983C140.438 290.731 139.101 290.805 138.4 290.183C137.699 288.916 133.224 277.883 132.471 275.381C132.405 275.159 132.306 274.904 132.197 274.635C132.052 274.257 131.723 273.401 131.728 273.048C132.073 272.735 133.3 272.256 133.84 272.042C134.21 271.897 134.533 271.768 134.779 271.653C139.468 269.405 144.389 267.681 149.454 266.513L149.482 266.62C150.339 270.044 150.994 272.675 151.645 275.307C152.297 277.938 152.955 280.583 153.815 284.015C153.896 284.246 153.933 284.489 153.924 284.733H153.919Z" fill="white"/>
<path d="M164.494 249.282C164.333 249.283 164.174 249.267 164.017 249.236C162.502 248.926 161.974 247.289 161.774 246.675C160.678 243.301 159.583 239.877 158.523 236.5C158.268 235.678 157.959 234.856 157.627 233.957C156.877 231.92 156.099 229.815 155.872 227.745C155.543 224.752 158.58 223.872 160.396 223.359C160.736 223.261 161.056 223.167 161.327 223.071C167.03 221.098 172.88 219.305 178.711 217.74C179.243 217.558 179.818 217.552 180.354 217.721C181.379 218.11 181.68 219.179 181.809 219.64C183.479 225.6 184.703 231.676 185.47 237.819C185.62 239.04 185.347 240.276 184.695 241.32C184.043 242.364 183.053 243.152 181.891 243.553L165.789 249.036C165.374 249.191 164.936 249.275 164.494 249.282ZM163.855 245.993C164.176 246.98 164.403 247.089 164.458 247.089C164.672 247.076 164.882 247.027 165.08 246.944L181.181 241.462C181.868 241.226 182.453 240.761 182.838 240.144C183.223 239.528 183.383 238.798 183.293 238.076C182.542 232.043 181.34 226.074 179.697 220.221C179.66 220.071 179.609 219.925 179.544 219.785C179.456 219.801 179.338 219.831 179.27 219.848C173.488 221.399 167.69 223.176 162.034 225.136C161.711 225.245 161.363 225.347 160.996 225.453C158.854 226.07 157.934 226.514 158.033 227.515C158.23 229.316 158.961 231.292 159.676 233.203C159.999 234.08 160.333 234.987 160.604 235.851C161.664 239.222 162.754 242.638 163.847 245.993H163.855Z" fill="white"/>
<path d="M203.016 236.867C202.592 236.876 202.173 236.782 201.794 236.593C201.013 236.19 200.597 235.437 200.348 234.987C198.611 231.845 197.116 228.576 195.875 225.207C195.714 224.763 195.514 224.269 195.303 223.746C194.415 221.536 193.309 218.79 193.569 216.514C193.887 213.773 196.724 213.061 198.42 212.636H198.453C200.644 212.088 203.04 211.073 205.368 210.089C209.523 208.327 213.437 206.682 216.384 207.449C218.12 207.902 219.295 211.443 222.377 225.497C222.62 226.594 222.85 227.657 223.061 228.597C223.119 228.855 223.082 229.126 222.957 229.358C222.832 229.591 222.626 229.77 222.379 229.864L204.851 236.443C204.27 236.694 203.648 236.838 203.016 236.867ZM202.262 233.913C202.391 234.189 202.578 234.434 202.81 234.631C203.084 234.776 203.763 234.521 204.086 234.4L220.739 228.129C220.585 227.442 220.426 226.711 220.259 225.936C219.098 220.64 216.951 210.859 215.721 209.511C213.475 209.026 209.8 210.577 206.239 212.079C203.837 213.094 201.35 214.143 199.009 214.733H198.973C197.239 215.166 195.9 215.591 195.768 216.734C195.571 218.455 196.563 220.917 197.357 222.896C197.576 223.444 197.779 223.946 197.954 224.42C199.155 227.683 200.603 230.85 202.284 233.893L202.262 233.913Z" fill="white"/>
<path d="M39.3192 156.895C37.1911 158.52 37.5527 162.289 39.8013 163.747C42.0499 165.206 45.3639 164.296 46.8484 162.056C48.2945 159.88 47.9439 156.598 45.8925 154.987C43.8411 153.375 40.3244 154.022 39.2042 156.385L39.3192 156.895Z" fill="#162B43"/>
<path d="M42.2935 165.548C41.1998 165.562 40.126 165.255 39.2041 164.666C37.799 163.756 36.8815 162.054 36.813 160.228C36.7733 159.554 36.8678 158.879 37.0912 158.243C37.3145 157.606 37.6622 157.02 38.114 156.519C38.0926 156.314 38.1277 156.108 38.2153 155.922C38.5655 155.227 39.0673 154.62 39.6836 154.145C40.2999 153.671 41.015 153.341 41.7759 153.18C42.5938 152.974 43.4473 152.952 44.2748 153.117C45.1022 153.281 45.8829 153.626 46.5607 154.129C49.0256 156.048 49.557 159.957 47.7548 162.67C47.1438 163.559 46.3258 164.286 45.3714 164.787C44.417 165.288 43.355 165.55 42.2771 165.548H42.2935ZM40.3763 156.555C40.4466 156.771 40.448 157.004 40.3803 157.221C40.3126 157.438 40.1791 157.629 39.9983 157.766C39.3355 158.273 38.9767 159.137 39.0151 160.146C39.0227 160.671 39.1521 161.187 39.3931 161.653C39.6355 162.118 39.9835 162.52 40.4092 162.827C42.1018 163.923 44.7393 163.268 45.9499 161.456C47.1221 159.691 46.788 157.07 45.2296 155.856C44.8114 155.553 44.3315 155.347 43.8243 155.253C43.3171 155.158 42.7953 155.177 42.2962 155.308C41.5171 155.463 40.826 155.909 40.3626 156.555H40.3763Z" fill="#162B43"/>
<path d="M69.8137 143.362C66.5271 144.551 63.2568 146.103 60.9398 148.718C60.3701 149.357 59.8442 150.138 59.9154 150.99C60.0688 152.824 62.5502 153.257 64.3798 153.071C72.0512 152.285 79.4261 149.685 85.8963 145.486C87.0603 144.727 88.2928 143.762 88.4873 142.386C89.235 137.107 72.0869 142.539 69.8137 143.362Z" fill="#F9F8FD"/>
<path d="M161.204 121.526C160.944 121.529 160.692 121.437 160.495 121.268C160.296 121.1 160.163 120.868 160.12 120.611C160.077 120.354 160.126 120.091 160.259 119.867C160.393 119.643 160.601 119.474 160.848 119.39C171.412 115.767 182.233 112.439 193.008 109.506C193.15 109.462 193.298 109.445 193.446 109.456C193.594 109.47 193.737 109.513 193.868 109.584C193.998 109.655 194.113 109.751 194.205 109.868C194.298 109.984 194.366 110.118 194.405 110.262C194.442 110.405 194.452 110.554 194.432 110.701C194.412 110.848 194.361 110.99 194.284 111.118C194.207 111.244 194.105 111.354 193.986 111.441C193.865 111.527 193.728 111.588 193.583 111.619C182.852 114.541 172.077 117.855 161.56 121.465C161.446 121.506 161.325 121.527 161.204 121.526Z" fill="#162B43"/>
<path d="M166.969 125.914C166.709 125.914 166.457 125.821 166.258 125.652C166.06 125.483 165.929 125.249 165.887 124.991C165.846 124.734 165.898 124.47 166.033 124.247C166.169 124.024 166.379 123.857 166.627 123.776L184.873 117.762C185.01 117.717 185.154 117.7 185.298 117.71C185.442 117.722 185.582 117.761 185.711 117.825C185.84 117.894 185.954 117.987 186.048 118.099C186.141 118.208 186.212 118.335 186.256 118.472C186.302 118.609 186.32 118.753 186.308 118.897C186.299 119.041 186.261 119.182 186.196 119.311C186.131 119.44 186.041 119.555 185.931 119.648C185.822 119.742 185.695 119.813 185.558 119.856L167.317 125.859C167.205 125.897 167.088 125.915 166.969 125.914Z" fill="#162B43"/>
<path d="M72.5525 119.105C72.9661 121.175 75.0942 121.254 77.184 120.725C112.515 111.778 146.075 104.898 180.987 97.102C183.416 96.5537 184.367 94.6569 183.553 92.4173C182.011 87.349 182.441 80.7976 180.346 75.8636C180.062 75.2037 179.571 74.6548 178.946 74.3009C178.321 73.947 177.598 73.8075 176.887 73.9036C141.892 78.6842 105.235 88.9799 71.0023 97.8311C69.4111 98.2697 67.2775 99.1085 67.0666 99.9692C66.7051 101.447 67.2419 103.272 67.776 104.467C69.6877 108.716 71.1311 114.656 72.5525 119.105Z" fill="#162B43"/>
<path d="M87.0684 115.797C86.7955 115.801 86.5308 115.703 86.3261 115.523C86.1227 115.337 85.9966 115.082 85.9728 114.807C85.6387 111 84.8252 108.053 84.1049 105.452C83.4366 103.037 82.8067 100.756 82.6478 98.1848C82.6389 98.0408 82.6585 97.8964 82.7055 97.76C82.7525 97.6235 82.8259 97.4977 82.9216 97.3897C83.0173 97.2817 83.1333 97.1937 83.2631 97.1307C83.3928 97.0677 83.5337 97.031 83.6776 97.0226C83.8214 97.0137 83.9654 97.0332 84.1016 97.0801C84.2377 97.1269 84.3633 97.2002 84.4712 97.2956C84.579 97.3911 84.667 97.5069 84.7301 97.6365C84.7932 97.766 84.8302 97.9067 84.8389 98.0505C84.9814 100.391 85.5565 102.467 86.2084 104.868C86.9533 107.557 87.7969 110.608 88.1475 114.615C88.1605 114.759 88.1456 114.905 88.1037 115.043C88.0595 115.18 87.9898 115.307 87.8982 115.418C87.8047 115.53 87.6915 115.623 87.5641 115.693C87.4354 115.759 87.2948 115.799 87.1505 115.81L87.0684 115.797Z" fill="white"/>
<path d="M102.497 112.387C102.274 112.387 102.057 112.319 101.874 112.193C101.691 112.066 101.551 111.887 101.472 111.679C99.5303 106.559 98.6649 102.154 97.9664 98.6177C97.6569 97.0443 97.3639 95.5586 97.0215 94.2319C96.9857 94.0924 96.9777 93.9472 96.998 93.8047C97.0182 93.6621 97.0664 93.5249 97.1396 93.4009C97.2129 93.2769 97.3098 93.1686 97.4249 93.0822C97.54 92.9957 97.6709 92.9328 97.8103 92.897C98.0914 92.8245 98.3898 92.8666 98.6399 93.0141C98.89 93.1616 99.0713 93.4025 99.1442 93.6837C99.5029 95.0817 99.8015 96.5975 100.116 98.2011C100.834 101.839 101.645 105.961 103.521 110.909C103.573 111.043 103.597 111.187 103.592 111.331C103.589 111.475 103.557 111.617 103.496 111.748C103.441 111.884 103.359 112.008 103.255 112.112C103.052 112.304 102.781 112.408 102.502 112.4L102.497 112.387Z" fill="white"/>
<path d="M119.935 108.393C119.728 108.393 119.526 108.335 119.351 108.224C119.176 108.114 119.036 107.957 118.946 107.771C117.303 104.355 116.604 100.871 115.917 97.5049C115.405 94.994 114.873 92.4009 113.964 89.8516C113.866 89.5776 113.882 89.2759 114.006 89.0129C114.131 88.75 114.354 88.5473 114.628 88.4495C114.902 88.3518 115.204 88.3669 115.466 88.4915C115.729 88.6162 115.932 88.8402 116.029 89.1143C116.991 91.8088 117.536 94.4814 118.064 97.0636C118.754 100.449 119.406 103.642 120.924 106.819C120.986 106.95 121.023 107.091 121.03 107.236C121.039 107.379 121.019 107.523 120.97 107.658C120.924 107.795 120.85 107.921 120.754 108.028C120.649 108.142 120.522 108.233 120.381 108.296C120.239 108.359 120.087 108.392 119.932 108.393H119.935Z" fill="white"/>
<path d="M96.408 187.015C96.2822 187.017 96.1565 187.007 96.0327 186.985C94.4524 186.711 93.9238 184.975 93.7513 184.403C92.6995 180.941 91.6642 177.413 90.6673 173.92C90.44 173.126 90.1825 172.3 89.936 171.5C89.2786 169.559 88.7524 167.577 88.3612 165.565C87.8463 162.512 90.3058 161.437 92.0997 160.651C92.349 160.544 92.5982 160.434 92.842 160.322C98.3264 157.757 104.015 155.654 109.848 154.033C110.22 153.932 111.091 153.688 111.85 154.206C112.293 154.545 112.6 155.031 112.715 155.577L118.565 175.678C118.743 176.289 119.012 177.213 118.686 178.145C118.196 179.537 116.747 180.047 115.966 180.321L97.6377 186.757C97.246 186.914 96.8298 187.001 96.408 187.015ZM95.8328 183.767C96.1368 184.77 96.3806 184.822 96.3806 184.822C96.5693 184.806 96.7542 184.759 96.9283 184.685L115.257 178.246C115.659 178.106 116.495 177.813 116.626 177.424C116.719 177.15 116.574 176.662 116.47 176.3L110.623 156.182L110.598 156.103L110.445 156.141C104.729 157.729 99.1559 159.789 93.7814 162.301L92.9899 162.657C91.0398 163.507 90.3222 163.948 90.5249 165.195C90.901 167.11 91.4023 168.998 92.0258 170.848C92.2805 171.67 92.5407 172.492 92.7762 173.315C93.7677 176.796 94.8003 180.31 95.8465 183.761L95.8328 183.767Z" fill="white"/>
<path d="M136.316 104.208C136.058 104.207 135.809 104.116 135.612 103.95C135.414 103.784 135.281 103.553 135.237 103.298C134.492 98.9912 132.301 90.3868 130.896 86.2504C130.806 85.9796 130.826 85.6846 130.951 85.4281C131.046 85.2331 131.197 85.0708 131.384 84.9617C131.572 84.8527 131.788 84.8019 132.004 84.8157C132.221 84.8295 132.428 84.9073 132.6 85.0392C132.773 85.1712 132.902 85.3514 132.972 85.5569C134.432 89.855 136.623 98.4649 137.395 102.938C137.424 103.096 137.416 103.258 137.373 103.413C137.313 103.647 137.176 103.856 136.985 104.004C136.793 104.153 136.558 104.234 136.316 104.235V104.208Z" fill="white"/>
<path d="M153.015 101.063C152.806 101.065 152.602 101.006 152.426 100.893C152.251 100.78 152.11 100.621 152.021 100.432C150.473 97.1431 149.534 92.5736 148.704 88.5441C148.233 86.2608 147.789 84.1035 147.282 82.3574C147.222 82.1491 147.225 81.9275 147.29 81.7207C147.355 81.5139 147.481 81.3312 147.65 81.1956C147.819 81.0601 148.025 80.9778 148.24 80.9591C148.456 80.9405 148.673 80.9864 148.863 81.091C149.116 81.2307 149.305 81.4652 149.386 81.7434C149.917 83.5744 150.372 85.7728 150.851 88.1028C151.654 92.0117 152.566 96.4414 154.004 99.5005C154.083 99.6671 154.119 99.8509 154.108 100.035C154.09 100.314 153.967 100.575 153.764 100.766C153.56 100.957 153.291 101.063 153.012 101.063H153.015Z" fill="white"/>
<path d="M168.898 96.3314C168.677 96.3314 168.461 96.2645 168.279 96.1396C168.097 96.0131 167.957 95.8357 167.876 95.6297C165.779 90.1588 164.47 84.417 163.99 78.577C163.979 78.4336 163.995 78.2893 164.039 78.1522C164.083 78.0145 164.154 77.8868 164.247 77.7766C164.34 77.6661 164.454 77.575 164.582 77.5087C164.711 77.4423 164.851 77.402 164.995 77.3901C165.139 77.3789 165.284 77.3956 165.422 77.4395C165.56 77.484 165.687 77.5553 165.797 77.6494C165.907 77.7435 165.998 77.8585 166.063 77.9877C166.13 78.1151 166.17 78.2551 166.181 78.3989C166.644 84.0316 167.906 89.5696 169.93 94.8457C169.996 95.012 170.018 95.192 169.996 95.3693C169.974 95.5456 169.91 95.7141 169.809 95.8605C169.709 96.0069 169.575 96.1271 169.418 96.2108C169.26 96.2924 169.084 96.3347 168.906 96.3342L168.898 96.3314Z" fill="white"/>
<path d="M4.90262 102.99C4.05631 105.139 4.43153 107.567 5.03956 109.793C5.82753 112.681 6.97789 115.457 8.46314 118.055C8.95272 118.92 9.57155 119.705 10.2982 120.382C12.0757 122.027 12.7358 121.29 12.9987 119.716C13.2726 118.052 10.8624 115.503 10.2598 113.93C9.60251 112.211 8.51792 109.486 8.71238 107.655C8.98627 105.098 11.0404 103.817 10.7775 101.953C10.2407 98.0391 5.79275 100.734 4.90262 102.99Z" fill="white"/>
<path d="M269.751 255.094C267.667 248.161 264.079 238.356 258.763 233.439C253.447 228.521 245.652 229.327 239.919 233.74C237.947 229.552 231.13 226.441 224.801 227.71C218.704 228.943 215.913 232.583 214.141 238.795C210.003 232.748 198.215 231.975 193.517 234.897C188.527 238.003 185.265 242.712 185.265 249.76C180.275 234.113 170.659 215.495 162.223 201.395C158.471 195.131 154.026 188.328 146.951 186.532C145.459 186.151 143.744 186.061 142.501 186.976C141.372 187.799 140.909 189.26 140.63 190.633C138.072 203.264 145.423 215.471 151.038 227.071C158.706 242.951 163.505 260.05 168.254 277.039C168.947 279.528 171.489 287.894 171.308 288.552C166.134 291.702 165.436 297.995 166.315 303.08C168.082 313.255 173.948 322.647 182.54 329.982C189.836 336.21 199.159 339.447 207.382 344.384C212.807 347.64 217.381 350.414 219.279 352.923C221.961 356.464 225.201 363.065 228.457 363.084C230.922 363.103 237.865 360.548 240.163 359.671C247.832 356.749 278.233 341.983 283.832 337.621C288.214 334.209 287.159 330.341 284.53 324.667C283.549 322.553 282.81 319.963 282.221 317.721C281.309 314.245 280.83 310.723 280.331 307.17C279.165 298.842 277.866 290.529 276.297 282.267C274.728 274.06 272.871 265.902 270.57 257.871C270.296 256.933 270.023 256.007 269.751 255.094Z" fill="#F9F8FD" stroke="#162B43" stroke-width="2"/>
<path d="M150.128 206.811C149.063 206.811 148.018 206.527 147.099 205.988C143.979 204.193 142.402 200.021 142.169 198.395C142.137 198.113 142.215 197.829 142.388 197.603C142.517 197.434 142.692 197.306 142.893 197.234C143.093 197.163 143.31 197.152 143.517 197.202C143.724 197.252 143.912 197.361 144.057 197.516C144.203 197.671 144.301 197.865 144.338 198.075C144.546 199.473 145.935 202.781 148.203 204.089C149.326 204.738 150.503 204.801 151.804 204.283C152.288 204.11 152.72 203.818 153.062 203.435C153.405 203.052 153.646 202.59 153.765 202.09C154.398 199.796 153.218 196.561 152.44 195.545C152.346 195.431 152.276 195.299 152.234 195.158C152.192 195.017 152.179 194.869 152.196 194.722C152.212 194.576 152.258 194.434 152.33 194.306C152.403 194.177 152.501 194.064 152.618 193.974C152.733 193.883 152.867 193.818 153.009 193.782C153.152 193.745 153.302 193.737 153.448 193.76C153.593 193.781 153.733 193.831 153.858 193.908C153.984 193.985 154.092 194.086 154.176 194.207C155.179 195.512 156.762 199.459 155.877 202.671C155.666 203.496 155.259 204.258 154.691 204.891C154.124 205.525 153.411 206.012 152.615 206.312C151.826 206.637 150.982 206.807 150.128 206.811Z" fill="#162B43"/>
<path d="M183.477 311.287C183.23 311.286 182.99 311.202 182.797 311.048C178.319 307.485 171.42 294.977 169.623 289.3C169.58 289.162 169.565 289.016 169.578 288.872C169.591 288.728 169.632 288.588 169.699 288.459C169.766 288.331 169.858 288.217 169.969 288.124C170.08 288.032 170.208 287.962 170.346 287.918C170.485 287.875 170.63 287.86 170.774 287.873C170.918 287.886 171.058 287.927 171.186 287.994C171.315 288.061 171.428 288.153 171.521 288.264C171.614 288.375 171.684 288.504 171.727 288.642C173.403 293.941 180.184 306.166 184.172 309.332C184.35 309.473 184.481 309.664 184.547 309.88C184.611 310.1 184.604 310.334 184.528 310.549C184.453 310.765 184.313 310.951 184.127 311.083C183.941 311.214 183.718 311.285 183.49 311.284L183.477 311.287Z" fill="#162B43"/>
<path d="M187.133 258.229C187.041 258.23 186.949 258.218 186.859 258.194C186.579 258.121 186.338 257.939 186.191 257.689C186.049 257.44 186.008 257.146 186.076 256.867C186.821 253.997 190.184 253.997 191.997 253.997C192.288 253.997 192.567 254.113 192.772 254.318C192.977 254.524 193.093 254.803 193.093 255.094C193.093 255.384 192.977 255.663 192.772 255.869C192.567 256.074 192.288 256.19 191.997 256.19C190.236 256.19 188.492 256.283 188.196 257.421C188.135 257.656 187.998 257.865 187.805 258.014C187.613 258.163 187.376 258.244 187.133 258.243V258.229Z" fill="#162B43"/>
<path d="M214.133 248.88C213.9 248.88 213.674 248.806 213.486 248.669C213.299 248.532 213.16 248.34 213.089 248.12C213.017 247.9 213.017 247.661 213.089 247.441C213.162 247.22 213.303 247.028 213.492 246.892C215.225 245.673 217.349 245.141 219.452 245.398C219.594 245.417 219.732 245.463 219.857 245.534C219.982 245.606 220.092 245.701 220.18 245.815C220.269 245.929 220.334 246.059 220.372 246.199C220.41 246.337 220.421 246.482 220.402 246.624C220.385 246.768 220.34 246.906 220.268 247.032C220.198 247.155 220.105 247.264 219.994 247.353C219.879 247.443 219.747 247.509 219.605 247.547C219.464 247.585 219.317 247.595 219.172 247.575C217.616 247.381 216.044 247.772 214.76 248.671C214.578 248.805 214.358 248.878 214.133 248.88Z" fill="#162B43"/>
<path d="M240.152 244.677C239.91 244.68 239.675 244.6 239.484 244.453C239.292 244.306 239.154 244.099 239.092 243.866C239.029 243.632 239.046 243.385 239.139 243.162C239.231 242.938 239.395 242.751 239.604 242.63C240.502 242.104 241.502 241.776 242.537 241.668C243.572 241.559 244.618 241.673 245.605 242.002C245.742 242.048 245.869 242.121 245.977 242.216C246.09 242.309 246.183 242.423 246.251 242.553C246.314 242.683 246.353 242.823 246.364 242.967C246.373 243.111 246.354 243.255 246.309 243.392C246.263 243.528 246.191 243.654 246.095 243.762C246.003 243.876 245.889 243.969 245.758 244.036C245.629 244.099 245.489 244.138 245.345 244.148C245.201 244.159 245.057 244.14 244.92 244.093C244.226 243.864 243.49 243.785 242.763 243.863C242.035 243.941 241.333 244.174 240.702 244.546C240.534 244.637 240.344 244.683 240.152 244.677Z" fill="#162B43"/>
<path d="M284.705 312.49L212.81 350.729V354.018L231.845 377.318C240.655 372.841 258.521 363.585 259.507 362.379C260.493 361.173 288.037 350.546 301.686 345.384V341.82C298.536 333.231 291.799 315.341 290.046 312.49C288.293 309.639 285.755 311.302 284.705 312.49Z" fill="white"/>
<path d="M234.006 379.561C228.482 379.561 215.283 360.672 212.051 355.614C211.586 354.888 210.956 353.893 210.983 352.689C211.041 350.513 213.21 349.225 214.138 348.676C236.203 335.596 259.094 323.291 282.177 312.101C283.623 311.4 287.471 309.533 290.21 311.613C291.281 312.436 291.854 313.631 292.319 314.596C298.345 327.178 302.261 336.525 304.556 347.141C304.617 347.424 304.564 347.72 304.408 347.964C304.331 348.085 304.23 348.19 304.111 348.272C303.993 348.354 303.86 348.412 303.719 348.442C303.579 348.473 303.433 348.475 303.292 348.45C303.15 348.424 303.015 348.371 302.894 348.293C302.773 348.215 302.668 348.114 302.585 347.995C302.503 347.877 302.445 347.743 302.415 347.602C300.429 338.422 297.271 330.034 290.342 315.53C289.964 314.736 289.52 313.839 288.885 313.338C287.389 312.203 284.886 313.201 283.133 314.053C260.105 325.215 237.268 337.493 215.256 350.54C214.3 351.108 213.199 351.87 213.177 352.733C213.177 353.224 213.495 353.786 213.9 354.416C221.295 365.992 231.256 377.354 234.009 377.354C234.299 377.354 234.578 377.47 234.783 377.675C234.989 377.881 235.104 378.16 235.104 378.451C235.104 378.742 234.989 379.02 234.783 379.226C234.578 379.432 234.299 379.547 234.009 379.547L234.006 379.561Z" fill="#162B43"/>
<path d="M270.403 342.13C269.795 342.132 269.192 342.029 268.62 341.823C266.125 340.926 264.64 337.985 265.309 335.266C265.782 333.347 267.253 331.659 269.244 330.771C269.992 330.444 270.8 330.278 271.616 330.285C272.423 330.28 273.222 330.439 273.964 330.753C274.707 331.068 275.378 331.531 275.935 332.114C276.452 332.643 276.846 333.28 277.091 333.978C277.342 334.674 277.435 335.417 277.365 336.154C277.19 338.073 275.996 339.759 275.256 340.304C274.215 341.061 272.405 342.13 270.403 342.13ZM271.616 332.478C271.107 332.473 270.603 332.574 270.134 332.774C268.765 333.388 267.749 334.515 267.437 335.79C267.042 337.393 267.941 339.249 269.354 339.759C271.126 340.395 273.155 339.115 273.944 338.536C274.631 337.829 275.062 336.913 275.169 335.932C275.213 335.509 275.163 335.081 275.021 334.679C274.878 334.278 274.648 333.914 274.347 333.613C273.992 333.246 273.566 332.956 273.095 332.761C272.624 332.566 272.118 332.47 271.608 332.478H271.616Z" fill="#007EEF"/>
<path d="M285.047 335.85C284.68 335.851 284.314 335.822 283.952 335.765C281.7 335.412 279.843 334.019 279.104 332.128C278.364 330.237 278.759 327.997 280.175 326.182C281.591 324.368 283.694 323.441 285.702 323.715C285.861 323.737 286.013 323.792 286.148 323.877C287.184 324.093 288.146 324.572 288.943 325.268C289.739 325.964 290.343 326.854 290.696 327.852C291.049 328.85 291.139 329.922 290.958 330.965C290.776 332.008 290.329 332.986 289.66 333.806C289.09 334.466 288.38 334.993 287.583 335.346C286.785 335.7 285.919 335.872 285.047 335.85ZM284.316 325.933C283.357 326.179 282.51 326.742 281.911 327.531C280.991 328.713 280.701 330.168 281.155 331.33C281.61 332.493 282.818 333.364 284.3 333.597C285.781 333.83 287.184 333.372 287.972 332.408C288.47 331.796 288.775 331.05 288.849 330.264C288.923 329.479 288.762 328.689 288.387 327.995C288.011 327.301 287.439 326.734 286.742 326.366C286.044 325.998 285.253 325.845 284.469 325.928C284.418 325.93 284.367 325.928 284.316 325.922V325.933Z" fill="#007EEF"/>
<path d="M252.844 109.558C250.163 96.2501 247.476 82.9062 246.399 69.3732C245.95 63.7374 246.049 57.3642 250.053 53.3786C252.017 51.4242 254.665 50.3414 257.281 49.4313C272.989 43.9928 289.903 43.0557 306.115 46.7258C308.175 47.1946 310.278 47.7675 311.949 49.0585C315.424 51.7449 316.082 56.657 316.331 61.0456C317.796 86.467 314.907 111.916 312.023 137.217L309.051 163.279C308.602 167.205 308.095 171.3 305.896 174.581C304.096 177.27 301.311 179.153 298.391 180.543C291.576 183.759 283.876 184.583 276.535 182.881C272.178 181.853 267.678 179.973 265.821 175.595C264.057 171.432 264.125 166.522 263.389 162.117C262.036 154.028 260.192 145.996 258.549 137.957L253.463 112.713L252.844 109.558Z" fill="#DBF122"/>
<path d="M278.726 70.7955C272.291 70.7983 265.888 69.8987 259.702 68.1229C256.437 67.18 251.872 65.4722 249.935 61.5442C249.807 61.2837 249.787 60.9831 249.88 60.7081C249.926 60.5714 249.999 60.4451 250.094 60.3364C250.189 60.2278 250.304 60.139 250.433 60.075C250.563 60.0111 250.703 59.9734 250.847 59.9639C250.991 59.9545 251.135 59.9736 251.272 60.0201C251.546 60.1125 251.772 60.3095 251.902 60.5683C253.438 63.6905 257.201 65.1214 260.307 66.0177C270.135 68.8384 280.479 69.3617 290.542 67.5473C296.729 66.4234 304.926 63.7097 308.843 57.2214C308.913 57.0971 309.006 56.9873 309.117 56.8979C309.233 56.8107 309.365 56.7465 309.506 56.7088C309.647 56.6727 309.794 56.6653 309.938 56.6869C310.082 56.708 310.221 56.7577 310.345 56.833C310.47 56.9083 310.578 57.0077 310.664 57.1254C310.749 57.2434 310.81 57.3764 310.845 57.5174C310.874 57.6604 310.874 57.8076 310.845 57.9505C310.823 58.0942 310.77 58.2315 310.691 58.3535C307.208 64.1346 300.558 67.9475 290.906 69.7046C286.887 70.4333 282.811 70.7984 278.726 70.7955Z" fill="#162B43"/>
<path d="M271.969 63.8931C267.59 63.8879 263.271 62.8641 259.354 60.9025C258.116 60.283 256.736 59.4607 255.903 58.0764C255.035 56.6373 254.923 54.4033 256.432 53.0985C256.596 52.9559 256.799 52.8654 257.014 52.8385C257.23 52.8116 257.449 52.8495 257.643 52.9473C257.837 53.0452 257.997 53.1986 258.104 53.388C258.211 53.5775 258.259 53.7944 258.242 54.0113C258.22 54.301 258.084 54.5702 257.864 54.7596C257.316 55.2366 257.374 56.2755 257.779 56.9525C258.327 57.8571 259.376 58.4711 260.335 58.9508C264.075 60.8178 268.207 61.7623 272.386 61.7057H272.402C272.693 61.7048 272.972 61.8179 273.18 62.0209C273.334 62.1731 273.44 62.3678 273.484 62.5803C273.528 62.7927 273.508 63.0135 273.426 63.2145C273.345 63.4155 273.206 63.5878 273.026 63.7096C272.847 63.8314 272.635 63.8972 272.419 63.8986L271.969 63.8931Z" fill="white"/>
<path d="M297.715 51.2155C297.638 51.2153 297.562 51.207 297.487 51.1909C293.829 50.4207 290.073 50.2256 286.354 50.6125C286.209 50.633 286.062 50.6243 285.921 50.5872C285.78 50.55 285.648 50.485 285.532 50.3959C285.416 50.3049 285.319 50.1912 285.247 50.0616C285.175 49.9321 285.131 49.7894 285.116 49.6421C285.101 49.4949 285.115 49.3462 285.159 49.2049C285.203 49.0635 285.275 48.9325 285.371 48.8198C285.465 48.7054 285.583 48.612 285.716 48.5456C285.848 48.4794 285.992 48.4403 286.14 48.4305C290.084 48.019 294.067 48.2252 297.947 49.0418C298.147 49.082 298.331 49.1768 298.479 49.3157C298.628 49.4546 298.735 49.6322 298.788 49.8284C298.842 50.0247 298.839 50.232 298.782 50.4271C298.724 50.6222 298.614 50.7974 298.462 50.9332C298.258 51.1182 297.991 51.219 297.715 51.2155Z" fill="white"/>
<path d="M271.846 84.1527C265.185 84.1527 258.371 83.1604 251.967 80.4549C251.833 80.4012 251.711 80.3208 251.608 80.2186C251.506 80.1163 251.425 79.9944 251.37 79.8601C251.313 79.7262 251.284 79.5821 251.284 79.4366C251.284 79.2911 251.313 79.147 251.37 79.0131C251.425 78.8789 251.507 78.7576 251.611 78.6567C251.715 78.5551 251.838 78.4751 251.973 78.4215C252.108 78.3679 252.252 78.3416 252.397 78.3442C252.542 78.3465 252.684 78.3772 252.817 78.4347C267.993 84.8408 285.792 81.1758 297.86 77.8865C298.14 77.8098 298.44 77.8477 298.692 77.9919C298.945 78.1361 299.129 78.3747 299.206 78.6554C299.283 78.936 299.245 79.2356 299.101 79.4882C298.957 79.7409 298.718 79.9259 298.438 80.0026C291.078 82.0091 281.624 84.1527 271.846 84.1527Z" fill="#162B43"/>
<path d="M273.235 96.6558C269.979 96.6581 266.732 96.3107 263.55 95.6197C263.267 95.558 263.02 95.3865 262.863 95.1427C262.743 94.9596 262.68 94.7446 262.683 94.5256C262.686 94.3066 262.755 94.0935 262.88 93.9139C263.005 93.7343 263.182 93.5963 263.386 93.5178C263.59 93.4393 263.813 93.4238 264.027 93.4734C270.654 94.9069 277.524 94.7755 284.092 93.0896C284.231 93.0536 284.376 93.0461 284.519 93.0677C284.735 93.0984 284.937 93.1932 285.099 93.3397C285.261 93.4862 285.376 93.6779 285.428 93.89C285.464 94.0297 285.472 94.1748 285.453 94.3176C285.432 94.46 285.384 94.5969 285.31 94.7206C285.24 94.8436 285.147 94.9524 285.036 95.0413C284.921 95.1268 284.79 95.1892 284.65 95.225C280.921 96.1816 277.085 96.6624 273.235 96.6558Z" fill="#162B43"/>
<path d="M275.757 111.252C270.364 111.258 264.985 110.681 259.715 109.533C259.572 109.505 259.436 109.449 259.314 109.368C259.193 109.286 259.089 109.181 259.009 109.059C258.927 108.938 258.871 108.801 258.847 108.656C258.818 108.513 258.818 108.366 258.847 108.223C258.88 108.079 258.94 107.943 259.025 107.823C259.11 107.704 259.217 107.604 259.34 107.527C259.464 107.449 259.603 107.398 259.747 107.375C259.891 107.351 260.039 107.358 260.181 107.392C274.187 110.415 288.768 109.312 302.16 104.216C302.294 104.163 302.438 104.139 302.581 104.144C302.726 104.147 302.868 104.179 303.001 104.237C303.131 104.297 303.249 104.38 303.348 104.484C303.448 104.588 303.525 104.711 303.576 104.846C303.627 104.981 303.652 105.124 303.65 105.268C303.64 105.559 303.517 105.834 303.307 106.036C303.203 106.134 303.08 106.212 302.946 106.263C294.263 109.571 285.048 111.262 275.757 111.252Z" fill="#162B43"/>
<path d="M274.922 126.723C269.912 126.723 265.73 126.174 263.364 125.204C263.229 125.151 263.106 125.072 263.002 124.971C262.897 124.87 262.813 124.749 262.756 124.615C262.699 124.48 262.67 124.336 262.67 124.19C262.67 124.044 262.699 123.899 262.756 123.765C262.811 123.63 262.893 123.508 262.997 123.406C263.099 123.302 263.222 123.221 263.358 123.167C263.493 123.112 263.637 123.085 263.783 123.088C263.928 123.09 264.071 123.121 264.205 123.178C266.796 124.253 272.24 124.738 278.414 124.445C284.187 124.171 289.964 122.855 295.545 121.583C295.687 121.556 295.832 121.556 295.973 121.583C296.259 121.633 296.515 121.793 296.685 122.03C296.852 122.269 296.919 122.564 296.871 122.852C296.821 123.139 296.661 123.395 296.425 123.565C296.307 123.648 296.174 123.707 296.033 123.738C290.355 125.031 284.486 126.369 278.504 126.651C277.283 126.695 276.078 126.723 274.922 126.723Z" fill="#162B43"/>
<path d="M274.626 138.869C271.748 138.876 268.872 138.693 266.018 138.32C265.739 138.273 265.49 138.12 265.321 137.893C265.153 137.666 265.078 137.383 265.114 137.102C265.149 136.822 265.291 136.566 265.511 136.387C265.73 136.209 266.01 136.123 266.292 136.147C274.462 137.213 282.761 136.706 290.741 134.653C290.952 134.598 291.173 134.607 291.378 134.678C291.583 134.75 291.762 134.881 291.893 135.054C292.024 135.228 292.1 135.436 292.112 135.653C292.124 135.87 292.071 136.086 291.96 136.273C291.887 136.397 291.79 136.505 291.675 136.592C291.56 136.678 291.429 136.741 291.289 136.777C285.845 138.173 280.246 138.876 274.626 138.869Z" fill="#162B43"/>
<path d="M278.672 152.876C274.481 152.922 270.308 152.333 266.295 151.127C266.154 151.089 266.022 151.021 265.908 150.93C265.796 150.838 265.703 150.726 265.635 150.598C265.564 150.469 265.52 150.328 265.506 150.181C265.49 150.036 265.504 149.888 265.547 149.748C265.59 149.607 265.662 149.477 265.758 149.365C265.9 149.196 266.09 149.074 266.302 149.014C266.515 148.955 266.74 148.962 266.949 149.033C279.08 152.794 292.695 149.307 303.65 146.516C303.929 146.446 304.224 146.489 304.472 146.634C304.659 146.743 304.811 146.906 304.906 147.101C305.001 147.296 305.036 147.515 305.007 147.731C304.978 147.946 304.885 148.148 304.741 148.31C304.597 148.473 304.408 148.589 304.198 148.644C296.54 150.595 287.611 152.876 278.672 152.876Z" fill="#162B43"/>
<path d="M280.016 164.195C276.88 164.194 273.755 163.826 270.704 163.098C270.487 163.055 270.288 162.947 270.134 162.789C269.979 162.63 269.876 162.428 269.838 162.21C269.81 162.065 269.81 161.916 269.838 161.772C269.872 161.628 269.934 161.493 270.022 161.374C270.109 161.256 270.219 161.156 270.345 161.081C270.472 161.006 270.613 160.957 270.759 160.938C270.904 160.917 271.053 160.927 271.194 160.966C278.12 162.583 285.358 162.257 292.111 160.026C292.248 159.981 292.392 159.963 292.535 159.973C292.68 159.982 292.821 160.02 292.949 160.086C293.078 160.154 293.193 160.247 293.286 160.36C293.381 160.469 293.454 160.596 293.5 160.733C293.545 160.87 293.564 161.014 293.554 161.158C293.544 161.301 293.506 161.442 293.441 161.571C293.377 161.699 293.288 161.814 293.179 161.909C293.07 162.003 292.943 162.075 292.807 162.12C288.683 163.498 284.364 164.198 280.016 164.195Z" fill="#162B43"/>
<path d="M280.884 175.726C279.455 175.726 278.025 175.664 276.595 175.54C276.451 175.528 276.311 175.488 276.183 175.421C276.055 175.355 275.941 175.264 275.848 175.153C275.756 175.043 275.685 174.915 275.642 174.777C275.599 174.639 275.583 174.494 275.596 174.35C275.607 174.206 275.647 174.066 275.714 173.937C275.78 173.809 275.871 173.694 275.981 173.601C276.092 173.508 276.22 173.437 276.357 173.394C276.495 173.35 276.64 173.334 276.784 173.347C282.121 173.813 287.498 173.367 292.686 172.029C292.896 171.974 293.118 171.983 293.323 172.054C293.528 172.126 293.707 172.256 293.838 172.43C293.968 172.604 294.044 172.812 294.056 173.029C294.068 173.246 294.016 173.462 293.905 173.649C293.832 173.773 293.735 173.881 293.62 173.968C293.504 174.054 293.373 174.117 293.234 174.153C289.2 175.195 285.051 175.724 280.884 175.726Z" fill="#162B43"/>
<path d="M321.543 25.5387C315.923 25.541 310.32 24.9223 304.836 23.6939C299.484 22.4906 296.345 20.3689 295.277 17.2001C295.188 16.9293 295.207 16.6344 295.332 16.3778C295.427 16.1828 295.578 16.0205 295.766 15.9115C295.953 15.8025 296.169 15.7516 296.386 15.7654C296.602 15.7792 296.81 15.857 296.982 15.989C297.154 16.1209 297.283 16.3011 297.353 16.5066C298.175 18.8914 300.769 20.5471 305.315 21.5668C322.271 25.3688 340.852 22.973 356.288 14.988C356.416 14.9221 356.556 14.8821 356.699 14.8702C356.843 14.858 356.988 14.8739 357.126 14.9168C357.263 14.9611 357.389 15.0319 357.499 15.1251C357.612 15.2165 357.705 15.3304 357.773 15.4595C357.838 15.5875 357.878 15.7272 357.89 15.8707C357.904 16.014 357.888 16.1586 357.844 16.2956C357.8 16.4333 357.729 16.5609 357.636 16.6711C357.544 16.7846 357.431 16.8779 357.301 16.9452C349.285 21.0757 340.606 23.7663 331.66 24.8945C328.305 25.3266 324.926 25.5417 321.543 25.5387Z" fill="#162B43"/>
<path d="M319.352 7.11009C319.148 7.10808 318.949 7.04926 318.777 6.94025C318.604 6.83124 318.466 6.67635 318.377 6.49298C318.288 6.30961 318.252 6.10502 318.273 5.90219C318.293 5.69937 318.37 5.50634 318.494 5.34479C318.661 5.12815 318.902 4.98151 319.171 4.93362C324.284 4.06417 329.462 3.64045 334.648 3.66721C334.939 3.66721 335.217 3.78273 335.423 3.98835C335.628 4.19398 335.744 4.47287 335.744 4.76367C335.744 5.05446 335.628 5.33335 335.423 5.53898C335.217 5.7446 334.939 5.86012 334.648 5.86012C329.59 5.83342 324.539 6.24614 319.552 7.09364C319.486 7.10727 319.419 7.1128 319.352 7.11009Z" fill="white"/>
<path d="M349.452 12.5679C349.188 12.5662 348.933 12.4688 348.734 12.2938C348.537 12.1191 348.407 11.8804 348.367 11.6194C348.33 11.358 348.388 11.0917 348.531 10.8696C348.674 10.6475 348.892 10.4845 349.145 10.4106C350.485 10.0186 351.183 9.28946 351.153 8.93585C351.123 8.58224 350.137 7.54883 346.113 7.0938C345.97 7.0773 345.832 7.03357 345.705 6.96497C345.578 6.89652 345.467 6.80331 345.377 6.69085C345.285 6.57874 345.218 6.44904 345.179 6.30983C345.138 6.1709 345.125 6.02507 345.141 5.88098C345.157 5.7369 345.202 5.59749 345.272 5.47104C345.341 5.34445 345.434 5.23267 345.546 5.1421C345.778 4.95819 346.074 4.87347 346.368 4.90637C351.914 5.53409 353.215 7.33776 353.344 8.74397C353.481 10.3311 352.043 11.8469 349.767 12.513C349.665 12.5472 349.559 12.5656 349.452 12.5679Z" fill="white"/>
<path d="M316.312 38.7816C311.593 38.7816 305.334 38.3458 299.605 35.8979C299.467 35.8455 299.342 35.7663 299.235 35.6649C299.128 35.5624 299.043 35.4393 298.986 35.3031C298.928 35.1671 298.898 35.0207 298.898 34.8727C298.898 34.7248 298.928 34.5784 298.986 34.4424C299.043 34.3058 299.128 34.1826 299.235 34.0806C299.342 33.9791 299.469 33.8999 299.607 33.8477C299.745 33.7955 299.892 33.7712 300.04 33.7763C300.187 33.7838 300.331 33.8202 300.465 33.8832C305.121 35.8705 310.713 36.723 318.092 36.5695C330.188 36.2984 342.127 33.7572 353.286 29.078C353.421 29.0166 353.566 28.983 353.714 28.9793C353.861 28.9737 354.007 28.9989 354.144 29.0533C354.281 29.1057 354.406 29.186 354.511 29.289C354.615 29.3914 354.699 29.5134 354.757 29.6481C354.813 29.7848 354.841 29.9309 354.842 30.0785C354.841 30.3 354.773 30.516 354.647 30.698C354.521 30.88 354.342 31.0195 354.135 31.0982C342.731 35.8848 330.53 38.4882 318.166 38.7734C317.577 38.7734 316.964 38.7816 316.312 38.7816Z" fill="#162B43"/>
<path d="M320.664 52.5371C320.374 52.5446 320.094 52.4372 319.883 52.2383C319.725 52.0893 319.615 51.8967 319.566 51.685C319.518 51.4732 319.533 51.2518 319.611 51.0489C319.688 50.846 319.824 50.6707 320.002 50.5452C320.179 50.4197 320.389 50.3497 320.606 50.3441C332.335 49.7115 343.857 46.9976 354.637 42.329C354.9 42.2224 355.195 42.2224 355.458 42.329C355.591 42.3815 355.712 42.4599 355.814 42.5597C355.916 42.6595 355.997 42.7786 356.053 42.9102C356.167 43.1733 356.174 43.4709 356.071 43.7389C355.969 44.0069 355.765 44.2241 355.505 44.3438C344.487 49.1162 332.709 51.8905 320.721 52.5371H320.664Z" fill="#162B43"/>
<path d="M324.972 68.4024C324.682 68.4196 324.398 68.321 324.18 68.1283C324.017 67.9841 323.899 67.7942 323.844 67.5829C323.789 67.3717 323.798 67.1487 323.87 66.9425C323.942 66.7363 324.074 66.5564 324.249 66.4258C324.424 66.2952 324.633 66.2199 324.851 66.2095C332.751 65.3343 340.531 63.5876 348.047 61.0013C348.183 60.9543 348.327 60.9346 348.471 60.9435C348.615 60.9523 348.756 60.9895 348.886 61.0529C349.015 61.1164 349.131 61.2047 349.226 61.313C349.321 61.4213 349.394 61.5473 349.441 61.6839C349.488 61.8201 349.507 61.9642 349.498 62.1079C349.489 62.2517 349.452 62.3922 349.388 62.5215C349.325 62.6508 349.237 62.7664 349.129 62.8616C349.021 62.9568 348.895 63.0298 348.759 63.0764C341.093 65.7101 333.16 67.4889 325.103 68.3805C325.061 68.3928 325.016 68.4001 324.972 68.4024Z" fill="#162B43"/>
<path d="M325.451 80.9458C325.161 80.9505 324.88 80.8395 324.671 80.6372C324.462 80.4349 324.343 80.1579 324.338 79.8671C324.333 79.5763 324.444 79.2956 324.646 79.0866C324.848 78.8776 325.125 78.7576 325.416 78.7528C331.994 78.5301 338.488 77.2051 344.629 74.833C344.763 74.7813 344.906 74.7562 345.05 74.759C345.195 74.7638 345.337 74.7954 345.47 74.8522C345.6 74.9113 345.718 74.9951 345.817 75.0989C345.918 75.2028 345.996 75.3258 346.047 75.4607C346.152 75.7319 346.145 76.0335 346.027 76.2993C345.909 76.565 345.691 76.7731 345.42 76.8779C339.053 79.345 332.316 80.7238 325.492 80.9567L325.451 80.9458Z" fill="#162B43"/>
<path d="M323.528 95.0821C323.239 95.0941 322.956 94.9906 322.742 94.7943C322.53 94.5952 322.403 94.3208 322.389 94.0295C322.383 93.8855 322.406 93.7418 322.455 93.6065C322.505 93.4712 322.581 93.347 322.679 93.2411C322.776 93.1352 322.894 93.0496 323.025 92.9892C323.156 92.9288 323.297 92.8949 323.441 92.8892C330.515 92.3278 337.5 90.948 344.256 88.7775C344.395 88.7281 344.542 88.7067 344.689 88.7145C344.836 88.7229 344.98 88.7602 345.113 88.8241C345.246 88.8911 345.363 88.9844 345.459 89.0982C345.555 89.2097 345.629 89.3392 345.675 89.4792C345.719 89.619 345.735 89.7663 345.722 89.9123C345.709 90.0593 345.666 90.2022 345.596 90.3317C345.529 90.4621 345.436 90.577 345.322 90.6689C345.207 90.7621 345.075 90.8303 344.933 90.869C338.018 93.0923 330.87 94.507 323.63 95.0849L323.528 95.0821Z" fill="#162B43"/>
<path d="M323.222 109.571H323.055C322.764 109.571 322.485 109.456 322.28 109.25C322.074 109.045 321.959 108.766 321.959 108.475C321.959 108.184 322.074 107.905 322.28 107.7C322.485 107.494 322.764 107.379 323.055 107.379H323.216C327.581 107.379 331.931 106.885 336.185 105.904C336.466 105.84 336.762 105.89 337.006 106.044C337.252 106.198 337.426 106.443 337.491 106.726C337.524 106.867 337.528 107.012 337.504 107.154C337.481 107.296 337.429 107.432 337.353 107.554C337.276 107.677 337.177 107.783 337.06 107.866C336.942 107.95 336.81 108.01 336.669 108.042C332.259 109.058 327.748 109.571 323.222 109.571Z" fill="#162B43"/>
<path d="M324.865 124.615C323.759 124.615 322.649 124.576 321.537 124.497C321.322 124.482 321.116 124.402 320.945 124.27C320.775 124.137 320.647 123.957 320.579 123.752C320.51 123.547 320.504 123.326 320.56 123.117C320.617 122.908 320.734 122.721 320.896 122.579C321.116 122.386 321.402 122.288 321.694 122.305C327.027 122.686 332.385 122.105 337.513 120.589C337.653 120.543 337.8 120.527 337.946 120.539C338.092 120.55 338.235 120.591 338.365 120.66C338.496 120.727 338.612 120.821 338.706 120.934C338.8 121.048 338.871 121.179 338.913 121.32C338.954 121.461 338.967 121.609 338.951 121.755C338.935 121.901 338.889 122.042 338.817 122.17C338.749 122.297 338.655 122.409 338.543 122.499C338.427 122.59 338.294 122.655 338.151 122.691C333.838 123.968 329.363 124.617 324.865 124.615Z" fill="#162B43"/>
<path d="M320.19 137.83C319.899 137.83 319.621 137.714 319.415 137.509C319.21 137.303 319.094 137.024 319.094 136.733C319.094 136.442 319.21 136.164 319.415 135.958C319.621 135.752 319.899 135.637 320.19 135.637C325.42 135.571 330.625 134.905 335.703 133.65C335.845 133.608 335.994 133.597 336.141 133.617C336.287 133.633 336.428 133.68 336.555 133.754C336.682 133.826 336.792 133.924 336.88 134.041C336.97 134.16 337.034 134.295 337.069 134.439C337.104 134.582 337.109 134.731 337.086 134.876C337.062 135.022 337.01 135.161 336.932 135.286C336.854 135.411 336.75 135.518 336.629 135.602C336.507 135.686 336.37 135.744 336.226 135.774C330.985 137.07 325.613 137.759 320.214 137.827L320.19 137.83Z" fill="#162B43"/>
<path d="M318.3 154.6C318.033 154.6 317.775 154.503 317.574 154.326C317.424 154.193 317.314 154.022 317.255 153.83C317.196 153.639 317.19 153.435 317.239 153.24C317.287 153.046 317.388 152.869 317.53 152.727C317.673 152.586 317.851 152.487 318.045 152.44L330.006 149.551C330.146 149.518 330.291 149.513 330.433 149.535C330.575 149.557 330.712 149.607 330.835 149.681C330.958 149.756 331.065 149.855 331.15 149.971C331.235 150.087 331.296 150.219 331.33 150.359C331.364 150.5 331.37 150.645 331.348 150.787C331.325 150.93 331.275 151.067 331.2 151.19C331.126 151.314 331.027 151.421 330.91 151.505C330.794 151.591 330.661 151.652 330.521 151.684L318.571 154.57C318.482 154.591 318.391 154.601 318.3 154.6Z" fill="#162B43"/>
<path d="M318.818 214.651C332.562 216.986 346.602 216.97 360.342 214.605C367.046 213.448 373.976 211.562 378.895 206.858C383.814 202.154 385.906 193.882 381.866 188.405C380.061 185.954 377.328 184.375 374.581 183.068C355.099 173.792 331.978 175.264 311.379 181.681C307.939 182.752 304.419 184.008 301.576 186.291C298.479 188.778 297.216 192.015 296.841 195.885C296.258 201.916 301.204 207.845 306.178 210.687C310.04 212.908 314.466 213.911 318.818 214.651Z" fill="#007EEF"/>
<path d="M336.713 204.796C329.13 204.796 321.296 204.078 313.663 201.836C308.865 200.427 300.837 198.07 299.722 192.62C299.664 192.335 299.722 192.039 299.882 191.796C300.042 191.553 300.292 191.385 300.577 191.326C300.862 191.268 301.158 191.326 301.4 191.486C301.643 191.646 301.812 191.897 301.87 192.182C302.719 196.337 310.24 198.547 314.279 199.731C327.596 203.642 341.693 202.776 353.859 201.65H353.922C361.451 200.959 377.12 199.517 377.12 191.559C377.12 191.269 377.235 190.99 377.441 190.784C377.646 190.578 377.925 190.463 378.216 190.463C378.506 190.463 378.785 190.578 378.99 190.784C379.196 190.99 379.311 191.269 379.311 191.559C379.311 201.518 362.924 203.026 354.113 203.834H354.05C348.589 204.344 342.731 204.796 336.713 204.796Z" fill="#162B43"/>
<path d="M371.719 194.849C371.499 194.849 371.283 194.783 371.101 194.659C370.919 194.535 370.778 194.359 370.698 194.154C370.617 193.949 370.6 193.724 370.649 193.509C370.697 193.294 370.81 193.099 370.971 192.949C372.888 191.176 372.924 190.285 372.855 189.983C372.727 189.435 371.858 188.887 370.473 188.467C370.335 188.426 370.206 188.357 370.094 188.266C369.983 188.174 369.89 188.061 369.823 187.934C369.755 187.807 369.712 187.667 369.698 187.524C369.685 187.38 369.699 187.235 369.741 187.097C369.783 186.959 369.851 186.831 369.942 186.719C370.034 186.608 370.146 186.515 370.273 186.447C370.525 186.313 370.82 186.282 371.094 186.362C373.379 187.05 374.655 188.07 374.978 189.482C375.326 190.986 374.501 192.645 372.453 194.55C372.254 194.738 371.992 194.844 371.719 194.849Z" fill="white"/>
<path d="M310.661 193.582C310.596 193.582 310.531 193.576 310.467 193.565C309.27 193.351 308.38 192.337 308.199 190.98C308.018 189.624 308.613 188.412 309.714 187.891C309.844 187.83 309.986 187.796 310.13 187.79C310.273 187.782 310.417 187.803 310.552 187.853C310.687 187.901 310.812 187.976 310.919 188.072C311.026 188.169 311.112 188.287 311.173 188.417C311.234 188.548 311.269 188.688 311.278 188.831C311.283 188.976 311.261 189.12 311.212 189.256C311.164 189.392 311.09 189.517 310.993 189.623C310.896 189.73 310.778 189.816 310.648 189.876C310.398 189.994 310.33 190.38 310.374 190.698C310.418 191.016 310.582 191.364 310.853 191.413C311.124 191.461 311.368 191.609 311.535 191.827C311.701 192.045 311.781 192.317 311.757 192.589C311.733 192.863 311.607 193.118 311.404 193.303C311.201 193.489 310.936 193.591 310.661 193.59V193.582Z" fill="white"/>
<path d="M324.254 183.081C323.982 183.085 323.717 182.988 323.512 182.807C323.361 182.669 323.251 182.491 323.195 182.294C323.139 182.096 323.14 181.887 323.197 181.69C323.254 181.493 323.365 181.316 323.518 181.179C323.67 181.042 323.858 180.951 324.06 180.916C335.074 178.901 346.334 178.613 357.436 180.06C357.725 180.098 357.987 180.247 358.167 180.477C358.255 180.591 358.319 180.722 358.356 180.861C358.43 181.138 358.393 181.433 358.252 181.683C358.183 181.808 358.09 181.918 357.978 182.007C357.863 182.097 357.731 182.163 357.59 182.201C357.449 182.239 357.301 182.248 357.156 182.229C346.278 180.809 335.246 181.091 324.454 183.065C324.389 183.078 324.322 183.084 324.254 183.081Z" fill="white"/>
<path d="M304.899 208.108C304.668 208.109 304.444 208.036 304.258 207.899C304.07 207.764 303.93 207.572 303.858 207.351C302.841 203.833 302.492 200.154 302.831 196.507C302.858 196.216 303 195.948 303.225 195.762C303.449 195.576 303.739 195.486 304.029 195.514C304.32 195.541 304.588 195.683 304.774 195.907C304.96 196.132 305.049 196.422 305.022 196.713C304.724 200.059 305.038 203.432 305.951 206.666C306.037 206.94 306.013 207.238 305.882 207.494C305.751 207.751 305.525 207.946 305.252 208.037C305.139 208.081 305.02 208.105 304.899 208.108Z" fill="#162B43"/>
<path d="M314.942 212.405C314.715 212.405 314.493 212.334 314.308 212.201C314.123 212.069 313.984 211.883 313.91 211.668C312.68 208.122 312.332 204.33 312.894 200.618C312.915 200.476 312.965 200.339 313.039 200.216C313.114 200.093 313.212 199.986 313.328 199.9C313.444 199.815 313.576 199.753 313.715 199.719C313.855 199.685 314 199.678 314.142 199.7C314.285 199.722 314.421 199.771 314.544 199.846C314.668 199.921 314.775 200.019 314.86 200.135C314.945 200.251 315.007 200.383 315.041 200.523C315.075 200.662 315.082 200.808 315.06 200.95C314.55 204.308 314.865 207.739 315.978 210.947C316.025 211.083 316.046 211.227 316.038 211.371C316.03 211.515 315.993 211.656 315.931 211.786C315.869 211.916 315.781 212.032 315.674 212.128C315.472 212.307 315.211 212.404 314.942 212.403V212.405Z" fill="#162B43"/>
<path d="M323.186 214.294C322.956 214.295 322.731 214.222 322.545 214.086C322.357 213.95 322.217 213.758 322.145 213.538C321.357 210.877 321.189 208.072 321.652 205.336C321.677 205.193 321.73 205.056 321.808 204.933C321.885 204.808 321.987 204.701 322.107 204.618C322.226 204.535 322.359 204.477 322.5 204.447C322.641 204.416 322.787 204.414 322.929 204.44C323.072 204.467 323.209 204.522 323.331 204.601C323.452 204.684 323.556 204.788 323.638 204.908C323.718 205.03 323.774 205.166 323.802 205.309C323.831 205.452 323.831 205.599 323.802 205.742C323.407 208.114 323.551 210.546 324.224 212.855C324.27 212.992 324.288 213.136 324.276 213.28C324.267 213.424 324.229 213.565 324.164 213.694C324.099 213.823 324.009 213.938 323.898 214.031C323.789 214.125 323.663 214.196 323.526 214.239C323.416 214.275 323.302 214.294 323.186 214.294Z" fill="#162B43"/>
<path d="M333.567 214.503C333.327 214.504 333.093 214.425 332.904 214.278C332.712 214.132 332.573 213.927 332.509 213.694C332.112 212.222 331.688 209.201 332.57 207.217C332.626 207.08 332.709 206.957 332.813 206.852C332.917 206.748 333.041 206.666 333.178 206.611C333.314 206.556 333.46 206.529 333.608 206.531C333.755 206.534 333.9 206.567 334.035 206.627C334.17 206.687 334.292 206.775 334.391 206.885C334.492 206.993 334.57 207.121 334.618 207.261C334.668 207.399 334.69 207.547 334.681 207.694C334.671 207.841 334.632 207.984 334.566 208.116C333.977 209.426 334.292 211.882 334.626 213.121C334.702 213.402 334.663 213.701 334.518 213.953C334.373 214.205 334.134 214.389 333.854 214.464C333.761 214.492 333.664 214.505 333.567 214.503Z" fill="#162B43"/>
<path d="M344.149 214.782C343.913 214.782 343.683 214.705 343.494 214.563C343.305 214.421 343.167 214.222 343.1 213.995C342.353 211.468 342.353 207.455 342.353 205.056C342.353 204.766 342.468 204.487 342.673 204.281C342.879 204.075 343.158 203.96 343.448 203.96C343.739 203.96 344.017 204.075 344.223 204.281C344.428 204.487 344.544 204.766 344.544 205.056C344.544 207.334 344.544 211.15 345.201 213.373C345.244 213.512 345.259 213.658 345.245 213.803C345.229 213.947 345.186 214.087 345.119 214.215C345.05 214.341 344.957 214.453 344.845 214.544C344.733 214.636 344.603 214.704 344.464 214.744C344.362 214.772 344.256 214.785 344.149 214.782Z" fill="#162B43"/>
<path d="M357 213.762C356.861 213.762 356.724 213.735 356.595 213.683C356.325 213.576 356.109 213.365 355.994 213.099C355.879 212.832 355.874 212.53 355.981 212.26C356.236 211.531 356.71 206.161 355.981 204.067C355.934 203.932 355.913 203.788 355.921 203.645C355.928 203.501 355.963 203.36 356.025 203.23C356.087 203.099 356.173 202.982 356.28 202.886C356.387 202.79 356.512 202.716 356.647 202.666C356.783 202.619 356.927 202.598 357.071 202.606C357.215 202.614 357.355 202.65 357.485 202.71C357.615 202.772 357.731 202.858 357.827 202.965C357.925 203.071 357.999 203.196 358.046 203.332C359.002 206.03 358.455 212.003 358.046 213.069C357.966 213.279 357.821 213.458 357.633 213.582C357.445 213.705 357.225 213.768 357 213.762Z" fill="#162B43"/>
<path d="M367.556 211.454H367.457C367.175 211.425 366.915 211.287 366.734 211.068C366.642 210.957 366.572 210.83 366.529 210.692C366.485 210.555 366.47 210.411 366.482 210.267L367.008 204.379C367.021 204.235 367.062 204.095 367.129 203.967C367.196 203.839 367.288 203.725 367.399 203.633C367.51 203.54 367.638 203.47 367.775 203.427C367.913 203.384 368.058 203.368 368.202 203.381C368.346 203.394 368.486 203.436 368.614 203.503C368.742 203.57 368.855 203.661 368.948 203.772C369.041 203.883 369.11 204.011 369.154 204.149C369.197 204.287 369.212 204.433 369.199 204.577L368.651 210.462C368.625 210.734 368.499 210.987 368.296 211.171C368.093 211.354 367.829 211.455 367.556 211.454Z" fill="#162B43"/>
<path d="M377.605 205.569C377.426 205.569 377.251 205.526 377.092 205.443C376.935 205.359 376.801 205.238 376.701 205.089C376.6 204.942 376.537 204.771 376.517 204.593C376.497 204.416 376.521 204.236 376.586 204.07C376.783 203.543 377.133 200.155 377.133 198.259C377.133 197.968 377.249 197.689 377.454 197.483C377.66 197.278 377.938 197.162 378.229 197.162C378.52 197.162 378.798 197.278 379.004 197.483C379.209 197.689 379.325 197.968 379.325 198.259C379.325 199.706 379.051 203.809 378.64 204.876C378.558 205.083 378.415 205.26 378.23 205.384C378.045 205.508 377.827 205.573 377.605 205.569Z" fill="#162B43"/>
<path d="M109.976 286.175C109.741 286.176 109.512 286.1 109.323 285.96C109.134 285.82 108.996 285.622 108.927 285.397C107.054 279.215 104.509 273.256 101.338 267.629C101.267 267.503 101.222 267.364 101.205 267.221C101.187 267.077 101.199 266.932 101.238 266.793C101.277 266.654 101.343 266.524 101.433 266.41C101.523 266.297 101.634 266.202 101.76 266.132C101.885 266.061 102.024 266.016 102.167 265.998C102.31 265.981 102.456 265.992 102.595 266.031C102.734 266.07 102.863 266.136 102.977 266.225C103.09 266.315 103.185 266.426 103.255 266.552C106.503 272.318 109.111 278.422 111.034 284.756C111.076 284.894 111.091 285.039 111.078 285.183C111.064 285.327 111.022 285.467 110.954 285.594C110.884 285.721 110.791 285.833 110.68 285.926C110.568 286.017 110.438 286.085 110.3 286.126C110.195 286.16 110.086 286.177 109.976 286.175Z" fill="white"/>
<path d="M98.5335 280.008C98.2839 280.009 98.0413 279.925 97.846 279.769C97.6503 279.613 97.5141 279.394 97.4598 279.15C97.4057 278.905 97.4366 278.65 97.5475 278.426C97.6578 278.202 97.8414 278.022 98.0679 277.916C102.989 275.617 108.198 273.993 113.553 273.089C113.695 273.062 113.84 273.062 113.981 273.089C114.122 273.121 114.255 273.18 114.372 273.264C114.49 273.347 114.59 273.453 114.666 273.575C114.742 273.696 114.793 273.832 114.816 273.974C114.845 274.115 114.845 274.261 114.816 274.402C114.783 274.543 114.724 274.676 114.641 274.794C114.557 274.911 114.451 275.011 114.328 275.087C114.207 275.165 114.071 275.216 113.929 275.238C108.768 276.113 103.749 277.68 99.0073 279.898C98.8598 279.97 98.6977 280.008 98.5335 280.008Z" fill="white"/>
<path d="M221.914 377.494C221.671 377.493 221.435 377.412 221.243 377.263C221.049 377.114 220.912 376.904 220.854 376.666C220.794 376.429 220.814 376.179 220.911 375.956C221.011 375.733 221.18 375.55 221.393 375.432L242.401 364.103C245.991 362.165 249.702 360.164 253.411 358.289C270.855 349.46 289.506 342.728 307.542 336.215C307.677 336.166 307.821 336.144 307.965 336.151C308.109 336.157 308.25 336.192 308.38 336.253C308.51 336.315 308.627 336.401 308.724 336.507C308.821 336.614 308.896 336.738 308.945 336.874C308.994 337.009 309.016 337.153 309.009 337.297C309.003 337.441 308.968 337.582 308.907 337.713C308.846 337.843 308.759 337.96 308.653 338.058C308.547 338.155 308.422 338.23 308.287 338.279C290.312 344.767 271.723 351.477 254.399 360.244C250.716 362.108 247.005 364.103 243.444 366.033L222.437 377.362C222.277 377.451 222.097 377.496 221.914 377.494Z" fill="#162B43"/>
<path d="M226.712 381C226.477 381 226.248 380.924 226.059 380.784C225.87 380.644 225.731 380.446 225.663 380.221C225.595 379.996 225.601 379.754 225.68 379.533C225.76 379.311 225.908 379.121 226.104 378.99C243.992 367.143 264.09 358.92 283.527 350.965C290.596 348.07 297.906 345.08 305.556 343.421C305.839 343.363 306.134 343.417 306.378 343.572C306.56 343.69 306.703 343.859 306.789 344.058C306.875 344.257 306.9 344.477 306.861 344.69C306.822 344.904 306.72 345.1 306.57 345.256C306.419 345.412 306.225 345.519 306.013 345.565C298.55 347.182 291.333 350.137 284.352 352.993C265.013 360.907 245.013 369.092 227.309 380.819C227.132 380.936 226.925 380.999 226.712 381Z" fill="#162B43"/>
<path d="M336.689 154.6C336.609 154.6 336.53 154.591 336.453 154.573C336.172 154.507 335.928 154.334 335.774 154.089C335.621 153.845 335.569 153.55 335.632 153.268C335.703 152.944 336.034 151.804 336.727 149.46C338.28 144.123 341.167 134.187 342.405 128.565C342.437 128.424 342.496 128.291 342.577 128.173C342.659 128.054 342.765 127.953 342.887 127.877C343.008 127.799 343.143 127.746 343.284 127.72C343.426 127.695 343.572 127.698 343.713 127.729C343.854 127.76 343.987 127.818 344.106 127.901C344.225 127.983 344.327 128.089 344.404 128.211C344.481 128.332 344.534 128.467 344.56 128.608C344.589 128.75 344.589 128.895 344.56 129.036C343.306 134.729 340.405 144.71 338.847 150.072C338.316 151.897 337.858 153.473 337.798 153.739C337.744 153.988 337.606 154.21 337.406 154.367C337.202 154.527 336.948 154.61 336.689 154.6Z" fill="#162B43"/>
<path d="M345.344 120.424H345.234C344.945 120.396 344.679 120.254 344.495 120.029C344.404 119.917 344.336 119.789 344.295 119.651C344.251 119.513 344.236 119.367 344.251 119.223C344.267 119.059 344.281 118.911 344.292 118.779C344.21 118.442 344.21 118.091 344.292 117.754C344.316 117.57 344.38 117.394 344.481 117.239C344.582 117.084 344.716 116.953 344.873 116.855C344.96 116.581 345.067 116.252 345.196 115.827C345.236 115.687 345.303 115.556 345.393 115.441C345.484 115.329 345.595 115.236 345.722 115.166C345.981 115.026 346.285 114.993 346.568 115.076C346.708 115.119 346.838 115.189 346.951 115.282C347.065 115.374 347.158 115.489 347.225 115.619C347.293 115.748 347.335 115.89 347.348 116.035C347.36 116.181 347.342 116.327 347.296 116.466C347.023 117.351 346.812 118.012 346.645 118.431C346.614 118.508 346.568 118.62 346.505 118.746C346.488 118.949 346.469 119.185 346.442 119.448C346.414 119.719 346.286 119.97 346.084 120.152C345.881 120.334 345.618 120.434 345.346 120.432L345.344 120.424Z" fill="#162B43"/>
<path d="M292.757 42.441C292.482 42.4422 292.216 42.3395 292.012 42.1531C291.809 41.9657 291.684 41.7082 291.662 41.4322C291.602 40.6811 291.204 36.2679 289.304 23.0857C289.183 22.2442 289.142 21.4082 289.104 20.5995C289.087 20.213 289.068 19.8293 289.041 19.4428C288.887 17.2663 288.693 14.5608 289.835 12.1924C291.388 8.97158 294.891 7.36801 298.115 6.22221C313.56 0.761134 330.037 -1.14096 346.319 0.657687C351.449 1.23333 357.797 2.50248 361.363 7.23644C364.579 11.5154 364.491 17.206 364.157 22.2031C364.148 22.347 364.111 22.4877 364.047 22.617C363.981 22.7481 363.887 22.8638 363.773 22.9569C363.665 23.053 363.538 23.1267 363.401 23.1735C363.264 23.2175 363.12 23.2361 362.976 23.2283C362.833 23.2188 362.692 23.181 362.563 23.117C362.433 23.053 362.318 22.9642 362.223 22.8555C362.031 22.6356 361.933 22.3493 361.949 22.0578C362.259 17.4527 362.357 12.2335 359.594 8.55493C356.529 4.47884 350.75 3.34675 346.056 2.82593C330.109 1.06546 313.97 2.92913 298.843 8.27807C295.902 9.32519 293.009 10.6355 291.804 13.1354C290.917 14.9747 291.081 17.2471 291.224 19.2755C291.251 19.6794 291.273 20.0824 291.289 20.4844C291.328 21.2766 291.363 22.0249 291.47 22.7623C292.949 33.0224 293.661 39.0392 293.842 41.2458C293.865 41.5355 293.773 41.8227 293.585 42.0442C293.397 42.2657 293.129 42.4035 292.84 42.4273L292.757 42.441Z" fill="#162B43"/>
<path d="M290.018 184.315C289.746 184.319 289.483 184.221 289.279 184.041C289.075 183.855 288.949 183.6 288.926 183.325C288.902 183.052 288.981 182.781 289.147 182.563C289.314 182.345 289.556 182.197 289.827 182.149C292.627 181.654 295.348 180.784 297.917 179.564C301.204 178.002 303.513 176.176 304.983 173.981C307.084 170.85 307.547 166.769 307.958 163.167L310.932 137.104C311.913 128.505 312.926 119.613 313.751 110.753C313.766 110.61 313.807 110.47 313.874 110.342C313.942 110.214 314.035 110.1 314.148 110.008C314.26 109.917 314.388 109.848 314.526 109.805C314.664 109.762 314.809 109.747 314.953 109.761C315.097 109.775 315.236 109.817 315.364 109.885C315.493 109.952 315.606 110.045 315.698 110.159C315.79 110.27 315.859 110.398 315.901 110.536C315.943 110.673 315.958 110.818 315.944 110.962C315.123 119.84 314.104 128.744 313.121 137.354L310.149 163.419C309.711 167.257 309.212 171.643 306.819 175.206C305.12 177.736 302.521 179.811 298.876 181.546C296.13 182.85 293.222 183.78 290.229 184.312C290.159 184.321 290.088 184.322 290.018 184.315Z" fill="#162B43"/>
<path d="M315.92 98.7467H315.846C315.556 98.727 315.286 98.5929 315.095 98.374C314.904 98.155 314.808 97.869 314.827 97.579C315.739 84.0131 315.876 72.0863 315.241 61.1217C314.986 56.7058 314.331 52.298 311.28 49.9406C309.755 48.7619 307.772 48.2411 305.871 47.808C300.508 46.5827 299.933 46.5334 298.402 46.3991C297.997 46.3634 297.526 46.3223 296.896 46.2538C296.752 46.2387 296.613 46.1954 296.486 46.1262C296.359 46.0571 296.247 45.9635 296.156 45.8508C296.016 45.682 295.929 45.4748 295.908 45.2561C295.886 45.0374 295.931 44.8173 296.036 44.6244C296.141 44.4314 296.302 44.2746 296.497 44.1741C296.692 44.0736 296.913 44.0342 297.131 44.0609C297.742 44.1294 298.199 44.1678 298.594 44.2034C300.188 44.3432 300.848 44.4008 306.359 45.659C308.402 46.1249 310.741 46.7554 312.617 48.1918C316.364 51.0864 317.144 56.0506 317.429 60.982C318.067 72.0507 317.93 84.0679 317.013 97.7133C316.997 97.9926 316.876 98.2554 316.673 98.4479C316.469 98.6402 316.2 98.7471 315.92 98.7467Z" fill="#162B43"/>
<path d="M362.418 32.2382C362.127 32.2382 361.848 32.1227 361.643 31.9171C361.437 31.7114 361.322 31.4325 361.322 31.1417C361.322 30.0727 361.352 29.741 361.596 27.1506L361.621 26.8765C361.636 26.7329 361.677 26.5935 361.744 26.4654C361.812 26.3368 361.905 26.2231 362.018 26.1309C362.13 26.0396 362.258 25.9708 362.396 25.9281C362.534 25.8847 362.679 25.8698 362.823 25.8842C363.113 25.913 363.38 26.0536 363.568 26.2762C363.659 26.3881 363.728 26.5165 363.771 26.6545C363.814 26.7927 363.829 26.9381 363.814 27.0821L363.79 27.3562C363.549 29.9082 363.516 30.1769 363.516 31.1417C363.516 31.4325 363.4 31.7114 363.195 31.9171C362.99 32.1227 362.711 32.2382 362.42 32.2382H362.418Z" fill="#162B43"/>
<path d="M347.562 111.266C347.483 111.266 347.404 111.257 347.327 111.239C347.045 111.173 346.802 110.999 346.648 110.755C346.494 110.511 346.443 110.216 346.505 109.934C348.025 103.034 355.992 62.9999 359.805 37.5209C359.854 37.2373 360.011 36.9838 360.243 36.8137C360.417 36.688 360.623 36.616 360.837 36.6065C361.051 36.5971 361.263 36.6507 361.447 36.7607C361.631 36.8706 361.779 37.0322 361.872 37.2253C361.965 37.4184 362 37.6346 361.971 37.8471C358.153 63.3754 350.169 103.492 348.644 110.405C348.592 110.651 348.455 110.872 348.258 111.027C348.06 111.185 347.814 111.269 347.562 111.266Z" fill="#162B43"/>
<path d="M80.1794 101.245L79.9148 101.317L79.8329 101.578C79.468 102.744 79.1541 103.661 78.8909 104.334L78.8908 104.334L78.8871 104.344C78.5106 105.372 78.1466 106.268 77.7953 107.034L77.5321 107.608L78.1508 107.733L78.5125 107.806L78.9198 107.888L79.0752 107.503L79.1782 107.248L79.1203 116.202L79.1161 116.86L79.751 116.688L80.8658 116.386L81.2304 116.287L81.2351 115.91L81.4153 101.57L81.4236 100.908L80.7846 101.081L80.1794 101.245ZM87.3168 99.4497L87.0147 99.5315L86.9563 99.8389L86.7025 101.173L86.5531 101.957L87.3243 101.749L93.2917 100.133L90.1381 113.039L89.9371 113.862L90.7545 113.64L91.8056 113.356L92.1027 113.275L92.1647 112.974L95.2316 98.0583L95.3952 97.2627L94.6112 97.475L87.3168 99.4497ZM106.589 94.0388L106.58 94.0434L106.571 94.0484C105.814 94.4778 105.167 95.0641 104.629 95.7997L104.627 95.8016C104.161 96.445 103.779 97.2163 103.474 98.1071L103.471 98.1151L103.468 98.1233C103.132 99.227 102.927 100.344 102.855 101.472C102.76 102.77 102.848 103.944 103.13 104.986C103.38 105.908 103.756 106.715 104.265 107.399L104.27 107.406L104.276 107.413C104.816 108.085 105.527 108.598 106.391 108.957L106.407 108.964L106.424 108.97C106.752 109.08 107.076 109.157 107.395 109.198L107.395 109.199L107.409 109.2C107.765 109.237 108.107 109.216 108.43 109.129C110.437 108.586 111.832 107.067 112.653 104.718C113.338 102.774 113.517 100.764 113.193 98.694L113.189 98.667L113.182 98.6405C112.79 97.195 112.148 95.9743 111.246 94.9947C110.147 93.7956 108.868 93.3078 107.457 93.6895C107.182 93.7642 106.891 93.883 106.589 94.0388ZM107.79 94.6645L107.921 95.1471C108.276 95.0509 108.571 95.0517 108.819 95.1213C109.064 95.1898 109.297 95.3344 109.52 95.5813C109.798 95.9213 110.052 96.3144 110.28 96.7631L110.282 96.7669C110.503 97.1942 110.679 97.6454 110.808 98.1212C111.088 99.1527 111.203 100.219 111.154 101.323L111.154 101.323L111.153 101.332C111.124 102.428 110.93 103.564 110.567 104.742C110.324 105.465 110.058 106.076 109.77 106.578C109.498 107.024 109.145 107.371 108.709 107.625L108.707 107.626C108.514 107.739 108.363 107.803 108.25 107.834C107.714 107.979 107.175 107.828 106.588 107.195C106.101 106.663 105.73 105.959 105.487 105.065C105.402 104.75 105.357 104.543 105.343 104.426C105.078 102.287 105.045 100.556 105.228 99.2194C105.528 97.1152 106.359 95.8512 107.63 95.2521L107.645 95.2447L107.66 95.2364C107.684 95.2229 107.761 95.1905 107.921 95.1471L107.79 94.6645Z" fill="white" stroke="white"/>
</g>
<defs>
<clipPath id="clip0_222_4818">
<rect width="384" height="381" fill="white"/>
</clipPath>
</defs>
</svg>
