<svg width="120" height="120" viewBox="0 0 120 120" fill="none" xmlns="http://www.w3.org/2000/svg">
<path d="M75.1359 68.9573C73.5977 67.1661 72.7642 64.8707 71.3562 62.9743C69.922 61.0454 67.9456 59.5926 65.8887 58.3432C59.7603 54.6214 52.814 52.4651 45.6601 52.0637C43.9513 51.9699 41.8804 52.183 41.1126 53.7173C40.2581 55.4314 41.7029 57.3787 43.1537 58.6272C44.5845 59.8572 46.1252 60.9525 47.7563 61.8993C48.8932 62.5631 50.1175 63.1899 50.8889 64.2666C51.7415 65.459 51.8876 67.0013 51.9943 68.4637C52.6356 77.2139 52.8531 85.9816 52.6467 94.7668C52.5907 97.1473 52.6703 99.9038 54.5426 101.37C56.0293 102.532 58.1343 102.422 59.9647 101.996C62.5131 101.398 64.9183 100.3 67.0413 98.7658C68.5901 97.6444 70.9916 96.2231 72.8526 95.7953C77.2575 94.78 81.4037 95.4612 88.141 98.1573C88.4567 98.2853 90.7226 84.6077 89.8962 79.0148C89.695 77.6523 88.5844 73.5709 87.7973 73.3473C86.97 73.1132 84.1462 70.3602 82.1934 72.3829C79.6459 72.2715 76.8282 70.9301 75.1359 68.9573Z" fill="white"/>
<path fill-rule="evenodd" clip-rule="evenodd" d="M42.9323 51.9209C43.8165 51.6715 44.8082 51.6434 45.6803 51.6913L45.6808 51.6913C52.8957 52.0961 59.9011 54.2707 66.0817 58.0242L66.0818 58.0242C68.1534 59.2826 70.1781 60.7653 71.6549 62.7516L71.6551 62.7518C72.3002 63.6207 72.8272 64.5706 73.3395 65.4943C73.4007 65.6045 73.4616 65.7144 73.5225 65.8236C74.0992 66.8585 74.6762 67.8501 75.4183 68.7142L75.4184 68.7143C77.0071 70.5664 79.6453 71.8467 82.0496 72.0016C82.5753 71.5121 83.1633 71.2992 83.761 71.2746C84.3929 71.2486 85.0146 71.4336 85.5674 71.6774C86.1217 71.9219 86.6338 72.2382 87.0456 72.4977C87.0805 72.5198 87.1146 72.5413 87.1478 72.5623C87.314 72.6673 87.4591 72.7589 87.5868 72.8336C87.7467 72.9272 87.8452 72.9733 87.8984 72.9884L87.8988 72.9885C88.1151 73.0499 88.2802 73.2181 88.3984 73.3692C88.526 73.5324 88.6475 73.7399 88.762 73.9686C88.9917 74.4275 89.2172 75.0208 89.4202 75.6374C89.8259 76.8696 90.1601 78.2521 90.2647 78.9605L89.896 79.0152L90.2647 78.9605C90.2647 78.9605 90.2647 78.9605 90.2647 78.9605C90.6863 81.8138 90.3187 86.6791 89.8166 90.7773C89.5646 92.8347 89.2765 94.7142 89.0312 96.0736C88.9087 96.7524 88.796 97.3064 88.7029 97.6897C88.6568 97.8792 88.6131 98.0376 88.5726 98.151C88.5537 98.204 88.5282 98.2682 88.4945 98.3238C88.4795 98.3486 88.4458 98.4009 88.3885 98.4464C88.3273 98.4949 88.1804 98.5758 88.0026 98.5045L88.1408 98.1577L88.001 98.5039C88.0015 98.5041 88.0021 98.5043 88.0026 98.5045C81.2933 95.8197 77.2323 95.1693 72.9359 96.1596L72.9357 96.1597C71.1502 96.5702 68.7986 97.9545 67.2595 99.0689L67.2592 99.069C65.0962 100.632 62.6458 101.751 60.0495 102.36L60.0489 102.36C58.2009 102.79 55.9429 102.939 54.3132 101.665L54.313 101.664C53.2835 100.858 52.7642 99.709 52.5067 98.4889C52.25 97.2727 52.2459 95.9503 52.2739 94.7584C52.48 85.9852 52.2628 77.2296 51.6224 68.4915L51.6224 68.4914C51.5146 67.0134 51.3681 65.5787 50.5857 64.4845C50.5858 64.4846 50.5859 64.4847 50.5859 64.4848L50.8887 64.267L50.5857 64.4845C49.949 63.5959 48.9775 63.0357 47.9437 62.4396C47.8195 62.368 47.6943 62.2959 47.5688 62.2226C47.569 62.2227 47.5691 62.2228 47.5693 62.2229L47.7562 61.8998L47.5685 62.2224C47.5686 62.2225 47.5687 62.2225 47.5688 62.2226C45.9181 61.2644 44.3589 60.1558 42.9108 58.9111L42.9107 58.911C42.1643 58.2686 41.402 57.4328 40.9364 56.5168C40.4693 55.5979 40.2803 54.5513 40.779 53.5509L40.7792 53.5503C41.2262 52.6571 42.0448 52.1712 42.9323 51.9209ZM41.4457 53.8849C41.0901 54.5985 41.1963 55.3825 41.6006 56.1778C42.0064 56.9761 42.6919 57.7382 43.3964 58.3443C44.8098 59.5594 46.3317 60.6413 47.943 61.5766L47.9438 61.5771C48.0658 61.6483 48.1904 61.7199 48.3167 61.7924C49.332 62.3754 50.4539 63.0197 51.1915 64.0493L51.1917 64.0495C52.1146 65.3402 52.2602 66.9899 52.3658 68.4369C53.008 77.1991 53.2258 85.9788 53.0191 94.776C52.9911 95.9646 52.9988 97.2107 53.236 98.3344C53.4724 99.4542 53.9291 100.416 54.7719 101.076C56.1155 102.126 58.0675 102.054 59.8802 101.632C62.3804 101.046 64.7401 99.9688 66.8231 98.4633C68.3816 97.3349 70.8327 95.8769 72.769 95.4317C77.2061 94.409 81.3704 95.08 87.9376 97.6751C87.9504 97.6269 87.9641 97.5729 87.9787 97.513C88.0666 97.1509 88.1763 96.6137 88.2977 95.9407C88.5402 94.5969 88.8262 92.7314 89.0768 90.6863C89.5799 86.5795 89.9321 81.8096 89.5273 79.0699L89.5273 79.0698C89.4307 78.4157 89.1091 77.0764 88.7123 75.8714C88.5142 75.2694 88.3019 74.7152 88.0957 74.3034C87.9922 74.0967 87.8963 73.9381 87.8117 73.8299C87.7324 73.7286 87.6903 73.7068 87.6908 73.7058C87.6908 73.7057 87.6911 73.7058 87.6915 73.7059C87.539 73.6619 87.37 73.5716 87.211 73.4786C87.0712 73.3968 86.913 73.2969 86.7469 73.1919C86.7144 73.1714 86.6816 73.1507 86.6487 73.1299C86.2373 72.8707 85.7662 72.5812 85.2671 72.361C84.7664 72.1402 84.2642 72.0015 83.7916 72.0209C83.3323 72.0397 82.8809 72.208 82.4611 72.6429C82.3869 72.7197 82.2835 72.761 82.1769 72.7564C79.5284 72.6406 76.6137 71.2535 74.8533 69.2013C74.057 68.2741 73.4482 67.2224 72.8716 66.1877C72.8104 66.0778 72.7495 65.968 72.6888 65.8587C72.173 64.9292 71.6707 64.0242 71.057 63.1976C69.6655 61.3262 67.7374 59.9033 65.6953 58.6629C59.6191 54.9729 52.7322 52.835 45.6393 52.437C44.8026 52.3911 43.9046 52.4226 43.1343 52.6399C42.3672 52.8562 41.7665 53.2439 41.4457 53.8849Z" fill="#162B43"/>
<path d="M45.541 110.168C45.541 111.286 45.5533 112.462 46.0981 113.438C47.0452 115.137 49.2245 115.646 51.1555 115.816C55.0917 116.164 59.0584 115.838 62.8855 114.851C63.8544 114.601 64.8715 114.272 65.5152 113.503C66.2655 112.606 66.3293 111.335 66.339 110.163C66.4492 96.7582 64.1089 83.462 63.2974 70.0816C62.7211 60.5661 62.9169 51.0022 61.9541 41.5182C61.8973 40.9562 61.8142 40.3469 61.4163 39.9479C60.8872 39.4166 60.0301 39.4648 59.2877 39.5595C56.4477 39.9226 53.6291 40.438 50.8441 41.1035C49.3714 41.4542 47.9101 42.4187 47.7544 44.0258C47.5367 46.2633 47.4711 48.528 47.339 50.7717C47.0557 55.5729 46.8059 60.3758 46.5896 65.1805C46.3733 69.9852 46.1911 74.7911 46.043 79.5981C45.8926 84.4238 45.776 89.2508 45.6932 94.0788C45.611 98.8876 45.5611 103.697 45.5436 108.506C45.5436 109.06 45.5428 109.614 45.541 110.168Z" fill="#007EEF"/>
<path d="M51.0251 54.6063C50.9323 54.6063 50.8434 54.5693 50.7777 54.5035C50.7121 54.4378 50.6753 54.3486 50.6753 54.2556V45.3029C50.6753 45.2098 50.7121 45.1206 50.7777 45.0549C50.8434 44.9891 50.9323 44.9521 51.0251 44.9521C51.1179 44.9521 51.2069 44.9891 51.2725 45.0549C51.3381 45.1206 51.3749 45.2098 51.3749 45.3029V54.2556C51.3749 54.3486 51.3381 54.4378 51.2725 54.5035C51.2069 54.5693 51.1179 54.6063 51.0251 54.6063Z" fill="#162B43"/>
<path d="M54.2302 48.4079C54.1374 48.4079 54.0484 48.371 53.9828 48.3052C53.9172 48.2394 53.8804 48.1502 53.8804 48.0572V45.7618C53.8804 45.6688 53.9172 45.5796 53.9828 45.5139C54.0484 45.4481 54.1374 45.4111 54.2302 45.4111C54.323 45.4111 54.4119 45.4481 54.4775 45.5139C54.5431 45.5796 54.58 45.6688 54.58 45.7618V48.0572C54.58 48.1502 54.5431 48.2394 54.4775 48.3052C54.4119 48.371 54.323 48.4079 54.2302 48.4079Z" fill="#162B43"/>
<path d="M54.6921 61.9868C54.604 61.9871 54.519 61.9541 54.4542 61.8942C54.3893 61.8344 54.3494 61.7523 54.3423 61.6642C54.0996 58.6626 54.0228 55.6498 54.1123 52.6396C54.1157 52.5465 54.1552 52.4584 54.2225 52.3941C54.2727 52.3468 54.3358 52.3153 54.4037 52.3038C54.4717 52.2922 54.5415 52.301 54.6045 52.3291C54.6674 52.3572 54.7207 52.4034 54.7576 52.4617C54.7946 52.5201 54.8134 52.5881 54.812 52.6571C54.7236 55.6401 54.7998 58.6257 55.0402 61.6002C55.0477 61.6929 55.0182 61.7847 54.9582 61.8556C54.8982 61.9264 54.8125 61.9705 54.7201 61.9781L54.6921 61.9868Z" fill="#162B43"/>
<path d="M58.352 52.769C58.2592 52.769 58.1703 52.732 58.1047 52.6662C58.0391 52.6005 58.0022 52.5113 58.0022 52.4183V48.5157C58.0022 48.4227 58.0391 48.3335 58.1047 48.2678C58.1703 48.202 58.2592 48.165 58.352 48.165C58.4448 48.165 58.5338 48.202 58.5994 48.2678C58.665 48.3335 58.7018 48.4227 58.7018 48.5157V52.4183C58.7018 52.5113 58.665 52.6005 58.5994 52.6662C58.5338 52.732 58.4448 52.769 58.352 52.769Z" fill="#162B43"/>
<path d="M46.9963 45.3993C46.4174 45.3993 45.8219 45.2555 45.3942 44.7768C44.7899 44.1025 44.8564 43.1495 44.9666 42.3095C45.4362 38.7148 47.4887 36.2773 50.5968 35.6224C54.3672 34.8264 58.2263 34.5352 62.0731 34.7562C62.7142 34.793 63.3849 34.8657 63.8983 35.3015C64.4676 35.7828 64.6346 36.543 64.7457 37.2181C64.9949 38.7227 65.1279 40.5998 63.9359 41.7773C63.0246 42.6778 61.6997 42.8093 60.5305 42.9259C56.4848 43.3301 52.4797 44.0709 48.5565 45.1406C48.2076 45.2362 47.6129 45.3993 46.9963 45.3993ZM45.6601 42.4007C45.5726 43.0863 45.5088 43.8553 45.9146 44.3086C46.4393 44.8942 47.4511 44.7154 48.3728 44.4637C52.3344 43.3835 56.3787 42.6356 60.464 42.228C61.5134 42.1228 62.7124 42.0035 63.4479 41.2776C64.4099 40.3263 64.2796 38.6701 64.0601 37.3321C63.9647 36.7552 63.8388 36.1642 63.4479 35.8363C63.0981 35.54 62.5568 35.4856 62.0338 35.4558C58.2486 35.2382 54.4513 35.5245 50.7411 36.3072C47.9426 36.8981 46.0903 39.119 45.6609 42.3998L45.6601 42.4007Z" fill="#162B43"/>
<path d="M37.2068 41.7753C34.4677 41.7753 32.1127 41.4246 31.4708 40.1401C31.169 39.5352 31.2827 38.8004 31.8066 37.9482H31.7917C30.3129 38.391 28.6364 38.8925 27.2442 38.177C27.1929 38.1499 27.1485 38.1112 27.1147 38.0639C26.7842 37.58 26.6775 37.1091 26.8025 36.6611C27.0649 35.7291 28.2289 35.2004 29.2573 34.7322L29.4454 34.6445C28.04 34.1246 26.5201 33.4863 25.2092 32.6508C23.1977 31.3698 22.2358 29.9389 22.3425 28.3967C22.3699 28.0159 22.5219 27.6548 22.7749 27.3695C23.0279 27.0841 23.3677 26.8905 23.7417 26.8185C26.7361 26.2372 29.9421 26.7422 33.274 28.3213C36.7642 29.9775 39.4901 32.3895 41.1631 34.1229C42.9638 35.8703 44.9725 38.3051 44.3359 39.9893C43.9616 40.9818 42.7477 41.5307 40.7302 41.621L40.362 41.6438C39.3004 41.7271 38.2265 41.7753 37.2068 41.7753ZM32.696 36.982C32.7627 36.9823 32.8279 37.0018 32.884 37.0381C32.9394 37.0751 32.9835 37.1267 33.0117 37.1872C33.039 37.2481 33.0484 37.3157 33.0388 37.3818C33.0292 37.4468 33.0013 37.5076 32.9583 37.5572C32.124 38.5391 31.8328 39.3011 32.0925 39.8227C32.3173 40.2725 33.0991 40.8459 35.553 41.0222C37.268 41.1458 39.1727 41.0283 40.3104 40.9582L40.6856 40.9354C41.8671 40.8828 43.3407 40.6346 43.673 39.7561C44.0595 38.7338 42.9629 36.868 40.6638 34.6375V34.6288C38.6856 32.5815 31.6334 26.0145 23.8729 27.5269C23.6495 27.5688 23.4462 27.6835 23.2945 27.8531C23.1429 28.0228 23.0514 28.2379 23.0342 28.4651C22.8182 31.5829 28.3557 33.5424 30.4406 34.2798C30.5029 34.3018 30.5578 34.341 30.5989 34.3929C30.64 34.4452 30.6655 34.5081 30.6723 34.5744C30.679 34.6404 30.6669 34.707 30.6373 34.7664C30.6078 34.8259 30.562 34.8758 30.5053 34.9102C30.1938 35.0874 29.8726 35.247 29.5433 35.388C28.6985 35.7712 27.6465 36.2473 27.475 36.8636C27.4138 37.0828 27.4681 37.3248 27.6412 37.6028C28.7781 38.1288 30.2709 37.6825 31.5923 37.2871C31.9482 37.1802 32.2849 37.0793 32.6111 36.9969C32.6387 36.9885 32.6672 36.9835 32.696 36.982Z" fill="#007EEF"/>
<path d="M70.4825 38.9728C68.9363 38.9728 67.2834 38.7519 66.3425 38.1223C66.3249 38.1101 66.3082 38.0967 66.2926 38.082C65.8973 37.6971 65.7408 37.186 65.8291 36.5608C66.1133 34.5442 69.0211 31.5851 71.4103 29.4546C74.2088 26.9584 77.0842 24.8893 78.0952 24.3465C80.9942 22.5676 83.5172 21.9477 84.8561 22.6886C85.1249 22.8319 85.3489 23.047 85.5032 23.3101C85.6576 23.5731 85.7363 23.8739 85.7307 24.1791C85.7455 25.6126 84.3594 27.3907 82.0402 28.9838C82.6315 29.1676 83.1389 29.5552 83.4726 30.078C83.9615 30.8601 84.0131 32.0069 82.6856 32.895C82.6757 32.9022 82.6652 32.9084 82.6541 32.9135C81.3423 33.6043 79.8495 33.7753 78.4056 33.941C77.9325 33.9954 77.4489 34.0515 76.9758 34.1252C77.149 34.3501 77.2729 34.6091 77.3396 34.8853C77.4333 35.2698 77.4393 35.6705 77.3571 36.0576C77.2749 36.4447 77.1066 36.8082 76.8647 37.1211C76.0777 38.0618 74.1668 38.7335 71.74 38.9211C71.3439 38.9553 70.9197 38.9728 70.4825 38.9728ZM66.7605 37.5568C67.635 38.118 69.6062 38.3863 71.6928 38.2249C73.9018 38.0496 75.6789 37.4613 76.3278 36.6783C76.4999 36.4507 76.6195 36.1876 76.6779 35.908C76.7363 35.6284 76.732 35.3393 76.6653 35.0615C76.6076 34.8336 76.4467 34.4259 76.0191 34.2497C75.9492 34.2214 75.8903 34.1713 75.8512 34.1067C75.8117 34.0422 75.7941 33.9666 75.8011 33.8912C75.808 33.8158 75.8391 33.7447 75.8896 33.6885C75.9404 33.6324 76.0079 33.5943 76.082 33.5798C76.8266 33.4309 77.5782 33.3194 78.3339 33.2458C79.7078 33.0879 81.1272 32.9249 82.3209 32.3023C83.0887 31.7824 83.2942 31.1082 82.8832 30.4506C82.4722 29.793 81.519 29.3555 80.8482 29.7404L80.836 29.7474C80.7563 29.7871 80.6646 29.7948 80.5795 29.769C80.4944 29.7433 80.4222 29.6861 80.3777 29.6089C80.3333 29.5317 80.3199 29.4405 80.3401 29.3538C80.3601 29.267 80.4124 29.1912 80.4861 29.1416L80.5028 29.1328C83.8662 27.1732 85.0503 25.2443 85.0372 24.187C85.0434 24.0065 84.9982 23.8279 84.9069 23.6723C84.816 23.5152 84.6826 23.3872 84.5221 23.3032C83.6624 22.8262 81.6187 23.0086 78.4555 24.9506L78.4371 24.9612C76.1914 26.1597 66.9809 33.4097 66.5261 36.6599C66.4675 37.0422 66.5471 37.3359 66.7605 37.5568Z" fill="#007EEF"/>
<path d="M66.3539 5.18753C70.6662 9.92209 71.4261 17.7481 68.3006 23.3367C65.175 28.9252 58.2873 32.1333 52.0091 30.9128C45.7309 29.6924 40.5362 24.1442 39.7194 17.785C39.0635 12.6795 41.2244 6.96386 45.0925 3.62951C48.8949 0.350389 54.3143 -0.772753 59.1242 0.530127C61.8895 1.27977 64.416 3.06048 66.3539 5.18753Z" fill="#DBF122"/>
<path d="M43.2236 24.1262C43.1538 24.1261 43.0855 24.105 43.0277 24.0657C42.9695 24.0264 42.9244 23.9705 42.8983 23.9052C42.8728 23.8397 42.867 23.768 42.8817 23.6992C42.8979 23.6321 42.9331 23.5712 42.9831 23.5238C44.0929 22.4717 44.7663 21.972 45.9863 21.2907C46.0264 21.2682 46.0706 21.2538 46.1164 21.2485C46.1621 21.2431 46.2084 21.2468 46.2527 21.2595C46.297 21.2721 46.3383 21.2934 46.3744 21.322C46.4105 21.3507 46.4405 21.3863 46.4629 21.4266C46.4853 21.4669 46.4996 21.5113 46.5049 21.5572C46.5101 21.6031 46.5063 21.6495 46.4937 21.6939C46.481 21.7383 46.4597 21.7798 46.431 21.8159C46.4023 21.852 46.3668 21.8821 46.3264 21.9045C45.166 22.5524 44.524 23.0302 43.4641 24.035C43.3984 24.0949 43.3124 24.1275 43.2236 24.1262Z" fill="white"/>
<path d="M46.3709 27.524C46.3028 27.5247 46.236 27.5055 46.1787 27.4687C46.1214 27.4319 46.076 27.3791 46.0482 27.3168C46.0204 27.2546 46.0112 27.1855 46.0219 27.1181C46.0327 27.0507 46.0627 26.988 46.1085 26.9375L47.7832 25.0901C47.8294 25.0358 47.8909 24.9969 47.9596 24.9786C48.0284 24.9602 48.1011 24.9634 48.168 24.9875C48.2129 25.0026 48.254 25.0271 48.2887 25.0594C48.3253 25.0907 48.3551 25.1292 48.3762 25.1725C48.3953 25.216 48.406 25.2627 48.4076 25.3102C48.4084 25.3576 48.3998 25.4047 48.3823 25.4487C48.3648 25.4927 48.3386 25.5326 48.3053 25.5662L46.6306 27.4135C46.5982 27.4493 46.5588 27.4779 46.5149 27.4977C46.4709 27.5175 46.4234 27.5279 46.3752 27.5284L46.3709 27.524Z" fill="white"/>
<path d="M50.4174 29.6586C50.3518 29.6586 50.2875 29.64 50.232 29.6051C50.1931 29.5806 50.1594 29.5486 50.1328 29.511C50.1062 29.4734 50.0873 29.4309 50.0772 29.3859C50.0566 29.2959 50.0723 29.2014 50.1209 29.1229C50.3098 28.8204 50.4497 28.5837 50.5853 28.3557C50.7208 28.1278 50.8642 27.8832 51.0575 27.5737C51.1079 27.4976 51.1859 27.4443 51.2749 27.4249C51.3639 27.4056 51.4569 27.4219 51.5341 27.4702C51.6114 27.5186 51.6669 27.5953 51.6886 27.6841C51.7103 27.7729 51.6966 27.8666 51.6504 27.9454C51.4615 28.2479 51.3216 28.4846 51.1869 28.7135C51.0523 28.9423 50.9071 29.1852 50.7138 29.4947C50.6824 29.5451 50.6387 29.5867 50.5868 29.6155C50.535 29.6443 50.4767 29.6595 50.4174 29.6595V29.6586Z" fill="white"/>
<path d="M58.3073 30.0151C58.2257 30.0148 58.1468 29.9859 58.0843 29.9335C58.0212 29.8811 57.9785 29.8082 57.9636 29.7275C57.9566 29.688 57.9443 29.6091 57.9277 29.5039C57.6828 27.917 57.5377 27.5137 57.4712 27.4155C57.4086 27.3489 57.3745 27.2604 57.376 27.169C57.3776 27.0775 57.4147 26.9902 57.4795 26.9258C57.5443 26.8614 57.6317 26.825 57.7229 26.8242C57.8142 26.8235 57.9021 26.8585 57.9679 26.9218C58.2014 27.1489 58.372 27.7986 58.6195 29.3961C58.6343 29.4934 58.6448 29.5653 58.6518 29.6021C58.6684 29.6936 58.648 29.788 58.5952 29.8644C58.5424 29.9409 58.4615 29.9932 58.3702 30.0098C58.3494 30.0134 58.3284 30.0151 58.3073 30.0151Z" fill="white"/>
<path d="M62.1553 27.9683C61.9148 27.9683 61.7434 27.8289 61.3062 26.9609C61.1362 26.6307 60.9839 26.2918 60.8497 25.9456C60.8255 25.8575 60.8366 25.7634 60.8806 25.6834C60.9245 25.6034 60.9979 25.5438 61.085 25.5172C61.1722 25.4906 61.2663 25.4991 61.3473 25.5409C61.4282 25.5828 61.4897 25.6547 61.5187 25.7413C61.5834 25.9456 62.1125 27.0696 62.3057 27.3028C62.3766 27.3377 62.4336 27.3957 62.4675 27.4672C62.5014 27.5387 62.5101 27.6196 62.4922 27.6968C62.4744 27.7739 62.431 27.8427 62.3692 27.892C62.3074 27.9413 62.2308 27.9682 62.1518 27.9683H62.1553Z" fill="white"/>
<path d="M58.2391 4.09437C58.1947 4.0942 58.1508 4.08557 58.1097 4.06894C58.0675 4.05144 58.0289 4.02616 57.996 3.99442C57.963 3.96211 57.9366 3.9237 57.9182 3.88132C57.8997 3.83902 57.8902 3.79334 57.8902 3.74717C57.8895 3.70128 57.8978 3.6557 57.9147 3.61302L58.8023 1.40269C58.8196 1.3598 58.8451 1.32077 58.8775 1.28783C58.9097 1.2549 58.9481 1.22866 58.9904 1.2106C59.0327 1.19255 59.0781 1.18304 59.1241 1.18262C59.1702 1.18265 59.2159 1.19127 59.2588 1.20804C59.3015 1.22552 59.3404 1.25113 59.3734 1.28345C59.4058 1.31602 59.4319 1.35438 59.4503 1.39655C59.4678 1.43916 59.4773 1.48464 59.4783 1.53069C59.4784 1.57698 59.4695 1.62285 59.4521 1.66572L58.5679 3.87518C58.5415 3.94066 58.496 3.99663 58.4373 4.03574C58.3786 4.07485 58.3096 4.09528 58.2391 4.09437Z" fill="white"/>
<path d="M54.9062 2.65298C54.8134 2.65298 54.7245 2.61603 54.6589 2.55026C54.5933 2.48449 54.5564 2.39528 54.5564 2.30227V1.25891C54.5564 1.1659 54.5933 1.07669 54.6589 1.01092C54.7245 0.945153 54.8134 0.908203 54.9062 0.908203C54.999 0.908203 55.088 0.945153 55.1536 1.01092C55.2192 1.07669 55.256 1.1659 55.256 1.25891V2.30227C55.256 2.39528 55.2192 2.48449 55.1536 2.55026C55.088 2.61603 54.999 2.65298 54.9062 2.65298Z" fill="white"/>
<path d="M51.4667 3.24402C51.3831 3.24392 51.3023 3.2138 51.2389 3.15911C51.1755 3.10442 51.1338 3.02879 51.1213 2.94591C51.0688 2.60485 50.7715 1.85521 50.6613 1.59481C50.6272 1.51045 50.6272 1.41614 50.6613 1.33178C50.6782 1.28879 50.7036 1.24965 50.7359 1.21667C50.7682 1.18368 50.8067 1.15753 50.8493 1.13977C50.9331 1.10372 51.0275 1.10187 51.1126 1.13462C51.1977 1.16738 51.2667 1.23214 51.3049 1.31512C51.3495 1.41946 51.7422 2.34533 51.813 2.83456C51.8203 2.88046 51.8184 2.92735 51.8074 2.9725C51.7965 3.01766 51.7767 3.06018 51.7492 3.0976C51.7218 3.13467 51.6877 3.16621 51.6486 3.19053C51.5935 3.22336 51.5308 3.24091 51.4667 3.24139V3.24402Z" fill="white"/>
<path d="M46.8318 5.96214C46.7703 5.9612 46.7101 5.94461 46.6569 5.91391C46.5362 5.84289 45.4701 5.2011 45.1597 4.48215C45.1396 4.43955 45.1283 4.39333 45.1264 4.34625C45.1248 4.29902 45.1325 4.25193 45.1492 4.20772C45.1656 4.16356 45.1909 4.12327 45.2235 4.08935C45.2561 4.05582 45.2946 4.02875 45.3372 4.00957C45.4249 3.97337 45.5233 3.97337 45.6109 4.00957C45.6542 4.02799 45.6934 4.05481 45.7264 4.08848C45.759 4.12219 45.7846 4.16215 45.8016 4.20597C45.9669 4.58911 46.6306 5.08274 47.0102 5.3107C47.0753 5.3493 47.1261 5.40801 47.1551 5.47803C47.1841 5.54806 47.1897 5.62562 47.1711 5.6991C47.1519 5.77362 47.1081 5.83943 47.0469 5.88586C46.9863 5.933 46.9119 5.95888 46.8353 5.95951L46.8318 5.96214Z" fill="white"/>
<path d="M44.3148 9.59028C44.2532 9.58913 44.1929 9.57191 44.1399 9.54031C43.9013 9.39293 43.6543 9.25973 43.4001 9.14138C43.127 9.0123 42.8611 8.8686 42.6034 8.71088C42.5266 8.66177 42.4719 8.58455 42.451 8.49563C42.4301 8.40672 42.4446 8.31314 42.4915 8.2348C42.5383 8.1565 42.6137 8.09959 42.7018 8.07618C42.7898 8.05277 42.8834 8.06469 42.9628 8.10942C43.202 8.25576 43.449 8.38894 43.7027 8.50835C43.9759 8.63705 44.2419 8.78076 44.4994 8.93884C44.5484 8.96829 44.5894 9.00931 44.6189 9.05832C44.6484 9.10734 44.6655 9.16285 44.6687 9.22002C44.6719 9.27719 44.6611 9.33427 44.6372 9.38628C44.6133 9.43829 44.5771 9.48365 44.5317 9.51839C44.4707 9.56509 44.396 9.59035 44.3192 9.59028H44.3148Z" fill="white"/>
<path d="M42.9944 12.6473C42.9613 12.647 42.9284 12.6422 42.8965 12.6332C42.6507 12.5613 42.5239 12.5263 42.4592 12.5087C42.3852 12.5085 42.3117 12.4964 42.2415 12.4728C42.154 12.4482 42.0019 12.4026 41.7404 12.322C41.6964 12.3085 41.6556 12.2864 41.6202 12.257C41.5847 12.2277 41.5554 12.1916 41.5339 12.1509C41.5124 12.1102 41.4991 12.0656 41.4947 12.0198C41.4904 11.9739 41.4951 11.9276 41.5086 11.8836C41.5221 11.8395 41.5441 11.7986 41.5734 11.7631C41.6027 11.7275 41.6386 11.6982 41.6792 11.6766C41.7198 11.655 41.7643 11.6417 41.81 11.6373C41.8558 11.633 41.902 11.6377 41.9459 11.6512C42.2161 11.7389 42.3587 11.7775 42.433 11.7985C42.4973 11.7986 42.5612 11.808 42.6228 11.8266C42.7163 11.8511 42.8703 11.8941 43.0941 11.9599C43.1749 11.9835 43.2444 12.0355 43.29 12.1063C43.3357 12.1772 43.3543 12.2621 43.3425 12.3456C43.3306 12.4299 43.2886 12.507 43.2242 12.5625C43.1599 12.618 43.0776 12.6481 42.9927 12.6473H42.9944Z" fill="white"/>
<path d="M42.9944 15.4348H40.3498C40.257 15.4348 40.1681 15.3979 40.1025 15.3321C40.0369 15.2663 40 15.1771 40 15.0841C40 14.9911 40.0369 14.9019 40.1025 14.8361C40.1681 14.7703 40.257 14.7334 40.3498 14.7334H42.9935C43.0863 14.7334 43.1752 14.7703 43.2409 14.8361C43.3065 14.9019 43.3433 14.9911 43.3433 15.0841C43.3433 15.1771 43.3065 15.2663 43.2409 15.3321C43.1752 15.3979 43.0863 15.4348 42.9935 15.4348H42.9944Z" fill="white"/>
<path d="M41.1368 19.4304C41.0722 19.4302 41.0088 19.4119 40.9539 19.3778C40.8989 19.3436 40.8545 19.2949 40.8255 19.2369C40.7965 19.179 40.7841 19.1141 40.7896 19.0495C40.7952 18.9849 40.8185 18.9231 40.857 18.871C40.9085 18.8013 40.9839 18.7532 41.0686 18.736L43.1526 18.3178C43.2419 18.3036 43.3331 18.3247 43.4073 18.3765C43.4814 18.4283 43.5327 18.5069 43.5503 18.5957C43.5679 18.6846 43.5506 18.7769 43.5019 18.8532C43.4532 18.9295 43.3769 18.984 43.289 19.0052L41.2059 19.4234C41.1831 19.4275 41.16 19.4298 41.1368 19.4304Z" fill="white"/>
<path d="M33.1472 33.5142C32.8463 33.5142 32.5026 33.4607 32.2525 33.2337C32.0365 33.0355 31.9237 32.7409 31.9193 32.3569C31.9097 31.4643 32.3627 31.1022 32.6338 30.9646C33.176 30.6919 33.9412 30.8129 34.5377 31.2671C34.5733 31.2951 34.6031 31.33 34.6251 31.3697C34.6483 31.4093 34.6634 31.4531 34.6697 31.4985C34.6764 31.5447 34.6738 31.5918 34.6621 31.6369C34.6503 31.6821 34.6298 31.7245 34.6015 31.7616C34.5732 31.7969 34.5384 31.8267 34.4992 31.8492C34.4593 31.8722 34.4154 31.8871 34.3698 31.8931C34.3245 31.8997 34.2784 31.897 34.2342 31.8852C34.1897 31.8734 34.1478 31.8532 34.1109 31.8256C33.7349 31.5389 33.2442 31.4407 32.9452 31.5915C32.7222 31.7046 32.6111 31.9588 32.6155 32.3481C32.6155 32.5305 32.6531 32.6532 32.7195 32.7146C32.8149 32.8023 33.03 32.8303 33.3597 32.8023C33.4525 32.7945 33.5445 32.824 33.6156 32.8842C33.6867 32.9445 33.731 33.0306 33.7388 33.1236C33.7466 33.2166 33.7172 33.3089 33.657 33.3802C33.5969 33.4515 33.5111 33.4959 33.4183 33.5037C33.3378 33.509 33.2451 33.5142 33.1472 33.5142Z" fill="#007EEF"/>
<path d="M36.7345 38.2582C36.5471 38.2543 36.3664 38.1879 36.2209 38.0696C36.0753 37.9512 35.9733 37.7875 35.9308 37.6045C35.8884 37.4215 35.908 37.2295 35.9866 37.0589C36.0651 36.8883 36.1981 36.7488 36.3646 36.6625C36.4062 36.6405 36.4516 36.6268 36.4984 36.6222C36.545 36.6186 36.5919 36.624 36.6366 36.6379C36.6813 36.6523 36.7226 36.6756 36.7581 36.7063C36.7942 36.737 36.8239 36.7746 36.8456 36.8168C36.8665 36.8586 36.8787 36.9042 36.8814 36.9509C36.8856 37.0217 36.8683 37.0922 36.8318 37.1529C36.7953 37.2136 36.7412 37.2618 36.6768 37.2911C36.6479 37.305 36.6248 37.3285 36.6114 37.3576C36.598 37.3868 36.5951 37.4197 36.6034 37.4507C36.6116 37.4819 36.6305 37.5091 36.6567 37.5279C36.6819 37.5465 36.7128 37.5558 36.7441 37.5542C36.7657 37.5543 36.787 37.5504 36.8071 37.5428C36.8264 37.5342 36.844 37.522 36.8587 37.5068C36.8858 37.4695 36.92 37.4378 36.9593 37.4138C36.9986 37.3897 37.0423 37.3736 37.0878 37.3665C37.1562 37.3558 37.2262 37.3656 37.289 37.3948C37.3518 37.4239 37.4045 37.4711 37.4406 37.5303C37.4766 37.5896 37.4943 37.6582 37.4915 37.7275C37.4886 37.7968 37.4653 37.8637 37.4245 37.9198C37.3482 38.0221 37.2495 38.1055 37.1359 38.1635C37.0223 38.2215 36.897 38.2529 36.7695 38.2556L36.7345 38.2582Z" fill="#007EEF"/>
<path d="M77.8609 29.7947C77.8073 29.7943 77.7546 29.7816 77.7067 29.7575C77.6588 29.7335 77.6171 29.6987 77.5847 29.6559C77.5524 29.6132 77.5303 29.5635 77.5201 29.5108C77.5099 29.4581 77.5119 29.4037 77.5259 29.3519C77.5445 29.2832 77.584 29.2219 77.6387 29.1766L77.6501 29.1669C77.7466 29.0903 77.8204 28.9888 77.8636 28.8732C77.9067 28.7576 77.9176 28.6324 77.895 28.5111C77.8757 28.3824 77.8222 28.2613 77.7402 28.1604C77.6583 28.0598 77.5507 27.9835 77.4288 27.9395C77.3676 27.9167 77.3055 27.8956 77.2434 27.8781C77.1995 27.8647 77.1585 27.843 77.1228 27.8141C77.087 27.7851 77.0573 27.7494 77.0353 27.7089C77.0023 27.6478 76.988 27.5784 76.9944 27.5092C77.0008 27.4401 77.0275 27.3744 77.0712 27.3205C77.0998 27.2844 77.1355 27.2546 77.1761 27.2328C77.2158 27.2109 77.2594 27.1972 77.3045 27.1924C77.3495 27.1875 77.3951 27.1918 77.4385 27.2047C77.5145 27.2275 77.5924 27.2538 77.6676 27.2819C77.9056 27.3683 78.1161 27.5172 78.277 27.7131C78.4379 27.909 78.5434 28.1446 78.5823 28.3954C78.6251 28.6388 78.6016 28.8893 78.5141 29.1205C78.4269 29.3518 78.2795 29.5555 78.0874 29.7105L78.0795 29.7167C78.0173 29.7663 77.9404 29.7938 77.8609 29.7947Z" fill="#007EEF"/>
<path d="M71.8651 35.4682C71.7864 35.4681 71.71 35.4414 71.6482 35.3924C71.5865 35.3434 71.5431 35.2749 71.5249 35.1981C71.5135 35.1473 71.5135 35.0946 71.5249 35.0438C71.555 34.8955 71.5535 34.7425 71.5206 34.5949C71.4876 34.4471 71.4235 34.3081 71.3326 34.1872C71.3043 34.1501 71.2837 34.1077 71.272 34.0626C71.2603 34.0174 71.2577 33.9703 71.2643 33.9242C71.2735 33.8555 71.3028 33.791 71.3485 33.739C71.3942 33.687 71.4543 33.6497 71.5211 33.6319C71.5879 33.6141 71.6585 33.6165 71.7239 33.6389C71.7894 33.6612 71.8467 33.7025 71.8888 33.7576C72.041 33.9589 72.1484 34.1907 72.2036 34.4373C72.2589 34.6838 72.2606 34.9394 72.2088 35.1867C72.1922 35.2653 72.1492 35.3358 72.0869 35.3864C72.0247 35.4369 71.947 35.4646 71.8669 35.4646L71.8651 35.4682Z" fill="#007EEF"/>
<path d="M70.9477 79.2231C70.9182 79.222 70.8889 79.2179 70.8603 79.2108C69.1882 78.7645 67.5371 77.2477 66.2157 74.9392C65.0709 72.9428 64.3057 70.5396 64.2191 68.6685C64.217 68.6225 64.2238 68.5764 64.2394 68.5331C64.255 68.4897 64.2789 68.4498 64.3099 68.4157C64.3408 68.3816 64.3781 68.3539 64.4197 68.3342C64.4613 68.3146 64.5064 68.3034 64.5523 68.3012C64.5983 68.299 64.6442 68.3059 64.6875 68.3215C64.7307 68.3371 64.7705 68.3611 64.8046 68.3921C64.8386 68.4231 64.8662 68.4606 64.8858 68.5023C64.9054 68.544 64.9166 68.5892 64.9188 68.6352C65.001 70.4028 65.7303 72.6841 66.8226 74.5902C68.0522 76.7348 69.5502 78.135 71.0413 78.5357C71.1235 78.5573 71.1951 78.608 71.2427 78.6786C71.2903 78.7492 71.3106 78.8347 71.2999 78.9192C71.2892 79.0037 71.2481 79.0814 71.1845 79.1378C71.1208 79.1942 71.0388 79.2255 70.9539 79.2257L70.9477 79.2231Z" fill="#162B43"/>
<path d="M42.1339 98.2612C43.2192 99.8157 45.151 100.255 46.9036 100.415C50.0953 100.698 53.3092 100.241 56.2968 99.0801C57.3043 98.6908 58.3336 98.1849 58.9939 97.2389C59.6541 96.2928 59.8054 94.7962 59.0621 93.9343C58.5059 93.289 57.641 93.1654 56.8478 93.0795L49.7641 92.3071C53.0496 92.7411 56.3913 92.3255 59.4714 91.0997C60.3022 90.7709 61.1741 90.3264 61.6078 89.4602C62.2725 88.131 61.5536 86.3573 60.4176 85.5314C59.2816 84.7055 57.8684 84.5792 56.5207 84.4792L48.9535 83.9067C52.8281 84.727 56.8431 84.5962 60.6563 83.5253C61.4618 83.2991 62.297 83.0054 62.8741 82.3312C64.0434 80.9625 63.5965 78.5391 62.3687 77.2362C61.1408 75.9334 59.404 75.4827 57.7442 75.1636C54.5714 74.5506 51.3493 74.2298 48.1183 74.2053C51.6547 74.8257 55.2906 74.5309 58.6817 73.3486C59.4617 73.0769 60.2855 72.7104 60.7237 71.9327C61.3359 70.8463 60.9327 69.3295 60.1115 68.43C59.2903 67.5304 58.1727 67.1025 57.0892 66.701L50.476 64.246C48.3719 63.4666 46.2214 62.6775 44.0045 62.6976C41.7876 62.7178 39.457 63.6893 38.2327 65.7725C37.0083 67.8557 37.7272 72.1466 39.6319 73.4214C36.5221 76.3831 37.1448 81.5964 40.8562 83.6568C40.5939 83.4587 38.5886 85.8979 38.7574 88.3037C39.0197 92.0738 42.3377 93.3241 42.3377 93.3241C42.3377 93.3241 40.2624 95.5774 42.1339 98.2612Z" fill="white" stroke="#162B43" stroke-linejoin="round"/>
<path d="M56.9605 72.8386H56.9544C55.4353 72.8106 54.427 72.4967 53.8708 71.8794C53.4799 71.4411 53.319 70.8799 53.3785 70.1505C53.4004 69.8488 53.4952 69.5569 53.6548 69.3002C53.8143 69.0434 54.0337 68.8294 54.2941 68.6766C55.124 68.1716 56.3405 68.1742 57.5491 68.6845C57.6151 68.7097 57.6721 68.7543 57.7123 68.8125C57.7526 68.8707 57.7744 68.9398 57.7747 69.0107C57.7746 69.0576 57.7654 69.104 57.7476 69.1474C57.7285 69.1915 57.7005 69.2312 57.6654 69.264C57.6319 69.297 57.592 69.3227 57.5482 69.3394C57.5046 69.3568 57.4578 69.3649 57.4109 69.3631C57.3638 69.3619 57.3174 69.3512 57.2745 69.3316C56.2871 68.9151 55.2832 68.8932 54.6509 69.2772C54.4852 69.3728 54.3454 69.5078 54.244 69.6704C54.1426 69.8329 54.0826 70.0179 54.0693 70.2092C54.0256 70.7423 54.1253 71.1237 54.3842 71.4095C54.7978 71.8689 55.6645 72.1109 56.9614 72.139C57.0542 72.1399 57.1428 72.1777 57.2077 72.2442C57.2727 72.3106 57.3086 72.4002 57.3077 72.4932C57.3068 72.5862 57.269 72.675 57.2028 72.7401C57.1365 72.8053 57.0472 72.8413 56.9544 72.8404L56.9605 72.8386Z" fill="#162B43"/>
<path d="M59.5386 81.9489H59.5018L59.3654 81.934C58.4253 81.8314 57.256 81.7043 56.6281 80.9038C56.2871 80.4654 56.1614 79.8958 56.2512 79.195C56.28 78.9812 56.352 78.7756 56.4628 78.5908C56.5736 78.406 56.721 78.2458 56.8957 78.12C57.6933 77.5238 59.1118 77.4283 60.1638 77.594C60.2555 77.6085 60.3376 77.659 60.3921 77.7343C60.4191 77.7716 60.4384 77.8139 60.4491 77.8588C60.4597 77.9036 60.4614 77.9502 60.4541 77.9957C60.4468 78.0412 60.4306 78.0848 60.4065 78.1241C60.3823 78.1633 60.3507 78.1974 60.3134 78.2244C60.2759 78.2516 60.2335 78.2712 60.1884 78.2819C60.1434 78.2925 60.0967 78.2942 60.051 78.2866C59.1765 78.1446 57.9425 78.2068 57.312 78.6777C57.2111 78.7465 57.1262 78.8362 57.0628 78.9407C56.9988 79.0443 56.9571 79.1602 56.9403 79.2809C56.8739 79.7938 56.95 80.1813 57.173 80.4654C57.6198 81.0344 58.6273 81.144 59.4362 81.2326L59.5753 81.2475C59.645 81.2506 59.7121 81.2746 59.7681 81.3163C59.8241 81.358 59.8663 81.4156 59.8895 81.4815C59.9126 81.5475 59.9155 81.6189 59.8979 81.6866C59.8802 81.7542 59.8428 81.815 59.7904 81.8612C59.721 81.9221 59.6307 81.9536 59.5386 81.9489Z" fill="#162B43"/>
<path d="M58.6144 89.9899C57.8596 89.9899 56.8802 89.8058 56.3135 89.27C56.1783 89.1482 56.0696 88.9996 55.9944 88.8336C55.9191 88.6677 55.8789 88.4879 55.8762 88.3056C55.8762 87.7375 56.0363 87.2815 56.3651 86.9501C56.9545 86.3557 57.8876 86.3592 58.3363 86.3574C58.4056 86.3614 58.4721 86.386 58.5275 86.428C58.5828 86.47 58.6244 86.5276 58.647 86.5934C58.6696 86.6592 58.6722 86.7303 58.6544 86.7975C58.6366 86.8648 58.5992 86.9253 58.547 86.9712C58.4769 87.0326 58.3855 87.064 58.2925 87.0588C57.9034 87.0588 57.2317 87.0711 56.8609 87.4446C56.6668 87.641 56.5732 87.9207 56.5758 88.3003C56.577 88.3877 56.5967 88.4737 56.6336 88.5528C56.6705 88.6319 56.7239 88.7021 56.7901 88.7589C57.2029 89.1491 58.1133 89.3174 58.8015 89.285C58.8475 89.2825 58.8934 89.2891 58.9368 89.3045C58.9802 89.3198 59.0202 89.3436 59.0544 89.3745C59.0886 89.4054 59.1164 89.4427 59.1361 89.4844C59.1559 89.526 59.1673 89.5712 59.1697 89.6173C59.1722 89.6634 59.1655 89.7096 59.1501 89.7531C59.1347 89.7967 59.1109 89.8368 59.08 89.8711C59.0492 89.9054 59.0118 89.9332 58.9702 89.953C58.9285 89.9728 58.8834 89.9841 58.8374 89.9864C58.7639 89.9881 58.6913 89.9899 58.6144 89.9899Z" fill="#162B43"/>
<path d="M57.0314 97.2926C56.5942 97.2926 56.0467 97.1927 55.6663 96.8832C55.5225 96.7678 55.407 96.6208 55.3288 96.4536C55.2505 96.2864 55.2116 96.1034 55.2151 95.9187C55.2151 94.2897 56.8224 94.2476 57.3506 94.2345H57.4119C57.4808 94.233 57.5486 94.2519 57.6068 94.2889C57.665 94.3259 57.711 94.3793 57.739 94.4425C57.7671 94.5056 57.7759 94.5756 57.7643 94.6438C57.7528 94.7119 57.7214 94.7751 57.6742 94.8254C57.6101 94.8929 57.5222 94.9325 57.4293 94.9359H57.3655C56.4446 94.9604 55.9112 95.1288 55.9112 95.9196C55.9076 95.9997 55.9236 96.0794 55.9575 96.152C55.9912 96.2244 56.0415 96.2878 56.1044 96.3369C56.4132 96.5886 57.0192 96.6298 57.3384 96.5632C57.4289 96.5445 57.5232 96.5625 57.6005 96.6132C57.6779 96.664 57.732 96.7434 57.7512 96.8341C57.7704 96.925 57.7528 97.0198 57.7023 97.0977C57.6518 97.1757 57.5725 97.2303 57.4818 97.2497C57.3334 97.2787 57.1826 97.2931 57.0314 97.2926Z" fill="#162B43"/>
<path d="M53.5553 120C52.4997 120 51.4564 119.961 50.3921 119.885C48.4323 119.745 46.3072 119.207 44.2486 118.33C42.2372 117.473 40.9123 116.473 40.5152 114.139C40.2336 112.489 40.7444 111.158 41.8812 110.582C42.81 110.11 44.0063 110.071 45.1625 110.477C45.6504 110.653 46.2014 110.868 46.7856 111.099C47.8429 111.518 48.936 111.952 49.8009 112.164C52.9492 112.939 56.6283 112.673 58.5383 112.446C61.2008 112.123 63.7884 111.345 66.1887 110.146C67.9919 109.24 69.8197 109.662 70.5455 110.594C71.1577 111.383 71.4253 112.576 71.2399 113.711C71.1026 114.551 70.6592 115.736 69.3299 116.616C66.8297 118.268 64.7824 118.941 60.5681 119.493C57.9611 119.835 55.7293 120 53.5553 120ZM43.5761 110.903C43.0989 110.895 42.6265 110.999 42.1969 111.208C40.9726 111.828 41.0959 113.381 41.2044 114.02C41.5542 116.06 42.6386 116.881 44.5223 117.684C46.511 118.531 48.5582 119.05 50.442 119.186C53.6523 119.415 56.6511 119.299 60.478 118.798C64.6198 118.254 66.5183 117.634 68.9443 116.03C69.3682 115.761 69.7304 115.405 70.007 114.986C70.2836 114.567 70.4684 114.093 70.549 113.597C70.7021 112.663 70.4843 111.654 69.9946 111.025C69.5407 110.444 68.1178 109.961 66.5026 110.773C64.03 112.008 61.3642 112.809 58.6214 113.14C56.6642 113.373 52.8941 113.644 49.6348 112.844C48.7226 112.62 47.6076 112.177 46.5285 111.75C45.9513 111.521 45.4056 111.304 44.9307 111.136C44.4954 110.982 44.0375 110.903 43.5761 110.903Z" fill="#162B43"/>
<path d="M49.1904 109.469C49.0979 109.469 49.0092 109.432 48.9438 109.367C48.9111 109.334 48.8852 109.295 48.8675 109.253C48.8498 109.21 48.8407 109.165 48.8406 109.118V103.208C48.8406 103.115 48.8774 103.026 48.943 102.96C49.0086 102.894 49.0976 102.857 49.1904 102.857C49.2832 102.857 49.3721 102.894 49.4377 102.96C49.5033 103.026 49.5402 103.115 49.5402 103.208V109.118C49.5402 109.211 49.5033 109.301 49.4377 109.366C49.3721 109.432 49.2832 109.469 49.1904 109.469Z" fill="#162B43"/>
<path d="M53.2054 110.846C53.1156 110.846 53.0292 110.811 52.9641 110.749C52.8989 110.687 52.8601 110.603 52.8556 110.513C52.8145 109.708 52.8023 107.831 52.7909 106.016C52.7795 104.201 52.7673 102.34 52.7271 101.55C52.7233 101.481 52.7403 101.412 52.7758 101.352C52.8113 101.292 52.8637 101.244 52.9265 101.214C52.9683 101.195 53.0134 101.184 53.0594 101.181C53.1055 101.179 53.1516 101.186 53.1949 101.201C53.2382 101.217 53.278 101.241 53.3121 101.271C53.3463 101.302 53.3739 101.339 53.3935 101.381C53.4136 101.423 53.4249 101.468 53.4267 101.514C53.4678 102.319 53.48 104.196 53.4914 106.011C53.5028 107.826 53.515 109.688 53.5552 110.477C53.5605 110.569 53.5291 110.66 53.4678 110.729C53.4058 110.798 53.319 110.84 53.2264 110.845L53.2054 110.846Z" fill="#162B43"/>
<path d="M63.0104 109.375C62.9178 109.375 62.8291 109.338 62.7638 109.272C62.6981 109.207 62.661 109.118 62.6606 109.025C62.6606 106.778 62.4656 101.1 62.2732 98.585C62.2702 98.5387 62.2763 98.4922 62.2913 98.4482C62.3063 98.4043 62.3299 98.3638 62.3607 98.329C62.4059 98.2771 62.4655 98.2396 62.5318 98.2214C62.5982 98.2032 62.6684 98.205 62.7338 98.2267C62.7991 98.2483 62.8567 98.2887 62.8992 98.343C62.9417 98.3972 62.9673 98.4628 62.9728 98.5316C63.1661 101.059 63.3629 106.767 63.3629 109.025C63.363 109.071 63.3541 109.116 63.3366 109.159C63.3186 109.202 63.2924 109.241 63.2597 109.274C63.2268 109.306 63.1879 109.332 63.1451 109.349C63.1024 109.367 63.0566 109.376 63.0104 109.375Z" fill="#162B43"/>
<path d="M58.5261 107.173C58.4336 107.173 58.3449 107.136 58.2795 107.071C58.2468 107.038 58.2209 107 58.2032 106.957C58.1855 106.914 58.1763 106.869 58.1763 106.823L58.1911 104.757C58.1911 104.664 58.228 104.575 58.2936 104.509C58.3592 104.443 58.4482 104.406 58.5409 104.406C58.6337 104.406 58.7227 104.443 58.7883 104.509C58.8539 104.575 58.8908 104.664 58.8908 104.757L58.8759 106.824C58.8759 106.917 58.839 107.006 58.7734 107.071C58.7078 107.137 58.6189 107.174 58.5261 107.174V107.173Z" fill="#162B43"/>
<path d="M85.3153 102.592C87.9188 104.3 90.7837 104.206 93.8857 104.413C95.3234 104.508 97.1162 105.271 98.4113 104.639C100.992 103.38 101.881 100.182 102.324 97.3396C103.435 90.2141 103.275 80.1146 100.554 70.9813C99.6322 67.888 97.4179 66.7535 95.6898 66.5246C92.8494 66.1485 90.2512 66.4966 87.7999 66.7877C86.3499 66.963 84.8597 67.1971 83.6196 67.9713C82.3157 68.7858 81.3459 70.3386 81.7447 71.858C81.7809 72.0034 81.8573 72.1356 81.965 72.2394C82.3026 72.5516 82.6594 72.3324 83.0083 72.2394C84.4557 71.8563 85.4964 73.6072 85.9065 75.0512C87.7168 81.4262 88.1742 86.5159 87.0434 93.0461C86.4855 96.2621 85.2069 96.86 83.9213 96.5233C83.8243 96.5002 83.7287 96.471 83.6354 96.4357C83.1255 96.2095 81.1998 96.0052 80.6419 95.7605C80.3507 96.3804 81.0791 97.2888 81.3196 97.8709C81.6952 98.7654 82.1999 99.5997 82.8177 100.347C83.5324 101.218 84.3745 101.975 85.3153 102.592Z" fill="#DBF122"/>
<path d="M92.3342 94.459L89.5357 99.0392C89.4482 99.176 89.3608 99.3251 89.3748 99.4864C89.3879 99.6968 89.5619 99.8573 89.7246 99.9923C90.556 100.677 91.4271 101.311 92.3333 101.892C92.4741 101.98 92.6315 102.075 92.7977 102.056C92.9638 102.037 93.0915 101.916 93.2087 101.799C94.1584 100.859 95.0746 99.8885 95.9573 98.8867C96.1497 98.6684 96.3526 98.4167 96.3351 98.1256C96.3246 97.9328 96.2171 97.76 96.1086 97.5996C95.158 96.2055 94.3596 95.3954 92.8545 94.6422L92.3342 94.459Z" fill="#162B43"/>
<path d="M92.7505 102.406C92.4881 102.406 92.2747 102.27 92.1383 102.184C91.2202 101.594 90.3377 100.95 89.4955 100.256C89.3372 100.125 89.0416 99.8812 89.018 99.5007C88.9997 99.2227 89.1378 98.9974 89.2297 98.8484L92.0281 94.2681C92.07 94.1995 92.1342 94.1475 92.2098 94.1207C92.2854 94.0938 92.3679 94.0939 92.4435 94.1208L92.9612 94.3058L93.0006 94.3225C94.6473 95.1458 95.4606 96.0374 96.3868 97.3912C96.5171 97.5823 96.6579 97.8103 96.6745 98.0926C96.6981 98.5134 96.4471 98.8361 96.2092 99.1061C95.3242 100.11 94.3946 101.096 93.444 102.036C93.3224 102.156 93.1187 102.358 92.8266 102.387C92.8016 102.395 92.7762 102.401 92.7505 102.406ZM92.4838 94.8819L89.8304 99.2192C89.7777 99.2913 89.7402 99.3733 89.7203 99.4603C89.7255 99.5375 89.8847 99.6681 89.9441 99.7181C90.7646 100.394 91.6243 101.02 92.5187 101.594C92.5738 101.629 92.7024 101.712 92.7557 101.704C92.8091 101.696 92.9149 101.592 92.9604 101.547C93.8996 100.617 94.8187 99.6427 95.6924 98.6537C95.8384 98.4889 95.9923 98.303 95.9836 98.1452C95.9775 98.0417 95.8962 97.9172 95.8166 97.7945C94.9613 96.5398 94.2118 95.7157 92.7146 94.9634L92.4838 94.8819Z" fill="#162B43"/>
<path d="M94.0194 101.51C93.9371 101.51 93.8575 101.481 93.7946 101.428L89.8593 98.1137C89.8233 98.0842 89.7936 98.0478 89.7718 98.0067C89.749 97.9655 89.7344 97.9202 89.729 97.8734C89.7237 97.8263 89.7281 97.7785 89.7421 97.7331C89.7559 97.688 89.7785 97.646 89.8085 97.6095C89.8393 97.5735 89.8767 97.5437 89.9187 97.5218C89.9611 97.5009 90.0071 97.4884 90.0543 97.485C90.1014 97.4822 90.1487 97.4887 90.1933 97.5043C90.2379 97.5199 90.2787 97.5447 90.3131 97.5771L94.2485 100.89C94.3037 100.937 94.3433 100.999 94.362 101.068C94.3807 101.138 94.3776 101.212 94.353 101.279C94.3285 101.347 94.2837 101.406 94.2248 101.447C94.1658 101.488 94.0957 101.51 94.0238 101.51H94.0194Z" fill="white"/>
<path d="M86.0568 37.881C85.9869 37.8809 85.9187 37.8598 85.8609 37.8205C85.8029 37.7812 85.7579 37.7254 85.7319 37.6602C85.7058 37.595 85.6999 37.5235 85.7149 37.4549C85.7305 37.3878 85.7655 37.3268 85.8154 37.2795C87.0179 36.1292 88.2641 34.9394 89.1281 33.5094C89.6782 32.5993 90.5274 30.7862 90.0446 28.8687C90.0331 28.824 90.0308 28.7775 90.0376 28.7319C90.044 28.6862 90.0591 28.6421 90.0822 28.6021C90.1056 28.5624 90.1366 28.5278 90.1734 28.5001C90.2101 28.4724 90.252 28.4523 90.2965 28.4408C90.341 28.4294 90.3874 28.4268 90.4329 28.4329C90.4787 28.439 90.5228 28.4546 90.5624 28.4785C90.6018 28.5008 90.6366 28.5306 90.6647 28.5662C90.692 28.6032 90.7119 28.6452 90.7233 28.6898C91.1273 30.2943 90.774 32.1329 89.7263 33.8628C88.8116 35.3761 87.5339 36.5991 86.2982 37.781C86.2336 37.8443 86.1471 37.8802 86.0568 37.881Z" fill="#162B43"/>
<path d="M91.7719 34.8741C91.7073 34.8739 91.6441 34.8558 91.5891 34.8217C91.5341 34.7877 91.4897 34.7391 91.4606 34.6812C91.4316 34.6236 91.419 34.559 91.4243 34.4946C91.4295 34.4303 91.4524 34.3686 91.4903 34.3165C92.2569 33.2678 92.7826 32.0621 93.0295 30.7857C93.05 30.6974 93.1039 30.6206 93.1797 30.5712C93.2555 30.5218 93.3475 30.5038 93.4363 30.521C93.525 30.5381 93.6038 30.589 93.6559 30.663C93.7081 30.7371 93.7296 30.8285 93.716 30.9181C93.4496 32.2965 92.8821 33.5987 92.0544 34.7312C92.0215 34.7753 91.9791 34.8113 91.9302 34.8364C91.8811 34.8611 91.8269 34.874 91.7719 34.8741Z" fill="#162B43"/>
<path d="M25.8442 42.8668C25.8256 42.8685 25.8068 42.8685 25.7882 42.8668C24.3015 42.6248 22.9023 41.8146 21.8529 40.595C20.8034 39.3755 20.2061 37.8683 20.1834 36.3602C20.1827 36.3141 20.191 36.2683 20.208 36.2254C20.2249 36.1826 20.2502 36.1434 20.2822 36.1104C20.3304 36.0606 20.3923 36.0262 20.46 36.0117C20.5276 35.9972 20.5981 36.0031 20.6624 36.0287C20.7267 36.0543 20.782 36.0985 20.8213 36.1556C20.8606 36.2128 20.882 36.2803 20.883 36.3497C20.9259 39.1168 23.1769 41.734 25.9019 42.1723C25.9889 42.186 26.0676 42.232 26.1223 42.3012C26.1631 42.3531 26.1886 42.4154 26.1956 42.481C26.2027 42.5467 26.1911 42.613 26.1622 42.6724C26.1334 42.7318 26.0884 42.7817 26.0324 42.8166C25.9765 42.8514 25.9118 42.8697 25.8459 42.8694L25.8442 42.8668Z" fill="#162B43"/>
<path d="M19.4487 41.7081C19.39 41.7081 19.3323 41.6933 19.2808 41.6651C18.6205 41.2927 18.0651 40.7587 17.6663 40.113C17.2675 39.4672 17.0383 38.7307 17 37.9722C16.9973 37.9028 17.0151 37.8341 17.0513 37.7749C17.0875 37.7156 17.1405 37.6685 17.2034 37.6395C17.2664 37.6105 17.3365 37.6008 17.4049 37.6118C17.4733 37.6228 17.537 37.654 17.5877 37.7012C17.6554 37.764 17.6956 37.8509 17.6997 37.9432C17.7322 38.5819 17.9258 39.2018 18.2622 39.7451C18.5987 40.2883 19.0671 40.7372 19.6236 41.0496C19.6925 41.0864 19.7471 41.1452 19.7788 41.2167C19.8105 41.2882 19.8174 41.3683 19.7985 41.4442C19.7791 41.5196 19.7352 41.5863 19.6738 41.6339C19.6124 41.6816 19.5369 41.7073 19.4592 41.7072L19.4487 41.7081Z" fill="#162B43"/>
<path d="M55.3918 37.8473C55.2561 37.8463 55.1207 37.8343 54.9869 37.8114C54.7062 37.764 54.4622 37.5983 54.2497 37.3195C54.0581 37.0626 54.1097 36.5699 54.2943 35.3319C54.3553 34.9864 54.3967 34.6378 54.4184 34.2876V33.9729C54.4184 33.2399 54.4184 31.5179 54.1744 30.5368C54.1539 30.447 54.1694 30.3526 54.2177 30.2742C54.266 30.1958 54.3431 30.1396 54.4324 30.1177C54.5217 30.0966 54.6156 30.1107 54.6948 30.1572C54.7737 30.2045 54.8309 30.281 54.854 30.3702C55.1163 31.4364 55.1163 33.1487 55.1163 33.972V34.2754C55.1207 34.5191 55.0577 34.9435 54.9843 35.4362C54.9125 35.9158 54.7945 36.7093 54.8321 36.9267C54.8975 37.0192 54.9926 37.0863 55.1014 37.117C55.4801 37.181 55.753 37.1292 55.9357 36.9609C56.2068 36.7101 56.3214 36.1525 56.2576 35.3915L55.8387 30.4307C55.8348 30.3846 55.84 30.3381 55.8541 30.294C55.8683 30.2499 55.8909 30.2091 55.9209 30.1738C55.9505 30.1386 55.9867 30.1095 56.0275 30.0883C56.0684 30.0671 56.1129 30.0541 56.1587 30.0502C56.2047 30.0461 56.251 30.0512 56.295 30.0651C56.339 30.0791 56.3799 30.1016 56.4151 30.1314C56.4504 30.1613 56.4795 30.1978 56.5006 30.2389C56.5217 30.2801 56.5345 30.325 56.5383 30.3711L56.9563 35.3336C57.0438 36.3437 56.8584 37.0652 56.4115 37.4773C56.1321 37.7282 55.7666 37.8608 55.3918 37.8473Z" fill="#162B43"/>
<path d="M54.6396 26.4729C54.0586 26.4722 53.4786 26.4271 52.9045 26.3379C49.4781 25.8004 46.559 23.6725 44.6954 20.3355C43.3521 17.9375 43.0679 15.2108 43.8716 12.449C44.5992 9.95016 46.1698 7.62672 48.294 5.91176C50.2556 4.32656 52.5713 3.38754 54.8145 3.2683C57.3454 3.13327 59.7608 4.01969 61.7976 5.8311C64.4526 8.21416 65.8711 11.2267 65.9017 14.5453C65.9332 17.9551 64.4413 21.3981 61.9113 23.7514C60.0406 25.4944 57.3646 26.4729 54.6396 26.4729ZM45.3014 19.9901C47.5577 24.0171 50.7383 25.2875 53.0086 25.6435C56.093 26.1274 59.3209 25.2051 61.432 23.2394C63.8203 21.0141 65.2283 17.7657 65.1986 14.5497C65.1697 11.4345 63.8317 8.59994 61.3288 6.35365C56.951 2.45992 51.9495 3.85749 48.7295 6.45623C44.9638 9.4995 42.5773 15.1257 45.3014 19.9901Z" fill="white"/>
<path d="M65.4602 24.3982C65.4048 24.3982 65.3503 24.385 65.301 24.3596C65.2514 24.3345 65.2086 24.2978 65.1759 24.2527C65.0308 24.0501 64.4405 23.5074 64.1029 23.2128C64.0573 23.1656 64.0259 23.1065 64.0121 23.0423C63.9984 22.978 64.003 22.9112 64.0253 22.8494C64.0477 22.7876 64.0869 22.7333 64.1385 22.6928C64.1901 22.6523 64.252 22.6271 64.3172 22.6201C64.4042 22.6108 64.4916 22.6346 64.562 22.6868C64.6573 22.7701 65.5039 23.5127 65.7435 23.8467C65.7809 23.8991 65.8032 23.9607 65.808 24.0249C65.8128 24.089 65.7998 24.1533 65.7706 24.2106C65.7414 24.268 65.6969 24.3162 65.6422 24.3499C65.5874 24.3836 65.5244 24.4015 65.4602 24.4017V24.3982Z" fill="white"/>
<path d="M68.0723 20.7516C68.0345 20.7516 67.997 20.7454 67.9613 20.7332L64.7815 19.667C64.7157 19.6451 64.658 19.604 64.6155 19.5491C64.5731 19.4942 64.5478 19.4278 64.5431 19.3585C64.5383 19.2892 64.5542 19.22 64.5887 19.1597C64.6232 19.0994 64.6748 19.0508 64.7369 19.02C64.8199 18.9787 64.9158 18.9721 65.0036 19.0016L68.1834 20.0677C68.2425 20.0872 68.2953 20.1221 68.3365 20.1688C68.3776 20.2155 68.4056 20.2724 68.4175 20.3336C68.4295 20.3948 68.4249 20.458 68.4044 20.5169C68.3838 20.5757 68.348 20.628 68.3006 20.6683C68.2369 20.7225 68.1559 20.7521 68.0723 20.7516Z" fill="white"/>
<path d="M68.4099 17.1339C68.3804 17.1329 68.3511 17.1287 68.3224 17.1217C67.7033 16.9577 66.7719 16.8306 66.7631 16.8288C66.7161 16.8246 66.6703 16.8108 66.6287 16.7884C66.587 16.7659 66.5504 16.7352 66.5209 16.6982C66.4917 16.6611 66.4703 16.6184 66.4579 16.5728C66.4447 16.5273 66.4415 16.4794 66.4483 16.4325C66.4547 16.3856 66.4704 16.3405 66.4946 16.2999C66.5188 16.2592 66.5509 16.2239 66.5891 16.1961C66.6272 16.1682 66.6706 16.1484 66.7166 16.1378C66.7626 16.1272 66.8103 16.1261 66.8567 16.1344C67.41 16.209 67.9591 16.3123 68.5017 16.4439C68.5839 16.4655 68.6555 16.5163 68.7031 16.5868C68.7506 16.6574 68.771 16.7429 68.7603 16.8274C68.7496 16.9119 68.7085 16.9896 68.6449 17.046C68.5812 17.1025 68.4992 17.1337 68.4142 17.1339H68.4099Z" fill="white"/>
<path d="M66.8096 12.1916C66.7249 12.1913 66.6431 12.1601 66.5796 12.1039C66.5319 12.0625 66.4963 12.0089 66.4766 11.9488C66.4568 11.8888 66.4536 11.8245 66.4674 11.7627C66.4811 11.701 66.5112 11.6442 66.5545 11.5982C66.5978 11.5522 66.6527 11.5188 66.7134 11.5016L68.5499 10.9755C68.5941 10.9628 68.6404 10.9589 68.6861 10.9642C68.7318 10.9694 68.776 10.9837 68.8162 11.006C68.8564 11.0284 68.8918 11.0586 68.9204 11.0947C68.949 11.1308 68.9702 11.1723 68.9828 11.2166C68.9952 11.2603 68.9989 11.3061 68.9936 11.3512C68.9884 11.3963 68.9743 11.44 68.9522 11.4796C68.9299 11.52 68.8999 11.5556 68.8639 11.5844C68.8279 11.6131 68.7865 11.6344 68.7423 11.6471L66.9102 12.1732C66.8778 12.1846 66.8439 12.1908 66.8096 12.1916Z" fill="white"/>
<path d="M64.8959 8.22373C64.8401 8.22364 64.7851 8.21017 64.7356 8.18444C64.686 8.1587 64.6433 8.12145 64.611 8.07579C64.5788 8.03014 64.5579 7.9774 64.5501 7.92199C64.5423 7.86658 64.5478 7.81011 64.5662 7.75728C64.5904 7.68616 64.6367 7.62469 64.6983 7.58193C65.5439 7.00063 66.0975 6.70516 66.3529 6.70516C66.4218 6.70366 66.4896 6.72261 66.5478 6.75961C66.606 6.79662 66.652 6.85004 66.68 6.91317C66.7081 6.9763 66.7169 7.04633 66.7053 7.11445C66.6938 7.18258 66.6625 7.24578 66.6152 7.2961C66.5511 7.36357 66.4632 7.40322 66.3704 7.40658C66.2007 7.44778 65.5763 7.82655 65.0901 8.1606C65.0331 8.20052 64.9655 8.2225 64.8959 8.22373Z" fill="white"/>
<path d="M60.9116 6.47362C60.8403 6.47397 60.7706 6.4529 60.7113 6.41313C60.6524 6.37271 60.6073 6.31519 60.5819 6.24829C60.556 6.18152 60.5511 6.10839 60.5679 6.03874C60.5857 5.97071 60.6235 5.90962 60.6763 5.86339C60.7551 5.7915 61.0017 5.50479 61.2623 5.20143C61.8438 4.52106 62.5679 3.68199 63 3.34881C63.0735 3.29385 63.1656 3.27006 63.2565 3.28255C63.3474 3.29504 63.4298 3.34282 63.4858 3.4156C63.5419 3.48838 63.5672 3.58034 63.5563 3.67165C63.5455 3.76297 63.4992 3.84634 63.4276 3.90381C63.0559 4.19139 62.2977 5.07254 61.7966 5.65735C61.4555 6.05453 61.257 6.28424 61.1521 6.37981C61.0868 6.44067 61.0008 6.47422 60.9116 6.47362Z" fill="white"/>
<path d="M56.3607 20.4232C56.2695 20.423 56.1819 20.3871 56.1167 20.3232C56.0511 20.2592 56.0131 20.1721 56.0109 20.0803C55.9339 16.5584 55.7573 12.9917 55.4862 9.47931C55.4822 9.4211 55.4632 9.36492 55.4311 9.31623C55.3993 9.26751 55.3557 9.22769 55.3043 9.2005C55.2527 9.17366 55.1951 9.16039 55.137 9.16192C55.0789 9.16346 55.0221 9.17975 54.972 9.20927C52.9586 10.3721 51.3061 12.0717 50.1979 14.1192C50.1794 14.1647 50.1515 14.2057 50.1161 14.2397C50.0807 14.2737 50.0386 14.2998 49.9924 14.3165C49.9461 14.3325 49.897 14.339 49.8481 14.3357C49.7987 14.3303 49.7508 14.3151 49.7073 14.291C49.6645 14.2673 49.627 14.2351 49.5971 14.1963C49.5672 14.1575 49.5457 14.1127 49.5341 14.065C49.5225 14.0172 49.521 13.9676 49.5298 13.9193C49.5385 13.8709 49.5573 13.8249 49.5849 13.7843C50.7553 11.6208 52.5007 9.8248 54.6274 8.59553C54.7799 8.50701 54.9523 8.45875 55.1285 8.45528C55.3046 8.45181 55.4788 8.49325 55.6346 8.5757C55.7905 8.65815 55.9229 8.77893 56.0194 8.9267C56.116 9.07447 56.1735 9.24441 56.1867 9.42057C56.4595 12.9461 56.6362 16.5224 56.7114 20.0602C56.7128 20.106 56.7048 20.1517 56.6878 20.1943C56.6629 20.2591 56.6193 20.3151 56.5626 20.355C56.506 20.395 56.4387 20.4172 56.3695 20.4188L56.3607 20.4232Z" fill="#162B43"/>
<path d="M51.3539 21.3853C51.308 21.3883 51.262 21.3823 51.2183 21.3678C51.1636 21.3496 51.1142 21.3181 51.0745 21.2761C51.0349 21.2341 51.0062 21.1829 50.991 21.1271C50.9759 21.0713 50.9747 21.0126 50.9877 20.9562C51.0007 20.8999 51.0273 20.8476 51.0653 20.804C51.0954 20.7692 51.1321 20.7407 51.1732 20.7201C51.2143 20.6995 51.2591 20.6872 51.3049 20.6839C53.8932 20.3202 56.5006 20.1088 59.1135 20.0509C59.1828 20.0491 59.251 20.0679 59.3096 20.105C59.3682 20.1421 59.4145 20.1957 59.4426 20.2592C59.4707 20.3227 59.4793 20.3931 59.4675 20.4616C59.4556 20.53 59.4237 20.5934 59.3759 20.6436C59.3114 20.7108 59.2231 20.7498 59.1302 20.7523C56.5437 20.8111 53.963 21.0216 51.4011 21.3827C51.3854 21.3845 51.3697 21.3854 51.3539 21.3853Z" fill="#162B43"/>
<path d="M53.6828 74.7881H53.6776L46.8886 74.7004C46.7959 74.7004 46.7069 74.6635 46.6413 74.5977C46.5757 74.5319 46.5388 74.4427 46.5388 74.3497C46.5388 74.2567 46.5757 74.1675 46.6413 74.1017C46.7069 74.036 46.7959 73.999 46.8886 73.999H46.8939L53.6916 74.0867C53.7375 74.0869 53.783 74.0961 53.8254 74.1139C53.8681 74.1315 53.9069 74.1577 53.939 74.191C53.9712 74.2237 53.9965 74.2624 54.0134 74.305C54.0308 74.3476 54.0397 74.3932 54.0396 74.4392C54.0396 74.4853 54.0301 74.531 54.0116 74.5733C53.9848 74.6373 53.9397 74.6918 53.8819 74.7301C53.8242 74.7683 53.7564 74.7885 53.6872 74.7881H53.6828Z" fill="#162B43"/>
<path d="M55.0812 84.6454H55.0672L48.2293 84.3823C48.1365 84.3788 48.0489 84.3385 47.9858 84.2703C47.9226 84.2021 47.8891 84.1115 47.8926 84.0185C47.8961 83.9255 47.9363 83.8376 48.0043 83.7743C48.0724 83.711 48.1627 83.6774 48.2555 83.6809L55.0943 83.9439C55.1871 83.9457 55.2754 83.9843 55.3397 84.0513C55.4041 84.1183 55.4393 84.2082 55.4375 84.3012C55.4358 84.3942 55.3973 84.4828 55.3304 84.5473C55.2636 84.6118 55.1739 84.6471 55.0812 84.6454Z" fill="#162B43"/>
<path d="M49.4938 93.025C49.2043 93.025 48.9131 93.0249 48.6254 93.0197C48.182 93.0197 47.7622 93.0127 47.3669 93.0197C47.3211 93.0201 47.2756 93.0115 47.2331 92.9943C47.1471 92.9597 47.078 92.8926 47.0407 92.8075C47.0231 92.765 47.0136 92.7194 47.0127 92.6734C47.0121 92.6275 47.0204 92.5819 47.0372 92.5392C47.0544 92.4965 47.0797 92.4575 47.1116 92.4244C47.1437 92.3912 47.182 92.3646 47.2244 92.3463C47.2663 92.3279 47.3115 92.3183 47.3573 92.3183C47.7605 92.313 48.1837 92.3183 48.6315 92.3183C49.478 92.3262 50.3525 92.3341 51.1108 92.2744L52.5668 92.1605C52.6362 92.1545 52.7058 92.1694 52.7667 92.2034C52.8276 92.2373 52.877 92.2887 52.9085 92.351C52.9401 92.4132 52.9524 92.4835 52.9439 92.5528C52.9354 92.6221 52.9064 92.6873 52.8607 92.74C52.7997 92.8104 52.7137 92.8541 52.6211 92.8619L51.1658 92.9758C50.6385 93.0118 50.0683 93.025 49.4938 93.025Z" fill="#162B43"/>
<path d="M96.9009 70.7098C96.8082 70.7098 96.7192 70.6729 96.6536 70.6071C96.588 70.5414 96.5511 70.4521 96.5511 70.3591C96.5511 69.3158 95.4046 66.7644 94.3211 66.1954C94.2785 66.174 94.2407 66.1442 94.21 66.1077C94.1785 66.0724 94.1546 66.0309 94.1401 65.9858C94.1253 65.9412 94.1197 65.8941 94.1234 65.8473C94.1277 65.8001 94.1411 65.7543 94.1628 65.7123C94.1846 65.6701 94.2146 65.6329 94.2511 65.6027C94.2877 65.5726 94.3299 65.5502 94.3753 65.5369C94.4207 65.5238 94.4684 65.5202 94.5152 65.5264C94.5619 65.5319 94.6068 65.5472 94.6473 65.5711C95.9897 66.2813 97.2508 69.0782 97.2508 70.3548C97.2508 70.4478 97.2139 70.537 97.1483 70.6027C97.0827 70.6685 96.9937 70.7055 96.9009 70.7055V70.7098Z" fill="#007EEF"/>
<path d="M97.9968 76.6294C97.973 76.6289 97.9493 76.6263 97.926 76.6215C97.8811 76.6116 97.8384 76.5935 97.8001 76.568C97.7428 76.529 97.6984 76.4739 97.6724 76.4096C97.6464 76.3453 97.64 76.2747 97.654 76.2068C97.9295 74.8732 97.327 73.3415 97.0034 72.5182C96.9867 72.4751 96.9781 72.4294 96.978 72.3832C96.9786 72.3252 96.9936 72.2682 97.0215 72.2175C97.0495 72.1667 97.0895 72.1236 97.1382 72.0922C97.1868 72.0607 97.2424 72.0418 97.3001 72.0372C97.3578 72.0326 97.4157 72.0425 97.4686 72.0658C97.5108 72.0841 97.5488 72.1106 97.5806 72.1438C97.6128 72.1772 97.6378 72.2169 97.654 72.2604C98.0038 73.1521 98.6571 74.8101 98.3397 76.3497C98.3238 76.4288 98.2808 76.4999 98.2181 76.5505C98.1556 76.6016 98.0775 76.6294 97.9968 76.6294Z" fill="#007EEF"/>
<path d="M98.7803 81.4597C98.7343 81.4597 98.6888 81.4505 98.6463 81.4327C98.6038 81.415 98.5653 81.389 98.5328 81.3563C98.4675 81.2907 98.4307 81.2018 98.4305 81.109C98.4305 80.2858 98.3124 78.8093 97.9985 78.3498C97.9487 78.2719 97.9311 78.1775 97.9495 78.0868C97.9673 77.9972 98.0194 77.9181 98.0945 77.8663C98.1696 77.8146 98.262 77.7943 98.3518 77.8098C98.4414 77.8254 98.5214 77.8754 98.5748 77.9492C99.1144 78.7382 99.1301 80.8653 99.1301 81.1055C99.1301 81.1985 99.0933 81.2877 99.0277 81.3535C98.9621 81.4193 98.8731 81.4562 98.7803 81.4562V81.4597Z" fill="#007EEF"/>
<path d="M99.0793 86.2958C98.9865 86.2958 98.8976 86.2588 98.8319 86.1931C98.7663 86.1273 98.7295 86.0381 98.7295 85.9451V82.8273C98.7295 82.7343 98.7663 82.6451 98.8319 82.5793C98.8976 82.5135 98.9865 82.4766 99.0793 82.4766C99.1721 82.4766 99.2611 82.5135 99.3267 82.5793C99.3923 82.6451 99.4291 82.7343 99.4291 82.8273V85.9451C99.4291 86.0381 99.3923 86.1273 99.3267 86.1931C99.2611 86.2588 99.1721 86.2958 99.0793 86.2958Z" fill="#007EEF"/>
<path d="M99.5682 90.9698C99.4808 90.9701 99.3964 90.9377 99.3316 90.8788C99.2669 90.8198 99.2265 90.7388 99.2184 90.6515L99.0155 88.4736C99.0074 88.3805 99.0359 88.288 99.0951 88.2158C99.1246 88.1802 99.1607 88.1508 99.2016 88.1293C99.2424 88.1078 99.287 88.0946 99.333 88.0904C99.379 88.0861 99.4254 88.0909 99.4695 88.1046C99.5136 88.1182 99.5546 88.1406 99.5901 88.1702C99.6256 88.1998 99.6549 88.236 99.6764 88.2769C99.6978 88.3179 99.711 88.3627 99.7151 88.4087L99.9172 90.5857C99.9217 90.6315 99.9169 90.6777 99.9032 90.7216C99.8901 90.7657 99.8681 90.8066 99.8384 90.8417C99.8092 90.8774 99.7732 90.9069 99.7325 90.9286C99.6918 90.9502 99.6473 90.9636 99.6015 90.968L99.5682 90.9698Z" fill="#007EEF"/>
<path d="M99.7011 95.8033C99.6085 95.803 99.5198 95.7658 99.4545 95.6999C99.3888 95.6344 99.3517 95.5455 99.3513 95.4526V92.9591C99.3513 92.8661 99.3882 92.7769 99.4538 92.7111C99.5194 92.6454 99.6084 92.6084 99.7011 92.6084C99.7939 92.6084 99.8829 92.6454 99.9485 92.7111C100.014 92.7769 100.051 92.8661 100.051 92.9591V95.4526C100.051 95.5456 100.014 95.6349 99.9485 95.7006C99.8829 95.7664 99.7939 95.8033 99.7011 95.8033Z" fill="#007EEF"/>
<path d="M99.2219 101.098C99.172 101.098 99.1228 101.087 99.0776 101.066C99.0358 101.047 98.9981 101.02 98.9665 100.986C98.9352 100.952 98.9106 100.913 98.8939 100.87C98.8779 100.827 98.8704 100.781 98.872 100.735C98.8738 100.689 98.8842 100.643 98.9027 100.601C99.2332 99.8709 99.3895 99.0733 99.3592 98.2718C99.3574 98.2257 99.3647 98.1798 99.3806 98.1365C99.3965 98.0933 99.4208 98.0536 99.452 98.0198C99.4832 97.986 99.5208 97.9587 99.5626 97.9394C99.6043 97.9201 99.6495 97.9093 99.6954 97.9075C99.7413 97.9057 99.7872 97.913 99.8303 97.929C99.8734 97.945 99.913 97.9693 99.9467 98.0006C99.9805 98.0319 100.008 98.0696 100.027 98.1114C100.046 98.1533 100.057 98.1985 100.059 98.2446C100.094 99.1554 99.9161 100.062 99.5402 100.892C99.5126 100.953 99.4679 101.005 99.4116 101.042C99.3549 101.078 99.2891 101.097 99.2219 101.098Z" fill="#007EEF"/>
<path d="M97.0243 105.907C96.9579 105.906 96.893 105.886 96.8372 105.85C96.7813 105.813 96.737 105.762 96.7095 105.701C96.682 105.64 96.6724 105.573 96.6817 105.507C96.6909 105.441 96.7188 105.379 96.762 105.328C97.3125 104.683 97.7445 103.944 98.0379 103.148C98.0727 103.063 98.1385 102.996 98.2215 102.959C98.2835 102.932 98.3519 102.923 98.4186 102.934C98.4852 102.945 98.5473 102.976 98.5972 103.021C98.6472 103.067 98.6829 103.126 98.7 103.191C98.7171 103.257 98.715 103.326 98.6938 103.39C98.3722 104.265 97.8985 105.075 97.2946 105.783C97.2613 105.822 97.2199 105.854 97.1732 105.875C97.1265 105.896 97.0757 105.907 97.0243 105.907Z" fill="#007EEF"/>
</svg>
