<svg width="120" height="120" viewBox="0 0 120 120" fill="none" xmlns="http://www.w3.org/2000/svg">
<g clip-path="url(#clip0_222_4223)">
<path d="M82.4133 31.0522C87.7012 30.3726 93.2087 30.57 98.4527 31.3808C100.998 31.7757 103.675 32.3238 105.892 33.6611C108.612 35.2832 109.71 38.133 110.017 41.1584C110.324 44.1837 110.17 47.3625 110.148 50.4537V60.5379C110.104 67.5523 110.075 74.5667 110.059 81.5811L109.993 104.797C109.996 104.894 110.037 104.985 110.107 105.053C110.176 105.12 110.269 105.157 110.366 105.157C110.463 105.157 110.556 105.12 110.625 105.053C110.695 104.985 110.736 104.894 110.739 104.797C110.783 90.1968 110.834 75.5892 110.893 60.9744V50.0149C110.915 46.9676 111.09 43.855 110.739 40.8297C110.432 38.3305 109.642 35.8313 107.733 34.0995C105.824 32.3676 103.016 31.5125 100.448 30.9864C94.5126 29.7855 88.4212 29.556 82.412 30.3067C81.9526 30.3712 81.9526 31.118 82.4133 31.0522Z" fill="#DBF122"/>
<path d="M110.784 94.3634C110.695 91.6233 110.543 88.8828 110.345 86.1646C111.091 83.5557 111.223 80.8595 111.091 78.075C110.938 74.3925 110.718 70.7094 110.521 67.0264C110.323 63.3434 110.258 60.0548 110.566 56.5254C110.697 54.7716 110.851 52.9959 110.851 51.2422C110.851 50.3655 110.807 49.4887 110.719 48.6118C110.682 48.2057 110.616 47.8028 110.522 47.406C110.654 47.0558 110.721 46.6841 110.719 46.3096C110.609 43.92 110.5 41.4432 110.039 39.0975C109.826 38.012 109.377 36.9865 108.722 36.0942C108.201 35.3426 107.529 34.7079 106.748 34.2307C106.463 33.8379 106.106 33.5035 105.694 33.2457C105.165 32.9401 104.571 32.7601 103.961 32.7196C103.677 32.5231 103.367 32.3681 103.04 32.2594C101.569 31.7113 99.6384 30.9878 97.8831 31.0317C97.5591 30.7711 97.158 30.6247 96.7421 30.6153L91.1473 30.4837C90.9471 30.4919 90.7485 30.5219 90.5548 30.5732C88.558 30.31 86.4733 30.4635 84.4549 30.4837C82.4366 30.5038 82.1291 32.4788 83.1164 33.7073C84.1036 34.9359 85.3982 34.7371 86.5172 34.9784C87.6362 35.2198 88.7767 35.4803 89.8943 35.6988C91.0119 35.9173 91.5837 35.984 92.2201 36.6417C92.8564 37.2995 94.0413 38.0445 94.8528 38.8777C95.072 39.1015 95.3435 39.2673 95.6429 39.3599L95.8624 39.6012C96.2051 39.9547 96.5967 40.2573 97.0253 40.4998L97.115 40.6095C97.3561 41.004 97.7513 41.6617 98.1681 41.9249H98.19C98.2106 41.959 98.2257 41.996 98.2348 42.0346C98.4832 42.6332 98.7765 43.2121 99.1123 43.7665L99.3099 44.0731L99.5075 44.6212C99.7267 45.4763 99.8804 46.331 100.056 47.2081C100.157 47.6204 100.238 48.0374 100.297 48.4578C99.9462 48.9619 100.319 49.5977 100.407 50.2554C100.371 50.4475 100.304 50.6326 100.209 50.8034C100.164 51.0882 100.299 51.4611 100.209 51.7239C100.048 52.4859 99.8056 53.2283 99.4856 53.9384C99.3853 54.0807 99.3247 54.2472 99.3099 54.4206C99.3135 54.4585 99.3059 54.4967 99.2879 54.5303C98.9085 55.0385 98.5784 55.5817 98.3021 56.1524C98.1703 56.4376 98.0605 56.7224 97.9068 56.9856C97.7531 57.2489 97.512 57.5117 97.5998 57.4459C97.4281 57.6394 97.245 57.8224 97.0513 57.9939L96.6341 58.3445C96.1717 58.6963 95.7321 59.077 95.318 59.4844L93.8037 60.0763C93.2552 60.2957 92.2021 60.6463 91.6976 61.1509L91.0393 61.2601C90.381 61.3917 89.7446 61.6111 89.0863 61.7866L88.2963 61.9836H87.8329C87.8777 62.0056 87.8777 62.0056 87.8109 61.9836C87.7442 61.9617 87.6357 61.9617 87.789 61.9617L87.0868 61.655L86.8018 61.5453C86.0337 61.2601 85.2221 61.1947 84.4101 61.107L83.7298 61.0622C83.2976 60.7054 82.786 60.4573 82.238 60.3387C81.6056 59.6672 80.7611 59.2336 79.8464 59.111C77.6299 58.8043 75.6788 60.2948 75.0411 62.3794C74.558 63.9138 74.9313 65.6031 74.9094 67.1804C74.8874 68.7578 74.7337 70.1619 74.58 71.6304C74.4263 73.099 74.2291 75.2257 74.1632 77.0233C72.6494 77.1988 71.2011 77.6371 69.7528 78.0979L67.0761 78.953C66.308 79.1939 65.4306 79.6107 64.6405 79.6546C63.8505 79.6985 62.8632 79.6098 62.0732 80.3562C61.2832 81.1026 61.2397 81.9783 61.4588 82.8989C61.6674 83.7001 61.9164 84.4903 62.2049 85.2664C61.898 86.1435 62.995 86.889 63.1043 87.5682L63.258 87.9631C63.8276 89.6216 64.268 91.3216 64.5751 93.048C64.7556 93.936 65.0278 94.803 65.3871 95.635C65.6941 96.2927 66.1767 96.8407 66.2645 97.5862C66.3524 98.3316 66.4841 100.37 65.6941 101.181C65.2773 101.62 64.6849 101.883 64.2023 102.234C63.5213 102.713 62.9214 103.297 62.425 103.965C61.5032 105.193 62.7978 106.727 64.0705 106.793L64.7727 106.838C64.9699 107.057 65.2773 107.627 65.5623 107.693C68.1077 108.219 70.675 108.066 73.2858 108.066C73.6844 108.076 74.0737 107.944 74.3833 107.693C78.4645 107.912 82.5456 108.022 86.6265 108.022C87.1014 108.016 87.5707 107.92 88.009 107.737L98.0583 107.934L103.588 108.024C104.399 108.046 105.233 108.089 106.045 108.068C107.757 108.003 109.205 107.279 110.168 105.854C111.131 104.43 110.958 101.755 110.936 99.8257C110.914 97.8964 110.85 96.183 110.784 94.3634ZM103.39 102.76C103.258 103.22 103.412 103.067 103.39 102.76V102.76ZM103.763 61.3483C103.808 61.1952 103.808 61.2386 103.763 61.3483V61.3483ZM107.142 34.8226L107.01 34.6252H107.032C107.23 34.9542 107.252 35.0196 107.142 34.8226Z" fill="#DBF122"/>
<path d="M87.833 61.6777L88.0306 61.7673H88.1203L87.833 61.6777Z" fill="#DBF122"/>
<path d="M39.3635 107.517C40.3292 107.517 40.3292 106.026 39.3635 106.026C38.3978 106.026 38.3983 107.517 39.3635 107.517Z" fill="#DBF122"/>
<path d="M110.433 105.04C110.302 104.646 109.687 104.821 109.841 105.194C110.477 106.882 107.34 106.663 106.462 106.706L102.797 106.838L95.4687 107.079C90.5321 107.211 85.5731 107.32 80.6356 107.386C72.2557 107.495 63.8941 107.495 55.5123 107.386C56.4117 107.056 57.3473 106.835 58.2992 106.728C59.0888 106.619 58.8477 104.996 58.0357 105.106C57.2237 105.216 56.4341 105.72 55.6879 105.983C55.3805 106.072 54.832 105.938 54.547 106.028C54.262 106.117 54.0424 106.269 53.5813 106.181H53.3402C53.2763 105.986 53.1715 105.806 53.0328 105.655C52.8137 105.414 52.4623 105.26 52.331 104.997C52.1997 104.734 52.331 104.449 52.2862 104.252C52.2636 104.203 52.2485 104.152 52.2414 104.098C52.2634 103.953 52.2634 103.805 52.2414 103.66C52.0877 102.849 51.6051 102.279 51.1005 101.709C51.2537 100.81 50.53 100.087 50.025 99.3194C49.2689 98.1803 48.8159 96.8674 48.7088 95.5047C48.6962 95.2647 48.5944 95.038 48.4234 94.869C48.5192 94.4881 48.5708 94.0975 48.5771 93.7049C48.599 92.4991 47.5464 92.0169 46.69 93.7049C46.4924 94.0998 46.4045 94.2309 46.2513 94.6039C45.4832 94.8448 45.1103 96.0944 44.781 96.753C44.1666 97.9171 43.7503 99.0548 42.872 100.064C42.1553 100.919 41.6047 101.9 41.2484 102.957C40.8755 104.032 40.1729 104.733 39.6687 105.807C39.4492 106.289 38.3961 106.747 38.6829 107.122C37.0154 107.539 36.3132 106.991 34.6676 106.925C34.2509 106.925 34.2289 107.298 34.6457 107.298C37.8933 107.407 41.1623 107.758 44.4099 107.824C44.8551 107.862 45.3018 107.877 45.7485 107.869C62.9948 108.234 80.241 108.161 97.487 107.649L106.286 107.342C107.515 107.298 111.355 107.408 110.433 105.04Z" fill="#DBF122"/>
<path d="M80.2632 58.4111C77.5202 58.1917 76.0723 60.0552 75.3701 62.4886C74.4268 65.7991 74.2292 69.2847 74.205 72.6825C74.1153 80.2043 74.3367 87.7212 74.5998 95.2185C74.7315 99.4495 74.9291 103.702 75.1263 107.955C75.1711 108.438 75.9164 108.438 75.8944 107.955C75.4265 99.1576 75.1341 90.374 75.017 81.6048C74.9511 77.4177 74.7974 73.1875 75.0824 69.0236C75.2097 66.8838 75.5479 64.7618 76.092 62.6883C76.7064 60.5839 77.8693 58.9614 80.2596 59.1588C80.7458 59.2005 80.7239 58.455 80.2632 58.4111Z" fill="#162B43"/>
<path d="M97.1146 58.5653C98.5405 57.2059 100.713 57.7979 102.492 57.6009C102.975 57.5561 102.975 56.8115 102.492 56.8554C100.476 57.0743 98.2134 56.4824 96.5898 58.0392C96.2367 58.3678 96.7632 58.8921 97.1146 58.5653Z" fill="#162B43"/>
<path d="M85.902 61.8971L86.2753 76.5634C86.2786 76.66 86.3194 76.7516 86.389 76.8187C86.4586 76.8859 86.5516 76.9234 86.6483 76.9234C86.7451 76.9234 86.8381 76.8859 86.9077 76.8187C86.9773 76.7516 87.018 76.66 87.0214 76.5634L86.6481 61.8971C86.6448 61.8005 86.604 61.709 86.5344 61.6418C86.4648 61.5746 86.3718 61.5371 86.275 61.5371C86.1783 61.5371 86.0853 61.5746 86.0157 61.6418C85.9461 61.709 85.9053 61.8005 85.902 61.8971Z" fill="#162B43"/>
<path d="M87.4821 107.649C87.9647 101.202 88.1184 94.7333 87.9427 88.2699C87.9208 87.7877 87.1747 87.7877 87.1747 88.2699C87.3687 94.7329 87.2222 101.202 86.7359 107.649C86.692 108.131 87.4601 108.131 87.4821 107.649Z" fill="#162B43"/>
<path d="M87.8778 87.3489C87.9113 87.0113 87.8891 86.6706 87.8119 86.3402C87.7021 85.858 86.9784 86.0554 87.0878 86.5376C87.1472 86.8038 87.1623 87.0779 87.1326 87.3489C87.1379 87.446 87.179 87.5378 87.2479 87.6065C87.3168 87.6753 87.4086 87.7162 87.5059 87.7214C87.6047 87.7213 87.6995 87.682 87.7694 87.6122C87.8393 87.5424 87.8786 87.4477 87.8787 87.3489H87.8778Z" fill="#162B43"/>
<path d="M64.0042 83.3373H70.8937C71.3768 83.3373 71.3768 82.5703 70.8937 82.5703H64.0042C63.5216 82.5694 63.5216 83.3373 64.0042 83.3373Z" fill="#162B43"/>
<path d="M28.6999 99.6472C28.9854 97.7398 30.3454 96.1616 31.3551 94.5834C32.3647 93.0051 33.3716 91.1632 34.2733 89.3875C34.4924 88.9711 33.8341 88.5766 33.615 89.015C32.6682 90.9108 31.621 92.7549 30.4781 94.5395C29.4922 96.0958 28.2401 97.5867 27.9766 99.4502C27.9099 99.9324 28.6354 100.128 28.6999 99.6472Z" fill="#DBF122"/>
<path d="M35.2824 87.2826C37.4528 83.8544 39.4093 80.2957 41.1408 76.6267C41.9967 74.8071 42.8083 72.966 44.059 71.3882C45.1484 70.0288 46.4619 68.8649 47.9429 67.9466C51.1246 65.9734 54.7231 65.1845 58.4089 65.0529C62.0948 64.9213 66.2642 65.2499 70.0383 64.0446C70.499 63.891 70.3018 63.1675 69.8407 63.3211C65.6059 64.6799 61.1519 64.0441 56.8073 64.3956C53.4284 64.6584 50.137 65.6452 47.2846 67.4849C44.4323 69.3247 42.3696 72.2421 40.8316 75.5083C39.0042 79.431 36.9378 83.238 34.6438 86.9079C34.383 87.3265 35.0409 87.699 35.2824 87.2826Z" fill="#DBF122"/>
<path d="M71.9911 65.2733C68.0853 66.8296 63.9163 67.4672 59.8352 68.4298C58.1019 68.8247 56.3027 69.2411 54.745 70.1178C53.1873 70.9944 51.8702 72.4419 50.6415 73.7788C48.0122 76.6486 45.6613 79.7609 43.6202 83.0741C41.536 86.4939 39.9998 90.1769 37.6301 93.3997C36.4157 95.0273 35.3992 96.7935 34.6021 98.6609C33.7027 100.765 32.9127 102.914 31.3756 104.646C31.0682 104.996 31.5947 105.544 31.9021 105.172C34.2499 102.541 34.9301 99.0334 36.7074 96.0739C37.7381 94.3641 39.0551 92.8731 40.0863 91.1852C41.1174 89.4973 41.8635 87.6777 42.8069 85.9678C44.7159 82.4948 46.965 79.2196 49.5211 76.1903C50.728 74.7437 52.0006 73.2747 53.427 72.0264C54.8534 70.7782 56.8279 69.944 58.8686 69.4399C63.3226 68.2995 67.9087 67.7076 72.187 65.9977C72.6275 65.8213 72.4518 65.0978 71.9911 65.2733Z" fill="#DBF122"/>
<path d="M52.024 78.2732C48.6352 81.6125 45.7457 85.4222 43.4446 89.5851C40.8558 94.2544 38.5515 99.0993 36.1401 103.856C35.9206 104.273 36.5569 104.646 36.7765 104.229C39.1462 99.5815 41.4061 94.8902 43.8856 90.3086C46.2015 86.0731 49.1209 82.1962 52.5524 78.7993C52.9019 78.4702 52.3749 77.9441 52.024 78.2732Z" fill="#DBF122"/>
<path d="M58.6066 76.4313C61.0865 76.6596 63.578 76.1403 65.7596 74.9404C66.1764 74.6995 65.8044 74.0418 65.3868 74.2826C63.3184 75.4183 60.9563 75.9072 58.6066 75.6858C58.1222 75.642 58.1222 76.3874 58.6066 76.4313Z" fill="#DBF122"/>
<path d="M68.8095 73.6473C70.6746 73.0554 72.364 72.3758 73.9876 71.2578C74.3829 70.9946 74.0096 70.3368 73.6148 70.622C72.0571 71.6742 70.4111 72.3539 68.6119 72.9238C68.1512 73.0555 68.3488 73.7785 68.8095 73.6473Z" fill="#DBF122"/>
<path d="M50.1808 88.5103C50.4882 90.6366 51.346 92.7413 52.1118 94.7579C52.8777 96.7745 53.7573 98.7919 54.7011 100.743C54.8983 101.181 55.5566 100.809 55.3374 100.37C54.3717 98.3312 53.4723 96.2708 52.6823 94.166C51.8922 92.0612 51.212 90.3079 50.905 88.3128C50.8176 87.8306 50.093 88.0281 50.1808 88.5103Z" fill="#DBF122"/>
<path d="M53.7793 84.1917C53.6037 86.6251 54.7652 89.2341 55.4688 91.5139C56.1723 93.7937 57.0704 96.5996 57.9263 99.0989C58.08 99.5591 58.8042 99.3621 58.6505 98.9014C57.8385 96.5338 57.0489 94.1443 56.3247 91.7328L55.2716 88.2253C54.8983 86.9099 54.4157 85.5949 54.5255 84.1917C54.5474 83.7095 53.8013 83.7095 53.7793 84.1917Z" fill="#DBF122"/>
<path d="M57.0489 80.6187C58.1244 83.3149 59.1999 86.0335 60.3202 88.7297C60.4959 89.1685 61.22 88.9711 61.0444 88.5327C59.9241 85.8361 58.8486 83.1179 57.7529 80.4212C57.5754 79.9829 56.8513 80.1589 57.0489 80.6187Z" fill="#DBF122"/>
<path d="M61.0641 91.339C62.0497 93.1869 62.8361 95.1343 63.41 97.1483C63.5418 97.6085 64.2659 97.4115 64.1342 96.9508C63.5436 94.873 62.7269 92.8661 61.6986 90.966C61.4831 90.5277 60.8225 90.9226 61.0641 91.339Z" fill="#DBF122"/>
<path d="M74.2511 28.0272C77.2922 28.3373 80.2755 29.0678 83.1155 30.1977C89.9396 32.8501 96.083 37.7388 95.5345 38.8568C95.3812 39.1201 94.8542 38.7471 93.9548 39.0543C88.4254 40.808 84.4993 43.3731 82.9179 46.9245C82.6109 47.5817 83.0075 47.9542 82.7207 48.5027C81.8648 50.1468 79.0783 49.7962 76.4021 50.2784C71.9043 51.0677 71.531 53.5665 66.9466 55.3861C65.3889 55.9999 58.9377 58.6308 56.8974 56.3711C56.0854 55.472 56.4147 52.6003 57.0945 46.924C57.4678 43.8768 57.6215 43.5477 57.2922 42.7807C55.8882 39.5123 50.1392 39.2947 50.205 37.4751C50.228 37.1706 50.3698 36.8873 50.5998 36.6862C59.3966 26.6025 74.2511 28.0272 74.2511 28.0272Z" fill="#007EEF"/>
<path d="M22.8634 108.043L24.7505 107.999V107.341L32.474 107.516V107.999L32.5188 113.699C32.5187 114.018 32.3915 114.325 32.1652 114.551C31.9389 114.777 31.632 114.904 31.312 114.904L19.8574 115.037C19.7364 115.04 19.6159 115.019 19.5029 114.975C19.3901 114.932 19.2869 114.866 19.1991 114.783C19.1116 114.699 19.0414 114.599 18.9925 114.489C18.9433 114.378 18.9167 114.259 18.9141 114.138C18.8043 110.783 19.4626 108.087 22.8634 108.043Z" fill="#162B43"/>
<path d="M22.6439 113.392C23.0952 112.675 23.2597 111.814 23.1046 110.981C22.7098 109.118 20.8886 108.416 20.7568 108.372L22.6439 113.392Z" fill="#162B43"/>
<path d="M26.7909 111.222L23.8068 109.052C23.7494 109.016 23.6833 108.996 23.6156 108.995C23.5479 108.994 23.4811 109.011 23.4225 109.045C23.3639 109.079 23.3155 109.128 23.2827 109.187C23.2499 109.246 23.2339 109.313 23.2363 109.381C23.2363 109.973 23.39 110.959 23.1705 111.53L23.6316 111.267C23.0826 111.114 22.4467 110.5 22.0076 110.193C21.5684 109.886 20.8872 109.469 20.4938 108.943C20.1003 108.417 19.55 108.943 19.8355 109.337C20.2492 109.828 20.7378 110.249 21.2834 110.587C21.9197 111.025 22.6659 111.793 23.4344 111.99C23.5294 112.003 23.6259 111.984 23.7091 111.936C23.7923 111.889 23.8576 111.815 23.8951 111.727C24.1366 111.069 23.9847 110.061 23.9847 109.381L23.412 109.709L26.418 111.88C26.8128 112.165 27.1857 111.507 26.7909 111.222Z" fill="white"/>
<path d="M56.0608 106.794L57.7287 105.917L57.4433 105.325L64.4645 102.146L64.6841 102.585L67.1855 107.715C67.2595 107.855 67.304 108.009 67.3162 108.167C67.3285 108.325 67.3083 108.484 67.2569 108.633C67.2055 108.783 67.1239 108.921 67.0173 109.038C66.9106 109.156 66.781 109.25 66.6366 109.315L56.3677 114.401C56.1483 114.504 55.898 114.521 55.6667 114.448C55.4354 114.375 55.2401 114.218 55.1197 114.007C53.5817 111.003 53.0135 108.307 56.0608 106.794Z" fill="#162B43"/>
<path d="M67.164 107.079C67.0923 107.015 67.0107 106.964 66.9225 106.926C66.8749 106.913 66.8252 106.909 66.7762 106.915C66.7272 106.921 66.6799 106.937 66.637 106.961C66.5944 106.986 66.5569 107.018 66.5268 107.057C66.4965 107.096 66.4743 107.141 66.4618 107.189C66.417 107.364 65.4087 108.109 65.255 108.218C64.6626 108.679 64.0701 108.547 63.3899 108.7C62.1392 108.963 61.6346 109.775 60.6693 110.454C59.704 111.133 58.4735 110.915 57.4656 111.331C57.0604 111.505 56.6946 111.758 56.3901 112.076C55.6001 112.844 54.9638 113.019 53.8667 113.019C53.3841 113.019 53.3841 113.786 53.8667 113.786C54.514 113.821 55.162 113.732 55.7758 113.523C56.3901 113.26 56.6751 112.756 57.1797 112.362C58.3001 111.441 59.9886 111.879 61.1515 111.024C61.7439 110.586 62.0948 110.016 62.7751 109.687C63.4553 109.358 64.2014 109.49 64.9261 109.27C65.6507 109.051 65.8035 108.722 66.1983 108.35C66.5931 107.977 67.0762 107.78 67.1842 107.385L66.7262 107.65L66.7916 107.715C67.186 108 67.5588 107.364 67.164 107.079Z" fill="white"/>
<path d="M61.0421 107.956L57.4217 107.298C57.3506 107.283 57.2768 107.289 57.2086 107.314C57.1403 107.338 57.0802 107.381 57.0349 107.438C56.9896 107.495 56.9607 107.563 56.9516 107.635C56.9424 107.707 56.9533 107.78 56.983 107.846C57.2241 108.35 57.7946 109.161 57.8385 109.731L58.102 109.359C57.5974 109.469 56.7854 109.183 56.2808 109.096C55.7762 109.008 54.9203 108.92 54.3059 108.613C53.6915 108.307 53.4724 109.052 53.9111 109.271C54.6792 109.622 55.4688 109.731 56.3027 109.863C57.1367 109.995 57.6632 110.214 58.2996 110.082C58.3789 110.063 58.4497 110.018 58.5012 109.955C58.5527 109.891 58.582 109.813 58.5846 109.731C58.5187 108.964 57.9483 108.153 57.6435 107.473L57.2044 108.021L60.8468 108.679C61.3276 108.769 61.5248 108.065 61.0421 107.956Z" fill="white"/>
<path d="M59.2648 61.3272C54.9861 60.5164 50.3345 59.8367 46.2973 61.8757C44.3883 62.8401 42.7863 64.3306 41.3164 65.8654C39.8465 67.4002 38.2445 69.1097 37.0377 70.9512C34.5802 74.7658 33.9456 79.4132 31.5522 83.2498C30.3234 85.2646 28.4802 86.8451 27.3613 88.9055C26.2423 90.966 26.0012 93.1142 25.3868 95.2414C24.6269 97.8692 23.233 100.271 21.3272 102.234C19.8793 103.769 18.2553 105.238 17.7727 107.364C17.7509 107.446 17.7562 107.533 17.7879 107.612C17.8195 107.692 17.8758 107.758 17.9484 107.803C18.0592 107.897 18.1894 107.965 18.3298 108.003C18.4702 108.041 18.6172 108.047 18.7604 108.022C19.243 107.977 19.243 107.211 18.7604 107.277L18.3212 107.145L18.4969 107.583C18.9795 105.501 20.5811 104.12 21.9855 102.651C23.3314 101.216 24.4361 99.5722 25.2569 97.7845C26.1343 95.8113 26.4856 93.7285 27.0561 91.69C27.7364 89.3004 29.1403 87.6998 30.6546 85.8144C33.3751 82.4385 34.4282 78.4488 36.0523 74.5245C36.9566 72.4006 38.2017 70.4384 39.7386 68.7152C41.0986 67.1589 42.4811 65.5811 44.0827 64.2652C46.0698 62.5539 48.5538 61.5242 51.1698 61.3272C53.825 61.1083 56.4577 61.5466 59.069 62.0508C59.5279 62.1385 59.7474 61.415 59.2648 61.3272Z" fill="#162B43"/>
<path d="M56.0159 74.4806C55.8183 77.6376 55.5328 80.8164 53.6677 83.4907C52.8122 84.7403 51.7591 85.8364 50.8373 87.064C49.9155 88.2917 48.9502 89.7607 48.0289 91.12C46.1638 93.8601 44.3206 96.6002 42.6092 99.4505C41.7533 100.853 40.9637 102.278 40.1956 103.749C39.4275 105.219 38.7692 106.358 37.6064 107.322C37.2335 107.629 37.7601 108.155 38.1329 107.849C39.2084 106.971 39.9541 105.766 40.6124 104.56C41.2707 103.354 42.2579 101.491 43.1578 100C44.957 96.9969 46.9319 94.0594 48.9063 91.1438C49.872 89.7186 50.8373 88.2496 51.9124 86.8903C52.9874 85.531 53.9289 84.5666 54.7432 83.2512C56.3448 80.6203 56.5644 77.4853 56.7598 74.482C56.8073 73.9984 56.0607 73.9984 56.0159 74.4806Z" fill="#162B43"/>
<path d="M55.4907 80.4868C62.183 82.2844 68.0633 77.9875 74.4487 77.0012C74.9313 76.9354 74.7337 76.2118 74.2511 76.2777C68.0194 77.2421 62.205 81.5161 55.6883 79.7632C55.6402 79.7484 55.5896 79.7434 55.5395 79.7485C55.4894 79.7536 55.4408 79.7687 55.3967 79.7929C55.3526 79.8172 55.3138 79.85 55.2826 79.8895C55.2514 79.9291 55.2285 79.9744 55.2153 80.023C55.202 80.0715 55.1987 80.1222 55.2054 80.1721C55.2122 80.2219 55.2289 80.2699 55.2546 80.3132C55.2803 80.3565 55.3144 80.3941 55.355 80.4239C55.3955 80.4538 55.4417 80.4751 55.4907 80.4868Z" fill="#162B43"/>
<path d="M47.6359 92.0179C48.0428 94.6755 48.8338 97.2601 49.9841 99.6906C50.5546 100.94 51.3003 102.102 51.7394 103.418C52.1786 104.733 52.3319 105.39 53.0556 106.201C53.385 106.552 53.9115 106.026 53.6041 105.653C52.7706 104.754 52.6182 103.527 52.1782 102.43C51.7381 101.332 51.1251 100.347 50.62 99.3172C49.5114 96.9389 48.7504 94.414 48.3601 91.8195C48.2718 91.3382 47.5463 91.5576 47.6359 92.0179Z" fill="#162B43"/>
<path d="M61.3039 80.3773C61.1941 81.9998 61.7426 83.6009 62.2033 85.1125C62.6639 86.624 63.3236 88.4888 63.8927 90.1548C65.0336 93.5087 66.0885 96.907 66.3283 100.48C66.3502 100.963 67.0964 100.963 67.0744 100.48C66.8548 97.104 65.9335 93.8817 64.8584 90.7028C64.3099 89.0807 63.7381 87.4792 63.2344 85.8579C62.7307 84.2367 61.9183 82.2188 62.0496 80.3773C62.0733 79.8951 61.3276 79.8951 61.3039 80.3773Z" fill="#162B43"/>
<path d="M37.7618 107.123C34.4905 106.223 31.1793 107.451 27.8878 107.167C24.5963 106.883 21.6785 106.005 18.7164 107.409C18.2773 107.628 18.6716 108.264 19.0893 108.066C22.0294 106.663 25.2331 107.759 28.2831 107.957C31.333 108.154 34.4923 106.992 37.5642 107.847C38.0249 107.977 38.2225 107.254 37.7618 107.123Z" fill="#162B43"/>
<path d="M53.3626 106.509C55.886 106.246 58.2118 105.282 60.5375 104.295C62.8633 103.308 65.255 102.651 66.8561 100.853C67.1636 100.502 66.637 99.954 66.3076 100.327C64.8597 101.971 62.5115 102.651 60.5591 103.484C58.2333 104.469 55.8855 105.479 53.3621 105.764C52.8791 105.808 52.8791 106.575 53.3626 106.509Z" fill="#162B43"/>
<path d="M22.5121 103.812C24.4065 103.589 26.3196 103.574 28.2172 103.768C28.6999 103.812 28.6999 103.066 28.2172 103.022C26.3196 102.829 24.4065 102.844 22.5121 103.067C22.0295 103.133 22.0295 103.878 22.5121 103.812Z" fill="#162B43"/>
<path d="M29.3142 103.702C29.4002 103.702 29.4835 103.672 29.5499 103.617C29.6162 103.563 29.6616 103.487 29.6782 103.402C29.6948 103.318 29.6816 103.231 29.641 103.155C29.6003 103.079 29.5346 103.02 29.4551 102.987C29.3756 102.954 29.2872 102.95 29.2049 102.975C29.1226 103 29.0515 103.053 29.0038 103.124C28.9561 103.196 28.9346 103.282 28.9431 103.367C28.9516 103.453 28.9894 103.533 29.0503 103.593C29.0849 103.628 29.1261 103.655 29.1714 103.674C29.2167 103.693 29.2652 103.702 29.3142 103.702Z" fill="#162B43"/>
<path d="M55.5127 102.453C56.8074 102.387 58.0142 101.817 59.1771 101.357C60.3714 100.884 61.5237 100.312 62.6218 99.6468C63.039 99.3835 62.6666 98.7482 62.249 98.9891C61.21 99.6324 60.116 100.183 58.9799 100.633C57.8824 101.072 56.7195 101.642 55.5127 101.686C55.0301 101.708 55.0301 102.475 55.5127 102.453Z" fill="#162B43"/>
<path d="M63.8945 98.7266L64.2898 98.5292C64.3732 98.479 64.4337 98.3981 64.4583 98.3039C64.4828 98.2096 64.4695 98.1096 64.4211 98.025C64.3703 97.9363 64.2871 97.8706 64.1888 97.842C64.0906 97.8133 63.9851 97.8239 63.8945 97.8715L63.4997 98.068C63.4162 98.1221 63.357 98.2065 63.3346 98.3034C63.3122 98.4002 63.3282 98.502 63.3794 98.5873C63.4306 98.6725 63.5129 98.7346 63.609 98.7604C63.705 98.7863 63.8074 98.7738 63.8945 98.7257V98.7266Z" fill="#162B43"/>
<path d="M49.9174 37.4539C47.9429 38.7912 46.6909 40.6986 45.3756 42.6498C44.0604 44.601 42.655 46.9901 41.7772 49.4015C40.0658 54.1148 40.6568 59.2887 43.7081 63.3223C43.9931 63.6948 44.6492 63.3223 44.3664 62.9498C41.4263 59.0474 40.8558 54.1586 42.5013 49.599C43.2914 47.4288 44.4543 45.4118 45.7278 43.5045C47.0014 41.5972 48.2947 39.4709 50.2916 38.0897C50.6855 37.8268 50.3126 37.1691 49.9174 37.4539Z" fill="#162B43"/>
<path d="M68.0414 30.6792C67.9321 30.8986 66.9005 33.0253 68.0414 35.2174C68.5899 36.2471 69.7313 37.4533 71.0035 37.563C73.1321 37.7605 75.8527 34.8663 76.511 30.0859L68.0414 30.6792Z" fill="white"/>
<path d="M69.9285 55.6494C71.8375 55.4739 73.8563 55.2764 75.6556 56.0438C77.4548 56.8112 78.8149 58.2798 80.373 59.3319C83.2473 61.2612 86.714 62.6644 90.2246 61.875C93.2307 61.1954 96.7413 59.4197 98.6723 56.9424C100.603 54.4651 101.196 50.1907 100.757 46.9021C100.318 43.6135 98.8699 40.2815 95.8639 38.6375C95.781 38.6047 95.6892 38.6027 95.605 38.6317C95.5208 38.6607 95.4497 38.7188 95.4046 38.7956C95.3596 38.8723 95.3434 38.9627 95.3592 39.0503C95.375 39.1379 95.4216 39.217 95.4906 39.2732C98.2775 40.8076 99.5941 43.9207 100.011 46.946C100.428 49.9713 100.033 54.2681 97.7729 56.8551C96.7422 58.0192 95.3812 58.8497 94.0207 59.5733C92.6602 60.2968 90.6414 61.1954 88.7983 61.327C85.3315 61.5903 82.1722 59.7707 79.4951 57.7756C78.0687 56.7459 76.7745 55.4958 75.0412 55.0355C73.3078 54.5753 71.6179 54.7503 69.9285 54.9039C69.4459 54.9478 69.4459 55.6928 69.9285 55.6494Z" fill="#162B43"/>
<path d="M80.9215 43.1532C81.8626 45.0382 83.9276 48.0635 80.9663 49.2253C79.2769 49.883 77.3459 49.708 75.5888 50.0805C72.3885 50.7579 69.4676 52.3855 67.2088 54.7499C66.8795 55.1009 67.406 55.627 67.7354 55.2759C69.1558 53.7895 70.8557 52.5976 72.7378 51.7684C74.8664 50.8479 76.995 50.6724 79.2549 50.3872C80.7468 50.1902 82.7436 49.708 83.2043 48.0196C83.665 46.3312 82.3484 44.2931 81.5588 42.7812C81.3383 42.3419 80.7019 42.7364 80.9215 43.1532Z" fill="#162B43"/>
<path d="M69.863 54.904C69.0794 54.918 68.2956 54.8881 67.5153 54.8144C67.0327 54.7697 67.0327 55.516 67.5153 55.5599C67.9979 55.6038 69.0734 55.6915 69.863 55.6696C70.6526 55.6477 70.3452 54.904 69.863 54.904Z" fill="#162B43"/>
<path d="M57.1811 40.042C56.9908 42.4386 56.8371 44.8281 56.72 47.2106C56.698 47.6928 57.4441 47.6928 57.4661 47.2106C57.5759 44.8211 57.7296 42.4316 57.9487 40.042C57.9922 39.5576 57.2259 39.5576 57.1811 40.042Z" fill="#162B43"/>
<path d="M70.214 42.2102C71.1793 42.2102 71.1793 40.7197 70.214 40.7197C69.2487 40.7197 69.2483 42.2102 70.214 42.2102Z" fill="#DBF122"/>
<path d="M70.8938 48.4597C71.8595 48.4597 71.8595 46.9688 70.8938 46.9688C69.9281 46.9688 69.9285 48.4597 70.8938 48.4597Z" fill="#DBF122"/>
<path d="M51.9142 36.0723C52.7921 36.4233 53.7354 36.5988 54.6133 36.9713C55.5456 37.3894 56.3874 37.9851 57.0915 38.7251C57.4423 39.0537 57.9689 38.5276 57.618 38.199C56.9031 37.4455 56.0565 36.8288 55.1197 36.3794C54.154 35.9191 53.1031 35.7436 52.1137 35.3496C51.6512 35.1737 51.4536 35.8972 51.9142 36.0723Z" fill="#DBF122"/>
<path d="M93.4283 36.3358C91.071 36.4821 88.797 37.2622 86.8471 38.5937C85.0698 39.8214 82.8753 41.4879 81.9759 43.5264C81.7783 43.9647 82.4147 44.3377 82.6123 43.8993C83.4678 42.0139 85.5744 40.3914 87.2199 39.2295C89.0576 37.9661 91.2035 37.2235 93.4296 37.0804C93.9109 37.0374 93.9109 36.292 93.4283 36.3358Z" fill="#DBF122"/>
<path d="M73.0448 27.8957C72.6061 28.2682 70.697 29.7372 68.6979 29.2331C65.8017 28.4876 64.266 23.928 65.8017 20.9246C66.4161 19.675 67.8183 18.206 69.5758 18.1621C73.2182 18.0726 75.1268 24.2346 75.2146 24.4979C76.0925 27.5013 77.3871 31.9513 74.447 35.5026C72.7571 37.5416 70.8705 37.6965 69.5099 37.0813C68.1494 36.4662 65.7815 30.5705 68.6979 29.2331L73.0448 27.8957Z" fill="white"/>
<path d="M70.9597 37.8934C70.3924 37.8952 69.8313 37.7757 69.3141 37.5428C68.2834 37.0606 66.8566 34.0792 66.8566 31.7994C66.8566 30.7467 67.1421 29.9359 67.6906 29.3659C66.6537 28.76 65.8386 27.8379 65.3648 26.7351C64.4649 24.762 64.4649 22.4369 65.3428 20.6845C66.2207 18.9321 67.6906 17.7031 69.5776 17.6592H69.6673C73.6386 17.6592 75.6135 24.0823 75.6793 24.3456C76.5568 27.2392 77.9832 32.0402 74.8234 35.8329C73.6807 37.1905 72.3202 37.8934 70.9597 37.8934ZM68.7876 29.7591C68.173 30.1095 67.8659 30.7891 67.8662 31.798C67.8662 33.9919 69.2702 36.4235 69.7313 36.6205C70.1925 36.8175 72.1884 37.4098 74.0535 35.1739C76.8624 31.8195 75.5897 27.5012 74.7338 24.6523C74.7118 24.5869 72.8906 18.646 69.6655 18.646H69.5996C68.1293 18.6675 66.8566 19.9171 66.2422 21.1228C65.6278 22.3285 65.5185 24.6088 66.287 26.2968C66.8575 27.5683 67.8013 28.4669 68.8324 28.7302C70.4779 29.1466 72.1037 28.0066 72.7378 27.4806C72.7886 27.4295 72.8497 27.3898 72.9171 27.3642C72.9841 27.3382 73.0559 27.327 73.1277 27.3315C73.2358 27.3379 73.3389 27.3788 73.4218 27.4483C73.5048 27.5178 73.5631 27.6122 73.5883 27.7174C73.6134 27.8226 73.604 27.933 73.5614 28.0325C73.5188 28.1319 73.4453 28.215 73.3518 28.2695C72.6495 28.86 70.7844 30.1535 68.7876 29.7591Z" fill="#162B43"/>
<path d="M67.6027 29.0573C64.8602 31.7101 67.1859 37.5852 70.7844 38.0674C71.7824 38.2167 72.8011 38.0069 73.6587 37.4755C74.5361 36.9275 75.0412 35.9192 75.5238 35.0421C76.533 33.1786 77.4982 30.9646 77.3669 28.8164C77.3011 27.8516 75.7869 27.8516 75.8527 28.8164C75.9625 30.3288 75.3921 31.8637 74.7557 33.2225C74.1194 34.5814 73.3732 36.4462 71.6636 36.6208C69.954 36.7954 68.8552 35.4809 68.3506 34.0119C67.846 32.5429 67.6484 31.0963 68.6576 30.1318C69.6668 29.1674 68.3049 28.4014 67.6027 29.0573Z" fill="#DBF122"/>
<path d="M67.6672 29.2966C67.9688 29.4727 68.2938 29.6055 68.6325 29.6911C68.68 29.7043 68.7297 29.7079 68.7787 29.7019C68.8277 29.6958 68.875 29.6801 68.9179 29.6557C68.9609 29.6313 68.9985 29.5985 69.0287 29.5594C69.0588 29.5203 69.0809 29.4755 69.0936 29.4278C69.1068 29.3804 69.1104 29.3308 69.1044 29.2819C69.0983 29.233 69.0826 29.1859 69.0582 29.1431C69.0337 29.1001 69.0007 29.0625 68.9614 29.0325C68.9223 29.0025 68.8777 28.9805 68.8301 28.9676C68.5512 28.8998 68.2846 28.7889 68.04 28.6389C67.9527 28.5895 67.8494 28.5768 67.7527 28.6035C67.656 28.6303 67.5739 28.6943 67.5245 28.7815C67.475 28.8687 67.4623 28.972 67.4891 29.0686C67.5158 29.1652 67.5799 29.2472 67.6672 29.2966Z" fill="#162B43"/>
<path d="M72.7368 60.5157H49.2375C48.9985 60.5136 48.7658 60.4391 48.5699 60.3022C48.3741 60.1653 48.2244 59.9724 48.1405 59.7488L42.7208 45.2809C42.6533 45.104 42.63 44.9133 42.653 44.7253C42.6759 44.5374 42.7444 44.3579 42.8525 44.2024C42.9605 44.0468 43.1049 43.92 43.2732 43.8328C43.4414 43.7457 43.6283 43.7008 43.8178 43.7022L67.3176 43.768C67.5573 43.7677 67.7912 43.8412 67.9875 43.9785C68.1838 44.1158 68.333 44.3103 68.4147 44.5354L73.8343 58.9165C73.9071 59.0945 73.9344 59.2878 73.9139 59.479C73.8935 59.6702 73.8258 59.8533 73.717 60.0119C73.6082 60.1705 73.4617 60.2997 73.2906 60.3878C73.1196 60.4759 72.9293 60.5202 72.7368 60.5166V60.5157Z" fill="#DBF122"/>
<path d="M65.2989 37.7817H61.9415C61.8077 37.7817 61.6793 37.7286 61.5847 37.6341C61.4901 37.5395 61.4369 37.4113 61.4369 37.2776C61.4369 37.1439 61.4901 37.0156 61.5847 36.9211C61.6793 36.8266 61.8077 36.7734 61.9415 36.7734H65.2989C65.4327 36.7734 65.561 36.8266 65.6557 36.9211C65.7503 37.0156 65.8034 37.1439 65.8034 37.2776C65.8034 37.4113 65.7503 37.5395 65.6557 37.6341C65.561 37.7286 65.4327 37.7817 65.2989 37.7817Z" fill="white"/>
<path d="M61.9415 41.1362C61.8079 41.1357 61.68 41.0824 61.5857 40.9879C61.4914 40.8934 61.4384 40.7655 61.4382 40.632V37.2776C61.4421 37.1465 61.497 37.022 61.5913 36.9306C61.6855 36.8392 61.8117 36.7881 61.943 36.7881C62.0744 36.7881 62.2006 36.8392 62.2948 36.9306C62.389 37.022 62.444 37.1465 62.4479 37.2776V40.632C62.4477 40.7658 62.3945 40.894 62.2998 40.9885C62.2051 41.0831 62.0767 41.1362 61.9428 41.1362H61.9415Z" fill="white"/>
<path d="M65.2989 41.1368C65.2336 41.1369 65.1689 41.1238 65.1089 41.0982C65.0488 41.0726 64.9946 41.0351 64.9494 40.988C64.9043 40.9409 64.8692 40.8851 64.8463 40.824C64.8234 40.7629 64.8132 40.6978 64.8162 40.6326V37.2782C64.8002 37.2044 64.8012 37.1278 64.8194 37.0544C64.8368 36.9814 64.8703 36.9131 64.9175 36.8547C64.965 36.7964 65.0249 36.7493 65.0927 36.7168C65.1606 36.6846 65.2347 36.668 65.3098 36.668C65.3849 36.668 65.4591 36.6846 65.5269 36.7168C65.5947 36.7493 65.6543 36.7964 65.7017 36.8547C65.749 36.913 65.7826 36.9811 65.8002 37.0541C65.8178 37.1271 65.8189 37.203 65.8034 37.2764V40.6308C65.8033 40.7645 65.7501 40.8927 65.6555 40.9872C65.5609 41.0817 65.4326 41.1349 65.2989 41.135V41.1368Z" fill="white"/>
<path d="M65.2989 41.1363H61.9416C61.8681 41.1518 61.792 41.1507 61.719 41.1331C61.646 41.1155 61.5778 41.0819 61.5194 41.0347C61.4315 40.9634 61.37 40.8646 61.345 40.7543C61.32 40.6439 61.3328 40.5284 61.3814 40.4262C61.414 40.3584 61.4611 40.2986 61.5194 40.2511C61.5779 40.204 61.6462 40.1704 61.7193 40.1531C61.7928 40.135 61.8694 40.1339 61.9434 40.1499H65.3007C65.3747 40.134 65.4513 40.1351 65.5248 40.1531C65.5979 40.1706 65.6661 40.2042 65.7245 40.2514C65.7829 40.2986 65.83 40.3583 65.8624 40.4261C65.8947 40.4939 65.9115 40.568 65.9115 40.6431C65.9114 40.7182 65.8946 40.7923 65.8622 40.86C65.8134 40.9622 65.7316 41.045 65.63 41.0951C65.5284 41.1452 65.4129 41.1597 65.3021 41.1363H65.2989Z" fill="white"/>
<path d="M65.2989 38.5278H61.9415C61.8077 38.5278 61.6793 38.4747 61.5847 38.3802C61.4901 38.2856 61.4369 38.1574 61.4369 38.0237C61.4369 37.89 61.4901 37.7617 61.5847 37.6672C61.6793 37.5726 61.8077 37.5195 61.9415 37.5195H65.2989C65.4327 37.5195 65.561 37.5726 65.6557 37.6672C65.7503 37.7617 65.8034 37.89 65.8034 38.0237C65.8034 38.1574 65.7503 38.2856 65.6557 38.3802C65.561 38.4747 65.4327 38.5278 65.2989 38.5278Z" fill="white"/>
<path d="M12.7918 77.6373C12.0022 77.6373 11.6508 76.4974 11.4976 75.4014C10.444 75.2697 9.06201 74.9406 9.06201 74.064C9.06201 73.1873 10.4006 72.8802 11.4537 72.7486C11.563 71.7403 11.8704 70.1396 12.7918 70.1396C13.7131 70.1396 14.0425 71.7403 14.1523 72.7486C15.183 72.8802 16.5439 73.2088 16.5439 74.064C16.5439 74.9192 15.1619 75.2697 14.1084 75.4014C13.9551 76.4974 13.6038 77.6373 12.7918 77.6373ZM10.2029 74.064C10.7687 74.292 11.3704 74.4181 11.9802 74.4365L12.397 74.4813L12.4418 74.8981C12.4827 75.4382 12.6008 75.9697 12.7927 76.4764C13.0067 75.9755 13.1329 75.4417 13.166 74.8981V74.4813L13.6047 74.4365C14.2141 74.4154 14.8154 74.2893 15.382 74.064C15.1189 73.9324 14.5484 73.7788 13.6266 73.6915H13.1879V73.2527C13.122 72.2444 12.9464 71.6087 12.7927 71.3234C12.5626 71.9416 12.4366 72.5935 12.4198 73.2527V73.6915H11.9811C11.0365 73.7788 10.466 73.9324 10.2029 74.064Z" fill="#DBF122"/>
<path d="M2.80841 87.0634C2.17207 87.0634 1.88706 86.2525 1.75531 85.4413C0.877881 85.3316 0 85.0468 0 84.3672C0 83.6875 0.855923 83.4023 1.73336 83.2926C1.82298 82.4375 2.08469 81.4072 2.80886 81.4072C3.53304 81.4072 3.81849 82.437 3.90588 83.2926C4.78376 83.4019 5.63968 83.6871 5.63968 84.3672C5.63968 85.0473 4.7618 85.3316 3.88392 85.4417C3.75217 86.2525 3.46671 87.0634 2.80841 87.0634ZM1.40443 84.3672C1.67914 84.4245 1.95776 84.4612 2.23795 84.4769L2.65515 84.5216L2.69997 84.938C2.74478 85.2447 2.76539 85.4641 2.80931 85.6396C2.86529 85.4082 2.90927 85.174 2.94106 84.938V84.5216L3.37978 84.4769C3.65954 84.4597 3.93776 84.4231 4.2124 84.3672C3.94078 84.2896 3.66074 84.2454 3.37843 84.2355H2.96212L2.91731 83.7972C2.90736 83.4719 2.8632 83.1485 2.78556 82.8323C2.7188 83.1504 2.67492 83.4729 2.65426 83.7972V84.2355H2.21509C1.9406 84.2471 1.66846 84.2913 1.40443 84.3672Z" fill="#162B43"/>
<path d="M100.537 18.1401C99.5941 18.1401 99.2208 16.6277 99.0676 15.4877C97.8169 15.3561 96.1489 14.9836 96.1489 13.9968C96.1489 13.01 97.7949 12.638 99.0237 12.5063C99.1133 11.3225 99.4624 9.41699 100.537 9.41699C101.612 9.41699 101.942 11.3243 102.052 12.5063C103.28 12.638 104.904 13.0105 104.904 13.9968C104.904 14.9832 103.237 15.3561 102.008 15.4877C101.854 16.6263 101.481 18.1401 100.537 18.1401ZM97.2244 13.9968C97.4875 14.1504 98.2336 14.4356 99.5502 14.5233L99.967 14.5681L100.012 14.9849C100.122 16.1907 100.363 16.8484 100.538 17.0673C100.692 16.8484 100.933 16.1907 101.043 14.9849L101.088 14.5681L101.504 14.5233C102.843 14.4338 103.566 14.1504 103.831 13.9968C103.567 13.8218 102.845 13.5585 101.548 13.4488H101.11V13.0105C101.02 11.5634 100.737 10.7745 100.561 10.4893C100.386 10.7745 100.079 11.5639 99.9907 13.0105V13.4474H99.574C98.2117 13.5585 97.4875 13.8218 97.2244 13.9968Z" fill="#162B43"/>
<path d="M30.4991 85.7699C30.2376 85.7699 29.9868 85.6661 29.8019 85.4814C29.6171 85.2967 29.5132 85.0461 29.5132 84.7849V20.3321C29.5132 20.0705 29.6172 19.8196 29.8023 19.6346C29.9875 19.4496 30.2386 19.3457 30.5004 19.3457C30.7622 19.3457 31.0133 19.4496 31.1985 19.6346C31.3836 19.8196 31.4876 20.0705 31.4876 20.3321V84.7835C31.4876 85.0448 31.3838 85.2953 31.1989 85.48C31.014 85.6648 30.7632 85.7685 30.5018 85.7685L30.4991 85.7699Z" fill="#162B43"/>
<path d="M34.7559 4.00005H24.5969C24.1333 3.99693 23.6808 4.14209 23.3058 4.4143C22.9307 4.68651 22.6526 5.07149 22.5122 5.51293L16.9173 23.6424C16.8176 23.9674 16.7958 24.3113 16.8535 24.6463C16.9112 24.9814 17.0469 25.2982 17.2496 25.5712C17.4523 25.8443 17.7164 26.0659 18.0205 26.2184C18.3247 26.3708 18.6604 26.4497 19.0007 26.4487H41.8641C42.217 26.4476 42.5643 26.3607 42.876 26.1953C43.1876 26.03 43.4543 25.7913 43.6529 25.4999C43.8515 25.2084 43.976 24.873 44.0157 24.5227C44.0554 24.1724 44.009 23.8177 43.8807 23.4892L36.7528 5.38129C36.5979 4.97688 36.3244 4.62862 35.9681 4.38216C35.6118 4.13569 35.1893 4.0025 34.7559 4.00005Z" fill="#007EEF"/>
<path d="M19.8574 23.9713H29.9067C29.9567 23.973 30.0067 23.9647 30.0534 23.9467C30.1002 23.9288 30.1429 23.9016 30.1789 23.8668C30.215 23.832 30.2437 23.7903 30.2632 23.7442C30.2828 23.6982 30.2929 23.6486 30.2929 23.5985C30.2929 23.5485 30.2828 23.4989 30.2632 23.4528C30.2437 23.4068 30.215 23.3651 30.1789 23.3303C30.1429 23.2955 30.1002 23.2683 30.0534 23.2504C30.0067 23.2324 29.9567 23.2241 29.9067 23.2258H19.8574C19.8073 23.2241 19.7574 23.2324 19.7106 23.2504C19.6639 23.2683 19.6212 23.2955 19.5851 23.3303C19.5491 23.3651 19.5204 23.4068 19.5009 23.4528C19.4813 23.4989 19.4712 23.5485 19.4712 23.5985C19.4712 23.6486 19.4813 23.6982 19.5009 23.7442C19.5204 23.7903 19.5491 23.832 19.5851 23.8668C19.6212 23.9016 19.6639 23.9288 19.7106 23.9467C19.7574 23.9647 19.8073 23.973 19.8574 23.9713Z" fill="#162B43"/>
<path d="M31.6826 23.9713H35.1287C35.1788 23.973 35.2287 23.9647 35.2755 23.9467C35.3223 23.9288 35.365 23.9016 35.401 23.8668C35.437 23.832 35.4657 23.7903 35.4853 23.7442C35.5049 23.6982 35.5149 23.6486 35.5149 23.5985C35.5149 23.5485 35.5049 23.4989 35.4853 23.4528C35.4657 23.4068 35.437 23.3651 35.401 23.3303C35.365 23.2955 35.3223 23.2683 35.2755 23.2504C35.2287 23.2324 35.1788 23.2241 35.1287 23.2258H31.6826C31.5859 23.2292 31.4943 23.2699 31.4271 23.3394C31.3598 23.409 31.3223 23.5019 31.3223 23.5985C31.3223 23.6952 31.3598 23.7881 31.4271 23.8577C31.4943 23.9272 31.5859 23.9679 31.6826 23.9713Z" fill="#162B43"/>
<path d="M13.6477 29.5394L15.9954 28.5544C16.4341 28.3788 16.2589 27.6558 15.7982 27.8308L13.4505 28.8158C13.0113 28.9913 13.187 29.7368 13.6477 29.5394Z" fill="#DBF122"/>
<path d="M44.2346 29.476C44.9269 30.5291 45.9676 31.3056 47.1748 31.6699C47.6355 31.8234 47.8331 31.0999 47.3724 30.9463C46.3567 30.6392 45.48 29.988 44.8929 29.1048C44.6079 28.6849 43.9716 29.0793 44.2346 29.476Z" fill="#DBF122"/>
<path d="M39.1443 30.8987C39.5396 31.9614 40.1272 32.9425 40.8777 33.7928C41.2066 34.1434 41.7332 33.6173 41.4262 33.2444C40.7481 32.5047 40.219 31.6414 39.868 30.7017C39.6928 30.241 38.9687 30.4384 39.1443 30.8987Z" fill="#DBF122"/>
<path d="M24.0922 30.1099L22.6438 34.6038C22.4901 35.064 23.2143 35.2615 23.368 34.8232L24.8159 30.3069C24.9696 29.8466 24.2459 29.6492 24.0922 30.1099Z" fill="#DBF122"/>
<path d="M54.7885 46.924C58.1898 46.727 61.5906 46.705 64.9915 46.8147C65.0357 46.8164 65.0799 46.8091 65.1212 46.7933C65.1626 46.7775 65.2003 46.7535 65.2322 46.7228C65.2641 46.6921 65.2894 46.6553 65.3068 46.6146C65.3241 46.5739 65.333 46.5301 65.333 46.4859C65.333 46.4416 65.3241 46.3979 65.3068 46.3572C65.2894 46.3164 65.2641 46.2796 65.2322 46.2489C65.2003 46.2182 65.1626 46.1943 65.1212 46.1785C65.0799 46.1627 65.0357 46.1554 64.9915 46.157C61.5906 46.0473 58.1898 46.0675 54.7885 46.2663C54.3718 46.2882 54.3718 46.9459 54.7885 46.924Z" fill="#162B43"/>
<path d="M49.5006 47.3618H51.9581C52.0433 47.3587 52.124 47.3227 52.1831 47.2613C52.2423 47.2 52.2753 47.1181 52.2753 47.033C52.2753 46.9478 52.2423 46.8659 52.1831 46.8046C52.124 46.7433 52.0433 46.7072 51.9581 46.7041H49.5006C49.4154 46.7072 49.3347 46.7433 49.2756 46.8046C49.2164 46.8659 49.1833 46.9478 49.1833 47.033C49.1833 47.1181 49.2164 47.2 49.2756 47.2613C49.3347 47.3227 49.4154 47.3587 49.5006 47.3618Z" fill="#162B43"/>
<path d="M64.9475 19.2362C65.0239 19.2364 65.0979 19.2101 65.157 19.1619C65.2161 19.1136 65.2567 19.0464 65.2717 18.9716C65.2868 18.8969 65.2754 18.8192 65.2395 18.7519C65.2037 18.6846 65.1456 18.6317 65.0751 18.6024C65.0046 18.5731 64.9262 18.5692 64.8531 18.5912C64.78 18.6132 64.7168 18.6599 64.6743 18.7233C64.6319 18.7866 64.6127 18.8627 64.6201 18.9386C64.6275 19.0145 64.661 19.0855 64.7149 19.1395C64.7766 19.2012 64.8602 19.236 64.9475 19.2362Z" fill="#162B43"/>
<path d="M77.8057 25.506C75.3482 22.7439 73.8783 19.0609 73.4588 15.3998C73.4808 15.0054 73.5037 14.6324 73.5485 14.2358C73.5481 14.1821 73.5336 14.1295 73.5064 14.0832C73.4793 14.037 73.4405 13.9986 73.3939 13.972C73.3473 13.9452 73.2944 13.9313 73.2406 13.9317C73.187 13.9317 73.1343 13.9457 73.0878 13.9725C72.3208 14.5422 71.6414 15.221 71.0712 15.9873C70.369 14.606 70.3036 13.0497 70.2597 11.5149C70.2597 11.2082 69.8205 11.0546 69.6892 11.3618C69.169 12.3853 68.8767 13.5091 68.8324 14.6562C68.2376 14.1306 67.7463 13.4986 67.384 12.7927C67.2308 12.486 66.8355 12.6615 66.7916 12.9463C66.6823 13.9985 66.6164 15.0291 66.5944 16.0804C66.0029 15.577 65.4524 15.0273 64.9485 14.4363C64.903 14.395 64.8467 14.3674 64.7862 14.3566C64.741 14.3487 64.6945 14.3503 64.6499 14.3613C64.6052 14.3724 64.5634 14.3926 64.527 14.4207C64.4907 14.4488 64.4606 14.4842 64.4387 14.5246C64.4168 14.565 64.4036 14.6095 64.4 14.6553C64.4896 15.4007 64.5756 16.1681 64.6415 16.9132L63.566 16.1901C63.5129 16.1552 63.4502 16.1377 63.3867 16.1399C63.3232 16.1421 63.262 16.164 63.2114 16.2024C63.1609 16.2409 63.1235 16.2941 63.1045 16.3547C63.0855 16.4153 63.0858 16.4802 63.1053 16.5407C63.6977 18.3164 64.2902 20.0701 64.9045 21.8458C65.0358 22.2407 65.6283 22.0652 65.497 21.6922C65.4482 21.4994 65.3896 21.3091 65.3213 21.1223C65.3754 21.1002 65.4213 21.062 65.453 21.013C65.6941 20.5304 65.8698 20.0043 66.2427 19.6098C66.6172 19.2356 67.0556 18.9311 67.5373 18.7108C68.5272 18.1944 69.6244 17.9167 70.741 17.9C71.1138 18.2286 71.5525 18.5138 71.9478 18.7986C71.991 18.8342 72.0452 18.8537 72.1012 18.8537C72.1573 18.8537 72.2115 18.8342 72.2547 18.7986C72.302 19.0085 72.3387 19.2207 72.3645 19.4343C72.4093 19.7195 72.7593 19.7195 72.913 19.544C72.9319 19.5955 72.9643 19.641 73.0068 19.6758C73.0493 19.7105 73.1003 19.7332 73.1546 19.7415C73.2644 20.2237 73.3737 20.6839 73.5055 21.1442C73.5146 21.1904 73.5343 21.2338 73.563 21.2712C73.5916 21.3085 73.6285 21.3388 73.6707 21.3596C73.713 21.3804 73.7595 21.3912 73.8066 21.3912C73.8537 21.3912 73.9001 21.3804 73.9424 21.3596C73.9994 21.3321 74.0464 21.2875 74.0768 21.232L74.5375 22.2407C74.482 22.2373 74.4267 22.2488 74.3771 22.2738C74.3276 22.2994 74.2861 22.3379 74.257 22.3853C74.2282 22.4327 74.2127 22.487 74.2122 22.5425C74.2117 22.5981 74.2261 22.6528 74.2538 22.701C74.5384 23.2167 74.8757 23.7017 75.2603 24.148C75.3289 24.3422 75.3875 24.5398 75.436 24.7399C75.3651 24.7853 75.3143 24.8559 75.2939 24.9375C75.2734 25.0191 75.285 25.1054 75.3262 25.1787C75.3308 25.2253 75.3462 25.2702 75.371 25.3099C75.3936 25.3596 75.431 25.4011 75.4783 25.4286C75.5255 25.4562 75.5801 25.4683 75.6345 25.4635C75.6588 25.5155 75.6956 25.5607 75.7416 25.5951C75.7875 25.6293 75.841 25.6519 75.8976 25.6609L75.4369 25.8364C75.397 25.8655 75.3643 25.9031 75.3409 25.9465C75.3176 25.9899 75.3044 26.038 75.3022 26.0872C75.3 26.1365 75.3089 26.1856 75.3283 26.2309C75.3476 26.2762 75.3769 26.3166 75.414 26.3491C75.4637 26.3924 75.5252 26.42 75.5906 26.4283C76.205 26.3835 77.0824 26.4731 77.6072 26.0553C77.6631 26.0415 77.7147 26.0141 77.7575 25.9755C77.8002 25.9369 77.8328 25.8883 77.8523 25.8342C77.872 25.7801 77.8778 25.7219 77.8693 25.6649C77.8616 25.6075 77.8398 25.5529 77.8057 25.506Z" fill="#162B43"/>
<path d="M73.1541 21.3188C73.0882 21.0779 73.1541 20.7927 73.3732 20.8146C73.5924 20.8366 73.5269 20.8366 73.6148 20.9463C73.6886 21.0509 73.7546 21.1607 73.8124 21.2749C73.8344 21.3645 74.0315 21.8234 73.7676 21.7356C73.5036 21.6479 73.6578 21.3407 73.678 21.2315L73.5243 21.4065C73.4145 21.4961 73.3047 21.317 73.4346 21.5382C73.4844 21.604 73.5216 21.6783 73.5444 21.7576C73.6981 22.1301 74.2906 21.9765 74.1588 21.5821C74.0271 21.1876 73.8738 20.9024 73.5444 20.8146C73.2151 20.7269 73.0179 21.0999 73.0398 21.4065C73.0618 21.7132 73.1496 22.2178 73.4786 22.3275C73.636 22.3783 73.8041 22.3868 73.9659 22.3521C74.1277 22.3174 74.2775 22.2409 74.4003 22.1301C74.6634 21.8234 74.5316 21.4065 74.4003 21.0779C74.269 20.7493 74.049 20.3763 73.7421 20.2228C73.4351 20.0692 72.9959 20.2008 72.7324 20.3544C72.578 20.4499 72.4624 20.5969 72.4062 20.7695C72.35 20.942 72.3568 21.1289 72.4255 21.2969C72.5572 21.6698 73.1496 21.5162 73.0179 21.1218L73.1541 21.3188Z" fill="white"/>
<path d="M100.954 34.8665C105.518 36.6203 105.672 42.6704 106.045 46.7483C106.476 51.4994 106.645 56.2707 106.549 61.0403C106.527 61.4567 107.186 61.4567 107.208 61.0403C107.318 55.5498 107.076 50.0579 106.484 44.5983C106.045 40.6525 105.343 35.8515 101.13 34.2294C100.735 34.0772 100.56 34.7138 100.954 34.8665Z" fill="white"/>
<path d="M107.274 64.3535C107.416 67.9155 107.306 71.4831 106.944 75.0296C106.899 75.446 107.559 75.446 107.602 75.0296C107.964 71.4831 108.074 67.9155 107.932 64.3535C107.909 63.9134 107.252 63.9134 107.274 64.3535Z" fill="white"/>
<path d="M78.5299 76.7385C78.4201 73.9322 78.2444 71.1263 78.2664 68.3212C78.2883 67.1155 78.4201 64.4627 80.0656 64.2657C81.7111 64.0687 81.3163 67.1374 81.3163 68.2774C81.3195 68.3625 81.3555 68.4431 81.4169 68.5022C81.4783 68.5613 81.5602 68.5943 81.6455 68.5943C81.7307 68.5943 81.8127 68.5613 81.8741 68.5022C81.9354 68.4431 81.9715 68.3625 81.9746 68.2774C81.9746 67.2686 82.0405 66.2178 81.9746 65.2301C81.9298 64.726 81.799 64.2657 81.3822 63.9366C80.373 63.1473 79.0564 63.7392 78.4201 64.6821C77.4544 66.1726 77.5861 68.1677 77.63 69.8556C77.7197 72.1354 77.7837 74.4372 77.8716 76.7394C77.8747 76.8246 77.9108 76.9051 77.9722 76.9643C78.0335 77.0234 78.1155 77.0564 78.2007 77.0564C78.286 77.0564 78.3679 77.0234 78.4293 76.9643C78.4907 76.9051 78.5267 76.8246 78.5299 76.7394V76.7385Z" fill="white"/>
<path d="M116.95 92.8509C116.292 92.8509 116.006 91.9523 115.875 91.0752C115.019 90.966 113.922 90.7027 113.922 89.9792C113.922 89.2557 114.997 88.9709 115.853 88.8832C115.94 87.9626 116.203 86.8008 116.95 86.8008C117.696 86.8008 117.98 87.9649 118.07 88.8832C118.925 88.9727 120.001 89.2557 120.001 89.9792C120.001 90.7027 118.881 90.9642 118.026 91.0752C117.915 91.9523 117.63 92.8509 116.95 92.8509ZM114.975 89.9792C115.408 90.12 115.859 90.2012 116.314 90.2205H116.687V90.593C116.72 90.9958 116.801 91.3932 116.928 91.7768C117.065 91.3949 117.154 90.9971 117.191 90.593V90.2205H117.564C118.013 90.2043 118.456 90.123 118.881 89.9792C118.468 89.8162 118.03 89.7272 117.586 89.7164H117.213V89.3215C117.198 88.8269 117.102 88.3382 116.928 87.8749C116.776 88.3431 116.687 88.8297 116.665 89.3215V89.7164H116.292C115.841 89.7309 115.397 89.8197 114.975 89.9792Z" fill="#162B43"/>
</g>
<defs>
<clipPath id="clip0_222_4223">
<rect width="120" height="120" fill="white"/>
</clipPath>
</defs>
</svg>
