<svg width="327" height="239" viewBox="0 0 327 239" fill="none" xmlns="http://www.w3.org/2000/svg">
<g clip-path="url(#clip0_222_5018)">
<path d="M194.992 173.511C189.936 165.86 184.647 157.978 176.894 153.093L129.836 227.988C129.456 228.595 129.059 229.278 129.19 229.983C129.432 231.291 131.144 231.591 132.471 231.597C162.171 231.715 191.838 233.574 221.321 237.163C226.164 237.753 234.673 239.03 233.327 232.084C232.155 226.053 224.817 218.639 221.46 213.56L194.992 173.511Z" fill="#DBF122"/>
<path d="M162.301 232.665C185.149 233.246 234.151 235.84 234.109 237.499C234.066 239.159 184.997 239.259 162.148 238.675C120.449 237.614 119.612 236.246 119.653 234.586C119.695 232.926 120.601 231.604 162.301 232.665Z" fill="#162B43"/>
<path d="M260.891 10.1822C253.822 12.8308 236.582 19.2344 229.322 22.3774C229.322 22.3693 229.333 22.3485 229.328 22.3422C229.244 22.2165 228.607 22.5031 227.675 23.1241C227.26 23.3248 226.43 23.7279 226.773 23.7713C222.089 27.3356 217.775 33.3044 215.581 41.1218C214.702 44.5107 214.516 47.1783 214.521 49.167C214.499 51.1557 214.731 52.5026 214.925 53.3885C215.001 53.6976 215.096 54.0017 215.21 54.2988C215.069 54.2243 214.904 54.2074 214.751 54.2518C213.988 54.4235 213.232 55.2389 216.504 70.9921C220.416 89.2068 225.742 107.255 231.591 124.709C232.03 125.864 232.629 128.879 236.158 130.342C194.506 142.462 165.409 149.856 133.817 157.569C134.999 156.076 135.621 154.215 135.576 152.31C135.459 150.093 128.894 115.956 119.488 85.4355C113.765 67.3049 112.643 66.8655 111.902 67.0924C111.593 67.1828 111.361 67.3772 111.411 68.471C111.382 68.471 111.357 68.4619 111.326 68.4592C112.154 66.2445 105.059 51.0391 88.7009 44.762C86.4039 43.8717 84.0156 43.239 81.5796 42.8755C82.3735 42.5474 81.1728 42.6387 80.2571 42.7209C79.0537 42.6215 78.3194 42.6793 78.3095 42.8204C78.3041 42.8502 78.3708 42.8881 78.3997 42.9216C65.6736 44.442 19.2248 52.2829 6.58531 54.4045C2.79645 54.9107 0.601609 57.4915 0.103644 60.3842C0.00775827 60.9294 -0.0225284 61.4842 0.0134329 62.0366C0.0287688 62.7263 0.270535 63.6547 2.29848 73.0468C25.6072 179.641 23.7345 171.487 24.6708 173.703C26.0159 176.957 28.2838 179.081 31.2166 180.229L26.494 181.223C11.3223 184.477 10.8325 185.332 10.9777 186.15C11.1229 186.968 11.8554 187.597 27.2545 185.406C31.1074 184.88 35.8606 184.083 41.7523 183.08C61.0512 179.855 94.3373 173.248 130.862 164.48C142.159 161.724 155.76 158.314 170.402 154.389C167.226 158.925 163.303 166.441 153.583 181.429C143.442 197.519 119.2 230.924 120.575 231.98C121.82 232.955 148.217 201.181 158.609 184.718C168.238 169.87 171.94 161.505 173.584 157.19C174.301 155.171 174.548 154.004 174.546 153.272L174.914 153.171C176.453 156.593 181.056 164.426 187.071 173.178C198.996 190.649 229.079 229.765 231.691 232.839C234.866 236.657 235.612 236.422 236.306 235.97C241.777 232.407 194.883 176.119 190.479 170.643C184.074 162.733 178.775 155.776 176.143 152.835C210.533 143.464 248.753 131.683 282.073 119.989C292.314 116.868 301.959 113.602 311.838 109.853C314.058 109.006 316.548 108.045 318.957 106.328C327.692 102.822 330.446 101.399 321.492 104.052C325.745 98.9459 323.375 93.7961 321.394 87.4278C318.106 76.7566 321.422 87.4332 298.131 12.6419C297.293 9.98333 296.147 6.35305 295.484 4.25768C293.931 0.384238 290.173 -0.844235 286.794 0.55147C269.94 6.77971 273.889 5.3135 266.754 7.98649M225.763 87.7631C224.435 83.2976 223.309 79.3898 222.348 76.0172L223.309 79.4323L225.763 87.7631ZM220.802 50.1867C220.779 50.1975 220.828 50.1867 220.811 50.1966C220.81 50.2132 220.807 50.2295 220.8 50.2445C220.78 50.2721 220.754 50.2947 220.724 50.3104C220.694 50.3261 220.661 50.3345 220.627 50.3349C220.373 50.2798 220.075 49.9616 219.842 49.8305C219.485 49.5928 219.125 49.1978 218.716 48.8172C218.987 48.6364 219.262 48.4972 219.535 48.4782C220.325 48.3661 221.558 49.2836 221.159 49.704C221.069 49.8833 220.949 50.0464 220.806 50.1867H220.802ZM228.685 23.3971C229.013 23.313 229.38 23.2163 229.785 23.1024C229.766 24.2956 230.812 29.0242 232.567 34.5636C234.696 41.3433 236.303 44.7042 236.395 45.3297C236.533 46.1804 236.292 46.8999 235.796 47.4414C235.05 48.1709 235.454 47.7794 226.975 50.551C227.56 45.5159 221.98 42.2888 217.915 44.5388C219.836 34.3865 223.685 29.4283 228.685 23.3971ZM264.245 8.9266L262.411 9.61361L264.245 8.9266ZM221.888 74.4C220.259 68.678 217.835 59.7948 216.379 56.2305C216.892 56.2215 217.678 56.1103 218.926 55.8319C221.083 56.6626 223.487 56.1184 225.326 54.1144C228.697 53.129 232.16 52.047 235.464 50.9957C238.011 50.297 239.794 47.6511 239.143 44.7286C238.918 43.6782 237.805 41.8224 234.558 33.8432C232.383 28.5352 230.741 24.019 230.083 23.0201C241.195 19.8997 277.038 7.85632 288.055 4.16638C289.894 3.52457 291.005 4.11666 291.573 5.29904C291.718 5.55847 317.908 95.011 318.082 96.7005C318.29 98.7389 317.669 99.9493 316.056 101.28C314.432 102.552 312.181 103.467 309.772 104.336C289.403 111.888 265.438 119.119 244.022 123.957C238.832 125.097 238.805 125.265 238.054 124.784C237.603 124.403 237.603 124.445 237.053 122.819C233.552 112.734 230.301 102.932 226.2 89.223M103.698 59.3645C98.1225 58.7525 93.8925 65.8902 97.9638 70.5555C86.6143 72.8841 87.4713 73.0115 86.2138 72.6635C85.3216 72.3715 84.581 71.7044 84.2075 70.6639C83.9206 69.901 83.7158 65.9417 81.9206 57.3107C80.4944 50.3729 78.8183 44.791 78.2102 43.8039C78.7305 43.6785 79.1969 43.5628 79.6094 43.4567C81.3036 44.0479 84.4583 45.0097 87.8565 46.711C93.9786 49.746 99.3803 54.0608 103.698 59.3645ZM104.78 63.5227C104.4 64.6436 104.404 65.9634 104.058 66.6739C103.936 66.9397 103.767 67.0255 103.727 66.9921C103.161 67.1503 101.986 66.6802 101.942 65.8296C101.87 65.0269 102.704 63.8111 103.601 63.5697C103.958 63.4576 104.365 63.464 104.777 63.5236L104.78 63.5227ZM109.471 67.8201C109.624 68.05 109.795 68.2673 109.982 68.47C109.787 68.4854 109.552 68.5107 109.32 68.536C109.384 68.3009 109.433 68.0621 109.467 67.821L109.471 67.8201ZM4.0143 61.7636C3.94963 61.0203 4.14341 60.2775 4.56278 59.661C5.70936 58.0005 2.91913 59.1042 54.5713 48.8416C60.6218 47.614 72.0245 45.2827 77.9712 43.8608C77.8683 45.0179 78.8967 50.7218 79.8286 57.6696C81.1628 67.4323 81.1529 70.3557 81.5156 71.5001C82.5223 74.7751 85.7627 76.3354 88.6495 75.5986C92.8822 74.6947 97.3296 73.7229 101.54 72.7277C103.763 73.3107 106.092 72.9256 107.826 71.1358C109.862 70.5627 110.983 70.1514 111.561 69.8341C111.928 72.3182 113.005 77.1164 115.401 86.5744C115.942 88.7819 116.554 91.2566 117.238 93.9986C114.685 97.2348 111.136 99.068 106.954 98.5672C103.945 98.1857 102.391 96.9609 100.629 95.877C99.7265 95.2913 99.4126 95.4332 99.0761 95.6962C98.7603 95.9403 98.4347 96.216 99.0932 97.345C100.192 99.1213 102.932 101.086 106.592 101.553C111.125 102.115 115.567 99.727 117.732 95.9927C119.501 103.206 130.651 150.83 129.558 153.475C129.253 154.074 128.893 154.351 128.411 154.586C109.954 160.75 76.5089 169.347 43.5006 174.744C38.0022 175.686 32.0853 176.472 29.9392 171.433C29.2743 169.909 31.1832 177.364 6.45361 72.1582C4.487 63.9214 4.0143 62.0547 4.01159 61.76L4.0143 61.7636Z" fill="#162B43"/>
<path d="M78.3482 42.1663C77.5218 42.1031 77.4641 34.0082 77.7492 30.2604C78.2688 23.4201 78.9499 23.3288 79.7762 23.3903C80.6025 23.4518 81.2611 23.647 80.7415 30.4872C80.4564 34.2368 79.1745 42.2287 78.3482 42.1663Z" fill="#162B43"/>
<path d="M67.3272 43.8865C66.8427 43.9028 66.4918 42.1229 64.3331 34.0154C62.7093 28.4235 63.0016 28.1397 63.845 27.798C64.5306 27.5105 65.4959 27.2646 67.2352 33.2488C67.679 34.894 68.0597 37.5625 68.0525 39.8133C68.0624 42.0669 67.7349 43.8739 67.3272 43.8865Z" fill="#162B43"/>
<path d="M53.1613 39.8322C50.9962 36.0166 51.5312 35.6035 52.251 35.1931C52.9709 34.7827 53.6042 34.5278 55.7693 38.3442C56.9574 40.4351 58.9267 45.2559 58.205 45.6663C57.4833 46.0767 54.3493 41.923 53.1613 39.8322Z" fill="#162B43"/>
<path d="M34.7203 131.334C35.4943 131.149 35.5151 132.529 37.8696 132.806C41.6846 133.125 43.349 128.36 46.6201 125.522C51.8306 120.936 56.9204 125.678 60.9005 125.064C64.8391 124.682 67.9369 118.779 72.8652 116.603C81.6021 112.916 88.2092 123.533 97.1717 120.969C102.365 119.538 107.254 114.732 107.587 115.141C107.697 115.273 106.241 116.991 103.371 119.312C99.0697 122.673 94.6304 124.304 89.4487 122.656C84.0649 121.082 78.5142 116.913 73.9685 119.141C71.7601 120.148 69.9856 122.238 68.0894 124.069C60.232 131.801 55.8902 126.051 51.348 126.457C47.5285 126.667 45.7288 132.03 41.9183 134.167C40.3847 135.094 38.6138 135.214 37.4979 134.89C34.3838 134.114 33.8678 131.525 34.7203 131.334Z" fill="#162B43"/>
<path d="M68.5196 145.763C71.1096 145.25 74.4997 144.414 78.3527 144.292C87.1627 144.021 88.0486 148.902 97.3178 143.725C99.2916 142.589 100.525 141.827 100.656 142C100.771 142.155 99.8031 143.22 97.97 144.697C91.7292 149.501 88.3481 148.266 83.6544 147.372C78.681 146.347 74.083 147.714 69.1403 148.706C50.1328 152.709 49.597 152.135 49.4265 151.322C49.256 150.508 49.5149 149.766 68.5196 145.763Z" fill="#162B43"/>
<path d="M300.423 86.3017C295.515 89.066 290.383 83.8692 285.899 85.1528C282.431 85.9393 283.152 91.5655 280.168 94.3641C278.895 95.5808 276.913 95.8954 275.477 95.504C274.026 95.1578 272.951 94.5096 271.993 93.9673C263.951 89.1266 268.966 97.9573 260.766 99.4651C256.671 100.222 252.976 98.6588 249.641 100.395C247.657 101.429 247.915 102.598 247.105 102.525C246.901 102.507 246.702 102.477 246.612 101.884C246.555 101.363 246.725 99.8954 248.513 98.5946C251.251 96.5932 254.827 96.9033 257.3 96.9114C263.578 96.8482 262.713 94.6949 264.417 91.7218C265.46 89.989 267.543 89.0362 270.461 89.9139C274.464 91.1207 277.48 95.8186 279.76 89.5198C280.211 88.3392 280.585 86.9987 281.399 85.6518C282.145 84.2886 283.675 83.0529 285.278 82.7311C290.879 81.5207 295.67 86.7221 299.65 84.8003C301.349 84.0165 302.343 82.3035 302.735 80.8699C303.574 77.8037 301.938 76.059 302.194 75.9533C302.236 75.9063 302.735 76.1829 303.228 77.038C304.813 79.6613 303.867 84.3329 300.423 86.3017Z" fill="#162B43"/>
<path d="M210.131 175.054C210.786 174.546 211.542 174.422 222.287 188.351C228.175 195.981 240.278 212.767 239.623 213.275C238.968 213.783 225.798 197.82 219.913 190.192C209.168 176.265 209.475 175.562 210.131 175.054Z" fill="#162B43"/>
<path d="M231.142 181.342C231.823 180.869 232.465 180.618 236.716 186.765C239.045 190.137 243.491 197.756 242.81 198.228C242.129 198.701 236.578 191.849 234.248 188.477C229.998 182.328 230.461 181.814 231.142 181.342Z" fill="#162B43"/>
<path d="M184.331 188.836C184.034 189.125 183.819 189.444 184.813 190.894C185.753 192.386 188.041 194.911 191.759 200.415C193.801 203.425 196.762 208.338 198.851 212.721C200.983 217.079 202.361 220.816 202.778 220.699C203.159 220.599 202.495 216.604 200.808 211.898C199.17 207.179 196.381 201.879 194.255 198.746C190.381 193.014 187.735 190.603 186.367 189.447C184.942 188.334 184.629 188.549 184.331 188.836Z" fill="white"/>
<path d="M220.693 73.8276C220.693 73.8276 221.595 70.031 229.083 71.2062C236.571 72.3813 237.382 73.6468 240.991 76.9011C244.599 80.1553 238.555 78.257 237.112 77.7146C235.668 77.1723 233.233 74.7316 228.452 75.6355C223.67 76.5395 222.519 78.0572 222.519 78.0572L220.693 73.8276Z" fill="#162B43"/>
</g>
<defs>
<clipPath id="clip0_222_5018">
<rect width="327" height="239" fill="white"/>
</clipPath>
</defs>
</svg>
