<svg width="104" height="104" viewBox="0 0 104 104" fill="none" xmlns="http://www.w3.org/2000/svg">
<g clip-path="url(#clip0_222_5532)">
<path d="M91.1152 77.0256L32.4808 98.8165L11.0156 48.2549L74.7774 24.5566L91.1152 77.0256Z" fill="white"/>
<path d="M100.012 82.2191L41.3778 104L20.4169 54.6454L17.9994 55.5421L14.118 45.1049L82.601 19.6504L86.4804 30.0936L84.0649 30.9903L100.012 82.2191Z" fill="#162B43"/>
<path d="M91.1152 77.0257L32.4808 98.8167L11.5199 49.45L9.10242 50.3527L5.22302 39.9154L73.706 14.4629L77.5873 24.9041L75.1698 25.8008L91.1152 77.0257Z" fill="#007EEF"/>
<path d="M39.4725 29.4105C39.1724 29.4112 38.8752 29.3511 38.599 29.2337C38.3227 29.1164 38.0732 28.9442 37.8654 28.7276C37.6582 28.5108 37.4967 28.2545 37.3905 27.9741C37.2843 27.6936 37.2356 27.3947 37.2473 27.095C37.4472 23.1405 37.8658 19.2002 38.5012 15.292C39.9827 6.3735 42.2707 1.61894 45.6654 0.331696C47.2882 -0.282493 49.8686 -0.345285 52.9454 2.84928C53.9796 3.87133 54.7674 5.11547 55.2492 6.48734C55.731 7.8592 55.894 9.32276 55.7259 10.767C54.6977 19.7032 42.1137 28.1213 40.6793 29.0514C40.3202 29.2852 39.901 29.4099 39.4725 29.4105ZM47.4707 4.46815C47.3926 4.46758 47.315 4.48019 47.2411 4.50543C46.9782 4.6055 44.6097 5.7809 42.8927 15.9964C42.5003 18.3237 42.2295 20.6215 42.0431 22.5308C45.9676 19.3362 50.8203 14.4855 51.3108 10.2627C51.4953 8.62029 50.9988 7.24475 49.741 5.94573C48.8266 4.98422 48.0044 4.46815 47.4707 4.46815Z" fill="#162B43"/>
<path d="M38.2558 29.1632C33.7701 29.1632 23.8254 28.5647 19.5849 23.5394C17.7875 21.4044 17.1949 18.6945 17.8777 15.6903C18.8255 11.5009 21.0174 10.2274 22.6951 9.89771C26.0545 9.24035 30.134 11.6637 35.546 17.5505C37.8785 20.1097 40.0585 22.804 42.0744 25.6194C42.2461 25.8627 42.3672 26.1381 42.4306 26.4291C42.494 26.7201 42.4984 27.0208 42.4435 27.3136C42.3886 27.6063 42.2755 27.885 42.111 28.1333C41.9465 28.3816 41.7339 28.5943 41.4857 28.759C41.1544 28.9772 40.7712 29.1038 40.3751 29.1259C40.0749 29.1298 39.3194 29.1632 38.2558 29.1632ZM23.7351 14.25C23.6764 14.2441 23.6172 14.2441 23.5585 14.25C23.0346 14.354 22.5303 15.2547 22.2124 16.6636C21.8415 18.3119 22.0829 19.5795 22.9835 20.6509C25.3108 23.4138 31.2368 24.3576 35.7598 24.6206C34.763 23.3726 33.5366 21.9264 32.2454 20.5116C26.91 14.7406 24.4219 14.2539 23.7253 14.2539L23.7351 14.25Z" fill="#162B43"/>
<path d="M41.5623 82.6993C41.189 82.6993 40.8217 82.6052 40.4944 82.4259C40.167 82.2465 39.8901 81.9876 39.6891 81.6731C39.4881 81.3585 39.3696 80.9984 39.3444 80.626C39.3192 80.2535 39.3883 79.8808 39.5451 79.542L56.966 41.8666C57.0814 41.5905 57.2509 41.3403 57.4645 41.1307C57.6781 40.922 57.9315 40.7584 58.2096 40.6495C58.4877 40.5406 58.7848 40.4887 59.0833 40.4969C59.3815 40.5029 59.6753 40.5696 59.9467 40.6932C60.2202 40.8159 60.4657 40.9932 60.6681 41.2142C60.8706 41.4352 61.0258 41.6953 61.1241 41.9784C61.2236 42.2601 61.265 42.5591 61.2457 42.8572C61.2265 43.1553 61.1471 43.4465 61.0122 43.7131L43.5913 81.3885C43.4158 81.7781 43.1315 82.1087 42.7726 82.3406C42.4137 82.5724 41.9955 82.6956 41.5682 82.6954L41.5623 82.6993Z" fill="#162B43"/>
<path d="M39.5412 57.6909C38.0057 57.6945 36.5229 57.1311 35.3772 56.1087C34.2315 55.0863 33.5036 53.677 33.333 52.1509C33.1625 50.6249 33.5613 49.0896 34.453 47.8395C35.3448 46.5895 36.6666 45.7126 38.165 45.3771C39.6635 45.0417 41.233 45.2712 42.5727 46.0217C43.9123 46.7722 44.9277 47.9909 45.4241 49.444C45.9205 50.897 45.863 52.4822 45.2626 53.8955C44.6622 55.3088 43.5612 56.4507 42.1707 57.1022C41.3475 57.4876 40.4501 57.6885 39.5412 57.6909ZM39.5412 49.6809C39.094 49.7114 38.6747 49.9093 38.3667 50.235C38.0587 50.5608 37.8847 50.9905 37.8793 51.4388C37.8738 51.887 38.0373 52.3209 38.3373 52.654C38.6373 52.9872 39.0517 53.1951 39.4981 53.2365C39.851 53.2445 40.1984 53.1482 40.4969 52.9598C40.8216 52.7519 41.0705 52.4446 41.2064 52.0838C41.3424 51.723 41.3582 51.3279 41.2515 50.9573C41.1447 50.5868 40.9211 50.2607 40.614 50.0275C40.3069 49.7943 39.9327 49.6665 39.5471 49.6632L39.5412 49.6809Z" fill="#162B43"/>
<path d="M61.1633 80.5798C59.5494 80.581 57.9975 79.9591 56.8311 78.8438C55.6647 77.7284 54.974 76.2058 54.903 74.5935C54.8321 72.9813 55.3864 71.4039 56.4503 70.1904C57.5141 68.9769 59.0055 68.221 60.6132 68.0805C62.2209 67.9399 63.8208 68.4255 65.0791 69.4359C66.3374 70.4464 67.157 71.9037 67.3669 73.5038C67.5769 75.1039 67.1609 76.7233 66.2057 78.0241C65.2506 79.3249 63.8301 80.2068 62.2405 80.4856C61.8846 80.5464 61.5243 80.5779 61.1633 80.5798ZM61.1633 72.5659C61.0614 72.5675 60.9598 72.576 60.8591 72.5914C60.4084 72.6689 60.0048 72.9171 59.7323 73.2844C59.4599 73.6517 59.3394 74.1099 59.3961 74.5637C59.4527 75.0176 59.6821 75.4321 60.0365 75.7212C60.3909 76.0103 60.843 76.1517 61.299 76.116C61.7549 76.0802 62.1796 75.8702 62.4847 75.5295C62.7898 75.1887 62.9518 74.7435 62.9371 74.2864C62.9224 73.8293 62.7321 73.3955 62.4058 73.075C62.0794 72.7546 61.6421 72.5723 61.1848 72.5659H61.1633Z" fill="#162B43"/>
<path d="M9.10244 52.5768C8.64893 52.5763 8.20643 52.4371 7.83429 52.1779C7.46216 51.9187 7.17819 51.5519 7.02048 51.1267L3.13913 40.6894C3.03738 40.4154 2.99064 40.124 3.00155 39.8319C3.01247 39.5397 3.08083 39.2526 3.20274 38.9869C3.32465 38.7213 3.49772 38.4822 3.71205 38.2834C3.92638 38.0846 4.17778 37.93 4.45188 37.8284L8.10169 36.4745C8.37828 36.3589 8.67512 36.2995 8.97489 36.2998C9.27541 36.3019 9.57241 36.3647 9.8481 36.4843C10.2627 36.6645 10.6128 36.9665 10.8518 37.3502C11.0908 37.734 11.2075 38.1814 11.1864 38.633C11.1708 38.9327 11.0954 39.2262 10.9646 39.4964C10.8331 39.7662 10.6486 40.0068 10.422 40.2037C10.1955 40.4005 9.93152 40.5497 9.64599 40.6423L8.08991 41.231L10.4113 47.4867L76.0411 23.1017C76.5942 22.8969 77.2059 22.9195 77.7424 23.1645C78.0079 23.2862 78.2468 23.4591 78.4454 23.6733C78.6441 23.8874 78.7986 24.1386 78.9001 24.4125C79.1049 24.9656 79.0823 25.5772 78.8373 26.1137C78.7156 26.3792 78.5427 26.6181 78.3285 26.8168C78.1144 27.0154 77.8632 27.1699 77.5893 27.2715L9.87754 52.4355C9.6294 52.5275 9.36707 52.5753 9.10244 52.5768Z" fill="#162B43"/>
<path d="M16.0311 38.121C15.5049 38.1276 14.9934 37.9473 14.5876 37.6122C14.1818 37.2771 13.908 36.8088 13.815 36.2908C13.722 35.7728 13.8158 35.2386 14.0797 34.7833C14.3435 34.3279 14.7604 33.9809 15.256 33.804L16.6571 33.286C17.2054 33.0982 17.8053 33.1319 18.3291 33.3799C18.8529 33.628 19.2591 34.0707 19.4612 34.6139C19.6634 35.1571 19.6454 35.7577 19.4112 36.2878C19.1769 36.8179 18.745 37.2356 18.2073 37.4519L16.8062 37.9699C16.5592 38.067 16.2965 38.1183 16.0311 38.121Z" fill="#162B43"/>
</g>
<defs>
<clipPath id="clip0_222_5532">
<rect width="104" height="104" fill="white"/>
</clipPath>
</defs>
</svg>
