<svg width="112" height="112" viewBox="0 0 112 112" fill="none" xmlns="http://www.w3.org/2000/svg">
<g clip-path="url(#clip0_222_4438)">
<path d="M43.7906 109.276C42.9454 109.276 42.076 109.066 41.4517 108.367C40.5695 107.383 40.6666 105.991 40.8274 104.765C41.513 99.5173 44.5094 95.959 49.0467 95.0029C54.551 93.8409 60.1847 93.4157 65.8005 93.7383C66.7363 93.792 67.7155 93.8983 68.4649 94.5344C69.296 95.2371 69.5399 96.3468 69.702 97.3324C70.0658 99.5288 70.2599 102.269 68.5198 103.988C67.1895 105.303 65.2553 105.495 63.5484 105.665C57.6424 106.255 51.7955 107.336 46.0682 108.898C45.5588 109.038 44.6906 109.276 43.7906 109.276ZM41.8398 104.898C41.7122 105.899 41.619 107.022 42.2113 107.683C42.9773 108.538 44.4545 108.277 45.8001 107.91C51.5833 106.333 57.4875 105.241 63.4514 104.646C64.9834 104.492 66.7337 104.318 67.8074 103.259C69.2117 101.87 69.0215 99.452 68.7011 97.4988C68.5619 96.6566 68.3781 95.7939 67.8074 95.3152C67.2967 94.8826 66.5065 94.8032 65.743 94.7597C60.2171 94.442 54.6736 94.8599 49.2573 96.0025C45.1719 96.8652 42.468 100.107 41.8411 104.897L41.8398 104.898Z" fill="#162B43"/>
<path d="M29.4992 103.986C25.5006 103.986 22.0625 103.474 21.1254 101.599C20.685 100.716 20.851 99.6433 21.6157 98.3992H21.594C19.4351 99.0456 16.9877 99.7777 14.9553 98.7333C14.8804 98.6937 14.8157 98.6371 14.7663 98.5681C14.2837 97.8616 14.128 97.1743 14.3105 96.5202C14.6936 95.1596 16.3928 94.3878 17.8942 93.7043L18.1687 93.5763C16.117 92.8173 13.8982 91.8855 11.9844 90.6657C9.0481 88.7957 7.64375 86.7068 7.79951 84.4554C7.83957 83.8995 8.06147 83.3724 8.4308 82.9558C8.80013 82.5393 9.29624 82.2565 9.84219 82.1515C14.2135 81.3029 18.8938 82.0401 23.7579 84.3453C28.8532 86.7631 32.8326 90.2843 35.2748 92.8148C37.9035 95.3657 40.836 98.9201 39.9066 101.379C39.3602 102.828 37.5882 103.629 34.6429 103.761L34.1054 103.794C32.5555 103.916 30.9878 103.986 29.4992 103.986ZM22.9141 96.9887C23.0115 96.9892 23.1067 97.0176 23.1885 97.0706C23.2694 97.1246 23.3339 97.1999 23.3749 97.2882C23.4149 97.3772 23.4286 97.4758 23.4145 97.5723C23.4006 97.6672 23.3598 97.756 23.2971 97.8283C22.0791 99.2619 21.654 100.374 22.0332 101.136C22.3613 101.792 23.5026 102.629 27.085 102.887C29.5885 103.067 32.3691 102.896 34.0301 102.793L34.5778 102.76C36.3026 102.683 38.4538 102.321 38.9389 101.038C39.5032 99.546 37.9022 96.8223 34.5458 93.5661V93.5533C31.658 90.5646 21.3629 80.9777 10.0337 83.1857C9.7076 83.2468 9.41079 83.4142 9.18938 83.6618C8.96798 83.9095 8.83438 84.2236 8.80936 84.5552C8.49402 89.1067 16.5779 91.9674 19.6215 93.0439C19.7126 93.0759 19.7927 93.1332 19.8526 93.209C19.9127 93.2853 19.9499 93.3772 19.9598 93.4739C19.9696 93.5703 19.9519 93.6675 19.9088 93.7542C19.8657 93.8411 19.7988 93.9139 19.716 93.9642C19.2613 94.2229 18.7924 94.4558 18.3116 94.6617C17.0784 95.2211 15.5425 95.9161 15.2923 96.8159C15.2029 97.1359 15.2821 97.4891 15.5349 97.8949C17.1946 98.6629 19.3738 98.0114 21.3029 97.4341C21.8225 97.2779 22.314 97.1308 22.7902 97.0104C22.8305 96.9981 22.872 96.9908 22.9141 96.9887Z" fill="#007EEF"/>
<path d="M78.0767 99.8942C75.8195 99.8942 73.4066 99.5716 72.0329 98.6526C72.0072 98.6348 71.9829 98.6151 71.9601 98.5937C71.3831 98.0318 71.1545 97.2856 71.2835 96.373C71.6984 93.4291 75.9433 89.1093 79.4312 85.999C83.5166 82.355 87.7143 79.3343 89.1901 78.542C93.4223 75.945 97.1055 75.04 99.0601 76.1216C99.4525 76.3308 99.7794 76.6449 100.005 77.0289C100.23 77.413 100.345 77.852 100.337 78.2975C100.358 80.3902 98.3349 82.986 94.9492 85.3117C95.8124 85.5801 96.5531 86.1459 97.0404 86.909C97.7541 88.0508 97.8294 89.7249 95.8914 91.0215C95.877 91.032 95.8616 91.041 95.8454 91.0484C93.9304 92.057 91.7511 92.3066 89.6433 92.5485C88.9527 92.6279 88.2467 92.7098 87.556 92.8173C87.8088 93.1457 87.9898 93.5238 88.0871 93.927C88.2239 94.4883 88.2326 95.0733 88.1126 95.6384C87.9926 96.2035 87.7469 96.7342 87.3938 97.1909C86.2448 98.5643 83.4553 99.5447 79.9125 99.8187C79.3342 99.8686 78.715 99.8942 78.0767 99.8942ZM72.6431 97.827C73.9198 98.6462 76.7974 99.0379 79.8436 98.8024C83.0685 98.5464 85.6627 97.6875 86.61 96.5445C86.8613 96.2123 87.0359 95.8281 87.1211 95.42C87.2063 95.0118 87.2001 94.5897 87.1028 94.1843C87.0185 93.8515 86.7836 93.2563 86.1593 92.9991C86.0573 92.9578 85.9713 92.8846 85.9142 92.7904C85.8566 92.6962 85.8309 92.5858 85.841 92.4758C85.8511 92.3658 85.8965 92.2619 85.9703 92.1799C86.0444 92.098 86.143 92.0423 86.2512 92.0212C87.3382 91.8038 88.4354 91.641 89.5387 91.5335C91.5443 91.3031 93.6164 91.0651 95.359 90.1563C96.4799 89.3973 96.78 88.413 96.1799 87.453C95.5799 86.4931 94.1883 85.8544 93.2091 86.4163L93.1912 86.4265C93.075 86.4843 92.9411 86.4956 92.8168 86.4581C92.6926 86.4205 92.5872 86.3369 92.5222 86.2243C92.4574 86.1116 92.4378 85.9784 92.4674 85.8518C92.4966 85.7252 92.5728 85.6144 92.6806 85.5421L92.7048 85.5293C97.6149 82.6686 99.3435 79.8527 99.3244 78.309C99.3335 78.0456 99.2675 77.7849 99.1341 77.5577C99.0015 77.3284 98.8067 77.1416 98.5724 77.0189C97.3174 76.3226 94.3338 76.5888 89.7161 79.4239L89.6893 79.4392C86.4108 81.1889 72.9649 91.7729 72.301 96.5177C72.2154 97.0757 72.3316 97.5045 72.6431 97.827Z" fill="#007EEF"/>
<path d="M23.5727 91.9259C23.1335 91.9259 22.6318 91.8478 22.2667 91.5163C21.9513 91.227 21.7866 90.797 21.7802 90.2363C21.7662 88.9333 22.4275 88.4047 22.8233 88.2038C23.6148 87.8057 24.7319 87.9823 25.6026 88.6454C25.6547 88.6863 25.6981 88.7372 25.7303 88.7951C25.7641 88.853 25.7862 88.9169 25.7954 88.9833C25.8051 89.0507 25.8013 89.1194 25.7842 89.1853C25.7671 89.2513 25.7371 89.3131 25.6958 89.3673C25.6544 89.4189 25.6038 89.4623 25.5464 89.4953C25.4883 89.5288 25.4241 89.5506 25.3575 89.5592C25.2914 89.5689 25.2241 89.565 25.1596 89.5477C25.0946 89.5306 25.0335 89.501 24.9796 89.4607C24.4306 89.0421 23.7144 88.8988 23.2778 89.1189C22.9522 89.2841 22.7901 89.6552 22.7965 90.2235C22.7965 90.4898 22.8514 90.669 22.9484 90.7586C23.0876 90.8866 23.4016 90.9275 23.8829 90.8866C24.0184 90.8752 24.1528 90.9182 24.2566 91.0062C24.3603 91.0942 24.425 91.2199 24.4364 91.3557C24.4477 91.4914 24.4048 91.6262 24.317 91.7302C24.2293 91.8343 24.1039 91.8991 23.9685 91.9105C23.851 91.9182 23.7157 91.9259 23.5727 91.9259Z" fill="#007EEF"/>
<path d="M28.8097 98.8509C28.5362 98.8452 28.2723 98.7483 28.0598 98.5755C27.8474 98.4027 27.6984 98.1638 27.6364 97.8966C27.5745 97.6294 27.6031 97.3491 27.7178 97.1001C27.8325 96.851 28.0267 96.6474 28.2697 96.5214C28.3304 96.4893 28.3967 96.4693 28.465 96.4625C28.5331 96.4573 28.6016 96.4651 28.6667 96.4855C28.732 96.5065 28.7923 96.5405 28.8442 96.5854C28.8969 96.6302 28.9403 96.685 28.9719 96.7466C29.0024 96.8077 29.0202 96.8743 29.0242 96.9425C29.0303 97.0458 29.0051 97.1486 28.9517 97.2373C28.8984 97.3259 28.8195 97.3963 28.7255 97.4391C28.6833 97.4593 28.6495 97.4936 28.6299 97.5362C28.6104 97.5787 28.6062 97.6268 28.6182 97.672C28.6303 97.7175 28.6579 97.7574 28.6961 97.7847C28.733 97.8119 28.7781 97.8255 28.8238 97.8231C28.8552 97.8232 28.8863 97.8176 28.9157 97.8064C28.9439 97.7939 28.9695 97.7761 28.991 97.754C29.0306 97.6994 29.0805 97.6533 29.1379 97.6181C29.1953 97.583 29.2591 97.5595 29.3255 97.5492C29.4253 97.5335 29.5275 97.5478 29.6192 97.5904C29.7109 97.633 29.7879 97.7019 29.8405 97.7883C29.8931 97.8748 29.919 97.9749 29.9148 98.0761C29.9106 98.1773 29.8766 98.275 29.817 98.3568C29.7056 98.5062 29.5615 98.6279 29.3957 98.7126C29.2298 98.7972 29.0469 98.8432 28.8608 98.847L28.8097 98.8509Z" fill="#007EEF"/>
<path d="M88.8481 86.4962C88.7699 86.4956 88.693 86.477 88.6231 86.4419C88.5532 86.4068 88.4923 86.3561 88.445 86.2936C88.3978 86.2312 88.3655 86.1587 88.3506 86.0817C88.3357 86.0048 88.3386 85.9254 88.3592 85.8498C88.3863 85.7495 88.4439 85.66 88.5238 85.5938L88.5404 85.5797C88.6813 85.4679 88.7891 85.3196 88.8521 85.1509C88.9151 84.9822 88.9309 84.7994 88.8979 84.6223C88.8698 84.4344 88.7917 84.2576 88.6719 84.1104C88.5524 83.9635 88.3953 83.852 88.2174 83.7878C88.1281 83.7545 88.0374 83.7238 87.9468 83.6982C87.8826 83.6787 87.8228 83.647 87.7706 83.6048C87.7184 83.5625 87.675 83.5103 87.6429 83.4512C87.5947 83.3621 87.5739 83.2606 87.5832 83.1597C87.5925 83.0588 87.6316 82.9629 87.6953 82.8842C87.7371 82.8315 87.7893 82.7879 87.8485 82.7562C87.9064 82.7242 87.9701 82.7042 88.0359 82.6972C88.1016 82.6901 88.1681 82.6963 88.2315 82.7152C88.3426 82.7485 88.4562 82.7869 88.566 82.8278C88.9134 82.954 89.2207 83.1714 89.4556 83.4573C89.6906 83.7433 89.8445 84.0873 89.9014 84.4534C89.9638 84.8088 89.9294 85.1745 89.8018 85.5119C89.6744 85.8496 89.4593 86.147 89.1788 86.3733L89.1673 86.3823C89.0765 86.4548 88.9642 86.4948 88.8481 86.4962Z" fill="#007EEF"/>
<path d="M80.0952 94.7789C79.9803 94.7788 79.8687 94.7399 79.7786 94.6683C79.6884 94.5968 79.625 94.4968 79.5986 94.3847C79.5819 94.3105 79.5819 94.2336 79.5986 94.1594C79.6425 93.9429 79.6403 93.7196 79.5922 93.5041C79.544 93.2884 79.4504 93.0854 79.3177 92.9089C79.2765 92.8548 79.2464 92.7929 79.2293 92.727C79.2122 92.661 79.2084 92.5923 79.2181 92.5249C79.2316 92.4246 79.2743 92.3306 79.341 92.2546C79.4078 92.1787 79.4954 92.1243 79.5929 92.0983C79.6905 92.0723 79.7935 92.0758 79.889 92.1084C79.9846 92.1411 80.0683 92.2014 80.1297 92.2817C80.352 92.5757 80.5088 92.9141 80.5894 93.274C80.67 93.6339 80.6726 94.007 80.5969 94.368C80.5727 94.4828 80.5099 94.5856 80.419 94.6595C80.3281 94.7334 80.2147 94.7737 80.0978 94.7738L80.0952 94.7789Z" fill="#007EEF"/>
<path d="M100.813 98.2994C100.711 98.2993 100.611 98.2685 100.527 98.2111C100.442 98.1538 100.377 98.0722 100.339 97.9771C100.301 97.8819 100.292 97.7775 100.314 97.6774C100.337 97.5794 100.388 97.4904 100.461 97.4214C102.216 95.7421 104.035 94.0052 105.297 91.9176C106.1 90.589 107.339 87.9421 106.635 85.1428C106.618 85.0776 106.614 85.0097 106.624 84.9431C106.634 84.8764 106.656 84.812 106.69 84.7537C106.724 84.6958 106.769 84.6451 106.823 84.6047C106.876 84.5643 106.937 84.5349 107.002 84.5182C107.067 84.5016 107.135 84.4977 107.201 84.5067C107.268 84.5156 107.333 84.5383 107.39 84.5732C107.448 84.6058 107.499 84.6493 107.54 84.7012C107.58 84.7553 107.609 84.8166 107.625 84.8817C108.215 87.224 107.699 89.9081 106.17 92.4334C104.834 94.6426 102.969 96.4281 101.165 98.1535C101.071 98.2459 100.945 98.2982 100.813 98.2994Z" fill="#162B43"/>
<path d="M109.156 93.911C109.062 93.9107 108.97 93.8843 108.889 93.8346C108.809 93.7849 108.744 93.7139 108.702 93.6294C108.659 93.5453 108.641 93.451 108.649 93.3571C108.656 93.2631 108.69 93.1731 108.745 93.097C109.864 91.5661 110.632 89.8059 110.992 87.9426C111.022 87.8137 111.101 87.7015 111.211 87.6294C111.322 87.5574 111.456 87.5311 111.586 87.5561C111.715 87.5811 111.83 87.6554 111.907 87.7635C111.983 87.8716 112.014 88.0051 111.994 88.1359C111.605 90.1481 110.777 92.0491 109.569 93.7024C109.521 93.7668 109.459 93.8193 109.387 93.856C109.316 93.8921 109.236 93.9109 109.156 93.911Z" fill="#162B43"/>
<path d="M12.9114 105.579C12.8843 105.582 12.8569 105.582 12.8297 105.579C10.6594 105.226 8.61671 104.043 7.0847 102.263C5.55269 100.482 4.68072 98.2823 4.64752 96.0807C4.64646 96.0134 4.65866 95.9465 4.68341 95.8839C4.70817 95.8213 4.745 95.7643 4.79179 95.716C4.86216 95.6433 4.95246 95.5931 5.05127 95.5719C5.15007 95.5507 5.25293 95.5593 5.34683 95.5967C5.44073 95.6341 5.52145 95.6986 5.57878 95.7821C5.6361 95.8655 5.66745 95.9641 5.66886 96.0654C5.73142 100.105 9.01758 103.926 12.9957 104.566C13.1227 104.585 13.2376 104.653 13.3174 104.754C13.3771 104.829 13.4142 104.92 13.4245 105.016C13.4348 105.112 13.4179 105.209 13.3758 105.296C13.3336 105.382 13.2679 105.455 13.1862 105.506C13.1045 105.557 13.0102 105.584 12.914 105.583L12.9114 105.579Z" fill="#162B43"/>
<path d="M3.5751 103.887C3.48944 103.887 3.40515 103.865 3.32998 103.824C2.36612 103.28 1.55527 102.501 0.973064 101.558C0.390853 100.615 0.056234 99.5402 0.000409481 98.4329C-0.0036399 98.3315 0.0224184 98.2313 0.0752797 98.1448C0.128141 98.0584 0.205424 97.9896 0.297327 97.9472C0.38923 97.9048 0.491613 97.8908 0.591491 97.9068C0.691369 97.9229 0.784244 97.9683 0.858335 98.0374C0.957091 98.1289 1.01582 98.2559 1.02175 98.3906C1.06927 99.323 1.35184 100.228 1.84303 101.021C2.33423 101.814 3.01801 102.469 3.83044 102.926C3.93098 102.979 4.01072 103.065 4.05699 103.169C4.10326 103.274 4.11339 103.391 4.08577 103.501C4.05743 103.612 3.99337 103.709 3.90368 103.779C3.814 103.848 3.70379 103.886 3.59042 103.885L3.5751 103.887Z" fill="#162B43"/>
<path d="M56.0466 98.2518C55.8485 98.2503 55.6508 98.2328 55.4555 98.1993C55.0457 98.1302 54.6895 97.8883 54.3793 97.4813C54.0997 97.1063 54.175 96.3869 54.4444 94.5796C54.5335 94.0753 54.594 93.5664 54.6257 93.0552V92.5957C54.6257 91.5257 54.6257 89.0118 54.2695 87.5796C54.2395 87.4484 54.2622 87.3107 54.3327 87.1962C54.4031 87.0817 54.5157 86.9997 54.6461 86.9677C54.7764 86.9369 54.9136 86.9575 55.0291 87.0253C55.1443 87.0944 55.2278 87.2061 55.2615 87.3364C55.6445 88.8928 55.6445 91.3925 55.6445 92.5944V93.0373C55.6508 93.3931 55.5589 94.0126 55.4517 94.7319C55.347 95.4321 55.1746 96.5904 55.2295 96.9079C55.3251 97.0428 55.4638 97.1409 55.6228 97.1856C56.1756 97.279 56.5739 97.2035 56.8407 96.9578C57.2365 96.5917 57.4037 95.7777 57.3105 94.6667L56.699 87.4247C56.6933 87.3573 56.701 87.2895 56.7216 87.2251C56.7422 87.1608 56.7753 87.1011 56.819 87.0497C56.8622 86.9982 56.9151 86.9557 56.9747 86.9248C57.0343 86.8938 57.0994 86.8749 57.1663 86.8692C57.2334 86.8632 57.301 86.8706 57.3652 86.891C57.4295 86.9113 57.4891 86.9442 57.5406 86.9878C57.5921 87.0313 57.6345 87.0847 57.6653 87.1447C57.6962 87.2048 57.7149 87.2703 57.7203 87.3377L58.3306 94.5822C58.4583 96.0567 58.1876 97.1101 57.5352 97.7117C57.1273 98.0779 56.5938 98.2714 56.0466 98.2518Z" fill="#162B43"/>
<path d="M86.7406 17.2299C98.5696 30.2173 100.654 51.685 92.0806 67.0149C83.5069 82.3449 64.613 91.145 47.3912 87.7972C30.1694 84.4493 15.9199 69.23 13.6793 51.786C11.8801 37.7813 17.8078 22.1026 28.4182 12.9561C38.8487 3.96115 53.7147 0.880257 66.9088 4.45419C74.4941 6.51053 81.4246 11.3952 86.7406 17.2299Z" fill="#DBF122"/>
<path d="M23.2917 69.1797C23.1001 69.1794 22.9129 69.1216 22.7544 69.0138C22.5947 68.9061 22.471 68.7527 22.3993 68.5736C22.3294 68.3937 22.3136 68.1972 22.3537 68.0084C22.3982 67.8245 22.4948 67.6574 22.632 67.5274C25.6762 64.6413 27.5234 63.2704 30.8699 61.4017C30.9801 61.3399 31.1014 61.3005 31.2268 61.2858C31.3522 61.2711 31.4793 61.2814 31.6008 61.316C31.7222 61.3506 31.8357 61.409 31.9346 61.4876C32.0335 61.5663 32.116 61.6638 32.1773 61.7745C32.2388 61.8851 32.278 62.0069 32.2925 62.1327C32.307 62.2585 32.2965 62.386 32.2618 62.5078C32.227 62.6296 32.1686 62.7433 32.0899 62.8424C32.0111 62.9415 31.9137 63.024 31.8031 63.0852C28.6197 64.8626 26.8589 66.1734 23.9514 68.9296C23.7712 69.0939 23.5353 69.1833 23.2917 69.1797Z" fill="white"/>
<path d="M31.9249 78.5011C31.7382 78.5029 31.5551 78.4501 31.3978 78.3492C31.2406 78.2482 31.1162 78.1035 31.0398 77.9327C30.9634 77.7619 30.9384 77.5725 30.9678 77.3877C30.9972 77.2028 31.0797 77.0306 31.2052 76.8921L35.7992 71.8246C35.9257 71.6756 36.0945 71.5689 36.2831 71.5186C36.4717 71.4684 36.6711 71.4769 36.8547 71.5432C36.9778 71.5846 37.0906 71.6518 37.1857 71.7404C37.2861 71.8262 37.3678 71.9318 37.4256 72.0507C37.4783 72.1698 37.5076 72.298 37.512 72.4283C37.514 72.5583 37.4904 72.6874 37.4424 72.8083C37.3945 72.9289 37.3227 73.0385 37.2313 73.1305L32.6374 78.198C32.5486 78.2961 32.4405 78.3746 32.32 78.4289C32.1994 78.4831 32.069 78.5117 31.9369 78.5131L31.9249 78.5011Z" fill="white"/>
<path d="M43.025 84.358C42.8451 84.3578 42.6688 84.307 42.5164 84.2113C42.4097 84.1439 42.3173 84.0562 42.2444 83.953C42.1715 83.8498 42.1197 83.7333 42.0918 83.61C42.0354 83.3631 42.0785 83.1038 42.2117 82.8885C42.7299 82.0587 43.1137 81.4094 43.4855 80.7841C43.8574 80.1587 44.2508 79.4877 44.781 78.6387C44.9192 78.4301 45.1331 78.2838 45.3772 78.2308C45.6213 78.1778 45.8765 78.2223 46.0884 78.3549C46.3005 78.4877 46.4525 78.6982 46.5121 78.9417C46.5717 79.1852 46.5341 79.4424 46.4074 79.6585C45.8893 80.4882 45.5054 81.1376 45.136 81.7653C44.7666 82.393 44.3684 83.0593 43.8382 83.9082C43.752 84.0465 43.6321 84.1606 43.4899 84.2397C43.3476 84.3188 43.1876 84.3603 43.025 84.3604V84.358Z" fill="white"/>
<path d="M64.6676 85.3349C64.444 85.3341 64.2276 85.255 64.0559 85.1112C63.883 84.9675 63.7658 84.7675 63.7249 84.546C63.7057 84.4378 63.6721 84.2214 63.6265 83.9327C62.9548 79.5796 62.5566 78.4732 62.3743 78.2039C62.2026 78.0212 62.1089 77.7786 62.1132 77.5277C62.1174 77.2768 62.2193 77.0375 62.3971 76.8608C62.5749 76.6841 62.8145 76.5841 63.0647 76.5821C63.315 76.58 63.5562 76.6761 63.7369 76.8498C64.3774 77.4727 64.8452 79.2549 65.5241 83.6369C65.5648 83.9039 65.5936 84.1011 65.6128 84.2021C65.6583 84.4531 65.6024 84.7119 65.4576 84.9216C65.3127 85.1314 65.0907 85.2748 64.8404 85.3205C64.7833 85.3302 64.7255 85.3351 64.6676 85.3349Z" fill="white"/>
<path d="M75.2233 79.7224C74.5636 79.7224 74.0934 79.34 72.8939 76.959C72.4279 76.0534 72.0099 75.1237 71.6417 74.1739C71.5755 73.9323 71.6059 73.6743 71.7265 73.4549C71.8471 73.2354 72.0483 73.0718 72.2874 72.9988C72.5265 72.9258 72.7845 72.9492 73.0067 73.064C73.2288 73.1788 73.3975 73.3759 73.4769 73.6135C73.6544 74.1739 75.1057 77.2572 75.6359 77.8969C75.8303 77.9927 75.9867 78.1517 76.0796 78.3479C76.1725 78.5441 76.1964 78.7661 76.1475 78.9777C76.0985 79.1893 75.9796 79.378 75.8101 79.5132C75.6405 79.6485 75.4303 79.7222 75.2137 79.7224H75.2233Z" fill="white"/>
<path d="M64.4807 14.2314C64.359 14.2309 64.2385 14.2072 64.1257 14.1616C64.0099 14.1136 63.9041 14.0443 63.8138 13.9572C63.7233 13.8686 63.6508 13.7632 63.6003 13.647C63.5496 13.5309 63.5235 13.4056 63.5235 13.279C63.5217 13.1531 63.5445 13.0281 63.5907 12.911L66.0256 6.84781C66.073 6.73018 66.1431 6.62311 66.2319 6.53275C66.3202 6.44242 66.4254 6.37044 66.5415 6.32091C66.6576 6.27139 66.7823 6.2453 66.9084 6.24414C67.0348 6.24423 67.1601 6.26788 67.2778 6.31389C67.3949 6.36183 67.5017 6.43207 67.5921 6.52072C67.6811 6.61008 67.7527 6.71529 67.8032 6.83098C67.8511 6.94787 67.8771 7.07261 67.88 7.19895C67.8802 7.32593 67.8558 7.45174 67.808 7.56934L65.3827 13.6301C65.3102 13.8098 65.1854 13.9633 65.0244 14.0705C64.8635 14.1778 64.674 14.2339 64.4807 14.2314Z" fill="white"/>
<path d="M55.338 10.2773C55.0835 10.2773 54.8394 10.176 54.6595 9.99553C54.4795 9.81512 54.3784 9.57042 54.3784 9.31528V6.45324C54.3784 6.19809 54.4795 5.9534 54.6595 5.77298C54.8394 5.59257 55.0835 5.49121 55.338 5.49121C55.5925 5.49121 55.8365 5.59257 56.0165 5.77298C56.1965 5.9534 56.2975 6.19809 56.2975 6.45324V9.31528C56.2975 9.57042 56.1965 9.81512 56.0165 9.99553C55.8365 10.176 55.5925 10.2773 55.338 10.2773Z" fill="white"/>
<path d="M45.9034 11.8971C45.6741 11.8968 45.4524 11.8142 45.2786 11.6642C45.1048 11.5141 44.9903 11.3067 44.9559 11.0793C44.8119 10.1438 43.9963 8.08743 43.694 7.37312C43.6007 7.14172 43.6007 6.883 43.694 6.6516C43.7405 6.53368 43.8101 6.4263 43.8987 6.33583C43.9873 6.24535 44.0931 6.17362 44.2098 6.12489C44.4396 6.026 44.6988 6.02093 44.9322 6.11078C45.1657 6.20062 45.3549 6.37827 45.4596 6.6059C45.582 6.89211 46.6591 9.43186 46.8534 10.7739C46.8734 10.8998 46.8682 11.0284 46.8381 11.1523C46.808 11.2761 46.7537 11.3928 46.6783 11.4954C46.6032 11.5971 46.5096 11.6836 46.4024 11.7504C46.2514 11.8404 46.0792 11.8885 45.9034 11.8898V11.8971Z" fill="white"/>
<path d="M33.1892 19.3534C33.0207 19.3509 32.8556 19.3053 32.7094 19.2211C32.3784 19.0263 29.4541 17.2658 28.6025 15.2937C28.5474 15.1768 28.5164 15.05 28.5113 14.9209C28.5068 14.7913 28.528 14.6621 28.5737 14.5409C28.6187 14.4197 28.6881 14.3092 28.7776 14.2162C28.8669 14.1242 28.9727 14.0499 29.0895 13.9973C29.33 13.898 29.5998 13.898 29.8403 13.9973C29.9591 14.0478 30.0667 14.1214 30.157 14.2138C30.2466 14.3063 30.3168 14.4159 30.3633 14.5361C30.8167 15.5871 32.6375 16.9411 33.6786 17.5664C33.8572 17.6723 33.9967 17.8334 34.0763 18.0255C34.1559 18.2176 34.1712 18.4303 34.12 18.6319C34.0673 18.8363 33.9473 19.0168 33.7793 19.1442C33.6132 19.2735 33.4092 19.3445 33.1988 19.3462L33.1892 19.3534Z" fill="white"/>
<path d="M26.2851 29.3076C26.116 29.3044 25.9507 29.2572 25.8053 29.1705C25.1508 28.7662 24.4731 28.4008 23.7758 28.0762C23.0268 27.7221 22.2972 27.3279 21.5904 26.8953C21.3797 26.7606 21.2297 26.5487 21.1723 26.3048C21.115 26.0609 21.1548 25.8042 21.2834 25.5893C21.4118 25.3746 21.6188 25.2185 21.8602 25.1542C22.1017 25.09 22.3586 25.1227 22.5764 25.2454C23.2326 25.6469 23.9101 26.0122 24.6059 26.3397C25.3554 26.6928 26.085 27.087 26.7913 27.5206C26.9256 27.6014 27.0382 27.7139 27.1192 27.8484C27.2002 27.9828 27.2471 28.1351 27.2559 28.2919C27.2646 28.4487 27.2349 28.6053 27.1694 28.748C27.1039 28.8906 27.0046 29.0151 26.88 29.1104C26.7126 29.2385 26.5077 29.3078 26.2971 29.3076H26.2851Z" fill="white"/>
<path d="M22.6631 37.6926C22.5722 37.6918 22.4819 37.6789 22.3944 37.6542C21.7203 37.4569 21.3725 37.3607 21.1949 37.3126C20.9918 37.3122 20.7901 37.2789 20.5976 37.214C20.3577 37.1467 19.9403 37.0216 19.223 36.8004C19.1025 36.7633 18.9905 36.7028 18.8933 36.6223C18.7961 36.5418 18.7157 36.4428 18.6566 36.3312C18.5976 36.2195 18.5611 36.0972 18.5492 35.9714C18.5373 35.8456 18.5503 35.7186 18.5873 35.5978C18.6243 35.477 18.6847 35.3646 18.765 35.2672C18.8453 35.1698 18.9439 35.0892 19.0553 35.03C19.1667 34.9708 19.2886 34.9342 19.4142 34.9223C19.5397 34.9103 19.6663 34.9233 19.7868 34.9605C20.528 35.201 20.9191 35.3068 21.123 35.3645C21.2993 35.3646 21.4747 35.3906 21.6435 35.4415C21.9002 35.5088 22.3224 35.6267 22.9366 35.8071C23.158 35.8719 23.3488 36.0145 23.4739 36.2089C23.5991 36.4032 23.6502 36.6363 23.6178 36.8653C23.5853 37.0965 23.4699 37.3078 23.2934 37.4601C23.1169 37.6123 22.8911 37.6949 22.6583 37.6926H22.6631Z" fill="white"/>
<path d="M22.6629 45.3401H15.4085C15.154 45.3401 14.91 45.2387 14.73 45.0583C14.5501 44.8779 14.449 44.6332 14.449 44.378C14.449 44.1229 14.5501 43.8782 14.73 43.6978C14.91 43.5174 15.154 43.416 15.4085 43.416H22.6605C22.915 43.416 23.159 43.5174 23.339 43.6978C23.5189 43.8782 23.62 44.1229 23.62 44.378C23.62 44.6332 23.5189 44.8779 23.339 45.0583C23.159 45.2387 22.915 45.3401 22.6605 45.3401H22.6629Z" fill="white"/>
<path d="M17.5676 56.3011C17.3902 56.3005 17.2164 56.2505 17.0657 56.1568C16.9149 56.0632 16.7929 55.9294 16.7134 55.7704C16.6339 55.6115 16.5999 55.4335 16.6151 55.2563C16.6304 55.0791 16.6944 54.9096 16.7999 54.7667C16.9411 54.5755 17.1479 54.4436 17.3805 54.3963L23.0971 53.2491C23.3419 53.2103 23.5923 53.268 23.7956 53.4102C23.999 53.5523 24.1396 53.7678 24.188 54.0116C24.2363 54.2554 24.1887 54.5084 24.0551 54.7178C23.9215 54.9271 23.7123 55.0765 23.4713 55.1347L17.7571 56.2819C17.6945 56.2932 17.6311 56.2996 17.5676 56.3011Z" fill="white"/>
<path d="M54.6068 75.6172C53.0133 75.6153 51.4222 75.4915 49.8474 75.2468C40.4484 73.7725 32.4409 67.9354 27.3288 58.7817C23.6441 52.2038 22.8644 44.724 25.069 37.148C27.0649 30.2936 31.3734 23.9201 37.2003 19.2158C42.5811 14.8675 48.9334 12.2916 55.0866 11.9645C62.0291 11.5942 68.6549 14.0257 74.2419 18.9946C81.525 25.5315 85.4161 33.7954 85.5 42.8986C85.5864 52.2519 81.4939 61.6966 74.5538 68.1518C69.4225 72.9331 62.0818 75.6172 54.6068 75.6172ZM28.9912 57.8341C35.1804 68.8806 43.9053 72.3655 50.1329 73.342C58.5938 74.6696 67.4482 72.1394 73.2392 66.7473C79.7906 60.6432 83.6529 51.7324 83.5713 42.9106C83.4922 34.3654 79.8218 26.5898 72.9561 20.428C60.9472 9.74705 47.2278 13.5807 38.395 20.7094C28.0653 29.0574 21.5186 44.4907 28.9912 57.8341Z" fill="white"/>
<path d="M84.2887 69.9268C84.1369 69.9267 83.9873 69.8904 83.8521 69.821C83.7162 69.7519 83.5986 69.6513 83.5091 69.5276C83.1109 68.972 81.4916 67.4833 80.5656 66.6752C80.4405 66.5457 80.3543 66.3835 80.3167 66.2073C80.279 66.031 80.2916 65.8477 80.3528 65.6782C80.4141 65.5087 80.5216 65.3599 80.6632 65.2487C80.8047 65.1375 80.9746 65.0684 81.1534 65.0494C81.3922 65.0239 81.6319 65.0891 81.825 65.2321C82.0865 65.4606 84.4087 67.4977 85.066 68.414C85.1685 68.5576 85.2297 68.7266 85.2428 68.9026C85.2559 69.0787 85.2205 69.255 85.1404 69.4122C85.0601 69.5696 84.9382 69.7017 84.788 69.7942C84.6378 69.8867 84.465 69.9359 84.2887 69.9365V69.9268Z" fill="white"/>
<path d="M91.4547 59.9256C91.351 59.9257 91.2481 59.9086 91.15 59.8751L82.4275 56.9505C82.2472 56.8903 82.0887 56.7777 81.9722 56.627C81.8558 56.4763 81.7866 56.2943 81.7735 56.1041C81.7604 55.9139 81.8039 55.7242 81.8986 55.5588C81.9933 55.3935 82.1348 55.2601 82.3052 55.1756C82.5328 55.0623 82.7959 55.0441 83.0369 55.1251L91.7593 58.0496C91.9214 58.103 92.0663 58.1987 92.1792 58.3269C92.2921 58.4551 92.3688 58.6111 92.4016 58.7789C92.4343 58.9467 92.4219 59.1203 92.3655 59.2817C92.3091 59.4431 92.2108 59.5865 92.0808 59.6971C91.906 59.8458 91.6839 59.9268 91.4547 59.9256Z" fill="white"/>
<path d="M92.3801 49.9981C92.2992 49.9952 92.2188 49.9839 92.1402 49.9644C90.4418 49.5147 87.8869 49.166 87.8629 49.1611C87.7338 49.1495 87.6083 49.1118 87.4941 49.0502C87.3799 48.9886 87.2793 48.9044 87.1984 48.8028C87.1183 48.701 87.0596 48.584 87.0257 48.4589C86.9895 48.334 86.9805 48.2027 86.9993 48.074C87.0167 47.9454 87.0599 47.8217 87.1262 47.7102C87.1926 47.5987 87.2808 47.5019 87.3854 47.4255C87.4901 47.3491 87.6091 47.2947 87.7353 47.2657C87.8614 47.2366 87.9922 47.2334 88.1196 47.2563C89.6374 47.4608 91.1435 47.7442 92.632 48.1053C92.8575 48.1644 93.0538 48.3037 93.1843 48.4973C93.3149 48.6909 93.3706 48.9255 93.3413 49.1573C93.3119 49.3892 93.1993 49.6023 93.0247 49.757C92.85 49.9117 92.6252 49.9974 92.3921 49.9981H92.3801Z" fill="white"/>
<path d="M87.9905 36.4444C87.7581 36.4435 87.5339 36.358 87.3596 36.2039C87.2289 36.0902 87.1313 35.9432 87.0771 35.7785C87.0229 35.6137 87.0141 35.4374 87.0518 35.268C87.0894 35.0987 87.1719 34.9427 87.2908 34.8166C87.4096 34.6905 87.5602 34.5989 87.7267 34.5516L92.7644 33.1086C92.8857 33.0737 93.0126 33.0631 93.138 33.0775C93.2633 33.0919 93.3846 33.1309 93.4949 33.1924C93.6052 33.2538 93.7023 33.3364 93.7808 33.4355C93.8592 33.5347 93.9173 33.6483 93.9518 33.77C93.9859 33.8899 93.996 34.0153 93.9815 34.1391C93.9671 34.2629 93.9285 34.3827 93.8679 34.4915C93.8068 34.6023 93.7245 34.6999 93.6257 34.7787C93.5269 34.8575 93.4135 34.916 93.2921 34.9509L88.2664 36.3939C88.1777 36.4253 88.0846 36.4423 87.9905 36.4444Z" fill="white"/>
<path d="M82.7414 25.5594C82.5882 25.5591 82.4374 25.5222 82.3015 25.4516C82.1655 25.381 82.0484 25.2788 81.9599 25.1536C81.8713 25.0283 81.814 24.8837 81.7926 24.7317C81.7712 24.5797 81.7864 24.4248 81.837 24.2799C81.9032 24.0848 82.0302 23.9162 82.1992 23.7989C84.5189 22.2043 86.0375 21.3938 86.7379 21.3938C86.927 21.3897 87.113 21.4416 87.2727 21.5432C87.4323 21.6447 87.5585 21.7912 87.6354 21.9644C87.7123 22.1376 87.7364 22.3296 87.7048 22.5165C87.6732 22.7034 87.5872 22.8767 87.4576 23.0148C87.2818 23.1999 87.0407 23.3086 86.7859 23.3178C86.3205 23.4309 84.6077 24.4699 83.2739 25.3862C83.1175 25.4957 82.9321 25.556 82.7414 25.5594Z" fill="white"/>
<path d="M71.8117 20.7575C71.6161 20.7584 71.4248 20.7006 71.2623 20.5915C71.1007 20.4807 70.9769 20.3229 70.9073 20.1394C70.8362 19.9562 70.8228 19.7556 70.8689 19.5646C70.9177 19.378 71.0214 19.2104 71.1664 19.0836C71.3823 18.8863 72.0588 18.0999 72.7737 17.2677C74.3689 15.4014 76.3552 13.0997 77.5403 12.1858C77.742 12.035 77.9948 11.9698 78.2441 12.004C78.4934 12.0383 78.7193 12.1694 78.8731 12.369C79.0269 12.5687 79.0964 12.8209 79.0665 13.0714C79.0366 13.3219 78.9098 13.5506 78.7134 13.7082C77.6938 14.4971 75.614 16.9142 74.2394 18.5184C73.3038 19.6079 72.7593 20.238 72.4714 20.5001C72.2922 20.6671 72.0563 20.7591 71.8117 20.7575Z" fill="white"/>
<path d="M59.3283 59.0231C59.0781 59.0227 58.8379 58.9243 58.659 58.7489C58.4791 58.5734 58.3749 58.3343 58.3687 58.0827C58.1576 48.4215 57.6731 38.6377 56.9294 29.0029C56.9183 28.8433 56.8663 28.6892 56.7783 28.5556C56.691 28.4219 56.5713 28.3127 56.4304 28.2381C56.2889 28.1645 56.131 28.1281 55.9715 28.1323C55.8121 28.1365 55.6564 28.1812 55.5188 28.2622C49.996 31.452 45.463 36.114 42.4232 41.7306C42.3723 41.8554 42.2958 41.968 42.1987 42.0612C42.1015 42.1544 41.986 42.2262 41.8594 42.2717C41.7323 42.3157 41.5977 42.3337 41.4636 42.3246C41.328 42.3098 41.1967 42.2681 41.0774 42.202C40.96 42.137 40.8571 42.0486 40.7751 41.9422C40.6929 41.8356 40.634 41.7128 40.6022 41.5819C40.5704 41.451 40.5664 41.3148 40.5904 41.1822C40.6143 41.0495 40.6658 40.9233 40.7415 40.8119C43.952 34.8773 48.7398 29.9506 54.5737 26.5786C54.992 26.3358 55.4649 26.2034 55.9481 26.1939C56.4314 26.1844 56.9091 26.2981 57.3366 26.5242C57.7641 26.7504 58.1273 27.0817 58.3921 27.4871C58.657 27.8924 58.8149 28.3586 58.8509 28.8418C59.5994 38.5126 60.084 48.3229 60.2903 58.0274C60.2942 58.1532 60.2721 58.2785 60.2255 58.3953C60.1571 58.5731 60.0376 58.7266 59.8822 58.8362C59.7267 58.9458 59.5423 59.0066 59.3523 59.011L59.3283 59.0231Z" fill="#162B43"/>
<path d="M49.0155 59.9978C48.8913 60.0066 48.7667 59.9888 48.6485 59.9453C48.5002 59.8907 48.3665 59.7963 48.2591 59.6704C48.1517 59.5446 48.074 59.3913 48.033 59.2241C47.992 59.0569 47.9889 58.8811 48.024 58.7123C48.059 58.5435 48.1312 58.3869 48.2341 58.2565C48.3156 58.1522 48.4149 58.0667 48.5262 58.0049C48.6375 57.9432 48.7588 57.9064 48.8829 57.8967C55.8916 56.8069 62.9519 56.1737 70.0274 56.0004C70.2149 55.9949 70.3997 56.0512 70.5583 56.1623C70.7169 56.2734 70.8422 56.4342 70.9183 56.6244C70.9944 56.8146 71.0179 57.0256 70.9858 57.2305C70.9536 57.4355 70.8673 57.6253 70.7378 57.7758C70.5632 57.9771 70.3242 58.0941 70.0724 58.1015C63.0688 58.2775 56.0805 58.908 49.1434 59.9899C49.101 59.9953 49.0583 59.998 49.0155 59.9978Z" fill="#162B43"/>
</g>
<defs>
<clipPath id="clip0_222_4438">
<rect width="112" height="112" fill="white"/>
</clipPath>
</defs>
</svg>
