<svg width="377" height="338" viewBox="0 0 377 338" fill="none" xmlns="http://www.w3.org/2000/svg">
<g clip-path="url(#clip0_679_2678)">
<path d="M134.337 134.625C134.268 145.315 134.569 157.052 141.62 165.089C147.127 171.363 155.631 174 163.766 175.871C203.622 185.004 245.223 183.023 284.029 170.143C288.814 168.545 293.82 166.584 296.827 162.538C299.316 159.197 300.06 154.892 300.729 150.77L311.877 82.5208C312.016 81.6576 312.156 80.7358 311.774 79.9478C311.308 78.9676 310.205 78.4858 309.185 78.1155C297.939 74.0137 285.823 72.9583 273.867 72.2593C260.266 71.4573 246.649 71.0601 233.017 71.0675C219.267 71.0675 205.53 71.4824 191.807 72.3122C178.145 73.1346 164.517 74.3608 150.923 75.9908C146.882 76.4753 142.194 76.7649 138.771 79.2377C135.775 81.4069 134.87 84.9797 134.677 88.5023C133.936 102.108 134.465 115.903 134.376 129.532L134.337 134.625Z" fill="#DBF122"/>
<path d="M142.849 156.368C142.603 156.367 142.364 156.285 142.169 156.134C141.972 155.984 141.831 155.772 141.77 155.532C139.794 147.821 139.75 130.785 140.056 117.85C140.063 117.559 140.183 117.282 140.392 117.079C140.6 116.875 140.88 116.761 141.171 116.761H141.199C141.346 116.764 141.491 116.797 141.625 116.856C141.759 116.915 141.879 117 141.979 117.107C142.081 117.213 142.16 117.338 142.214 117.474C142.267 117.611 142.291 117.757 142.286 117.903C141.848 136.251 142.417 149.072 143.93 154.978C143.967 155.12 143.975 155.267 143.955 155.412C143.934 155.557 143.885 155.696 143.811 155.822C143.739 155.946 143.645 156.056 143.532 156.145C143.415 156.234 143.281 156.298 143.139 156.334C143.044 156.357 142.947 156.369 142.849 156.368Z" fill="white"/>
<path d="M163.727 168.918H163.568C160.922 168.526 158.45 167.363 156.461 165.577C156.345 165.48 156.25 165.362 156.182 165.228C156.113 165.094 156.073 164.947 156.063 164.797C156.053 164.648 156.073 164.498 156.121 164.357C156.17 164.215 156.248 164.084 156.35 163.973C156.449 163.857 156.57 163.762 156.706 163.694C156.843 163.631 156.991 163.596 157.141 163.591C157.292 163.588 157.441 163.614 157.582 163.669C157.722 163.723 157.849 163.805 157.955 163.911C159.615 165.401 161.678 166.37 163.886 166.696C164.033 166.704 164.176 166.743 164.307 166.81C164.439 166.88 164.556 166.974 164.652 167.089C164.748 167.2 164.821 167.328 164.867 167.467C164.914 167.606 164.933 167.753 164.923 167.899C164.912 168.046 164.872 168.188 164.806 168.32C164.736 168.452 164.642 168.569 164.527 168.665C164.415 168.76 164.287 168.832 164.148 168.879C164.008 168.926 163.86 168.944 163.713 168.935L163.727 168.918Z" fill="white"/>
<path d="M217.966 175.966C203.625 175.963 189.332 174.311 175.369 171.043C175.221 171.014 175.081 170.956 174.956 170.873C174.831 170.789 174.724 170.681 174.641 170.555C174.557 170.431 174.5 170.291 174.471 170.143C174.441 169.996 174.441 169.844 174.471 169.698C174.507 169.552 174.572 169.415 174.661 169.294C174.749 169.171 174.862 169.069 174.992 168.993C175.122 168.917 175.265 168.868 175.413 168.848C175.563 168.829 175.714 168.84 175.859 168.882C195.047 173.373 214.832 174.766 234.46 173.006C234.607 172.992 234.755 173.008 234.895 173.053C235.036 173.097 235.167 173.168 235.28 173.262C235.392 173.356 235.485 173.471 235.553 173.601C235.621 173.731 235.663 173.873 235.675 174.019C235.689 174.166 235.673 174.314 235.628 174.454C235.584 174.593 235.513 174.723 235.419 174.835C235.325 174.949 235.209 175.042 235.079 175.111C234.948 175.179 234.805 175.221 234.658 175.233C229.103 175.724 223.539 175.968 217.966 175.966Z" fill="white"/>
<path d="M182.353 18.8387C144.371 31.3363 102.983 39.4926 72.3191 64.6298C70.2679 66.3006 66.7227 68.3779 73.5482 70.3077C84.1224 73.3012 94.8945 76.3866 104.273 82.1119C204.19 143.124 232.913 142.188 235.767 140.868C286.021 117.842 334.271 105.367 376.551 73.9779C371.883 67.8934 365.202 63.722 358.619 59.7761C347.606 53.182 336.441 46.8562 325.121 40.7986C313.655 34.6612 302.042 28.8032 290.283 23.2246C278.577 17.6775 266.745 12.4182 254.786 7.44663C249.541 5.26067 244.354 2.68485 239.039 0.699384C234.023 -1.18027 229.441 1.12822 224.767 3.01066C212.311 8.02306 199.792 12.9129 187.077 17.2514C185.511 17.7898 183.936 18.3189 182.353 18.8387Z" fill="#DBF122"/>
<path d="M222.086 67.8707C221.043 68.759 221.177 70.5161 222.044 71.5771C222.911 72.638 224.274 73.1448 225.6 73.4873C229.615 74.5151 233.832 74.4507 237.813 73.3008C239.94 72.6854 242.378 70.9951 241.793 68.862C241.453 67.6173 240.185 66.8849 238.981 66.4115C236.125 65.3212 233.046 64.9419 230.01 65.3062C226.974 65.6706 224.073 66.7677 221.556 68.5028L222.086 67.8707Z" fill="#162B43"/>
<path d="M231.375 75.334C229.336 75.3316 227.305 75.0743 225.33 74.5682C223.986 74.2201 222.3 73.6465 221.185 72.2792C220.741 71.7323 220.441 71.0824 220.314 70.3894C220.187 69.6965 220.237 68.9827 220.458 68.3138C220.496 68.1055 220.593 67.9123 220.737 67.7569C220.908 67.483 221.121 67.2369 221.367 67.0273C221.481 66.929 221.614 66.8553 221.758 66.8107C221.902 66.7662 222.053 66.7518 222.203 66.7683C224.778 65.2593 227.661 64.3504 230.637 64.1093C233.613 63.8682 236.605 64.3012 239.391 65.376C241.342 66.1474 242.49 67.1916 242.869 68.5672C243.608 71.2572 241.041 73.5239 238.131 74.3705C235.936 75.0097 233.661 75.3341 231.375 75.334ZM222.526 69.2077C222.462 69.4966 222.462 69.796 222.526 70.0849C222.595 70.3738 222.725 70.6446 222.908 70.8785C223.61 71.7445 224.859 72.1539 225.879 72.4156C229.7 73.3988 233.715 73.3372 237.504 72.2374C239.065 71.7835 241.094 70.5304 240.72 69.1743C240.542 68.531 239.82 67.9546 238.574 67.4645C235.948 66.4712 233.124 66.1114 230.333 66.4143C227.541 66.7172 224.861 67.6743 222.509 69.2077H222.526Z" fill="#162B43"/>
<path d="M353.494 149.815C353.413 149.815 353.333 149.807 353.254 149.79C352.968 149.724 352.72 149.547 352.563 149.299C352.407 149.051 352.355 148.751 352.418 148.465C354.963 136.803 358.75 132.124 361.791 128.368C364.648 124.84 366.71 122.292 366.71 115.207C366.71 107.383 362.917 100.95 356.303 97.5554C345.269 91.8914 331.799 95.6396 320.038 99.5994C314.16 101.579 305.907 103.559 302.131 97.9481C297.978 91.7772 298.538 82.6129 299.132 72.9083C300.049 57.9547 300.996 42.4914 286.328 33.8061C280.96 30.626 269.126 29.9632 257.766 34.9951C248.507 39.0969 236.601 48.239 232.465 68.503C232.436 68.6463 232.379 68.7826 232.298 68.904C232.215 69.025 232.11 69.1285 231.987 69.2088C231.865 69.2891 231.728 69.3445 231.584 69.3718C231.44 69.401 231.292 69.401 231.149 69.3718C231.005 69.3426 230.869 69.2848 230.748 69.2019C230.627 69.1198 230.524 69.0147 230.444 68.8928C230.364 68.7712 230.308 68.635 230.28 68.4919C230.252 68.3484 230.252 68.2009 230.28 68.0574C232.105 59.1131 235.606 51.4386 240.678 45.251C245.027 39.9358 250.573 35.7239 256.863 32.9595C269.034 27.5684 281.47 28.3425 287.465 31.893C303.304 41.2717 302.27 58.1524 301.359 73.0476C300.801 82.3623 300.244 91.1618 303.981 96.7172C306.211 100.025 311.083 100.273 319.327 97.4997C331.52 93.3951 345.525 89.5244 357.323 95.5839C364.706 99.3738 368.94 106.53 368.94 115.219C368.94 123.091 366.431 126.19 363.524 129.78C360.618 133.369 357.028 137.802 354.606 148.949C354.549 149.2 354.407 149.424 354.204 149.583C354.001 149.741 353.749 149.824 353.491 149.818L353.494 149.815Z" fill="#162B43"/>
<path d="M312.928 172.519C312.192 173.956 311.534 175.668 312.212 177.124C313.048 178.898 315.433 179.283 317.376 179.001C319.319 178.72 321.303 178.021 323.201 178.531C323.728 180.758 323.24 183.111 323.201 185.412C323.162 187.712 323.706 190.299 325.637 191.555C327.92 193.042 331.058 191.967 333.134 190.204C335.211 188.441 336.724 186.066 338.903 184.431C339.352 186.551 341.56 187.932 343.717 188.141C345.874 188.349 348.009 187.648 350.066 186.954C349.266 191.477 353.477 196.169 358.062 195.865C362.647 195.562 366.203 190.354 364.809 185.977C366.482 188.149 369.235 190.405 371.652 189.115C373.569 188.09 373.853 185.495 373.784 183.323C373.591 177.197 370.632 163.794 364.213 154.223C358.55 145.783 348.667 143.55 335.64 150.386C331.459 152.589 325.682 156.512 322.298 159.854C318.518 163.548 315.354 167.824 312.928 172.519Z" fill="#162B43"/>
<path d="M357.63 197.001C355.289 197.001 352.914 195.887 351.192 193.974C349.82 192.473 348.993 190.555 348.845 188.528C347.203 189.034 345.425 189.438 343.588 189.26C341.752 189.082 339.556 188.085 338.438 186.283C337.789 186.901 337.178 187.584 336.546 188.294C335.706 189.277 334.8 190.202 333.834 191.062C331.451 193.086 327.797 194.314 325.007 192.499C322.343 190.766 322.019 187.305 322.064 185.398C322.081 184.676 322.136 183.952 322.192 183.253C322.298 181.942 322.398 180.689 322.237 179.5C321.256 179.402 320.196 179.614 319.087 179.834C318.58 179.934 318.056 180.04 317.529 180.112C315.199 180.449 312.315 179.968 311.197 177.606C310.288 175.69 311.111 173.613 311.927 172.017C314.401 167.212 317.631 162.835 321.495 159.055C325.099 155.513 331.066 151.519 335.099 149.403C341.635 145.972 347.605 144.652 352.839 145.479C357.833 146.267 362.078 149.077 365.102 153.605C371.487 163.126 374.653 176.696 374.857 183.292C374.968 186.835 374.079 189.062 372.134 190.101C370.317 191.07 368.184 190.658 366.119 188.987C365.932 190.454 365.397 191.856 364.558 193.075C363.003 195.353 360.587 196.812 358.095 196.973C357.941 196.994 357.785 197.003 357.63 197.001ZM350.043 185.863C350.206 185.862 350.367 185.897 350.514 185.966C350.662 186.034 350.793 186.134 350.898 186.259C351.003 186.384 351.08 186.53 351.122 186.687C351.164 186.844 351.17 187.009 351.141 187.169C350.824 188.959 351.465 190.95 352.853 192.499C354.241 194.047 356.153 194.896 357.967 194.774C359.781 194.651 361.565 193.557 362.736 191.841C363.906 190.126 364.277 188.065 363.725 186.333C363.643 186.082 363.653 185.809 363.753 185.565C363.854 185.325 364.037 185.127 364.269 185.008C364.502 184.889 364.769 184.857 365.023 184.915C365.278 184.974 365.504 185.12 365.662 185.328C367.106 187.205 369.394 189.071 371.094 188.163C372.209 187.572 372.722 185.966 372.638 183.39C372.438 177.06 369.394 164.028 363.254 154.875C357.591 146.429 347.956 145.195 336.127 151.402C332.226 153.444 326.498 157.281 323.05 160.67C319.356 164.284 316.268 168.468 313.903 173.062C313.318 174.2 312.71 175.643 313.204 176.682C313.761 177.862 315.615 178.16 317.2 177.932C317.671 177.865 318.145 177.77 318.644 177.67C320.202 177.361 321.813 177.044 323.474 177.489C323.671 177.541 323.85 177.648 323.99 177.795C324.131 177.942 324.228 178.125 324.268 178.325C324.675 180.062 324.547 181.794 324.405 183.468C324.349 184.167 324.296 184.827 324.282 185.487C324.254 186.648 324.388 189.483 326.211 190.669C328.034 191.855 330.67 190.842 332.379 189.402C333.268 188.61 334.1 187.756 334.87 186.848C335.879 185.715 336.925 184.546 338.215 183.588C338.365 183.474 338.541 183.401 338.728 183.376C338.916 183.348 339.107 183.368 339.285 183.434C339.46 183.501 339.616 183.61 339.738 183.752C339.86 183.894 339.944 184.064 339.982 184.248C340.333 185.899 342.175 186.921 343.814 187.08C345.765 187.269 347.858 186.567 349.698 185.946C349.811 185.897 349.933 185.868 350.057 185.863H350.043Z" fill="#162B43"/>
<path d="M330.411 178.405C330.317 178.405 330.224 178.394 330.132 178.372C329.991 178.336 329.858 178.271 329.742 178.183C329.629 178.094 329.535 177.984 329.464 177.86C329.39 177.733 329.342 177.593 329.321 177.447C329.3 177.304 329.307 177.157 329.344 177.016C331.71 167.84 338.675 157.743 346.281 152.458C346.401 152.374 346.537 152.315 346.68 152.284C346.823 152.253 346.971 152.25 347.115 152.276C347.259 152.302 347.397 152.356 347.52 152.435C347.643 152.514 347.75 152.616 347.833 152.736C347.917 152.856 347.976 152.992 348.007 153.135C348.038 153.278 348.041 153.425 348.015 153.57C347.989 153.714 347.935 153.851 347.856 153.974C347.777 154.097 347.675 154.204 347.555 154.287C340.347 159.3 333.747 168.868 331.504 177.57C331.442 177.809 331.303 178.021 331.107 178.172C330.912 178.323 330.672 178.405 330.425 178.405H330.411Z" fill="white"/>
<path d="M325.199 165.242C325.003 165.239 324.811 165.184 324.642 165.084C324.469 164.981 324.328 164.834 324.232 164.658C324.137 164.481 324.091 164.282 324.099 164.082C324.107 163.881 324.17 163.687 324.28 163.519C326.571 160.01 331.969 155.229 333.756 154.271C334.011 154.163 334.297 154.154 334.558 154.246C334.819 154.339 335.036 154.524 335.169 154.767C335.3 155.01 335.337 155.293 335.271 155.562C335.205 155.831 335.041 156.065 334.812 156.22C333.46 156.944 328.304 161.419 326.147 164.722C326.048 164.88 325.91 165.011 325.746 165.1C325.579 165.194 325.391 165.243 325.199 165.242Z" fill="white"/>
<path d="M344.204 177.924C344.078 177.923 343.953 177.902 343.834 177.862C343.696 177.812 343.57 177.737 343.46 177.64C343.351 177.542 343.262 177.424 343.198 177.291C343.134 177.16 343.097 177.017 343.09 176.871C343.082 176.725 343.103 176.58 343.151 176.442L348.547 161.06C348.595 160.921 348.671 160.794 348.769 160.685C348.867 160.576 348.986 160.488 349.118 160.425C349.317 160.33 349.539 160.296 349.757 160.327C349.975 160.358 350.179 160.454 350.343 160.6C350.507 160.747 350.624 160.939 350.678 161.152C350.733 161.365 350.724 161.59 350.651 161.798L345.255 177.18C345.179 177.397 345.036 177.586 344.848 177.719C344.66 177.852 344.435 177.923 344.204 177.924Z" fill="white"/>
<path d="M358.856 186C358.696 185.999 358.537 185.966 358.39 185.902C358.169 185.803 357.985 185.635 357.868 185.422C357.751 185.209 357.706 184.964 357.741 184.724C358.957 176.614 358.73 168.353 357.072 160.322C357.038 160.176 357.034 160.025 357.058 159.877C357.082 159.73 357.135 159.59 357.214 159.464C357.295 159.339 357.4 159.23 357.523 159.145C357.646 159.06 357.784 159 357.931 158.969C358.077 158.939 358.228 158.938 358.375 158.967C358.521 158.997 358.66 159.055 358.784 159.139C358.907 159.224 359.013 159.332 359.094 159.457C359.174 159.583 359.229 159.724 359.254 159.871C360.974 168.156 361.217 176.68 359.971 185.05C359.931 185.316 359.796 185.559 359.591 185.733C359.386 185.908 359.125 186.002 358.856 186Z" fill="white"/>
<path d="M367.128 177.32H367.106C366.96 177.314 366.816 177.281 366.682 177.222C366.549 177.161 366.429 177.075 366.328 176.969C366.228 176.863 366.149 176.738 366.097 176.601C366.047 176.464 366.022 176.319 366.024 176.172C366.091 174.112 364.558 166.047 362.9 162.505C362.833 162.371 362.792 162.226 362.78 162.076C362.766 161.925 362.784 161.773 362.832 161.629C362.88 161.486 362.957 161.353 363.059 161.241C363.209 161.073 363.408 160.954 363.627 160.901C363.847 160.848 364.077 160.862 364.288 160.943C364.429 160.996 364.557 161.078 364.664 161.183C364.773 161.286 364.858 161.411 364.915 161.55C366.682 165.315 368.332 173.691 368.26 176.231C368.25 176.522 368.125 176.798 367.914 176.999C367.704 177.206 367.422 177.321 367.128 177.32Z" fill="white"/>
<path d="M96.3577 69.4859C96.2635 69.4852 96.1698 69.4721 96.079 69.4469C90.1202 67.8457 88.7685 66.8404 88.4424 65.6458C88.1637 64.5877 88.9246 63.8107 89.1754 63.5545C91.2434 61.4633 100.917 54.7578 103.966 53.3042C104.099 53.2411 104.242 53.2046 104.388 53.1969C104.534 53.1891 104.681 53.2102 104.819 53.259C104.957 53.3077 105.084 53.3831 105.193 53.481C105.302 53.5788 105.39 53.6971 105.453 53.8291C105.516 53.9611 105.553 54.1043 105.561 54.2504C105.569 54.3965 105.547 54.5427 105.499 54.6806C105.45 54.8186 105.374 54.9456 105.276 55.0544C105.179 55.1632 105.06 55.2516 104.928 55.3147C101.862 56.7767 92.5311 63.3318 90.764 65.1195L90.7362 65.1474C91.1515 65.462 92.4753 66.1721 96.6587 67.2971C96.9184 67.3669 97.1441 67.5281 97.2942 67.751C97.4063 67.9179 97.4712 68.1119 97.482 68.3126C97.4927 68.5133 97.4489 68.7131 97.3552 68.891C97.2615 69.0688 97.1213 69.218 96.9497 69.3227C96.778 69.4275 96.5812 69.4838 96.38 69.4859H96.3577Z" fill="white"/>
<path d="M111.319 51.962C111.069 51.9594 110.827 51.8742 110.63 51.7197C110.435 51.5648 110.297 51.349 110.239 51.1067C110.181 50.8644 110.206 50.6096 110.31 50.3831C110.412 50.1519 110.59 49.9624 110.814 49.8456C124.064 43.1624 132.944 39.896 147.406 36.4486C147.55 36.412 147.699 36.4044 147.846 36.4263C147.992 36.4489 148.132 36.499 148.259 36.5739C148.384 36.652 148.494 36.7531 148.582 36.8719C148.668 36.9906 148.731 37.1249 148.766 37.2673C148.8 37.4116 148.805 37.5611 148.78 37.7073C148.757 37.8526 148.705 37.9919 148.627 38.1166C148.548 38.2419 148.446 38.3507 148.326 38.4368C148.204 38.5213 148.068 38.5818 147.924 38.6151C133.666 42.0179 124.892 45.2314 111.82 51.8422C111.665 51.9208 111.493 51.9618 111.319 51.962Z" fill="white"/>
<path d="M157.562 34.956C157.294 34.9594 157.034 34.8664 156.83 34.6941C156.625 34.5218 156.489 34.2817 156.447 34.0176C156.405 33.7562 156.458 33.4884 156.596 33.2624C156.734 33.0363 156.948 32.8667 157.2 32.784C158.315 32.4081 159.594 32.0767 160.823 31.7592C162.052 31.4418 163.239 31.1271 164.301 30.7735C164.582 30.68 164.888 30.7018 165.152 30.8339C165.417 30.966 165.618 31.1977 165.711 31.478C165.805 31.7583 165.783 32.0642 165.651 32.3284C165.519 32.5927 165.287 32.7936 165.006 32.887C163.875 33.263 162.612 33.5943 161.383 33.9146C160.154 34.2348 158.967 34.5439 157.908 34.8976C157.796 34.9351 157.68 34.9549 157.562 34.956Z" fill="white"/>
<path d="M85.4406 265.805C91.7673 287.024 100.794 307.344 112.3 326.266C115.087 330.866 118.431 335.692 123.565 337.332C126.595 338.304 129.867 338.014 133.041 337.716C196.798 331.718 260.689 325.701 323.527 313.415C326.54 312.824 329.678 312.164 332.072 310.243C335.907 307.16 336.81 301.769 337.298 296.876C339.849 271.979 339.421 246.866 336.024 222.069C335.483 218.123 334.776 213.994 332.248 210.905C327.51 205.166 318.794 205.489 311.403 206.316L251.774 212.999C202.573 218.519 153.231 224.057 105.037 235.385C99.1837 236.778 93.4674 238.449 88.6847 242.247C84.624 245.469 83.2165 249.713 83.3893 254.934C83.5147 258.637 84.3898 262.283 85.4406 265.805Z" fill="#007EEF"/>
<path d="M107.408 267.476C106.293 267.476 105.973 267.198 105.758 267.039C104.599 266.089 102.623 260.609 102.046 258.963C100.374 254.151 99.7216 251.166 100.123 250.13C100.198 249.917 100.324 249.726 100.491 249.573C100.656 249.422 100.856 249.315 101.073 249.261C106.026 247.098 109.365 245.722 114.638 244.823C115.216 244.736 115.806 244.778 116.365 244.948C116.925 245.118 117.439 245.41 117.871 245.803C118.351 246.289 118.672 246.91 118.791 247.582L121.204 257.05C121.762 259.278 122.13 261.547 120.942 263.241C120.184 264.324 119.03 264.683 118.013 265C117.76 265.078 117.52 265.154 117.291 265.237C115.199 265.984 113.057 266.585 110.881 267.036C109.74 267.294 108.577 267.441 107.408 267.476ZM107.13 265.248C108.267 265.418 113.005 264.441 116.53 263.143C116.809 263.04 117.088 262.951 117.367 262.865C118.141 262.622 118.81 262.413 119.134 261.954C119.897 260.865 119.331 258.654 119.061 257.593L116.647 248.125C116.606 247.886 116.52 247.656 116.394 247.449C116.212 247.282 115.996 247.156 115.761 247.081C115.526 247.003 115.277 246.979 115.031 247.009C110.089 247.836 107.024 249.094 102.23 251.177C102.347 253.684 105.995 263.728 107.118 265.24L107.13 265.248Z" fill="white"/>
<path d="M141.631 259.283C141.348 259.288 141.066 259.25 140.795 259.172C139.273 258.682 138.738 256.691 138.286 254.516C138.253 254.363 138.225 254.237 138.197 254.104C137.871 252.639 137.422 250.979 136.99 249.37C136.452 247.384 135.945 245.507 135.728 244.201C135.644 243.856 135.7 243.492 135.884 243.188C136.121 242.79 136.564 242.043 141.611 240.79C144.42 240.102 147.266 239.572 150.134 239.203C152.601 238.899 153.367 240.345 153.576 241.609C153.866 243.127 154.284 244.617 154.825 246.064C155.162 247.053 155.511 248.075 155.842 249.242C155.884 249.389 155.945 249.587 156.018 249.815C156.62 251.742 157.085 253.419 156.664 254.427C155.945 256.159 154.591 256.46 153.281 256.752L152.98 256.819L145.903 258.417C145.725 258.456 145.48 258.523 145.196 258.598C143.777 258.974 142.559 259.283 141.631 259.283ZM141.492 257.055C142.007 257.15 143.902 256.646 144.619 256.457C144.936 256.373 145.207 256.301 145.402 256.256L152.79 254.566C154.039 254.288 154.343 254.171 154.594 253.589C154.694 253.032 154.086 251.11 153.888 250.47C153.808 250.216 153.741 249.999 153.693 249.835C153.378 248.721 153.041 247.732 152.712 246.772C152.13 245.208 151.682 243.599 151.372 241.96C151.285 241.428 151.263 241.3 150.405 241.403C145.502 242.007 139.535 243.472 138.002 244.263C138.233 245.443 138.674 247.075 139.139 248.793C139.58 250.42 140.034 252.104 140.371 253.616C140.399 253.747 140.43 253.895 140.466 254.056C140.842 255.825 141.188 256.841 141.5 257.053L141.492 257.055Z" fill="white"/>
<path d="M186.361 284.438C185.889 284.435 185.42 284.367 184.967 284.234C183.345 283.764 182.796 281.806 182.395 280.375C182.353 280.227 182.311 280.096 182.275 279.954C181.823 278.437 181.233 276.891 180.661 275.393C179.315 271.879 178.585 269.824 179.217 268.498C179.324 268.272 179.473 268.07 179.658 267.902C179.841 267.734 180.056 267.606 180.29 267.523C185.285 265.379 191.269 264.572 195.932 264.109C196.193 264.084 196.455 264.151 196.672 264.299C196.888 264.447 197.046 264.667 197.116 264.92C197.573 266.574 198.089 268.509 198.588 270.383C199.087 272.257 199.597 274.182 200.051 275.822C200.293 276.699 200.661 278.024 200.179 279.278C199.424 281.249 197.113 281.845 195.998 282.132L188.08 284.184C187.52 284.341 186.942 284.426 186.361 284.438ZM181.221 269.556C181.121 270.339 182.057 272.789 182.751 274.602C183.309 276.064 183.944 277.724 184.424 279.336C184.466 279.478 184.51 279.614 184.555 279.79C184.708 280.347 185.171 281.984 185.605 282.11C186.266 282.302 186.751 282.24 187.526 282.04L195.461 279.993C196.656 279.684 197.807 279.289 198.108 278.498C198.312 277.972 198.139 277.25 197.913 276.432C197.456 274.78 196.94 272.845 196.444 270.971C196.035 269.439 195.608 267.863 195.229 266.44C190.893 266.883 185.603 267.677 181.221 269.556Z" fill="white"/>
<path d="M178.242 252.461C177.595 252.461 176.949 252.347 176.528 251.982C175.731 251.294 175.435 249.902 175.332 249.131C175.04 247.199 174.636 245.285 174.123 243.4C173.598 241.442 173.181 239.458 172.874 237.454C172.787 237.1 172.777 236.732 172.844 236.373C172.912 236.015 173.056 235.675 173.267 235.377C173.964 234.478 175.157 234.391 176.213 234.316C176.455 234.299 176.701 234.28 176.943 234.252C180.009 233.896 183.189 233.105 186.001 232.409C186.773 232.217 187.52 232.033 188.231 231.852C189.237 231.612 190.09 231.718 190.764 232.166C191.104 232.406 191.389 232.715 191.6 233.073C191.811 233.432 191.943 233.831 191.988 234.244C192.657 238.198 193.526 242.598 194.312 246.012C194.418 246.471 194.741 247.872 193.808 248.835C193.25 249.392 192.542 249.565 191.907 249.71C190.394 250.063 188.891 250.342 187.292 250.648C185.045 251.08 182.718 251.525 180.26 252.166C179.601 252.342 178.924 252.441 178.242 252.461ZM177.935 250.233C178.534 250.248 179.131 250.18 179.711 250.033C182.241 249.373 184.602 248.919 186.887 248.485C188.459 248.184 189.953 247.9 191.416 247.56C191.693 247.515 191.961 247.431 192.214 247.309C192.25 247.049 192.227 246.783 192.147 246.533C191.352 243.08 190.474 238.632 189.797 234.636C189.786 234.415 189.695 234.205 189.541 234.046C189.286 233.954 189.007 233.954 188.752 234.046C188.041 234.216 187.303 234.4 186.522 234.589C183.646 235.302 180.391 236.109 177.188 236.483C176.91 236.516 176.631 236.536 176.352 236.555C175.929 236.586 175.237 236.633 175.026 236.753C175.02 236.866 175.029 236.979 175.051 237.09V237.143C175.347 239.075 175.75 240.989 176.258 242.876C176.79 244.841 177.209 246.834 177.512 248.847C177.577 249.325 177.72 249.79 177.935 250.222V250.233Z" fill="white"/>
<path d="M214.374 246.073C213.671 246.073 212.66 245.639 212.164 243.386C211.952 242.425 211.704 241.414 211.442 240.345C210.567 236.767 209.574 232.715 209.691 229.412C209.701 229.17 209.789 228.937 209.942 228.75C210.737 227.772 212.317 227.636 215.185 227.385C217.158 227.212 219.613 226.998 222.71 226.463L222.922 226.424C225.522 225.915 226.921 225.887 227.754 226.327C228.942 226.956 229.028 227.931 229.087 228.577C229.246 230.329 229.58 232.239 229.903 234.085C230.232 235.976 230.575 237.933 230.739 239.777C230.737 239.861 230.745 239.945 230.765 240.028C230.901 241.317 230.965 242.442 230.369 243.138C229.772 243.834 228.794 244.082 228.248 244.188C225.689 244.684 223.443 244.94 221.065 245.213C219.115 245.435 217.083 245.666 214.655 246.048C214.562 246.062 214.468 246.07 214.374 246.073ZM211.913 230.053C211.929 232.96 212.818 236.591 213.607 239.816C213.886 240.899 214.123 241.921 214.34 242.904C214.4 243.212 214.493 243.513 214.619 243.801C216.957 243.439 218.914 243.213 220.806 242.999C223.139 242.72 225.344 242.481 227.819 242.002C228.093 241.949 228.358 241.855 228.605 241.723C228.629 241.231 228.608 240.738 228.54 240.25C228.537 240.157 228.528 240.064 228.513 239.972C228.356 238.22 228.022 236.31 227.699 234.464C227.367 232.57 227.024 230.613 226.863 228.769C226.854 228.628 226.835 228.487 226.807 228.349L226.709 228.29C226.584 228.24 225.929 228.098 223.348 228.605L223.069 228.655C219.881 229.212 217.269 229.432 215.36 229.599C213.967 229.727 212.54 229.852 211.915 230.053H211.913Z" fill="white"/>
<path d="M254.817 241.328C253.51 241.328 252.546 241.144 251.963 240.707C251.899 240.658 251.84 240.603 251.787 240.542C250.801 239.401 249.915 234.622 249.666 233.183C249.17 230.309 248.713 226.589 249.349 225.177C249.448 224.92 249.616 224.694 249.834 224.525C250.052 224.358 250.313 224.255 250.586 224.227C251.838 224.032 252.961 223.851 254.017 223.67C257.529 223.113 260.299 222.659 264.438 222.256C265.181 222.188 265.921 222.411 266.502 222.879C267.083 223.347 267.459 224.022 267.551 224.762C267.76 226.499 268.162 228.435 268.549 230.306C268.769 231.384 268.981 232.403 269.151 233.369C269.53 235.494 269.708 237.607 268.549 238.66C267.89 239.259 267.057 239.633 266.172 239.729C265.659 239.818 265.112 239.919 264.547 240.022C260.383 240.776 257.083 241.328 254.817 241.328ZM253.423 238.98C254.778 239.537 261.082 238.387 264.162 237.83L265.798 237.552C266.461 237.435 266.696 237.357 267.066 237.02C267.153 236.914 267.426 236.343 266.969 233.773C266.801 232.843 266.595 231.824 266.375 230.777C265.979 228.861 265.57 226.878 265.349 225.049C265.341 224.967 265.317 224.888 265.279 224.816C265.24 224.744 265.187 224.68 265.124 224.628C265.06 224.576 264.987 224.538 264.909 224.514C264.83 224.491 264.748 224.483 264.667 224.492C260.597 224.887 257.855 225.327 254.385 225.884L251.319 226.374C250.909 228.504 252.518 237.362 253.412 238.98H253.423Z" fill="white"/>
<path d="M292.813 235.524C292.358 235.553 291.904 235.441 291.514 235.204C290.873 234.764 290.467 233.923 290.302 232.698C290.065 230.949 289.706 228.799 289.357 226.691C288.892 223.907 288.488 221.465 288.435 220.37C288.406 220.114 288.441 219.855 288.538 219.616C288.635 219.376 288.791 219.165 288.992 219.003C291.258 216.937 304.809 215.608 307.228 216.449C307.493 216.519 307.733 216.662 307.92 216.862C308.107 217.062 308.234 217.311 308.284 217.58C308.29 217.634 308.29 217.688 308.284 217.742C308.315 219.643 308.594 222.027 308.867 224.333C309.146 226.697 309.424 229.139 309.463 231.155V231.258C309.536 233.263 307.975 233.801 305.606 233.99L304.962 234.043C300.848 234.374 299.146 234.511 295.603 235.135L295.297 235.19C294.481 235.377 293.649 235.489 292.813 235.524ZM292.755 233.297C293.472 233.268 294.186 233.175 294.887 233.018L295.232 232.954C298.878 232.311 300.612 232.172 304.801 231.84L305.444 231.787C306.062 231.768 306.672 231.652 307.253 231.442V231.205C307.222 229.303 306.944 226.917 306.671 224.611C306.425 222.514 306.172 220.354 306.094 218.485C305.029 218.349 302.312 218.382 298.387 218.869C293.911 219.426 291.445 220.134 290.692 220.54C290.79 221.654 291.186 224.032 291.57 226.346C291.921 228.457 292.284 230.637 292.523 232.42C292.554 232.721 292.63 233.017 292.746 233.297H292.755Z" fill="white"/>
<path d="M118.821 300.507C118.466 300.51 118.114 300.443 117.785 300.313C116.915 299.964 116.433 299.235 116.048 298.578C113.863 294.853 112.225 290.833 111.185 286.643C111.284 285.86 111.433 285.084 111.631 284.32C114.309 282.466 121.943 280.232 127.4 279.308C127.69 279.259 127.987 279.327 128.228 279.497C128.468 279.666 128.631 279.924 128.682 280.213C129.044 282.248 129.83 284.526 130.591 286.726C131.38 289.01 132.194 291.368 132.584 293.579C132.684 294.136 132.863 295.186 132.261 296.058C131.745 296.796 130.912 297.043 130.413 297.191C128.78 297.673 127.052 298.199 125.379 298.709C123.707 299.218 121.982 299.742 120.346 300.226C119.854 300.394 119.341 300.488 118.821 300.507ZM113.281 285.91C113.311 285.973 113.335 286.04 113.35 286.108C114.338 290.091 115.894 293.91 117.971 297.45C118.113 297.695 118.381 298.152 118.618 298.246C118.855 298.341 119.373 298.193 119.71 298.093C121.341 297.611 123.055 297.085 124.727 296.578C126.399 296.071 128.136 295.542 129.777 295.058C130.012 295.011 130.234 294.916 130.43 294.779C130.46 294.738 130.494 294.573 130.388 293.963C130.025 291.925 129.24 289.65 128.479 287.45C127.79 285.562 127.2 283.64 126.709 281.691C121.564 282.674 115.613 284.54 113.281 285.91Z" fill="white"/>
<path d="M221.982 277.058C221.539 277.064 221.099 276.968 220.698 276.779C219.861 276.362 219.432 275.599 219.101 274.914C217.219 271.038 215.905 266.911 215.199 262.661C215.158 262.462 215.158 262.256 215.199 262.057C215.237 261.857 215.316 261.668 215.43 261.5C216.361 260.088 220.232 259.077 231.364 257.345L232.587 257.153C232.738 257.129 232.891 257.135 233.039 257.173C233.186 257.211 233.324 257.278 233.446 257.37C233.561 257.464 233.656 257.581 233.724 257.713C233.799 257.845 233.845 257.993 233.858 258.144C234.064 260.255 234.416 262.497 234.775 264.663C235.135 266.83 235.5 269.138 235.712 271.321C235.765 271.878 235.868 272.945 235.196 273.766C234.639 274.463 233.772 274.644 233.265 274.752L223.253 276.885C222.837 276.988 222.411 277.046 221.982 277.058ZM217.439 262.619C218.125 266.543 219.358 270.352 221.102 273.933C221.227 274.19 221.458 274.666 221.687 274.769C221.916 274.872 222.442 274.769 222.802 274.702L232.813 272.569C233.049 272.541 233.278 272.466 233.485 272.349C233.518 272.307 233.566 272.146 233.504 271.53C233.301 269.42 232.947 267.178 232.587 265.011C232.309 263.204 231.996 261.344 231.779 259.528H231.707C228.54 260.038 219.223 261.48 217.439 262.619Z" fill="white"/>
<path d="M150.689 291.168C150.223 291.173 149.764 291.057 149.357 290.831C148.585 290.391 148.197 289.631 147.893 288.952C145.988 284.689 144.696 280.177 144.058 275.552C144.018 275.256 144.096 274.955 144.276 274.716C144.455 274.483 144.72 274.33 145.012 274.29C145.2 274.262 145.393 274.285 145.569 274.357C149.83 273.062 153.267 272.366 157.553 271.5L159.095 271.188C159.602 271.085 160.655 270.871 161.528 271.517C162.4 272.163 162.551 273.254 162.643 273.842L164.162 284.468C164.256 285.137 164.418 286.259 163.836 287.194C163.253 288.13 162.197 288.436 161.57 288.609C159.761 289.099 158.247 289.444 156.781 289.779C155.315 290.113 153.844 290.447 152.08 290.926C151.629 291.068 151.161 291.149 150.689 291.168ZM146.447 276.429C147.102 280.434 148.272 284.338 149.928 288.044C150.037 288.283 150.26 288.779 150.463 288.896C150.667 289.013 151.21 288.865 151.503 288.784C153.312 288.294 154.828 287.949 156.294 287.615C157.76 287.281 159.229 286.947 160.993 286.468C161.302 286.381 161.829 286.242 161.949 286.03C162.069 285.819 162.01 285.137 161.949 284.791L160.43 274.159C160.341 273.55 160.257 273.36 160.198 273.307C159.976 273.285 159.751 273.308 159.538 273.374L157.997 273.686C153.847 274.533 150.502 275.206 146.447 276.429Z" fill="white"/>
<path d="M297.362 265.145C296.623 265.193 295.889 264.997 295.272 264.588C294.435 263.978 294.19 262.99 294.037 262.399C293.691 261.066 293.368 258.949 293.025 256.71C292.705 254.625 292.376 252.466 292.058 251.244C292.205 251.003 292.27 250.72 292.242 250.439C292.215 250.16 292.099 249.896 291.91 249.687C291.889 249.54 291.898 249.391 291.936 249.247C291.974 249.104 292.04 248.97 292.131 248.852C292.31 248.618 292.574 248.465 292.866 248.426C297.887 247.779 302.947 247.5 308.008 247.591H308.321C308.849 247.517 309.386 247.594 309.873 247.81C311.37 248.554 311.381 250.453 311.384 251.077C311.384 252.088 311.448 253.216 311.509 254.419C311.643 256.289 311.674 258.165 311.601 260.038C311.543 260.94 311.448 262.449 310.464 263.522C309.349 264.733 307.707 264.858 306.253 264.883C304.979 264.903 303.466 264.964 301.974 265.023C300.483 265.081 298.937 265.142 297.635 265.165L297.362 265.145ZM294.159 250.506C294.182 250.561 294.202 250.616 294.218 250.673C294.564 252.007 294.887 254.123 295.23 256.362C295.547 258.448 295.879 260.606 296.194 261.829C296.275 262.135 296.409 262.647 296.601 262.789C296.793 262.931 297.295 262.92 297.602 262.915C298.875 262.895 300.405 262.834 301.885 262.775C303.365 262.717 304.918 262.653 306.216 262.633C307.253 262.617 308.307 262.553 308.82 261.996C309.238 261.539 309.324 260.698 309.377 259.874C309.442 258.086 309.41 256.295 309.282 254.51C309.221 253.291 309.162 252.141 309.154 251.08C309.154 249.966 308.906 249.807 308.875 249.793C308.737 249.779 308.598 249.779 308.46 249.793C308.3 249.807 308.139 249.813 307.978 249.81C303.361 249.733 298.745 249.965 294.159 250.506Z" fill="white"/>
<path d="M259.625 271.001C258.885 271.046 258.151 270.85 257.532 270.444C256.696 269.834 256.45 268.846 256.297 268.253C255.957 266.936 255.558 264.747 255.182 262.63C254.806 260.514 254.418 258.406 254.095 257.17C254.098 257.161 254.098 257.151 254.095 257.142C254.022 256.83 254.015 256.507 254.073 256.192C254.131 255.878 254.257 255.58 254.441 255.318C254.623 255.055 254.858 254.834 255.132 254.669C255.404 254.502 255.71 254.396 256.027 254.357C258.084 254.095 260.023 253.87 261.899 253.655C264.243 253.377 266.662 253.098 269.327 252.748C269.936 252.662 270.555 252.666 271.163 252.762C272.688 253.004 273.362 253.875 273.56 255.855C273.713 257.365 273.797 258.866 273.878 260.311C273.936 261.375 273.992 262.377 274.07 263.288C274.173 264.491 274.302 267.412 273.276 268.528C272.367 269.52 270.974 270.038 269.137 270.065C267.634 270.137 266.137 270.289 264.65 270.519C263.08 270.758 261.498 270.916 259.912 270.99L259.625 271.001ZM256.255 256.616C256.595 257.935 256.988 260.113 257.37 262.215C257.752 264.318 258.136 266.44 258.457 267.679C258.535 267.983 258.669 268.498 258.861 268.64C259.053 268.782 259.555 268.768 259.862 268.762C261.363 268.687 262.86 268.537 264.346 268.311C265.916 268.069 267.497 267.911 269.084 267.838C270.285 267.821 271.138 267.559 271.615 267.025C271.824 266.71 271.972 265.114 271.832 263.477C271.749 262.533 271.693 261.528 271.634 260.433C271.553 259.008 271.473 257.532 271.325 256.073C271.239 255.201 271.085 255.02 271.077 255.012C270.986 254.983 270.893 254.965 270.798 254.956C270.403 254.897 270.001 254.897 269.605 254.956C266.924 255.315 264.491 255.596 262.139 255.866C260.269 256.084 258.337 256.306 256.286 256.568C256.28 256.566 256.273 256.566 256.266 256.568H256.25C256.248 256.584 256.25 256.6 256.255 256.616Z" fill="white"/>
<path d="M163.211 318.104C164.081 318.747 165.271 318.661 166.344 318.524C201.759 314.347 238.156 307.544 273.477 302.435C273.846 302.382 274.192 302.223 274.471 301.975C274.746 301.726 274.94 301.401 275.029 301.042C275.951 297.213 275.865 286.125 271.422 286.473C267.395 286.788 225.898 292.396 217.47 293.543C200.661 295.829 183 298.088 166.372 301.479C162.542 302.259 160.734 302.978 159.903 305.804C159.488 307.216 159.819 308.653 160.198 310.026C160.678 311.713 161.698 316.982 163.211 318.104Z" fill="#FF5400"/>
<path d="M128.105 327.658C127.727 327.657 127.355 327.565 127.021 327.388C126.687 327.211 126.401 326.956 126.188 326.644C123.916 323.283 121.034 315.461 120.867 312.214C120.854 311.972 120.921 311.733 121.057 311.532C121.189 311.33 121.386 311.178 121.614 311.1C122.59 310.763 123.582 310.404 124.543 310.059C127.33 309.045 130.232 308.001 133.203 307.31C138.348 306.113 139.334 308.073 140.059 310.763C140.095 310.891 140.131 311.025 140.168 311.159C141.004 314.102 142.027 317.967 142.213 319.669C142.353 320.952 142.369 322.412 141.425 323.523C140.641 324.444 139.502 324.742 138.665 324.962L128.693 327.58C128.501 327.629 128.304 327.656 128.105 327.658ZM123.189 312.916C123.707 316.174 126.185 322.662 128.038 325.397C128.049 325.412 128.065 325.422 128.083 325.427C128.099 325.433 128.117 325.433 128.133 325.427L138.105 322.81C138.816 322.623 139.426 322.442 139.73 322.083C140.126 321.615 140.09 320.724 140.009 319.914C139.875 318.705 139.173 315.812 138.033 311.766C137.994 311.627 137.958 311.487 137.919 311.354C137.668 310.435 137.467 309.708 137.055 309.404C136.706 309.162 135.845 308.976 133.71 309.468C130.867 310.128 128.038 311.153 125.304 312.142L123.189 312.916Z" fill="white"/>
<path d="M303.792 295.843C303.199 295.865 302.615 295.701 302.119 295.375C301.283 294.771 301.066 293.782 300.943 293.189C300.879 292.891 300.784 292.46 300.664 291.933C298.95 284.284 298.641 281.288 299.438 280.062C299.624 279.771 299.902 279.549 300.227 279.43C300.386 279.274 300.588 279.17 300.807 279.129C303.134 278.734 305.483 278.48 307.841 278.369C309.185 278.277 310.575 278.183 311.922 278.035C312.943 277.919 313.969 278.203 314.786 278.825C315.603 279.448 316.147 280.362 316.306 281.377C316.359 281.719 316.414 282.073 316.473 282.432C316.947 285.437 317.487 288.837 317.309 290.964C317.228 291.855 317.08 292.869 316.325 293.646C315.45 294.545 314.171 294.643 313.407 294.701C312.242 294.788 310.578 295.022 308.97 295.258C307.362 295.495 305.625 295.729 304.391 295.815C304.204 295.826 304.003 295.843 303.792 295.843ZM301.283 281.38C301.044 282.39 301.562 285.774 302.838 291.446C302.961 292.003 303.059 292.432 303.117 292.738C303.153 292.916 303.268 293.462 303.396 293.557C303.524 293.652 304.012 293.607 304.196 293.593C305.361 293.504 307.025 293.27 308.633 293.036C310.241 292.802 311.977 292.568 313.212 292.479C313.822 292.432 314.438 292.365 314.7 292.095C314.962 291.825 315.015 291.276 315.063 290.764C315.227 288.915 314.689 285.515 314.257 282.78L314.09 281.719C314.019 281.269 313.777 280.863 313.413 280.588C313.049 280.314 312.592 280.191 312.139 280.246C310.745 280.402 309.332 280.497 307.958 280.589C305.751 280.697 303.551 280.929 301.37 281.282C301.344 281.316 301.316 281.349 301.286 281.38H301.283Z" fill="white"/>
<path d="M93.0382 269.951C92.8132 269.95 92.5939 269.881 92.4083 269.754C92.2225 269.626 92.0796 269.446 91.9986 269.236C91.8063 268.735 91.5415 268.097 91.2349 267.362C90.056 264.527 88.2778 260.247 87.5922 256.312C86.7561 251.578 88.2778 245.154 95.2567 242.703C95.5357 242.606 95.8422 242.623 96.1088 242.75C96.3754 242.878 96.5801 243.107 96.6781 243.386C96.776 243.665 96.7591 243.971 96.6311 244.237C96.503 244.503 96.2743 244.708 95.9953 244.806C90.3375 246.794 89.0777 251.857 89.7884 255.945C90.4322 259.634 92.1547 263.778 93.2946 266.526C93.6067 267.278 93.8771 267.919 94.0805 268.459C94.1471 268.627 94.1701 268.809 94.1474 268.988C94.125 269.167 94.0599 269.338 93.9576 269.487C93.8553 269.636 93.7187 269.758 93.5593 269.843C93.3984 269.927 93.2196 269.971 93.0382 269.971V269.951Z" fill="#162B43"/>
<path d="M138.239 332.489C138.093 332.495 137.947 332.472 137.809 332.421C137.672 332.37 137.546 332.292 137.438 332.193C137.331 332.093 137.244 331.973 137.183 331.84C137.122 331.707 137.088 331.564 137.082 331.417C137.077 331.271 137.1 331.125 137.151 330.988C137.202 330.851 137.28 330.725 137.379 330.617C137.479 330.51 137.599 330.424 137.732 330.362C137.865 330.301 138.009 330.267 138.155 330.262C164.421 328.262 200.714 324.414 228.457 320.66C228.602 320.641 228.75 320.649 228.892 320.685C229.033 320.723 229.166 320.788 229.282 320.877C229.394 320.968 229.489 321.078 229.56 321.203C229.704 321.457 229.745 321.756 229.675 322.039C229.637 322.18 229.572 322.313 229.483 322.43C229.394 322.547 229.283 322.644 229.156 322.718C229.029 322.792 228.889 322.84 228.744 322.86C200.954 326.608 164.61 330.473 138.306 332.475L138.239 332.489Z" fill="#162B43"/>
<path d="M76.4858 306.901C74.0067 306.924 71.5431 306.508 69.2088 305.673C65.7301 304.369 62.7872 301.942 60.8475 298.775C59.1586 296.008 58.4841 293.033 58.8799 290.215C54.8414 291.374 50.8726 292.972 47.0208 294.529C42.7873 296.236 38.4088 298.001 33.8993 299.204C22.6311 302.203 12.2213 300.418 6.05633 294.426C1.98719 290.472 -0.161651 284.732 0.00836126 278.275C0.214069 272.188 2.23789 266.302 5.81942 261.375C12.8484 251.832 23.8156 246.463 34.4455 241.782L36.3658 240.946C46.1513 236.655 56.2684 232.216 63.5956 224.575C65.2985 222.801 69.0722 218.221 67.3414 214.08C66.7116 212.573 65.3765 211.237 63.1441 209.878C57.9713 206.728 52.1184 205.355 45.9227 203.899C42.6423 203.131 39.2532 202.334 36.0035 201.251C32.921 200.223 29.0832 198.625 26.7671 195.347C22.1517 188.801 26.0899 179.778 31.3128 173.499C47.7566 153.742 73.8716 142.589 99.4988 144.394C108.543 145.028 121.09 147.666 129.496 156.624C130.115 157.284 130.711 157.977 131.285 158.646C132.757 160.358 134.148 161.987 135.915 163.101C138.144 164.516 141.464 164.883 143.189 163.045C143.289 162.938 143.409 162.852 143.543 162.791C143.676 162.73 143.82 162.697 143.967 162.692C144.262 162.684 144.549 162.792 144.767 162.992C144.874 163.092 144.96 163.213 145.02 163.346C145.081 163.48 145.114 163.624 145.119 163.77C145.123 163.916 145.099 164.062 145.047 164.199C144.995 164.336 144.917 164.462 144.817 164.568C142.202 167.353 137.662 166.857 134.716 164.978C132.671 163.675 131.093 161.853 129.594 160.094C129.036 159.442 128.457 158.771 127.871 158.144C119.956 149.709 107.988 147.217 99.3427 146.61C74.415 144.859 49.008 155.697 33.0325 174.894C28.3362 180.536 24.7047 188.539 28.5954 194.03C30.5464 196.779 33.955 198.188 36.7142 199.107C39.8664 200.157 43.2081 200.942 46.4383 201.699C52.5281 203.131 58.8297 204.609 64.3091 207.945C65.9813 208.962 68.3281 210.613 69.4067 213.192C71.6363 218.546 67.2188 223.993 65.2093 226.087C57.5755 234.049 47.2522 238.577 37.2688 242.954L35.3485 243.789C24.9945 248.351 14.3228 253.564 7.62266 262.664C1.39633 271.115 -0.376256 285.044 7.62266 292.811C13.2219 298.252 22.8346 299.828 33.3363 297.032C37.7148 295.866 42.0292 294.125 46.1986 292.443C50.6831 290.633 55.3208 288.762 60.134 287.562C60.3265 287.509 60.5296 287.509 60.7221 287.562C60.9128 287.618 61.085 287.723 61.221 287.868C61.3586 288.014 61.454 288.195 61.4972 288.391C61.5403 288.587 61.5297 288.791 61.4663 288.982C59.4986 295.027 64.3788 301.513 69.9892 303.56C75.2261 305.461 81.6308 304.879 89.0277 301.819C89.2996 301.712 89.6026 301.716 89.8716 301.83C90.1405 301.944 90.3539 302.159 90.4658 302.429C90.5778 302.699 90.5792 303.002 90.4697 303.273C90.3602 303.543 90.1487 303.761 89.8805 303.877C85.0227 305.904 80.5466 306.901 76.4858 306.901Z" fill="#162B43"/>
<path d="M86.8313 312.847C86.3326 312.855 85.8404 312.732 85.4043 312.49C84.5264 311.986 84.1585 311.098 83.8798 310.332C82.6366 306.833 81.6784 303.239 81.0147 299.586C80.8976 298.951 80.683 297.77 81.2934 296.765C81.7142 296.08 82.3497 295.718 82.9656 295.404C87.816 292.923 93.0143 291.19 98.3838 290.263C98.5286 290.238 98.677 290.241 98.8205 290.273C98.964 290.305 99.0997 290.365 99.2199 290.45C99.34 290.534 99.4422 290.641 99.5209 290.764C99.6775 291.013 99.7296 291.313 99.6658 291.6C99.6337 291.743 99.573 291.878 99.4874 291.998C99.404 292.118 99.2968 292.221 99.1725 292.299C99.0485 292.377 98.9102 292.43 98.7656 292.455C93.6216 293.344 88.6416 295.005 83.9941 297.381C83.6977 297.503 83.4308 297.688 83.2109 297.921C83.0409 298.199 83.1552 298.84 83.2109 299.185C83.8584 302.719 84.7905 306.196 85.998 309.58C86.1011 309.859 86.2962 310.416 86.5331 310.552C86.77 310.689 87.4473 310.533 87.7594 310.449C92.5727 309.165 99.886 306.74 103.969 304.777C104.102 304.705 104.248 304.662 104.398 304.649C104.548 304.634 104.699 304.652 104.841 304.699C104.985 304.745 105.118 304.82 105.232 304.919C105.347 305.018 105.441 305.139 105.51 305.275C105.574 305.411 105.611 305.557 105.619 305.707C105.626 305.857 105.602 306.007 105.549 306.147C105.497 306.288 105.416 306.417 105.312 306.526C105.208 306.634 105.083 306.722 104.945 306.782C100.739 308.806 93.2528 311.29 88.3447 312.602C87.8537 312.751 87.3446 312.834 86.8313 312.847Z" fill="#162B43"/>
<path d="M215.999 147.677C215.72 147.677 215.441 147.677 215.163 147.657C208.967 147.379 203.49 144.132 198.657 141.252C186.578 134.071 181.47 131.122 176.531 128.27C171.592 125.419 166.469 122.462 154.376 115.272C154.25 115.197 154.14 115.098 154.053 114.98C153.965 114.863 153.901 114.729 153.865 114.587C153.829 114.445 153.822 114.298 153.843 114.153C153.864 114.008 153.914 113.868 153.989 113.743C154.14 113.489 154.386 113.306 154.672 113.233C154.959 113.161 155.262 113.205 155.516 113.356C167.598 120.54 172.707 123.489 177.646 126.341C182.584 129.192 187.707 132.149 199.797 139.339C204.404 142.079 209.625 145.187 215.26 145.427C218.858 145.583 222.487 144.552 226.199 143.394C248.239 136.499 269.515 127.369 289.695 116.149C289.95 116.008 290.25 115.973 290.531 116.051C290.672 116.09 290.804 116.158 290.918 116.249C291.091 116.386 291.22 116.571 291.287 116.782C291.355 116.992 291.358 117.217 291.297 117.43C291.255 117.57 291.187 117.701 291.097 117.817C291.005 117.93 290.893 118.025 290.765 118.095C270.459 129.394 249.049 138.585 226.868 145.524C223.228 146.66 219.669 147.677 215.999 147.677Z" fill="#007EEF"/>
<path d="M301.256 114.172C301.013 114.172 300.777 114.093 300.584 113.948C300.39 113.802 300.249 113.597 300.182 113.364C300.115 113.131 300.126 112.883 300.213 112.657C300.298 112.427 300.457 112.231 300.665 112.1C301.763 111.415 303.814 110.485 306.933 109.254C307.207 109.148 307.513 109.154 307.782 109.272C308.052 109.39 308.264 109.61 308.372 109.883C308.481 110.157 308.476 110.462 308.36 110.732C308.244 111.002 308.025 111.216 307.752 111.326C304.801 112.49 302.813 113.386 301.846 113.991C301.67 114.105 301.465 114.167 301.256 114.172Z" fill="#007EEF"/>
<path d="M353.36 91.0365C353.113 91.0363 352.873 90.9541 352.677 90.8026C352.531 90.6897 352.416 90.5423 352.341 90.3738C352.266 90.2053 352.234 90.0209 352.248 89.837C352.262 89.6532 352.322 89.4758 352.422 89.3206C352.521 89.1654 352.658 89.0374 352.819 88.948C356.362 86.9987 365.439 80.2236 370.317 76.5896C371.902 75.4062 373.157 74.4705 373.773 74.0333C374.776 73.3204 374.77 73.0002 374.77 72.9863C374.72 72.0311 370.804 69.8285 366.27 67.2749C361.153 64.3928 354.146 60.4469 344.99 54.3791C341.261 51.9091 328.792 44.1288 326.565 43.5329C326.423 43.4946 326.289 43.4294 326.172 43.3407C326.055 43.2522 325.956 43.1415 325.882 43.0148C325.808 42.8882 325.76 42.7482 325.74 42.6028C325.72 42.4567 325.73 42.3081 325.768 42.1656C325.806 42.0245 325.872 41.8921 325.96 41.7758C326.052 41.6633 326.163 41.5689 326.289 41.4973C326.417 41.4249 326.558 41.3785 326.704 41.3608C326.85 41.3418 326.998 41.3522 327.139 41.3915C330.116 42.1879 344.664 51.5026 346.222 52.5301C355.311 58.5534 362.279 62.477 367.365 65.3396C374.096 69.1295 376.883 70.6973 376.997 72.8749C377.07 74.2672 375.93 75.2391 375.063 75.8545C374.472 76.2778 373.226 77.2051 371.649 78.3802C366.384 82.3038 357.574 88.8728 353.898 90.9112C353.732 90.9974 353.547 91.0405 353.36 91.0365Z" fill="#007EEF"/>
<path d="M321.119 39.8014C320.339 39.8014 319.525 39.3141 318.179 38.5065C317.228 37.9496 316.049 37.2339 314.608 36.5433C314.476 36.4801 314.358 36.3914 314.26 36.2825C314.162 36.1735 314.087 36.0463 314.038 35.9083C313.99 35.7702 313.969 35.6239 313.976 35.4777C313.984 35.3315 314.021 35.1883 314.084 35.0563C314.148 34.9243 314.236 34.8061 314.346 34.7083C314.455 34.6105 314.582 34.5352 314.72 34.4866C314.858 34.438 315.005 34.417 315.151 34.425C315.297 34.4329 315.441 34.4695 315.573 34.5328C317.108 35.268 318.338 36.0059 319.324 36.5962C320.049 37.0307 320.868 37.5208 321.144 37.5765C321.44 37.5765 321.723 37.6938 321.932 37.9027C322.141 38.1116 322.259 38.3949 322.259 38.6903C322.259 38.9857 322.141 39.2691 321.932 39.4779C321.723 39.6868 321.44 39.8042 321.144 39.8042L321.119 39.8014Z" fill="#007EEF"/>
<path d="M296.729 28.2508C296.569 28.2513 296.41 28.2171 296.264 28.1506L265.143 13.8374C265.011 13.7745 264.892 13.6877 264.792 13.5812C264.693 13.4733 264.616 13.3476 264.564 13.2108C264.513 13.0737 264.489 12.9281 264.494 12.782C264.499 12.6356 264.533 12.4917 264.594 12.3587C264.655 12.2258 264.742 12.1061 264.85 12.0068C264.958 11.9074 265.084 11.8302 265.221 11.7795C265.358 11.7278 265.505 11.7041 265.651 11.7098C265.798 11.7156 265.941 11.7506 266.074 11.8129L297.195 26.1261C297.366 26.2058 297.515 26.3278 297.627 26.4808C297.738 26.6338 297.809 26.8126 297.832 27.0004C297.855 27.1882 297.83 27.3788 297.759 27.5542C297.688 27.7296 297.573 27.8841 297.426 28.003C297.229 28.1624 296.983 28.2498 296.729 28.2508Z" fill="#007EEF"/>
<path d="M140.795 104.425C140.624 104.423 140.455 104.383 140.302 104.308L128.086 98.2792C127.895 98.1777 127.738 98.023 127.633 97.8338C127.529 97.6447 127.482 97.4293 127.498 97.2138C127.514 96.9984 127.592 96.7923 127.723 96.6205C127.854 96.4487 128.033 96.3188 128.236 96.2464C128.509 96.1496 128.809 96.1625 129.072 96.2826L141.288 102.311C141.514 102.422 141.696 102.605 141.804 102.832C141.885 103.002 141.921 103.19 141.91 103.378C141.899 103.566 141.84 103.748 141.739 103.907C141.639 104.066 141.499 104.197 141.334 104.287C141.169 104.378 140.983 104.425 140.795 104.425Z" fill="#007EEF"/>
<path d="M360.545 143.558C358.137 143.558 352.106 142.035 350.511 140.033C350.337 139.801 350.26 139.511 350.296 139.223C350.333 138.936 350.48 138.674 350.707 138.493C350.933 138.313 351.22 138.227 351.508 138.255C351.797 138.282 352.063 138.421 352.251 138.641C353.184 139.802 358.279 141.331 360.559 141.331C360.855 141.331 361.138 141.448 361.347 141.657C361.556 141.866 361.674 142.149 361.674 142.444C361.674 142.74 361.556 143.023 361.347 143.232C361.138 143.441 360.855 143.558 360.559 143.558H360.545Z" fill="#162B43"/>
<path d="M362.855 138.267C358.789 138.267 354.533 136.914 353.17 135.187C353.081 135.072 353.013 134.941 352.972 134.8C352.891 134.515 352.925 134.209 353.067 133.948C353.138 133.82 353.235 133.707 353.35 133.615C353.465 133.524 353.597 133.456 353.739 133.416C353.88 133.375 354.028 133.363 354.174 133.38C354.32 133.397 354.461 133.442 354.589 133.514C354.718 133.582 354.831 133.677 354.921 133.792C355.656 134.722 359.032 136.02 362.855 136.02C363.151 136.02 363.435 136.137 363.644 136.346C363.853 136.555 363.97 136.839 363.97 137.134C363.97 137.429 363.853 137.713 363.644 137.922C363.435 138.13 363.151 138.248 362.855 138.248V138.267Z" fill="#162B43"/>
<path d="M239.154 321.944C239.007 321.95 238.861 321.928 238.723 321.877C238.586 321.827 238.459 321.75 238.351 321.651C238.243 321.552 238.156 321.433 238.094 321.3C238.032 321.167 237.998 321.024 237.991 320.877C237.979 320.582 238.084 320.294 238.283 320.077C238.483 319.859 238.761 319.729 239.056 319.716L244.834 319.209C244.98 319.196 245.128 319.212 245.268 319.257C245.408 319.301 245.538 319.372 245.65 319.466C245.765 319.559 245.86 319.675 245.929 319.805C245.996 319.936 246.037 320.079 246.049 320.226C246.062 320.371 246.046 320.518 246.001 320.657C245.958 320.798 245.887 320.929 245.792 321.042C245.698 321.154 245.582 321.248 245.452 321.315C245.321 321.383 245.178 321.425 245.032 321.437L239.254 321.944H239.154Z" fill="#162B43"/>
<path d="M97.91 283.446C97.7145 283.446 97.5225 283.394 97.3532 283.297C97.1839 283.199 97.0434 283.058 96.9456 282.889C95.4936 280.383 93.8492 277.573 93.6011 274.357C93.5816 274.136 93.6286 273.914 93.7363 273.719C93.8439 273.525 94.0072 273.367 94.2053 273.267C94.4033 273.166 94.627 273.126 94.8476 273.153C95.0682 273.18 95.2757 273.273 95.4434 273.419C95.5551 273.514 95.6469 273.63 95.7133 273.761C95.7798 273.892 95.8197 274.035 95.8308 274.182C96.0482 276.891 97.556 279.472 98.8966 281.77C99.0437 282.022 99.0858 282.322 99.0136 282.605C98.9762 282.747 98.9112 282.88 98.8222 282.997C98.7333 283.113 98.6222 283.211 98.4952 283.285C98.3175 283.388 98.1158 283.444 97.91 283.446Z" fill="#162B43"/>
<path d="M231.606 70.6136C229.92 70.62 228.27 70.1225 226.868 69.1851C226.634 69.0149 226.475 68.7602 226.425 68.475C226.388 68.2622 226.414 68.0432 226.499 67.8448C226.584 67.6463 226.725 67.4768 226.905 67.357C227.085 67.2372 227.296 67.1722 227.512 67.17C227.728 67.1677 227.94 67.2283 228.123 67.3444C229.17 68.0235 230.393 68.382 231.642 68.3761C232.891 68.3702 234.11 68 235.152 67.311C235.271 67.2239 235.406 67.1614 235.549 67.1269C235.693 67.0925 235.842 67.0869 235.988 67.1105C236.134 67.1354 236.275 67.1893 236.4 67.2692C236.526 67.3472 236.634 67.4506 236.718 67.5727C236.803 67.6952 236.863 67.8334 236.893 67.9793C236.924 68.1244 236.924 68.2742 236.893 68.4193C236.867 68.5658 236.81 68.7052 236.726 68.8286C236.642 68.9519 236.535 69.0578 236.411 69.1405C234.996 70.1069 233.32 70.6207 231.606 70.6136Z" fill="white"/>
<path d="M332.22 241.773C331.948 241.773 331.685 241.674 331.481 241.495C331.276 241.318 331.142 241.072 331.105 240.804L329.48 229.003C328.951 225.154 328.349 220.791 326.225 217.329C324.41 214.375 320.698 211.585 316.835 212.451C316.548 212.514 316.247 212.461 315.999 212.303C315.875 212.225 315.768 212.123 315.684 212.003C315.6 211.884 315.54 211.749 315.508 211.606C315.475 211.463 315.472 211.316 315.497 211.172C315.522 211.027 315.575 210.89 315.653 210.766C315.812 210.517 316.062 210.341 316.35 210.276C321.283 209.162 325.913 212.557 328.128 216.165C330.497 220.025 331.133 224.634 331.693 228.696L333.318 240.498C333.339 240.643 333.33 240.791 333.293 240.932C333.256 241.073 333.191 241.206 333.103 241.322C333.013 241.434 332.902 241.529 332.777 241.601C332.65 241.674 332.51 241.722 332.365 241.743C332.317 241.756 332.269 241.766 332.22 241.773Z" fill="#162B43"/>
<path d="M333.457 249.158C333.162 249.158 332.878 249.041 332.669 248.832C332.46 248.623 332.342 248.34 332.342 248.044V246.065C332.342 245.769 332.46 245.486 332.669 245.277C332.878 245.068 333.162 244.951 333.457 244.951C333.753 244.951 334.036 245.068 334.246 245.277C334.455 245.486 334.572 245.769 334.572 246.065V248.044C334.572 248.34 334.455 248.623 334.246 248.832C334.036 249.041 333.753 249.158 333.457 249.158Z" fill="#162B43"/>
</g>
<defs>
<clipPath id="clip0_679_2678">
<rect width="377" height="338" fill="white"/>
</clipPath>
</defs>
</svg>
