<svg width="258" height="275" viewBox="0 0 258 275" fill="none" xmlns="http://www.w3.org/2000/svg">
<g clip-path="url(#clip0_962_2688)">
<path d="M204.079 172.009C215.122 180.84 192.531 229.893 186.632 230.009C177.139 230.197 106.623 135.592 106.623 135.592C106.623 135.592 132.075 117.327 170.663 117.157C180.23 117.122 188.426 159.489 204.079 172.009Z" fill="#FAFAFA"/>
<path d="M186.599 231.562C184.625 231.562 180.944 229.686 168.984 216.378C161.934 208.532 152.81 197.585 141.866 183.845C123.249 160.475 105.564 136.767 105.391 136.529C105.268 136.363 105.178 136.174 105.129 135.973C105.076 135.77 105.066 135.559 105.1 135.352C105.13 135.146 105.201 134.948 105.309 134.77C105.418 134.592 105.561 134.438 105.73 134.318C105.995 134.126 112.368 129.593 123.587 124.991C138.549 118.891 154.523 115.707 170.663 115.606H170.684C176.388 115.606 180.729 125.754 186.224 138.597C191.45 150.811 197.373 164.655 205.042 170.789C207.78 172.977 208.956 177.144 208.531 183.171C208.201 187.967 206.838 194.043 204.592 200.749C202.201 207.884 198.917 215.42 195.577 221.43C189.982 231.498 187.482 231.545 186.659 231.564L186.599 231.562ZM108.834 135.981C112.793 141.265 128.115 161.625 144.156 181.764C155.035 195.428 164.109 206.321 171.123 214.136C183.015 227.388 186.014 228.406 186.566 228.458C186.727 228.396 187.743 227.91 189.869 224.845C191.511 222.471 193.358 219.224 195.206 215.46C199.311 207.132 202.726 197.674 204.366 190.134C206.269 181.398 205.824 175.393 203.112 173.225C194.836 166.607 188.744 152.383 183.381 139.832C180.879 133.983 178.516 128.457 176.248 124.505C173.496 119.711 171.696 118.715 170.661 118.715C154.917 118.816 139.334 121.926 124.741 127.88C116.734 131.169 111.214 134.457 108.834 135.981Z" fill="#051C32"/>
<path d="M136.933 18.3315C136.933 18.3315 202.433 42.735 237.277 47.2145C237.277 47.2145 213.238 119.548 144.296 159.051L125.207 114.396C125.207 114.396 147.169 68.2469 136.933 18.3315Z" fill="#051C32"/>
<path d="M144.296 160.601C143.995 160.6 143.702 160.511 143.45 160.345C143.197 160.177 142.998 159.937 142.879 159.656L123.791 115.002C123.704 114.799 123.661 114.579 123.665 114.357C123.67 114.136 123.721 113.918 123.815 113.718C123.871 113.604 129.306 102.066 133.425 84.6322C137.221 68.5839 140.646 44.0977 135.427 18.6271C135.37 18.3558 135.387 18.0741 135.476 17.8117C135.565 17.5493 135.722 17.3159 135.932 17.136C136.14 16.9559 136.392 16.8352 136.663 16.7864C136.933 16.7377 137.211 16.7627 137.469 16.8589C138.122 17.1029 203.2 41.2624 237.464 45.6674C237.691 45.6996 237.908 45.783 238.098 45.9114C238.291 46.0352 238.453 46.2005 238.574 46.3954C238.696 46.5896 238.772 46.8086 238.798 47.0365C238.825 47.2642 238.802 47.495 238.73 47.7127C238.669 47.8947 232.491 66.2428 217.93 89.1614C209.552 102.395 199.861 114.736 189.005 125.994C175.7 139.741 160.903 151.31 145.055 160.409C144.822 160.537 144.561 160.603 144.296 160.601ZM126.89 114.421L145.024 156.838C179.489 136.651 202.225 108.099 215.284 87.5565C227.064 69.0326 233.279 53.5696 235.173 48.4841C204.161 44.0191 151.197 25.1561 138.959 20.718C140.917 31.4431 141.586 42.7865 140.948 54.4816C140.349 64.9174 138.825 75.2784 136.395 85.4409C132.701 101.028 128.099 111.732 126.884 114.421H126.89Z" fill="#051C32"/>
<path d="M141.129 153.198C140.828 153.196 140.535 153.107 140.283 152.941C140.032 152.775 139.834 152.539 139.714 152.261L126.674 121.759C126.566 121.504 126.527 121.224 126.563 120.948C126.6 120.673 126.709 120.413 126.88 120.195C126.929 120.129 132.083 113.339 136.98 100.728C141.496 89.0973 146.716 69.9881 145.923 45.0098C145.913 44.668 146.014 44.3322 146.212 44.0544C146.409 43.7765 146.693 43.5723 147.018 43.4732C147.234 43.4089 147.461 43.3927 147.685 43.4256C148.023 43.4732 156.1 44.5134 157.625 36.572C157.668 36.344 157.762 36.1288 157.899 35.9421C158.036 35.7554 158.212 35.6022 158.416 35.4936C158.619 35.385 158.845 35.3238 159.075 35.3147C159.305 35.3055 159.534 35.3486 159.745 35.4407C171.088 40.3648 202.336 52.7941 210.61 51.1892C210.866 51.1396 211.13 51.1561 211.378 51.2373C211.625 51.3185 211.849 51.4617 212.026 51.6534C212.204 51.8451 212.331 52.0792 212.394 52.3337C212.458 52.5881 212.456 52.8547 212.39 53.1084C212.297 53.4724 210.179 62.1811 218.548 65.0309C218.758 65.1024 218.951 65.219 219.113 65.3729C219.274 65.5268 219.401 65.7143 219.484 65.9223C219.566 66.1293 219.603 66.3518 219.592 66.5745C219.581 66.7973 219.522 67.015 219.42 67.2128C219.352 67.3451 212.412 80.6078 199.563 98.1597C199.443 98.3236 199.292 98.462 199.119 98.5671C198.946 98.6723 198.754 98.742 198.554 98.7723C198.15 98.8336 197.739 98.7308 197.41 98.4864C197.082 98.2421 196.863 97.8762 196.802 97.4694C196.741 97.0625 196.843 96.648 197.086 96.317C207.291 82.3739 213.712 71.1959 215.879 67.2789C211.364 65.124 209.785 61.4593 209.266 58.6199C209.022 57.2312 208.962 55.8158 209.089 54.4113H208.997C203.66 54.4113 194.11 51.9296 180.546 47.0055C171.72 43.802 163.563 40.4145 160.181 38.9834C158.744 43.3367 155.599 45.1876 153.073 45.9652C151.767 46.3582 150.414 46.567 149.052 46.5857C149.581 71.3489 144.345 90.334 139.799 101.998C135.626 112.707 131.352 119.236 129.862 121.351L141.911 149.537C157.553 141.538 174.091 126.36 191.078 104.364C191.261 104.111 191.516 103.919 191.809 103.815C192.102 103.71 192.42 103.698 192.72 103.779C192.92 103.831 193.107 103.924 193.27 104.052C193.433 104.179 193.569 104.339 193.668 104.521C193.769 104.702 193.832 104.902 193.855 105.108C193.877 105.317 193.857 105.528 193.798 105.729C193.738 105.928 193.639 106.112 193.508 106.273C175.7 129.317 158.305 145.058 141.796 153.051C141.587 153.148 141.359 153.198 141.129 153.198Z" fill="#007EEF"/>
<path d="M221.282 62.7001C221.046 62.6985 220.814 62.6441 220.602 62.5409C218.209 61.3517 215.192 57.4513 215.752 53.22C215.806 52.8101 216.018 52.4384 216.343 52.186C216.504 52.063 216.688 51.9724 216.883 51.9192C217.078 51.8676 217.282 51.855 217.482 51.882C217.684 51.9085 217.878 51.975 218.055 52.0776C218.231 52.1802 218.385 52.3168 218.509 52.4796C218.632 52.6413 218.722 52.826 218.774 53.023C218.825 53.2201 218.838 53.4255 218.81 53.6274C218.439 56.4359 220.67 59.1099 221.969 59.7552C222.281 59.9099 222.532 60.1665 222.681 60.4832C222.83 60.7999 222.868 61.1581 222.789 61.4994C222.71 61.8407 222.518 62.145 222.246 62.3626C221.973 62.5803 221.635 62.6985 221.288 62.6981L221.282 62.7001Z" fill="#007EEF"/>
<path d="M169.922 11.2711C174.579 9.82342 178.906 8.34474 182.732 6.82056C182.732 6.82056 196.279 81.8715 154.786 149.965L116.695 120.117C116.695 120.117 113.852 69.0183 81.0027 30.2458C81.0027 30.2458 134.833 22.1286 169.922 11.2711Z" fill="white"/>
<path d="M154.786 151.516C154.444 151.516 154.112 151.401 153.842 151.19L115.751 121.341C115.577 121.205 115.435 121.033 115.332 120.837C115.23 120.64 115.17 120.425 115.157 120.203C115.157 120.077 114.392 107.329 109.661 90.0527C105.307 74.1491 96.5961 51.0402 79.8307 31.2528C79.652 31.0424 79.5325 30.7876 79.4848 30.5149C79.437 30.2422 79.4627 29.9616 79.5591 29.7023C79.6555 29.443 79.8191 29.2144 80.0329 29.0405C80.2468 28.8665 80.503 28.7535 80.7749 28.7132C81.3106 28.6304 134.895 20.478 169.471 9.78808C174.274 8.30319 178.545 6.82451 182.168 5.37685C182.379 5.29191 182.606 5.25518 182.833 5.26931C183.176 5.29194 183.501 5.42943 183.757 5.65991C184.014 5.89038 184.186 6.20059 184.247 6.54118C184.282 6.73144 187.648 25.8075 185.856 52.9594C184.848 68.6245 182.264 84.1459 178.143 99.2846C173.054 117.794 165.638 135.118 156.098 150.78C155.96 151.005 155.766 151.191 155.537 151.32C155.308 151.449 155.049 151.517 154.786 151.518V151.516ZM118.185 119.329L154.368 147.682C174.906 113.244 181.162 77.1871 182.773 52.8519C184.231 30.9033 182.277 14.3358 181.503 8.96084C178.219 10.2017 174.483 11.4818 170.37 12.7537C140.051 22.1284 95.2968 29.5507 83.9256 31.3665C90.7729 39.8126 96.7849 49.4271 101.822 59.9744C106.291 69.4059 109.915 79.2208 112.651 89.302C116.886 104.757 117.963 116.371 118.185 119.329Z" fill="#051C32"/>
<path d="M148.471 146.567C148.129 146.567 147.796 146.452 147.527 146.241L121.512 125.853C121.295 125.683 121.127 125.456 121.026 125.198C120.923 124.941 120.892 124.661 120.935 124.387C120.95 124.304 122.214 115.852 120.472 102.424C118.864 90.0383 114.291 70.7617 101.645 49.2742C101.531 49.0785 101.461 48.8595 101.44 48.6331C101.407 48.293 101.487 47.9513 101.666 47.6614C101.846 47.3715 102.116 47.1496 102.434 47.0303C102.752 46.9083 110.33 43.8951 107.863 36.1977C107.791 35.9771 107.77 35.7431 107.8 35.513C107.831 35.283 107.912 35.0628 108.038 34.8687C108.165 34.6747 108.333 34.5118 108.53 34.392C108.727 34.2723 108.949 34.1989 109.178 34.1772C121.473 32.9818 154.797 28.6905 161.279 23.2659C161.48 23.0988 161.72 22.9858 161.976 22.9376C162.233 22.8893 162.497 22.9073 162.744 22.99C162.992 23.0726 163.214 23.2172 163.391 23.4101C163.568 23.603 163.694 23.8381 163.756 24.0932C163.849 24.4592 166.162 33.1162 174.852 31.5507C175.073 31.5099 175.3 31.5191 175.517 31.5776C175.845 31.6654 176.135 31.8597 176.342 32.1304C176.549 32.4011 176.662 32.7331 176.663 33.0749C176.663 33.1845 176.663 35.8316 176.49 40.398C176.461 40.7996 176.278 41.1742 175.981 41.4426C175.683 41.7111 175.293 41.8525 174.893 41.8369C174.494 41.8213 174.116 41.6501 173.84 41.3592C173.563 41.0684 173.41 40.6807 173.412 40.278C173.502 37.9183 173.545 36.0612 173.563 34.8245C168.6 35.1161 165.462 32.6819 163.652 30.4484C162.772 29.351 162.043 28.1401 161.482 26.8479C156.816 29.4495 147.247 31.9271 132.927 34.2165C123.657 35.6993 114.895 36.6982 111.245 37.0808C112.066 41.5954 110.201 44.7327 108.359 46.6498C107.403 47.6243 106.316 48.4596 105.131 49.1315C117.446 70.5611 121.939 89.7426 123.536 102.168C125.004 113.577 124.384 121.372 124.09 123.951L148.13 142.787C159.187 126.209 167.207 96.5052 170.77 75.6734C170.825 75.3744 170.966 75.0983 171.176 74.8794C171.385 74.6606 171.654 74.5086 171.949 74.4425C172.243 74.3764 172.551 74.399 172.833 74.5076C173.115 74.6161 173.359 74.8058 173.535 75.0529C173.769 75.3851 173.865 75.7961 173.804 76.1987C171.677 88.5606 168.707 100.76 164.916 112.711C160.326 127.001 155.218 138.175 149.727 145.924C149.607 146.094 149.454 146.237 149.278 146.346C149.101 146.455 148.905 146.526 148.701 146.557C148.624 146.566 148.547 146.569 148.471 146.567Z" fill="#051C32"/>
<path d="M173.385 67.8334C173.327 67.8334 173.27 67.8334 173.212 67.8334C172.807 67.7876 172.436 67.5816 172.181 67.2605C171.926 66.9394 171.809 66.5296 171.854 66.121C172.2 62.9837 172.383 59.4245 172.576 55.6564C172.685 53.5429 172.796 51.3569 172.944 49.1192C172.951 48.9112 173 48.7069 173.087 48.5183C173.175 48.3297 173.299 48.1607 173.452 48.0213C173.606 47.8819 173.785 47.775 173.981 47.7068C174.176 47.6387 174.383 47.6107 174.589 47.6245C174.795 47.6384 174.996 47.6938 175.181 47.7874C175.365 47.8811 175.529 48.0111 175.663 48.1698C175.796 48.3284 175.897 48.5125 175.959 48.7112C176.021 48.9098 176.042 49.1189 176.022 49.326C175.877 51.5409 175.766 53.7145 175.657 55.8178C175.462 59.6334 175.277 63.2381 174.92 66.4664C174.877 66.846 174.697 67.1964 174.414 67.4505C174.13 67.7046 173.764 67.8446 173.385 67.8437V67.8334Z" fill="#051C32"/>
<path d="M175.226 28.3492C172.537 28.3492 168.247 26.3969 166.755 22.5358C166.681 22.3455 166.646 22.1424 166.65 21.9381C166.655 21.7341 166.699 21.533 166.782 21.3467C166.862 21.1589 166.979 20.9891 167.125 20.8471C167.272 20.7051 167.444 20.5937 167.634 20.5194C167.822 20.4453 168.024 20.4094 168.227 20.414C168.532 20.4206 168.828 20.5185 169.078 20.6953C169.327 20.872 169.519 21.1197 169.629 21.4066C170.655 24.0455 173.879 25.3029 175.329 25.2388C175.73 25.2312 176.119 25.3821 176.412 25.6592C176.705 25.9363 176.879 26.3178 176.897 26.7224C176.915 27.1269 176.776 27.5225 176.508 27.8249C176.241 28.1272 175.867 28.3124 175.466 28.3409L175.226 28.3492Z" fill="#051C32"/>
<path d="M53.6317 37.8913C53.6317 37.8913 120.806 18.6581 151.552 1.54468C151.552 1.54468 174.516 74.2359 142.009 147.117L100.441 122.431C100.441 122.431 91.1342 72.1017 53.6317 37.8913Z" fill="#007EEF"/>
<path d="M142.009 148.669C141.735 148.67 141.465 148.599 141.227 148.462L99.6585 123.759C99.4687 123.646 99.305 123.493 99.1782 123.312C99.0524 123.131 98.967 122.925 98.9278 122.708C98.9032 122.584 96.5324 110.037 89.6481 93.5127C83.3098 78.3061 71.7292 56.5043 52.5971 39.0413C52.3937 38.8548 52.2436 38.6168 52.1623 38.3521C52.0811 38.0873 52.0718 37.8054 52.1353 37.5358C52.1992 37.2666 52.3323 37.0191 52.5212 36.8181C52.7123 36.6202 52.9526 36.4773 53.217 36.4045C53.8759 36.2143 120.584 17.0162 150.813 0.194357C151.012 0.0864673 151.232 0.022989 151.457 0.00822875C151.683 -0.0043202 151.91 0.0330881 152.12 0.117837C152.331 0.202034 152.52 0.332101 152.675 0.498717C152.829 0.665333 152.946 0.864372 153.015 1.08157C153.073 1.26563 158.832 19.7523 160.503 46.9125C161.494 62.581 160.901 78.3105 158.734 93.8581C156.039 112.885 150.882 131.011 143.409 147.769C143.319 147.967 143.188 148.144 143.027 148.288C142.866 148.433 142.676 148.543 142.471 148.611C142.321 148.653 142.165 148.673 142.009 148.669ZM101.808 121.44L141.311 144.899C157.309 108.105 158.937 71.5372 157.451 47.1937C156.09 25.2306 152.057 9.05819 150.609 3.82592C122.949 18.6583 69.1532 34.9341 56.6756 38.6174C64.5452 46.1183 71.7292 54.8705 78.0572 64.6898C83.6865 73.4708 88.5258 82.741 92.5176 92.3898C98.6692 107.168 101.223 118.547 101.808 121.44Z" fill="#007EEF"/>
<path d="M148.046 95.8062H147.884C147.478 95.7626 147.106 95.5598 146.847 95.2416C146.591 94.9218 146.471 94.5129 146.513 94.1041C149.452 65.4735 146.792 37.6019 146.006 30.4918C141.12 31.4183 137.699 29.4102 135.62 27.4289C134.611 26.4551 133.736 25.3499 133.017 24.1427C130.349 26.1529 125.777 28.3203 119.183 30.7255C118.992 30.795 118.791 30.826 118.588 30.8168C118.386 30.8077 118.188 30.7585 118.005 30.672C117.822 30.5856 117.657 30.4636 117.521 30.3131C117.384 30.1626 117.279 29.9865 117.21 29.7948C117.141 29.6032 117.11 29.3998 117.119 29.1962C117.128 28.9926 117.177 28.7928 117.263 28.6083C117.349 28.4237 117.47 28.2579 117.619 28.1205C117.769 27.9831 117.943 27.8767 118.134 27.8074C127.576 24.362 131.083 21.9981 132.354 20.6229C132.621 20.3317 132.989 20.155 133.382 20.1293C133.774 20.1035 134.162 20.2306 134.464 20.4843C134.664 20.649 134.82 20.8626 134.916 21.1047C135.053 21.4542 138.446 29.7411 146.868 27.0691C147.082 27.0014 147.308 26.9816 147.531 27.0113C147.754 27.0409 147.967 27.1192 148.157 27.2407C148.346 27.3625 148.507 27.5247 148.628 27.7158C148.749 27.907 148.827 28.1225 148.857 28.3472C148.898 28.6719 153.003 61.023 149.575 94.4144C149.534 94.7941 149.355 95.1451 149.073 95.4004C148.791 95.6556 148.425 95.7971 148.046 95.7979V95.8062Z" fill="white"/>
<path d="M135.117 144.574C134.842 144.575 134.573 144.504 134.335 144.367L105.941 127.491C105.704 127.351 105.509 127.148 105.376 126.906C105.243 126.663 105.176 126.389 105.184 126.112C105.184 126.029 105.369 117.482 101.935 104.397C98.7677 92.3194 91.7869 73.7893 76.5158 54.099C76.3075 53.829 76.1932 53.4973 76.1906 53.1553C76.188 52.8133 76.2972 52.4799 76.5014 52.2067C76.6368 52.0263 76.8098 51.878 77.0084 51.7724C77.3101 51.609 84.4428 47.6362 81.0191 40.3297C80.9185 40.1205 80.8662 39.891 80.8662 39.6586C80.8662 39.4261 80.9185 39.1967 81.0191 38.9875C81.1197 38.7783 81.2656 38.5946 81.446 38.4498C81.6261 38.3049 81.8368 38.2038 82.0618 38.1541C82.2055 38.121 96.5263 34.8141 109.952 30.5704C110.339 30.4551 110.756 30.4978 111.112 30.6892C111.469 30.8806 111.736 31.2054 111.857 31.5936C111.978 31.9817 111.943 32.4022 111.759 32.7644C111.575 33.1266 111.257 33.4015 110.874 33.5298C100.09 36.938 88.7409 39.7465 84.488 40.7681C85.8734 45.1401 84.4223 48.4966 82.8459 50.6288C82.0228 51.7249 81.0514 52.6995 79.96 53.5241C94.8822 73.1709 101.779 91.6204 104.942 103.743C107.846 114.87 108.226 122.681 108.257 125.276L134.495 140.864C139.558 130.817 143.239 118.009 145.439 102.769C145.467 102.567 145.535 102.373 145.638 102.197C145.741 102.021 145.878 101.868 146.04 101.746C146.368 101.5 146.778 101.395 147.182 101.452C147.383 101.483 147.576 101.553 147.75 101.659C147.924 101.767 148.076 101.907 148.198 102.072C148.319 102.236 148.407 102.421 148.456 102.618C148.506 102.816 148.517 103.022 148.489 103.224C146.129 119.562 142.085 133.199 136.469 143.769C136.371 143.953 136.237 144.115 136.075 144.245C135.913 144.376 135.727 144.473 135.527 144.53C135.393 144.568 135.255 144.587 135.117 144.588V144.574Z" fill="white"/>
<path d="M124.213 101.293C121.847 101.293 119.521 99.9506 117.582 97.4441C115.597 94.8776 114.217 91.335 113.696 87.447C112.563 79.003 115.779 71.8267 121.02 71.1091C123.674 70.7472 126.332 72.0935 128.501 74.8999C130.486 77.4664 131.865 81.0173 132.387 84.897C133.52 93.341 130.303 100.515 125.063 101.235C124.781 101.272 124.498 101.291 124.213 101.293ZM121.863 74.1699C121.719 74.1681 121.575 74.1778 121.432 74.1988C118.021 74.6621 115.876 80.5458 116.746 87.0416C117.196 90.3857 118.355 93.4072 120.01 95.5477C120.862 96.6479 122.596 98.443 124.651 98.17C128.062 97.7047 130.209 91.8231 129.337 85.3272C128.887 81.981 127.727 78.9616 126.073 76.8211C125.283 75.7892 123.729 74.1699 121.863 74.1699Z" fill="white"/>
<path d="M145.999 23.9152C143.308 23.9152 139.472 22.4675 137.701 19.1875C137.546 18.8317 137.529 18.4302 137.654 18.0626C137.779 17.695 138.037 17.388 138.375 17.2024C138.714 17.0167 139.11 16.966 139.484 17.0602C139.858 17.1543 140.184 17.3866 140.396 17.7109C141.74 20.1926 145.117 21.0199 146.535 20.7779C146.932 20.7179 147.337 20.8168 147.663 21.0533C147.989 21.2898 148.21 21.6453 148.28 22.0439C148.349 22.4426 148.261 22.8527 148.034 23.1869C147.808 23.521 147.461 23.7527 147.067 23.8325C146.711 23.89 146.351 23.9176 145.991 23.9152H145.999Z" fill="white"/>
<path d="M1.54353 84.7524C1.54353 84.7524 53.3504 37.5648 73.4205 8.52881C73.4205 8.52881 125.919 63.4924 128.748 143.345L80.6271 139.716C80.6271 139.716 50.1977 98.7368 1.54353 84.7524Z" fill="#DBF122"/>
<path d="M128.748 144.899H128.633L80.5121 141.263C80.2928 141.244 80.0796 141.18 79.8861 141.075C79.6932 140.968 79.5252 140.82 79.3935 140.642C79.3175 140.541 71.6861 130.343 58.252 118.59C45.8976 107.776 25.9568 93.3804 1.12071 86.2392C0.857094 86.1659 0.617627 86.0231 0.426939 85.8256C0.237112 85.6255 0.103885 85.3779 0.0410839 85.1084C-0.0217174 84.839 -0.0118052 84.5575 0.069792 84.2932C0.151532 84.0293 0.301762 83.7923 0.504937 83.6066C1.02629 83.1371 52.4124 36.2018 72.152 7.65186C72.2816 7.4635 72.4513 7.30665 72.6487 7.19274C72.8451 7.07514 73.0655 7.0044 73.2932 6.98593C73.5205 6.96759 73.749 7.00008 73.9624 7.08107C74.1736 7.16032 74.3654 7.28446 74.5248 7.44505C74.6561 7.58361 87.9363 21.597 101.354 45.2146C109.121 58.8238 115.494 73.1938 120.375 88.1026C126.303 106.358 129.638 124.915 130.287 143.283C130.295 143.495 130.261 143.706 130.186 143.904C130.112 144.098 129.999 144.275 129.856 144.425C129.713 144.575 129.541 144.694 129.351 144.776C129.16 144.857 128.956 144.899 128.75 144.901L128.748 144.899ZM81.4276 138.223L127.149 141.664C125.351 101.543 110.763 68.0194 98.7451 46.8463C87.8973 27.7516 77.1767 15.0411 73.5765 10.9939C55.2819 36.6175 14.1627 75.1853 4.59366 84.0471C14.9366 87.265 25.2241 91.9223 35.216 97.9033C44.1207 103.271 52.5308 109.431 60.3456 116.309C72.3449 126.823 79.6254 135.892 81.4276 138.223Z" fill="#DBF122"/>
<path d="M66.7907 114.582C66.3989 114.585 66.0209 114.437 65.7336 114.169C55.3353 104.269 43.0383 95.8353 29.1793 89.0974C28.9767 88.9986 28.798 88.856 28.6562 88.6798C28.5143 88.5036 28.4126 88.2981 28.3583 88.0779C28.3032 87.8572 28.2969 87.6271 28.3398 87.4038C28.3828 87.1804 28.4739 86.9693 28.6067 86.7853C28.8119 86.5123 33.2763 80.0413 27.5496 75.0448C27.3292 74.958 27.1297 74.8248 26.9646 74.6539C26.8008 74.4643 26.6828 74.239 26.6198 73.9957C26.5567 73.7525 26.5504 73.4979 26.6013 73.2517C26.6528 73.0066 26.7595 72.7766 26.9133 72.5796C27.0669 72.3819 27.2645 72.2232 27.4901 72.1164C27.8575 71.8186 28.7976 71.0327 31.1847 68.9543C31.3369 68.8203 31.5142 68.7183 31.7061 68.6544C31.8981 68.5903 32.1009 68.5649 32.3027 68.5798C32.5045 68.5947 32.7014 68.6496 32.8822 68.7412C33.0627 68.8326 33.2236 68.9588 33.3557 69.1128C33.4878 69.2668 33.5884 69.4456 33.6519 69.6388C33.7162 69.8317 33.7413 70.0356 33.7258 70.2385C33.7118 70.4422 33.6581 70.6411 33.5677 70.8238C33.4757 71.0051 33.3503 71.1673 33.1983 71.3015C32.094 72.2632 31.197 73.0367 30.5299 73.6116C33.6622 76.9081 33.8305 80.55 33.3502 83.1599C33.0874 84.5077 32.6398 85.8121 32.0201 87.0356C45.5527 93.7837 57.6033 102.147 67.8539 111.908C68.0782 112.121 68.2334 112.397 68.2993 112.701C68.3487 112.927 68.347 113.162 68.2945 113.388C68.242 113.614 68.1399 113.825 67.9958 114.006C67.8517 114.187 67.6692 114.333 67.4617 114.433C67.2542 114.534 67.027 114.586 66.7968 114.587L66.7907 114.582Z" fill="white"/>
<path d="M120.767 144.295H120.652L87.7844 141.813C87.5245 141.792 87.274 141.706 87.0565 141.561C86.8389 141.416 86.6614 141.218 86.5405 140.986C86.4892 140.893 81.4871 131.472 72.7883 121.339C72.6559 121.184 72.5551 121.005 72.4915 120.811C72.4279 120.617 72.4029 120.413 72.4177 120.209C72.4326 120.006 72.4871 119.807 72.5782 119.625C72.6692 119.442 72.795 119.28 72.9484 119.147C73.1018 119.013 73.2797 118.912 73.4721 118.848C73.6644 118.784 73.8674 118.758 74.0694 118.773C74.2714 118.788 74.4686 118.843 74.6495 118.935C74.8305 119.027 74.9918 119.153 75.1241 119.308C82.7186 128.159 87.4744 136.291 88.8558 138.771L119.273 141.066C119.554 116.744 108.3 88.3073 98.6897 68.557C98.6001 68.3742 98.5478 68.1752 98.5357 67.9718C98.523 67.7685 98.5502 67.5647 98.6158 67.372C98.6807 67.1791 98.7833 67.0012 98.9175 66.8488C99.0506 66.6956 99.2124 66.5705 99.3937 66.4807C99.6672 66.3457 99.9742 66.2955 100.276 66.3363C100.578 66.3772 100.861 66.5073 101.089 66.7102C101.242 66.8446 101.366 67.0085 101.455 67.1921C107.715 80.0639 112.659 92.3835 116.151 103.812C120.611 118.402 122.682 131.524 122.309 142.797C122.294 143.199 122.125 143.579 121.838 143.858C121.551 144.137 121.168 144.294 120.769 144.295H120.767Z" fill="white"/>
<path d="M38.3564 65.3515C38.0463 65.349 37.7439 65.2532 37.4882 65.0765C37.2973 64.9436 37.1386 64.7689 37.0242 64.5655C36.9097 64.3621 36.8424 64.1353 36.8272 63.902C36.812 63.6687 36.8493 63.435 36.9364 63.2183C37.0235 63.0016 37.1581 62.8075 37.3301 62.6506L38.2989 61.7675C46.9669 53.8592 63.1022 39.1364 64.5718 34.1772C64.6467 33.9259 64.7835 33.6978 64.9694 33.5141C65.1553 33.3304 65.3843 33.1971 65.6351 33.1266C65.8862 33.0559 66.151 33.0509 66.4046 33.112C66.6582 33.1732 66.8921 33.2985 67.0842 33.4761C67.3613 33.7284 74.0424 39.6514 80.4259 33.5009C80.5882 33.3434 80.783 33.224 80.9965 33.1514C81.2096 33.0789 81.4359 33.0542 81.6595 33.079C81.883 33.1045 82.0983 33.1787 82.2905 33.2966C82.4826 33.4144 82.6469 33.5731 82.772 33.7615C82.8336 33.8566 89.1349 43.4153 96.5899 57.5714C96.6968 57.7513 96.7666 57.951 96.7951 58.1587C96.8217 58.3666 96.8057 58.5778 96.7479 58.7791C96.6909 58.9807 96.5938 59.1686 96.4626 59.3313C96.3329 59.495 96.1707 59.6295 95.9864 59.7263C95.8024 59.8241 95.6006 59.8832 95.3932 59.9C95.1851 59.9183 94.9754 59.893 94.7775 59.8256C94.5802 59.76 94.3982 59.6547 94.2426 59.5161C94.087 59.3774 93.961 59.2083 93.8723 59.019C88.1764 48.2009 83.1702 40.1084 81.1463 36.9381C77.1705 39.9471 73.2214 39.6679 70.4853 38.8179C69.1301 38.3877 67.8395 37.7734 66.649 36.9918C63.291 42.8755 52.318 53.1436 40.3576 64.059L39.3888 64.942C39.1096 65.2035 38.7437 65.3509 38.3625 65.3557L38.3564 65.3515Z" fill="white"/>
<path d="M89.644 110.85C85.5738 110.85 80.6969 107.725 77.1664 102.441C72.4455 95.3699 72.1787 87.5029 76.5671 84.5269C77.1032 84.1629 77.6916 83.8839 78.3118 83.6997C78.7017 83.5895 79.119 83.6386 79.4732 83.8363C79.8275 84.0339 80.0902 84.3643 80.2044 84.7557C80.3186 85.1472 80.2751 85.5682 80.0834 85.9276C79.8916 86.287 79.5671 86.5557 79.18 86.6757C78.8623 86.7661 78.5604 86.9056 78.2851 87.0893C75.43 89.0271 76.0868 95.2583 79.7219 100.697C82.5955 105.003 86.6329 107.754 89.605 107.754C90.3451 107.771 91.0733 107.564 91.6945 107.158C93.4146 105.992 93.5213 103.483 93.431 102.091C93.2565 99.3841 92.1317 96.3502 90.2598 93.55C88.3878 90.7498 87.6612 89.7675 85.6641 88.6466C85.4877 88.5469 85.3325 88.4132 85.2073 88.2531C85.0822 88.093 84.9896 87.9096 84.9348 87.7134C84.88 87.5173 84.8641 87.3122 84.888 87.1098C84.9118 86.9074 84.975 86.7118 85.074 86.534C85.1729 86.3563 85.3056 86.1999 85.4645 86.0738C85.6234 85.9477 85.8054 85.8544 86.0001 85.7992C86.1948 85.744 86.3984 85.728 86.5992 85.752C86.8001 85.7761 86.9943 85.8398 87.1707 85.9395C89.7918 87.4202 90.8509 88.8989 92.8132 91.8356C94.9828 95.0825 96.2923 98.6603 96.5078 101.905C96.7377 105.456 95.6396 108.242 93.4187 109.747C92.2997 110.49 90.9838 110.874 89.644 110.85Z" fill="white"/>
<path d="M23.6682 86.7438C23.4139 86.7427 23.1637 86.6788 22.9395 86.5577C22.716 86.4367 22.5256 86.2619 22.3854 86.0489C22.2447 85.8362 22.1586 85.5916 22.135 85.3372C22.1113 85.0827 22.1508 84.8262 22.2499 84.5909C22.7322 83.439 22.4941 80.2293 21.1784 78.155C21.064 77.9831 20.9851 77.7897 20.9465 77.5863C20.9054 77.3816 20.9054 77.1706 20.9465 76.9659C20.9877 76.7632 21.0694 76.5711 21.1867 76.4013C21.3629 76.1464 21.6113 75.9509 21.8994 75.8402C22.1876 75.7296 22.5021 75.7089 22.802 75.7809C23.0017 75.8275 23.1901 75.914 23.3561 76.0351C23.5221 76.1562 23.6624 76.3095 23.7688 76.4861C25.6448 79.4455 25.965 83.6892 25.0845 85.7925C24.9663 86.0738 24.7686 86.3139 24.5161 86.4831C24.2636 86.6522 23.9673 86.7429 23.6641 86.7438H23.6682Z" fill="white"/>
<path d="M73.831 32.0554C72.0183 32.0878 70.2401 31.5539 68.7406 30.527C68.4131 30.2876 68.1924 29.928 68.1261 29.5258C68.0598 29.1236 68.1533 28.7114 68.3863 28.3781C68.6194 28.0449 68.9733 27.8175 69.3715 27.7452C69.7697 27.6728 70.1801 27.7614 70.514 27.9916C72.8129 29.6254 76.1976 28.8705 77.3676 28.0081C77.6975 27.7706 78.107 27.6738 78.5073 27.7387C78.9076 27.8036 79.2663 28.0251 79.5055 28.3549C79.7448 28.6847 79.8452 29.0963 79.785 29.5003C79.7248 29.9043 79.5089 30.268 79.1841 30.5126C77.9977 31.3894 75.978 32.0554 73.831 32.0554Z" fill="white"/>
<path d="M248.057 255.434C248.057 176.757 172.958 153.192 155.704 141.29C153.582 139.822 151.122 138.928 148.559 138.694C135.599 137.526 97.4499 136.585 86.7355 137.185C71.6696 138.026 64.2208 153.545 77.969 161.207C71.3658 163.526 60.1116 178.195 77.969 189.019C68.1166 193.956 67.2956 209.096 78.127 214.62C69.6827 217.149 66.9302 231.417 86.3024 238.833C105.88 246.33 128 249.447 134.879 250.284C159.234 253.248 174.347 246.607 175.807 255.432L248.057 255.434Z" fill="#FAFAFA"/>
<path d="M95.539 163.999H95.4446L76.5157 162.758C76.3136 162.744 76.1162 162.69 75.9349 162.599C75.7526 162.51 75.59 162.385 75.4566 162.231C75.323 162.077 75.2211 161.898 75.1569 161.704C75.0912 161.511 75.0647 161.307 75.0789 161.104C75.0915 160.9 75.1445 160.7 75.2349 160.517C75.3255 160.334 75.4503 160.171 75.6023 160.037C75.9106 159.766 76.3128 159.629 76.721 159.656L95.6498 160.897C95.852 160.904 96.0509 160.95 96.2352 161.034C96.4195 161.118 96.5855 161.238 96.7239 161.387C96.8623 161.535 96.9703 161.71 97.0416 161.9C97.113 162.091 97.1464 162.294 97.14 162.498C97.1335 162.701 97.0873 162.902 97.0039 163.088C96.9206 163.273 96.8018 163.441 96.6543 163.58C96.5067 163.719 96.3334 163.828 96.1441 163.9C95.9549 163.972 95.7534 164.006 95.5513 163.999H95.539Z" fill="#051C32"/>
<path d="M111.96 165.079H111.865L102.883 164.492C102.677 164.484 102.474 164.435 102.287 164.347C102.099 164.259 101.932 164.134 101.793 163.979C101.655 163.824 101.549 163.643 101.481 163.447C101.414 163.25 101.386 163.042 101.4 162.834C101.413 162.626 101.468 162.424 101.561 162.238C101.654 162.052 101.783 161.887 101.941 161.752C102.098 161.617 102.281 161.516 102.478 161.454C102.675 161.391 102.883 161.37 103.088 161.39L112.07 161.979C112.272 161.985 112.471 162.031 112.655 162.115C112.84 162.198 113.006 162.318 113.144 162.467C113.421 162.769 113.569 163.169 113.554 163.58C113.544 163.886 113.444 164.183 113.267 164.432C113.09 164.682 112.843 164.873 112.559 164.982C112.369 165.053 112.168 165.086 111.966 165.081L111.96 165.079Z" fill="#051C32"/>
<path d="M112.891 194.152C112.838 194.156 112.785 194.156 112.731 194.152L78.0264 190.562C77.8225 190.546 77.6241 190.487 77.4435 190.39C77.2627 190.295 77.1028 190.165 76.9735 190.006C76.778 189.767 76.6577 189.475 76.628 189.167C76.5984 188.859 76.6608 188.549 76.8072 188.277C76.9046 188.095 77.0373 187.936 77.1972 187.807C77.3568 187.68 77.5394 187.584 77.735 187.526C77.9317 187.47 78.1375 187.454 78.3405 187.478L113.043 191.058C113.448 191.084 113.826 191.269 114.096 191.574C114.366 191.878 114.506 192.278 114.486 192.686C114.466 193.094 114.287 193.477 113.988 193.753C113.689 194.029 113.294 194.176 112.889 194.16L112.891 194.152Z" fill="#051C32"/>
<path d="M112.947 222.175C112.859 222.177 112.771 222.169 112.684 222.152L77.8663 216.155C77.4638 216.085 77.1051 215.858 76.8691 215.522C76.6331 215.186 76.5393 214.769 76.6081 214.364C76.677 213.958 76.9029 213.597 77.2363 213.359C77.5696 213.121 77.9831 213.027 78.3856 213.096L113.203 219.093C113.583 219.16 113.924 219.367 114.159 219.673C114.394 219.98 114.507 220.365 114.475 220.751C114.443 221.138 114.268 221.498 113.985 221.761C113.702 222.024 113.332 222.171 112.947 222.173V222.175Z" fill="#051C32"/>
<path d="M124.425 169.151C124.046 169.15 123.68 169.008 123.399 168.752C123.117 168.496 122.939 168.145 122.898 167.765C122.257 161.768 122.873 159.326 122.947 159.067C123.065 158.682 123.328 158.358 123.679 158.164C124.03 157.971 124.443 157.922 124.828 158.03C125.214 158.138 125.543 158.393 125.746 158.741C125.948 159.089 126.008 159.502 125.913 159.894C125.894 159.969 125.392 162.107 125.958 167.432C126.001 167.841 125.881 168.251 125.625 168.571C125.368 168.891 124.997 169.096 124.591 169.141C124.536 169.147 124.48 169.151 124.425 169.151Z" fill="#051C32"/>
<path d="M124.425 198.21C124.045 198.209 123.679 198.067 123.397 197.811C123.115 197.555 122.937 197.202 122.898 196.822C122.257 190.824 122.873 188.384 122.947 188.126C123.001 187.929 123.093 187.745 123.217 187.584C123.342 187.424 123.496 187.289 123.672 187.189C123.848 187.088 124.042 187.024 124.243 186.999C124.444 186.974 124.648 186.989 124.843 187.043C125.038 187.097 125.22 187.19 125.38 187.315C125.539 187.44 125.673 187.596 125.772 187.774C125.872 187.951 125.936 188.146 125.961 188.349C125.986 188.551 125.971 188.756 125.917 188.953C125.899 189.025 125.396 191.164 125.962 196.489C126.005 196.898 125.885 197.308 125.63 197.628C125.375 197.947 125.006 198.15 124.603 198.195C124.547 198.205 124.49 198.212 124.433 198.214L124.425 198.21Z" fill="#051C32"/>
<path d="M124.425 227.758C124.045 227.759 123.679 227.618 123.397 227.362C123.115 227.106 122.937 226.753 122.898 226.373C122.257 220.375 122.873 217.933 122.947 217.674C123.065 217.289 123.328 216.965 123.679 216.772C124.03 216.578 124.443 216.53 124.828 216.638C125.214 216.745 125.543 217 125.746 217.348C125.948 217.696 126.008 218.11 125.913 218.502C125.894 218.574 125.392 220.715 125.958 226.04C125.98 226.243 125.961 226.448 125.905 226.644C125.819 226.938 125.648 227.2 125.414 227.397C125.18 227.593 124.894 227.716 124.591 227.748C124.536 227.756 124.48 227.759 124.425 227.758Z" fill="#051C32"/>
<path d="M230.048 197.949C229.801 197.95 229.558 197.891 229.339 197.777C229.12 197.663 228.932 197.497 228.79 197.293C214.527 176.981 194.393 164.305 180.491 156.538C180.137 156.336 179.876 156.003 179.766 155.609C179.655 155.215 179.704 154.793 179.901 154.435C180.097 154.077 180.427 153.812 180.817 153.697C181.207 153.583 181.626 153.629 181.983 153.824C196.146 161.739 216.671 174.671 231.304 195.502C231.426 195.676 231.511 195.873 231.554 196.081C231.597 196.289 231.597 196.504 231.554 196.712C231.512 196.92 231.427 197.117 231.305 197.291C231.183 197.465 231.027 197.611 230.847 197.722C230.606 197.87 230.33 197.949 230.048 197.949Z" fill="#051C32"/>
<path d="M244.168 227.636C243.833 227.636 243.507 227.526 243.24 227.322C242.973 227.118 242.779 226.832 242.688 226.507C240.628 219.174 237.698 212.118 233.962 205.491C233.845 205.314 233.766 205.115 233.728 204.906C233.691 204.697 233.697 204.482 233.745 204.275C233.794 204.068 233.885 203.873 234.012 203.702C234.138 203.533 234.298 203.391 234.482 203.286C234.665 203.181 234.868 203.115 235.078 203.092C235.287 203.069 235.5 203.09 235.701 203.153C235.903 203.216 236.089 203.32 236.249 203.458C236.409 203.597 236.538 203.768 236.631 203.959C240.487 210.807 243.512 218.098 245.639 225.674C245.695 225.87 245.711 226.075 245.687 226.278C245.665 226.481 245.602 226.677 245.502 226.855C245.403 227.032 245.272 227.189 245.114 227.316C244.955 227.442 244.773 227.535 244.578 227.589C244.444 227.624 244.306 227.64 244.168 227.636Z" fill="#051C32"/>
<path d="M248.057 256.987H175.807C175.442 256.988 175.089 256.858 174.811 256.62C174.532 256.383 174.347 256.053 174.288 255.69C173.672 251.928 169.325 251.968 159.565 252.381C152.906 252.671 144.618 253.033 134.694 251.825C130.383 251.3 121.557 250.067 111.089 247.728C110.691 247.639 110.343 247.394 110.124 247.047C109.904 246.7 109.831 246.279 109.919 245.877C110.008 245.475 110.251 245.126 110.596 244.904C110.94 244.683 111.358 244.609 111.756 244.698C122.099 247.01 130.796 248.227 135.059 248.746C144.733 249.922 152.882 249.573 159.427 249.281C164.392 249.074 168.313 248.895 171.25 249.474C174.294 250.073 176.176 251.521 176.997 253.881H246.501C246.435 247.816 245.87 241.768 244.812 235.797C244.776 235.597 244.78 235.391 244.822 235.192C244.865 234.993 244.946 234.804 245.061 234.637C245.177 234.469 245.323 234.326 245.493 234.216C245.663 234.106 245.853 234.03 246.052 233.994C246.251 233.958 246.455 233.961 246.653 234.004C246.85 234.047 247.037 234.129 247.204 234.245C247.37 234.361 247.512 234.509 247.621 234.68C247.731 234.851 247.806 235.043 247.842 235.243C249.02 241.907 249.605 248.663 249.591 255.432C249.591 255.843 249.43 256.238 249.143 256.53C249.001 256.675 248.832 256.789 248.646 256.868C248.459 256.946 248.259 256.987 248.057 256.987Z" fill="#051C32"/>
<path d="M100.625 245.068C100.486 245.069 100.348 245.049 100.215 245.011C95.0402 243.563 90.1777 241.979 85.7585 240.287C80.4218 238.248 76.3577 235.578 73.6586 232.356C71.2468 229.477 70.0358 226.259 70.1528 223.049C70.208 221.335 70.6695 219.659 71.4986 218.161C72.3277 216.663 73.5004 215.386 74.9189 214.438C70.9923 211.454 68.7324 206.902 68.7612 201.787C68.7796 196.59 71.1524 191.885 75.0933 188.984C67.6404 183.681 66.4725 177.891 66.883 173.823C67.4393 168.415 71.0847 163.54 74.8881 161.054C70.3724 157.659 68.3814 152.954 69.4898 148.069C71.0436 141.23 78.1106 136.119 86.6575 135.642C97.3535 135.042 135.624 135.977 148.703 137.156C151.599 137.416 164.048 142.224 166.246 143.74C166.517 143.904 166.732 144.148 166.861 144.439C166.99 144.729 167.027 145.053 166.966 145.366C166.926 145.574 166.845 145.771 166.726 145.946C166.607 146.12 166.454 146.268 166.277 146.381C166.009 146.551 165.697 146.633 165.381 146.618C165.065 146.603 164.762 146.491 164.512 146.296C162.502 144.911 150.63 140.44 148.432 140.241C135.433 139.071 97.4376 138.148 86.8238 138.736C78.4308 139.205 73.5087 144.259 72.4886 148.755C71.5075 153.057 73.7797 157.1 78.7059 159.853C78.9681 159.997 79.1831 160.215 79.3248 160.48C79.4664 160.745 79.5287 161.045 79.5039 161.345C79.4791 161.645 79.3684 161.931 79.1851 162.169C79.0019 162.407 78.7541 162.586 78.4719 162.684C75.3561 163.776 70.5264 168.489 69.9455 174.145C69.4262 179.204 72.4743 183.89 78.7592 187.702C78.9952 187.845 79.1886 188.05 79.3193 188.294C79.4499 188.539 79.5131 188.814 79.5022 189.091C79.4913 189.369 79.4067 189.638 79.2573 189.871C79.1078 190.104 78.8989 190.293 78.6525 190.417C74.4611 192.516 71.8482 196.88 71.8297 201.792C71.8113 206.703 74.4242 210.993 78.8208 213.236C79.0265 213.341 79.2062 213.491 79.3466 213.676C79.487 213.86 79.5845 214.074 79.632 214.301C79.6795 214.528 79.6757 214.763 79.6209 214.989C79.5661 215.214 79.4617 215.425 79.3155 215.604C79.1204 215.845 78.8578 216.02 78.5622 216.107C75.4443 217.042 73.3486 219.809 73.2255 223.157C73.0202 228.722 78.1127 234.039 86.8484 237.383C91.1773 239.038 95.9495 240.599 101.032 242.016C101.299 242.091 101.541 242.238 101.733 242.441C101.924 242.644 102.057 242.895 102.119 243.168C102.18 243.441 102.167 243.725 102.081 243.991C101.995 244.257 101.84 244.495 101.631 244.68C101.352 244.927 100.993 245.064 100.621 245.064L100.625 245.068Z" fill="#051C32"/>
<path d="M253.987 253.641H172.131C171.477 253.641 170.851 253.902 170.389 254.368C169.927 254.833 169.668 255.464 169.668 256.122V264.395C169.668 265.053 169.927 265.684 170.389 266.15C170.851 266.615 171.477 266.876 172.131 266.876H253.987C254.641 266.876 255.267 266.615 255.729 266.15C256.191 265.684 256.45 265.053 256.45 264.395V256.122C256.45 255.464 256.191 254.833 255.729 254.368C255.267 253.902 254.641 253.641 253.987 253.641Z" fill="#007EEF"/>
<path d="M253.997 268.438H172.131C171.07 268.436 170.053 268.011 169.302 267.255C168.552 266.499 168.13 265.474 168.128 264.405V256.133C168.13 255.064 168.552 254.039 169.302 253.283C170.053 252.527 171.07 252.102 172.131 252.1H253.997C255.059 252.102 256.076 252.527 256.826 253.283C257.576 254.039 257.998 255.064 258 256.133V264.405C257.998 265.474 257.576 266.499 256.826 267.255C256.076 268.011 255.059 268.436 253.997 268.438ZM172.141 255.202C171.897 255.206 171.663 255.306 171.49 255.479C171.318 255.653 171.22 255.887 171.217 256.133V264.405C171.219 264.651 171.317 264.887 171.49 265.061C171.663 265.235 171.897 265.334 172.141 265.336H253.997C254.241 265.334 254.474 265.235 254.646 265.061C254.819 264.886 254.917 264.651 254.921 264.405V256.133C254.917 255.887 254.818 255.653 254.646 255.48C254.474 255.306 254.241 255.206 253.997 255.202H172.141Z" fill="#007EEF"/>
<path d="M225.436 247.068H207.925C207.638 247.068 207.354 247.125 207.088 247.235C206.823 247.346 206.582 247.508 206.378 247.713C206.175 247.917 206.014 248.16 205.904 248.428C205.794 248.695 205.737 248.981 205.737 249.271V271.244C205.737 271.829 205.968 272.39 206.378 272.803C206.789 273.217 207.345 273.449 207.925 273.449H225.444C226.024 273.449 226.581 273.217 226.991 272.803C227.402 272.39 227.632 271.829 227.632 271.244V249.271C227.632 248.981 227.575 248.694 227.465 248.426C227.354 248.158 227.192 247.914 226.988 247.71C226.784 247.505 226.542 247.343 226.276 247.233C226.009 247.123 225.724 247.067 225.436 247.068Z" fill="#051C32"/>
<path d="M225.436 275H207.925C206.938 274.999 205.99 274.604 205.292 273.9C204.593 273.196 204.201 272.242 204.2 271.246V249.271C204.201 248.276 204.593 247.321 205.292 246.617C205.99 245.914 206.938 245.518 207.925 245.517H225.446C226.434 245.518 227.381 245.914 228.08 246.617C228.778 247.321 229.171 248.276 229.172 249.271V271.259C229.168 272.252 228.774 273.203 228.076 273.904C227.377 274.606 226.432 274.999 225.446 275H225.436ZM207.925 248.619C207.754 248.622 207.591 248.692 207.47 248.814C207.349 248.935 207.281 249.099 207.279 249.271V271.259C207.281 271.43 207.349 271.595 207.47 271.716C207.591 271.837 207.754 271.907 207.925 271.91H225.446C225.617 271.907 225.779 271.837 225.9 271.716C226.021 271.594 226.09 271.431 226.093 271.259V249.271C226.091 249.099 226.022 248.934 225.901 248.813C225.78 248.691 225.617 248.622 225.446 248.619H207.925Z" fill="#051C32"/>
<path d="M216.676 263.694C216.474 263.695 216.273 263.656 216.087 263.578C215.9 263.5 215.73 263.386 215.587 263.242C215.444 263.098 215.33 262.927 215.253 262.738C215.175 262.55 215.136 262.347 215.136 262.143V251.114C215.136 250.702 215.298 250.308 215.587 250.017C215.876 249.726 216.267 249.562 216.676 249.562C217.084 249.562 217.475 249.726 217.764 250.017C218.053 250.308 218.215 250.702 218.215 251.114V259.675L222.753 257.45C223.12 257.271 223.542 257.247 223.927 257.381C224.312 257.516 224.628 257.799 224.806 258.168C224.894 258.351 224.947 258.55 224.96 258.753C224.971 258.956 224.943 259.16 224.878 259.353C224.812 259.545 224.709 259.723 224.575 259.875C224.44 260.027 224.278 260.151 224.096 260.24L217.345 263.549C217.134 263.648 216.904 263.698 216.671 263.694H216.676Z" fill="#007EEF"/>
<path d="M179.742 261.82H173.379C172.97 261.82 172.579 261.657 172.29 261.366C172.001 261.075 171.839 260.68 171.839 260.269C171.839 259.857 172.001 259.463 172.29 259.172C172.579 258.881 172.97 258.718 173.379 258.718H179.742C180.15 258.718 180.541 258.881 180.83 259.172C181.119 259.463 181.281 259.857 181.281 260.269C181.281 260.68 181.119 261.075 180.83 261.366C180.541 261.657 180.15 261.82 179.742 261.82Z" fill="white"/>
<path d="M193.968 261.82H187.605C187.197 261.82 186.805 261.657 186.517 261.366C186.228 261.075 186.066 260.68 186.066 260.269C186.066 259.857 186.228 259.463 186.517 259.172C186.805 258.881 187.197 258.718 187.605 258.718H193.968C194.376 258.718 194.768 258.881 195.057 259.172C195.345 259.463 195.507 259.857 195.507 260.269C195.507 260.68 195.345 261.075 195.057 261.366C194.768 261.657 194.376 261.82 193.968 261.82Z" fill="white"/>
<path d="M71.8811 199.655C73.3856 196.024 77.9608 190.001 91.0377 191.796L76.6081 189.023C76.6081 189.023 71.76 195.978 71.8811 199.655Z" fill="#051C32"/>
<path d="M186.878 156.554C189.251 157.75 190.255 156.095 187.244 148.007L194.816 162.07L186.878 156.554Z" fill="#051C32"/>
<path d="M75.8179 39.219C80.5634 38.7744 83.1168 40.4909 88.1046 48.3331L81.5364 35.7178L75.8179 39.219Z" fill="white"/>
</g>
<defs>
<clipPath id="clip0_962_2688">
<rect width="258" height="275" fill="white"/>
</clipPath>
</defs>
</svg>
