<svg width="384" height="397" viewBox="0 0 384 397" fill="none" xmlns="http://www.w3.org/2000/svg">
<g clip-path="url(#clip0_409_1345)">
<path d="M51.4292 294.443C52.1076 298.696 52.9506 303.253 56.0161 306.279C59.0816 309.305 63.7338 310.11 68.0624 310.453C80.1939 311.42 92.3764 310.17 104.497 309.075C156.721 304.405 209.188 303.024 261.587 304.941C266.52 305.122 272.143 305.063 275.467 301.413C277.147 299.573 277.925 297.103 278.626 294.709C287.249 265.292 291.507 234.799 295.724 204.44C298.518 184.374 301.31 164.304 304.101 144.228C306.769 125.053 309.44 105.847 310.345 86.51C310.558 81.9728 310.479 76.8685 307.305 73.6074C305.202 71.4438 302.142 70.5477 299.21 69.8331C274.485 63.8043 248.666 64.7287 223.234 65.6645L68.7266 71.4267C58.6871 71.7982 48.1423 72.32 39.5816 77.5746C34.9 80.4762 31.3732 84.9128 29.6045 90.1256C28.7326 92.6406 28.4415 95.3201 28.753 97.9635C29.1163 100.706 30.5781 102.901 30.7399 105.663C31.6861 120.975 32.7893 136.278 34.0495 151.57C35.3098 166.862 36.7754 182.135 38.4462 197.387C40.0982 212.7 41.9337 227.994 43.9528 243.269C45.9624 258.48 48.1518 273.666 50.5209 288.828C50.8275 290.7 51.1303 292.571 51.4292 294.443Z" fill="#007EEF"/>
<path d="M121.698 315.444C120.074 316.034 118.292 316.919 116.716 316.199C115.192 315.501 114.658 313.624 114.477 311.945C113.671 304.572 115.797 295.603 110.094 290.853C107.823 288.95 104.758 288.301 101.826 287.793C82.9824 284.566 63.7016 284.883 44.9748 288.729C41.7561 289.392 38.4464 290.206 35.8323 292.188C32.5113 294.698 31.7619 297.919 32.8434 301.651C33.482 303.855 33.2408 306.495 33.3458 308.777C33.465 311.322 33.5833 313.864 33.7006 316.403L35.1198 347.241C35.3923 353.06 35.6629 358.878 35.9316 364.695C36.136 369.125 36.4595 373.88 39.2355 377.34C43.2746 382.373 50.7028 382.668 57.1574 382.535L88.3092 381.888C96.6939 381.715 106.995 380.261 109.912 372.406C111.227 368.867 110.554 364.948 110.659 361.176C110.764 357.405 112.112 353.108 115.629 351.727C117.403 351.03 119.381 351.228 121.286 351.211C131.837 351.126 142.214 342.636 142.662 332.107C143.111 321.578 131.615 311.851 121.698 315.444ZM132.864 331.543C131.768 339.44 123.006 345.344 115.266 343.405C114.792 343.331 114.355 343.104 114.023 342.758C113.668 342.307 113.688 341.678 113.739 341.105L114.624 327.635L114.582 327.754L114.389 329.592C114.312 328.972 114.378 328.344 114.582 327.754L114.675 326.852L114.624 327.635C115.408 325.539 117.789 323.949 120.051 323.169C123.974 321.791 129.032 321.751 131.541 325.066C132.898 326.869 133.176 329.3 132.864 331.551V331.543Z" fill="#FACBDF"/>
<path d="M93.7934 301.135C95.241 300.205 97.5912 300.545 97.506 299.788C84.4271 297.837 71.1716 297.344 57.9837 298.319C55.4291 298.506 47.1778 299.896 46.63 301.223C46.0396 302.641 53.6977 303.903 56.1302 304.008C64.3617 304.371 72.0254 304.66 80.2342 304.24C84.753 304.016 91.9314 302.343 93.7934 301.135Z" fill="#162B43"/>
<path d="M71.7386 305.593C66.7203 305.593 61.6934 305.397 56.0847 305.151C55.9967 305.151 47.138 304.461 45.7244 302.252C45.5832 302.042 45.4964 301.799 45.4718 301.546C45.4461 301.293 45.4831 301.037 45.5797 300.801C45.8635 300.109 46.5646 299.283 51.3161 298.248C53.4884 297.768 55.6873 297.418 57.9013 297.199C71.1731 296.21 84.514 296.703 97.6762 298.671C97.9226 298.709 98.1498 298.826 98.3226 299.005C98.4955 299.185 98.6045 299.416 98.6328 299.663C98.8002 301.124 97.2136 301.388 96.362 301.529C95.7234 301.634 94.9286 301.768 94.4205 302.096C92.3457 303.426 84.9601 305.148 80.3107 305.386C77.3786 305.531 74.56 305.593 71.7386 305.593ZM48.3755 301.402C50.0786 302.057 53.9616 302.786 56.184 302.885C64.8867 303.265 72.1786 303.526 80.1801 303.115C84.4378 302.896 91.0485 301.328 92.9701 300.301C81.3886 298.876 69.6948 298.591 58.0574 299.451C55.5 299.649 50.422 300.605 48.3755 301.402Z" fill="#162B43"/>
<path d="M66.8475 306.651C56.6519 306.651 47.1403 304.586 39.1331 300.608C38.9983 300.537 38.8787 300.441 38.7811 300.324C38.6826 300.211 38.6073 300.08 38.5597 299.938C38.5137 299.797 38.4944 299.648 38.5029 299.499C38.5135 299.35 38.5532 299.205 38.62 299.072C38.6867 298.938 38.7791 298.819 38.8918 298.722C39.0038 298.624 39.134 298.549 39.275 298.501C39.4169 298.455 39.566 298.436 39.7149 298.444C39.8639 298.455 40.0093 298.495 40.1435 298.56C48.8746 302.899 59.4931 304.867 70.8525 304.26C80.1456 303.761 93.8126 301.731 101.738 297.644C102.005 297.507 102.317 297.481 102.603 297.573C102.746 297.619 102.878 297.693 102.992 297.791C103.106 297.888 103.2 298.007 103.267 298.141C103.335 298.273 103.376 298.418 103.389 298.566C103.401 298.714 103.384 298.864 103.338 299.005C103.294 299.148 103.221 299.28 103.126 299.394C103.03 299.51 102.912 299.606 102.779 299.677C94.5336 303.931 80.4919 306.032 70.9888 306.543C69.5942 306.615 68.2137 306.651 66.8475 306.651Z" fill="white"/>
<path d="M93.4721 341.621C94.0994 332.337 85.3542 325.103 76.8219 323.946C70.6 323.095 64.5599 325.721 60.5832 330.51C57.0295 334.792 55.0823 340.818 56.7315 346.286C58.954 353.659 66.9214 357.112 74.1424 356.903C82.6861 356.653 92.8335 351.038 93.4721 341.621Z" fill="white"/>
<path d="M41.7252 366.34C41.4241 366.34 41.1353 366.22 40.9224 366.008C40.7095 365.795 40.5898 365.506 40.5898 365.206V360.138C40.5898 359.837 40.7095 359.549 40.9224 359.336C41.1353 359.123 41.4241 359.004 41.7252 359.004C42.0263 359.004 42.3151 359.123 42.528 359.336C42.741 359.549 42.8606 359.837 42.8606 360.138V365.214C42.8606 365.515 42.741 365.803 42.528 366.016C42.3151 366.229 42.0263 366.348 41.7252 366.348V366.34Z" fill="#007EEF"/>
<path d="M54.2146 378.678C50.4565 378.678 46.4628 377.924 44.0445 375.789C43.2809 375.13 42.6738 374.309 42.2673 373.386C41.8608 372.464 41.665 371.462 41.6943 370.455C41.6943 370.154 41.8139 369.865 42.0268 369.653C42.2397 369.44 42.5285 369.32 42.8296 369.32C43.1308 369.32 43.4195 369.44 43.6325 369.653C43.8454 369.865 43.965 370.154 43.965 370.455C43.9377 371.14 44.0657 371.823 44.3394 372.453C44.6132 373.082 45.0256 373.642 45.546 374.09C48.1914 376.421 53.6213 376.688 57.4674 376.208C57.6147 376.19 57.7642 376.2 57.9074 376.24C58.1245 376.298 58.3191 376.42 58.4667 376.59C58.6143 376.76 58.7081 376.969 58.7362 377.192C58.7528 377.34 58.7422 377.49 58.705 377.635C58.6649 377.779 58.5974 377.913 58.5063 378.032C58.4129 378.146 58.2994 378.242 58.1714 378.315C58.042 378.389 57.8992 378.436 57.7513 378.454C56.5781 378.6 55.3969 378.673 54.2146 378.673V378.678Z" fill="#007EEF"/>
<path d="M133.177 359.023C123.765 362.897 120.12 367.068 130.645 373.928C152.155 387.939 203.405 382.435 218.659 373.222C225.829 368.892 227.594 361.198 204.055 356.537C180.874 351.945 145.342 354.016 133.177 359.023Z" fill="#162B43"/>
<path d="M170.331 383.57C163.908 383.607 157.491 383.133 151.143 382.152C142.344 380.72 135.228 378.275 130.023 374.884C125.064 371.654 122.875 368.841 123.139 366.031C123.423 363.084 126.378 360.6 132.745 357.98C145.086 352.901 180.518 350.726 204.273 355.428C216.853 357.918 223.643 361.525 224.457 366.147C224.96 369.005 223.109 371.864 219.246 374.195C211.392 378.936 194.435 382.645 177.047 383.419C174.788 383.519 172.542 383.57 170.331 383.57ZM173.8 355.133C157.053 355.133 140.874 357.084 133.596 360.073C128.257 362.27 125.572 364.287 125.39 366.235C125.217 368.064 127.19 370.332 131.252 372.978C140.576 379.052 157.226 382.03 176.95 381.151C193.981 380.391 210.518 376.815 218.074 372.252C221.034 370.463 222.547 368.381 222.223 366.538C221.94 364.902 219.567 360.765 203.836 357.651C194.983 355.884 184.302 355.133 173.8 355.133Z" fill="#162B43"/>
<path d="M170.039 377.507C156.491 377.507 147.877 375.978 135.515 370.089C135.376 370.028 135.251 369.939 135.149 369.828C135.045 369.717 134.964 369.587 134.911 369.445C134.859 369.303 134.836 369.152 134.843 369.001C134.85 368.85 134.888 368.702 134.953 368.566C135.019 368.429 135.11 368.307 135.223 368.206C135.336 368.106 135.468 368.03 135.612 367.982C135.754 367.931 135.906 367.911 136.057 367.922C136.209 367.933 136.356 367.974 136.492 368.041C151.904 375.383 160.877 375.754 182.593 374.946C189.613 374.685 200.257 373.353 207.044 371.05C207.329 370.953 207.641 370.974 207.911 371.107C208.181 371.24 208.387 371.475 208.484 371.76C208.581 372.045 208.56 372.357 208.427 372.627C208.294 372.897 208.058 373.103 207.773 373.199C200.771 375.576 189.857 376.945 182.679 377.212C177.97 377.388 173.8 377.507 170.039 377.507Z" fill="white"/>
<path d="M213.464 370.026C213.163 370.026 212.875 369.907 212.662 369.694C212.449 369.481 212.329 369.193 212.329 368.892C212.329 368.591 212.449 368.303 212.662 368.09C212.875 367.877 213.163 367.758 213.464 367.758C215.196 367.758 216.635 365.965 217.538 364.462C217.696 364.214 217.946 364.037 218.233 363.969C218.448 363.918 218.672 363.931 218.88 364.006C219.087 364.081 219.269 364.214 219.401 364.39C219.534 364.566 219.613 364.777 219.627 364.997C219.642 365.216 219.593 365.436 219.485 365.628C217.756 368.506 215.676 370.026 213.464 370.026Z" fill="white"/>
<path d="M291.725 297.973C290.914 297.965 290.104 297.911 289.298 297.809L275.072 296.107C274.881 296.091 274.698 296.027 274.538 295.921C274.379 295.815 274.249 295.67 274.16 295.501C274.072 295.331 274.028 295.141 274.033 294.95C274.037 294.759 274.09 294.571 274.187 294.406C274.258 294.276 274.355 294.161 274.47 294.069C274.591 293.977 274.728 293.91 274.874 293.872C275.02 293.834 275.173 293.826 275.322 293.847L289.548 295.549C291.731 295.807 294.112 295.881 295.205 294.468C296.116 293.292 295.691 291.431 294.751 290.314C293.536 288.865 291.518 288.156 290.107 287.762C285.572 286.452 280.779 286.31 276.174 287.348C275.88 287.414 275.571 287.361 275.317 287.2C275.062 287.039 274.882 286.784 274.815 286.49C274.749 286.196 274.802 285.888 274.963 285.634C275.124 285.38 275.38 285.199 275.674 285.133C280.654 284.011 285.836 284.165 290.74 285.581C292.443 286.072 294.879 286.948 296.491 288.871C297.987 290.652 298.674 293.708 297.002 295.869C295.742 297.523 293.778 297.973 291.725 297.973Z" fill="#162B43"/>
<path d="M283.6 379.906C283.048 379.899 282.509 379.741 282.042 379.447C281.575 379.154 281.198 378.738 280.953 378.244C280.708 377.751 280.604 377.199 280.653 376.65C280.701 376.101 280.901 375.576 281.229 375.133C284.638 370.601 289.172 367.036 294.383 364.792C295.64 360.569 295.649 356.001 294.051 352.002C293.525 350.682 292.859 349.423 292.064 348.245C280.179 353.066 270.54 353.769 262.601 350.437C260.864 349.708 256.825 347.601 256.802 343.685C256.779 340.038 260.375 337.651 263.748 336.633C274.369 333.426 286.327 337.387 292.827 345.472C301.7 341.666 307.303 337.387 311.961 330.927C317.448 323.31 318.206 313.587 316.114 308.304C312.747 299.763 303.698 294.017 293.06 293.666C292.911 293.661 292.764 293.626 292.628 293.565C292.493 293.503 292.37 293.415 292.268 293.306C292.167 293.198 292.087 293.07 292.035 292.93C291.982 292.791 291.958 292.642 291.963 292.493C291.968 292.344 292.002 292.198 292.064 292.062C292.126 291.926 292.214 291.804 292.323 291.702C292.432 291.601 292.56 291.521 292.699 291.469C292.839 291.416 292.988 291.392 293.137 291.397C298.725 291.584 304.011 293.138 308.422 295.897C312.963 298.733 316.369 302.749 318.228 307.473C320.527 313.312 319.761 323.983 313.803 332.252C308.978 338.958 303.205 343.424 294.19 347.352C294.975 348.554 295.641 349.831 296.177 351.163C297.706 355.003 297.987 359.438 297.028 363.771C303.363 361.607 310.284 361.318 316.593 363.306C322.103 365.041 327.357 369.184 328.668 374.402C332.097 369.763 337.493 366.541 343.224 365.895C350.186 365.104 357.521 368.118 361.909 373.577C362.007 373.692 362.082 373.826 362.128 373.971C362.174 374.116 362.19 374.269 362.176 374.42C362.162 374.572 362.117 374.719 362.045 374.853C361.974 374.985 361.877 375.103 361.761 375.199C361.642 375.294 361.505 375.364 361.358 375.406C361.212 375.447 361.058 375.459 360.907 375.44C360.757 375.42 360.612 375.371 360.481 375.295C360.349 375.219 360.234 375.117 360.143 374.995C358.172 372.537 355.608 370.619 352.693 369.419C349.778 368.219 346.606 367.777 343.473 368.135C340.341 368.492 337.35 369.636 334.78 371.461C332.211 373.286 330.146 375.732 328.779 378.57C328.662 378.813 328.462 379.006 328.215 379.115C327.969 379.224 327.691 379.242 327.433 379.165C327.174 379.088 326.951 378.922 326.804 378.696C326.657 378.47 326.596 378.2 326.63 377.932C327.365 372.21 321.788 367.335 315.895 365.481C309.543 363.496 302.526 363.966 296.256 366.465C296.123 366.853 295.972 367.239 295.822 367.624C293.639 373.044 289.643 377.425 284.857 379.637C284.463 379.817 284.033 379.909 283.6 379.906ZM293.227 367.848C289.231 369.927 285.754 372.879 283.055 376.483C282.954 376.612 282.902 376.771 282.907 376.934C282.909 377.096 282.97 377.252 283.077 377.374C283.17 377.499 283.303 377.587 283.455 377.623C283.607 377.658 283.767 377.637 283.906 377.567C288.025 375.661 291.272 372.068 293.227 367.848ZM271.442 337.79C269.06 337.787 266.691 338.133 264.409 338.816C261.823 339.596 259.064 341.286 259.078 343.682C259.078 346.308 262.456 347.936 263.486 348.356C270.719 351.393 279.612 350.749 290.644 346.371C286.072 341.02 278.822 337.79 271.442 337.79Z" fill="#162B43"/>
<path d="M366.887 394.575C366.208 394.576 365.538 394.429 364.923 394.144C364.307 393.859 363.762 393.443 363.325 392.925C361.277 390.526 359.635 387.809 358.462 384.883C356.91 381.009 356.873 377.657 358.352 375.187C359.867 372.658 363.044 371.092 366.867 370.996C373.111 370.834 379.382 374.399 382.441 379.849C382.813 380.513 383.168 381.315 382.981 382.225C382.765 383.263 381.936 383.893 381.439 384.273C379.2 385.974 376.75 387.959 374.38 389.893C372.887 391.107 371.34 392.36 369.859 393.537C369.015 394.211 367.967 394.577 366.887 394.575ZM367.256 373.259H366.91C363.884 373.333 361.411 374.49 360.302 376.344C358.908 378.669 359.68 381.809 360.585 384.032C361.666 386.731 363.18 389.237 365.067 391.45C365.484 391.925 366.067 392.222 366.697 392.278C367.326 392.335 367.953 392.147 368.448 391.754C369.918 390.588 371.46 389.337 372.947 388.127C375.331 386.193 377.795 384.193 380.063 382.455C380.273 382.294 380.713 381.959 380.755 381.752C380.784 381.616 380.684 381.344 380.472 380.944C377.843 376.321 372.578 373.259 367.256 373.259Z" fill="#162B43"/>
<path d="M376.356 396.387C376.059 396.387 375.774 396.271 375.562 396.064C373.297 393.854 371.423 391.278 370.018 388.444C369.895 388.177 369.881 387.872 369.978 387.594C370.077 387.315 370.281 387.086 370.546 386.956C370.81 386.824 371.116 386.8 371.397 386.89C371.678 386.979 371.914 387.175 372.053 387.435C373.348 390.042 375.076 392.411 377.162 394.442C377.32 394.597 377.43 394.794 377.48 395.009C377.526 395.229 377.505 395.459 377.42 395.667C377.336 395.876 377.19 396.054 377.003 396.18C376.816 396.306 376.596 396.373 376.371 396.373L376.356 396.387Z" fill="#162B43"/>
<path d="M382.862 392.897C382.628 392.898 382.399 392.825 382.209 392.69C379.362 390.678 377.222 387.821 376.092 384.526C376.044 384.385 376.023 384.237 376.032 384.089C376.041 383.94 376.08 383.794 376.146 383.661C376.21 383.526 376.302 383.406 376.415 383.309C376.527 383.209 376.657 383.133 376.799 383.085C376.939 383.037 377.088 383.017 377.236 383.025C377.46 383.039 377.676 383.119 377.855 383.256C378.034 383.392 378.168 383.578 378.241 383.791C379.218 386.632 381.066 389.094 383.523 390.827C383.721 390.965 383.87 391.163 383.948 391.392C384.025 391.622 384.028 391.869 383.954 392.1C383.882 392.328 383.737 392.527 383.543 392.667C383.348 392.809 383.112 392.886 382.87 392.885L382.862 392.897Z" fill="#162B43"/>
<path d="M87.7416 270.957C87.511 270.957 87.2858 270.887 87.0962 270.755C86.9065 270.624 86.7614 270.438 86.6801 270.223C86.5976 270.008 86.5837 269.773 86.6403 269.551C86.6981 269.331 86.8207 269.133 86.9923 268.983C91.4174 265.087 91.0115 257.987 89.1552 252.641C88.42 250.523 87.4521 248.41 86.5438 246.369C84.889 242.705 83.1774 238.919 82.57 234.816C81.4488 227.304 84.4349 219.233 90.177 214.254C90.2865 214.139 90.4188 214.048 90.5655 213.988C90.7121 213.927 90.8699 213.898 91.0285 213.902C91.1868 213.905 91.3426 213.942 91.4855 214.01C91.7007 214.111 91.8789 214.276 91.995 214.483C92.1111 214.69 92.1592 214.928 92.1327 215.164C92.1143 215.321 92.0641 215.473 91.9851 215.609C91.9058 215.746 91.7984 215.864 91.67 215.955C86.5012 220.439 83.8132 227.707 84.8209 234.473C85.3886 238.261 86.9582 241.741 88.6216 245.421C89.5639 247.511 90.5403 249.675 91.3095 251.884C93.4071 257.927 93.7705 266.034 88.4995 270.674C88.2903 270.858 88.0205 270.959 87.7416 270.957Z" fill="white"/>
<path d="M74.4923 248.977C74.2775 248.977 74.0672 248.916 73.8858 248.801C73.7044 248.686 73.5594 248.522 73.4676 248.328C68.8239 238.579 64.2966 227.017 65.9088 215.175C66.556 210.434 68.1455 206.039 69.8599 201.564C71.915 196.219 73.5244 190.706 71.3984 186.614C71.3027 186.416 71.2667 186.194 71.2949 185.976C71.3231 185.758 71.4142 185.552 71.5571 185.385C71.7 185.218 71.8885 185.095 72.0997 185.033C72.3109 184.971 72.5357 184.971 72.7466 185.034C73.0305 185.119 73.2698 185.312 73.4137 185.57C75.9512 190.456 74.2255 196.536 71.9944 202.378C70.3311 206.708 68.787 210.967 68.1739 215.468C66.6412 226.72 71.0322 237.893 75.5311 247.341C75.595 247.476 75.6316 247.622 75.6389 247.771C75.6462 247.92 75.624 248.069 75.5737 248.209C75.4761 248.489 75.2723 248.721 75.006 248.853C74.8502 248.932 74.6784 248.974 74.5036 248.977H74.4923Z" fill="white"/>
<path d="M62.0791 268.711C61.8708 268.711 61.6666 268.654 61.4889 268.545C61.3112 268.436 61.1668 268.281 61.0715 268.096C60.9369 267.833 60.9104 267.528 60.9977 267.245C63.4415 259.671 61.4319 256.643 59.1073 253.135C58.1507 251.691 57.1601 250.2 56.4051 248.314C54.1145 242.643 51.5286 234.308 55.4854 227.562C55.5568 227.434 55.6533 227.323 55.7693 227.233C56.0129 227.05 56.3189 226.971 56.6208 227.012C56.7719 227.026 56.9186 227.071 57.0522 227.142C57.246 227.256 57.4018 227.424 57.4998 227.626C57.5978 227.828 57.6337 228.055 57.6029 228.277C57.5824 228.424 57.5332 228.565 57.4581 228.694C54.8297 233.171 55.1704 239.132 58.5254 247.449C59.1924 249.111 60.1177 250.506 61.0147 251.853C63.4415 255.514 65.9507 259.3 63.1747 267.912C63.1018 268.141 62.9578 268.342 62.7633 268.484C62.5689 268.626 62.3343 268.703 62.0933 268.703L62.0791 268.711Z" fill="white"/>
<path d="M109.024 252.947C108.812 252.948 108.605 252.889 108.425 252.777C108.245 252.665 108.1 252.506 108.006 252.316C107.912 252.126 107.873 251.913 107.894 251.702C107.917 251.496 107.997 251.3 108.124 251.135C124.95 229.082 150.371 215.167 176.127 213.911C189.577 213.293 202.96 216.145 214.988 222.191C227.406 228.404 237.52 237.552 244.224 248.643C244.362 248.867 244.418 249.133 244.381 249.395C244.344 249.656 244.217 249.896 244.022 250.074C243.828 250.252 243.577 250.356 243.313 250.369C243.049 250.383 242.789 250.303 242.578 250.146C242.463 250.055 242.367 249.943 242.294 249.817C229.342 228.398 202.8 214.878 176.249 216.176C151.155 217.401 126.367 230.985 109.941 252.511C109.834 252.649 109.697 252.762 109.54 252.84C109.379 252.917 109.202 252.953 109.024 252.947Z" fill="white"/>
<path d="M230.617 235.238C230.385 235.24 230.159 235.17 229.968 235.039C229.778 234.909 229.631 234.723 229.549 234.507C229.468 234.291 229.454 234.056 229.51 233.832C229.567 233.612 229.69 233.414 229.862 233.265C251.593 213.993 276.097 196.78 304.779 180.636C307.3 179.219 310.74 177.27 314.469 177.134C317.2 177.032 319.769 177.88 322.252 178.7C323.036 178.96 323.848 179.227 324.637 179.454C336.05 182.738 349.252 178.603 356.742 169.396C364.233 160.188 365.592 146.426 360.046 135.934C358.059 132.191 355.473 129.327 352.547 127.645C343.464 122.43 331.511 128.031 324.395 136.254C321.04 140.134 318.245 144.611 315.542 148.944C312.42 153.963 309.17 159.153 304.992 163.548C298.747 170.102 290.746 174.608 282.997 178.935L279.977 180.636C274.169 183.929 268.385 187.442 262.782 191.103C252.294 197.934 230.063 214.949 217.903 225.466C217.791 225.568 217.66 225.647 217.517 225.699C217.373 225.748 217.221 225.769 217.069 225.761C216.918 225.753 216.77 225.713 216.634 225.645C216.497 225.577 216.376 225.48 216.28 225.362C216.13 225.189 216.036 224.976 216.01 224.749C215.983 224.522 216.026 224.293 216.132 224.091C216.202 223.957 216.299 223.839 216.416 223.742C228.621 213.185 250.985 196.071 261.547 189.189C267.19 185.502 273.014 181.963 278.861 178.649L281.89 176.947C289.494 172.693 297.357 168.284 303.351 161.977C307.371 157.752 310.547 152.659 313.621 147.736C316.368 143.329 319.212 138.775 322.684 134.76C330.41 125.833 343.538 119.844 353.682 125.669C356.984 127.563 359.879 130.745 362.059 134.865C368.019 146.137 366.56 160.92 358.511 170.811C350.461 180.702 336.277 185.145 324.015 181.618C323.183 181.379 322.349 181.104 321.546 180.838C319.147 180.047 316.885 179.301 314.557 179.386C311.631 179.494 308.906 180.903 305.9 182.596C277.36 198.663 252.983 215.774 231.374 234.941C231.167 235.13 230.897 235.236 230.617 235.238Z" fill="#162B43"/>
<path d="M329.062 150.096C326.275 153.839 325.869 160.231 329.346 163.33C332.823 166.43 338.574 165.928 342.244 163.047C343.758 161.898 344.934 160.363 345.65 158.603C347.205 154.548 345.261 149.475 341.392 147.493C337.523 145.51 332.806 145.054 329.062 150.096Z" fill="#DBF122"/>
<path d="M233.359 222.276C233.125 222.277 232.895 222.204 232.704 222.069C232.512 221.933 232.367 221.741 232.289 221.519C232.211 221.297 232.204 221.057 232.268 220.831C232.333 220.605 232.466 220.404 232.65 220.257C263.921 195.274 292.6 177.103 328.549 159.493C328.683 159.423 328.83 159.38 328.981 159.367C329.132 159.355 329.285 159.372 329.429 159.419C329.574 159.466 329.708 159.541 329.823 159.641C329.94 159.74 330.037 159.861 330.107 159.998C330.173 160.135 330.212 160.283 330.221 160.435C330.229 160.586 330.207 160.737 330.155 160.88C330.105 161.023 330.026 161.154 329.923 161.265C329.82 161.377 329.695 161.467 329.557 161.529C293.755 179.062 265.201 197.154 234.069 222.038C233.868 222.2 233.617 222.287 233.359 222.285V222.276Z" fill="#162B43"/>
<path d="M243.949 217.246C243.76 217.247 243.575 217.2 243.41 217.11C243.244 217.02 243.104 216.892 243.001 216.735L240.109 212.354C239.949 212.103 239.895 211.8 239.957 211.509C240.019 211.219 240.193 210.964 240.441 210.8C240.689 210.636 240.993 210.576 241.285 210.633C241.578 210.69 241.836 210.86 242.005 211.106L244.897 215.488C245.01 215.659 245.074 215.857 245.083 216.061C245.092 216.266 245.045 216.469 244.948 216.649C244.851 216.83 244.707 216.98 244.531 217.085C244.355 217.19 244.154 217.246 243.949 217.246Z" fill="#162B43"/>
<path d="M256.595 207.661C256.407 207.661 256.222 207.614 256.056 207.525C255.891 207.436 255.75 207.307 255.647 207.151L253.333 203.643C253.209 203.455 253.144 203.235 253.146 203.011C253.147 202.786 253.215 202.567 253.341 202.381C253.467 202.196 253.646 202.051 253.854 201.967C254.062 201.883 254.291 201.862 254.511 201.907C254.806 201.97 255.065 202.145 255.232 202.395L257.543 205.903C257.655 206.074 257.72 206.272 257.729 206.477C257.738 206.681 257.691 206.884 257.594 207.065C257.497 207.245 257.353 207.396 257.177 207.501C257.001 207.606 256.8 207.661 256.595 207.661Z" fill="#162B43"/>
<path d="M271.396 197.917C271.23 197.917 271.065 197.88 270.914 197.81C270.762 197.74 270.628 197.636 270.522 197.506L267.482 193.851C267.348 193.677 267.266 193.469 267.248 193.25C267.23 193.031 267.275 192.812 267.379 192.619C267.483 192.426 267.641 192.267 267.834 192.161C268.026 192.056 268.245 192.008 268.464 192.025C268.758 192.047 269.032 192.182 269.228 192.402L272.271 196.057C272.405 196.22 272.492 196.416 272.523 196.624C272.552 196.838 272.518 197.056 272.424 197.251C272.332 197.446 272.187 197.611 272.005 197.726C271.823 197.842 271.612 197.903 271.396 197.903V197.917Z" fill="#162B43"/>
<path d="M288.952 185.658C288.764 185.659 288.578 185.612 288.413 185.522C288.248 185.433 288.107 185.304 288.004 185.148L285.685 181.643C285.603 181.519 285.546 181.38 285.518 181.234C285.482 181.051 285.493 180.862 285.548 180.684C285.603 180.505 285.701 180.344 285.834 180.212C285.967 180.081 286.13 179.984 286.309 179.931C286.488 179.878 286.677 179.87 286.86 179.907C287.007 179.937 287.145 179.995 287.269 180.078C287.393 180.161 287.499 180.268 287.581 180.392L289.898 183.897C290.01 184.066 290.074 184.262 290.085 184.464C290.094 184.668 290.048 184.871 289.951 185.051C289.854 185.232 289.71 185.383 289.534 185.488C289.359 185.596 289.158 185.655 288.952 185.658Z" fill="#162B43"/>
<path d="M308.097 175.036C307.835 175.036 307.581 174.945 307.378 174.779C307.175 174.613 307.036 174.382 306.984 174.126L305.866 168.582C305.836 168.434 305.836 168.282 305.866 168.134C305.893 167.985 305.949 167.842 306.031 167.715C306.113 167.588 306.22 167.479 306.346 167.394C306.469 167.309 306.608 167.25 306.754 167.22C306.9 167.191 307.051 167.191 307.197 167.221C307.346 167.25 307.487 167.308 307.612 167.394C307.737 167.479 307.845 167.589 307.927 167.717C308.008 167.844 308.064 167.985 308.091 168.134L309.21 173.678C309.269 173.972 309.209 174.279 309.042 174.529C308.876 174.78 308.616 174.954 308.321 175.013C308.247 175.028 308.172 175.035 308.097 175.036Z" fill="#162B43"/>
<path d="M119.124 186.376C118.911 186.376 118.702 186.317 118.522 186.205C118.341 186.092 118.196 185.932 118.102 185.741C118.01 185.549 117.973 185.337 117.994 185.125C118.016 184.913 118.098 184.712 118.23 184.544C123.225 178.158 127.954 171.446 132.286 164.592C132.362 164.461 132.465 164.348 132.586 164.257C132.709 164.167 132.848 164.101 132.995 164.064C133.143 164.028 133.296 164.022 133.446 164.047C133.596 164.073 133.74 164.126 133.869 164.206C133.999 164.288 134.11 164.395 134.196 164.521C134.283 164.645 134.344 164.786 134.375 164.935C134.404 165.084 134.404 165.237 134.375 165.386C134.346 165.535 134.287 165.677 134.202 165.803C129.813 172.748 125.076 179.468 120.009 185.936C119.904 186.073 119.769 186.183 119.615 186.26C119.461 186.336 119.292 186.376 119.121 186.376H119.124Z" fill="white"/>
<path d="M142.166 184.144C142.019 184.144 141.874 184.116 141.737 184.062C133.067 180.541 125.132 175.43 118.343 168.993C118.235 168.891 118.147 168.768 118.085 168.633C118.024 168.497 117.992 168.35 117.988 168.202C117.982 168.053 118.008 167.904 118.062 167.765C118.142 167.555 118.283 167.374 118.466 167.244C118.65 167.115 118.868 167.042 119.092 167.036C119.241 167.031 119.39 167.056 119.529 167.11C119.668 167.163 119.796 167.243 119.904 167.345C126.488 173.59 134.184 178.547 142.594 181.961C142.837 182.061 143.038 182.242 143.162 182.474C143.255 182.647 143.301 182.84 143.297 183.036C143.292 183.231 143.237 183.423 143.137 183.591C143.037 183.759 142.894 183.898 142.724 183.995C142.554 184.092 142.362 184.144 142.166 184.144Z" fill="white"/>
<path d="M212.118 182.054C211.879 182.055 211.645 181.979 211.45 181.838C211.256 181.698 211.111 181.499 211.037 181.271C210.963 181.044 210.963 180.799 211.037 180.571C211.111 180.343 211.255 180.145 211.449 180.004C218.051 175.199 223.925 169.469 228.891 162.989C228.98 162.867 229.091 162.763 229.22 162.683C229.35 162.605 229.495 162.552 229.645 162.53C229.796 162.508 229.95 162.515 230.097 162.553C230.244 162.593 230.381 162.66 230.503 162.751C230.619 162.845 230.716 162.961 230.787 163.092C230.863 163.223 230.912 163.369 230.929 163.52C230.946 163.67 230.934 163.822 230.892 163.968C230.85 164.114 230.779 164.25 230.682 164.368C225.585 171.025 219.553 176.913 212.774 181.85C212.58 181.991 212.347 182.068 212.107 182.068L212.118 182.054Z" fill="white"/>
<path d="M230.617 184.127C230.351 184.128 230.094 184.036 229.89 183.866C223.268 178.356 218.044 171.36 214.645 163.449C214.585 163.312 214.554 163.165 214.554 163.015C214.552 162.867 214.579 162.719 214.633 162.581C214.689 162.443 214.772 162.317 214.876 162.21C214.981 162.104 215.106 162.019 215.244 161.96C215.38 161.904 215.527 161.873 215.675 161.87C215.825 161.868 215.973 161.896 216.112 161.952C216.251 162.007 216.377 162.089 216.483 162.194C216.59 162.298 216.675 162.422 216.734 162.559C219.989 170.141 224.994 176.846 231.34 182.125C231.517 182.273 231.645 182.471 231.706 182.692C231.75 182.859 231.754 183.034 231.72 183.203C231.685 183.371 231.613 183.53 231.508 183.667C231.403 183.804 231.268 183.915 231.113 183.991C230.959 184.068 230.789 184.109 230.617 184.11V184.127Z" fill="white"/>
<path d="M96.4788 147.722C96.3717 147.722 96.2646 147.716 96.1581 147.705C94.1712 147.498 92.9847 145.411 93.1465 143.59C93.2884 142.011 94.174 140.715 95.1107 139.552C97.4622 136.648 100.237 134.113 103.342 132.032C109.32 127.997 116.019 125.649 121.715 125.589C123.952 125.566 128.113 125.524 129.328 128.864C130.338 131.643 128.738 134.87 126.674 136.271C124.403 137.803 121.747 138.117 119.172 138.424C118.471 138.506 117.753 138.591 117.063 138.707C110.452 139.754 104.486 143.46 99.2208 146.729C98.5566 147.126 97.6 147.722 96.4788 147.722ZM122.181 127.855H121.73C116.464 127.909 110.22 130.123 104.6 133.909C101.685 135.872 99.0822 138.262 96.8791 140.998C96.1666 141.883 95.4967 142.836 95.4087 143.814C95.3406 144.591 95.826 145.411 96.3937 145.47C96.8393 145.516 97.4127 145.187 98.0116 144.818C103.189 141.602 109.632 137.601 116.697 136.481C117.426 136.368 118.173 136.277 118.891 136.198C121.304 135.914 123.583 135.645 125.388 134.422C126.725 133.515 127.792 131.34 127.182 129.667C126.614 128.068 124.364 127.863 122.181 127.863V127.855Z" fill="white"/>
<path d="M245.007 140.99C244.436 140.99 243.867 140.908 243.319 140.749C241.732 140.301 240.398 139.419 239.106 138.565C238.84 138.39 238.573 138.214 238.303 138.041C233.868 135.205 228.773 133.564 223.515 133.28C220.901 133.144 215.454 132.854 214.636 128.725C214.131 126.173 216.055 123.876 218.116 123.017C220.129 122.181 222.292 122.337 224.327 122.629C227.666 123.109 230.946 123.935 234.114 125.096C238.945 126.863 243.547 129.205 247.818 132.072C250.27 133.748 250.528 136.297 249.694 138.078C249.269 138.957 248.603 139.697 247.773 140.212C246.944 140.727 245.984 140.996 245.007 140.987V140.99ZM221.565 124.668C220.686 124.645 219.81 124.798 218.99 125.116C217.767 125.623 216.606 126.981 216.864 128.289C217.282 130.393 220.367 130.841 223.637 131.02C229.288 131.32 234.764 133.079 239.532 136.124C239.816 136.303 240.1 136.487 240.367 136.668C241.564 137.462 242.694 138.208 243.94 138.56C245.777 139.079 247.148 138.174 247.63 137.116C248.167 135.982 247.755 134.78 246.526 133.94C242.406 131.186 237.972 128.932 233.319 127.225C230.3 126.12 227.174 125.331 223.992 124.872C223.187 124.746 222.374 124.677 221.559 124.665L221.565 124.668Z" fill="white"/>
<path d="M9.81537 86.144C4.54157 91.1348 -0.70669 97.5209 0.0795553 104.738C0.982176 113.024 9.91188 118.514 18.2455 118.633C26.5791 118.752 34.4246 114.964 41.9549 111.379C60.0443 102.77 80.2737 94.7306 99.6262 99.9114C112.232 103.283 122.867 111.949 135.39 115.644C146.832 118.974 159.101 117.977 169.855 112.845C179.82 108.024 188.1 99.8008 198.693 96.6305C211.883 92.6605 225.897 97.1976 239.43 99.7498C253.589 102.408 268.075 102.86 282.373 101.088C290.999 100.016 299.795 98.02 306.849 92.944C313.902 87.8681 318.852 79.1142 317.291 70.5701C316.346 65.3977 313.195 60.8889 309.65 57.004C291.164 36.7313 260.656 30.2148 233.864 36.1869C218.491 39.6153 204.097 46.6507 188.696 49.943C174.439 52.9231 159.792 53.5705 145.328 51.86C140.383 51.2531 135.592 49.5687 130.65 48.8087C124.715 47.8977 118.726 47.3692 112.723 47.2264C88.4722 46.6979 64.4632 52.1296 42.8065 63.0441C32.0209 68.4664 21.9831 75.2606 12.9433 83.2572C11.8836 84.2081 10.841 85.1704 9.81537 86.144Z" fill="#DBF122"/>
<path d="M21.0186 112.04C17.1072 112.04 13.6046 110.664 11.3282 108.155C7.30895 103.728 8.0441 97.0218 10.4284 92.6604C10.5814 92.4139 10.8231 92.2353 11.1039 92.1613C11.3125 92.1077 11.532 92.1144 11.7368 92.1807C11.9417 92.2469 12.1235 92.37 12.261 92.5356C12.3984 92.7012 12.4859 92.9024 12.5133 93.1158C12.5406 93.3292 12.5066 93.546 12.4153 93.7408C10.4057 97.4273 9.73013 103.019 13.0057 106.624C15.6766 109.567 20.1018 110.08 23.3376 109.581C27.2489 108.974 30.885 107.072 34.4074 105.231C34.6743 105.091 34.9859 105.063 35.2736 105.153C35.5613 105.242 35.8016 105.442 35.9416 105.709C36.0816 105.976 36.1099 106.287 36.0202 106.574C35.9305 106.862 35.7302 107.102 35.4633 107.242C31.955 109.079 27.9784 111.158 23.6924 111.821C22.8077 111.959 21.9139 112.029 21.0186 112.031V112.04Z" fill="#162B43"/>
<path d="M42.5766 103.966C42.3299 103.967 42.0898 103.887 41.8925 103.74C41.6946 103.594 41.5508 103.386 41.4838 103.15C41.4143 102.914 41.4233 102.662 41.5093 102.432C41.5951 102.198 41.7557 101.999 41.9663 101.865C47.1921 98.5583 52.7391 95.7879 58.5229 93.5962C58.7318 93.522 58.9578 93.5106 59.1731 93.5634C59.3884 93.6161 59.5836 93.7306 59.7345 93.8929C59.8854 94.0551 59.9855 94.2579 60.0224 94.4763C60.0592 94.6947 60.0313 94.9191 59.9421 95.1218C59.8239 95.392 59.605 95.6056 59.3318 95.7173C53.6922 97.8583 48.2832 100.562 43.1868 103.788C43.0063 103.903 42.7965 103.964 42.5822 103.964L42.5766 103.966Z" fill="#162B43"/>
<path d="M70.8186 93.5796C70.5499 93.5784 70.2903 93.4819 70.086 93.3075C69.8818 93.133 69.7461 92.8918 69.7031 92.6268C69.6602 92.3622 69.7125 92.0909 69.8507 91.8612C69.9894 91.6305 70.2057 91.4566 70.4609 91.3706L74.9343 89.8761C75.1475 89.8051 75.377 89.7989 75.5938 89.8582C75.8105 89.9176 76.0048 90.0399 76.1519 90.2097C76.299 90.3794 76.3924 90.589 76.4202 90.8118C76.448 91.0346 76.409 91.2607 76.3081 91.4613C76.1733 91.7296 75.9375 91.9335 75.6524 92.0285L71.1933 93.5144C71.0734 93.5589 70.9464 93.581 70.8186 93.5796Z" fill="#162B43"/>
<path d="M293.687 90.494C293.508 90.4943 293.332 90.4525 293.172 90.372C293.013 90.2914 292.875 90.1744 292.769 90.0304C292.663 89.8865 292.593 89.7196 292.564 89.5434C292.535 89.3673 292.548 89.1868 292.602 89.0166C292.675 88.7887 292.818 88.59 293.011 88.4494C295.899 86.3117 298.17 83.4512 299.598 80.1563C301.026 76.8614 301.558 73.2487 301.142 69.6825C300.726 66.1163 299.376 62.7228 297.229 59.8442C295.081 56.9655 292.212 54.7035 288.91 53.2864C288.642 53.1622 288.433 52.9387 288.327 52.6631C288.221 52.3876 288.227 52.0817 288.344 51.8105C288.46 51.5393 288.678 51.3241 288.95 51.2105C289.223 51.0969 289.529 51.0939 289.804 51.2021C293.475 52.7756 296.666 55.289 299.055 58.4885C301.443 61.688 302.944 65.4604 303.407 69.4249C303.869 73.3893 303.276 77.4055 301.688 81.0679C300.1 84.7304 297.573 87.9094 294.362 90.2842C294.166 90.4252 293.929 90.4997 293.687 90.4968V90.494Z" fill="#162B43"/>
<path d="M290.814 73.528H290.672C290.523 73.5107 290.379 73.4634 290.249 73.389C290.12 73.3181 290.006 73.2217 289.914 73.1055C289.823 72.9871 289.756 72.8523 289.716 72.7085C289.675 72.5646 289.665 72.4141 289.684 72.2661C289.882 70.5776 289.738 68.8667 289.261 67.2348C288.784 65.603 287.984 64.0834 286.908 62.7664C286.716 62.5355 286.623 62.2377 286.65 61.9384C286.67 61.7143 286.756 61.5011 286.898 61.3261C287.039 61.1511 287.23 61.0222 287.445 60.9556C287.66 60.889 287.89 60.8878 288.106 60.9523C288.322 61.0167 288.514 61.1438 288.657 61.3173C289.929 62.8746 290.875 64.6713 291.439 66.6008C292.002 68.5303 292.172 70.5533 291.938 72.5497C291.901 72.8238 291.766 73.075 291.557 73.2562C291.348 73.4374 291.08 73.5361 290.803 73.5337L290.814 73.528Z" fill="#162B43"/>
<path d="M123.341 297.142C123.192 297.149 123.043 297.127 122.903 297.076C122.763 297.025 122.634 296.948 122.523 296.847C122.3 296.644 122.167 296.361 122.154 296.06C122.14 295.76 122.246 295.466 122.449 295.243C122.652 295.02 122.935 294.888 123.236 294.874C157.494 291.636 191.938 290.815 226.311 292.418C237.409 292.937 249.989 293.524 259.064 286.264C259.179 286.165 259.313 286.091 259.458 286.046C259.603 286 259.756 285.984 259.907 285.998C260.058 286.012 260.205 286.056 260.338 286.128C260.472 286.2 260.59 286.296 260.687 286.412C260.782 286.531 260.851 286.668 260.892 286.814C260.934 286.961 260.946 287.114 260.926 287.265C260.908 287.416 260.859 287.561 260.781 287.691C260.71 287.821 260.614 287.936 260.497 288.028C250.753 295.826 237.719 295.217 226.218 294.678C191.952 293.085 157.616 293.906 123.466 297.137L123.341 297.142Z" fill="#162B43"/>
<path d="M272.546 268.828H272.401C272.103 268.79 271.832 268.635 271.648 268.397C271.464 268.159 271.381 267.858 271.419 267.56C272.813 256.6 274.241 247.319 275.501 239.129C277.42 226.652 278.938 216.778 279.565 206.464C279.574 206.315 279.612 206.169 279.678 206.035C279.743 205.901 279.834 205.781 279.946 205.682C280.058 205.583 280.188 205.507 280.329 205.458C280.47 205.409 280.62 205.389 280.769 205.398C280.918 205.407 281.064 205.446 281.198 205.512C281.332 205.577 281.452 205.667 281.552 205.778C281.649 205.891 281.724 206.021 281.774 206.161C281.824 206.302 281.845 206.451 281.836 206.6C281.203 217.022 279.679 226.93 277.752 239.475C276.494 247.651 275.069 256.915 273.676 267.832C273.642 268.109 273.507 268.363 273.298 268.546C273.088 268.73 272.819 268.83 272.54 268.828H272.546Z" fill="#162B43"/>
<path d="M266.267 282.155C266.068 282.156 265.872 282.104 265.7 282.005C265.57 281.931 265.457 281.832 265.365 281.713C265.274 281.595 265.208 281.46 265.169 281.316C265.13 281.172 265.12 281.022 265.14 280.874C265.159 280.726 265.208 280.583 265.282 280.454L268.257 275.259C268.329 275.131 268.426 275.018 268.541 274.927C268.658 274.835 268.794 274.769 268.938 274.732C269.082 274.692 269.233 274.681 269.381 274.7C269.529 274.72 269.671 274.769 269.801 274.842C269.928 274.916 270.041 275.012 270.133 275.126C270.224 275.244 270.29 275.379 270.329 275.523C270.369 275.667 270.38 275.817 270.36 275.965C270.341 276.113 270.292 276.255 270.218 276.385L267.255 281.588C267.154 281.761 267.011 281.905 266.838 282.005C266.664 282.105 266.467 282.157 266.267 282.155Z" fill="#162B43"/>
<path d="M288.567 128.459C288.515 128.462 288.463 128.462 288.411 128.459C288.113 128.418 287.843 128.261 287.661 128.022C287.479 127.782 287.4 127.481 287.44 127.183C288.264 121.104 288.51 114.961 288.175 108.836C288.157 108.536 288.259 108.241 288.459 108.016C288.559 107.905 288.679 107.814 288.814 107.749C288.949 107.684 289.096 107.647 289.245 107.639C289.394 107.631 289.544 107.652 289.685 107.701C289.826 107.75 289.956 107.827 290.067 107.927C290.178 108.026 290.269 108.147 290.333 108.281C290.398 108.416 290.435 108.562 290.443 108.711C290.786 114.979 290.534 121.266 289.691 127.486C289.652 127.758 289.515 128.007 289.306 128.186C289.097 128.365 288.831 128.462 288.555 128.459H288.567Z" fill="#162B43"/>
<path d="M74.0405 353.364C73.4818 353.364 72.9236 353.332 72.3687 353.267C67.6456 352.72 63.4532 349.865 61.4294 345.792C59.3204 341.556 59.8796 336.151 62.7947 332.643C62.9904 332.423 63.2642 332.287 63.5582 332.265C63.8522 332.243 64.1433 332.336 64.37 332.524C64.5965 332.712 64.7409 332.981 64.7727 333.274C64.8044 333.566 64.7211 333.86 64.5403 334.092C62.1844 336.928 61.7416 341.323 63.4617 344.783C65.1222 348.115 68.7213 350.562 72.6298 351.021C76.3822 351.458 80.4327 350.134 83.4698 347.483C83.6987 347.31 83.9846 347.23 84.27 347.259C84.5555 347.288 84.8194 347.424 85.0085 347.639C85.1977 347.855 85.2981 348.134 85.2897 348.421C85.2812 348.707 85.1644 348.98 84.9628 349.184C81.9382 351.835 78.064 353.318 74.0405 353.364Z" fill="#007EEF"/>
<path d="M89.411 340.625C89.1139 340.626 88.8286 340.509 88.6162 340.302C88.4043 340.095 88.2821 339.813 88.2756 339.517C88.2287 337.776 87.5368 336.115 86.3341 334.855C86.1317 334.637 86.0227 334.349 86.0307 334.052C86.0386 333.755 86.1629 333.473 86.3767 333.267C86.589 333.058 86.875 332.941 87.1729 332.941C87.4707 332.941 87.7567 333.058 87.969 333.267C89.5682 334.942 90.4868 337.151 90.5463 339.465C90.5526 339.766 90.4393 340.057 90.2313 340.274C90.0242 340.491 89.7395 340.617 89.4394 340.625H89.411Z" fill="#007EEF"/>
<path d="M68.5823 330.59C68.3526 330.587 68.1292 330.514 67.9408 330.383C67.7539 330.251 67.6114 330.065 67.5321 329.85C67.4534 329.634 67.4406 329.4 67.4952 329.178C67.5529 328.958 67.6756 328.76 67.8472 328.611C68.875 327.742 70.0863 327.116 71.3904 326.781C72.6946 326.446 74.0576 326.411 75.3775 326.677C75.6726 326.737 75.9316 326.912 76.0974 327.164C76.2632 327.415 76.3223 327.722 76.2617 328.017C76.2011 328.311 76.0258 328.57 75.7742 328.736C75.5227 328.901 75.2156 328.96 74.9205 328.9C73.9388 328.707 72.9264 328.736 71.9574 328.985C70.9884 329.234 70.0874 329.696 69.3203 330.338C69.1112 330.505 68.8502 330.594 68.5823 330.59Z" fill="#007EEF"/>
<path d="M175.262 39.4508C197.686 40.8687 219.808 52.6313 231.429 71.8604C206.167 82.588 178.941 87.6951 151.953 92.7314C142.18 94.5548 130.699 95.9046 123.569 88.9826C119.251 84.7885 117.858 78.703 116.898 72.9805C116.373 69.8612 115.916 66.7419 115.221 63.6481C114.75 61.5384 114.548 59.4966 115.933 57.6931C117.608 55.5124 120.583 54.1172 122.902 52.7646C125.929 50.9951 129.038 49.3797 132.229 47.9183C138.533 45.0221 145.129 42.8062 151.905 41.3082C159.567 39.6116 167.428 38.9865 175.262 39.4508Z" fill="#DBF122"/>
<path d="M178.361 48.8288C178.217 48.8287 178.075 48.8007 177.941 48.7466C177.802 48.6928 177.675 48.6107 177.57 48.5055C177.462 48.4014 177.376 48.2771 177.317 48.1397C177.26 48.003 177.229 47.8568 177.226 47.7087C177.223 47.559 177.251 47.4104 177.308 47.272C179.434 41.9635 182.264 35.0557 185.001 28.3718C187.737 21.688 190.57 14.7802 192.693 9.47735C193.118 8.41111 193.544 7.10101 193.011 6.40342C192.696 5.98373 191.994 5.75403 191.364 5.56971C185.257 3.79841 178.825 3.44535 172.56 4.5375C170.811 4.8466 168.87 5.34002 167.825 6.67565C167.209 7.45264 166.9 8.52454 166.616 9.64182C163.624 21.1088 162.749 33.0244 164.033 44.8049C164.051 44.956 164.039 45.1092 163.996 45.2553C163.954 45.4015 163.882 45.5376 163.786 45.6556C163.692 45.7724 163.575 45.8689 163.443 45.9392C163.313 46.0126 163.168 46.058 163.02 46.0725C162.793 46.0998 162.564 46.0585 162.361 45.9538C162.159 45.8491 161.993 45.6859 161.884 45.4855C161.81 45.3547 161.765 45.2097 161.751 45.0601C160.435 33.0044 161.329 20.8099 164.391 9.07468C164.745 7.70785 165.14 6.38924 166.028 5.26345C167.57 3.31814 170.11 2.65741 172.151 2.29728C178.761 1.15111 185.545 1.52938 191.986 3.40321C192.968 3.68678 194.075 4.07528 194.824 5.04794C196.19 6.8543 195.216 9.30153 194.802 10.3309C192.676 15.6422 189.843 22.5586 187.101 29.2424C184.359 35.9262 181.538 42.8256 179.417 48.1255C179.333 48.3366 179.188 48.5175 178.999 48.6449C178.811 48.7724 178.589 48.8404 178.361 48.8401V48.8288Z" fill="#162B43"/>
<path d="M168.754 24.9832C168.467 24.9841 168.191 24.8767 167.98 24.6827C167.77 24.4886 167.64 24.2222 167.618 23.9368C167.508 22.4679 168.314 12.9739 170.902 9.33566C170.989 9.21508 171.098 9.1121 171.223 9.03223C171.35 8.95357 171.49 8.90058 171.637 8.87627C171.784 8.84788 171.934 8.84788 172.08 8.87627C172.226 8.90959 172.364 8.97133 172.485 9.05795C172.607 9.14457 172.711 9.25437 172.79 9.38103C172.869 9.50746 172.922 9.64814 172.946 9.79504C172.972 9.94253 172.969 10.0938 172.936 10.2399C172.903 10.3861 172.84 10.5241 172.753 10.6458C170.661 13.5807 169.775 22.346 169.883 23.7582C169.906 24.0578 169.809 24.3542 169.613 24.5823C169.417 24.8104 169.139 24.9515 168.839 24.9747L168.754 24.9832Z" fill="#162B43"/>
<path d="M174.084 36.6691H174.039C173.739 36.6574 173.457 36.5279 173.253 36.3089C173.049 36.0901 172.939 35.7996 172.949 35.5008C173.428 22.55 175.787 9.22486 179.105 0.723336C179.187 0.513805 179.329 0.333201 179.513 0.204453C179.698 0.0757056 179.916 0.00462108 180.141 0.000224311C180.291 -0.00271656 180.439 0.0232847 180.579 0.0767891C180.717 0.131104 180.843 0.212036 180.95 0.314991C181.059 0.418 181.145 0.541351 181.206 0.677964C181.327 0.953138 181.334 1.26526 181.226 1.5457C178.001 9.82604 175.699 22.8704 175.217 35.5745C175.207 35.8685 175.082 36.1472 174.87 36.3515C174.659 36.5548 174.377 36.6686 174.084 36.6691Z" fill="#162B43"/>
<path d="M180.161 30.924C179.99 30.9247 179.821 30.8869 179.667 30.8134C179.513 30.7391 179.377 30.6316 179.27 30.4986C179.166 30.3635 179.091 30.2079 179.051 30.0421C179.013 29.875 179.013 29.7015 179.051 29.5345C180.817 21.8784 183.225 14.3845 186.25 7.13219C186.366 6.85556 186.587 6.63632 186.865 6.52251C187.145 6.40916 187.457 6.40916 187.737 6.52251C187.875 6.57963 188 6.66332 188.105 6.76878C188.21 6.87424 188.294 6.99941 188.351 7.13714C188.408 7.27487 188.437 7.42246 188.437 7.57147C188.437 7.72048 188.407 7.868 188.35 8.00559C185.368 15.1383 182.994 22.51 181.254 30.0421C181.197 30.2912 181.058 30.514 180.859 30.6744C180.661 30.8344 180.416 30.9233 180.161 30.9268V30.924Z" fill="#162B43"/>
<path d="M216.623 56.7689C216.389 56.7714 216.16 56.6988 215.971 56.5619C210.881 52.9747 209.417 52.0729 203.924 49.1351C203.753 49.0167 203.617 48.8535 203.533 48.6633C203.448 48.4732 203.417 48.2634 203.444 48.0569C203.471 47.8505 203.554 47.6554 203.684 47.4929C203.814 47.3305 203.987 47.207 204.183 47.1359C204.446 47.0405 204.735 47.0456 204.994 47.1501C210.538 50.1106 212.144 51.1031 217.279 54.7243C217.475 54.8636 217.622 55.0615 217.698 55.2895C217.774 55.5174 217.776 55.7637 217.703 55.9927C217.63 56.2217 217.486 56.4217 217.292 56.5638C217.098 56.7058 216.864 56.7826 216.623 56.7831V56.7689Z" fill="#162B43"/>
<path d="M226.459 64.3714C226.198 64.3717 225.946 64.2826 225.743 64.119L221.98 61.0706C221.851 60.9832 221.742 60.869 221.662 60.736C221.58 60.6036 221.526 60.4557 221.503 60.3015C221.481 60.1473 221.49 59.9902 221.531 59.8399C221.573 59.6903 221.645 59.5506 221.741 59.4287C221.839 59.3074 221.961 59.2075 222.099 59.1353C222.237 59.0631 222.389 59.0201 222.544 59.009C222.699 58.9975 222.855 59.0177 223.001 59.0686C223.149 59.1205 223.284 59.2015 223.399 59.3068L227.163 62.3552C227.344 62.5011 227.475 62.6991 227.54 62.9223C227.605 63.1478 227.597 63.3879 227.517 63.6086C227.438 63.8289 227.294 64.0198 227.103 64.1559C226.911 64.2909 226.682 64.3633 226.447 64.3629L226.459 64.3714Z" fill="#162B43"/>
<path d="M174.416 353.704C174.176 353.704 173.943 353.629 173.749 353.488C173.555 353.348 173.411 353.15 173.337 352.923C173.262 352.696 173.261 352.451 173.334 352.224C173.408 351.996 173.551 351.798 173.743 351.656C176.326 349.759 177.118 347.576 177.325 346.079C177.407 345.495 177.414 344.903 177.345 344.318C175.455 345.168 173.212 345.407 170.72 344.964C165.668 344.065 163.743 341.717 163.624 339.823C163.539 338.425 164.405 337.237 165.83 336.797C168.603 335.947 174.935 337.384 178.242 340.986C180.189 339.077 181.055 335.844 180.621 332.087C180.575 331.679 180.519 331.285 180.453 330.899C179.436 331.186 178.388 331.348 177.331 331.381C169.627 331.696 163.871 328.403 162.168 324.992C161.422 323.495 161.495 322.023 162.375 320.951C163.411 319.686 165.912 318.518 171.927 320.143C178.015 321.788 180.675 324.564 181.907 327.686C182.857 326.931 183.536 325.888 183.842 324.714C185.974 317.375 178.239 302.91 175.577 301.067C175.331 300.895 175.162 300.633 175.109 300.338C175.056 300.043 175.122 299.738 175.293 299.492C175.463 299.245 175.725 299.076 176.02 299.021C176.316 298.967 176.621 299.031 176.868 299.201C180.087 301.427 188.548 316.649 186.022 325.347C185.505 327.272 184.272 328.928 182.574 329.974C182.698 330.587 182.792 331.208 182.857 331.826C183.383 336.363 182.224 340.333 179.681 342.73L179.372 343.013C179.656 344.119 179.718 345.27 179.553 346.399C179.27 348.327 178.285 351.126 175.063 353.488C174.871 353.628 174.639 353.703 174.402 353.704H174.416ZM167.712 338.822C167.304 338.812 166.896 338.86 166.502 338.967C166.331 338.994 166.175 339.081 166.062 339.213C165.95 339.344 165.89 339.512 165.892 339.684C165.946 340.535 167.382 342.066 171.118 342.73C173.105 343.084 174.876 342.925 176.34 342.276C174.024 339.959 170.048 338.822 167.712 338.822ZM166.846 321.626C165.373 321.626 164.498 321.961 164.149 322.389C163.8 322.817 163.979 323.503 164.217 323.98C165.242 326.033 169.392 329.132 176.298 329.132C176.61 329.132 176.931 329.132 177.257 329.112C178.148 329.087 179.032 328.951 179.888 328.707C178.83 325.806 176.55 323.736 171.35 322.332C169.886 321.904 168.372 321.666 166.846 321.626Z" fill="#162B43"/>
<path d="M168.572 33.2608C168.293 33.2628 168.024 33.1626 167.814 32.9791C167.605 32.7956 167.47 32.5416 167.436 32.2654C167.286 31.0332 167.362 29.7839 167.661 28.579C167.695 28.4344 167.759 28.2984 167.848 28.1791C167.936 28.0584 168.047 27.9563 168.174 27.8785C168.302 27.8019 168.444 27.7509 168.592 27.7282C168.739 27.7074 168.89 27.7151 169.034 27.7509C169.18 27.7859 169.317 27.8493 169.438 27.9374C169.558 28.0255 169.661 28.1365 169.738 28.2642C169.892 28.5196 169.939 28.8252 169.869 29.1149C169.634 30.0536 169.576 31.0275 169.696 31.9875C169.713 32.1477 169.698 32.3099 169.65 32.4639C169.602 32.6176 169.522 32.7593 169.415 32.8796C169.307 32.9999 169.176 33.096 169.029 33.1615C168.881 33.2257 168.721 33.2585 168.56 33.2579L168.572 33.2608Z" fill="#162B43"/>
<path d="M111.852 71.4892C113.68 75.1075 121.122 72.7114 126.419 67.9218C131.559 63.2769 124.182 62.9876 139.035 52.3253C152.58 42.6044 133.989 49.8071 127.213 55.0249C127.069 55.1355 109.405 66.6401 111.852 71.4892Z" fill="white"/>
</g>
<defs>
<clipPath id="clip0_409_1345">
<rect width="384" height="396.387" fill="white"/>
</clipPath>
</defs>
</svg>
