<svg width="280" height="280" viewBox="0 0 280 280" fill="none" xmlns="http://www.w3.org/2000/svg">
<g clip-path="url(#clip0_222_5700)">
<path d="M221.324 59.0708C229.685 61.8801 234.632 65.2767 234.521 68.8148C234.413 72.4994 230.319 89.6239 228.766 92.9635C227.263 96.1552 221.31 96.9636 212.577 95.7062C216.433 103.63 217.476 109.533 214.879 111.933C212.282 114.332 197.935 123.146 194.589 124.384C191.243 125.622 186.461 122.025 181.117 115.01C178.303 123.359 174.902 128.301 171.366 128.197C167.676 128.084 150.512 123.995 147.174 122.43C143.976 120.93 143.165 114.986 144.427 106.267C136.498 110.117 130.579 111.155 128.178 108.562C125.776 105.969 116.946 91.6443 115.708 88.3046C114.47 84.9649 118.077 80.1889 125.095 74.8614C116.734 72.0455 111.791 68.6489 111.899 65.1173C112.006 61.4295 116.097 44.2953 117.653 40.9621C119.157 37.7705 125.11 36.962 133.839 38.2211C129.986 30.3022 128.952 24.3939 131.544 21.9962C134.136 19.5984 148.492 10.7799 151.842 9.54523C155.192 8.31054 159.967 11.9105 165.301 18.9184C168.124 10.5701 171.526 5.63459 175.061 5.74195C178.751 5.85419 195.905 9.93727 199.25 11.4892C202.448 12.989 203.26 18.9347 201.997 27.6539C209.93 23.8034 215.845 22.7737 218.25 25.357C220.655 27.9402 229.478 42.2749 230.72 45.6178C231.961 48.9607 228.346 53.7368 221.324 59.0708Z" fill="#F9F8FD"/>
<path d="M171.475 130.115H171.3C167.389 130.002 149.9 125.834 146.36 124.171C142.819 122.509 141.397 117.556 142.124 109.425C134.584 112.586 129.427 112.739 126.777 109.872C124.126 107.006 115.265 92.5935 113.906 88.9789C112.541 85.3139 115.006 80.7883 121.237 75.5015C113.64 72.4709 109.856 68.9686 109.973 65.0677C110.09 61.1668 114.261 43.6991 115.921 40.1658C117.581 36.6326 122.549 35.2076 130.693 35.9364C127.528 28.4128 127.375 23.2626 130.245 20.6126C133.116 17.9627 147.552 9.11985 151.172 7.76153C154.843 6.40159 159.374 8.86282 164.669 15.0818C167.645 7.60537 171.089 3.81836 174.926 3.81836H175.102C179.012 3.93711 196.502 8.09989 200.042 9.75915C203.582 11.4184 205.004 16.375 204.278 24.5054C211.815 21.3447 216.973 21.1917 219.627 24.0597C222.281 26.9276 231.137 41.3403 232.497 44.9549C233.863 48.6167 231.394 53.1438 225.166 58.4372C232.763 61.4564 236.549 64.9587 236.433 68.8693C236.318 72.78 232.137 90.2315 230.475 93.7761C228.814 97.3207 223.853 98.7294 215.707 98.0056C218.876 105.536 219.029 110.686 216.156 113.329C213.284 115.973 198.849 124.822 195.233 126.169C191.562 127.534 187.025 125.071 181.726 118.849C178.763 126.337 175.312 130.115 171.475 130.115ZM144.419 104.35C144.695 104.35 144.967 104.409 145.217 104.524C145.467 104.638 145.69 104.804 145.871 105.012C146.051 105.22 146.185 105.464 146.262 105.728C146.339 105.992 146.359 106.269 146.319 106.541C144.983 115.776 146.299 119.908 147.981 120.693C151.106 122.157 167.971 126.174 171.415 126.276H171.464C173.321 126.276 176.335 123.164 179.294 114.401C179.405 114.072 179.604 113.779 179.869 113.554C180.068 113.385 180.299 113.259 180.548 113.182C180.797 113.106 181.059 113.081 181.318 113.109C181.578 113.137 181.828 113.217 182.055 113.345C182.282 113.473 182.481 113.646 182.639 113.853C188.294 121.279 192.17 123.236 193.913 122.589C197.008 121.45 211.147 112.762 213.568 110.526C214.93 109.269 214.93 104.932 210.845 96.5366C210.694 96.2235 210.63 95.8751 210.661 95.5287C210.693 95.1823 210.817 94.8509 211.023 94.5699C211.228 94.289 211.506 94.0692 211.827 93.9342C212.148 93.7992 212.5 93.7541 212.844 93.8037C222.095 95.1376 226.231 93.82 227.018 92.1429C228.485 89.0244 232.502 72.1927 232.608 68.7522C232.662 66.8961 229.563 63.8542 220.715 60.8821C220.384 60.7714 220.09 60.5726 219.864 60.3073C219.637 60.042 219.488 59.7201 219.431 59.3763C219.375 59.0325 219.413 58.6797 219.542 58.3561C219.671 58.0324 219.886 57.75 220.164 57.5392C227.605 51.8912 229.568 48.0229 228.923 46.2856C227.771 43.1948 219.074 29.0748 216.833 26.6575C215.573 25.2976 211.231 25.2976 202.831 29.3742C202.518 29.5266 202.169 29.5909 201.821 29.5602C201.474 29.5296 201.142 29.405 200.86 29.2C200.578 28.995 200.358 28.7172 200.222 28.3965C200.087 28.0758 200.041 27.7244 200.091 27.3798C201.432 18.1433 200.11 14.0114 198.432 13.2273C195.307 11.7519 178.448 7.75177 174.998 7.64929H174.951C173.092 7.64929 170.074 10.7628 167.112 19.5244C167.029 19.7709 166.897 19.998 166.723 20.1916C166.549 20.3853 166.337 20.5414 166.1 20.6504C165.864 20.7595 165.607 20.8191 165.347 20.8258C165.086 20.8324 164.827 20.7859 164.586 20.6891C164.262 20.561 163.98 20.3466 163.771 20.0693C158.111 12.6482 154.238 10.6913 152.494 11.3371C149.398 12.4855 135.255 21.1706 132.836 23.4073C131.474 24.6664 131.474 29.0016 135.556 37.3874C135.708 37.7008 135.771 38.0493 135.74 38.396C135.717 38.6551 135.642 38.9068 135.518 39.1357C135.394 39.3647 135.225 39.566 135.021 39.7274C134.816 39.8888 134.581 40.0069 134.33 40.0744C134.078 40.142 133.815 40.1576 133.557 40.1203C124.307 38.7864 120.17 40.1024 119.383 41.7812C117.917 44.8963 113.899 61.7345 113.797 65.1799C113.74 67.0279 116.835 70.0601 125.69 73.0516C126.02 73.1631 126.313 73.3622 126.538 73.6274C126.764 73.8926 126.912 74.2141 126.969 74.5573C127.025 74.9004 126.986 75.2524 126.858 75.5755C126.729 75.8986 126.514 76.1806 126.237 76.3913C118.8 82.036 116.84 85.906 117.489 87.6417C118.637 90.7325 127.334 104.849 129.572 107.266C130.835 108.626 135.177 108.626 143.583 104.55C143.843 104.42 144.129 104.352 144.419 104.35Z" fill="#162B43"/>
<path d="M176.663 111.256C176.312 111.256 175.967 111.16 175.667 110.978C175.367 110.796 175.123 110.536 174.96 110.225L152.331 66.9444C152.158 66.615 152.086 66.2423 152.124 65.8724L154.385 42.5664C154.414 42.2596 154.516 41.9641 154.683 41.705C154.85 41.4459 155.077 41.2308 155.345 41.0779L165.17 35.5991C165.458 35.4381 165.781 35.3535 166.111 35.3535C166.44 35.3535 166.764 35.4381 167.051 35.5991L185.624 46.0996C185.936 46.2764 186.193 46.5374 186.365 46.8528L210.656 91.6511C210.775 91.8743 210.849 92.1188 210.874 92.3706C210.898 92.6224 210.872 92.8765 210.798 93.1184C210.723 93.3602 210.602 93.585 210.44 93.7798C210.279 93.9747 210.08 94.1358 209.856 94.2538L177.544 111.043C177.272 111.184 176.97 111.257 176.663 111.256ZM155.988 65.6772L177.484 106.758L206.367 91.7536L183.261 49.1546L166.114 39.4561L158.121 43.9263L155.988 65.6772Z" fill="#162B43"/>
<path d="M167.472 58.2541C165.801 58.2532 164.184 57.656 162.914 56.5701C161.644 55.4843 160.805 53.9812 160.547 52.3319C160.289 50.6826 160.629 48.9955 161.507 47.5747C162.385 46.1539 163.742 45.0929 165.334 44.5829C166.926 44.0729 168.648 44.1475 170.189 44.7932C171.731 45.4389 172.991 46.6133 173.742 48.1046C174.493 49.596 174.686 51.3062 174.286 52.927C173.886 54.5478 172.919 55.9726 171.56 56.9446C170.368 57.796 168.938 58.2539 167.472 58.2541ZM167.472 48.0822C166.63 48.084 165.824 48.4194 165.229 49.0148C164.635 49.6102 164.301 50.4169 164.302 51.2576C164.303 52.0983 164.638 52.9043 165.234 53.4985C165.829 54.0927 166.637 54.4264 167.479 54.4264C168.321 54.4264 169.129 54.0927 169.724 53.4985C170.32 52.9043 170.655 52.0983 170.656 51.2576C170.657 50.4169 170.323 49.6102 169.729 49.0148C169.134 48.4194 168.328 48.084 167.486 48.0822H167.472Z" fill="#162B43"/>
<path d="M242.455 207.184C251.882 222.982 253.49 236.839 241.298 248.665C229.529 260.085 216.23 258.614 201.331 249.623C196.932 266.452 188.413 276.76 172.005 276.76C155.017 276.76 146.493 265.713 142.225 247.822C126.4 257.228 112.523 258.834 100.68 246.655C89.243 234.903 90.7175 221.624 99.7205 206.748C82.8843 202.343 72.5437 193.856 72.5437 177.455C72.5437 160.484 83.606 151.983 101.524 147.721C92.0991 131.917 90.4894 118.062 102.689 106.239C114.458 94.8195 127.756 96.2884 142.657 105.281C147.068 88.4704 152.868 104.429 169.294 104.429C186.285 104.429 197.515 89.2106 201.784 107.101C217.61 97.6907 231.487 96.0835 243.328 108.255C254.765 120.006 253.293 133.287 244.288 148.161C261.136 152.563 271.466 161.06 271.466 177.452C271.453 194.419 260.371 202.928 242.455 207.184Z" fill="#162B43"/>
<path d="M230.306 196.011C239.731 211.81 241.341 225.667 229.148 237.493C217.378 248.912 204.081 247.442 189.18 238.451C184.781 255.279 176.262 265.588 159.854 265.588C142.867 265.588 134.343 254.541 130.074 236.65C114.25 246.056 100.374 247.661 88.5294 235.482C77.0924 223.731 78.5668 210.452 87.5715 195.575C70.7336 191.169 60.3931 182.684 60.3931 166.283C60.3931 149.311 71.4554 140.81 89.375 136.548C79.9484 120.745 78.3404 106.89 90.5382 95.0668C102.296 83.6391 115.595 85.108 130.499 94.1021C134.911 77.2916 143.421 66.9668 159.846 66.9668C176.837 66.9668 185.358 78.0285 189.626 95.9127C205.454 86.5021 219.33 84.8965 231.171 97.066C242.608 108.817 241.134 122.098 232.129 136.973C248.977 141.375 259.308 149.871 259.308 166.264C259.303 183.247 248.221 191.749 230.306 196.011Z" fill="#DBF122"/>
<path d="M161.065 248.293C154.115 248.293 148.422 246.032 144.147 241.587C140.726 238.022 138.155 233.05 136.311 226.439C130.283 229.724 124.906 231.342 119.965 231.381H119.789C113.676 231.381 108.145 228.881 103.334 223.946C103.158 223.765 103.02 223.552 102.927 223.318C102.834 223.084 102.788 222.834 102.791 222.582C102.795 222.331 102.848 222.083 102.948 221.852C103.048 221.621 103.192 221.412 103.373 221.237C103.554 221.061 103.768 220.923 104.002 220.83C104.355 220.691 104.741 220.658 105.112 220.738C105.483 220.817 105.823 221.004 106.087 221.276C114.07 229.478 123.461 229.667 136.553 221.889C136.944 221.659 137.403 221.573 137.85 221.648C138.297 221.722 138.704 221.953 138.997 222.298C139.191 222.527 139.329 222.798 139.4 223.09C142.917 237.882 149.608 244.48 161.058 244.48C168.838 244.48 174.488 241.288 178.328 234.737C178.6 234.336 179.015 234.052 179.488 233.944C179.962 233.836 180.459 233.911 180.879 234.154C181.299 234.398 181.611 234.791 181.751 235.256C181.892 235.72 181.851 236.22 181.637 236.655C177.122 244.379 170.197 248.293 161.065 248.293Z" fill="#F9F8FD"/>
<path d="M201.195 232.507C196.368 232.507 191.133 230.949 185.443 227.839L185.197 228.766C185.133 229.008 185.022 229.236 184.871 229.436C184.639 229.737 184.324 229.962 183.965 230.084C183.605 230.206 183.218 230.22 182.851 230.123C182.359 229.991 181.939 229.67 181.684 229.23C181.559 229.011 181.477 228.771 181.443 228.522C181.41 228.272 181.427 228.019 181.492 227.775L182.388 224.439C182.504 224.006 182.769 223.628 183.135 223.37C183.502 223.112 183.948 222.991 184.395 223.027C184.692 223.05 184.979 223.142 185.232 223.297C197.489 230.697 206.508 230.547 214.48 222.809C222.694 214.848 222.88 205.468 215.084 192.389C214.93 192.131 214.839 191.841 214.819 191.541C214.798 191.241 214.849 190.941 214.967 190.665C215.083 190.388 215.264 190.143 215.493 189.949C215.723 189.755 215.994 189.617 216.287 189.547C227.509 186.876 233.923 182.426 236.469 175.541C236.602 175.188 236.836 174.882 237.142 174.661C237.448 174.44 237.812 174.314 238.19 174.298C238.505 174.286 238.819 174.351 239.103 174.488C239.387 174.626 239.633 174.831 239.818 175.086C240.004 175.342 240.123 175.639 240.166 175.951C240.209 176.263 240.173 176.581 240.063 176.877C237.276 184.412 230.583 189.583 219.636 192.641C222.926 198.66 224.55 204.028 224.592 208.962C224.643 215.144 222.139 220.72 217.152 225.563C212.378 230.193 207.088 232.504 201.195 232.507Z" fill="#F9F8FD"/>
<path d="M239.632 169.846C239.123 169.845 238.636 169.644 238.276 169.285C237.917 168.926 237.714 168.439 237.714 167.931C237.714 156.83 231.533 150.267 217.675 146.642C217.386 146.568 217.118 146.426 216.894 146.229C216.669 146.033 216.492 145.787 216.379 145.511C216.266 145.235 216.219 144.936 216.243 144.638C216.265 144.341 216.358 144.053 216.513 143.799C219.711 138.53 221.443 133.902 221.837 129.677C221.861 129.427 221.933 129.183 222.05 128.961C222.167 128.738 222.328 128.541 222.521 128.38C222.715 128.219 222.939 128.098 223.179 128.024C223.42 127.949 223.673 127.923 223.924 127.946C224.174 127.969 224.418 128.041 224.641 128.158C224.864 128.275 225.062 128.435 225.223 128.628C225.384 128.822 225.505 129.045 225.58 129.285C225.654 129.526 225.681 129.778 225.658 130.029C225.268 134.243 223.755 138.709 221.047 143.62C234.835 147.849 241.546 155.828 241.546 167.931C241.545 168.439 241.343 168.926 240.983 169.285C240.623 169.644 240.135 169.846 239.627 169.846H239.632Z" fill="#F9F8FD"/>
<path d="M217.411 115.174C217.154 115.175 216.899 115.124 216.661 115.025C216.426 114.925 216.212 114.78 216.033 114.598C208.049 106.4 198.66 106.214 185.566 113.998C185.177 114.231 184.717 114.317 184.27 114.243C183.822 114.168 183.416 113.938 183.123 113.592C182.927 113.363 182.789 113.091 182.72 112.798C179.203 97.9945 172.51 91.4079 161.06 91.4079C160.803 91.4154 160.548 91.3714 160.309 91.2785C160.069 91.1856 159.851 91.0457 159.667 90.8671C159.483 90.6885 159.336 90.4748 159.236 90.2387C159.136 90.0025 159.085 89.7488 159.085 89.4924C159.085 89.2361 159.136 88.9824 159.236 88.7462C159.336 88.5101 159.483 88.2964 159.667 88.1178C159.851 87.9392 160.069 87.7993 160.309 87.7064C160.548 87.6135 160.803 87.5695 161.06 87.577C168.015 87.577 173.706 89.8381 177.978 94.3002C181.399 97.8692 183.97 102.841 185.817 109.45C191.845 106.164 197.222 104.545 202.16 104.505H202.347C208.457 104.505 213.986 107.003 218.784 111.934C219.048 112.203 219.227 112.545 219.297 112.915C219.368 113.286 219.327 113.669 219.18 114.016C219.034 114.364 218.788 114.66 218.473 114.869C218.158 115.077 217.789 115.188 217.411 115.187V115.174Z" fill="#F9F8FD"/>
<path d="M99.0313 215.214C98.6163 215.213 98.2128 215.078 97.8813 214.828C97.5499 214.579 97.3086 214.229 97.1935 213.831C95.333 207.446 96.5989 200.368 101.068 192.239C87.2912 188.01 80.5822 180.039 80.5822 167.931C80.5822 160.984 82.8467 155.302 87.3124 151.036C90.8852 147.62 95.8625 145.056 102.482 143.212C99.1909 137.193 97.5666 131.825 97.5291 126.894C97.4803 120.713 99.9844 115.133 104.976 110.293C113.67 101.857 124.071 101.107 136.71 108.026C139.022 100.492 142.383 95.1746 146.941 91.8203C147.351 91.5191 147.864 91.3928 148.367 91.4689C148.616 91.5061 148.856 91.5922 149.072 91.7224C149.288 91.8525 149.475 92.024 149.625 92.227C149.774 92.4292 149.882 92.6589 149.942 92.9028C150.003 93.1468 150.014 93.4003 149.976 93.6487C149.939 93.8975 149.853 94.1365 149.723 94.352C149.593 94.5675 149.422 94.7553 149.219 94.9046C144.924 98.0653 141.822 103.461 139.742 111.398C139.666 111.686 139.524 111.953 139.327 112.177C139.13 112.401 138.883 112.576 138.606 112.687C138.33 112.799 138.031 112.845 137.733 112.821C137.435 112.797 137.148 112.704 136.892 112.55C124.641 105.156 115.62 105.306 107.648 113.038C99.4353 121.02 99.2463 130.39 107.042 143.457C107.273 143.847 107.358 144.305 107.283 144.752C107.209 145.198 106.978 145.604 106.633 145.897C106.404 146.091 106.132 146.229 105.84 146.299C91.0254 149.811 84.4157 156.494 84.4157 167.935C84.4157 179.032 90.5904 185.596 104.445 189.219C104.734 189.295 105.001 189.437 105.226 189.633C105.564 189.93 105.787 190.336 105.855 190.781C105.923 191.225 105.832 191.68 105.599 192.064C100.711 200.137 99.1665 206.909 100.874 212.764C101.016 213.251 100.958 213.774 100.714 214.219C100.469 214.664 100.058 214.993 99.5705 215.136C99.3955 215.188 99.2139 215.214 99.0313 215.214Z" fill="#F9F8FD"/>
<path d="M91.822 187.773C85.6441 195.149 88.4658 204.719 82.5143 207.855C76.4667 211.047 70.0623 203.066 60.2122 203.934C50.362 204.803 45.4776 213.812 38.9559 211.743C32.5515 209.696 33.6219 199.799 26.2481 193.626C18.8743 187.453 9.28648 190.264 6.13722 184.332C2.93258 178.294 10.9336 171.899 10.0603 162.068C9.1871 152.236 0.162931 147.352 2.2418 140.837C4.28319 134.444 14.2099 135.515 20.3879 128.137C26.5658 120.76 23.7554 111.19 29.6923 108.059C35.7448 104.865 42.1622 112.848 51.9977 111.976C61.8332 111.104 66.7192 102.105 73.2474 104.168C79.6421 106.206 78.5814 116.118 85.9666 122.286C93.3518 128.455 102.94 125.645 106.082 131.576C109.279 137.623 101.286 144.011 102.159 153.848C103.033 163.685 112.049 168.557 109.97 175.072C107.927 181.468 97.9983 180.399 91.822 187.773Z" fill="#F9F8FD"/>
<path d="M40.9533 213.971C40.085 213.968 39.2223 213.831 38.3955 213.566C34.2394 212.241 32.6933 208.523 31.0413 204.592C29.6515 201.236 28.2113 197.759 25.0132 195.093C21.8151 192.427 18.1282 191.62 14.5733 190.864C10.4172 189.958 6.47448 189.102 4.43146 185.245C2.34933 181.321 3.92966 177.534 5.60122 173.533C7.03655 170.095 8.52076 166.538 8.13952 162.261C7.75829 157.984 5.66151 154.729 3.63803 151.603C1.2822 147.944 -0.92374 144.501 0.405691 140.269C1.72861 136.12 5.45622 134.576 9.39075 132.949C12.7534 131.56 16.2334 130.124 18.9053 126.93C21.5772 123.737 22.382 120.062 23.1592 116.519C24.0666 112.37 24.9236 108.433 28.7864 106.393C32.7161 104.317 36.5072 105.895 40.5167 107.564C43.9641 108.997 47.5223 110.479 51.8104 110.099C56.0984 109.718 59.334 107.628 62.4702 105.607C66.1278 103.252 69.5817 101.03 73.8176 102.373C77.9754 103.697 79.5199 107.416 81.1572 111.348C82.5469 114.702 83.9855 118.18 87.1853 120.845C90.385 123.509 94.0621 124.318 97.6122 125.095C101.768 126.001 105.714 126.857 107.76 130.714C109.836 134.638 108.259 138.423 106.587 142.426C105.152 145.869 103.668 149.421 104.048 153.706C104.427 157.991 106.522 161.225 108.547 164.356C110.903 168.005 113.129 171.45 111.78 175.68C110.452 179.831 106.729 181.373 102.791 183C99.432 184.389 95.9488 185.826 93.2801 189.019C90.6115 192.212 89.8001 195.885 89.0263 199.43C88.1188 203.58 87.2618 207.517 83.399 209.56C79.4726 211.635 75.6815 210.057 71.6687 208.388C68.2181 206.955 64.6534 205.47 60.3686 205.852C56.0838 206.235 52.8449 208.323 49.7054 210.345C46.8299 212.201 44.0684 213.971 40.9533 213.971ZM32.7747 109.22C32.0089 109.212 31.253 109.394 30.5753 109.751C28.4003 110.899 27.7649 113.372 26.9047 117.307C26.0722 121.123 25.1289 125.44 21.8542 129.366C18.5795 133.291 14.4771 134.987 10.8652 136.473C7.13594 138.012 4.83713 139.075 4.06651 141.418C3.2959 143.76 4.63511 146.046 6.87037 149.504C8.93295 152.696 11.5006 156.675 11.9682 161.898C12.4357 167.122 10.6127 171.475 9.15126 174.987C7.55138 178.787 6.65369 181.225 7.82672 183.446C8.99975 185.666 11.4566 186.255 15.3976 187.111C19.236 187.944 23.5437 188.886 27.4717 192.154C31.3997 195.422 33.0924 199.518 34.5897 203.126C36.1341 206.85 37.1964 209.169 39.5457 209.914C41.895 210.659 44.1824 209.345 47.6477 207.113C50.8459 205.055 54.826 202.492 60.0476 202.025C65.2692 201.558 69.6404 203.378 73.1562 204.837C76.962 206.433 79.4042 207.331 81.6199 206.16C83.8356 204.989 84.4336 202.539 85.2938 198.602C86.1263 194.771 87.068 190.468 90.3443 186.545C93.6206 182.621 97.7213 180.931 101.333 179.441C105.063 177.899 107.387 176.838 108.132 174.492C108.877 172.147 107.565 169.863 105.331 166.406C103.272 163.213 100.704 159.239 100.237 154.022C99.7693 148.805 101.589 144.444 103.054 140.932C104.654 137.133 105.551 134.695 104.378 132.473C103.205 130.25 100.748 129.663 96.8057 128.806C92.969 127.975 88.6597 127.03 84.7268 123.763C80.7939 120.497 79.1093 116.397 77.6121 112.789C76.0676 109.067 75.0053 106.749 72.656 106.003C70.3067 105.256 68.0258 106.574 64.5605 108.809C61.3624 110.868 57.3822 113.432 52.1574 113.897C46.9325 114.362 42.5646 112.547 39.0488 111.084C36.4388 109.99 34.4691 109.22 32.7747 109.22Z" fill="#162B43"/>
<path d="M117.968 198.896C117.174 198.892 116.403 198.632 115.77 198.155C115.136 197.678 114.674 197.009 114.453 196.249C114.232 195.488 114.263 194.676 114.541 193.934C114.82 193.193 115.332 192.561 115.999 192.133L202.201 137.534C202.608 137.276 203.063 137.1 203.539 137.017C204.015 136.935 204.502 136.946 204.973 137.051C205.445 137.157 205.89 137.354 206.285 137.631C206.681 137.908 207.017 138.261 207.276 138.668C207.534 139.075 207.71 139.529 207.793 140.004C207.876 140.479 207.864 140.966 207.759 141.436C207.653 141.907 207.456 142.352 207.178 142.746C206.901 143.141 206.548 143.477 206.14 143.735L119.931 198.325C119.344 198.697 118.663 198.896 117.968 198.896Z" fill="#162B43"/>
<path d="M152.425 146.138C149.176 146.136 146.036 144.968 143.579 142.846C141.121 140.725 139.509 137.792 139.037 134.582C138.566 131.372 139.266 128.101 141.009 125.364C142.753 122.627 145.425 120.607 148.536 119.673C151.648 118.74 154.992 118.955 157.958 120.278C160.924 121.602 163.314 123.947 164.692 126.884C166.071 129.822 166.345 133.156 165.466 136.279C164.586 139.402 162.611 142.105 159.902 143.894C157.684 145.36 155.084 146.14 152.425 146.138ZM152.445 126.472C150.912 126.472 149.434 127.04 148.298 128.066C147.161 129.093 146.447 130.504 146.293 132.027C146.14 133.549 146.559 135.074 147.468 136.306C148.377 137.538 149.712 138.388 151.214 138.692C152.716 138.997 154.277 138.733 155.596 137.953C156.914 137.173 157.895 135.931 158.348 134.47C158.802 133.008 158.695 131.43 158.049 130.043C157.403 128.655 156.264 127.557 154.853 126.96C154.091 126.638 153.272 126.472 152.445 126.472Z" fill="#162B43"/>
<path d="M166.684 222.186C163.314 222.196 160.062 220.952 157.562 218.697C155.061 216.441 153.491 213.337 153.159 209.989C152.826 206.641 153.755 203.289 155.763 200.588C157.772 197.886 160.716 196.029 164.022 195.377C167.328 194.726 170.758 195.327 173.644 197.064C176.529 198.801 178.664 201.549 179.63 204.772C180.597 207.996 180.326 211.462 178.871 214.497C177.416 217.532 174.881 219.916 171.761 221.186C170.149 221.842 168.425 222.182 166.684 222.186ZM166.684 202.503C165.173 202.493 163.711 203.034 162.573 204.025C161.434 205.017 160.698 206.389 160.502 207.885C160.307 209.38 160.666 210.896 161.512 212.145C162.357 213.395 163.632 214.293 165.094 214.67C166.557 215.047 168.107 214.877 169.453 214.192C170.799 213.507 171.847 212.354 172.401 210.951C172.955 209.548 172.976 207.991 172.46 206.573C171.944 205.156 170.927 203.976 169.6 203.255C168.703 202.771 167.7 202.518 166.681 202.516L166.684 202.503Z" fill="#162B43"/>
<path d="M90.4666 75.217C88.9818 75.2214 87.5415 74.7114 86.3912 73.7739C85.241 72.8364 84.4522 71.5295 84.1593 70.0761C83.8664 68.6227 84.0875 67.1128 84.785 65.8041C85.4825 64.4953 86.6131 63.4687 87.984 62.8993C89.355 62.33 90.8813 62.2531 92.3026 62.6819C93.7239 63.1107 94.9522 64.0186 95.778 65.2507C96.6038 66.4828 96.9759 67.9627 96.8309 69.4382C96.6859 70.9136 96.0327 72.2931 94.9827 73.3414C94.3904 73.9351 93.6867 74.4064 92.9117 74.7282C92.1368 75.0501 91.3059 75.2162 90.4666 75.217ZM90.4666 66.2554C89.8744 66.2551 89.3004 66.4599 88.8424 66.8348C88.3845 67.2098 88.071 67.7317 87.9552 68.3116C87.8395 68.8915 87.9288 69.4935 88.2078 70.0151C88.4869 70.5367 88.9384 70.9455 89.4855 71.1718C90.0326 71.3982 90.6414 71.4282 91.2081 71.2566C91.7749 71.085 92.2645 70.7225 92.5935 70.2308C92.9225 69.7392 93.0706 69.1488 93.0125 68.5603C92.9545 67.9719 92.6938 67.4217 92.275 67.0037C91.7954 66.5247 91.1449 66.2555 90.4666 66.2554Z" fill="#DBF122"/>
<path d="M267.012 106.33C264.004 106.333 261.088 105.294 258.762 103.39C256.435 101.487 254.841 98.8366 254.253 95.8913C253.664 92.946 254.116 89.888 255.533 87.2385C256.949 84.5889 259.242 82.5119 262.021 81.3613C264.799 80.2107 267.891 80.0579 270.77 80.9287C273.649 81.7996 276.136 83.6404 277.808 86.1372C279.479 88.6341 280.232 91.6325 279.938 94.6215C279.643 97.6105 278.32 100.405 276.193 102.529C273.758 104.961 270.456 106.329 267.012 106.33ZM267.012 84.2248C264.892 84.2225 262.837 84.9543 261.197 86.2955C259.557 87.6368 258.434 89.5044 258.019 91.58C257.603 93.6556 257.922 95.8108 258.92 97.6782C259.918 99.5456 261.534 101.01 263.492 101.821C265.45 102.632 267.629 102.74 269.658 102.126C271.687 101.513 273.44 100.215 274.618 98.4559C275.796 96.6963 276.327 94.5831 276.119 92.4767C275.912 90.3702 274.979 88.4007 273.48 86.904C271.765 85.1907 269.438 84.2271 267.012 84.2248Z" fill="#DBF122"/>
<path d="M61.1132 252.883C59.6054 252.884 58.1439 252.363 56.9777 251.409C55.8116 250.454 55.0129 249.126 54.7177 247.65C54.4226 246.173 54.6493 244.641 55.3592 243.312C56.0691 241.984 57.2183 240.943 58.611 240.366C60.0036 239.789 61.5535 239.712 62.9966 240.148C64.4397 240.584 65.6867 241.507 66.525 242.758C67.3634 244.009 67.7413 245.512 67.5943 247.01C67.4473 248.509 66.7845 249.91 65.7189 250.975C64.4977 252.195 62.841 252.882 61.1132 252.883ZM61.1132 243.7C60.4923 243.699 59.8903 243.913 59.4099 244.306C58.9294 244.699 58.6002 245.246 58.4784 245.854C58.3566 246.462 58.4497 247.093 58.7418 247.64C59.0339 248.187 59.507 248.616 60.0804 248.854C60.6538 249.091 61.292 249.123 61.8863 248.944C62.4806 248.764 62.9942 248.385 63.3395 247.869C63.6849 247.354 63.8406 246.735 63.7801 246.118C63.7196 245.501 63.4467 244.924 63.0079 244.486C62.7595 244.237 62.4642 244.039 62.1391 243.904C61.8139 243.769 61.4652 243.7 61.1132 243.7Z" fill="#DBF122"/>
<path d="M77.0305 28.0822C74.4182 28.0856 71.8856 27.1843 69.8643 25.532C67.8431 23.8796 66.4583 21.5785 65.9461 19.0208C65.4339 16.4631 65.8259 13.8072 67.0553 11.5058C68.2848 9.20443 70.2755 7.40001 72.6883 6.40014C75.101 5.40026 77.7863 5.26683 80.2866 6.02258C82.7868 6.77833 84.9472 8.37648 86.3994 10.5446C87.8516 12.7128 88.5058 15.3167 88.2504 17.9125C87.995 20.5083 86.8459 22.9354 84.999 24.7799C83.9531 25.826 82.7111 26.6561 81.3438 27.2227C79.9766 27.7893 78.5109 28.0814 77.0305 28.0822ZM77.0305 9.39927C75.3076 9.3974 73.6373 9.99223 72.3044 11.0823C70.9716 12.1725 70.0586 13.6904 69.7212 15.3774C69.3837 17.0644 69.6427 18.8161 70.454 20.3337C71.2652 21.8514 72.5785 23.0412 74.17 23.7003C75.7615 24.3594 77.5326 24.4469 79.1816 23.948C80.8305 23.4492 82.2551 22.3947 83.2125 20.9645C84.1699 19.5342 84.6009 17.8167 84.4321 16.1047C84.2632 14.3926 83.5048 12.7921 82.2863 11.5758C81.5965 10.8859 80.7773 10.3386 79.8754 9.96511C78.9736 9.59163 78.0069 9.39935 77.0305 9.39927Z" fill="#DBF122"/>
<path d="M43.5373 93.9472C41.7225 93.9487 39.9633 93.3218 38.5596 92.1733C37.1559 91.0248 36.1946 89.4258 35.8394 87.6488C35.4843 85.8718 35.7573 84.0268 36.6119 82.4283C37.4666 80.8298 38.85 79.5767 40.5263 78.8825C42.2027 78.1884 44.0683 78.0962 45.8051 78.6216C47.5419 79.1471 49.0425 80.2577 50.051 81.7641C51.0596 83.2706 51.5137 85.0796 51.3361 86.8829C51.1584 88.6863 50.3599 90.3723 49.0766 91.6536C48.3498 92.381 47.4864 92.958 46.5359 93.3516C45.5853 93.7452 44.5664 93.9476 43.5373 93.9472ZM43.5373 82.1356C42.5488 82.1369 41.5961 82.5051 40.8644 83.1687C40.1327 83.8322 39.6742 84.7437 39.578 85.726C39.4818 86.7083 39.7549 87.6912 40.3441 88.4837C40.9333 89.2762 41.7966 89.8216 42.7661 90.014C43.7356 90.2064 44.7422 90.0319 45.5901 89.5246C46.438 89.0173 47.0667 88.2133 47.354 87.269C47.6413 86.3246 47.5666 85.3073 47.1446 84.4148C46.7226 83.5223 45.9833 82.8184 45.0704 82.4398C44.5844 82.2387 44.0634 82.1353 43.5373 82.1356Z" fill="#DBF122"/>
<path d="M75.6913 181.603L33.8647 184.043L29.9774 148.688L75.4599 146.031L75.6913 181.603Z" fill="#007EEF"/>
<path d="M36.6686 191.594C36.207 191.594 35.7607 191.429 35.4119 191.127C35.0632 190.825 34.8354 190.407 34.7706 189.951L28.9706 149.551C28.9319 149.289 28.9491 149.022 29.0211 148.767C29.0916 148.511 29.215 148.273 29.3834 148.067C29.5517 147.862 29.7613 147.694 29.9986 147.575C30.2351 147.454 30.4942 147.383 30.7595 147.368L78.1693 144.603C78.4342 144.588 78.6993 144.628 78.9481 144.72C79.3226 144.859 79.6444 145.111 79.8687 145.442C80.0929 145.772 80.2085 146.164 80.1993 146.563L79.186 187.345C79.1746 187.824 78.9835 188.282 78.6504 188.627C78.3173 188.972 77.8665 189.18 77.3873 189.209L36.7973 191.591L36.6686 191.594ZM33.0632 151.072L38.319 187.673L75.4095 185.511L76.3267 148.557L33.0632 151.072Z" fill="#162B43"/>
<path d="M53.7426 147.186C53.434 147.187 53.1298 147.113 52.8558 146.971C52.5819 146.829 52.3463 146.623 52.1691 146.371C51.9919 146.119 51.8783 145.827 51.838 145.522C51.7976 145.216 51.8318 144.905 51.9374 144.616C53.2959 140.977 54.8598 137.418 56.6214 133.956C60.5885 126.244 64.2086 122.377 67.687 122.144C69.3373 122.032 71.7192 122.681 73.6824 126.413C75.077 129.06 75.2139 131.719 74.0914 134.314C70.556 142.5 54.9238 146.941 54.2672 147.126C54.0957 147.169 53.9193 147.189 53.7426 147.186ZM68.0161 125.953H67.9493C65.1128 126.148 60.4435 133.933 57.0222 142.155C61.9473 140.294 68.7948 136.917 70.5788 132.778C71.2191 131.282 71.1327 129.777 70.2953 128.181C69.7381 127.16 68.9138 125.953 68.0144 125.953H68.0161Z" fill="#162B43"/>
<path d="M54.5784 147.133C54.4275 147.133 54.2771 147.116 54.1304 147.081C52.5794 146.712 38.8827 143.25 35.7872 135.975C34.7608 133.558 35.0003 130.955 36.4812 128.447C38.5617 124.935 40.9322 124.38 42.5565 124.551C45.8149 124.889 49.0587 128.383 52.467 135.22C53.9668 138.266 55.2802 141.399 56.3999 144.603C56.4971 144.892 56.5242 145.199 56.4788 145.5C56.4334 145.801 56.3169 146.087 56.1389 146.335C55.9609 146.582 55.7266 146.783 55.4552 146.922C55.1839 147.061 54.8833 147.133 54.5784 147.133ZM42.0498 128.36C41.1782 128.36 40.3424 129.455 39.7869 130.397C38.9104 131.879 38.7637 133.174 39.316 134.48C40.8296 138.033 46.9733 140.802 51.4666 142.311C48.653 135.289 44.7299 128.629 42.1655 128.364L42.0498 128.36Z" fill="#162B43"/>
</g>
<defs>
<clipPath id="clip0_222_5700">
<rect width="280" height="272.941" fill="white" transform="translate(0 3.81836)"/>
</clipPath>
</defs>
</svg>
