<svg width="369" height="53" viewBox="0 0 369 53" fill="none" xmlns="http://www.w3.org/2000/svg">
<path d="M2.51491 5.344V1.6H24.6189V5.344H2.51491ZM2.51491 26.584V22.84H23.8989V26.584H2.51491ZM0.426907 1.6H4.38691V52H0.426907V1.6ZM37.1087 52V48.256H62.0927V52H37.1087ZM37.1087 5.344V1.6H62.0927V5.344H37.1087ZM37.1087 26.224V22.48H60.6527V26.224H37.1087ZM35.0207 1.6H38.9807V52H35.0207V1.6ZM75.5696 26.44V22.696H109.554V26.44H75.5696ZM106.89 1.6H110.922V52H106.89V1.6ZM73.4816 1.6H77.4416V52H73.4816V1.6ZM123.052 1.6H127.012V48.256H147.82V52H123.052V1.6ZM156.991 52V48.256H181.975V52H156.991ZM156.991 5.344V1.6H181.975V5.344H156.991ZM156.991 26.224V22.48H180.535V26.224H156.991ZM154.903 1.6H158.863V52H154.903V1.6ZM201.932 27.952H206.324L223.532 52H218.636L201.932 27.952ZM193.364 1.6H197.324V52H193.364V1.6ZM195.452 5.128V1.6H204.884C208.148 1.6 211.052 2.176 213.596 3.328C216.188 4.48 218.228 6.136 219.716 8.296C221.204 10.456 221.948 13.096 221.948 16.216C221.948 19.288 221.204 21.928 219.716 24.136C218.228 26.344 216.188 28.024 213.596 29.176C211.052 30.28 208.148 30.832 204.884 30.832H195.452V27.304H204.884C207.428 27.304 209.684 26.896 211.652 26.08C213.668 25.216 215.228 23.968 216.332 22.336C217.436 20.656 217.988 18.616 217.988 16.216C217.988 13.816 217.412 11.8 216.26 10.168C215.156 8.536 213.62 7.288 211.652 6.424C209.684 5.56 207.428 5.128 204.884 5.128H195.452ZM248.174 41.92L275.966 1.6H277.478V52H273.518V40.336V39.688V10.744L254.798 38.392H275.174H275.966H285.398V41.92H248.174ZM294.995 26.8C294.995 29.92 295.307 32.824 295.931 35.512C296.555 38.2 297.443 40.552 298.595 42.568C299.795 44.584 301.235 46.168 302.915 47.32C304.595 48.424 306.491 48.976 308.603 48.976C310.763 48.976 312.659 48.424 314.291 47.32C315.971 46.168 317.387 44.584 318.539 42.568C319.739 40.552 320.651 38.2 321.275 35.512C321.899 32.824 322.211 29.92 322.211 26.8C322.211 23.68 321.899 20.776 321.275 18.088C320.651 15.4 319.739 13.048 318.539 11.032C317.387 9.016 315.971 7.456 314.291 6.352C312.659 5.2 310.763 4.624 308.603 4.624C306.491 4.624 304.595 5.2 302.915 6.352C301.235 7.456 299.795 9.016 298.595 11.032C297.443 13.048 296.555 15.4 295.931 18.088C295.307 20.776 294.995 23.68 294.995 26.8ZM291.035 26.8C291.035 21.856 291.755 17.44 293.195 13.552C294.635 9.664 296.675 6.592 299.315 4.336C301.955 2.032 305.051 0.879997 308.603 0.879997C312.155 0.879997 315.251 2.032 317.891 4.336C320.531 6.592 322.571 9.664 324.011 13.552C325.451 17.44 326.171 21.856 326.171 26.8C326.171 31.744 325.451 36.16 324.011 40.048C322.571 43.936 320.531 47.032 317.891 49.336C315.251 51.592 312.155 52.72 308.603 52.72C305.051 52.72 301.955 51.592 299.315 49.336C296.675 47.032 294.635 43.936 293.195 40.048C291.755 36.16 291.035 31.744 291.035 26.8ZM331.072 41.92L358.864 1.6H360.376V52H356.416V40.336V39.688V10.744L337.696 38.392H358.072H358.864H368.296V41.92H331.072Z" fill="#162B43"/>
</svg>
