<svg width="114" height="120" viewBox="0 0 114 120" fill="none" xmlns="http://www.w3.org/2000/svg">
<g clip-path="url(#clip0_964_3604)">
<path d="M104.181 79.7483C102.412 79.7483 100.117 79.3094 98.2301 77.9572C96.125 76.4489 94.9579 74.1589 94.7601 71.1642C94.5387 67.8115 95.4497 65.1426 97.4645 63.2299C99.9474 60.8784 103.557 60.3213 105.249 60.5222C109.052 60.9746 111.087 63.0907 112.126 64.7855C113.901 67.6739 113.929 71.0975 113.207 73.0574C111.995 76.3442 109.489 78.6434 106.148 79.5314C105.504 79.6848 104.843 79.7577 104.181 79.7483ZM104.519 61.1578C102.795 61.1578 99.9618 61.7942 97.9276 63.7203C96.0616 65.4878 95.2232 67.977 95.4286 71.1203C95.6128 73.9057 96.6853 76.0234 98.618 77.4086C101.153 79.2275 104.475 79.2748 105.97 78.8764C109.091 78.0467 111.435 75.8968 112.568 72.8227C113.236 71.0122 113.2 67.8352 111.546 65.1417C110.584 63.5735 108.696 61.6169 105.164 61.1966C104.95 61.171 104.735 61.158 104.519 61.1578Z" fill="#162B43"/>
<path d="M97.2363 70.921C97.5025 76.7366 103.624 77.6347 105.642 77.0987C108.131 76.437 111.343 74.4956 111.092 70.1968C110.815 65.4303 107.526 63.0425 104.253 63.0425C101.835 63.0425 96.9397 64.4301 97.2363 70.921Z" fill="#DDE3EB"/>
<path d="M44.7062 40.5482C44.6284 41.3652 44.4636 42.3122 43.6844 42.7073C42.8173 43.1479 41.7162 42.6001 41.1221 41.8708C40.5279 41.1415 40.2127 40.2375 39.5687 39.5446C38.4042 38.2936 36.2931 38.005 34.6494 38.6583C33.0056 39.3116 31.8335 40.7499 31.3036 42.3232C30.7965 43.8425 30.8481 45.572 31.7262 46.9394C32.6042 48.3068 34.3959 49.2091 36.092 48.9019C37.3799 48.6706 38.4211 47.8307 39.5806 47.2644C40.7401 46.698 42.3238 46.46 43.2483 47.3167C43.6515 47.6906 43.8509 48.2072 44.0039 48.7145C44.9386 51.8038 44.5853 55.0787 44.6647 58.2854C44.7442 61.492 45.3907 64.9248 47.8381 67.2054C49.6728 68.9147 52.2622 69.73 54.8035 70.2745C62.9038 72.0116 71.3777 71.5566 79.6023 70.418C82.4824 70.0187 85.6347 69.3823 87.3688 67.2265C88.874 65.3544 88.8951 62.8374 88.8545 60.5069C88.7875 56.6664 88.7204 52.8257 88.6534 48.9846C88.6449 48.4993 88.6399 47.997 88.8503 47.5497C89.2872 46.6212 90.5228 46.2397 91.618 46.2777C92.7133 46.3157 93.773 46.6617 94.8658 46.7377C97.9284 46.9495 101.018 44.5212 100.934 41.6935C100.851 38.8659 97.2025 36.5692 94.4271 37.7813C93.0877 38.3662 92.1783 39.5327 91.0577 40.4274C90.6994 40.7136 90.2498 40.9896 89.785 40.9001C89.0565 40.76 88.8663 39.8974 88.8317 39.212C88.6418 35.4981 88.452 31.7842 88.2621 28.0703C88.2317 27.4795 88.1827 26.8422 87.7711 26.3889C87.384 25.9669 86.7646 25.7981 86.1814 25.6588C74.4742 22.8937 62.139 23.0827 50.1731 24.6535C49.0584 24.8004 47.9057 24.9718 46.9693 25.5474C46.2451 25.9922 45.651 26.7646 45.6282 27.5867C45.6189 27.9243 45.7854 28.1868 45.8276 28.5101C45.8944 29.0165 45.7431 29.5964 45.6966 30.0995L45.0628 36.7558L44.7062 40.5482Z" fill="#007EEF"/>
<path d="M30.1703 81.3788C40.8186 78.6305 43.6996 89.1442 42.8579 93.2438C41.886 97.9706 37.3841 103.503 28.4353 101.965C25.9845 101.543 19.0664 96.7914 22.4088 87.8578C23.7551 84.2714 28.6009 81.7839 30.1703 81.3788Z" fill="#162B43"/>
<path d="M31.3611 102.565C30.3621 102.562 29.3652 102.474 28.3812 102.302C27.0291 102.07 24.252 100.587 22.5314 97.5951C21.3922 95.6141 20.3924 92.2978 22.0962 87.744C23.461 84.0968 28.3009 81.5173 30.0892 81.0556C34.0181 80.0428 37.374 80.718 39.7927 83.0189C41.5581 84.6953 42.4269 86.824 42.8444 88.3138C43.3413 90.0863 43.4714 91.9584 43.1926 93.3157C42.6306 96.0513 41.046 98.5708 38.8453 100.228C36.79 101.771 34.2403 102.565 31.3611 102.565ZM30.2624 81.7056C28.6297 82.1276 23.9934 84.6109 22.7334 87.9761C21.4573 91.3862 21.5916 94.5945 23.1221 97.255C24.6433 99.8977 27.1786 101.405 28.5004 101.631C29.4701 101.802 30.4525 101.89 31.4371 101.895C38.6991 101.895 41.8226 96.6396 42.5342 93.1756C42.994 90.9388 42.2942 86.3175 39.3313 83.5043C37.0579 81.3452 34.0071 80.74 30.2624 81.7056Z" fill="#162B43"/>
<path d="M24.1388 91.9338C24.5123 89.2843 26.2084 88.9551 26.795 87.5134C27.4854 85.8135 26.2879 85.4927 25.6118 85.7662C24.6644 86.1519 23.8624 87.2931 23.2962 88.5693C22.1976 91.0517 22.4638 94.0769 23.5421 95.7009C24.6475 97.3654 24.8943 96.2242 24.4075 95.1336C24.0999 94.4508 23.9596 93.178 24.1388 91.9338Z" fill="white"/>
<path d="M51.7746 94.8037C46.873 91.6663 44.9293 88.1035 42.8816 82.666C42.4413 81.4979 42.121 78.9437 42.1429 77.6953C42.1649 76.447 42.9568 74.8779 44.0199 74.222C45.569 73.2657 48.9562 74.011 50.5839 74.8264C53.8544 76.4638 57.0067 78.5867 59.4795 81.2792C63.6484 85.8195 62.428 90.4796 60.0034 93.1088C57.5104 95.8124 53.333 95.8014 51.7746 94.8037Z" fill="#DDE3EB"/>
<path d="M44.3597 83.2031C44.2018 83.2031 44.044 83.1938 43.8872 83.1752C43.842 83.1714 43.7981 83.1585 43.7579 83.1373C43.7174 83.1164 43.6816 83.0875 43.6525 83.0524C43.6235 83.0173 43.6018 82.9767 43.5889 82.933C43.5765 82.8894 43.5727 82.8438 43.5779 82.7988C43.583 82.7538 43.5974 82.7104 43.6202 82.6713C43.6537 82.6116 43.7047 82.5634 43.7663 82.5333C43.8278 82.5031 43.8972 82.4924 43.965 82.5025C47.1189 82.8764 49.8681 78.5624 50.9042 76.6903C50.9485 76.6137 51.0211 76.5575 51.1064 76.5338C51.1918 76.5101 51.283 76.5208 51.3605 76.5637C51.438 76.6065 51.4956 76.6779 51.5209 76.7627C51.5462 76.8475 51.5371 76.9387 51.4957 77.0169C50.9042 78.0805 49.95 79.6167 48.7322 80.892C47.2694 82.4282 45.7997 83.2031 44.3597 83.2031Z" fill="white"/>
<path d="M44.9183 81.5366C44.8727 81.5366 44.8275 81.5274 44.7856 81.5096C44.7439 81.492 44.7062 81.4662 44.6749 81.4336C44.4492 81.2011 44.3183 80.8931 44.3078 80.5695C44.2972 80.2458 44.4077 79.9299 44.6177 79.6833C44.8277 79.4366 45.1222 79.2769 45.4437 79.2354C45.7652 79.1938 46.0907 79.2734 46.3566 79.4585C46.3932 79.4838 46.4244 79.516 46.4485 79.5534C46.4726 79.5908 46.489 79.6325 46.4969 79.6763C46.5048 79.7199 46.5041 79.7647 46.4946 79.8081C46.4852 79.8515 46.4673 79.8926 46.4419 79.929C46.4166 79.9655 46.3843 79.9966 46.3469 80.0206C46.3095 80.0445 46.2677 80.0609 46.2239 80.0687C46.1802 80.0767 46.1352 80.076 46.0917 80.0666C46.0482 80.0572 46.007 80.0392 45.9704 80.0139C45.8424 79.9248 45.6858 79.8865 45.531 79.9064C45.3763 79.9264 45.2345 80.0031 45.1334 80.1218C45.0322 80.2404 44.9789 80.3924 44.9838 80.5482C44.9887 80.7039 45.0515 80.8523 45.16 80.9643C45.2043 81.0126 45.2337 81.0727 45.2445 81.1373C45.2535 81.186 45.2517 81.236 45.2393 81.2839C45.2268 81.3317 45.204 81.3763 45.1724 81.4144C45.1408 81.4525 45.1012 81.4832 45.0564 81.5043C45.0116 81.5254 44.9627 81.5364 44.9132 81.5366H44.9183Z" fill="white"/>
<path d="M47.85 78.5883C47.8037 78.5884 47.7579 78.579 47.7156 78.5605C47.5648 78.4912 47.4301 78.3912 47.3202 78.2669C47.2103 78.1427 47.1277 77.9968 47.0775 77.8388C47.0279 77.6804 47.0115 77.5134 47.0294 77.3484C47.0481 77.1835 47.1011 77.0243 47.1851 76.8811C47.2691 76.738 47.3821 76.6139 47.517 76.517C47.7197 76.3704 47.9635 76.2915 48.2138 76.2915C48.464 76.2915 48.7079 76.3704 48.9106 76.517C48.9459 76.5438 48.9756 76.5773 48.998 76.6156C49.0204 76.6539 49.035 76.6962 49.041 76.7402C49.047 76.7841 49.0443 76.8288 49.033 76.8716C49.0217 76.9145 49.0021 76.9548 48.9752 76.9901C48.9484 77.0254 48.9148 77.055 48.8765 77.0774C48.8381 77.0998 48.7957 77.1143 48.7518 77.1203C48.7078 77.1263 48.663 77.1236 48.6201 77.1124C48.5772 77.1011 48.5369 77.0815 48.5015 77.0546C48.4137 76.9934 48.309 76.961 48.202 76.9619C48.0949 76.9628 47.9908 76.997 47.904 77.0597C47.8464 77.1012 47.7983 77.1544 47.7629 77.2159C47.7266 77.2767 47.7038 77.3446 47.6961 77.4151C47.6879 77.4856 47.6942 77.5572 47.7147 77.6252C47.7357 77.693 47.7705 77.7556 47.817 77.8092C47.8635 77.8636 47.9211 77.9074 47.986 77.9375C48.0584 77.9681 48.1181 78.0226 48.155 78.092C48.1817 78.1435 48.1947 78.2009 48.1927 78.2588C48.1907 78.3167 48.1739 78.3732 48.1437 78.4227C48.1136 78.4722 48.0712 78.5131 48.0206 78.5416C47.9701 78.57 47.913 78.5849 47.855 78.5849L47.85 78.5883Z" fill="white"/>
<path d="M40.3716 78.1167C39.9626 78.1142 39.5543 78.0838 39.1496 78.0255C36.8779 77.7065 33.9158 76.5062 32.8958 75.0452C32.8699 75.009 32.8518 74.9679 32.8425 74.9244C32.8337 74.881 32.8337 74.8362 32.8425 74.7928C32.8502 74.749 32.8662 74.7072 32.8899 74.6695C32.9137 74.6321 32.9447 74.5997 32.9811 74.5742C33.0175 74.5487 33.0586 74.5306 33.102 74.521C33.1455 74.5125 33.1903 74.5125 33.2338 74.521C33.2776 74.5293 33.3194 74.5456 33.3572 74.5691C33.3945 74.5932 33.4269 74.6241 33.4527 74.6603C34.2615 75.8133 36.8636 77.0236 39.251 77.3613C40.6226 77.5537 41.679 77.417 42.2249 76.9764C42.2585 76.9446 42.2986 76.9204 42.3424 76.9055C42.3861 76.8899 42.4325 76.8836 42.4788 76.8869C42.5251 76.8902 42.5701 76.9032 42.6111 76.9249C42.652 76.9455 42.6882 76.9742 42.7176 77.0093C42.7471 77.045 42.7685 77.0868 42.7801 77.1317C42.7926 77.1761 42.7955 77.2228 42.7886 77.2684C42.7827 77.3143 42.7669 77.3584 42.7421 77.3976C42.7176 77.437 42.6854 77.4712 42.6475 77.498C42.0559 77.9707 41.1998 78.1167 40.3716 78.1167Z" fill="#162B43"/>
<path d="M54.2559 88.448C54.1754 88.4467 54.0981 88.4168 54.0378 88.3636C51.5762 86.2919 49.5213 83.7816 47.9776 80.9603C47.9526 80.9214 47.9359 80.8777 47.9285 80.832C47.9219 80.7865 47.9242 80.74 47.9353 80.6953C47.9471 80.6505 47.9678 80.6086 47.9962 80.5721C48.0246 80.5371 48.06 80.5084 48.1001 80.4877C48.1406 80.4657 48.1852 80.4521 48.2311 80.448C48.2769 80.4441 48.323 80.4496 48.3666 80.4641C48.4102 80.4786 48.4503 80.5019 48.4846 80.5324C48.52 80.5628 48.5487 80.6002 48.5691 80.6421C50.0731 83.3904 52.075 85.8357 54.473 87.8538C54.5252 87.8982 54.5631 87.9569 54.5821 88.0226C54.595 88.0725 54.5963 88.1247 54.5859 88.1751C54.5755 88.2256 54.5536 88.273 54.5221 88.3137C54.4905 88.3544 54.45 88.3874 54.4037 88.4101C54.3575 88.4328 54.3066 88.4446 54.255 88.4447L54.2559 88.448Z" fill="white"/>
<path d="M54.2863 78.5877C54.23 78.5875 54.1746 78.5736 54.1249 78.5472C54.0503 78.5067 53.9937 78.4397 53.9663 78.3595C53.9389 78.2793 53.9427 78.1917 53.977 78.1142C54.4981 76.9269 55.309 75.8891 56.3357 75.0958C56.4066 75.0411 56.4964 75.0167 56.5853 75.0281C56.6742 75.0395 56.755 75.0857 56.8098 75.1566C56.8367 75.1919 56.8568 75.232 56.8689 75.2747C56.8801 75.3177 56.883 75.3624 56.8774 75.4064C56.8719 75.4505 56.8575 75.493 56.8351 75.5313C56.8137 75.5697 56.785 75.6035 56.7506 75.6309C55.8118 76.3538 55.0701 77.3009 54.5939 78.3851C54.5676 78.4454 54.5242 78.4967 54.4691 78.5326C54.414 78.5686 54.3496 78.5878 54.2837 78.5877H54.2863Z" fill="#162B43"/>
<path d="M56.9788 81.3409C56.9471 81.341 56.9155 81.3367 56.885 81.3283C56.8422 81.3161 56.8023 81.2955 56.7675 81.2679C56.7327 81.2402 56.7037 81.2059 56.6821 81.1671C56.6609 81.1281 56.6474 81.0854 56.6424 81.0413C56.6372 80.9974 56.6409 80.9529 56.6534 80.9105C57.0953 79.387 58.1113 78.0939 59.4879 77.3029C59.5658 77.2582 59.6583 77.2461 59.7451 77.2695C59.8318 77.2928 59.9058 77.3496 59.9506 77.4274C59.9954 77.5052 60.0075 77.5976 59.9841 77.6843C59.9607 77.7709 59.9038 77.8448 59.8259 77.8895C58.6021 78.5928 57.6988 79.7425 57.3058 81.097C57.2854 81.1677 57.2424 81.2298 57.1833 81.2738C57.1243 81.3179 57.0525 81.3414 56.9788 81.3409Z" fill="#162B43"/>
<path d="M43.4562 89.3604C43.3969 89.3606 43.3386 89.3452 43.2872 89.3157C43.2361 89.2856 43.1937 89.2428 43.1638 89.1916C43.1341 89.1403 43.1185 89.0821 43.1185 89.0228C43.1185 88.9636 43.1341 88.9053 43.1638 88.854C43.7994 87.7615 44.7389 86.8769 45.8682 86.3075C45.9078 86.2858 45.9516 86.2726 45.9966 86.2686C46.0421 86.2636 46.0881 86.268 46.1317 86.2817C46.1754 86.2953 46.2157 86.3179 46.2501 86.348C46.2854 86.3769 46.3142 86.4128 46.3347 86.4535C46.3552 86.4937 46.3672 86.5376 46.3702 86.5826C46.373 86.6279 46.3667 86.6732 46.3516 86.716C46.337 86.7588 46.3137 86.7982 46.2831 86.8316C46.2524 86.8646 46.2157 86.8916 46.1749 86.911C45.1638 87.4206 44.3225 88.2123 43.7529 89.19C43.7233 89.2411 43.6808 89.2836 43.6296 89.3132C43.5785 89.3429 43.5204 89.3586 43.4613 89.3588L43.4562 89.3604Z" fill="#162B43"/>
<path d="M45.1405 93.7598C45.0876 93.7599 45.0354 93.7475 44.9882 93.7238C44.9409 93.7 44.8999 93.6655 44.8684 93.6231C44.8371 93.5806 44.816 93.5315 44.8067 93.4796C44.7974 93.4275 44.8009 93.3739 44.8169 93.3234C45.4853 91.1339 47.2313 89.9472 47.9514 89.5395C47.9899 89.5172 48.0324 89.5028 48.0765 89.497C48.1205 89.4912 48.1653 89.4942 48.2083 89.5057C48.2512 89.5172 48.2915 89.5371 48.3267 89.5642C48.3619 89.5913 48.3915 89.625 48.4136 89.6636C48.436 89.702 48.4506 89.7446 48.4564 89.7887C48.4623 89.8328 48.4594 89.8776 48.4478 89.9206C48.4363 89.9636 48.4164 90.0039 48.3892 90.0392C48.362 90.0744 48.3281 90.104 48.2894 90.1261C47.6404 90.495 46.0651 91.561 45.4676 93.5209C45.4457 93.5906 45.4022 93.6515 45.3434 93.6948C45.2845 93.7377 45.2134 93.7605 45.1405 93.7598Z" fill="#162B43"/>
<path d="M49.6509 97.0672C49.5625 97.0673 49.4777 97.0327 49.4145 96.9711C49.3513 96.9094 49.3148 96.8254 49.3128 96.7372C49.2858 95.531 49.8072 94.4126 50.8628 93.4133C50.9285 93.356 51.0138 93.3264 51.1008 93.3305C51.1879 93.3345 51.2701 93.3721 51.3301 93.4352C51.3905 93.4981 51.4243 93.5819 51.4243 93.669C51.4243 93.7562 51.3905 93.84 51.3301 93.9028C50.9921 94.2244 49.9568 95.2035 49.9914 96.722C49.9923 96.7664 49.9846 96.8105 49.9686 96.852C49.9524 96.8931 49.9283 96.9307 49.8976 96.9626C49.8669 96.9948 49.8302 97.0206 49.7895 97.0385C49.7489 97.0564 49.7053 97.0662 49.661 97.0672H49.6509Z" fill="#162B43"/>
<path d="M59.9696 84.4418C59.896 84.4415 59.8245 84.4172 59.766 84.3726C59.7071 84.3285 59.6646 84.2662 59.6451 84.1954C59.4659 83.5606 60.0338 82.7985 60.3879 82.4001C60.9018 81.8227 61.5246 81.3678 61.9742 81.242C62.0173 81.2288 62.0626 81.2242 62.1074 81.2287C62.1523 81.2332 62.1958 81.2466 62.2354 81.2682C62.275 81.2897 62.3099 81.3189 62.3381 81.3542C62.3663 81.3894 62.3871 81.4299 62.3993 81.4733C62.4111 81.5167 62.4146 81.5619 62.4094 81.6066C62.4038 81.6514 62.3892 81.6945 62.3665 81.7335C62.3439 81.7725 62.3136 81.8065 62.2776 81.8337C62.2415 81.8607 62.2004 81.8805 62.1568 81.8919C61.8838 81.9687 61.3624 82.3224 60.8891 82.8491C60.404 83.3944 60.2401 83.8265 60.2925 84.0122C60.3158 84.0974 60.3049 84.1883 60.262 84.2654C60.2404 84.3039 60.2118 84.338 60.1775 84.3659C60.1424 84.3929 60.1026 84.4132 60.06 84.4258C60.0324 84.433 60.0041 84.4373 59.9755 84.4385L59.9696 84.4418Z" fill="#162B43"/>
<path d="M65.0673 77.2269C64.845 75.4467 65.0453 73.0353 66.8057 72.6841C67.6812 72.5094 68.539 72.9914 69.3047 73.4497C76.3824 77.6804 83.768 81.3748 91.3991 84.5019C91.8885 84.7028 92.4023 84.918 92.7259 85.3367C93.7206 86.6239 92.2189 88.3323 90.8819 89.2531L72.331 101.982C71.0709 102.847 69.7957 103.629 68.7165 102.911C68.2762 102.619 67.9271 100.986 67.6559 97.9605C67.2587 93.5241 66.5522 89.1198 65.9995 84.6994L65.0673 77.2269Z" fill="#DBF122"/>
<path d="M75.2001 97.1704C75.1286 97.1707 75.0587 97.1483 75.0007 97.1065C74.9427 97.0646 74.8995 97.0054 74.8773 96.9374C74.8551 96.8694 74.8551 96.7961 74.8773 96.7281C74.8995 96.6602 74.9427 96.6011 75.0007 96.5593L76.4044 95.5363C76.4405 95.5099 76.4816 95.4909 76.5251 95.4805C76.5686 95.4701 76.6138 95.4684 76.658 95.4755C76.7464 95.4893 76.8257 95.5376 76.8785 95.6097C76.9049 95.6458 76.9239 95.6868 76.9344 95.7302C76.9448 95.7737 76.9465 95.8188 76.9394 95.8629C76.9326 95.9068 76.9173 95.9489 76.8942 95.9869C76.8712 96.0248 76.8409 96.0579 76.805 96.0841L75.4004 97.1071C75.3428 97.1492 75.2732 97.1719 75.2018 97.1721L75.2001 97.1704Z" fill="white"/>
<path d="M82.3565 91.9559C82.2852 91.9559 82.2157 91.9334 82.158 91.8916C82.1002 91.8498 82.0572 91.7908 82.0351 91.7231C82.013 91.6553 82.0129 91.5824 82.0348 91.5146C82.0567 91.4468 82.0995 91.3877 82.1571 91.3456L86.2744 88.3458C87.3984 87.5271 88.3618 86.3944 88.0272 85.9166C87.9317 85.7807 87.5514 85.5182 86.7697 85.1882C81.0699 82.7812 75.5682 79.9307 70.3154 76.6631C68.954 75.8191 68.1756 75.5785 67.9018 75.6393C67.175 75.8005 67.3001 77.0522 67.5232 78.5488C67.5655 78.8341 67.6077 79.1033 67.6314 79.3481C67.6381 79.4063 67.6948 79.8267 67.7455 80.1972C67.819 80.7416 67.868 81.1038 67.8764 81.1822C67.8814 81.2266 67.8774 81.2715 67.8648 81.3144C67.8522 81.3572 67.8313 81.3972 67.8031 81.4319C67.775 81.4666 67.7403 81.4953 67.7009 81.5165C67.6616 81.5377 67.6184 81.5509 67.5739 81.5553C67.5295 81.5602 67.4846 81.5563 67.4418 81.5438C67.3989 81.5313 67.359 81.5104 67.3243 81.4824C67.2895 81.4544 67.2607 81.4198 67.2394 81.3806C67.2182 81.3414 67.2049 81.2984 67.2004 81.254C67.1928 81.1789 67.1285 80.7054 67.0719 80.2884C67.0043 79.7904 66.9629 79.4831 66.9561 79.4207C66.9316 79.1886 66.8919 78.9261 66.8505 78.6475C66.6401 77.232 66.351 75.2907 67.7522 74.9801C67.9593 74.9345 68.5889 74.7952 70.6695 76.09C75.8922 79.3383 81.3622 82.1721 87.0291 84.5653C88.2697 85.0877 88.5013 85.4195 88.5782 85.5283C89.4478 86.7717 87.1415 88.5476 86.6691 88.8911L82.5526 91.8901C82.4955 91.9316 82.4271 91.9546 82.3565 91.9559Z" fill="white"/>
<path d="M67.928 85.5935C67.8443 85.5939 67.7634 85.5634 67.7009 85.5077C67.6385 85.4521 67.5989 85.3752 67.5899 85.2921L67.4116 83.6378C67.4048 83.593 67.4074 83.5473 67.4192 83.5036C67.4309 83.4597 67.4512 83.4186 67.4791 83.3828C67.507 83.347 67.5418 83.3172 67.5815 83.2951C67.6212 83.2733 67.6649 83.2595 67.7099 83.2546C67.7551 83.2494 67.8009 83.2537 67.8443 83.2672C67.8877 83.2805 67.9279 83.3023 67.9626 83.3314C67.9975 83.3604 68.0262 83.3961 68.047 83.4364C68.0677 83.4767 68.0801 83.5208 68.0835 83.566L68.2618 85.2204C68.2713 85.3094 68.245 85.3985 68.1887 85.4681C68.1325 85.5377 68.0509 85.5822 67.9618 85.5918H67.928V85.5935Z" fill="white"/>
<path d="M76.6689 91.0306C76.625 91.3387 77.0653 92.5837 78.1707 91.8815C78.7124 91.5371 78.6068 90.5386 78.0422 90.2347C77.4777 89.9308 76.647 90.3976 76.6706 91.0391L76.6689 91.0306Z" fill="white"/>
<path d="M38.089 23.0632C36.9253 24.2254 36.4883 26.2352 37.6022 27.4422C38.0907 27.9722 38.7963 28.2736 39.3228 28.769C40.4586 29.8368 40.5465 31.5621 40.3369 33.078C40.1274 34.5939 39.6997 36.1394 40.0716 37.6267C40.4434 39.1139 42.0204 40.4729 43.523 39.9757C44.2143 39.747 44.7247 39.1865 45.1769 38.6328C47.2822 36.0556 48.8776 33.1021 49.8782 29.9296C49.9021 29.8535 49.9454 29.7849 50.004 29.7305C50.0625 29.6762 50.1342 29.6381 50.212 29.6199C50.2895 29.6011 50.3705 29.6031 50.447 29.6258C50.524 29.6476 50.5939 29.6892 50.6498 29.7465C51.7569 30.8716 53.1657 31.7469 54.7502 31.9368C56.4328 32.1394 58.2896 31.3907 59.089 29.9837C59.1196 29.9287 59.161 29.8804 59.2107 29.8418C59.2606 29.8023 59.3181 29.7735 59.3797 29.7574C59.4408 29.7421 59.5042 29.739 59.5665 29.7482C59.629 29.7574 59.6888 29.7796 59.7423 29.8132C64.9355 33.0949 71.1614 34.8413 77.3721 34.7509C79.1409 34.7248 81.3584 34.1078 81.8773 32.6517C81.9073 32.5713 81.9533 32.4978 82.0125 32.4357C82.072 32.3738 82.1433 32.3244 82.2221 32.2905C82.3022 32.2561 82.3885 32.2386 82.4757 32.239C82.5627 32.2377 82.6491 32.2547 82.7292 32.2888C85.7314 33.4939 89.0699 33.5677 92.1226 32.4964C93.1367 32.1326 94.1204 31.6287 94.8421 30.8539C96.714 28.8475 96.2965 25.6806 95.1539 23.2176C92.4885 17.4721 86.3217 13.4113 79.817 13.0171C79.7242 13.0115 79.6346 12.9817 79.557 12.9306C79.4795 12.8796 79.4167 12.8091 79.3749 12.7262C79.3332 12.6433 79.3139 12.551 79.3191 12.4583C79.3243 12.3657 79.3538 12.276 79.4045 12.1983C80.8767 9.95988 80.6849 6.81658 79.1645 4.55786C77.4566 2.01891 74.3829 0.540947 71.2704 0.135795C68.1579 -0.269357 64.9929 0.285195 61.9683 1.09719C58.2388 2.10247 54.4147 3.66146 52.1913 6.71529C50.725 8.73176 50.1148 11.1686 49.6923 13.6164C49.6718 13.736 49.6159 13.8468 49.5319 13.9345C49.4479 14.0222 49.3395 14.0828 49.2207 14.1085C49.1021 14.1344 48.9784 14.1241 48.8657 14.079C48.7529 14.0338 48.6564 13.9559 48.5886 13.8552C48.0224 13.0162 47.3691 12.2431 46.5045 11.7037C45.1828 10.8782 43.2086 10.8039 42.186 11.9569C41.6038 12.6102 41.4331 13.51 41.368 14.3684C41.2887 15.4222 41.3358 16.4818 41.5083 17.5244C41.5944 18.0463 41.7112 18.5626 41.8581 19.0707C41.9705 19.459 42.2258 19.9232 42.1776 20.3368C42.0931 21.0501 41.2615 21.2653 40.6767 21.5025C39.7276 21.8806 38.8107 22.3423 38.089 23.0632Z" fill="#DBF122"/>
<path d="M90.8997 103.482C90.81 103.482 90.7241 103.447 90.6607 103.383C90.5973 103.32 90.5616 103.234 90.5616 103.145V94.4211C90.5616 94.3316 90.5973 94.2457 90.6607 94.1824C90.7241 94.1191 90.81 94.0835 90.8997 94.0835C90.9893 94.0835 91.0753 94.1191 91.1387 94.1824C91.2021 94.2457 91.2377 94.3316 91.2377 94.4211V103.145C91.2377 103.234 91.2021 103.32 91.1387 103.383C91.0753 103.447 90.9893 103.482 90.8997 103.482Z" fill="#162B43"/>
<path d="M91.1355 108.199C91.0458 108.199 90.9598 108.164 90.8964 108.1C90.833 108.037 90.7974 107.951 90.7974 107.862V106.68C90.7974 106.59 90.833 106.504 90.8964 106.441C90.9598 106.378 91.0458 106.342 91.1355 106.342C91.2251 106.342 91.3111 106.378 91.3745 106.441C91.4379 106.504 91.4735 106.59 91.4735 106.68V107.862C91.4735 107.951 91.4379 108.037 91.3745 108.1C91.3111 108.164 91.2251 108.199 91.1355 108.199Z" fill="#162B43"/>
<path d="M91.8437 112.44C91.754 112.44 91.668 112.405 91.6046 112.342C91.5412 112.278 91.5056 112.192 91.5056 112.103V110.688C91.5056 110.599 91.5412 110.513 91.6046 110.449C91.668 110.386 91.754 110.351 91.8437 110.351C91.9333 110.351 92.0193 110.386 92.0827 110.449C92.1461 110.513 92.1817 110.599 92.1817 110.688V112.103C92.1817 112.192 92.1461 112.278 92.0827 112.342C92.0193 112.405 91.9333 112.44 91.8437 112.44Z" fill="#162B43"/>
<path d="M99.1226 90.0727C101.776 87.4214 105.108 86.9589 106.357 87.3066C107.606 87.6544 108.447 88.7534 108.167 89.9089C109.869 89.8675 111.801 90.7774 112.631 92.122C112.982 92.6968 113.182 93.3508 113.212 94.0233C113.243 94.6958 113.103 95.3651 112.806 95.9693C112.724 96.1336 112.686 96.3164 112.696 96.4997C112.706 96.683 112.763 96.8606 112.862 97.0151C113.409 97.8836 113.99 99.6097 112.729 101.043C112.614 101.169 112.54 101.326 112.516 101.494C112.492 101.663 112.518 101.834 112.593 101.987C113.1 103.023 113.607 104.294 111.983 105.804C111.859 105.92 111.765 106.063 111.706 106.221C111.648 106.38 111.627 106.55 111.645 106.718C111.953 109.835 107.82 111.098 106.533 111.123C101.476 111.217 99.4462 107.275 96.6675 107.97C96.2737 108.069 94.7863 108.635 94.2624 107.864C93.053 106.085 93.9953 102.705 93.9421 99.1649C93.8998 96.4015 93.2753 94.4052 93.5837 93.4785C94.3671 91.1159 96.0768 93.1113 99.1226 90.0727Z" fill="#007EEF"/>
<path d="M107.852 96.9943C107.799 96.9942 107.747 96.9817 107.7 96.958C107.66 96.9379 107.624 96.9102 107.595 96.8765C107.566 96.8427 107.544 96.8036 107.531 96.7613C107.516 96.7192 107.511 96.6747 107.514 96.6305C107.518 96.5863 107.53 96.5433 107.551 96.5039C107.862 95.8919 107.878 95.1846 107.672 95.0571C107.633 95.0347 107.598 95.0045 107.571 94.9684C107.543 94.9323 107.523 94.891 107.512 94.8469C107.501 94.8028 107.499 94.7569 107.506 94.7119C107.513 94.6673 107.529 94.6245 107.552 94.5861C107.576 94.5474 107.608 94.5139 107.645 94.4878C107.682 94.4617 107.724 94.4434 107.769 94.4342C107.813 94.4249 107.859 94.4249 107.904 94.4342C107.949 94.4428 107.991 94.4603 108.029 94.4857C108.651 94.8714 108.581 95.9712 108.153 96.8111C108.125 96.8666 108.081 96.9133 108.028 96.9462C107.975 96.978 107.914 96.9946 107.852 96.9943Z" fill="white"/>
<path d="M107.731 103.325C107.685 103.325 107.639 103.315 107.597 103.297C107.555 103.279 107.517 103.253 107.485 103.219C107.453 103.186 107.429 103.147 107.413 103.103C107.397 103.06 107.39 103.014 107.393 102.969C107.396 102.908 107.416 102.85 107.45 102.8C107.795 102.293 107.788 101.664 107.435 101.032C107.391 100.954 107.38 100.861 107.405 100.775C107.429 100.689 107.487 100.616 107.566 100.572C107.644 100.528 107.737 100.517 107.823 100.542C107.91 100.566 107.983 100.624 108.027 100.702C108.506 101.557 108.5 102.46 108.011 103.179C107.98 103.224 107.938 103.262 107.889 103.288C107.84 103.313 107.785 103.327 107.73 103.326L107.731 103.325Z" fill="white"/>
<path d="M107.445 109.023C107.375 109.023 107.307 109.001 107.25 108.961C107.193 108.921 107.15 108.864 107.127 108.798C107.103 108.733 107.101 108.661 107.119 108.594C107.138 108.527 107.177 108.468 107.231 108.424C107.317 108.315 107.365 108.181 107.367 108.042C107.377 107.942 107.367 107.841 107.339 107.744C107.31 107.647 107.262 107.558 107.198 107.48C107.14 107.414 107.11 107.327 107.115 107.24C107.12 107.152 107.159 107.069 107.223 107.01C107.288 106.95 107.373 106.918 107.461 106.921C107.549 106.923 107.633 106.959 107.694 107.022C107.822 107.168 107.918 107.337 107.978 107.521C108.037 107.704 108.059 107.898 108.042 108.09C108.016 108.452 107.873 108.772 107.66 108.946C107.599 108.996 107.523 109.023 107.445 109.023Z" fill="white"/>
<path d="M101.061 92.0683C100.985 92.0686 100.911 92.0431 100.851 91.9958C100.791 91.9486 100.748 91.8825 100.731 91.8083C100.713 91.7342 100.721 91.6563 100.754 91.5873C100.786 91.5184 100.841 91.4624 100.909 91.4284C102.456 90.6561 105.37 89.4187 107.506 89.807C107.593 89.8243 107.669 89.875 107.719 89.948C107.756 90.0025 107.777 90.0668 107.778 90.1329C107.779 90.1989 107.76 90.2638 107.725 90.3195C107.689 90.3752 107.638 90.4192 107.578 90.4462C107.517 90.4732 107.45 90.4819 107.385 90.4713C105.949 90.2096 103.751 90.7642 101.216 92.0328C101.168 92.0562 101.115 92.0684 101.061 92.0683Z" fill="white"/>
<path d="M14.7218 111.232C13.8657 111.232 13.0231 110.676 12.7299 109.863C12.3918 108.924 12.8372 107.784 13.722 107.32C13.7613 107.3 13.8044 107.287 13.8486 107.283C13.8928 107.279 13.9374 107.284 13.9798 107.297C14.0222 107.31 14.0615 107.332 14.0956 107.36C14.1297 107.389 14.1578 107.424 14.1784 107.463C14.199 107.502 14.2116 107.545 14.2156 107.589C14.2196 107.634 14.2148 107.678 14.2015 107.72C14.1882 107.763 14.1668 107.802 14.1383 107.836C14.1098 107.87 14.0749 107.898 14.0355 107.919C13.449 108.226 13.1423 109.016 13.3662 109.635C13.5902 110.253 14.328 110.669 14.9719 110.531C15.0597 110.513 15.1512 110.53 15.2263 110.579C15.3014 110.628 15.354 110.704 15.3725 110.792C15.391 110.88 15.3739 110.971 15.3249 111.046C15.2759 111.121 15.1991 111.174 15.1114 111.192C14.9833 111.219 14.8527 111.233 14.7218 111.232Z" fill="#162B43"/>
<path d="M70.7295 79.3482C70.5951 79.2723 69.3773 78.8899 69.9546 80.4911C70.5197 82.053 71.2593 83.5463 72.1594 84.9427C72.6158 85.65 73.093 86.3441 73.591 87.025C73.935 87.4943 74.9103 88.6895 75.4596 88.9275C75.9413 89.1369 76.9934 89.6492 75.7976 86.706C75.2737 85.4044 72.1155 80.1324 70.7295 79.3482Z" fill="white"/>
<path d="M27.7955 84.5139C27.7175 84.5137 27.642 84.4866 27.5817 84.4371C25.5491 82.7593 24.0434 80.5322 23.2446 78.0222C23.1661 77.769 23.0892 77.4812 23.1703 77.1781C23.2514 76.8751 23.4787 76.6489 23.6824 76.4708C24.6042 75.663 25.6434 74.9996 26.7645 74.5033C26.8861 74.4494 27.0188 74.4249 27.1516 74.4318C27.2845 74.4388 27.4138 74.4769 27.5292 74.5432C27.6445 74.6095 27.7425 74.7021 27.8152 74.8134C27.8879 74.9247 27.9333 75.0515 27.9477 75.1836C28.237 77.858 29.096 80.4395 30.4669 82.7549C30.4896 82.793 30.5045 82.8351 30.5109 82.879C30.5167 82.9229 30.5144 82.9675 30.5041 83.0106C30.4932 83.0538 30.4736 83.0942 30.4466 83.1297C30.3929 83.2012 30.313 83.2486 30.2244 83.2613C30.1804 83.268 30.1356 83.2657 30.0925 83.2546C30.0496 83.2436 30.0091 83.2244 29.9734 83.198C29.9392 83.1711 29.9105 83.1379 29.8889 83.1001C28.4673 80.6997 27.5769 78.0231 27.2775 75.2503C27.2741 75.2241 27.2649 75.199 27.2505 75.1769C27.2357 75.1549 27.216 75.1367 27.193 75.1237C27.1702 75.1097 27.1443 75.1016 27.1176 75.1001C27.0909 75.0986 27.0642 75.1038 27.04 75.1152C25.9811 75.5837 24.9995 76.2098 24.1286 76.9722C23.9934 77.0904 23.859 77.217 23.8235 77.3478C23.7881 77.4786 23.8379 77.6458 23.8903 77.812C24.6485 80.1982 26.0792 82.3154 28.0111 83.9104C28.0649 83.9546 28.1037 84.0143 28.1222 84.0814C28.1408 84.1484 28.1381 84.2196 28.1146 84.2851C28.0911 84.3506 28.0479 84.4073 27.991 84.4473C27.934 84.4874 27.8661 84.5089 27.7964 84.5089L27.7955 84.5139Z" fill="#162B43"/>
<path d="M27.2969 70.7991C27.4981 69.4351 26.8964 68.0744 26.1256 66.9299C25.3549 65.7853 24.4008 64.7606 23.75 63.5435C22.7892 61.7448 22.5669 59.6785 22.4967 57.6215C22.4938 57.5312 22.4685 57.443 22.4232 57.3649C22.3778 57.2867 22.3137 57.221 22.2367 57.1736C22.1597 57.1262 22.0721 57.0986 21.9818 57.0932C21.8915 57.0879 21.8013 57.105 21.7192 57.1429C21.6101 57.1937 21.521 57.2792 21.4657 57.386L21.4581 57.4004C20.5996 59.0692 19.8314 60.7829 19.1569 62.534C18.3025 64.7505 17.5917 67.1654 18.1512 69.4731C18.6093 71.3654 19.9487 72.5117 21.6161 73.3439C23.0528 74.0639 24.3408 74.0943 25.7428 73.1456C26.5423 72.6062 27.155 71.7655 27.2969 70.7991Z" fill="#DDE3EB"/>
<path d="M22.9024 72.272C22.8429 72.2714 22.7846 72.2551 22.7334 72.2247C21.5823 71.5343 20.7482 70.3104 20.4516 68.8704C20.1549 67.4304 20.4296 65.9761 21.2122 64.8839C21.2421 64.8422 21.2811 64.8078 21.3263 64.7834C21.3713 64.759 21.4213 64.7452 21.4725 64.7429C21.5238 64.741 21.5749 64.7505 21.6221 64.7708C21.6691 64.7919 21.7109 64.823 21.7446 64.8619C23.2058 66.5771 24.618 68.4332 24.4591 70.6016C24.4559 70.646 24.4439 70.6893 24.4239 70.729C24.4039 70.7688 24.3762 70.8042 24.3424 70.8332C24.3086 70.8622 24.2694 70.8843 24.2271 70.8981C24.1848 70.912 24.1401 70.9173 24.0957 70.9139C24.0513 70.9106 24.008 70.8987 23.9683 70.8787C23.9285 70.8587 23.8931 70.8311 23.8641 70.7974C23.8345 70.7641 23.8118 70.7252 23.7973 70.683C23.7828 70.6409 23.7768 70.5963 23.7796 70.5518C23.9098 68.7792 22.7782 67.162 21.5198 65.6562C21.0296 66.5425 20.8775 67.6414 21.1057 68.7387C21.3668 69.9955 22.086 71.0574 23.079 71.6508C23.1263 71.6792 23.1659 71.7187 23.1943 71.7659C23.2228 71.8132 23.2392 71.8666 23.2422 71.9217C23.2452 71.9767 23.2347 72.0316 23.2116 72.0817C23.1884 72.1317 23.1534 72.1753 23.1094 72.2087C23.0507 72.2535 22.9788 72.2778 22.9049 72.2779L22.9024 72.272Z" fill="white"/>
<path d="M101.687 90.7295C101.611 90.7294 101.536 90.7032 101.476 90.6552C101.416 90.6072 101.375 90.5402 101.358 90.4653C101.14 89.4879 100.669 86.8358 101.011 83.3498C101.011 83.322 101.011 83.2933 101.017 83.2654C101.026 83.1093 101.038 82.8738 101.218 82.6856C101.431 82.4627 101.743 82.4323 101.911 82.4197C102.864 82.3362 103.823 82.3673 104.769 82.5125C105.014 82.5448 105.238 82.67 105.394 82.8622C105.55 83.0544 105.626 83.299 105.607 83.5457L105.177 88.1036C105.173 88.148 105.16 88.191 105.139 88.2304C105.118 88.2698 105.09 88.3047 105.055 88.3331C105.021 88.3615 104.982 88.3829 104.939 88.396C104.896 88.4091 104.852 88.4137 104.807 88.4096C104.763 88.4054 104.72 88.3926 104.68 88.3718C104.641 88.351 104.606 88.3226 104.577 88.2883C104.549 88.254 104.528 88.2145 104.514 88.1719C104.501 88.1294 104.497 88.0846 104.501 88.0403L104.932 83.4748C104.934 83.4001 104.907 83.3275 104.857 83.2719C104.807 83.2163 104.738 83.182 104.663 83.176C103.771 83.0395 102.866 83.0111 101.968 83.0915C101.781 83.1084 101.722 83.1329 101.705 83.1506C101.695 83.2004 101.69 83.251 101.69 83.3017C101.689 83.3398 101.686 83.3779 101.682 83.4157C101.343 86.9034 101.851 89.5774 102.02 90.3176C102.039 90.4047 102.024 90.496 101.976 90.5716C101.929 90.6472 101.853 90.7009 101.766 90.7211C101.74 90.7254 101.714 90.7268 101.687 90.7253V90.7295Z" fill="#162B43"/>
<path d="M109.369 72.2173C109.345 72.2174 109.321 72.2148 109.298 72.2097C109.254 72.2004 109.213 72.1826 109.177 72.1574C109.14 72.1322 109.109 72.1001 109.085 72.0628C109.036 71.9879 109.02 71.8969 109.038 71.8096C109.676 68.8554 108.741 66.7452 106.004 64.9617C105.929 64.9129 105.876 64.8363 105.858 64.7487C105.839 64.6611 105.856 64.5696 105.905 64.4945C105.954 64.4194 106.031 64.3668 106.118 64.3482C106.206 64.3296 106.298 64.3466 106.373 64.3954C108.239 65.6091 110.613 67.7125 109.699 71.9514C109.682 72.0267 109.641 72.0942 109.581 72.143C109.521 72.1915 109.446 72.218 109.369 72.2182V72.2173Z" fill="white"/>
<path d="M107.527 75.1623C107.452 75.1624 107.379 75.1376 107.32 75.0918C107.26 75.0459 107.218 74.9816 107.199 74.9091C107.18 74.8371 107.185 74.7609 107.214 74.6922C107.243 74.6235 107.293 74.5662 107.358 74.5292C107.841 74.2532 108.089 73.8202 108.328 73.4007C108.35 73.3618 108.38 73.3277 108.415 73.3003C108.451 73.2729 108.491 73.2528 108.535 73.2412C108.6 73.2221 108.669 73.2231 108.734 73.244C108.799 73.2649 108.855 73.3048 108.897 73.3585C108.939 73.4122 108.963 73.4771 108.967 73.5449C108.971 73.6127 108.955 73.6801 108.92 73.7384C108.666 74.1891 108.341 74.7512 107.698 75.1176C107.646 75.147 107.587 75.1624 107.527 75.1623Z" fill="white"/>
<path d="M96.9118 44.7802C96.8426 44.7802 96.775 44.759 96.7183 44.7195C96.6611 44.6802 96.6177 44.6242 96.594 44.5591C96.5702 44.4941 96.567 44.4234 96.5847 44.3565C96.6024 44.2904 96.6402 44.2314 96.6929 44.1877C96.9969 43.9298 97.2245 43.5939 97.3512 43.2162C97.478 42.8385 97.499 42.4334 97.412 42.0447C97.325 41.6559 97.1333 41.2983 96.8576 41.0104C96.582 40.7226 96.2328 40.5154 95.8478 40.4113C95.8049 40.3999 95.7647 40.3801 95.7295 40.3531C95.6949 40.3259 95.6662 40.292 95.645 40.2535C95.6229 40.215 95.6086 40.1726 95.6027 40.1286C95.5966 40.0846 95.5995 40.0398 95.6112 39.9969C95.623 39.9542 95.6428 39.9141 95.6695 39.8787C95.6969 39.8444 95.7308 39.8157 95.7692 39.7943C95.8074 39.7716 95.8501 39.7572 95.8943 39.7521C95.9383 39.746 95.9832 39.7489 96.0261 39.7606C96.5303 39.8964 96.9878 40.1672 97.3491 40.5439C97.7104 40.9205 97.9618 41.3885 98.0761 41.8975C98.1904 42.4064 98.1633 42.9369 97.9977 43.4316C97.8322 43.9262 97.5344 44.3663 97.1366 44.7043C97.0733 44.7559 96.9934 44.7829 96.9118 44.7802Z" fill="white"/>
<path d="M35.568 45.544C35.5312 45.544 35.4947 45.5381 35.4598 45.5263C34.4339 45.1786 33.8051 44.007 34.0882 42.9578C34.3713 41.9086 35.5063 41.214 36.5678 41.4301C36.6128 41.4369 36.656 41.453 36.6945 41.4773C36.7331 41.5018 36.7664 41.5336 36.7926 41.571C36.819 41.6088 36.8374 41.6516 36.8467 41.6968C36.8558 41.7415 36.8558 41.7875 36.8467 41.8322C36.8375 41.8769 36.8194 41.9193 36.7934 41.9568C36.7674 41.9943 36.7341 42.0262 36.6954 42.0504C36.6567 42.0746 36.6136 42.0907 36.5686 42.0977C36.5236 42.1051 36.4776 42.103 36.4334 42.0918C35.7218 41.9475 34.9308 42.4345 34.7432 43.1351C34.5556 43.8356 34.9908 44.6544 35.6796 44.8874C35.7556 44.913 35.82 44.9647 35.8613 45.0334C35.8921 45.0847 35.9088 45.1432 35.9095 45.2031C35.9102 45.2629 35.895 45.3219 35.8655 45.3739C35.8359 45.426 35.793 45.4692 35.7412 45.4993C35.6893 45.5293 35.6305 45.545 35.5705 45.5449L35.568 45.544Z" fill="white"/>
<path d="M49.0272 59.0001H48.9993C48.91 58.9928 48.8272 58.9504 48.7692 58.8821C48.7112 58.8139 48.6827 58.7255 48.69 58.6363C48.7455 58.074 48.9482 57.5363 49.2776 57.077C49.6071 56.6177 50.0518 56.253 50.567 56.0197C50.6078 56.0007 50.6521 55.9901 50.6971 55.9885C50.7421 55.987 50.7869 55.9944 50.8289 56.0104C50.8708 56.0268 50.9092 56.0508 50.9422 56.0813C50.9746 56.1125 51.0005 56.1498 51.0182 56.191C51.0366 56.2323 51.0464 56.2768 51.047 56.3219C51.0474 56.3667 51.039 56.4111 51.0225 56.4527C51.0054 56.4944 50.9801 56.5323 50.9481 56.5641C50.9167 56.5962 50.879 56.6215 50.8374 56.6384C50.4327 56.8217 50.0834 57.1082 49.8248 57.4692C49.5662 57.8302 49.4074 58.2528 49.3644 58.6945C49.3564 58.7784 49.3172 58.8563 49.2547 58.9128C49.1921 58.9693 49.1107 59.0005 49.0263 59.0001H49.0272Z" fill="#162B43"/>
<path d="M63.6796 66.6075H63.6619C60.6609 66.4572 57.7622 64.6745 56.2765 62.0655C56.1455 61.8351 56.023 61.5954 55.9021 61.3641C55.5134 60.6045 55.1466 59.8954 54.5204 59.4472C54.0902 59.14 53.4158 59.0733 52.9147 59.2894C52.6958 59.3839 52.4245 59.573 52.3772 59.9351C52.3626 60.021 52.3153 60.098 52.2452 60.1499C52.1751 60.2018 52.0877 60.2247 52.0011 60.2137C51.9147 60.2026 51.8359 60.1588 51.7811 60.0911C51.7263 60.0235 51.6998 59.9374 51.707 59.8507C51.7763 59.324 52.1093 58.9053 52.6451 58.669C53.3583 58.3592 54.2905 58.4538 54.9108 58.8977C55.6714 59.4413 56.094 60.2609 56.5005 61.0543C56.6162 61.2797 56.7362 61.5135 56.8605 61.7296C58.2346 64.1428 60.917 65.7921 63.6923 65.9305C63.759 65.9322 63.8238 65.9537 63.8783 65.9921C63.9329 66.0305 63.9748 66.0842 63.9989 66.1464C64.0229 66.2086 64.028 66.2765 64.0134 66.3416C63.9989 66.4067 63.9654 66.466 63.9171 66.5121C63.8524 66.5739 63.7658 66.6076 63.6763 66.6058L63.6796 66.6075Z" fill="white"/>
<path d="M69.363 56.5575C68.741 56.5575 68.255 56.149 67.8215 55.7844C67.4682 55.4881 67.1353 55.2079 66.7659 55.1412C66.2834 55.0568 65.8017 55.3404 65.2921 55.6476C65.0667 55.7861 64.8346 55.9132 64.5957 56.0291C64.4176 56.112 64.2209 56.1469 64.025 56.1305C63.8292 56.114 63.6411 56.0468 63.4793 55.9355C63.3181 55.8278 63.188 55.6798 63.1018 55.5062C63.0157 55.3326 62.9765 55.1396 62.9883 54.9462C63.045 54.202 63.3919 53.5098 63.9543 53.0184C64.1832 52.8084 64.4519 52.6462 64.7445 52.5414C65.037 52.4366 65.3476 52.3913 65.658 52.4081C65.8471 52.4249 66.0353 52.4514 66.2217 52.4874C66.8226 52.593 67.175 52.636 67.431 52.2916C67.5484 52.1264 67.6111 51.9287 67.6102 51.7261L67.7108 43.6653C67.7115 43.5985 67.7321 43.5335 67.7699 43.4784C67.8077 43.4233 67.861 43.3806 67.923 43.3558C67.9851 43.3309 68.0531 43.325 68.1185 43.3388C68.1839 43.3526 68.2438 43.3854 68.2905 43.4332C68.3216 43.4649 68.3462 43.5025 68.3627 43.5438C68.3792 43.5851 68.3875 43.6292 68.3869 43.6737L68.2854 51.7345C68.2855 52.0796 68.1764 52.4158 67.9736 52.6951C67.4556 53.3897 66.7059 53.2581 66.1051 53.1526C65.9413 53.1207 65.776 53.097 65.6098 53.0817C65.3886 53.0706 65.1673 53.1038 64.959 53.1793C64.7508 53.2548 64.5597 53.3711 64.3971 53.5214C63.9696 53.8928 63.705 54.4167 63.6602 54.9808C63.6553 55.0577 63.6708 55.1345 63.7052 55.2035C63.7397 55.2724 63.7918 55.331 63.8562 55.3733C63.9216 55.4184 63.9976 55.4458 64.0768 55.4526C64.1562 55.4592 64.2359 55.4452 64.3084 55.4121C64.5253 55.3058 64.7368 55.1893 64.9431 55.0627C65.5346 54.7099 66.1516 54.3461 66.8868 54.4769C67.4336 54.5757 67.8713 54.9437 68.2576 55.2678C68.6801 55.6223 69.0418 55.9279 69.4568 55.8772C69.8227 55.8325 70.1261 55.5075 70.4472 55.1631C70.8368 54.7453 71.2788 54.2718 71.9321 54.2465C72.4653 54.2254 72.9327 54.5225 73.3451 54.785C73.826 55.0905 74.1353 55.2712 74.4133 55.1226C74.471 55.0981 74.5344 55.0902 74.5964 55.0996C74.6584 55.109 74.7166 55.1355 74.7644 55.1761C74.8121 55.2166 74.8477 55.2696 74.8671 55.3292C74.8864 55.3888 74.8888 55.4526 74.8739 55.5134C74.854 55.5951 74.8043 55.6665 74.7345 55.7135C74.093 56.0595 73.5031 55.6839 72.9825 55.353C72.6217 55.1235 72.2803 54.9065 71.9583 54.9192C71.583 54.9344 71.2822 55.2568 70.9441 55.6215C70.5723 56.0199 70.1514 56.4706 69.5413 56.5457C69.481 56.553 69.4203 56.557 69.3596 56.5575H69.363Z" fill="white"/>
<path d="M57.4782 53.473C56.284 53.4831 55.1051 53.2045 54.042 52.661C51.7915 51.4843 50.5661 49.4223 50.4977 46.6976C50.3878 42.333 54.5381 40.7647 56.7514 40.5453C60.0136 40.2203 62.8573 42.0046 63.9965 45.0889C64.5593 46.6001 64.5019 48.2722 63.8368 49.7414C63.3112 50.9332 62.4297 51.9705 61.5373 52.4466C60.2896 53.1152 58.8967 53.4676 57.4808 53.473H57.4782ZM54.3513 52.0625C56.3661 53.1159 58.9944 53.0349 61.2102 51.8515C62.4956 51.1653 64.5137 48.4617 63.3543 45.3227C62.3249 42.5372 59.7566 40.9234 56.8106 41.2171C54.817 41.4155 51.0715 42.8124 51.1687 46.6808C51.232 49.1809 52.3028 50.9914 54.3513 52.0625Z" fill="#162B43"/>
<path d="M78.7825 52.9534C76.8565 52.9534 74.8291 52.3338 73.4583 50.7782C72.6462 49.8548 72.162 48.5921 72.0969 47.223C71.9988 45.1779 72.549 43.483 73.7313 42.1856C75.239 40.5313 77.5022 39.8619 79.1189 39.7877C81.7903 39.6636 84.7456 41.6691 85.2256 45.7425C85.7411 50.1199 82.8238 52.1574 81.2088 52.6183C80.4194 52.8413 79.6029 52.954 78.7825 52.9534ZM73.9654 50.3326C75.7401 52.3533 78.7901 52.6115 81.0212 51.9692C81.6187 51.8004 82.5838 51.2855 83.3393 50.406C84.3628 49.215 84.776 47.6729 84.5538 45.8219C84.1219 42.1586 81.5114 40.3523 79.1451 40.4621C77.6644 40.5304 75.5956 41.1373 74.2266 42.6397C73.1693 43.8003 72.6792 45.3315 72.7637 47.1901C72.822 48.4081 73.2462 49.5239 73.9578 50.3326H73.9654Z" fill="#162B43"/>
<path d="M73.9468 44.6317C73.8677 44.6316 73.7912 44.6039 73.7305 44.5532C73.6697 44.5031 73.6287 44.4332 73.6147 44.3557C73.3291 42.8195 72.0791 41.4597 70.4295 40.895C68.9573 40.3886 67.202 40.4789 65.4882 41.1483C64.3244 41.6049 62.6807 43.2027 62.4568 44.0966C62.4397 44.1605 62.4042 44.2179 62.3547 44.2618C62.3052 44.3058 62.2439 44.3342 62.1784 44.3436C62.1129 44.3531 62.0461 44.3431 61.9862 44.3149C61.9263 44.2868 61.876 44.2417 61.8415 44.1852C61.7952 44.1094 61.7806 44.0184 61.801 43.932C62.0748 42.8406 63.8749 41.0546 65.2414 40.5186C67.1006 39.7876 69.0258 39.6931 70.6501 40.2519C72.5262 40.8976 73.946 42.4591 74.284 44.2308C74.2997 44.319 74.2803 44.4098 74.2299 44.484C74.205 44.5208 74.1728 44.5521 74.1353 44.576C74.098 44.6001 74.0564 44.6167 74.0128 44.625C73.991 44.6289 73.9689 44.6311 73.9468 44.6317Z" fill="#162B43"/>
<path d="M83.4627 43.0644C83.3935 43.0653 83.3256 43.0449 83.2684 43.0061C83.2113 42.9674 83.1674 42.9123 83.1427 42.848C83.1179 42.7837 83.1134 42.7134 83.1298 42.6465C83.1456 42.5793 83.1823 42.5188 83.2346 42.4735C85.9254 40.0088 90.1348 36.5228 94.9055 33.9316C95.7852 33.4538 96.8137 32.9584 97.8912 33.1246C98.5158 33.2209 99.0313 33.8075 99.1158 34.519C99.2138 35.3411 98.727 36.0561 97.8135 36.4308C97.7319 36.4582 97.6429 36.4534 97.5647 36.4175C97.4865 36.3816 97.425 36.3173 97.3926 36.2376C97.3603 36.1579 97.3596 36.069 97.3907 35.9888C97.4218 35.9086 97.4823 35.8433 97.56 35.8062C98.1862 35.553 98.5099 35.109 98.449 34.5984C98.4008 34.1958 98.111 33.8387 97.7924 33.7923C96.9227 33.6581 96.0176 34.1004 95.2325 34.5249C90.2734 37.2192 85.8755 40.9736 83.6951 42.9723C83.6323 43.0315 83.5491 43.0645 83.4627 43.0644Z" fill="#162B43"/>
<path d="M52.755 44.6737C52.7072 44.6741 52.6599 44.6643 52.6162 44.6451C52.5725 44.6259 52.5334 44.5977 52.5014 44.5623C49.0204 40.7336 44.2422 36.0296 38.1439 33.6224C37.3571 33.3117 36.5154 33.0315 35.688 33.094C34.979 33.1463 34.1373 33.532 33.8567 34.2757C33.7079 34.6682 33.7527 35.1197 33.9818 35.5519C34.1183 35.8086 34.3065 36.0344 34.5345 36.2151C34.7625 36.3958 35.0255 36.5275 35.3069 36.6019C36.1579 36.8028 37.1661 36.493 37.9698 35.8051C37.7657 35.7417 37.5461 35.7495 37.347 35.8271C37.3051 35.8468 37.2597 35.858 37.2134 35.86C37.1673 35.8617 37.1213 35.8539 37.0782 35.8372C37.0354 35.8201 36.9964 35.7949 36.9633 35.7629C36.9304 35.7305 36.9045 35.6917 36.8872 35.649C36.8703 35.6063 36.8619 35.5607 36.8627 35.5148C36.8637 35.4686 36.8744 35.4232 36.894 35.3814C36.9139 35.3389 36.9427 35.3012 36.9785 35.2708C37.0128 35.2401 37.0531 35.2168 37.0968 35.2024C37.3732 35.0929 37.6744 35.0611 37.9676 35.1105C38.2608 35.1599 38.5349 35.2886 38.76 35.4827C38.7954 35.5121 38.8242 35.5486 38.8445 35.5899C38.8638 35.6307 38.875 35.6748 38.8775 35.7199C38.8808 35.8111 38.848 35.8999 38.7862 35.9672C37.7594 37.0543 36.37 37.5464 35.1565 37.2594C34.7809 37.1645 34.4293 36.9921 34.1246 36.7533C33.8198 36.5144 33.5684 36.2144 33.3868 35.8726C33.0657 35.2683 33.0082 34.6184 33.2262 34.0402C33.5643 33.1412 34.5133 32.5065 35.6407 32.4229C36.6041 32.352 37.5337 32.6567 38.3949 32.9969C44.6216 35.4506 49.4743 40.2246 53.0043 44.1082C53.0373 44.1446 53.062 44.1877 53.0767 44.2347C53.0913 44.2816 53.0955 44.3311 53.089 44.3798C53.0825 44.4285 53.0654 44.4752 53.0389 44.5167C53.0125 44.5581 52.9773 44.5933 52.9358 44.6197C52.8806 44.655 52.8163 44.6734 52.7507 44.6729L52.755 44.6737Z" fill="#162B43"/>
<path d="M74.7294 31.9368C73.9384 31.9368 73.1939 31.524 72.4933 31.0927C72.4395 31.0563 72.3974 31.0051 72.372 30.9454C72.3467 30.8857 72.339 30.8199 72.3501 30.756C72.3611 30.692 72.3904 30.6326 72.4344 30.5849C72.4784 30.5371 72.5352 30.503 72.5981 30.4867C72.6835 30.4638 72.7745 30.4753 72.8516 30.5187C73.586 30.9712 74.3035 31.3628 75.0075 31.2379C75.3506 31.1754 75.692 30.8505 75.801 30.4833C75.85 30.3204 75.8695 30.0891 75.6886 29.9178C75.6398 29.872 75.6056 29.8127 75.5906 29.7474C75.5755 29.6822 75.5802 29.614 75.6041 29.5514C75.6367 29.4681 75.7007 29.4008 75.7824 29.3641C75.823 29.3454 75.867 29.3354 75.9117 29.3345C75.9558 29.3338 75.9997 29.3412 76.041 29.3565C76.0827 29.3727 76.1209 29.3967 76.1534 29.4274C76.4839 29.7405 76.5912 30.1955 76.4484 30.6757C76.2633 31.2894 75.7216 31.7933 75.13 31.9055C74.9992 31.9289 74.8665 31.9404 74.7336 31.9402L74.7294 31.9368Z" fill="#162B43"/>
<path d="M69.4956 11.5432C69.4476 11.5427 69.4003 11.5319 69.3567 11.5117C69.3132 11.4915 69.2744 11.4623 69.2431 11.4259C69.2117 11.3896 69.1885 11.347 69.1749 11.301C69.1614 11.255 69.1578 11.2066 69.1644 11.1591C69.174 11.0967 69.2009 11.0382 69.2421 10.9903C69.9014 10.2141 70.4194 9.3285 70.7726 8.37369C70.9053 8.01496 70.9163 7.74571 70.8022 7.63429C70.7219 7.55664 70.5546 7.52541 70.3053 7.54398C68.708 7.65792 67.2629 8.86663 66.8741 10.418C66.8629 10.4608 66.8434 10.5009 66.8167 10.5362C66.79 10.5717 66.7565 10.6016 66.7182 10.6242C66.68 10.6468 66.6376 10.6617 66.5935 10.6679C66.5039 10.6807 66.4128 10.6576 66.34 10.6037C66.3059 10.5763 66.2773 10.5429 66.2555 10.505C66.2331 10.4668 66.2185 10.4247 66.2124 10.3809C66.2065 10.3369 66.209 10.2922 66.22 10.2492C66.6789 8.41927 68.3767 6.99702 70.2571 6.86281C70.4261 6.85015 70.9332 6.81386 71.2712 7.14389C71.496 7.36419 71.7014 7.79466 71.403 8.5999C71.0227 9.62808 70.4643 10.5815 69.7534 11.4166C69.7228 11.4547 69.6843 11.4858 69.6406 11.5077C69.5968 11.5295 69.5488 11.5416 69.4999 11.5432H69.4956Z" fill="#162B43"/>
<path d="M81.0888 19.4626C80.9992 19.4626 80.9132 19.427 80.8498 19.3637C80.7864 19.3003 80.7508 19.2145 80.7508 19.1249C80.7508 19.0354 80.7864 18.9495 80.8498 18.8862C80.9132 18.8229 80.9992 18.7873 81.0888 18.7873C81.2579 18.7873 81.3424 18.6379 81.3829 18.5484C81.481 18.3205 81.4489 18.0369 81.3086 17.8892C80.5978 17.1405 79.5575 17.6149 78.8096 18.1424C78.7732 18.1694 78.7318 18.1889 78.6879 18.1998C78.6443 18.2109 78.5989 18.2132 78.5544 18.2066C78.5097 18.1997 78.4669 18.1839 78.4284 18.1602C78.3898 18.1366 78.3564 18.1052 78.3304 18.0682C78.3043 18.0313 78.2857 17.9897 78.2755 17.9458C78.267 17.9014 78.267 17.8559 78.2755 17.8116C78.2838 17.7669 78.301 17.7244 78.3262 17.6866C78.3509 17.6489 78.3831 17.6167 78.4208 17.5921C80.264 16.2863 81.3305 16.9253 81.8013 17.4233C82.1266 17.766 82.2103 18.3383 82.0049 18.8143C81.8275 19.2211 81.4852 19.4626 81.0888 19.4626Z" fill="#162B43"/>
<path d="M62.2244 20.716C62.1441 20.7161 62.0663 20.688 62.0046 20.6367C61.9589 20.5982 61.9242 20.5484 61.9041 20.4922C61.884 20.436 61.8791 20.3755 61.89 20.3168C61.9009 20.2581 61.9272 20.2034 61.9662 20.1581C62.0052 20.1129 62.0555 20.0788 62.112 20.0593C62.3207 19.9867 62.3604 19.7631 62.3655 19.6373C62.3765 19.3723 62.2497 19.0464 61.9877 18.9283C61.4426 18.6877 60.7767 19.0625 60.4277 19.5368C60.4013 19.5726 60.3682 19.6029 60.3302 19.6259C60.2921 19.6489 60.2499 19.6641 60.2059 19.6708C60.162 19.6775 60.1171 19.6754 60.074 19.6647C60.0308 19.654 59.9902 19.635 59.9544 19.6086C59.8823 19.5555 59.8342 19.476 59.8207 19.3875C59.8072 19.2991 59.8295 19.2089 59.8826 19.1368C60.4006 18.4337 61.3835 17.9238 62.2607 18.3104C62.7433 18.5231 63.0644 19.0794 63.0416 19.6609C63.0221 20.1598 62.7585 20.5463 62.3368 20.6941C62.3008 20.7076 62.2628 20.715 62.2244 20.716Z" fill="#162B43"/>
<path d="M47.3801 23.0903C46.6135 23.0903 46.2924 22.6683 46.169 22.4201C45.9206 21.9137 46.0346 21.2579 46.2831 20.9354C46.7006 20.3927 47.4561 20.3505 47.9818 20.5413C48.5074 20.732 48.9063 21.1169 49.257 21.4562C49.289 21.4871 49.3145 21.5239 49.3322 21.5646C49.3498 21.6054 49.3593 21.6492 49.36 21.6935C49.3607 21.7379 49.3526 21.782 49.3363 21.8232C49.3199 21.8645 49.2956 21.9021 49.2646 21.934C49.2333 21.9655 49.1963 21.991 49.1556 22.0091C49.0943 22.0356 49.0265 22.0433 48.9607 22.0312C48.895 22.0192 48.8343 21.988 48.7863 21.9416C48.4694 21.6352 48.1423 21.3178 47.7511 21.176C47.4477 21.0663 47.0175 21.0916 46.8214 21.3448C46.755 21.4621 46.7165 21.5931 46.709 21.7276C46.7015 21.8622 46.7253 21.9966 46.7783 22.1205C46.8755 22.318 47.0733 22.4134 47.3826 22.4134C47.4722 22.4134 47.5582 22.449 47.6216 22.5123C47.685 22.5756 47.7206 22.6615 47.7206 22.751C47.7206 22.8406 47.685 22.9264 47.6216 22.9898C47.5582 23.0531 47.4722 23.0887 47.3826 23.0887L47.3801 23.0903Z" fill="#162B43"/>
<path d="M14.7708 51.8206C14.7017 51.8204 14.6343 51.7995 14.5772 51.7606C14.5208 51.7213 14.4778 51.6656 14.4539 51.6011C13.0655 47.9145 11.4809 44.3046 9.7069 40.7869C9.66977 40.7074 9.6651 40.6166 9.69389 40.5337C9.72267 40.4508 9.78263 40.3823 9.86108 40.3428C9.93953 40.3033 10.0303 40.2958 10.1142 40.322C10.198 40.3482 10.2684 40.406 10.3103 40.4831C12.0951 44.0225 13.6893 47.6546 15.086 51.3639C15.1175 51.4478 15.1143 51.5407 15.0773 51.6222C15.0402 51.7037 14.9722 51.7672 14.8882 51.7986C14.8506 51.8126 14.8109 51.82 14.7708 51.8206Z" fill="#007EEF"/>
<path d="M11.3244 52.0899C11.2768 52.0905 11.2296 52.081 11.1859 52.0621C11.1423 52.0432 11.1031 52.0153 11.0709 51.9802L8.90659 49.6109C8.84792 49.5445 8.8177 49.4578 8.82244 49.3694C8.82719 49.2809 8.86651 49.1979 8.93195 49.1382C8.99748 49.0784 9.08393 49.0467 9.17264 49.05C9.26134 49.0534 9.34519 49.0914 9.40605 49.1559L11.5704 51.5252C11.6142 51.5734 11.6431 51.6331 11.6537 51.6973C11.6643 51.7615 11.6562 51.8273 11.6302 51.887C11.6042 51.9466 11.5615 51.9975 11.5073 52.0335C11.4531 52.0695 11.3896 52.0891 11.3244 52.0899Z" fill="#007EEF"/>
<path d="M9.2404 58.6734C9.19751 58.6734 9.15505 58.6651 9.11532 58.6489L0.212122 55.098C0.170788 55.0813 0.133163 55.0566 0.101413 55.0254C0.069527 54.9945 0.0442302 54.9574 0.0270435 54.9165C0.00961351 54.8756 0.000423604 54.8318 1.16139e-07 54.7873C-0.000602256 54.7429 0.00768453 54.6989 0.0243739 54.6577C0.0410633 54.6165 0.065819 54.5791 0.0971874 54.5476C0.128142 54.5158 0.165224 54.4905 0.206206 54.4734C0.247756 54.4552 0.292683 54.446 0.338043 54.4463C0.382642 54.4456 0.426932 54.4539 0.468189 54.4708L9.37223 58.0159C9.44546 58.0449 9.50622 58.0986 9.54403 58.1677C9.58183 58.2367 9.5943 58.3168 9.57928 58.394C9.56448 58.4711 9.52325 58.5407 9.46266 58.5907C9.40148 58.6403 9.32511 58.6674 9.24631 58.6675L9.2404 58.6734Z" fill="#007EEF"/>
<path d="M0.465649 66.2312C0.422215 66.2325 0.378922 66.2257 0.338038 66.211C0.29632 66.196 0.25808 66.1728 0.225639 66.1426C0.192603 66.1129 0.165859 66.077 0.146988 66.0368C0.128117 65.9967 0.117503 65.9531 0.115775 65.9088C0.113732 65.8644 0.120466 65.8201 0.135591 65.7784C0.150717 65.7366 0.173938 65.6983 0.203924 65.6655C0.23391 65.6327 0.270073 65.6062 0.310343 65.5874C0.350613 65.5686 0.394198 65.5579 0.438606 65.556C3.43637 65.2818 6.44697 65.1728 9.45674 65.2293C9.54625 65.2311 9.6314 65.2683 9.69351 65.3327C9.75561 65.3971 9.78961 65.4834 9.78802 65.5729C9.78725 65.6172 9.77774 65.6609 9.76004 65.7016C9.74233 65.7423 9.71678 65.7791 9.68484 65.8099C9.6529 65.8407 9.6152 65.8649 9.57388 65.8811C9.53257 65.8974 9.48846 65.9054 9.44406 65.9046C6.458 65.8481 3.47109 65.956 0.496918 66.2278C0.48651 66.2286 0.476057 66.2286 0.465649 66.2278V66.2312Z" fill="#007EEF"/>
<path d="M8.16541 72.1429C8.08179 72.1438 8.00079 72.1137 7.93807 72.0584C7.89161 72.0166 7.85769 71.9627 7.84008 71.9027C7.82247 71.8428 7.82187 71.7791 7.83834 71.7188C7.85481 71.6586 7.8877 71.604 7.93336 71.5613C7.97902 71.5186 8.03565 71.4894 8.09695 71.4769L9.859 71.1156C9.90239 71.1064 9.94719 71.106 9.99074 71.1144C10.0343 71.1228 10.0757 71.1399 10.1125 71.1646C10.1684 71.2013 10.2121 71.2538 10.2381 71.3154C10.2641 71.377 10.2712 71.4449 10.2586 71.5105C10.2459 71.5761 10.214 71.6365 10.1669 71.684C10.1199 71.7315 10.0598 71.764 9.99422 71.7774L8.23302 72.1386C8.21068 72.1426 8.18808 72.1448 8.16541 72.1454V72.1429Z" fill="#007EEF"/>
<path d="M22.5829 47.6573H22.55C22.4608 47.6488 22.3787 47.6052 22.3216 47.5362C22.2646 47.4672 22.2373 47.3784 22.2457 47.2893L22.8855 40.6836C22.8941 40.5941 22.938 40.5116 23.0075 40.4544C23.077 40.3972 23.1664 40.3699 23.2561 40.3785C23.3457 40.3871 23.4283 40.431 23.4856 40.5004C23.5429 40.5698 23.5702 40.6591 23.5616 40.7486L22.921 47.3518C22.9124 47.4352 22.873 47.5124 22.8105 47.5684C22.748 47.6244 22.6669 47.6552 22.5829 47.6548V47.6573Z" fill="#007EEF"/>
<path d="M103.188 84.5136C103.102 84.5138 103.019 84.4815 102.956 84.4232C102.894 84.3649 102.855 84.285 102.849 84.1996C102.749 82.7824 102.882 80.2165 103.13 78.8162C103.138 78.7724 103.154 78.7306 103.177 78.6929C103.202 78.6557 103.232 78.6233 103.269 78.5976C103.305 78.5724 103.346 78.5546 103.39 78.5452C103.433 78.5364 103.478 78.5364 103.521 78.5452C103.565 78.5531 103.607 78.5695 103.645 78.5933C103.682 78.6172 103.714 78.6482 103.739 78.6845C103.765 78.7206 103.784 78.7617 103.793 78.8052C103.802 78.8486 103.802 78.8934 103.793 78.9369C103.553 80.2941 103.423 82.7816 103.521 84.1557C103.527 84.2451 103.497 84.3332 103.438 84.4008C103.38 84.4684 103.296 84.5099 103.207 84.5161L103.188 84.5136Z" fill="#162B43"/>
<path d="M33.5871 120C30.0165 120 26.4485 119.875 22.9041 119.558C19.7552 119.276 16.4889 118.784 13.9299 117.11C11.147 115.287 9.33082 112.037 9.07221 108.416C8.86685 105.552 9.55562 102.392 11.1757 98.7522C13.0713 94.4955 17.6526 87.3454 22.4105 82.476C22.4415 82.4443 22.4785 82.4189 22.5193 82.4014C22.5602 82.3839 22.604 82.3746 22.6485 82.374C22.6929 82.3735 22.737 82.3817 22.7782 82.3982C22.8195 82.4147 22.8571 82.4391 22.8889 82.4701C22.9207 82.5011 22.9461 82.538 22.9636 82.5788C22.9811 82.6196 22.9904 82.6634 22.991 82.7078C22.9915 82.7521 22.9833 82.7962 22.9668 82.8374C22.9503 82.8786 22.9258 82.9161 22.8948 82.9479C18.3625 87.5902 13.6916 94.7648 11.7935 99.0265C10.219 102.562 9.5497 105.618 9.74661 108.368C9.99085 111.78 11.6904 114.837 14.3009 116.545C16.7348 118.14 19.9031 118.613 22.9649 118.887C33.2186 119.804 43.7072 119.104 53.8502 118.426C63.5917 117.777 73.6654 117.104 83.5481 117.858L83.9639 117.89C85.7733 118.031 87.6443 118.178 89.381 117.755C91.0628 117.344 92.8814 116.163 93.1536 114.447C93.1857 114.247 93.2094 114.025 93.2381 113.799C93.3581 112.702 93.5229 111.207 94.9063 111.115C95.1095 111.108 95.3129 111.124 95.5123 111.163C95.7185 111.195 95.9128 111.226 96.0717 111.185C96.5163 111.073 96.605 110.44 96.6008 109.928L96.4638 92.3052C96.4529 90.9986 96.1444 90.2794 95.4928 90.0549C94.8412 89.8304 94.1254 90.2085 93.3801 90.6145C92.535 91.0728 91.6594 91.543 90.7171 91.218C90.0782 90.9943 89.6633 90.4769 89.3303 90.0617C87.7136 88.0435 83.4408 87.9515 76.2683 89.7789C69.8083 91.424 61.8559 94.401 54.1646 97.2793C47.211 99.8824 40.6429 102.344 35.2604 103.818C29.07 105.517 25.4571 105.614 23.9013 104.121C23.8692 104.091 23.8435 104.054 23.8256 104.013C23.8077 103.973 23.798 103.929 23.7971 103.884C23.7961 103.84 23.8039 103.796 23.8201 103.755C23.8362 103.713 23.8604 103.676 23.8912 103.644C23.9219 103.611 23.9586 103.586 23.9993 103.568C24.04 103.55 24.0838 103.54 24.1282 103.539C24.1727 103.538 24.2168 103.546 24.2582 103.562C24.2996 103.579 24.3374 103.603 24.3695 103.633C27.4305 106.564 40.9006 101.523 53.9271 96.6471C61.6353 93.762 69.6055 90.7791 76.101 89.1239C83.6613 87.1977 88.0331 87.3615 89.8585 89.6396C90.2134 90.0819 90.5185 90.4322 90.9411 90.5808C91.6003 90.8112 92.3076 90.4271 93.0538 90.0211C93.8989 89.5628 94.7745 89.0927 95.7159 89.4176C97.1205 89.9089 97.1349 91.7084 97.1399 92.3001L97.2768 109.923C97.2878 111.287 96.7182 111.719 96.2382 111.84C95.945 111.915 95.6585 111.87 95.4066 111.83C95.2567 111.8 95.104 111.786 94.9511 111.789C94.1905 111.839 94.0443 112.647 93.9099 113.873C93.8837 114.111 93.8592 114.336 93.8254 114.552C93.5051 116.578 91.4448 117.947 89.545 118.41C87.7043 118.859 85.7783 118.709 83.9157 118.564L83.5008 118.532C73.6663 117.781 63.6171 118.448 53.9001 119.1C47.2229 119.544 40.4003 120 33.5871 120Z" fill="#162B43"/>
<path d="M45.3028 74.6102C45.2719 74.6102 45.2412 74.606 45.2115 74.5975C45.1688 74.5856 45.1288 74.5654 45.0938 74.538C45.0589 74.5106 45.0297 74.4766 45.0079 74.438C44.965 74.3608 44.954 74.2699 44.9774 74.1848C45.5158 72.2586 45.0349 67.5099 42.7557 63.9614C42.7302 63.9239 42.7124 63.8818 42.7033 63.8374C42.6944 63.7933 42.6944 63.748 42.7033 63.704C42.7116 63.6596 42.7295 63.6176 42.7557 63.5808C42.7807 63.5433 42.8133 63.5114 42.8512 63.487C42.8891 63.4626 42.9317 63.4463 42.9762 63.439C43.0203 63.4313 43.0654 63.4327 43.109 63.4428C43.1525 63.453 43.1936 63.4717 43.2298 63.498C43.2667 63.5243 43.2977 63.558 43.321 63.5968C45.7059 67.3107 46.1944 72.3211 45.6248 74.3662C45.6046 74.437 45.5623 74.4994 45.5039 74.5443C45.4452 74.5891 45.3733 74.6134 45.2994 74.6135L45.3028 74.6102Z" fill="#162B43"/>
<path d="M70.5791 100.58C70.4725 100.581 70.3683 100.549 70.2816 100.487C69.5328 99.9568 69.1711 97.3217 68.7046 93.3613C68.5931 92.4143 68.4874 91.5204 68.3835 90.8173C68.3742 90.773 68.3742 90.7273 68.3835 90.6831C68.3935 90.6388 68.4122 90.5969 68.4384 90.5599C68.4652 90.5234 68.4988 90.4924 68.5373 90.4687C68.5761 90.4452 68.6192 90.4297 68.6641 90.4231C68.7089 90.4163 68.7547 90.4189 68.7985 90.4307C68.8422 90.4419 68.8833 90.4617 68.9193 90.489C68.9553 90.5165 68.9854 90.5511 69.0078 90.5905C69.0301 90.63 69.0443 90.6735 69.0494 90.7185C69.1551 91.4318 69.2616 92.3307 69.3731 93.282C69.5421 94.7127 69.7331 96.3341 69.9647 97.6213C70.2613 99.2867 70.5149 99.761 70.6298 99.8952C70.9856 99.8041 72.02 98.9668 72.4214 98.6443C72.6048 98.4958 72.7595 98.3675 72.8736 98.2856C72.9456 98.2323 73.0359 98.2098 73.1246 98.223C73.1685 98.2296 73.2107 98.2447 73.2487 98.2675C73.2868 98.2903 73.32 98.3204 73.3464 98.3561C73.3728 98.3917 73.3919 98.4322 73.4027 98.4752C73.4134 98.5182 73.4156 98.5629 73.409 98.6068C73.4025 98.6507 73.3873 98.6928 73.3645 98.7308C73.3416 98.7688 73.3115 98.8019 73.2758 98.8283C73.1769 98.9018 73.0223 99.0258 72.8465 99.1659C71.6853 100.106 71.0185 100.58 70.5791 100.58Z" fill="white"/>
<path d="M57.3726 45.5617C56.7447 46.3872 56.1894 47.2895 56.7286 47.9698C57.2678 48.6501 58.4188 48.6299 59.0535 48.0373C59.58 47.5461 59.7702 46.6784 59.373 46.0782C58.9758 45.4781 57.8053 44.9885 57.3726 45.5617Z" fill="#162B43"/>
<path d="M57.8805 48.8191C57.8292 48.8201 57.7778 48.8181 57.7267 48.8132C57.4839 48.801 57.2463 48.7384 57.0291 48.6294C56.8118 48.5204 56.6197 48.3674 56.465 48.1801C56.1573 47.7952 56.0424 47.2609 56.1548 46.7148C56.2118 46.422 56.3301 46.1446 56.502 45.9006C56.6738 45.6567 56.8953 45.4518 57.152 45.2993C57.2597 45.1855 57.3914 45.0969 57.5376 45.0402C57.6837 44.9834 57.8407 44.9597 57.9971 44.971C58.6056 44.9904 59.3172 45.3871 59.6518 45.8927C60.1209 46.6026 59.9586 47.6526 59.2809 48.2839C58.8964 48.6292 58.3975 48.8199 57.8805 48.8191ZM57.9515 45.6454C57.8941 45.6399 57.8363 45.6477 57.7825 45.6682C57.7286 45.6892 57.6805 45.7228 57.6422 45.7661C57.6128 45.8038 57.5764 45.8353 57.5349 45.8589C57.3512 45.962 57.192 46.1036 57.0683 46.2739C56.9446 46.4442 56.8593 46.6393 56.8182 46.8457C56.7472 47.1959 56.8114 47.5285 56.9931 47.7564C57.0901 47.8707 57.2098 47.9636 57.3447 48.029C57.4797 48.0944 57.6267 48.1311 57.7766 48.1371C57.9648 48.1524 58.1542 48.1296 58.3334 48.07C58.5127 48.0103 58.678 47.9152 58.8194 47.7902C59.2555 47.3842 59.3755 46.7005 59.0873 46.2649C58.8777 45.9476 58.3571 45.6581 57.9743 45.6454H57.9515Z" fill="#162B43"/>
<path d="M79.5736 45.6843C78.5738 45.5223 77.5073 45.4514 77.1388 46.2288C76.7703 47.0062 77.2935 47.9836 78.1039 48.2613C78.7741 48.4909 79.6336 48.2613 79.9944 47.6434C80.3553 47.0256 80.2775 45.7983 79.5736 45.6843Z" fill="#162B43"/>
<path d="M78.638 48.6871C78.2491 48.6896 77.8683 48.5755 77.545 48.3596C77.2217 48.1437 76.9707 47.8358 76.8244 47.4759C76.7262 47.2566 76.6758 47.0189 76.6765 46.7787C76.6774 46.5388 76.7298 46.3019 76.8303 46.084C77.0399 45.6409 77.4709 45.2999 78.0135 45.1488C78.295 45.067 78.5904 45.044 78.8812 45.0813C79.172 45.1187 79.452 45.2155 79.7037 45.3657C79.8538 45.4064 79.9928 45.4806 80.1102 45.5826C80.2269 45.6856 80.319 45.8134 80.3798 45.9565C80.6333 46.4942 80.5936 47.2935 80.2877 47.8135C79.9648 48.3647 79.3141 48.6871 78.638 48.6871ZM78.6084 45.7422C78.4687 45.7419 78.3297 45.7609 78.1952 45.7987C77.8419 45.8975 77.5673 46.1068 77.4413 46.3727C77.3818 46.5056 77.3516 46.6497 77.3526 46.7953C77.3536 46.941 77.3859 47.0847 77.4473 47.2167C77.5165 47.3842 77.6199 47.5355 77.7508 47.6609C77.8818 47.7863 78.0374 47.8831 78.2079 47.9452C78.7648 48.1359 79.4333 47.9258 79.6969 47.4759C79.8871 47.1517 79.9167 46.5761 79.7603 46.2452C79.6665 46.0452 79.5516 46.0266 79.5135 46.0207C79.4665 46.013 79.4215 45.9955 79.3817 45.9692C79.1524 45.821 78.885 45.7421 78.6118 45.7422H78.6084Z" fill="#162B43"/>
<path d="M25.8036 76.9686C25.7438 76.9691 25.6849 76.9537 25.6329 76.9241C25.5809 76.8944 25.5378 76.8515 25.5079 76.7997C24.5842 75.1563 24.3408 74.2439 24.3247 72.3591C24.3247 72.2696 24.3603 72.1837 24.4237 72.1204C24.4871 72.0571 24.5731 72.0215 24.6627 72.0215C24.7524 72.0215 24.8384 72.0571 24.9018 72.1204C24.9652 72.1837 25.0008 72.2696 25.0008 72.3591C25.016 74.1257 25.2307 74.9335 26.0994 76.4739C26.1289 76.5253 26.1444 76.5835 26.1442 76.6427C26.1443 76.7021 26.1287 76.7604 26.0991 76.8118C26.0694 76.8633 26.0267 76.906 25.9752 76.9356C25.9238 76.9651 25.8655 76.9805 25.8062 76.9804L25.8036 76.9686Z" fill="#162B43"/>
</g>
<defs>
<clipPath id="clip0_964_3604">
<rect width="113.651" height="120" fill="white"/>
</clipPath>
</defs>
</svg>
