<svg width="113" height="120" viewBox="0 0 113 120" fill="none" xmlns="http://www.w3.org/2000/svg">
<g clip-path="url(#clip0_964_3736)">
<path d="M33.0399 58.4168C33.0135 59.1172 32.8867 59.9423 32.263 60.2603C31.5577 60.6196 30.7535 60.0894 30.0714 59.6871C28.0116 58.4738 25.277 58.3813 23.2601 59.664C21.2432 60.9467 20.1573 63.6385 20.9342 65.9025C21.7112 68.1664 24.4226 69.6325 26.676 68.8388C28.0033 68.3713 29.1914 67.229 30.5847 67.4239C32.3025 67.6651 33.0564 69.7366 33.1767 71.4711C33.3151 73.4534 33.0943 75.4539 33.325 77.4279C33.5557 79.402 34.3194 81.4462 35.9532 82.572C37.4692 83.6169 39.4268 83.6871 41.2658 83.7209L64.7217 84.1562C69.006 84.2388 74.0491 83.9316 76.3841 80.3328C78.3821 77.2528 77.4008 73.2106 77.7081 69.5491C77.7551 68.9965 77.8432 68.4184 78.1802 67.9798C79.2595 66.5698 81.4206 67.6899 83.1237 68.1846C85.3836 68.8454 88.0358 67.9616 89.3656 66.0156C90.6954 64.0697 90.5191 61.1904 88.8712 59.5021C87.2234 57.8138 84.2664 57.6024 82.4645 59.1139C81.7494 59.716 81.0639 60.6006 80.137 60.5122C78.9349 60.3999 78.5584 58.8446 78.4892 57.6354C78.2777 53.7418 78.0654 49.8477 77.8523 45.953C77.7748 44.5307 77.6611 43.0076 76.7812 41.8893C75.7629 40.5983 74.0079 40.2002 72.3914 39.9128C67.3503 39.0149 62.2659 38.3808 57.159 38.0131C51.783 37.6282 46.2645 37.586 41.0104 38.9299C38.6894 39.5229 36.02 40.353 34.0896 41.8265C33.4255 42.332 33.217 43.0076 33.0811 43.8088C32.8339 45.2501 32.7672 46.7236 32.7664 48.1864C32.7524 51.5993 33.1684 55.0031 33.0399 58.4168Z" fill="#DDE3EB"/>
<path d="M84.3596 65.4243C83.8618 65.4332 83.3802 65.2468 83.0175 64.9048C82.9863 64.8746 82.9614 64.8386 82.9442 64.7987C82.9269 64.7589 82.9177 64.7161 82.917 64.6727C82.9149 64.6069 82.9325 64.5421 82.9674 64.4864C83.0023 64.4307 83.053 64.3867 83.113 64.3601C83.173 64.3335 83.2396 64.3255 83.3042 64.337C83.3687 64.3485 83.4284 64.3791 83.4756 64.4249C83.8051 64.7437 84.3176 64.8379 84.8466 64.6867C85.4332 64.5157 85.8905 64.0763 86.0124 63.5683C86.1253 63.0976 86.0025 62.5689 85.6762 62.118C85.3088 61.6092 84.7502 61.278 84.1817 61.2317C84.1162 61.2269 84.0537 61.2026 84.0021 61.1619C83.9505 61.1212 83.9122 61.066 83.8921 61.0033C83.872 60.9407 83.871 60.8735 83.8893 60.8102C83.9076 60.747 83.9442 60.6907 83.9946 60.6486C84.0277 60.6204 84.0659 60.599 84.1072 60.5857C84.1485 60.5724 84.192 60.5674 84.2352 60.5709C84.9924 60.6329 85.7314 61.0665 86.2126 61.7273C86.6517 62.3352 86.8132 63.0612 86.6559 63.7203C86.4771 64.4637 85.855 65.079 85.0336 65.3186C84.8149 65.3845 84.588 65.4187 84.3596 65.4202V65.4243Z" fill="#162B43"/>
<path d="M26.5648 66.8418C25.291 66.8418 24.5923 65.9547 24.1186 65.355L24.079 65.3047C23.6984 64.8223 23.5303 63.8179 23.9695 62.9151C24.2496 62.337 25.0125 61.3706 26.9833 61.3706H26.999C27.0864 61.3706 27.1702 61.4054 27.232 61.4674C27.2938 61.5293 27.3285 61.6134 27.3285 61.701C27.3285 61.7886 27.2938 61.8726 27.232 61.9346C27.1702 61.9966 27.0864 62.0314 26.999 62.0314H26.985C25.455 62.0314 24.8239 62.669 24.5643 63.2042C24.2422 63.87 24.3773 64.6142 24.5989 64.895L24.6385 64.9462C25.3248 65.8176 26.1017 66.8054 28.2101 65.6962C28.2485 65.6759 28.2905 65.6634 28.3337 65.6595C28.3769 65.6555 28.4205 65.6602 28.4619 65.6732C28.5033 65.6861 28.5418 65.7072 28.5751 65.7351C28.6083 65.763 28.6358 65.7972 28.6559 65.8358C28.6759 65.8742 28.6883 65.9162 28.6921 65.9595C28.696 66.0027 28.6913 66.0463 28.6784 66.0877C28.6655 66.1291 28.6445 66.1676 28.6168 66.2009C28.589 66.2342 28.555 66.2617 28.5166 66.2818C27.7438 66.6766 27.1028 66.8418 26.5648 66.8418Z" fill="#162B43"/>
<path d="M56.3986 69.69C55.8713 69.69 55.4347 69.2828 55.0417 68.9153C54.7772 68.6675 54.5045 68.4139 54.2375 68.309C53.7259 68.1067 53.1879 68.4271 52.5724 68.803C52.1061 69.083 51.6241 69.372 51.0894 69.4579C50.8969 69.4951 50.6981 69.4811 50.5126 69.4175C50.1633 69.2861 49.8922 68.9219 49.7892 68.4511C49.566 67.4294 50.1732 66.4341 50.8875 65.979C51.4436 65.6238 52.05 65.5132 52.6358 65.4066C52.7751 65.381 52.9184 65.3546 53.0569 65.324C53.8808 65.1514 54.4089 64.8441 54.7179 64.356C54.9782 63.943 55.0919 63.3822 55.1768 62.8866C55.5666 60.6234 55.6644 58.3193 55.4676 56.0311C55.4638 55.9877 55.4685 55.9439 55.4816 55.9024C55.4947 55.8608 55.5159 55.8223 55.544 55.789C55.572 55.7556 55.6063 55.7282 55.645 55.7082C55.6836 55.6883 55.7258 55.6762 55.7692 55.6727C55.8123 55.6689 55.8557 55.6736 55.897 55.6867C55.9383 55.6997 55.9766 55.7208 56.0097 55.7486C56.0431 55.7766 56.0707 55.8109 56.0907 55.8496C56.1108 55.8884 56.1231 55.9307 56.1267 55.9741C56.3287 58.3199 56.2288 60.682 55.8293 63.0022C55.7329 63.5614 55.6027 64.1999 55.2765 64.7136C54.7368 65.566 53.8297 65.8411 53.1936 65.974C53.0478 66.0046 52.8995 66.0319 52.757 66.0566C52.2091 66.1566 51.6908 66.2507 51.2434 66.5365C50.7351 66.8603 50.2786 67.5921 50.436 68.3099C50.4879 68.5486 50.6156 68.7493 50.7474 68.7988C50.8255 68.8212 50.908 68.8235 50.9872 68.8054C51.3992 68.7402 51.8218 68.4841 52.2346 68.2364C52.9053 67.8333 53.6657 67.3773 54.4814 67.6978C54.8653 67.8481 55.1858 68.1471 55.4948 68.4362C55.9512 68.8616 56.2495 69.1127 56.5486 69.0061C56.7686 68.9277 56.9531 68.6568 57.1484 68.3702C57.356 68.0646 57.5719 67.7482 57.8948 67.5574C58.6257 67.1254 59.3367 67.5657 59.9645 67.9547C60.1788 68.0954 60.4029 68.2205 60.6352 68.3289C61.2869 68.608 62.0589 68.4404 62.6035 67.901C62.6661 67.8418 62.7494 67.8095 62.8354 67.8111C62.9215 67.8126 63.0036 67.8479 63.0641 67.9093C63.124 67.971 63.1579 68.0535 63.1588 68.1397C63.1593 68.2259 63.1262 68.3089 63.0665 68.371C62.3308 69.1003 61.2745 69.3225 60.3756 68.9359C60.1131 68.8154 59.86 68.6751 59.6185 68.5164C58.9956 68.1315 58.5919 67.9126 58.2294 68.1265C58.0333 68.2421 57.8677 68.4858 57.6922 68.7427C57.445 69.1036 57.1921 69.4778 56.7694 69.6289C56.6516 69.672 56.5273 69.694 56.4019 69.6942L56.3986 69.69Z" fill="#162B43"/>
<path d="M46.9945 59.6441C46.8294 59.6439 46.6643 59.6351 46.5001 59.6176C45.7158 59.5289 44.9649 59.2492 44.3131 58.803C43.6613 58.3567 43.1282 57.7573 42.7604 57.0571C42.723 56.9798 42.7171 56.891 42.7439 56.8094C42.764 56.7483 42.8015 56.6945 42.8516 56.6544C42.9018 56.6144 42.9625 56.5899 43.0263 56.5839C43.0902 56.578 43.1544 56.5908 43.211 56.6209C43.2677 56.6509 43.3144 56.6969 43.3454 56.7532C43.6594 57.3595 44.1182 57.8785 44.6809 58.2638C45.2436 58.6492 45.8927 58.889 46.5703 58.9617C47.2479 59.0345 47.9329 58.9381 48.5643 58.681C49.1957 58.4239 49.7537 58.0141 50.1888 57.4883C50.2154 57.4524 50.2491 57.4224 50.2876 57.3999C50.3265 57.3777 50.3693 57.3634 50.4137 57.3578C50.4582 57.3526 50.5034 57.3565 50.5464 57.3694C50.5893 57.3819 50.6291 57.4033 50.6633 57.4321C50.6975 57.4606 50.7255 57.4957 50.7457 57.5354C50.7656 57.5754 50.7777 57.6188 50.7812 57.6634C50.7839 57.7082 50.7777 57.7531 50.763 57.7956C50.7482 57.8378 50.7249 57.8766 50.6947 57.9095C50.2407 58.4511 49.6744 58.8869 49.0352 59.1865C48.396 59.4861 47.6993 59.6422 46.9937 59.6441H46.9945Z" fill="#162B43"/>
<path d="M66.0383 59.9035C64.6212 59.9035 63.218 59.175 62.4263 57.9906C62.3887 57.9365 62.3681 57.8723 62.3673 57.8063C62.3664 57.7404 62.3852 57.6757 62.4213 57.6206C62.4453 57.5837 62.4764 57.5519 62.5128 57.5272C62.5493 57.503 62.5901 57.4862 62.6331 57.4777C62.676 57.469 62.7203 57.469 62.7632 57.4777C62.8061 57.4861 62.8467 57.5032 62.8827 57.5281C62.9187 57.553 62.9495 57.5847 62.9733 57.6214C63.3513 58.1881 63.8797 58.6376 64.4989 58.9192C65.1181 59.2008 65.8035 59.3034 66.4778 59.2152C67.1521 59.1271 67.7883 58.8519 68.3148 58.4205C68.8413 57.9891 69.2371 57.4188 69.4575 56.774C69.4859 56.691 69.546 56.6228 69.6246 56.5843C69.7031 56.5459 69.7937 56.5402 69.8765 56.5687C69.9592 56.5972 70.0272 56.6574 70.0656 56.7362C70.104 56.815 70.1096 56.9058 70.0812 56.9887C69.812 57.7444 69.342 58.4121 68.722 58.9196C68.102 59.4272 67.3555 59.7554 66.5631 59.8688C66.3891 59.892 66.2138 59.9035 66.0383 59.9035Z" fill="#162B43"/>
<path d="M41.0046 60.9436C40.9418 60.9432 40.8805 60.9247 40.8278 60.8905C40.7751 60.8562 40.7332 60.8076 40.7072 60.7503C40.6811 60.693 40.672 60.6294 40.6808 60.567C40.6904 60.5058 40.717 60.4486 40.7574 60.4018C41.3031 59.7705 41.9671 59.2528 42.7118 58.8779C42.7507 58.8569 42.7934 58.8439 42.8374 58.8398C42.8815 58.8357 42.9259 58.8405 42.968 58.8539C43.01 58.8672 43.049 58.8889 43.0825 58.9175C43.1164 58.9462 43.1444 58.9813 43.1649 59.0208C43.1847 59.0604 43.1962 59.1037 43.1987 59.148C43.2016 59.1919 43.1957 59.236 43.1814 59.2777C43.1665 59.3195 43.1436 59.3579 43.1138 59.3908C43.0845 59.4238 43.0485 59.4502 43.0084 59.4685C42.3414 59.8045 41.7465 60.2683 41.2576 60.8338C41.2261 60.869 41.1877 60.8971 41.1447 60.9164C41.1006 60.9359 41.0527 60.9452 41.0046 60.9436Z" fill="#162B43"/>
<path d="M43.6931 62.3907C43.6691 62.3906 43.645 62.3882 43.6215 62.3832C43.5367 62.3635 43.4632 62.3111 43.4169 62.2373C43.3706 62.1635 43.3553 62.0743 43.3743 61.9893L43.7862 60.1317C43.8061 60.0471 43.8584 59.9738 43.9317 59.9276C44.0051 59.8814 44.0937 59.866 44.1783 59.8848C44.2629 59.9036 44.3367 59.955 44.3838 60.028C44.4308 60.1009 44.4473 60.1895 44.4297 60.2746L44.0178 62.1321C44.0014 62.206 43.9602 62.2719 43.9011 62.319C43.842 62.366 43.7686 62.3913 43.6931 62.3907Z" fill="#162B43"/>
<path d="M46.9746 63.0075C46.8872 63.0075 46.8034 62.9727 46.7416 62.9107C46.6798 62.8488 46.6451 62.7648 46.6451 62.6771V61.0252C46.6451 60.9376 46.6798 60.8536 46.7416 60.7916C46.8034 60.7296 46.8872 60.6948 46.9746 60.6948C47.062 60.6948 47.1459 60.7296 47.2077 60.7916C47.2695 60.8536 47.3042 60.9376 47.3042 61.0252V62.6771C47.3042 62.7648 47.2695 62.8488 47.2077 62.9107C47.1459 62.9727 47.062 63.0075 46.9746 63.0075Z" fill="#162B43"/>
<path d="M50.2654 61.5631C50.2043 61.5632 50.1444 61.5463 50.0924 61.5144C50.0398 61.4823 49.9975 61.4359 49.9704 61.3805L49.5585 60.5546C49.537 60.5155 49.5236 60.4724 49.5189 60.4281C49.5143 60.3837 49.5185 60.3388 49.5313 60.2961C49.5445 60.2536 49.566 60.2143 49.5947 60.1804C49.6238 60.1465 49.6593 60.1187 49.6992 60.0987C49.7391 60.0787 49.7826 60.0669 49.8271 60.064C49.8716 60.0616 49.9161 60.068 49.9581 60.083C50 60.0982 50.0384 60.1218 50.0709 60.1523C50.1034 60.1826 50.1295 60.2191 50.1476 60.2597L50.5595 61.0857C50.5793 61.1244 50.5908 61.1669 50.5933 61.2104C50.5964 61.2537 50.591 61.2972 50.5776 61.3384C50.5638 61.3795 50.5422 61.4176 50.5142 61.4507C50.4859 61.4847 50.4512 61.5128 50.412 61.5333C50.3664 61.5558 50.3162 61.5674 50.2654 61.5672V61.5631Z" fill="#162B43"/>
<path d="M61.5891 60.7371C61.5185 60.7369 61.4497 60.7141 61.393 60.6718C61.3507 60.6402 61.3166 60.599 61.2935 60.5515C61.2705 60.5039 61.2591 60.4516 61.2604 60.3987C61.2617 60.3459 61.2756 60.2941 61.301 60.2478C61.3263 60.2015 61.3624 60.1619 61.4062 60.1325L62.6421 59.3065C62.7148 59.2579 62.8039 59.2402 62.8897 59.2574C62.9754 59.2746 63.0508 59.3252 63.0994 59.3982C63.1479 59.4711 63.1655 59.5604 63.1483 59.6464C63.1312 59.7323 63.0807 59.808 63.0079 59.8566L61.772 60.6825C61.718 60.7188 61.6542 60.7378 61.5891 60.7371Z" fill="#162B43"/>
<path d="M64.0609 62.3883C64.0302 62.3883 63.9998 62.3841 63.9702 62.3759C63.9067 62.3581 63.85 62.3216 63.8074 62.2711C63.7648 62.2205 63.7383 62.1584 63.7313 62.0926C63.7271 62.049 63.7313 62.005 63.7437 61.9629L64.1556 60.5192C64.1817 60.4375 64.2385 60.3692 64.3139 60.3287C64.3893 60.2882 64.4775 60.2787 64.5597 60.3022C64.642 60.3257 64.712 60.3803 64.7548 60.4546C64.7976 60.5288 64.81 60.6168 64.7892 60.7L64.3773 62.1446C64.3591 62.2151 64.3183 62.2776 64.261 62.3224C64.2038 62.3672 64.1335 62.3918 64.0609 62.3924V62.3883Z" fill="#162B43"/>
<path d="M67.1473 63.0079H67.1169C67.0737 63.0037 67.0318 62.9914 66.9933 62.9716C66.955 62.9507 66.9212 62.9227 66.8936 62.889C66.8658 62.8556 66.8449 62.817 66.832 62.7755C66.8192 62.734 66.8146 62.6903 66.8186 62.647C66.8709 62.0648 66.8059 61.4781 66.6274 60.9216C66.6029 60.8389 66.6117 60.7499 66.6517 60.6735C66.6918 60.5972 66.7601 60.5396 66.842 60.5131C66.9239 60.4866 67.0128 60.4932 67.0899 60.5315C67.167 60.5699 67.226 60.637 67.2544 60.7184C67.4603 61.3598 67.5354 62.0362 67.4752 62.7073C67.4675 62.7891 67.4296 62.8651 67.369 62.9204C67.3086 62.9763 67.2295 63.0075 67.1473 63.0079Z" fill="#162B43"/>
<path d="M70.6383 61.5787C70.5867 61.5786 70.5359 61.5665 70.49 61.5432L69.2541 60.9196C69.2139 60.9014 69.178 60.8749 69.1486 60.8419C69.1193 60.8089 69.0966 60.7705 69.0819 60.7288C69.0675 60.6869 69.0616 60.6425 69.0646 60.5983C69.0674 60.5542 69.0792 60.5112 69.0992 60.4719C69.1192 60.4321 69.1472 60.3969 69.1816 60.3687C69.2154 60.3399 69.2546 60.3183 69.2969 60.3051C69.3389 60.2916 69.3833 60.2871 69.4271 60.2919C69.4709 60.2961 69.5135 60.3091 69.5524 60.3298L70.7882 60.9534C70.8545 60.9869 70.9075 61.0418 70.9387 61.1093C70.97 61.1767 70.9776 61.2528 70.9604 61.3251C70.9429 61.3972 70.902 61.4614 70.8442 61.5077C70.786 61.5537 70.7141 61.5787 70.6399 61.5787H70.6383Z" fill="#162B43"/>
<path d="M55.3036 78.3997C50.3107 78.3997 47.3759 77.1508 46.2859 75.9664C46.2567 75.9345 46.234 75.8972 46.2191 75.8566C46.2037 75.816 46.1967 75.7727 46.1985 75.7294C46.2004 75.6859 46.2107 75.6432 46.229 75.6038C46.2561 75.5442 46.3002 75.494 46.3558 75.4596C46.4114 75.4252 46.476 75.4081 46.5413 75.4105C46.5846 75.412 46.6271 75.4221 46.6664 75.4403C46.7058 75.4584 46.7411 75.4843 46.7703 75.5163C47.7376 76.5685 50.6237 77.7819 55.573 77.7356C61.2159 77.6844 64.3484 76.3976 66.2146 75.4345C66.253 75.4146 66.295 75.4026 66.3382 75.399C66.3813 75.3956 66.4247 75.4006 66.4659 75.4138C66.5072 75.4271 66.5456 75.4484 66.5787 75.4766C66.6454 75.5332 66.6869 75.614 66.6941 75.7013C66.6974 75.7445 66.6924 75.788 66.6793 75.8293C66.666 75.8708 66.6448 75.9092 66.6166 75.9425C66.5889 75.9764 66.5548 76.0045 66.5161 76.0251C64.5906 77.0162 61.3617 78.3468 55.5787 78.3989L55.3036 78.3997Z" fill="#162B43"/>
<path d="M41.2247 76.2135C41.1404 76.2136 41.0594 76.1814 40.9981 76.1235C40.9368 76.0656 40.8999 75.9864 40.8951 75.9021C40.8218 74.6194 41.7445 73.3912 42.9944 73.1079C43.037 73.0973 43.0812 73.0953 43.1246 73.1021C43.1678 73.109 43.2093 73.1244 43.2465 73.1475C43.2842 73.1703 43.3167 73.2007 43.3421 73.2367C43.3676 73.2721 43.3857 73.3123 43.3953 73.3549C43.4049 73.3975 43.4059 73.4416 43.3981 73.4845C43.3907 73.5277 43.3747 73.569 43.3512 73.6059C43.3273 73.6427 43.2965 73.6744 43.2605 73.6993C43.2243 73.7244 43.1834 73.7418 43.1402 73.7505C42.2109 73.9611 41.499 74.9068 41.5526 75.8633C41.5575 75.9507 41.5277 76.0365 41.4696 76.1018C41.4115 76.1672 41.3299 76.2067 41.2428 76.2118L41.2247 76.2135Z" fill="#162B43"/>
<path d="M71.4992 76.213C71.438 76.2128 71.3781 76.1955 71.3261 76.1631C71.2742 76.1307 71.2322 76.0844 71.205 76.0294C71.1778 75.9745 71.1664 75.913 71.1721 75.8519C71.1778 75.7908 71.2003 75.7325 71.2372 75.6835C71.7143 75.0509 71.931 74.4132 71.8469 73.8887C71.8207 73.7212 71.7595 73.561 71.6673 73.4188C71.5749 73.2766 71.454 73.1554 71.3122 73.0628C71.2407 73.0128 71.1919 72.9364 71.1764 72.8504C71.161 72.7644 71.1801 72.6758 71.2297 72.6039C71.2793 72.532 71.3552 72.4828 71.441 72.4669C71.5267 72.4511 71.6152 72.4699 71.6871 72.5193C71.9022 72.6631 72.0853 72.8499 72.2248 73.0681C72.3643 73.2864 72.4573 73.5312 72.4978 73.7871C72.6107 74.4917 72.3495 75.3077 71.7629 76.0858C71.7317 76.1261 71.6917 76.1586 71.6459 76.1808C71.6001 76.2027 71.5499 76.2137 71.4992 76.213Z" fill="#162B43"/>
<path d="M58.7995 46.1466C58.8052 46.144 58.8113 46.1426 58.8176 46.1425C58.8237 46.1433 58.8296 46.1453 58.8349 46.1483C58.8402 46.1514 58.8445 46.156 58.8473 46.1615C58.8505 46.1667 58.8522 46.1727 58.8522 46.1788C58.8843 47.6738 60.5116 48.7517 62.0135 48.7286C63.5353 48.7055 64.917 47.8878 66.2155 47.0957C67.3953 48.2611 69.4641 48.3288 70.747 47.3005C70.7712 47.2815 70.7999 47.2689 70.8304 47.2642C70.8608 47.2594 70.8919 47.2625 70.9208 47.2732C70.9495 47.2841 70.975 47.3022 70.9948 47.3258C71.0145 47.3494 71.0279 47.3776 71.0337 47.4079C71.7085 50.8967 76.2367 59.5206 79.5727 59.7453C80.1972 59.5801 80.4996 58.8846 80.6948 58.2684C83.408 50.9132 83.1484 30.5376 71.3385 33.9075C71.2723 33.927 71.2011 33.9203 71.1398 33.8886C71.0784 33.8569 71.0316 33.8028 71.009 33.7374C69.0456 28.2034 56.261 24.8707 56.855 30.1031C56.8569 30.118 56.854 30.133 56.8468 30.1461C56.8397 30.1592 56.8288 30.1699 56.8155 30.1767C56.802 30.1833 56.7867 30.1856 56.7718 30.1833C56.7571 30.1806 56.7435 30.1734 56.7331 30.1626C53.0041 26.4235 40.362 29.7067 33.1693 34.5072C31.9837 35.2984 29.4131 37.8292 28.9072 39.1639C28.4014 40.4987 28.1023 41.3808 30.7075 42.3323C28.6403 45.3372 27.5824 49.3803 28.3494 52.9443C28.618 54.279 30.162 57.6382 33.0523 57.2186C42.9541 55.7905 49.9639 50.7588 58.7995 46.1466Z" fill="#007EEF"/>
<path d="M36.0481 52.6007C35.9679 52.601 35.8904 52.5716 35.8306 52.5181C35.7855 52.4789 35.7519 52.4281 35.7333 52.3712C35.7148 52.3143 35.712 52.2534 35.7253 52.1951C35.7386 52.1367 35.7674 52.0831 35.8087 52.0399C35.8501 51.9967 35.9023 51.9656 35.9599 51.9498C42.1185 50.2251 48.046 47.759 53.613 44.6054C53.6509 44.5842 53.6926 44.5707 53.7357 44.5657C53.7788 44.5599 53.8226 44.5633 53.8643 44.5757C53.9062 44.5874 53.9454 44.6073 53.9796 44.6343C54.0132 44.6613 54.0412 44.6947 54.062 44.7326C54.1034 44.8083 54.114 44.897 54.0917 44.9804C54.0801 45.0222 54.0602 45.0613 54.0332 45.0952C54.0062 45.1289 53.9729 45.1569 53.9351 45.1778C48.3231 48.3579 42.3474 50.8448 36.1387 52.5842C36.1095 52.5941 36.0789 52.5997 36.0481 52.6007Z" fill="#162B43"/>
<path d="M44.0639 46.3034C43.9913 46.3033 43.9208 46.2795 43.8629 46.2356C43.8051 46.1913 43.7635 46.129 43.7447 46.0585C43.7259 45.9879 43.731 45.9131 43.7591 45.8458C43.787 45.7786 43.8362 45.7226 43.8991 45.6864C45.4754 44.7777 47.1547 44.0617 48.9011 43.5538C48.9842 43.5319 49.0725 43.5435 49.1472 43.586C49.2219 43.6285 49.2771 43.6985 49.3011 43.7812C49.325 43.8639 49.3158 43.9527 49.2754 44.0287C49.235 44.1047 49.1667 44.1619 49.0848 44.1881C47.3892 44.6814 45.7586 45.3766 44.2279 46.2588C44.178 46.2884 44.1211 46.3038 44.0631 46.3034H44.0639Z" fill="#162B43"/>
<path d="M28.3609 105.249C25.9114 106.975 23.2889 110.437 24.4523 112.713C25.0463 113.874 26.7485 114 31.0435 114C50.0577 114 65.1262 113.892 83.8141 113.835C88.3316 114.373 90.5611 112.107 88.9363 108.185C86.3336 101.976 69.7689 95.1348 54.9303 96.1912C45.677 96.8478 34.8203 100.692 28.3609 105.249Z" fill="#DBF122"/>
<path d="M55.4395 110.761C54.8682 110.763 54.3135 110.568 53.8675 110.21C48.924 106.236 45.7932 101.498 43.6148 97.8136C43.5907 97.7762 43.5745 97.7343 43.567 97.6905C43.5555 97.6244 43.5643 97.5564 43.5922 97.4955C43.6202 97.4345 43.666 97.3836 43.7235 97.3494C43.7618 97.3267 43.8042 97.312 43.8482 97.3062C43.8922 97.3004 43.937 97.3036 43.9798 97.3155C44.0223 97.3279 44.062 97.3483 44.0968 97.3758C44.1308 97.4037 44.1588 97.4383 44.1792 97.4774C46.3279 101.112 49.4176 105.787 54.277 109.695C54.6289 109.974 55.0693 110.118 55.5178 110.099C55.9664 110.08 56.3932 109.9 56.7207 109.593C61.1624 105.393 64.1977 101.303 66.8688 95.9188C66.8966 95.8583 66.942 95.8076 66.999 95.7734C67.0561 95.7392 67.1221 95.7231 67.1885 95.7272C67.2324 95.7298 67.2754 95.7413 67.3149 95.7608C67.3544 95.7804 67.3895 95.8077 67.4183 95.8412C67.4469 95.8749 67.4688 95.9139 67.4826 95.956C67.496 95.9982 67.5008 96.0427 67.4967 96.0869C67.4926 96.131 67.4797 96.1738 67.4587 96.2129C64.7513 101.671 61.6749 105.816 57.173 110.073C56.7038 110.516 56.0837 110.762 55.4395 110.761Z" fill="#162B43"/>
<path d="M55.6768 107.159C55.6332 107.159 55.5901 107.15 55.5499 107.133C55.5097 107.116 55.4733 107.091 55.4428 107.06C52.1611 103.696 49.2214 100.014 46.6673 96.0669C46.6434 96.0306 46.6269 95.9899 46.6187 95.9471C46.6105 95.9043 46.6105 95.8603 46.6187 95.8175C46.6278 95.7746 46.6451 95.7339 46.6698 95.6977C46.6949 95.6621 46.7265 95.6315 46.7629 95.6077C46.801 95.5848 46.8433 95.5699 46.8873 95.5639C46.93 95.5556 46.9739 95.5556 47.0167 95.5639C47.0593 95.5736 47.0996 95.5915 47.1353 95.6168C47.171 95.6415 47.2013 95.6733 47.2243 95.7101C49.6931 99.5257 52.5262 103.092 55.6834 106.358C58.8562 103.104 61.4829 99.5021 63.494 95.6366C63.5138 95.5964 63.5419 95.561 63.5764 95.5325C63.6098 95.5026 63.649 95.4799 63.6915 95.4657C63.734 95.4515 63.7789 95.4461 63.8236 95.4499C63.8672 95.454 63.9097 95.4664 63.9488 95.4863C63.9881 95.5066 64.0228 95.5347 64.051 95.5689C64.0789 95.6029 64.0997 95.6422 64.1119 95.6845C64.1251 95.7266 64.1293 95.7711 64.1243 95.815C64.1196 95.8588 64.1061 95.9012 64.0848 95.9397C61.9937 99.9555 59.2476 103.697 55.9223 107.06C55.8917 107.092 55.8549 107.117 55.8144 107.133C55.7708 107.151 55.7239 107.16 55.6768 107.159Z" fill="#162B43"/>
<path d="M55.7806 110.963C55.7041 110.963 55.6299 110.936 55.571 110.887C55.5121 110.838 55.472 110.77 55.4576 110.695C55.1306 108.982 55.1306 107.222 55.4576 105.509C55.474 105.423 55.5239 105.347 55.5962 105.298C55.6685 105.249 55.7574 105.23 55.8432 105.247C55.9291 105.263 56.005 105.313 56.0541 105.385C56.1032 105.458 56.1216 105.547 56.1052 105.633C55.7938 107.264 55.7938 108.94 56.1052 110.571C56.1214 110.657 56.1029 110.746 56.0538 110.818C56.0047 110.89 55.9289 110.94 55.8432 110.956C55.8226 110.961 55.8016 110.963 55.7806 110.963Z" fill="#162B43"/>
<path d="M60.7068 107.307C60.6605 107.307 60.6146 107.298 60.5721 107.28C60.5295 107.262 60.4912 107.234 60.4597 107.2L57.5817 104.056C57.5246 103.991 57.4951 103.907 57.4993 103.821C57.504 103.735 57.5421 103.654 57.6053 103.596C57.6686 103.537 57.7521 103.506 57.838 103.508C57.924 103.511 58.0056 103.547 58.0654 103.609L60.9433 106.754C60.9864 106.801 61.0149 106.86 61.0253 106.923C61.0357 106.986 61.0275 107.051 61.0018 107.11C60.9761 107.168 60.934 107.218 60.8806 107.253C60.8272 107.288 60.7649 107.307 60.7011 107.307H60.7068Z" fill="#162B43"/>
<path d="M63.499 104.079C63.4524 104.079 63.4064 104.069 63.3639 104.05C62.0514 103.456 60.9383 102.576 60.1441 101.505C60.1068 101.452 60.0857 101.39 60.0834 101.325C60.081 101.261 60.0975 101.197 60.1308 101.142C60.164 101.087 60.2127 101.043 60.2706 101.015C60.3286 100.987 60.3935 100.977 60.4571 100.986C60.5425 100.998 60.6198 101.043 60.673 101.111C61.4005 102.092 62.4246 102.9 63.635 103.447C63.7039 103.478 63.76 103.532 63.794 103.6C63.8286 103.668 63.8385 103.745 63.822 103.819C63.806 103.893 63.7652 103.959 63.7064 104.006C63.6476 104.054 63.5744 104.079 63.499 104.079Z" fill="#162B43"/>
<path d="M66.0745 100.837C66.0541 100.837 66.0337 100.835 66.0136 100.832C64.55 100.562 63.1325 100.084 61.8042 99.4119C61.7654 99.3923 61.7309 99.3652 61.7027 99.3322C61.6744 99.2992 61.6529 99.2609 61.6394 99.2195C61.6136 99.1375 61.6207 99.0486 61.6592 98.9717C61.6788 98.933 61.7057 98.8985 61.7386 98.8702C61.7715 98.8419 61.8096 98.8204 61.8508 98.8069C61.8919 98.7934 61.9354 98.7882 61.9785 98.7915C62.0217 98.7948 62.0638 98.8067 62.1025 98.8263C63.3739 99.4713 64.7313 99.9292 66.133 100.186C66.2135 100.201 66.2855 100.246 66.3349 100.311C66.3842 100.377 66.4074 100.458 66.4 100.54C66.3925 100.623 66.3546 100.699 66.2935 100.755C66.2325 100.81 66.1529 100.841 66.0704 100.841L66.0745 100.837Z" fill="#162B43"/>
<path d="M49.5305 107.794C49.4666 107.793 49.4041 107.774 49.3507 107.739C49.2974 107.704 49.2553 107.654 49.2298 107.595C49.2041 107.537 49.1961 107.472 49.2066 107.409C49.2172 107.345 49.2458 107.287 49.2891 107.239C50.6897 105.723 51.9445 104.689 53.7744 103.552C53.8113 103.528 53.8525 103.512 53.8956 103.504C53.9388 103.495 53.9833 103.495 54.0266 103.504C54.0693 103.513 54.1098 103.531 54.1452 103.556C54.1812 103.582 54.2117 103.614 54.235 103.651C54.2578 103.689 54.2732 103.731 54.2803 103.774C54.2871 103.818 54.2851 103.862 54.2746 103.905C54.264 103.948 54.245 103.988 54.2185 104.023C54.1923 104.059 54.1592 104.088 54.1213 104.111C52.3466 105.213 51.1272 106.215 49.7727 107.685C49.7424 107.72 49.7047 107.748 49.6623 107.767C49.6207 107.785 49.5758 107.794 49.5305 107.794Z" fill="#162B43"/>
<path d="M46.9426 104.075C46.8958 104.076 46.8495 104.066 46.8067 104.047C46.7639 104.028 46.7256 104 46.6944 103.965C46.6632 103.93 46.6398 103.889 46.6258 103.844C46.6118 103.799 46.6074 103.752 46.6131 103.705C46.6212 103.645 46.646 103.587 46.6847 103.54C47.8245 102.135 49.2792 101.019 50.9303 100.284C51.01 100.251 51.0994 100.251 51.1792 100.283C51.2591 100.316 51.3231 100.378 51.3575 100.457C51.392 100.537 51.3942 100.626 51.3636 100.707C51.3331 100.788 51.2722 100.853 51.194 100.889C49.6385 101.583 48.2683 102.634 47.1947 103.959C47.1638 103.996 47.125 104.027 47.0809 104.048C47.0369 104.069 46.9888 104.079 46.9402 104.079L46.9426 104.075Z" fill="#162B43"/>
<path d="M44.9099 100.914C44.8397 100.913 44.7712 100.891 44.7147 100.849C44.6725 100.818 44.6384 100.777 44.615 100.73C44.5917 100.683 44.5799 100.631 44.5805 100.579C44.5811 100.526 44.5942 100.475 44.6187 100.429C44.6432 100.382 44.6783 100.342 44.7213 100.312C46.1636 99.294 47.7526 98.5024 49.4332 97.9648C49.4749 97.9498 49.5191 97.9433 49.5634 97.9458C49.6075 97.9485 49.6507 97.96 49.6903 97.9797C49.7301 97.9999 49.7654 98.028 49.7941 98.0623C49.8229 98.0962 49.8447 98.1355 49.8583 98.1779C49.8717 98.2201 49.8764 98.2644 49.8723 98.3084C49.8681 98.3526 49.8551 98.3955 49.834 98.4345C49.8129 98.4736 49.7842 98.5079 49.7496 98.5356C49.715 98.5634 49.6752 98.5839 49.6326 98.5959C48.0163 99.1139 46.4883 99.876 45.1011 100.856C45.0449 100.895 44.9782 100.915 44.9099 100.915V100.914Z" fill="#162B43"/>
<path d="M13.6303 34.5115C19.8368 34.5115 23.818 28.0004 23.818 23.9698C23.818 17.2844 18.4625 12.9126 12.9753 13.2322C5.3624 13.6824 3.13784 20.8361 3.13784 23.3205C3.13784 29.9059 7.7748 34.5148 13.6303 34.5115Z" fill="white"/>
<path d="M10.5414 21.2773C10.4608 21.2778 10.3828 21.2488 10.3221 21.1956C10.2614 21.1423 10.2223 21.0687 10.2122 20.9885C10.202 20.9083 10.2215 20.8272 10.267 20.7605C10.3125 20.6938 10.3808 20.6461 10.459 20.6264C12.3777 20.1392 14.3667 19.9921 16.336 20.192C16.3792 20.1963 16.4212 20.2091 16.4596 20.2298C16.4979 20.2504 16.5318 20.2783 16.5593 20.3121C16.5869 20.3458 16.6075 20.3847 16.6201 20.4264C16.6327 20.4682 16.6369 20.512 16.6326 20.5554C16.6282 20.5988 16.6154 20.6409 16.5949 20.6793C16.5743 20.7177 16.5464 20.7517 16.5127 20.7793C16.4791 20.8069 16.4403 20.8276 16.3987 20.8402C16.357 20.8528 16.3133 20.8571 16.2701 20.8527C14.3772 20.6606 12.4655 20.802 10.6213 21.2707C10.5942 21.276 10.5666 21.2782 10.5389 21.2773H10.5414Z" fill="#007EEF"/>
<path d="M9.51077 24.403C9.42896 24.4041 9.34966 24.3747 9.28831 24.3204C9.22737 24.2651 9.18927 24.1889 9.1815 24.1068C9.17373 24.0248 9.19684 23.9428 9.24629 23.8769C9.29553 23.811 9.36751 23.766 9.44815 23.7505C11.8309 23.283 14.0958 23.3929 16.0946 23.4912C16.4596 23.5085 16.804 23.5259 17.1402 23.5383C17.1835 23.5401 17.2261 23.5505 17.2654 23.5688C17.3047 23.587 17.3401 23.6127 17.3695 23.6446C17.3989 23.6765 17.4218 23.7139 17.4368 23.7547C17.4519 23.7953 17.4589 23.8385 17.4574 23.8819C17.4551 23.9252 17.4447 23.9678 17.4269 24.0074C17.4086 24.0467 17.3828 24.082 17.3511 24.1115C17.3196 24.1414 17.2823 24.1645 17.2415 24.1792C17.2009 24.1941 17.1578 24.2008 17.1146 24.199C16.7752 24.1858 16.4291 24.1685 16.0625 24.1511C14.1016 24.0553 11.8787 23.9463 9.57503 24.3989C9.55387 24.4031 9.53235 24.4054 9.51077 24.4055V24.403Z" fill="#007EEF"/>
<path d="M12.2873 28.0156C12.2057 28.0161 12.1268 27.9862 12.0659 27.9317C12.005 27.8772 11.9665 27.8021 11.9577 27.7207C11.949 27.6396 11.9704 27.5581 12.0181 27.4919C12.0657 27.4257 12.136 27.3795 12.2156 27.3623C13.1237 27.1623 14.0552 27.0906 14.9831 27.1492C15.0264 27.1521 15.0687 27.1636 15.1075 27.183C15.1466 27.2019 15.1814 27.2286 15.2097 27.2615C15.2388 27.2938 15.2611 27.3317 15.2752 27.3728C15.2894 27.414 15.2951 27.4576 15.2921 27.501C15.2893 27.5444 15.2781 27.5867 15.259 27.6257C15.2399 27.6647 15.2134 27.6995 15.1808 27.7282C15.1486 27.7573 15.1108 27.7797 15.0698 27.7939C15.0287 27.8081 14.9852 27.8138 14.9419 27.8108C14.0756 27.7562 13.206 27.8232 12.3581 28.0098C12.3346 28.0149 12.3105 28.0171 12.2865 28.0164L12.2873 28.0156Z" fill="#007EEF"/>
<path d="M89.5494 13.0138C90.5867 13.6952 91.9016 13.8208 93.1325 13.6746C94.9344 13.459 96.7965 12.5628 97.5413 10.9043C98.118 9.61991 97.8453 8.07784 97.0519 6.94875C96.0731 5.55453 94.4977 5.09447 92.859 5.17789C90.515 5.29683 88.7444 5.95677 88.0952 8.39253C87.6338 10.1254 87.9584 11.9681 89.5494 13.0138Z" fill="#162B43"/>
<path d="M92.2386 14.0581C91.3323 14.0581 90.276 13.8871 89.3681 13.29C87.8125 12.2674 87.2177 10.4049 87.7763 8.30611C88.5384 5.44498 90.7646 4.95188 92.8417 4.84616C94.819 4.74705 96.3721 5.40616 97.3204 6.75744C98.2267 8.04594 98.4302 9.7309 97.8411 11.0384C97.1268 12.6292 95.381 13.7368 93.1704 14.0011C92.8612 14.0391 92.55 14.0581 92.2386 14.0581ZM89.7298 12.7366C90.8008 13.4436 92.1521 13.4576 93.0921 13.3445C94.6205 13.1619 96.5122 12.388 97.2405 10.7658C97.7349 9.66317 97.5552 8.23839 96.7816 7.13655C95.7558 5.67625 94.0907 5.44333 92.8746 5.50528C90.2315 5.63908 88.9388 6.49643 88.4132 8.47874C87.9312 10.2876 88.423 11.8809 89.7314 12.739L89.7298 12.7366Z" fill="#162B43"/>
<path d="M90.7687 26.0181C92.6184 26.7284 94.7746 26.1767 96.3804 25.0154C97.0469 24.533 97.6517 23.9416 98.0216 23.1983C98.815 21.6223 98.3388 19.564 97.0477 18.3598C95.7567 17.1555 93.233 16.5856 91.5482 17.0969C90.0074 17.5652 86.29 20.091 88.6867 24.2406C89.1598 25.0525 89.8939 25.6792 90.7687 26.0181Z" fill="#162B43"/>
<path d="M92.5246 26.6606C91.8852 26.6661 91.2502 26.5542 90.651 26.3302C89.7074 25.9632 88.9149 25.2878 88.4017 24.4132C87.5136 22.8761 87.3364 21.405 87.8728 20.0414C88.5838 18.2366 90.403 17.1075 91.4527 16.7887C93.2422 16.2452 95.9075 16.8565 97.2719 18.1251C98.6998 19.4525 99.1488 21.7007 98.3158 23.3551C97.9632 24.0555 97.3774 24.7056 96.5733 25.2862C95.325 26.1832 93.8865 26.6606 92.5246 26.6606ZM92.9151 17.2447C92.4853 17.2398 92.0571 17.2974 91.6438 17.4156C90.7523 17.6865 89.1062 18.7033 88.4866 20.2784C88.0269 21.4455 88.19 22.7241 88.9719 24.0778C89.4081 24.8218 90.0818 25.3965 90.8842 25.7091C92.4842 26.3228 94.5151 25.9569 96.1852 24.746C96.902 24.2282 97.4211 23.6582 97.7251 23.0528C98.4304 21.6487 98.0415 19.7399 96.8188 18.6058C95.9199 17.7675 94.3174 17.2455 92.9126 17.2455L92.9151 17.2447Z" fill="#162B43"/>
<path d="M97.3559 34.9892C97.5635 33.3794 96.6861 31.7035 95.2656 30.9238C93.8452 30.1441 91.1807 30.092 89.8526 31.0212C88.2468 32.1437 86.1392 35.3608 89.7141 38.3244C91.2656 39.6104 96.7025 40.0473 97.3559 34.9892Z" fill="#162B43"/>
<path d="M92.6349 39.4943C91.3661 39.4943 90.1632 39.1259 89.5041 38.58C88.0688 37.3898 87.371 36.0542 87.4303 34.6104C87.5011 32.8652 88.6777 31.4404 89.6639 30.7507C91.1469 29.7158 93.9746 29.8421 95.4239 30.6342C96.9777 31.4875 97.9071 33.2963 97.683 35.0325C97.3535 37.5764 95.9017 38.6568 94.7408 39.116C94.0685 39.3727 93.3543 39.501 92.6349 39.4943ZM92.5418 30.6648C91.6034 30.6648 90.6674 30.8572 90.0413 31.2958C89.1102 31.9467 88.1463 33.2335 88.0886 34.6401C88.0383 35.8675 88.6563 37.0222 89.9243 38.0737C90.6715 38.6931 92.7313 39.2036 94.4994 38.5048C95.9273 37.9399 96.8014 36.7117 97.0288 34.9532C97.2192 33.4805 96.429 31.945 95.1075 31.2198C94.4706 30.8647 93.505 30.6648 92.5418 30.6648Z" fill="#162B43"/>
<path d="M92.3935 11.0937H92.3672C92.2294 11.09 92.0946 11.0536 91.9737 10.9874C91.8528 10.9212 91.7493 10.8271 91.6718 10.7129L90.3535 8.79422C90.3289 8.75843 90.3116 8.71812 90.3025 8.67559C90.2935 8.63307 90.2929 8.58918 90.3008 8.54643C90.309 8.50383 90.3252 8.46318 90.3486 8.42667C90.3719 8.39029 90.4022 8.35886 90.4376 8.33416C90.4736 8.31003 90.5139 8.29294 90.5562 8.28378C90.5987 8.27551 90.6423 8.27551 90.6847 8.28378C90.7273 8.29168 90.768 8.30794 90.8043 8.33161C90.8406 8.35527 90.872 8.38589 90.8965 8.42171L92.2147 10.3404C92.2339 10.369 92.2596 10.3925 92.2897 10.409C92.3197 10.4252 92.353 10.4342 92.387 10.4353C92.421 10.4365 92.4548 10.4297 92.4858 10.4156C92.5157 10.4006 92.5419 10.3792 92.5624 10.3528C93.2351 9.49473 93.8055 8.56086 94.2622 7.57015C94.2803 7.53051 94.306 7.49486 94.338 7.46525C94.3859 7.42066 94.4459 7.39135 94.5104 7.38106C94.575 7.37076 94.6411 7.37994 94.7005 7.40743C94.74 7.42559 94.7756 7.45142 94.8051 7.48342C94.8345 7.51552 94.8573 7.55314 94.8722 7.5941C94.887 7.63507 94.8936 7.67858 94.8916 7.72212C94.8891 7.76557 94.8785 7.80816 94.8603 7.84767C94.3806 8.88435 93.7819 9.86144 93.0765 10.7592C92.9957 10.8636 92.892 10.9481 92.7734 11.0061C92.6549 11.0641 92.5246 11.0941 92.3927 11.0937H92.3935Z" fill="white"/>
<path d="M92.4685 23.2384C92.3159 23.2351 92.1669 23.1912 92.0368 23.1112C91.404 22.7412 90.8405 21.5989 90.7845 21.038C90.7801 20.9947 90.7844 20.9508 90.7969 20.9091C90.8095 20.8673 90.8301 20.8285 90.8577 20.7947C90.8852 20.761 90.9191 20.733 90.9575 20.7124C90.9958 20.6918 91.0378 20.679 91.0811 20.6746C91.1244 20.6703 91.1681 20.6745 91.2097 20.6871C91.2513 20.6997 91.2901 20.7204 91.3238 20.748C91.3574 20.7756 91.3853 20.8096 91.4059 20.848C91.4264 20.8865 91.4393 20.9286 91.4436 20.972C91.4831 21.3726 91.9577 22.2985 92.3713 22.5413C92.4282 22.5743 92.4685 22.5834 92.4817 22.5776C92.5831 22.5322 92.6687 22.386 92.7552 22.2266L94.1963 19.5753C94.2416 19.5058 94.3115 19.4559 94.3918 19.4357C94.4722 19.4155 94.5572 19.4264 94.6299 19.4662C94.7026 19.5059 94.7577 19.5717 94.7843 19.6504C94.8108 19.7291 94.8068 19.8149 94.773 19.8908L93.3328 22.5429C93.2249 22.742 93.0609 23.0385 92.7462 23.1822C92.6587 23.2208 92.5641 23.2403 92.4685 23.2392V23.2384Z" fill="white"/>
<path d="M91.8547 36.5958H91.8193C91.7762 36.5916 91.7345 36.5786 91.6965 36.5579C91.6587 36.5368 91.6251 36.5088 91.5977 36.4753L89.9424 34.4104C89.8975 34.36 89.8691 34.297 89.861 34.23C89.8529 34.1629 89.8655 34.095 89.8971 34.0354C89.9179 33.9954 89.9466 33.9602 89.9814 33.9318C90.0163 33.9034 90.0566 33.8824 90.0998 33.8702C90.1429 33.8581 90.1881 33.8551 90.2324 33.8611C90.2768 33.867 90.3195 33.8822 90.3577 33.9057C90.3961 33.9287 90.4295 33.9593 90.4557 33.9957L91.9 35.7955C92.7446 35.0448 93.4006 34.105 93.8148 33.0525C93.8298 33.011 93.8528 32.9728 93.8824 32.9401C93.9123 32.9076 93.9484 32.8814 93.9886 32.8631C94.0288 32.8448 94.0722 32.8347 94.1163 32.8336C94.1606 32.8325 94.2046 32.8404 94.2457 32.8567C94.2865 32.8733 94.3235 32.898 94.3547 32.9292C94.3858 32.9604 94.4104 32.9975 94.427 33.0384C94.4436 33.0796 94.4523 33.1236 94.4525 33.1681C94.4518 33.2121 94.4425 33.2556 94.4253 33.2961C93.9285 34.5595 93.1132 35.672 92.059 36.5248C92.0008 36.5709 91.9289 36.5959 91.8547 36.5958Z" fill="white"/>
<path d="M102.723 39.4692C101.869 39.4577 101.02 39.3412 100.195 39.1223C100.153 39.1115 100.114 39.0925 100.079 39.0663C100.044 39.0402 100.015 39.0075 99.9932 38.9701C99.9711 38.9326 99.9567 38.8912 99.9506 38.8482C99.9445 38.8052 99.947 38.7614 99.9578 38.7193C99.9686 38.6772 99.9876 38.6377 100.014 38.6029C100.04 38.5682 100.072 38.5389 100.11 38.5169C100.147 38.4948 100.188 38.4803 100.231 38.4742C100.274 38.4681 100.318 38.4705 100.36 38.4814C101.891 38.8679 103.17 38.9109 104.271 38.6144C105.604 38.2543 106.66 37.3374 107.023 36.2191C107.27 35.46 107.213 34.6498 107.154 33.7883C107.105 33.0837 107.055 32.3561 107.179 31.6408C107.322 30.8231 107.682 30.0715 108.03 29.3471C108.442 28.4807 108.836 27.663 108.862 26.7742C108.89 25.8186 108.492 24.9265 108.07 23.9833C107.792 23.3597 107.504 22.7154 107.34 22.0365C106.874 20.1079 107.448 18.1917 107.999 16.3374C108.351 15.1628 108.715 13.9479 108.805 12.7519C108.868 11.9069 108.805 10.7126 108.128 9.8164C107.501 8.98301 106.344 8.46678 105.035 8.43457C103.807 8.40566 102.586 8.75008 101.41 9.08542C101.325 9.1093 101.235 9.0987 101.159 9.05595C101.083 9.01319 101.026 8.9418 101.003 8.85746C100.979 8.77312 100.989 8.68275 101.032 8.60623C101.075 8.52971 101.146 8.47331 101.23 8.44943C102.458 8.1017 103.728 7.74324 105.055 7.7738C106.586 7.81179 107.899 8.41061 108.658 9.41829C109.457 10.4788 109.538 11.8433 109.467 12.8047C109.371 14.0726 108.997 15.3223 108.634 16.5306C108.08 18.3808 107.556 20.1285 107.98 21.8837C108.13 22.5032 108.405 23.1226 108.671 23.7157C109.105 24.6854 109.553 25.6889 109.521 26.7957C109.491 27.8248 109.05 28.745 108.624 29.6353C108.28 30.3523 107.955 31.0296 107.829 31.7564C107.717 32.3957 107.763 33.0532 107.811 33.7486C107.873 34.6341 107.937 35.5492 107.646 36.4297C107.215 37.7562 105.986 38.839 104.44 39.2561C103.879 39.4029 103.302 39.4745 102.723 39.4692Z" fill="#007EEF"/>
<path d="M105.428 25.5132C105.205 25.5129 104.983 25.4804 104.769 25.4166C104.432 25.305 104.107 25.1629 103.796 24.992C103.534 24.8491 103.262 24.727 102.981 24.6269C102.495 24.4708 101.852 24.5196 101.616 24.9193C101.57 24.9911 101.498 25.0421 101.415 25.0617C101.332 25.0812 101.245 25.0678 101.171 25.0242C101.098 24.9812 101.044 24.9108 101.022 24.8285C100.999 24.7455 101.009 24.6566 101.049 24.5807C101.483 23.8456 102.459 23.7622 103.183 23.9959C103.497 24.1065 103.803 24.2421 104.096 24.4015C104.371 24.554 104.66 24.6809 104.958 24.7806C105.452 24.9292 106.087 24.8433 106.293 24.4411C106.314 24.4025 106.342 24.3682 106.375 24.3403C106.408 24.3122 106.447 24.2908 106.488 24.2776C106.529 24.2644 106.573 24.2593 106.616 24.2627C106.659 24.2666 106.701 24.2787 106.739 24.2982C106.778 24.3188 106.812 24.3469 106.84 24.3808C106.868 24.4139 106.889 24.4523 106.903 24.4937C106.916 24.535 106.921 24.5787 106.917 24.622C106.914 24.6653 106.902 24.7074 106.882 24.7459C106.601 25.2828 106.018 25.5132 105.428 25.5132Z" fill="#007EEF"/>
<path d="M78.0534 40.041C77.966 40.041 77.8822 40.0061 77.8204 39.9442C77.7586 39.8822 77.7238 39.7982 77.7238 39.7106C77.7238 39.6229 77.7586 39.5389 77.8204 39.477C77.8822 39.415 77.966 39.3802 78.0534 39.3802C78.9836 39.3802 79.4648 37.9562 79.7012 36.7619C80.025 35.1513 80.067 33.2573 80.0868 32.3471C80.2277 26.0037 81.9472 23.4846 83.3651 22.4884C84.2632 21.8582 85.1069 21.812 85.5567 21.964C85.6395 21.9916 85.7079 22.051 85.7471 22.1292C85.7759 22.1877 85.7868 22.2536 85.7784 22.3184C85.7699 22.3832 85.7425 22.444 85.6995 22.4932C85.6566 22.5423 85.6 22.5776 85.5371 22.5946C85.4741 22.6115 85.4076 22.6094 85.3458 22.5884C85.1176 22.5116 84.4898 22.5058 83.7433 23.0286C82.6846 23.772 80.8877 25.9732 80.7459 32.362C80.6759 35.6584 80.3167 40.041 78.0534 40.041Z" fill="#162B43"/>
<path d="M58.9643 19.4481H57.2489C56.2083 19.4431 55.0351 19.3655 54.2886 18.5288C53.6295 17.7854 53.5528 16.7116 53.5339 15.6833L53.4556 11.4594C53.4413 10.7061 53.4282 9.95308 53.4161 9.20035C53.3864 7.45592 53.3559 5.65285 53.3106 3.88034C53.2579 1.82369 54.6017 0.578142 57.0948 0.382389C63.6194 -0.138122 70.1752 -0.127901 76.6981 0.41295C77.3531 0.467463 78.0312 0.561623 78.5255 1.05059C79.066 1.59242 79.1517 2.387 79.1929 3.15432C79.4038 7.05451 79.4714 11.0133 79.3931 14.9193C79.3659 16.2904 79.1781 17.9572 77.9579 18.6783C77.3811 19.0161 76.7129 19.0458 76.1733 19.0698C70.4652 19.32 64.6839 19.4481 58.9643 19.4481ZM66.7024 0.660738C63.5106 0.660738 60.318 0.78711 57.1451 1.04068C54.993 1.21248 53.9236 2.16234 53.9673 3.86299C54.0126 5.63881 54.0431 7.44353 54.0727 9.18879C54.0848 9.94207 54.098 10.6948 54.1123 11.447L54.1897 15.6718C54.2079 16.6167 54.2655 17.5128 54.778 18.0894C55.344 18.7253 56.3097 18.7823 57.2497 18.7873C63.518 18.8154 69.8728 18.6882 76.1387 18.4098C76.633 18.3884 77.1859 18.3636 77.6168 18.1092C78.5568 17.5541 78.7043 16.1054 78.7282 14.9061C78.8057 11.0158 78.7389 7.07433 78.5288 3.18983C78.4942 2.55054 78.4291 1.89472 78.0534 1.51809C77.7239 1.1877 77.1966 1.11832 76.6412 1.07207C73.3456 0.794544 70.0244 0.660738 66.7024 0.660738Z" fill="#007EEF"/>
<path d="M55.4644 16.7885C55.4211 16.7918 55.3777 16.7861 55.3366 16.772C55.2954 16.7582 55.2573 16.7363 55.2246 16.7076C55.1907 16.6792 55.1627 16.6444 55.1422 16.6052C55.1232 16.5662 55.112 16.5238 55.1093 16.4804C55.1065 16.4376 55.1124 16.3946 55.1266 16.3541C55.1404 16.3128 55.1622 16.2746 55.1908 16.2417C55.2192 16.2078 55.2539 16.1797 55.293 16.1592C55.332 16.1401 55.3742 16.1286 55.4174 16.1253C56.3856 15.9937 57.3639 15.952 58.3398 16.0006C58.4272 16.0048 58.5093 16.0437 58.5681 16.1087C58.6269 16.1737 58.6576 16.2594 58.6533 16.3471C58.649 16.4347 58.6102 16.517 58.5454 16.576C58.4806 16.6349 58.3951 16.6656 58.3077 16.6613C57.3721 16.6161 56.4344 16.657 55.5064 16.7836C55.4926 16.7867 55.4785 16.7883 55.4644 16.7885Z" fill="#007EEF"/>
<path d="M62.2368 16.673H60.589C60.5016 16.673 60.4178 16.6382 60.356 16.5762C60.2942 16.5142 60.2594 16.4302 60.2594 16.3426C60.2594 16.255 60.2942 16.1709 60.356 16.109C60.4178 16.047 60.5016 16.0122 60.589 16.0122H62.2368C62.3242 16.0122 62.4081 16.047 62.4699 16.109C62.5317 16.1709 62.5664 16.255 62.5664 16.3426C62.5664 16.4302 62.5317 16.5142 62.4699 16.5762C62.4081 16.6382 62.3242 16.673 62.2368 16.673Z" fill="#007EEF"/>
<path d="M65.324 16.4667C65.2634 16.4665 65.204 16.4495 65.1524 16.4177C65.1008 16.3859 65.059 16.3404 65.0315 16.2863C65.004 16.2322 64.9919 16.1715 64.9965 16.1109C65.0012 16.0504 65.0224 15.9923 65.0578 15.943C65.1055 15.8768 65.1759 15.8306 65.2556 15.8133C66.163 15.6183 67.0925 15.5466 68.019 15.6002C68.0622 15.6028 68.1045 15.6141 68.1434 15.6333C68.1828 15.6515 68.2179 15.678 68.2464 15.7109C68.2753 15.7433 68.2975 15.7812 68.3115 15.8224C68.3261 15.8631 68.3323 15.9064 68.3296 15.9496C68.3272 15.9932 68.3163 16.0359 68.2974 16.0752C68.2784 16.114 68.2521 16.1488 68.22 16.1776C68.1874 16.2064 68.1497 16.2288 68.1088 16.2437C68.0677 16.2577 68.0244 16.2636 67.9811 16.261C67.1134 16.2117 66.2431 16.2789 65.3932 16.4609C65.3704 16.4657 65.3472 16.4676 65.324 16.4667Z" fill="#007EEF"/>
<path d="M71.4991 16.2598C71.4117 16.2646 71.326 16.2344 71.2608 16.1759C71.1956 16.1173 71.1563 16.0352 71.1514 15.9476C71.1466 15.86 71.1767 15.774 71.2352 15.7086C71.2936 15.6433 71.3755 15.6039 71.4629 15.599L73.3159 15.3925C73.3595 15.3867 73.4038 15.3897 73.4463 15.4013C73.4887 15.413 73.5284 15.433 73.563 15.4603C73.5964 15.4879 73.6244 15.5215 73.6454 15.5594C73.6668 15.5979 73.6802 15.6403 73.685 15.6841C73.6897 15.7277 73.6858 15.7719 73.6734 15.8139C73.661 15.856 73.6403 15.8952 73.6126 15.9292C73.5849 15.9632 73.5508 15.9913 73.5121 16.0119C73.4735 16.0325 73.4311 16.0452 73.3875 16.0492L71.5354 16.2557L71.4991 16.2598Z" fill="#007EEF"/>
<path d="M77.8803 16.0533H76.0281C75.9407 16.0533 75.8569 16.0185 75.7951 15.9566C75.7333 15.8946 75.6986 15.8106 75.6986 15.723C75.6986 15.6353 75.7333 15.5513 75.7951 15.4893C75.8569 15.4274 75.9407 15.3926 76.0281 15.3926H77.8803C77.9677 15.3926 78.0515 15.4274 78.1133 15.4893C78.1751 15.5513 78.2099 15.6353 78.2099 15.723C78.2099 15.8106 78.1751 15.8946 78.1133 15.9566C78.0515 16.0185 77.9677 16.0533 77.8803 16.0533Z" fill="#007EEF"/>
<path d="M63.7257 5.35994C63.6383 5.36089 63.5541 5.32702 63.4917 5.26578C63.4604 5.2358 63.4355 5.19986 63.4184 5.16006C63.4018 5.11994 63.3929 5.07709 63.392 5.03369C63.391 4.94611 63.4248 4.86173 63.4859 4.79911C63.5158 4.7678 63.5517 4.7428 63.5914 4.7256C63.6314 4.70902 63.6741 4.70006 63.7174 4.69917L69.0868 4.56454C69.1302 4.56354 69.1733 4.57111 69.2137 4.58684C69.2542 4.60208 69.2912 4.6254 69.3225 4.6554C69.3537 4.68557 69.3789 4.72145 69.3966 4.76112C69.4141 4.80072 69.4236 4.84338 69.4246 4.88667C69.4265 4.97427 69.3939 5.05909 69.334 5.12289C69.3039 5.1542 69.2681 5.17943 69.2286 5.19723C69.1891 5.21473 69.1465 5.22427 69.1033 5.22531L63.7372 5.35664L63.7257 5.35994Z" fill="#007EEF"/>
<path d="M71.7051 8.04655H71.687C68.3404 7.82906 64.9838 7.81306 61.6353 7.99864C61.592 8.00121 61.5486 7.99519 61.5076 7.98092C61.4667 7.96664 61.4289 7.94441 61.3965 7.91548C61.3642 7.88655 61.3378 7.8515 61.319 7.81234C61.3001 7.77317 61.2892 7.73067 61.2868 7.68726C61.2842 7.64379 61.2902 7.60024 61.3045 7.55912C61.3188 7.518 61.3411 7.48011 61.37 7.44764C61.399 7.41518 61.434 7.38876 61.4732 7.36992C61.5123 7.35109 61.5548 7.34019 61.5982 7.33787C64.9741 7.15064 68.3582 7.16664 71.7323 7.38578C71.8196 7.38854 71.9023 7.42598 71.9622 7.48985C71.9918 7.5215 72.015 7.55871 72.0303 7.59935C72.0457 7.63999 72.0528 7.68326 72.0515 7.72668C72.0501 7.77011 72.0402 7.81283 72.0223 7.85241C72.0044 7.89199 71.979 7.92765 71.9473 7.95735C71.8837 8.01718 71.7989 8.04926 71.7117 8.04655H71.7051Z" fill="#007EEF"/>
<path d="M69.0629 10.6114H69.0374C67.2005 10.4701 65.3562 10.4544 63.5172 10.5643C63.4739 10.5669 63.4306 10.5609 63.3897 10.5466C63.3488 10.5324 63.3111 10.5103 63.2787 10.4814C63.2463 10.4526 63.22 10.4176 63.2011 10.3786C63.1822 10.3395 63.1712 10.2971 63.1686 10.2537C63.166 10.2103 63.1719 10.1668 63.186 10.1257C63.2001 10.0846 63.2222 10.0467 63.251 10.0141C63.2798 9.98161 63.3147 9.95509 63.3537 9.9361C63.3928 9.91712 63.4351 9.90605 63.4784 9.90352C65.3449 9.79227 67.2167 9.80827 69.081 9.95143C69.1243 9.95303 69.1669 9.96316 69.2062 9.98126C69.2456 9.99935 69.281 10.0251 69.3105 10.0569C69.34 10.0887 69.3629 10.1261 69.3779 10.1668C69.393 10.2075 69.3999 10.2508 69.3982 10.2942C69.3966 10.3376 69.3865 10.3803 69.3685 10.4197C69.3504 10.4592 69.3248 10.4947 69.293 10.5243C69.2613 10.5538 69.224 10.5768 69.1834 10.5919C69.1428 10.6069 69.0996 10.6139 69.0563 10.6122L69.0629 10.6114Z" fill="#007EEF"/>
<path d="M61.8264 35.808H61.7943C61.751 35.8075 61.7083 35.7984 61.6685 35.7813C61.6287 35.7642 61.5927 35.7394 61.5624 35.7083C61.5322 35.6773 61.5084 35.6405 61.4923 35.6002C61.4763 35.5599 61.4683 35.5169 61.4688 35.4735C61.4694 35.4301 61.4784 35.3873 61.4955 35.3474C61.5126 35.3075 61.5373 35.2714 61.5683 35.2411C61.5993 35.2108 61.6359 35.1869 61.6761 35.1708C61.7163 35.1547 61.7592 35.1467 61.8025 35.1472H61.8272C62.9478 35.1472 63.887 34.2246 64.3154 33.3045C64.8164 32.2374 64.8922 31.0166 64.9581 29.8355L65.6403 18.2803C65.6426 18.237 65.6535 18.1946 65.6724 18.1556C65.7114 18.0776 65.7795 18.0182 65.8619 17.9904C65.9029 17.9759 65.9463 17.9698 65.9896 17.9722C66.0328 17.9754 66.075 17.9866 66.114 18.0052C66.1528 18.0243 66.1874 18.0506 66.2162 18.0829C66.245 18.1156 66.2673 18.1534 66.2821 18.1944C66.2961 18.2355 66.302 18.279 66.2994 18.3224L65.6172 29.8776C65.548 31.0629 65.4681 32.4067 64.9136 33.5887C64.2759 34.9383 63.0722 35.808 61.8264 35.808Z" fill="#162B43"/>
<path d="M35.4425 8.80128C35.7539 8.646 36.1156 8.63609 36.4641 8.62287C41.3878 8.47475 46.3 8.1284 51.2006 7.58381C51.2395 7.57935 51.2789 7.5833 51.3161 7.59541C51.3534 7.60753 51.3876 7.62751 51.4164 7.65402C51.4452 7.68038 51.4682 7.71244 51.484 7.74818C51.4996 7.7844 51.5072 7.82356 51.5063 7.86299L51.166 25.4791C51.1734 26.082 50.726 25.9871 49.8279 25.9045C43.8002 25.3486 39.0249 25.6112 33.3967 25.9317C33.3586 25.9341 33.3205 25.9284 33.2847 25.9152C33.2489 25.9025 33.2163 25.8822 33.1891 25.8557C33.1614 25.8293 33.1392 25.7976 33.124 25.7624C33.1095 25.7273 33.1022 25.6897 33.1026 25.6517C33.1215 24.3236 32.6206 19.0118 32.5522 18.4659C32.4031 17.2756 31.8717 13.4746 31.9944 13.2218C32.5984 11.9763 35.1154 8.96482 35.4425 8.80128Z" fill="#DBF122"/>
<path d="M31.5799 13.5498C31.4925 13.5498 31.4087 13.515 31.3469 13.4531C31.2851 13.3911 31.2504 13.3071 31.2504 13.2195C31.2504 13.1318 31.2851 13.0478 31.3469 12.9858C31.4087 12.9239 31.4925 12.8891 31.5799 12.8891C31.9466 12.8891 32.4038 12.8023 32.932 12.7024C33.7171 12.5537 34.6737 12.372 35.786 12.3918C35.7151 12.0003 35.65 11.6485 35.5866 11.3107C35.3996 10.3104 35.2389 9.44647 35.0552 8.14806C35.0491 8.1051 35.0514 8.06137 35.0622 8.01934C35.0729 7.97731 35.0918 7.93781 35.1178 7.90311C35.1438 7.8684 35.1763 7.83917 35.2136 7.81707C35.2508 7.79497 35.292 7.78044 35.3349 7.77431C35.4214 7.76193 35.5093 7.78452 35.5792 7.83711C35.6138 7.86315 35.643 7.89577 35.6651 7.93311C35.6871 7.97045 35.7016 8.01177 35.7077 8.05472C35.889 9.33909 36.0414 10.156 36.2342 11.1934C36.3166 11.6485 36.4072 12.1185 36.5077 12.6842C36.5159 12.7339 36.5128 12.7847 36.4987 12.8329C36.484 12.8807 36.4589 12.9247 36.4253 12.9618C36.3921 12.9991 36.351 13.0283 36.3049 13.0473C36.2588 13.0664 36.209 13.0747 36.1592 13.0716C34.9505 12.9965 33.8968 13.1955 33.0506 13.3557C32.4928 13.4582 32.0108 13.5498 31.5799 13.5498Z" fill="#162B43"/>
<path d="M35.3806 17.6147C35.3114 17.6146 35.2439 17.5925 35.1879 17.5518C35.1318 17.511 35.09 17.4535 35.0683 17.3876C35.0423 17.3057 35.0491 17.2168 35.0873 17.1398C35.608 16.1073 36.6033 14.9229 37.6941 14.9799C38.2593 15.0096 38.6729 15.4598 39.0371 15.8571C39.3494 16.1966 39.6443 16.5179 39.9434 16.5112C40.4485 16.5005 40.8604 16.0793 41.2971 15.6332C41.4067 15.5209 41.5204 15.4053 41.6349 15.2963C42.1243 14.8337 42.6351 14.6091 43.0734 14.6611C43.2372 14.683 43.3938 14.742 43.5314 14.8336C43.669 14.9252 43.784 15.047 43.8677 15.1897C43.9254 15.2781 43.9847 15.3772 44.0473 15.4821C44.2854 15.8786 44.6446 16.4774 44.9536 16.5129C45.0879 16.5129 45.4537 16.0999 45.6737 15.8587C46.1359 15.3417 46.6624 14.7561 47.3133 14.657C48.0696 14.543 48.5813 15.0865 48.9924 15.5234C49.4035 15.9603 49.5279 16.0413 49.6515 15.9636C49.7254 15.9181 49.8142 15.9035 49.8987 15.9232C49.9621 15.9381 50.0197 15.9715 50.0642 16.0192C50.1086 16.0669 50.138 16.1267 50.1486 16.1911C50.1592 16.2556 50.1505 16.3217 50.1236 16.3812C50.0967 16.4406 50.0529 16.4908 49.9976 16.5253C49.3854 16.9069 48.9001 16.3907 48.5145 15.9768C48.1026 15.5366 47.8002 15.2525 47.4138 15.3103C46.9936 15.3739 46.5545 15.8662 46.1664 16.3015C45.724 16.797 45.3425 17.2224 44.8819 17.1712C44.2467 17.0993 43.8224 16.3923 43.4813 15.824L43.3165 15.5515C43.1946 15.3632 43.0751 15.3285 42.9968 15.3186C42.7628 15.2905 42.4201 15.4623 42.0905 15.7786C41.9851 15.8786 41.8812 15.9851 41.7708 16.0974C41.2856 16.593 40.7352 17.1571 39.9582 17.1712C39.3617 17.1811 38.9325 16.7161 38.5535 16.3031C38.2478 15.9727 37.9586 15.6547 37.6612 15.6423C37.0441 15.6101 36.2276 16.3494 35.6772 17.4405C35.6493 17.4944 35.6071 17.5397 35.5552 17.5712C35.5033 17.6026 35.4437 17.6191 35.3831 17.6189L35.3806 17.6147Z" fill="white"/>
<path d="M45.5386 21.9704C44.5178 21.9704 43.8957 21.5194 43.3462 21.1213C42.879 20.7826 42.4753 20.4894 41.8632 20.4605C41.4833 20.444 41.1843 20.7537 40.8687 21.0825C40.5325 21.4318 40.1527 21.8258 39.6172 21.8077C39.1508 21.7895 38.7999 21.3121 38.4637 20.8446C38.3096 20.634 38.1341 20.3953 38.018 20.3135C37.3061 19.8179 36.3702 20.3069 35.1557 21.8167L35.1458 21.8291C35.0896 21.892 35.0114 21.9309 34.9275 21.9378C34.8435 21.9447 34.7601 21.9191 34.6943 21.8663C34.6285 21.8134 34.5855 21.7373 34.574 21.6536C34.5625 21.5698 34.5834 21.4849 34.6325 21.4162L34.6424 21.4038C35.1845 20.7306 36.834 18.6781 38.3953 19.7741C38.6021 19.9187 38.7924 20.1805 38.9951 20.4564C39.1599 20.6794 39.4977 21.1436 39.646 21.1494C39.8866 21.1609 40.1231 20.9123 40.3966 20.6265C40.7632 20.2458 41.2205 19.7733 41.8969 19.8006C42.7085 19.8386 43.2325 20.2185 43.7392 20.5861C44.2459 20.9536 44.7378 21.3096 45.5452 21.3096C45.6993 21.3096 46.0189 21.0379 46.2315 20.8586C46.4597 20.6645 46.6756 20.482 46.8906 20.3895C47.5498 20.112 48.0491 20.2416 48.3556 20.3994C48.5581 20.5025 48.7371 20.6466 48.8814 20.8224C49.0258 20.9982 49.1323 21.202 49.1943 21.4211C49.2025 21.4637 49.2025 21.5074 49.1943 21.55C49.1793 21.6364 49.1311 21.7135 49.06 21.7647C49.0068 21.8027 48.9436 21.824 48.8783 21.8259C48.813 21.8278 48.7487 21.8103 48.6934 21.7754C48.6568 21.7521 48.6251 21.7218 48.6003 21.6862C48.5753 21.6509 48.5574 21.6111 48.5475 21.569C48.5074 21.444 48.4431 21.3281 48.3582 21.2281C48.2734 21.128 48.1698 21.0457 48.0532 20.9858C47.7879 20.8504 47.4822 20.8537 47.1469 20.9966C47.0216 21.0494 46.8354 21.208 46.6525 21.3608C46.2983 21.6615 45.9349 21.9704 45.5386 21.9704Z" fill="white"/>
<path d="M45.7603 34.2284C44.3316 34.2284 43.1847 33.1133 42.6648 31.9661C42.0996 30.7189 42.0683 29.309 42.0403 28.0651L41.953 24.1533C41.9512 24.0658 41.9841 23.9811 42.0444 23.9179C42.0743 23.8865 42.11 23.8613 42.1496 23.8437C42.1892 23.8261 42.2319 23.8165 42.2751 23.8155C42.3626 23.8139 42.4473 23.8468 42.5108 23.9072C42.5738 23.9678 42.6102 24.0509 42.6121 24.1384L42.6995 28.0502C42.7258 29.2305 42.7555 30.5685 43.2647 31.6927C43.6989 32.65 44.7081 33.6453 45.9012 33.5627C45.9886 33.5567 46.0747 33.5859 46.1407 33.6437C46.2067 33.7014 46.2471 33.7831 46.253 33.8707C46.2589 33.9584 46.2298 34.0447 46.1722 34.1109C46.1145 34.177 46.0331 34.2175 45.9457 34.2234C45.8841 34.2267 45.8223 34.2284 45.7603 34.2284Z" fill="#162B43"/>
<path d="M26.5517 46.7112C24.9171 46.7115 23.2856 46.5689 21.6758 46.2851C19.953 45.9819 17.464 45.3765 15.7511 43.6329C13.8676 41.715 12.9918 38.3195 13.1467 33.5405C13.1484 33.4972 13.1582 33.4546 13.1755 33.4149C13.1936 33.3755 13.2191 33.3399 13.2505 33.31C13.2822 33.2804 13.3195 33.2574 13.3601 33.2423C13.4006 33.227 13.4437 33.2197 13.487 33.2208C13.5303 33.2224 13.5728 33.2325 13.6122 33.2506C13.6519 33.2681 13.6875 33.2937 13.7168 33.3257C13.7467 33.3571 13.77 33.3942 13.7852 33.4348C13.8005 33.4754 13.8075 33.5186 13.8058 33.5619C13.6592 38.0882 14.4946 41.4086 16.2215 43.1695C17.4244 44.3944 19.1942 45.1774 21.7903 45.6342C24.7171 46.1496 27.7079 46.1867 30.6465 45.7441C30.7333 45.73 30.8221 45.7508 30.8937 45.8019C30.9291 45.8276 30.9591 45.8602 30.9818 45.8977C31.0048 45.9354 31.02 45.9773 31.0265 46.021C31.033 46.0647 31.0307 46.1093 31.0197 46.1521C31.0091 46.1947 30.9898 46.2346 30.9629 46.2694C30.9361 46.3033 30.9028 46.3314 30.8648 46.352C30.827 46.3742 30.7849 46.3883 30.7413 46.3933C29.3536 46.6022 27.9524 46.7071 26.5492 46.7071L26.5517 46.7112Z" fill="#162B43"/>
<path d="M54.4674 99.6835C53.6863 99.6835 52.939 99.4688 52.691 98.6998C52.5122 98.1472 52.78 97.5435 53.1508 96.7002C53.538 95.8213 54.0686 94.6179 54.291 92.966C54.815 89.0782 54.6412 86.1262 53.7143 83.0966C53.688 83.0148 53.6945 82.9259 53.7324 82.8488C53.7531 82.8097 53.7811 82.7749 53.8148 82.7464C53.8476 82.7181 53.8857 82.6967 53.9269 82.6836C53.9677 82.6698 54.0108 82.6642 54.0538 82.6671C54.097 82.6702 54.1392 82.6819 54.178 82.7015C54.2167 82.7211 54.2512 82.7481 54.2795 82.7811C54.3075 82.8142 54.3291 82.8523 54.343 82.8934L54.6643 83.8019C54.6923 83.8768 54.6923 83.9592 54.6643 84.034C55.3448 86.7779 55.4272 89.549 54.9551 93.0569C54.7203 94.8021 54.1675 96.0551 53.7646 96.9694C53.4647 97.6492 53.2274 98.1861 53.3287 98.4991C53.5215 99.0971 54.4591 99.1838 56.1943 98.7642C56.434 98.7064 56.7034 98.6321 56.8658 98.4842C57.0147 98.339 57.1132 98.1496 57.1467 97.9441C57.8495 94.2016 57.9813 88.3125 56.2404 83.0074C56.227 82.9661 56.2217 82.9226 56.2248 82.8793C56.2297 82.8142 56.2537 82.7519 56.2939 82.7005C56.3341 82.649 56.3886 82.6107 56.4505 82.5903C56.4917 82.5768 56.535 82.5715 56.5782 82.5746C56.6432 82.5795 56.7053 82.6036 56.7566 82.6439C56.808 82.6842 56.8462 82.7388 56.8666 82.8009C58.3768 87.4081 58.7237 93.1147 57.7935 98.0663C57.7353 98.4143 57.5649 98.7335 57.3082 98.9749C57.0437 99.2152 56.6911 99.3251 56.3483 99.4085C55.9273 99.5043 55.185 99.6835 54.4674 99.6835Z" fill="#162B43"/>
<path d="M3.32566 25.8932C3.24999 25.893 3.17668 25.8668 3.11803 25.8188C3.05931 25.7708 3.01886 25.7041 3.00351 25.6297C2.82719 24.7732 2.80824 24.2693 2.80824 23.3244C2.81387 22.5039 2.95102 21.6895 3.21443 20.9126C3.22904 20.8715 3.25163 20.8337 3.2809 20.8013C3.31018 20.769 3.34555 20.7428 3.38498 20.7243C3.42408 20.7055 3.46649 20.6947 3.50979 20.6924C3.55308 20.6901 3.59641 20.6963 3.63728 20.7108C3.67815 20.7253 3.71576 20.7478 3.74796 20.7769C3.78017 20.806 3.80633 20.8412 3.82495 20.8804C3.84361 20.9196 3.85437 20.9621 3.85664 21.0055C3.8589 21.0488 3.85261 21.0922 3.83813 21.1331C3.59958 21.8393 3.47443 22.5789 3.46737 23.3244C3.46737 24.2421 3.48385 24.6955 3.64863 25.4959C3.66604 25.5816 3.64885 25.6707 3.60084 25.7437C3.55273 25.8165 3.47777 25.8673 3.39239 25.8849C3.37049 25.8898 3.34811 25.8923 3.32566 25.8923V25.8932Z" fill="#162B43"/>
<path d="M4.35718 19.259C4.30528 19.259 4.25414 19.2466 4.20805 19.2226C4.16927 19.2019 4.13486 19.1739 4.10671 19.14C4.07898 19.1078 4.05771 19.0705 4.0441 19.0302C4.03092 18.9889 4.02588 18.9454 4.02926 18.9022C4.03259 18.859 4.04435 18.8169 4.06387 18.7783C4.24348 18.4248 4.44122 18.0779 4.65049 17.7491C4.69747 17.6752 4.77183 17.623 4.85719 17.604C4.94256 17.5851 5.03195 17.6009 5.1057 17.6479C5.17945 17.695 5.23152 17.7696 5.25044 17.8552C5.26937 17.9407 5.25361 18.0304 5.20663 18.1043C5.00807 18.419 4.82104 18.7436 4.65132 19.0798C4.62347 19.1339 4.58164 19.1795 4.5302 19.2119C4.47815 19.2439 4.41824 19.2608 4.35718 19.2606V19.259Z" fill="#162B43"/>
<path d="M19.5954 32.5529C19.5279 32.5529 19.462 32.5321 19.4067 32.4934C19.3508 32.4549 19.3084 32.3997 19.2856 32.3356C19.2624 32.272 19.2593 32.2028 19.2767 32.1374C19.2941 32.0719 19.3311 32.0134 19.3828 31.9697C22.2006 29.5827 23.4842 26.1492 23.4842 23.9695C23.4842 20.9556 22.3439 18.2183 20.271 16.2624C18.2936 14.3925 15.6373 13.4087 12.9868 13.5665C10.2003 13.7317 7.90575 14.8244 6.16565 16.815C6.13771 16.849 6.10325 16.8771 6.06431 16.8976C6.02484 16.9193 5.9814 16.9328 5.93661 16.9372C5.89197 16.941 5.84703 16.9357 5.80453 16.9215C5.76203 16.9073 5.72287 16.8845 5.68943 16.8547C5.65496 16.8252 5.62691 16.7889 5.60704 16.7481C5.58729 16.7074 5.57661 16.6629 5.57573 16.6176C5.57418 16.5728 5.58175 16.5281 5.59798 16.4863C5.61442 16.4443 5.63907 16.4062 5.67048 16.3739C7.53087 14.2446 9.97953 13.0767 12.9481 12.9008C15.779 12.7356 18.6133 13.7813 20.7233 15.7759C22.9264 17.8582 24.14 20.7656 24.14 23.9637C24.14 26.8091 22.3571 30.3071 19.8046 32.4711C19.7466 32.5221 19.6725 32.551 19.5954 32.5529Z" fill="#162B43"/>
<path d="M17.604 33.886C17.5299 33.886 17.4579 33.861 17.3997 33.8149C17.3419 33.7686 17.3011 33.7045 17.2835 33.6324C17.2666 33.5601 17.2744 33.4841 17.3058 33.4168C17.3368 33.3494 17.3897 33.2944 17.4557 33.2607C18.1461 32.9088 18.7929 32.4769 19.3828 31.9739C19.4329 31.9337 19.4935 31.909 19.5574 31.9029C19.6212 31.8967 19.6854 31.9094 19.7421 31.9393C19.7989 31.9692 19.8457 32.015 19.8769 32.0712C19.908 32.1274 19.9222 32.1914 19.9176 32.2555C19.9114 32.3413 19.8721 32.4213 19.808 32.4785C19.1777 33.0156 18.4863 33.4761 17.7482 33.8505C17.7037 33.8737 17.6542 33.8859 17.604 33.886Z" fill="#162B43"/>
<path d="M13.6229 34.8415C12.8999 34.8422 12.1786 34.7722 11.4692 34.6325C11.4267 34.6241 11.3863 34.6074 11.3502 34.5833C11.3142 34.5592 11.2832 34.5282 11.2591 34.4921C11.2105 34.4193 11.1928 34.3302 11.2097 34.2443C11.2181 34.2017 11.2348 34.1612 11.2588 34.125C11.2828 34.0889 11.3137 34.0578 11.3498 34.0337C11.4223 33.985 11.5112 33.9672 11.5969 33.9841C12.2669 34.1148 12.9478 34.1806 13.6303 34.1807C14.3509 34.1804 15.0684 34.0868 15.7651 33.9024C15.8497 33.883 15.9385 33.8978 16.0123 33.9437C16.0847 33.9886 16.137 34.06 16.1581 34.1427C16.1794 34.2254 16.1679 34.313 16.1261 34.3874C16.0844 34.4618 16.0155 34.5171 15.934 34.5417C15.1811 34.7407 14.4057 34.8415 13.627 34.8415H13.6229Z" fill="#162B43"/>
<path d="M11.5335 34.6383C11.5119 34.6384 11.4904 34.6365 11.4692 34.6325C8.27986 34.0006 5.59639 31.9481 4.10593 29.0003C4.08641 28.9616 4.07465 28.9195 4.07133 28.8764C4.06856 28.8328 4.07441 28.7892 4.08855 28.7479C4.10269 28.7067 4.12484 28.6686 4.15372 28.636C4.20948 28.5708 4.28838 28.5299 4.3737 28.522C4.41689 28.5186 4.46034 28.5239 4.50141 28.5377C4.54266 28.5511 4.58082 28.5726 4.61365 28.6009C4.64648 28.6293 4.67331 28.664 4.69256 28.7029C6.0932 31.4674 8.60612 33.3927 11.5953 33.9891C11.6752 34.0053 11.7462 34.0507 11.7947 34.1164C11.8432 34.1821 11.8656 34.2635 11.8577 34.3448C11.8498 34.4262 11.8122 34.5017 11.752 34.5568C11.6918 34.6119 11.6133 34.6427 11.5318 34.6432L11.5335 34.6383Z" fill="#162B43"/>
</g>
<defs>
<clipPath id="clip0_964_3736">
<rect width="112.331" height="120" fill="white"/>
</clipPath>
</defs>
</svg>
