<svg width="105" height="120" viewBox="0 0 105 120" fill="none" xmlns="http://www.w3.org/2000/svg">
<g clip-path="url(#clip0_964_3677)">
<path d="M101.382 102.237C101.318 102.237 101.256 102.219 101.202 102.185C101.147 102.152 101.103 102.104 101.075 102.047C101.047 101.99 101.035 101.927 101.041 101.864C101.047 101.8 101.071 101.74 101.109 101.69C101.661 100.968 101.889 98.3949 102.026 96.857C102.042 96.6668 102.058 96.4869 102.074 96.3197C102.993 86.4461 101.597 74.5614 98.5152 66.0406C97.801 64.0652 96.9146 62.0787 95.2849 60.9349C93.8101 59.8994 91.9449 59.6657 90.006 59.5011C84.2218 59.0098 78.7579 58.5467 72.8213 58.916C72.7535 58.9203 72.6859 58.9044 72.6272 58.8704C72.5685 58.8364 72.5213 58.7858 72.4916 58.725C72.4722 58.6845 72.4606 58.6408 72.4573 58.5962C72.453 58.5287 72.4689 58.4614 72.5031 58.4029C72.5372 58.3445 72.5881 58.2974 72.6491 58.2678C72.6894 58.2476 72.7334 58.236 72.7784 58.2337C78.7656 57.8601 84.2543 58.3258 90.0642 58.8196C92.0211 58.9902 94.0662 59.2461 95.6797 60.3762C97.4644 61.6283 98.4073 63.7266 99.1601 65.8077C102.273 74.413 103.685 86.4137 102.757 96.3794C102.742 96.55 102.725 96.7206 102.709 96.9142C102.508 99.1838 102.276 101.289 101.656 102.1C101.624 102.142 101.582 102.177 101.535 102.201C101.487 102.224 101.435 102.237 101.382 102.237Z" fill="#007EEF"/>
<path d="M71.0673 64.6008C71.9991 76.0557 74.4073 91.1006 74.1915 101.065L63.7493 101.546C63.5412 101.557 67.3462 62.4701 67.2435 63.5158L69.2646 63.4016C69.9557 63.4016 70.9295 62.8796 71.0673 64.6008Z" fill="#007EEF"/>
<path d="M68.2746 75.6424C68.1947 75.6421 68.1175 75.614 68.0562 75.563C68.0104 75.525 67.9754 75.4758 67.9546 75.4202C67.9338 75.3646 67.9279 75.3046 67.9375 75.246C67.9471 75.1874 67.9718 75.1324 68.0093 75.0863C68.0468 75.0401 68.0957 75.0046 68.1513 74.983L72.5044 73.313C72.5676 73.2887 72.6366 73.2835 72.7027 73.2983C72.7689 73.313 72.8291 73.347 72.8759 73.3958C72.9226 73.4447 72.9538 73.5062 72.9654 73.5727C72.977 73.6392 72.9686 73.7076 72.9412 73.7693C72.923 73.8104 72.8968 73.8476 72.8642 73.8786C72.8316 73.9096 72.7931 73.9339 72.751 73.9501L68.3971 75.6193C68.3578 75.6338 68.3164 75.6416 68.2746 75.6424Z" fill="#162B43"/>
<path d="M68.0536 78.0533C67.9741 78.0535 67.897 78.0257 67.8361 77.9748C67.7742 77.9248 67.7318 77.8548 67.7162 77.7769C67.7006 77.6991 67.7127 77.6183 67.7505 77.5483C67.7886 77.4797 67.849 77.4259 67.9218 77.3957L72.3674 75.6676C72.4094 75.6515 72.4542 75.6437 72.4993 75.6446C72.5441 75.646 72.5883 75.6559 72.6294 75.6736C72.6709 75.6915 72.7082 75.7176 72.739 75.7504C72.7701 75.7826 72.7946 75.8205 72.811 75.8621C72.8276 75.9039 72.8354 75.9486 72.8341 75.9934C72.8334 76.0384 72.8238 76.0827 72.8059 76.1239C72.7872 76.1648 72.761 76.2018 72.7288 76.2331C72.6961 76.2639 72.6577 76.2879 72.6157 76.3039L68.171 78.0311C68.1337 78.0461 68.0938 78.0536 68.0536 78.0533Z" fill="#162B43"/>
<path d="M48.4059 30.842C48.3511 32.0361 48.0299 33.6046 46.8344 33.6993C46.3154 33.7402 45.8384 33.4494 45.3571 33.2524C43.1929 32.367 40.4088 33.6183 39.6431 35.8197C38.8775 38.0211 40.2897 40.7189 42.5395 41.3561C44.2438 41.838 46.181 41.264 47.7747 42.0333C48.9797 42.615 49.7196 43.8424 50.2849 45.051C51.3467 47.3274 52.0294 49.7608 52.306 52.2557C55.4105 53.5266 58.8875 53.4072 62.2403 53.2673C67.2075 53.06 72.1661 52.8536 77.1264 52.5849C79.485 52.457 81.9009 52.3018 84.0633 51.3508C86.2258 50.3997 88.1099 48.4764 88.3299 46.1342C88.4207 45.1721 88.2306 44.2006 88.3103 43.2342C88.3899 42.2679 88.8412 41.2333 89.749 40.8904C90.5703 40.5808 91.4738 40.9279 92.3354 41.0976C95.1804 41.6555 98.4518 39.7125 98.8055 36.8475C99.1592 33.9825 95.8081 31.2036 93.2055 32.466C92.3893 32.8617 91.7153 33.5603 90.9651 34.0567C90.8316 34.1435 90.6773 34.1936 90.5181 34.2017C90.3588 34.2098 90.2002 34.1757 90.0585 34.1029C89.9168 34.0301 89.797 33.9211 89.7113 33.7871C89.6256 33.6531 89.5772 33.4989 89.5709 33.3402C89.3926 29.0537 88.7564 24.7983 87.6731 20.646C86.9297 17.7964 85.7033 14.69 82.9971 13.5095C81.7981 12.9875 80.4604 12.921 79.1552 12.8818C72.4679 12.6848 65.7754 13.0208 59.1418 13.8865C57.0428 14.1603 54.0402 14.1424 52.4165 15.7451C51.2115 16.9392 50.9529 18.9009 50.469 20.4422C49.3942 23.8633 48.5695 27.2477 48.4059 30.842Z" fill="#DBF122"/>
<path d="M69.3939 47.996C68.3251 47.996 67.4755 47.7529 66.763 47.55C66.3203 47.4229 65.9374 47.3137 65.6077 47.2941C65.563 47.2921 65.519 47.2814 65.4784 47.2625C65.4375 47.2434 65.4009 47.2165 65.3705 47.1832C65.3404 47.1498 65.3168 47.111 65.3011 47.0689C65.2865 47.0264 65.2798 46.9816 65.2814 46.9367C65.284 46.8921 65.2951 46.8484 65.314 46.8079C65.3332 46.7672 65.3602 46.7307 65.3936 46.7004C65.4269 46.6702 65.4659 46.647 65.5084 46.6322C65.5506 46.6168 65.5954 46.6099 65.6403 46.6117C66.0496 46.6313 66.4676 46.7508 66.9523 46.8889C68.2138 47.2497 69.9429 47.7419 72.6611 46.5478C72.7024 46.5296 72.7468 46.5197 72.792 46.5186C72.8371 46.5176 72.882 46.5255 72.924 46.5418C73.0085 46.5745 73.0766 46.6392 73.1133 46.7218C73.1504 46.8041 73.1531 46.8978 73.121 46.9822C73.0889 47.0666 73.0246 47.1349 72.942 47.1721C71.5289 47.793 70.3711 47.996 69.3939 47.996Z" fill="white"/>
<path d="M58.169 41.3847C57.972 41.3847 57.7784 41.3796 57.5917 41.3728C54.7981 41.2721 52.8447 40.4533 51.787 38.9394C50.9683 37.7674 50.7936 36.2569 50.6531 35.0432C50.6377 34.9093 50.6154 34.7566 50.5923 34.5954C50.4604 33.6717 50.2797 32.4068 50.8415 31.6349C51.3143 30.9849 52.1878 31.0028 52.8267 31.0165C52.9252 31.0165 53.0211 31.0207 53.1102 31.0165L63.8101 30.9482C64.0003 30.9482 64.2871 30.9482 64.5338 31.1018C65.0416 31.4242 64.9825 32.1142 64.962 32.3743C64.8215 33.9949 64.6768 35.6743 64.0765 37.2497C63.3913 39.0409 62.1667 40.3945 60.7056 40.9719C59.8629 41.3054 58.9808 41.3847 58.169 41.3847ZM51.3348 34.9647C51.4727 36.1588 51.6294 37.5175 52.3505 38.547C53.2789 39.875 55.0508 40.5941 57.6174 40.6887C58.4995 40.7211 59.5264 40.7041 60.4522 40.3382C61.7368 39.8315 62.821 38.6178 63.435 37.0117C64.0011 35.5251 64.1424 33.896 64.2786 32.3206C64.3094 31.9641 64.2717 31.7491 64.1664 31.6818C64.0902 31.634 63.9377 31.6357 63.8161 31.6357L53.111 31.7039H52.8087C52.2683 31.692 51.6551 31.6792 51.3931 32.04C50.994 32.5884 51.1524 33.6955 51.268 34.5041C51.2912 34.6704 51.3134 34.8274 51.3305 34.9707L51.3348 34.9647Z" fill="#162B43"/>
<path d="M65.8492 44.7158H65.8398C65.749 44.713 65.6631 44.6743 65.6009 44.6084C65.5698 44.5759 65.5456 44.5376 65.5294 44.4957C65.5132 44.4539 65.5055 44.4093 65.5067 44.3644C65.5247 43.6659 65.8073 43.0458 66.0805 42.4462C66.2229 42.1506 66.3487 41.8473 66.4573 41.5378C66.7853 40.5297 66.7142 39.3893 66.6491 38.2864C66.5635 36.8748 66.4778 35.4163 67.1844 34.1378C67.2298 34.0607 67.3035 34.0041 67.3899 33.98C67.4543 33.9623 67.5225 33.9638 67.5861 33.9843C67.6496 34.0048 67.7058 34.0433 67.7477 34.0951C67.7895 34.147 67.8153 34.2099 67.8217 34.2761C67.8281 34.3423 67.815 34.409 67.7839 34.4679C67.1707 35.5767 67.2495 36.8706 67.3334 38.2446C67.4036 39.4115 67.4773 40.6175 67.109 41.7485C66.9943 42.0825 66.8599 42.4094 66.7065 42.7277C66.4496 43.2897 66.2081 43.8211 66.1927 44.3806C66.1904 44.4696 66.1533 44.5542 66.0893 44.6164C66.0253 44.6785 65.9395 44.7133 65.8501 44.7133L65.8492 44.7158Z" fill="white"/>
<path d="M69.4119 62.4901C69.1807 62.4887 68.95 62.4701 68.7216 62.4346C68.4407 62.3928 68.4202 62.1173 68.4107 61.9851C68.4039 61.8998 68.3979 61.7702 68.3911 61.6013C68.3808 61.3147 68.3696 60.9002 68.3594 60.3714C68.3397 59.4118 68.326 58.2689 68.3165 57.5123C68.3114 57.1191 68.308 56.83 68.3063 56.7379L68.2429 54.0281C68.2429 53.8575 68.2223 53.6392 68.2035 53.4063C68.1487 52.7052 68.087 51.9103 68.2669 51.4088C68.2994 51.3263 68.3629 51.2596 68.4439 51.223C68.525 51.1863 68.6171 51.1825 68.7009 51.2123C68.7847 51.2421 68.8536 51.3032 68.893 51.3827C68.9323 51.4622 68.939 51.5538 68.9117 51.6382C68.7807 52.0032 68.8424 52.7837 68.8869 53.3534C68.9057 53.5957 68.9237 53.8251 68.928 54.0128L68.9905 56.7217C68.9905 56.8181 68.9965 57.1063 69.0017 57.5038C69.0145 58.518 69.0453 61.0068 69.0873 61.7924C70.0602 61.887 70.6049 61.6056 70.8395 60.9002C70.926 60.5899 70.9765 60.2709 70.9902 59.9492C71.105 58.5427 71.129 57.2198 71.1547 55.827C71.1641 55.2828 71.1744 54.7181 71.1906 54.1518C71.1933 54.0615 71.2318 53.9759 71.2977 53.9138C71.3302 53.8828 71.3686 53.8588 71.4107 53.843C71.4528 53.8269 71.4976 53.8191 71.5426 53.82C71.5877 53.8212 71.632 53.8312 71.6732 53.8495C71.7143 53.8678 71.7515 53.894 71.7824 53.9266C71.8133 53.9595 71.8374 53.998 71.8535 54.0401C71.8698 54.0816 71.8774 54.126 71.8758 54.1706C71.8595 54.736 71.8492 55.2973 71.8398 55.8397C71.8141 57.2471 71.7893 58.5768 71.6685 60.0055C71.6521 60.381 71.5906 60.7533 71.4853 61.1143C71.1864 62.0269 70.4867 62.4901 69.4119 62.4901Z" fill="#162B43"/>
<path d="M83.1316 103.195C84.4915 103.189 85.9329 103.162 87.0856 102.438C88.2383 101.714 88.9003 100.021 88.0713 98.941C87.2423 97.8612 85.6246 98.0121 84.2911 98.2254C78.2894 99.1866 69.5155 99.9261 68.9255 98.964C68.5546 98.3593 68.6334 91.9248 68.6334 88.7177C68.6334 85.4254 68.7011 80.5543 68.8347 76.3434C69.1301 67.0242 69.5523 54.4716 69.9531 46.4148C70.0388 44.645 70.7111 40.9398 66.6654 40.7266C62.3277 40.4989 61.6537 40.4639 57.3108 40.3948C39.9537 40.1194 22.5942 40.7572 5.30459 42.3054C4.15186 42.4077 2.15986 42.5433 1.21781 43.2155C-0.671429 44.5614 0.136164 47.3283 0.386235 49.6406C0.856404 53.9607 1.42078 58.2689 2.06394 62.5668C2.7071 66.8647 3.42049 71.1533 4.18698 75.429C4.95346 79.7048 5.77047 83.9788 6.60976 88.2443C7.03168 90.3852 7.45817 92.5261 7.88923 94.6669C8.30544 96.7413 8.60776 98.8872 9.17384 100.925C9.47701 102.01 10.0303 103.001 11.1573 103.355C12.2843 103.709 13.5432 103.52 14.6891 103.474C18.871 103.304 23.0819 103.418 27.2655 103.403L40.4995 103.353L53.63 103.309L66.8632 103.259L80.0425 103.211L83.1316 103.195Z" fill="#DDE3EB"/>
<path d="M3.7228 94.11C4.60833 100.407 7.35397 103.591 11.9752 103.591C17.2087 103.591 19.5972 99.7334 20.29 91.9419C20.3904 91.4446 20.4327 90.9374 20.4159 90.4305C20.3913 90.0291 20.25 89.6435 20.0091 89.3207C19.7682 88.998 19.4382 88.752 19.0594 88.6129C15.5943 87.3403 7.75477 87.5544 4.90636 88.8892C3.10619 89.4726 3.41621 91.9291 3.7228 94.11Z" fill="#162B43"/>
<path d="M11.976 103.932C7.18697 103.932 4.29659 100.643 3.38452 94.1569C3.0942 92.0911 2.69939 89.2636 4.78046 88.5711C7.79074 87.1748 15.7142 87.0196 19.1793 88.293C19.6208 88.4547 20.0055 88.7412 20.286 89.1174C20.5665 89.4935 20.7307 89.9431 20.7585 90.4108C20.7764 90.9396 20.7336 91.4688 20.6309 91.9879C19.8875 100.248 17.2198 103.932 11.976 103.932ZM4.06194 94.0622C4.93119 100.244 7.51926 103.25 11.9752 103.25C14.4476 103.25 16.2718 102.349 17.5512 100.495C18.811 98.6689 19.5955 95.8611 19.9492 91.912C19.9484 91.9021 19.9499 91.8922 19.9535 91.883C20.0482 91.4115 20.089 90.9307 20.0751 90.4501C20.0551 90.1152 19.9376 89.7934 19.737 89.524C19.5364 89.2545 19.2614 89.0491 18.9455 88.9327C15.6637 87.7275 7.87552 87.8759 5.05708 89.1971L5.01683 89.2133C3.56865 89.679 3.72794 91.6851 4.06194 94.0622Z" fill="#162B43"/>
<path d="M11.9306 91.8555C13.5655 91.7489 15.3391 92.1319 16.8121 91.4214C17.1136 91.2764 18.1824 90.9949 17.6197 90.2998C17.529 90.188 17.1616 89.9228 16.843 89.8042C15.0085 89.1219 13.0825 89.1423 10.9338 89.2208C10.0979 89.2524 6.7973 90.0942 6.09847 90.5957C5.31657 91.1561 7.23065 91.0947 8.70281 91.574C9.74335 91.9127 10.8695 91.9254 11.9306 91.8555Z" fill="#DBF122"/>
<path d="M12.871 92.4677C11.6146 92.4677 10.2384 92.292 8.62574 91.9056C7.74278 91.6941 5.69596 90.9674 4.96373 90.2441C4.90181 90.1796 4.86768 90.0936 4.86867 90.0044C4.8694 89.9381 4.8895 89.8735 4.92649 89.8185C4.96349 89.7634 5.01579 89.7202 5.07701 89.6943C5.13823 89.6683 5.20571 89.6607 5.27122 89.6723C5.33673 89.6839 5.39742 89.7142 5.44589 89.7596C5.99485 90.3012 7.81986 91.0109 8.78588 91.242C13.115 92.28 15.5721 91.764 18.8504 90.3737C18.8922 90.355 18.9373 90.3446 18.9831 90.343C19.0285 90.3421 19.0735 90.3499 19.1159 90.3661C19.1585 90.383 19.1974 90.4079 19.2306 90.4394C19.2632 90.471 19.2891 90.5087 19.3069 90.5503C19.3246 90.5923 19.3338 90.6374 19.3338 90.6829C19.3338 90.7285 19.3246 90.7736 19.3069 90.8156C19.2897 90.8575 19.264 90.8956 19.2315 90.9273C19.1988 90.9592 19.1601 90.9844 19.1176 91.0015C16.9757 91.9099 15.1147 92.4677 12.871 92.4677Z" fill="white"/>
<path d="M10.467 81.9349C10.4241 81.9348 10.3817 81.9264 10.342 81.9102C10.2575 81.8771 10.1897 81.812 10.1534 81.7292C10.1172 81.6463 10.1154 81.5525 10.1484 81.4684C10.5235 80.5208 9.93946 79.8666 8.95459 78.878C8.72507 78.6477 8.4887 78.4098 8.26946 78.1582C7.91662 77.7607 7.51582 77.3112 7.27346 76.7679C6.74163 75.5789 6.9917 74.0547 7.95859 72.5885C11.2009 67.6679 10.9603 66.0781 10.4978 65.3104C10.4747 65.272 10.4593 65.2294 10.4527 65.1851C10.446 65.1408 10.4482 65.0956 10.4591 65.0521C10.47 65.0086 10.4894 64.9677 10.5162 64.9317C10.543 64.8957 10.5766 64.8652 10.6152 64.8422C10.6537 64.8191 10.6965 64.8038 10.741 64.7972C10.7855 64.7906 10.8309 64.7928 10.8745 64.8036C10.9182 64.8145 10.9593 64.8338 10.9955 64.8604C11.0316 64.8871 11.0622 64.9206 11.0853 64.959C11.7276 66.0252 11.9272 67.8095 8.53153 72.9629C8.13501 73.56 7.28031 75.1123 7.89778 76.4932C8.09818 76.941 8.44588 77.3317 8.7816 77.7095C8.99227 77.9466 9.22179 78.1778 9.44446 78.4012C10.3805 79.3395 11.3483 80.3118 10.7899 81.7217C10.7644 81.7848 10.7205 81.8389 10.664 81.8769C10.6056 81.9154 10.537 81.9356 10.467 81.9349Z" fill="#007EEF"/>
<path d="M13.7728 67.952C13.7189 67.9519 13.6659 67.9393 13.6178 67.9153C13.5774 67.8939 13.5417 67.865 13.5124 67.83C13.4833 67.796 13.4612 67.7566 13.4473 67.714C13.4202 67.6294 13.4273 67.5376 13.467 67.4581C15.5344 63.3828 12.9891 60.0555 11.7996 58.8137C11.7406 58.7477 11.7096 58.6615 11.7131 58.5732C11.7166 58.4849 11.7544 58.4014 11.8184 58.3403C11.8823 58.2794 11.9673 58.2455 12.0557 58.2456C12.1437 58.2457 12.2284 58.2796 12.292 58.3403C13.2992 59.3902 16.4028 63.1747 14.0759 67.7635C14.0474 67.8199 14.0037 67.8673 13.9497 67.9004C13.8957 67.9335 13.8336 67.9511 13.7702 67.9511L13.7728 67.952Z" fill="#007EEF"/>
<path d="M13.9158 84.0139C13.8496 84.0141 13.7847 83.9951 13.7291 83.9593C13.6878 83.9326 13.6528 83.8974 13.6265 83.856C13.6001 83.8146 13.583 83.768 13.5763 83.7194C13.5697 83.6709 13.5736 83.6215 13.5878 83.5745C13.6021 83.5276 13.6263 83.4843 13.6589 83.4476C14.5949 82.4095 14.1933 80.6585 13.3797 79.3833C13.2666 79.2059 13.1476 79.0294 13.0225 78.8417C12.2321 77.6578 11.3354 76.317 11.857 74.9131C11.8724 74.8707 11.8963 74.8318 11.9272 74.7988C11.958 74.7665 11.9946 74.7401 12.0351 74.7212C12.076 74.7022 12.1202 74.6915 12.1653 74.6896C12.2105 74.6882 12.2556 74.6954 12.298 74.711C12.3402 74.7266 12.3789 74.7504 12.4119 74.7809C12.4451 74.8112 12.4719 74.8477 12.4907 74.8885C12.5096 74.9292 12.52 74.9732 12.5215 75.018C12.5233 75.0606 12.5172 75.103 12.5036 75.1434C12.1028 76.2215 12.8624 77.361 13.5963 78.4562C13.7179 78.6387 13.8438 78.8272 13.9612 79.0106C14.8433 80.3941 15.4282 82.5034 14.1718 83.8962C14.1403 83.9323 14.1015 83.9613 14.0579 83.9815C14.0133 84.0021 13.9649 84.0131 13.9158 84.0139Z" fill="#007EEF"/>
<path d="M33.9574 72.3662C33.4887 72.371 33.0276 72.248 32.624 72.0105C31.9543 71.6088 31.5175 70.8275 31.4833 69.9703C31.4568 69.5153 31.5639 69.0624 31.7916 68.667C32.1341 67.5104 33.3006 66.6473 34.5244 66.7223C35.8775 66.8076 37.0268 68.0137 37.0328 69.3664C37.0304 69.9195 36.8709 70.4606 36.5729 70.9273C36.2926 71.3659 35.9063 71.7275 35.4494 71.9788C34.9924 72.2302 34.4794 72.3634 33.9574 72.3662ZM32.2292 69.3809C32.1797 69.5649 32.1589 69.7553 32.1675 69.9456C32.1924 70.5759 32.5032 71.1397 32.9777 71.4271C33.9197 71.9943 35.3602 71.584 35.994 70.5665C36.2227 70.2095 36.3461 69.7958 36.3502 69.3724C36.346 68.3855 35.4741 67.4678 34.485 67.4106C33.8538 67.3723 33.2278 67.687 32.8253 68.1783C32.8739 68.2519 32.892 68.3415 32.8758 68.4282C32.8603 68.5145 32.8114 68.5914 32.7396 68.6423C32.6183 68.7287 32.5135 68.8362 32.4305 68.9596C32.4159 69.0189 32.4047 69.079 32.3971 69.1395C32.3888 69.1895 32.3695 69.237 32.3405 69.2786C32.3117 69.3202 32.2736 69.3546 32.2292 69.3792V69.3809Z" fill="white"/>
<path d="M33.918 69.2402C33.8693 69.2403 33.821 69.2298 33.7767 69.2095C33.7326 69.1895 33.6932 69.1604 33.6611 69.1242C32.6836 68.0049 31.9366 66.7051 31.4627 65.2988C31.4487 65.2564 31.4432 65.2118 31.4465 65.1674C31.449 65.1225 31.461 65.0786 31.4816 65.0386C31.5025 64.9981 31.5316 64.9623 31.5672 64.9337C31.6008 64.904 31.6402 64.8813 31.6828 64.8672C31.7256 64.8533 31.7707 64.8478 31.8156 64.851C31.8605 64.8544 31.9044 64.8663 31.9449 64.8859C31.9854 64.9071 32.0212 64.9361 32.0502 64.9712C32.0784 65.0027 32.1005 65.0392 32.1153 65.0787C32.5591 66.4009 33.2602 67.6232 34.1784 68.6755C34.2211 68.7236 34.2493 68.7827 34.2598 68.8461C34.2691 68.9108 34.2596 68.9768 34.2324 69.0363C34.2058 69.0963 34.162 69.147 34.1065 69.1822C34.0515 69.2179 33.9872 69.2369 33.9215 69.2367L33.918 69.2402Z" fill="white"/>
<path d="M94.3642 39.4802C94.2734 39.4816 94.1857 39.4469 94.1205 39.3839C94.0553 39.3209 94.0179 39.2346 94.0165 39.1441C94.0152 39.0537 94.0499 38.9663 94.1132 38.9014C94.1765 38.8365 94.2631 38.7992 94.3539 38.7979C94.8046 38.7875 95.2394 38.6298 95.5912 38.3492C95.9431 38.0685 96.1925 37.6804 96.3012 37.2447C96.4098 36.809 96.3716 36.3498 96.1925 35.9378C96.0133 35.5258 95.7031 35.1839 95.3097 34.9648C95.2703 34.9426 95.2357 34.9128 95.2079 34.8773C95.1802 34.8417 95.1597 34.801 95.1478 34.7575C95.1355 34.7139 95.1321 34.6684 95.1376 34.6234C95.1432 34.5785 95.1577 34.5351 95.1802 34.4959C95.2028 34.4566 95.233 34.4221 95.269 34.3946C95.3051 34.367 95.3462 34.3469 95.3902 34.3353C95.4339 34.3232 95.4795 34.3198 95.5245 34.3254C95.5695 34.3309 95.6129 34.3453 95.6523 34.3677C96.6799 34.9511 97.2477 36.2561 96.9617 37.4033C96.6757 38.5505 95.5649 39.4418 94.3788 39.4768L94.3642 39.4802Z" fill="#162B43"/>
<path d="M43.7479 39.679C43.3878 39.6713 43.0421 39.5365 42.7725 39.2986C42.2244 38.8423 41.8844 38.0713 41.8861 37.2849C41.8878 36.4985 42.2286 35.7308 42.781 35.2788C43.1519 34.9743 43.5809 34.8523 43.9894 34.9282C44.0337 34.9367 44.0759 34.9538 44.1136 34.9785C44.1513 35.0031 44.1837 35.035 44.2087 35.0723C44.234 35.1094 44.2517 35.1511 44.2608 35.195C44.2699 35.2389 44.2702 35.2842 44.2618 35.3282C44.2533 35.3723 44.2361 35.4143 44.2112 35.4518C44.1864 35.4892 44.1544 35.5215 44.117 35.5466C44.0417 35.5972 43.9493 35.6159 43.8601 35.5986C43.598 35.5483 43.366 35.6839 43.2169 35.805C42.8264 36.1266 42.5729 36.7083 42.5712 37.2866C42.5695 37.8648 42.8213 38.45 43.2118 38.7749C43.36 38.8986 43.5921 39.0359 43.8541 38.9873C43.8984 38.9792 43.9439 38.9798 43.988 38.9893C44.032 38.9987 44.0738 39.0166 44.1109 39.0422C44.1479 39.0677 44.1796 39.1002 44.204 39.1379C44.2284 39.1756 44.2452 39.2178 44.2532 39.262C44.2694 39.351 44.2495 39.4428 44.1978 39.5171C44.1461 39.5915 44.0668 39.6424 43.9774 39.6586C43.9017 39.6722 43.8249 39.6791 43.7479 39.679Z" fill="#162B43"/>
<path d="M77.6009 42.0074H77.5743C76.1929 42.0074 75.1507 41.7941 74.2934 41.3464C72.7793 40.5531 71.6839 38.8549 71.3628 36.8036C71.1727 35.5874 71.2069 34.2679 71.4758 32.5262C71.5769 31.8677 71.7156 30.9662 72.7545 30.7606C73.6109 30.59 74.5529 30.6207 75.465 30.6514C75.8272 30.6634 76.169 30.6753 76.5004 30.6736C78.984 30.6642 81.5104 30.7239 84.0154 30.8527C84.2235 30.8638 84.5369 30.88 84.7861 31.0702C85.2435 31.4114 85.1938 32.0562 85.1724 32.33C85.0448 33.9813 84.9155 35.688 84.3528 37.3052C83.7139 39.1501 82.5792 40.5668 81.1567 41.2943C80.2103 41.7805 79.0782 42.0074 77.6009 42.0074ZM72.0428 36.6987C72.3305 38.5376 73.2923 40.049 74.612 40.7416C75.3665 41.1374 76.3085 41.3225 77.5743 41.325C78.9514 41.325 79.992 41.1246 80.8475 40.687C82.1116 40.0405 83.1273 38.7611 83.7079 37.0834C84.2389 35.5481 84.3682 33.8857 84.4932 32.278C84.5129 32.0221 84.5172 31.7202 84.3776 31.6152C84.298 31.5555 84.1498 31.5436 83.9794 31.5342C81.4872 31.4063 78.9711 31.3466 76.5021 31.3559C76.1595 31.3559 75.7938 31.3449 75.441 31.3329C74.57 31.3039 73.6691 31.2741 72.8872 31.4293C72.3734 31.5308 72.2654 31.8899 72.1515 32.6294C71.8946 34.2994 71.8595 35.5541 72.0385 36.6987H72.0428Z" fill="#162B43"/>
<path d="M72.4008 34.3799C72.3299 34.3804 72.2607 34.3586 72.2029 34.3177C70.9603 33.4312 69.4779 32.9392 67.9498 32.906C66.4216 32.8728 64.9191 33.3 63.6389 34.1317C63.5626 34.1811 63.4699 34.1982 63.381 34.1794C63.2921 34.1606 63.2143 34.1074 63.1648 34.0315C63.1153 33.9556 63.0981 33.8633 63.117 33.7747C63.1358 33.6862 63.1893 33.6087 63.2655 33.5594C64.6601 32.654 66.2966 32.1888 67.961 32.2246C69.6253 32.2603 71.2402 32.7954 72.5943 33.7599C72.654 33.8017 72.6988 33.8613 72.722 33.9302C72.7453 33.9991 72.7458 34.0736 72.7236 34.1428C72.7013 34.2113 72.6579 34.271 72.5994 34.3134C72.5408 34.3568 72.4695 34.3798 72.3965 34.3791L72.4008 34.3799Z" fill="#162B43"/>
<path d="M78.0573 37.0229H77.9237C77.3809 36.9906 76.8584 36.8061 76.4163 36.4907C75.9743 36.1752 75.6309 35.7418 75.4256 35.2403C75.4092 35.1981 75.4008 35.1533 75.4008 35.1081C75.4014 35.0631 75.411 35.0187 75.4289 34.9774C75.4468 34.9361 75.4728 34.8988 75.5052 34.8675C75.5387 34.8372 75.5781 34.814 75.6209 34.7993C75.6631 34.7829 75.7082 34.7747 75.7536 34.7754C75.7987 34.7763 75.8431 34.786 75.8844 34.804C75.9257 34.822 75.963 34.8479 75.9942 34.8803C76.0258 34.9128 76.0503 34.9514 76.0662 34.9938C76.2183 35.3766 76.4778 35.7078 76.8139 35.9476C77.1499 36.1874 77.5482 36.3258 77.9612 36.3461C78.3741 36.3664 78.7841 36.2679 79.1423 36.0623C79.5005 35.8566 79.7916 35.5526 79.9808 35.1865C80.0018 35.1453 80.0309 35.1088 80.0665 35.0791C80.1007 35.0485 80.141 35.0252 80.1847 35.0108C80.2279 34.9963 80.2736 34.9905 80.3191 34.9938C80.3649 34.9974 80.4094 35.0102 80.4501 35.0313C80.4911 35.0521 80.5273 35.0811 80.5563 35.1166C80.5856 35.1518 80.6077 35.1924 80.6214 35.236C80.6342 35.2797 80.6386 35.3255 80.6343 35.3708C80.6293 35.416 80.6153 35.4598 80.5932 35.4996C80.3497 35.9582 79.986 36.3426 79.5407 36.6118C79.0954 36.8809 78.5851 37.0248 78.0642 37.028L78.0573 37.0229Z" fill="white"/>
<path d="M56.7567 37.2234C55.3865 37.2234 54.1276 36.2067 54.0042 34.9563C53.9999 34.9115 54.0044 34.8663 54.0175 34.8232C54.0307 34.7801 54.0523 34.7401 54.081 34.7053C54.1097 34.6705 54.145 34.6417 54.1849 34.6205C54.2247 34.5994 54.2684 34.5862 54.3134 34.5819C54.3584 34.5775 54.4038 34.582 54.447 34.5951C54.4903 34.6082 54.5305 34.6297 54.5654 34.6583C54.6003 34.6868 54.6292 34.722 54.6505 34.7617C54.6718 34.8015 54.685 34.845 54.6894 34.8898C54.7904 35.9201 55.9474 36.6084 56.916 36.5351C57.8846 36.4617 58.8781 35.7725 59.4938 34.7379C59.5152 34.6979 59.5443 34.6626 59.5795 34.6339C59.6152 34.6049 59.6566 34.5837 59.7011 34.5716C59.7456 34.5591 59.7923 34.5559 59.8381 34.5622C59.8838 34.5682 59.9279 34.5832 59.9676 34.6066C60.0073 34.6299 60.0419 34.6609 60.0693 34.6978C60.0965 34.7352 60.116 34.7775 60.1267 34.8224C60.1357 34.8671 60.1357 34.9132 60.1267 34.958C60.1186 35.0033 60.1015 35.0465 60.0762 35.0851C59.338 36.3278 58.1732 37.1244 56.9606 37.2174C56.8946 37.2208 56.8253 37.2234 56.7567 37.2234Z" fill="white"/>
<path d="M54.6979 29.6919C54.5638 29.6928 54.4299 29.6808 54.298 29.6561C53.6917 29.5418 53.0828 29.0232 53.1127 28.3528C53.1418 27.7037 53.6805 27.2321 54.7142 26.9506C55.7667 26.6649 56.7987 26.3928 57.8547 26.2162L57.9711 26.1966C59.314 25.9697 61.813 25.5467 62.7345 26.9463C63.1687 27.6056 62.9845 28.5516 62.3243 29.0565C61.6485 29.5734 60.7433 29.4557 60.012 29.3618L59.761 29.3303C58.4584 29.177 57.1394 29.238 55.8567 29.5111L55.7102 29.5427C55.3794 29.6298 55.0399 29.6799 54.6979 29.6919ZM60.2243 26.6393C59.4459 26.6393 58.6263 26.7783 58.0893 26.8687L57.972 26.8892C56.9443 27.0598 55.9329 27.3276 54.8975 27.6091C54.4068 27.7421 53.8184 27.9852 53.8004 28.3827C53.7876 28.6701 54.1147 28.926 54.429 28.9857C54.781 29.0514 55.1613 28.9686 55.5638 28.8799L55.7136 28.8475C57.0721 28.5568 58.4693 28.4908 59.8492 28.6522L60.1062 28.6846C60.7399 28.7699 61.4576 28.8603 61.9046 28.514C62.2737 28.2326 62.3928 27.6739 62.1615 27.3199C61.8147 26.7937 61.0414 26.6393 60.2243 26.6393Z" fill="white"/>
<path d="M73.8986 29.113C73.157 29.113 72.3254 28.9902 71.9289 28.2967C71.8221 28.107 71.7647 27.8937 71.7619 27.6762C71.759 27.4587 71.8108 27.2439 71.9126 27.0515C72.2201 26.428 72.96 25.9171 73.7111 25.8087C74.3734 25.7105 75.0431 25.6699 75.7125 25.6876H76.0182C77.3962 25.6782 79.3274 25.9674 80.6172 26.8126C81.3999 27.3244 81.2346 27.8617 81.131 28.0682C81.0415 28.2344 80.9044 28.3704 80.7371 28.4588C79.8532 28.9467 78.8375 28.9757 77.9409 29.0004L74.1196 29.1096C74.0485 29.1121 73.974 29.113 73.8986 29.113ZM75.4564 26.3734C74.9067 26.3679 74.3575 26.4061 73.8138 26.4877C73.2889 26.5636 72.7373 26.9372 72.5292 27.3568C72.4765 27.4495 72.4487 27.5543 72.4487 27.6609C72.4487 27.7675 72.4765 27.8722 72.5292 27.9649C72.7862 28.4119 73.5038 28.4494 74.1033 28.4324L77.9255 28.324C78.7433 28.3002 79.67 28.2746 80.409 27.8669C80.458 27.8434 80.4988 27.806 80.5264 27.7594C80.5906 27.6366 80.3799 27.4737 80.248 27.3875C79.085 26.625 77.2506 26.364 76.0294 26.3751H75.7176L75.4564 26.3734Z" fill="white"/>
<path d="M83.5855 32.6201C83.5105 32.6197 83.4377 32.5949 83.3782 32.5493C83.319 32.5036 83.2765 32.4398 83.2571 32.3677C83.2378 32.2956 83.2427 32.2192 83.2712 32.1501C83.2996 32.081 83.3498 32.023 83.4142 31.9847C87.1396 29.8131 91.2614 28.2411 94.8995 26.8543C95.7602 26.5259 96.7356 26.154 97.7505 26.0866C98.9306 26.0116 99.9823 26.3843 100.636 27.1102C101.554 28.1269 101.508 29.8685 100.538 30.8358C99.5686 31.803 97.8207 31.8593 96.793 30.9441C96.7418 30.8993 96.7051 30.8403 96.6878 30.7746C96.6705 30.7089 96.6732 30.6396 96.6956 30.5755C96.7181 30.5114 96.7592 30.4554 96.8138 30.4147C96.8683 30.374 96.9339 30.3504 97.002 30.347C97.047 30.3443 97.0921 30.3504 97.1347 30.365C97.1773 30.3797 97.2166 30.4025 97.2503 30.4323C98.0159 31.1147 99.3237 31.078 100.05 30.3539C100.776 29.6297 100.81 28.3273 100.123 27.5656C99.6174 27.0061 98.7456 26.7076 97.7907 26.7681C96.8795 26.8261 95.9923 27.163 95.141 27.4889C91.5278 28.8663 87.4333 30.4272 83.7567 32.5706C83.7052 32.6022 83.646 32.6193 83.5855 32.6201Z" fill="#162B43"/>
<path d="M91.5381 7.50552C91.6742 6.72679 91.4824 5.6393 90.6894 5.59325C90.3528 5.57363 90.0445 5.77577 89.7858 5.99156C88.7558 6.85392 88.0549 8.04288 87.8007 9.35894C87.5573 7.73679 86.6877 6.27334 85.3771 5.28022C84.7416 4.80258 83.6848 4.52281 83.2634 5.19493C83.1076 5.44398 83.0982 5.75445 83.1127 6.04786C83.1675 7.17391 83.497 8.2697 84.0727 9.24039C77.4765 5.9184 69.9801 4.80468 62.6975 6.06473C55.415 7.32479 48.735 10.8914 43.6503 16.2344C42.5635 17.3765 41.4887 18.812 41.7388 20.366C42.0599 22.3679 44.3551 23.3726 46.3685 23.6703C49.2435 24.0968 52.1741 23.817 55.0568 23.4451C64.1399 22.2727 73.081 20.1901 81.7442 17.229C81.4444 20.3848 81.4299 24.1778 84.0633 25.9528C85.7761 27.1093 88.5381 27.952 90.1815 26.6974C95.5264 22.6161 92.3277 15.3278 91.3051 14.3077C89.242 12.2487 90.1378 11.174 90.4547 10.5829C90.9784 9.62126 91.3441 8.58232 91.5381 7.50552Z" fill="#007EEF"/>
<path d="M77.0356 68.8495C76.7385 68.8495 76.3248 68.6362 75.5669 68.1006L75.5181 68.0656C73.6905 66.7803 72.3973 65.4676 71.9708 64.4637C71.9354 64.3803 71.9347 64.2864 71.9688 64.2025C72.0029 64.1186 72.0691 64.0516 72.1528 64.0163C72.2365 63.981 72.3309 63.9803 72.4151 64.0143C72.4994 64.0483 72.5666 64.1142 72.602 64.1976C72.9746 65.0744 74.2121 66.312 75.9129 67.5087L75.9643 67.5445C76.7205 68.0793 76.9611 68.1586 77.0331 68.1663C77.7019 68.0707 78.328 66.5218 78.5155 65.709C79.097 63.1886 79.1929 61.9561 79.3368 60.0796C79.3865 59.4339 79.443 58.7021 79.5261 57.8151C79.5346 57.7246 79.5789 57.6412 79.6491 57.5832C79.7194 57.5252 79.8099 57.4974 79.9008 57.5059C79.9916 57.5144 80.0754 57.5585 80.1336 57.6284C80.1918 57.6984 80.2197 57.7886 80.2112 57.879C80.1256 58.7601 80.0716 59.4894 80.0228 60.1316C79.8763 62.0345 79.7796 63.2875 79.1861 65.8616C79.1792 65.8898 78.5215 68.6763 77.1093 68.8469C77.0848 68.8495 77.0602 68.8503 77.0356 68.8495Z" fill="#007EEF"/>
<path d="M89.1127 93.7369C89.0803 93.7366 89.048 93.732 89.0168 93.7233C88.9734 93.7105 88.9329 93.6894 88.8977 93.661C88.8623 93.6329 88.8331 93.5978 88.8121 93.5578C88.7905 93.5182 88.7769 93.4748 88.7722 93.43C88.7675 93.3852 88.7717 93.3399 88.7847 93.2968C89.2857 91.585 89.427 89.9567 89.6616 87.2589C89.7764 85.9445 89.9186 84.3094 90.137 82.3016L90.1447 82.2283C90.2534 81.221 90.3665 80.1812 90.8897 79.2695C91.4327 78.3244 92.5966 77.5261 93.7698 77.8289C93.8149 77.8381 93.8575 77.8567 93.8949 77.8834C93.9326 77.9099 93.9646 77.9438 93.9889 77.9829C94.0132 78.0221 94.0293 78.0657 94.0362 78.1112C94.0485 78.202 94.0242 78.294 93.9685 78.3671C93.9403 78.4035 93.9051 78.4339 93.8649 78.4566C93.8248 78.4791 93.7805 78.4933 93.7347 78.4984C93.689 78.5034 93.6427 78.4993 93.5986 78.4865C92.7661 78.2724 91.8857 78.9035 91.4849 79.6055C91.0328 80.3928 90.9274 81.3617 90.8255 82.2991L90.8178 82.3724C90.6003 84.3734 90.4581 86.0042 90.3442 87.3194C90.1061 90.0591 89.9623 91.7129 89.4424 93.4896C89.4215 93.5601 89.3782 93.622 89.3191 93.6661C89.2599 93.7115 89.1874 93.7364 89.1127 93.7369Z" fill="#007EEF"/>
<path d="M75.614 81.5314C75.5455 81.5316 75.4785 81.5112 75.4217 81.4731C75.3649 81.4349 75.321 81.3807 75.2954 81.3173C74.995 80.5919 74.8388 79.8153 74.8355 79.0306C74.8355 78.9401 74.8716 78.8534 74.9359 78.7894C75.0001 78.7254 75.0873 78.6895 75.1781 78.6895C75.269 78.6895 75.3561 78.7254 75.4203 78.7894C75.4846 78.8534 75.5207 78.9401 75.5207 79.0306C75.5242 79.7283 75.6638 80.4186 75.9317 81.0632C75.9491 81.1043 75.958 81.1486 75.958 81.1932C75.958 81.2379 75.9491 81.2821 75.9317 81.3233C75.9141 81.3647 75.8885 81.4022 75.8563 81.4336C75.8241 81.4651 75.786 81.4899 75.7442 81.5067C75.7027 81.5229 75.6586 81.5313 75.614 81.5314Z" fill="#007EEF"/>
<path d="M78.0136 84.1169C77.9049 84.1169 77.618 84.1169 76.5355 83.0848C76.47 83.0222 76.4321 82.9364 76.4301 82.846C76.4291 82.8011 76.437 82.7565 76.4533 82.7146C76.4697 82.6728 76.4941 82.6346 76.5253 82.6022C76.5565 82.5698 76.5938 82.5438 76.6351 82.5258C76.6763 82.5078 76.7208 82.498 76.7659 82.4971C76.8566 82.4953 76.9444 82.5293 77.0099 82.5918C77.3885 82.9535 77.8903 83.3723 78.0513 83.4371C78.0964 83.4395 78.1406 83.4507 78.1813 83.4702C78.222 83.4897 78.2585 83.517 78.2885 83.5505C78.334 83.6008 78.3635 83.6635 78.3731 83.7305C78.3828 83.7975 78.3722 83.8658 78.3427 83.9268C78.3132 83.9878 78.2662 84.0387 78.2076 84.073C78.149 84.1073 78.0815 84.1235 78.0136 84.1194V84.1169Z" fill="#007EEF"/>
<path d="M81.5164 85.3025C80.8458 85.3025 79.8729 85.079 79.6571 84.9127C79.5845 84.8582 79.5367 84.7772 79.5241 84.6875C79.5115 84.5979 79.5351 84.5069 79.5899 84.4346C79.6446 84.3623 79.7259 84.3147 79.816 84.3021C79.906 84.2896 79.9973 84.3131 80.0699 84.3677C80.2917 84.4939 81.465 84.6824 81.7322 84.6116C81.7713 84.5895 81.8143 84.575 81.8589 84.569C81.9503 84.5569 82.0427 84.5814 82.1158 84.6372C82.1508 84.6644 82.18 84.6983 82.2015 84.737C82.2238 84.7759 82.2384 84.8188 82.2443 84.8632C82.25 84.9077 82.2471 84.9529 82.2357 84.9963C82.2238 85.0394 82.2037 85.08 82.1766 85.1157C82.1489 85.1504 82.1145 85.1794 82.0756 85.201C81.9583 85.2735 81.7579 85.3025 81.5164 85.3025Z" fill="#007EEF"/>
<path d="M84.0899 84.7683C83.999 84.7683 83.9119 84.7324 83.8476 84.6684C83.7834 84.6044 83.7473 84.5176 83.7473 84.4272C83.7473 84.3367 83.7834 84.2499 83.8476 84.1859C83.9119 84.1219 83.999 84.086 84.0899 84.086C84.5112 84.086 85.3522 83.541 85.5021 83.2331C85.5217 83.1927 85.549 83.1565 85.5826 83.1267C85.6162 83.0968 85.6554 83.0739 85.6979 83.0591C85.7404 83.0443 85.7854 83.038 85.8304 83.0406C85.8753 83.0431 85.9193 83.0545 85.9598 83.074C86.0004 83.0935 86.0367 83.1207 86.0666 83.1542C86.0966 83.1876 86.1197 83.2266 86.1345 83.269C86.1493 83.3113 86.1557 83.3561 86.1531 83.4009C86.1505 83.4457 86.1391 83.4895 86.1196 83.5299C85.8447 84.0988 84.7442 84.7683 84.0899 84.7683Z" fill="#007EEF"/>
<path d="M86.9914 82.3029C86.9257 82.3021 86.8616 82.2829 86.8064 82.2474C86.7513 82.2119 86.7076 82.1612 86.6805 82.1016C86.6536 82.042 86.6444 81.976 86.654 81.9114C86.6642 81.8481 86.6921 81.789 86.7345 81.7408C86.9477 81.4969 87.0642 80.7173 86.9691 80.1586C86.9614 80.1142 86.9626 80.0688 86.9726 80.0249C86.9826 79.981 87.0012 79.9395 87.0274 79.9027C87.0799 79.8289 87.1597 79.7789 87.2492 79.7637C87.2935 79.7561 87.339 79.7573 87.3829 79.7672C87.4268 79.7771 87.4683 79.7956 87.5051 79.8215C87.5418 79.8474 87.5731 79.8803 87.597 79.9182C87.621 79.9561 87.6373 79.9984 87.6448 80.0426C87.7425 80.6149 87.6851 81.6922 87.2509 82.1877C87.2186 82.2241 87.1789 82.2532 87.1344 82.273C87.0893 82.2928 87.0406 82.3029 86.9914 82.3029Z" fill="#007EEF"/>
<path d="M87.1515 78.4952C87.0718 78.495 86.9947 78.4671 86.9334 78.4163C86.8722 78.3656 86.8306 78.2951 86.8158 78.2171L86.5332 76.7304C86.5204 76.665 86.5272 76.5973 86.5527 76.5356C86.5781 76.474 86.6212 76.4211 86.6765 76.3835C86.7318 76.346 86.7969 76.3254 86.8638 76.3243C86.9307 76.3232 86.9965 76.3416 87.053 76.3773C87.1286 76.4251 87.1824 76.5004 87.2029 76.5872L87.4598 77.6457C87.4769 77.7162 87.4709 77.7903 87.4427 77.8572L87.4872 78.0909C87.4956 78.135 87.4951 78.1803 87.4859 78.2242C87.4766 78.2681 87.4587 78.3097 87.4333 78.3468C87.4081 78.3839 87.3758 78.4156 87.3381 78.4401C87.3005 78.4645 87.2583 78.4812 87.214 78.4892C87.1935 78.4937 87.1725 78.4957 87.1515 78.4952Z" fill="#007EEF"/>
<path d="M81.4855 80.2452C81.1233 80.4389 80.6043 81.2073 81.143 81.8658C81.3999 82.1831 81.8975 82.2445 82.2717 82.0756C82.9568 81.7635 83.0973 80.6342 82.4516 80.2427L81.4855 80.2452Z" fill="#162B43"/>
<path d="M81.8401 82.5123C81.6586 82.5163 81.4784 82.4802 81.3125 82.4066C81.1482 82.3318 81.002 82.2224 80.8843 82.0859C80.7555 81.9346 80.6629 81.7562 80.6135 81.5642C80.5641 81.3721 80.5592 81.1713 80.5991 80.977C80.643 80.7647 80.7302 80.5637 80.8555 80.3864C80.9807 80.2092 81.1412 80.0595 81.3271 79.9467C81.3768 79.92 81.4324 79.9059 81.489 79.9058H82.455C82.5179 79.9059 82.5795 79.9233 82.6331 79.9561C83.0262 80.1941 83.2429 80.6384 83.2121 81.1562C83.1787 81.702 82.8695 82.1865 82.4164 82.3904C82.2353 82.4715 82.0387 82.5131 81.8401 82.5123ZM81.5832 80.5855C81.4223 80.72 81.3103 80.9034 81.2646 81.1075C81.2441 81.2034 81.2465 81.3027 81.2714 81.3975C81.2961 81.4924 81.3431 81.5801 81.4085 81.6534C81.5566 81.8342 81.8735 81.8846 82.1295 81.7686C82.3514 81.6679 82.5064 81.4112 82.5244 81.1144C82.5357 81.0184 82.5251 80.9212 82.4934 80.8299C82.4616 80.7386 82.4096 80.6557 82.3411 80.5873L81.5832 80.5855Z" fill="#162B43"/>
<path d="M79.312 3.93622C79.2457 3.93612 79.1808 3.91686 79.1253 3.88077L76.097 1.91903C76.0575 1.89566 76.0232 1.86463 75.996 1.82777C75.9687 1.7906 75.9492 1.74832 75.9388 1.70346C75.9283 1.65861 75.9271 1.61211 75.9352 1.56677C75.9432 1.52163 75.9604 1.47858 75.9855 1.44018C76.0107 1.40179 76.0434 1.36884 76.0816 1.3433C76.1199 1.31763 76.163 1.29993 76.2084 1.29127C76.2536 1.28262 76.3001 1.28315 76.3451 1.29283C76.3902 1.3025 76.4328 1.32112 76.4704 1.34756L79.4987 3.30931C79.5613 3.34996 79.6088 3.40986 79.634 3.4799C79.6608 3.54786 79.665 3.62261 79.646 3.69313C79.6248 3.7638 79.5813 3.82575 79.5218 3.86969C79.4627 3.91418 79.3904 3.93788 79.3163 3.93707L79.312 3.93622Z" fill="#162B43"/>
<path d="M81.9317 2.19522C81.8716 2.1957 81.8124 2.18009 81.7604 2.15001C81.7081 2.12 81.6647 2.07675 81.6345 2.02463L80.7662 0.511529C80.7437 0.472662 80.7291 0.429766 80.7233 0.385294C80.7175 0.341092 80.7204 0.296177 80.7319 0.25309C80.744 0.209552 80.7643 0.168727 80.7918 0.132826C80.8198 0.0985985 80.8537 0.0697003 80.892 0.047533C80.97 0.00337453 81.0623 -0.00856873 81.149 0.0142686C81.1926 0.0254587 81.2334 0.0454943 81.2689 0.073121C81.3049 0.0993837 81.3355 0.132415 81.3588 0.170355L82.2272 1.68346C82.2495 1.72268 82.2641 1.76583 82.27 1.81055C82.2813 1.90026 82.2563 1.99076 82.2006 2.06216C82.1684 2.10307 82.1273 2.13626 82.0805 2.15929C82.0337 2.18232 81.9822 2.19459 81.93 2.19522H81.9317Z" fill="#162B43"/>
<path d="M93.8529 10.85C93.7904 10.8499 93.7291 10.8328 93.6756 10.8005C93.6354 10.7762 93.6007 10.7439 93.5736 10.7057C93.5465 10.6674 93.5275 10.624 93.518 10.5782C93.5084 10.5324 93.5084 10.485 93.518 10.4392C93.5276 10.3934 93.5466 10.35 93.5737 10.3118C95.3218 7.85133 96.7674 5.19111 97.8798 2.38801C97.9136 2.30444 97.9792 2.23758 98.0623 2.20202C98.1454 2.16646 98.2393 2.16508 98.3234 2.19819C98.4075 2.2313 98.4751 2.29621 98.5113 2.37875C98.5476 2.46129 98.5496 2.55477 98.5169 2.63877C97.3844 5.49226 95.9126 8.2003 94.133 10.705C94.1013 10.7498 94.0593 10.7863 94.0105 10.8116C93.9619 10.837 93.9078 10.8502 93.8529 10.85Z" fill="#162B43"/>
<path d="M49.9663 18.0189C49.2435 18.0189 48.4599 17.7511 48.2201 17.1233C47.9966 16.5407 48.3228 15.907 49.1373 15.3398C50.0721 14.7002 51.1172 14.2376 52.2204 13.9751C52.265 13.9631 52.3115 13.9599 52.3574 13.9657C52.403 13.9716 52.447 13.9865 52.4868 14.0097C52.5265 14.0328 52.5611 14.0637 52.5886 14.1005C52.616 14.1372 52.6358 14.179 52.6469 14.2233C52.6575 14.268 52.6593 14.3144 52.652 14.3598C52.6442 14.4051 52.6273 14.4483 52.6023 14.4869C52.5782 14.5261 52.5458 14.5596 52.5073 14.585C52.4696 14.6114 52.4266 14.6294 52.3814 14.6379C51.3611 14.8805 50.3943 15.3081 49.5295 15.8993C49.3351 16.0341 48.7151 16.5032 48.859 16.8811C48.9686 17.1668 49.509 17.3672 50.0896 17.3331C50.3775 17.3115 50.6635 17.2711 50.946 17.212C51.288 17.1399 51.635 17.0943 51.984 17.0755C52.0748 17.073 52.1629 17.1064 52.2289 17.1685C52.2783 17.2148 52.3127 17.2747 52.3279 17.3405C52.3431 17.4063 52.3383 17.4751 52.3142 17.5382C52.2901 17.6013 52.2477 17.6559 52.1924 17.695C52.1372 17.7341 52.0715 17.756 52.0037 17.7579C51.6889 17.7755 51.376 17.8171 51.0676 17.8824C50.7569 17.9473 50.4422 17.9915 50.1256 18.0146C50.0751 18.0146 50.0211 18.0189 49.9663 18.0189Z" fill="#162B43"/>
<path d="M62.9117 18.7378C62.4908 18.7456 62.0805 18.6062 61.7522 18.3437C61.6036 18.2186 61.4831 18.064 61.3981 17.8897C61.3132 17.7154 61.2658 17.5254 61.2591 17.3318C61.2523 17.1382 61.2863 16.9453 61.3588 16.7656C61.4313 16.5858 61.5408 16.4232 61.6802 16.2881C61.7128 16.2571 61.7512 16.2327 61.7932 16.2165C61.8352 16.2002 61.8801 16.1924 61.9252 16.1935C61.97 16.1943 62.0142 16.2038 62.0553 16.2216C62.0967 16.2395 62.1341 16.2654 62.1654 16.2977C62.1967 16.3301 62.2213 16.3683 62.2377 16.4101C62.2541 16.4519 62.2619 16.4966 62.2609 16.5414C62.2602 16.5862 62.2505 16.6304 62.2324 16.6715C62.2143 16.7125 62.1882 16.7495 62.1555 16.7803C62.0851 16.8476 62.0297 16.929 61.9928 17.0191C61.9563 17.1089 61.9393 17.2054 61.9431 17.3023C61.9465 17.4022 61.9707 17.5004 62.0142 17.5906C62.0577 17.6802 62.1195 17.7599 62.1958 17.8243C62.5495 18.1245 63.2115 18.1381 63.584 17.8533C63.6566 17.8029 63.7457 17.7818 63.8332 17.7944C63.921 17.8075 64.0002 17.854 64.0542 17.9241C64.108 17.994 64.1326 18.0821 64.1227 18.1697C64.1128 18.2573 64.0692 18.3377 64.0011 18.394C63.6854 18.6241 63.3028 18.7448 62.9117 18.7378Z" fill="#162B43"/>
<path d="M71.6591 12.0978C71.0314 12.0978 70.3916 11.8419 70.0011 11.4316C69.86 11.292 69.7526 11.1222 69.6868 10.9352C69.6208 10.7482 69.5977 10.5489 69.6191 10.3518C69.6894 9.73602 70.2332 9.1927 70.9414 9.02894C71.5409 8.89161 72.1541 9.00932 72.6474 9.10399C72.7162 9.11442 72.7802 9.14548 72.8308 9.19301C72.8814 9.24055 72.9164 9.30233 72.9309 9.37011C72.9399 9.41487 72.9399 9.46096 72.9309 9.50572C72.9222 9.55083 72.9044 9.59373 72.8786 9.63183C72.8529 9.66994 72.8197 9.70248 72.781 9.72749C72.7425 9.75299 72.699 9.77014 72.6534 9.77781C72.6082 9.78717 72.5616 9.78717 72.5164 9.77781C72.0642 9.69252 71.5512 9.59358 71.0947 9.69849C70.7308 9.78378 70.3402 10.0618 70.2983 10.4337C70.2888 10.532 70.3016 10.6311 70.336 10.7237C70.3702 10.8162 70.4252 10.8997 70.497 10.9677C70.7736 11.2585 71.2874 11.4436 71.7473 11.418C72.0942 11.3881 72.438 11.3294 72.775 11.2423C73.2811 11.128 73.8027 11.0094 74.3551 11.0589C74.4003 11.063 74.4443 11.0761 74.4844 11.0973C74.5249 11.1178 74.561 11.1462 74.5904 11.1808C74.6198 11.2153 74.642 11.2554 74.6557 11.2986C74.6695 11.3415 74.6745 11.3868 74.6702 11.4316C74.666 11.4764 74.6529 11.5199 74.6317 11.5596C74.6104 11.5996 74.5813 11.635 74.5461 11.6636C74.5111 11.6923 74.471 11.714 74.4279 11.7276C74.3847 11.7411 74.3393 11.7457 74.2943 11.7413C73.8524 11.7012 73.4036 11.8027 72.9292 11.9118C72.5556 12.0074 72.1745 12.0713 71.7901 12.1029C71.7447 12.0969 71.7002 12.0978 71.6591 12.0978Z" fill="#162B43"/>
<path d="M78.5326 96.4945C78.4502 96.4938 78.3709 96.4635 78.3091 96.4092C78.2624 96.3694 78.2273 96.3178 78.2075 96.2597C78.1877 96.2017 78.184 96.1395 78.1967 96.0795C78.2094 96.0196 78.238 95.9642 78.2797 95.9191C78.3213 95.874 78.3744 95.8409 78.4333 95.8233C82.9097 94.4637 84.0171 94.2581 91.3411 93.0521C91.408 93.0409 91.4768 93.0497 91.5387 93.0775C91.6005 93.1053 91.6527 93.1508 91.6886 93.2082C91.7245 93.2656 91.7424 93.3323 91.7402 93.3999C91.7379 93.4675 91.7156 93.5328 91.6759 93.5877C91.65 93.6244 91.6169 93.6555 91.5786 93.6792C91.5404 93.703 91.4978 93.7188 91.4533 93.7259C84.1687 94.92 83.0673 95.129 78.6328 96.4766C78.6007 96.4881 78.5668 96.4942 78.5326 96.4945Z" fill="#007EEF"/>
<path d="M29.2729 103.905C29.182 103.905 29.0949 103.869 29.0307 103.805C28.9664 103.741 28.9303 103.654 28.9303 103.564C28.9303 103.473 28.9664 103.386 29.0307 103.322C29.0949 103.258 29.182 103.222 29.2729 103.222C33.8658 103.155 36.4136 103.129 38.8767 103.102C41.3397 103.076 43.8866 103.049 48.4787 102.982H48.4838C48.5747 102.982 48.6619 103.017 48.7271 103.08C48.7917 103.144 48.8284 103.23 48.829 103.321C48.829 103.411 48.7929 103.498 48.7286 103.562C48.6644 103.626 48.5773 103.662 48.4864 103.662C43.8926 103.729 41.3448 103.756 38.8818 103.782C36.4188 103.808 33.8727 103.835 29.2797 103.902L29.2729 103.905Z" fill="#162B43"/>
<path d="M53.2463 103.645C53.1016 103.645 52.9466 103.639 52.7847 103.632C52.4253 103.61 52.0647 103.613 51.7056 103.641C51.6607 103.645 51.6153 103.641 51.572 103.627C51.5288 103.614 51.4887 103.593 51.4539 103.564C51.4187 103.535 51.3896 103.5 51.3682 103.461C51.3467 103.421 51.3333 103.378 51.3288 103.333C51.3244 103.288 51.3291 103.242 51.3425 103.199C51.3555 103.156 51.3771 103.116 51.4059 103.081C51.4346 103.046 51.4698 103.018 51.5096 102.997C51.5495 102.976 51.5931 102.963 51.638 102.958C52.028 102.927 52.4198 102.923 52.8104 102.947C53.0202 102.956 53.2181 102.963 53.3765 102.957C53.4215 102.955 53.4664 102.962 53.5088 102.977C53.5511 102.992 53.59 103.016 53.6231 103.046C53.6733 103.092 53.7087 103.151 53.7248 103.217C53.741 103.283 53.7371 103.352 53.7136 103.416C53.6902 103.479 53.6484 103.534 53.5933 103.574C53.5383 103.614 53.4727 103.636 53.4048 103.639C53.3542 103.644 53.3011 103.645 53.2463 103.645Z" fill="#162B43"/>
<path d="M55.7359 103.659C55.3822 103.659 55.0508 103.659 54.7545 103.645C54.6636 103.642 54.5777 103.603 54.5157 103.537C54.4537 103.47 54.4207 103.382 54.4239 103.292C54.4271 103.201 54.4662 103.116 54.5327 103.054C54.5992 102.992 54.6876 102.959 54.7784 102.963C56.2061 103.013 58.4233 102.924 60.3785 102.847C61.282 102.811 62.135 102.777 62.8098 102.761C62.8777 102.76 62.9445 102.778 63.0018 102.814C63.0592 102.85 63.1045 102.902 63.132 102.964C63.1596 103.026 63.168 103.094 63.1564 103.161C63.1448 103.227 63.1136 103.289 63.0668 103.338C63.0038 103.403 62.9177 103.441 62.827 103.444C62.1573 103.46 61.3068 103.493 60.4068 103.529C58.8412 103.59 57.1096 103.659 55.7359 103.659Z" fill="#162B43"/>
<path d="M18.0154 99.2515C17.8588 99.2739 17.6997 99.2342 17.5721 99.141C17.4446 99.0478 17.3587 98.9086 17.3331 98.7531C17.3074 98.5977 17.344 98.4384 17.4349 98.3094C17.5257 98.1805 17.6638 98.0922 17.8193 98.0634L19.9963 97.6634C20.9118 97.4928 21.859 97.3222 22.6965 96.9554C23.5675 96.5759 24.2321 96.0053 24.5669 95.3485C25.0671 94.3668 24.8196 93.0157 24.0034 92.2728C23.8093 92.0864 23.575 91.9467 23.3183 91.8643C22.8901 91.7381 22.3805 91.8199 21.8872 91.9001C21.1541 92.0187 20.3243 92.156 19.7282 92.5722C19.5972 92.6643 19.4348 92.7007 19.2767 92.6736C19.1187 92.6464 18.978 92.5578 18.8855 92.4272C18.7931 92.2967 18.7565 92.135 18.7838 91.9776C18.8111 91.8202 18.9001 91.68 19.0311 91.5879C19.855 91.0097 20.8741 90.8442 21.6928 90.712C22.2623 90.6199 22.9706 90.5056 23.6626 90.712C24.0945 90.8462 24.49 91.077 24.8187 91.3866C26.0357 92.4955 26.3911 94.4325 25.6452 95.8961C25.0534 97.0561 23.9786 97.7137 23.1804 98.0617C22.2152 98.4813 21.1987 98.669 20.2164 98.8498L18.0394 99.2498L18.0154 99.2515Z" fill="#162B43"/>
<path d="M4.80958 96.1253C4.95603 97.6878 6.50955 101.701 8.49214 102.218C10.4747 102.735 10.8353 101.888 9.17726 100.927C8.66342 100.63 6.75363 99.4952 6.2963 98.528C5.83898 97.5608 4.53896 93.2483 4.80958 96.1253Z" fill="white"/>
<path d="M67.1424 103.597C67.0517 103.599 66.9641 103.564 66.899 103.501C66.8338 103.438 66.7963 103.352 66.7947 103.262C66.7939 103.217 66.802 103.173 66.8185 103.131C66.835 103.089 66.8595 103.051 66.8908 103.019C66.922 102.987 66.9594 102.961 67.0006 102.943C67.0419 102.925 67.0863 102.916 67.1313 102.915C80.2891 102.488 90.8538 102.287 101.381 102.267C101.472 102.267 101.559 102.303 101.623 102.367C101.687 102.431 101.723 102.517 101.723 102.608C101.723 102.698 101.687 102.785 101.623 102.849C101.559 102.913 101.472 102.949 101.381 102.949C90.8598 102.969 80.3028 103.17 67.1527 103.597H67.1424Z" fill="#162B43"/>
<path d="M103.559 103.061C103.502 103.061 103.445 103.046 103.395 103.019C103.345 102.992 103.302 102.953 103.271 102.905C103.24 102.857 103.222 102.803 103.217 102.746C103.213 102.689 103.223 102.632 103.246 102.58C103.277 102.511 103.33 102.454 103.398 102.418C103.688 102.265 104.027 102.227 104.345 102.311C104.43 102.337 104.501 102.395 104.544 102.472C104.587 102.549 104.598 102.64 104.575 102.726C104.552 102.811 104.497 102.884 104.42 102.93C104.344 102.975 104.253 102.989 104.167 102.969C104.016 102.931 103.857 102.949 103.72 103.021C103.67 103.046 103.615 103.06 103.559 103.061Z" fill="#162B43"/>
<path d="M84.9035 111.404C85.0747 111.976 85.246 112.566 85.1921 113.16C85.1064 114.147 84.4213 114.964 83.7644 115.71C82.7599 116.859 81.8298 118.361 80.8252 119.509C80.457 119.929 80.1992 120.315 79.3933 119.608C77.9905 118.374 76.5757 116.716 75.3211 115.333C74.988 114.968 74.6548 114.585 74.4733 114.127C74.2069 113.453 74.6565 112.411 74.7465 111.693C75.1224 108.69 75.2312 106.018 75.0411 102.993C74.8826 100.476 74.4519 99.6668 74.0913 99.37C74.7953 99.3291 78.6226 98.9674 79.0199 98.958C79.8472 98.9384 80.6257 98.4923 81.1079 99.3606C81.6286 100.299 82.1356 102.103 82.4404 103.126L83.588 106.981L84.9035 111.404Z" fill="#007EEF"/>
<path d="M74.6403 109.827C74.5632 109.827 74.4884 109.801 74.4279 109.754C74.3826 109.718 74.3471 109.671 74.3246 109.618C74.3022 109.565 74.2936 109.508 74.2996 109.451C74.3056 109.393 74.3259 109.339 74.3589 109.291C74.3918 109.244 74.4361 109.206 74.4878 109.18C77.3777 107.751 80.4027 106.61 83.5186 105.775C83.5627 105.761 83.6089 105.757 83.6547 105.762C83.7005 105.767 83.7448 105.78 83.785 105.803C83.8248 105.824 83.8601 105.853 83.8886 105.888C83.9173 105.924 83.9383 105.966 83.9503 106.01C83.9621 106.054 83.965 106.1 83.9588 106.146C83.952 106.191 83.9366 106.234 83.9134 106.274C83.8896 106.313 83.8582 106.347 83.821 106.374C83.784 106.401 83.7417 106.421 83.6968 106.43C80.6239 107.254 77.6405 108.379 74.7901 109.788C74.7441 109.813 74.6927 109.826 74.6403 109.827Z" fill="#162B43"/>
<path d="M74.3662 112.672C74.2953 112.672 74.2261 112.65 74.1682 112.609C74.1104 112.568 74.0668 112.51 74.0434 112.444C74.0199 112.377 74.0178 112.305 74.0373 112.237C74.0568 112.169 74.0969 112.109 74.1521 112.065C75.6654 110.856 77.4467 110.189 79.4507 109.506C81.0779 108.949 82.7282 108.406 84.3665 107.891C84.4087 107.877 84.4531 107.872 84.4972 107.876C84.5413 107.88 84.5842 107.893 84.6234 107.913C84.6638 107.934 84.6993 107.963 84.7279 107.998C84.7568 108.033 84.7786 108.072 84.7922 108.115C84.8057 108.158 84.8106 108.203 84.8067 108.247C84.8009 108.314 84.7751 108.379 84.7327 108.431C84.6904 108.484 84.6332 108.523 84.5686 108.543C82.9363 109.055 81.2877 109.597 79.6691 110.153C77.7276 110.819 76.0037 111.463 74.576 112.603C74.5157 112.649 74.4419 112.673 74.3662 112.672Z" fill="#162B43"/>
</g>
<defs>
<clipPath id="clip0_964_3677">
<rect width="104.587" height="120" fill="white"/>
</clipPath>
</defs>
</svg>
