<svg width="80" height="69" viewBox="0 0 80 69" fill="none" xmlns="http://www.w3.org/2000/svg">
<g clip-path="url(#clip0_976_3999)">
<path d="M18.2579 8.73858C12.8932 10.4939 8.59073 11.7144 3.22542 13.4716L0.104248 17.3784C0.104248 17.3784 0.466719 18.3996 0.756205 19.5765C1.51718 22.6722 2.48576 25.7132 3.65536 28.6788C8.36932 40.6274 13.4071 52.4669 19.4176 63.8219C19.7206 64.3935 20.0518 64.9927 20.6093 65.3209C21.5741 65.89 22.7976 65.4435 23.8164 64.9792C27.6491 63.2254 31.3845 61.2663 35.0063 59.1104C35.3676 58.8951 35.7423 58.6608 35.9423 58.2892C36.2097 57.7844 36.0766 57.1693 35.9263 56.6179C34.1618 50.1241 30.9836 44.1007 28.8873 37.705C26.2543 29.6705 25.3546 21.1454 22.6284 13.1404C22.2156 11.9284 21.7384 10.6938 20.8454 9.77631C19.9525 8.85879 19.4422 8.24608 18.2579 8.73858Z" fill="#007EEF"/>
<path d="M6.4398 9.11392C4.21591 9.4353 5.25058 11.7144 5.45849 12.8116C6.99179 20.9191 8.02707 29.1431 10.2724 37.0831C12.3405 44.3987 15.4151 51.3838 18.4792 58.3407L22.3247 67.0657C22.4634 67.3804 22.6069 67.7018 22.8461 67.9483C23.8568 68.991 25.5753 68.0612 26.7186 67.1669C31.2949 63.5887 36.4102 60.7596 41.8736 58.7853C47.0402 56.9202 52.4749 55.8371 57.5685 53.78C58.2977 53.485 59.0551 53.1428 59.5176 52.5062C60.5707 51.0532 59.5789 49.0587 58.6632 47.5138C50.9158 34.4072 49.48 18.6743 47.3812 3.59467C47.2402 2.58024 47.058 1.48915 46.3288 0.769727C45.0893 -0.45691 43.0359 0.0220918 41.3793 0.563652C31.878 3.67055 22.1967 6.19758 12.389 8.13077C10.6809 8.46687 7.98414 8.89313 6.4398 9.11392Z" fill="#DBF122"/>
<path d="M11.285 16.6258C11.5763 17.3526 12.0541 18.0364 12.7453 18.4044C13.1373 18.602 13.5661 18.7158 14.0045 18.7387C15.4678 18.8436 16.9545 18.1787 17.8868 17.0465C18.819 15.9144 19.1876 14.3516 18.9049 12.9128C18.7013 11.875 18.1076 10.8459 17.1361 10.4307C16.6761 10.2344 16.1658 10.1854 15.6641 10.1927C14.4375 10.2038 13.1348 10.5797 12.3411 11.5647C11.6113 12.47 11.0311 13.3967 10.9587 14.5884C10.9165 15.2832 11.0279 15.9789 11.285 16.6258Z" fill="white"/>
<path d="M15.0471 17.2397H15.0263C14.9011 17.2263 14.7851 17.1681 14.6994 17.076C13.9526 16.3759 13.2869 15.5941 12.7147 14.7454C12.6867 14.7037 12.6722 14.6545 12.6731 14.6043C12.674 14.5542 12.6903 14.5055 12.7197 14.4649C12.7491 14.4243 12.7902 14.3936 12.8376 14.3771C12.8849 14.3606 12.9362 14.359 12.9845 14.3725C13.2018 14.4358 13.4156 14.5108 13.6248 14.5969C13.8285 14.6754 14.0174 14.749 14.2228 14.8067C14.2838 14.8293 14.3486 14.8395 14.4136 14.8368C14.4547 14.8245 14.5105 14.7306 14.5552 14.6528C14.5687 14.6301 14.5816 14.6074 14.5951 14.5859C15.3072 13.4329 16.3737 11.8438 16.7779 11.2973C16.8115 11.2522 16.8595 11.22 16.914 11.2061C16.9685 11.1922 17.0261 11.1974 17.0772 11.2209C17.1283 11.2444 17.1697 11.2847 17.1946 11.3352C17.2195 11.3856 17.2264 11.443 17.214 11.4978C16.7955 13.3306 16.221 15.1241 15.4967 16.8589C15.371 17.1674 15.1863 17.2397 15.0471 17.2397ZM13.5752 15.1011C14.0151 15.6769 14.5017 16.2156 15.03 16.7117C15.0355 16.7006 15.0422 16.6865 15.049 16.6706C15.5902 15.3726 16.0469 14.041 16.416 12.684C15.9646 13.355 15.4304 14.1744 15.0158 14.846L14.9809 14.9042C14.8962 15.0477 14.7809 15.2434 14.5516 15.3084C14.3995 15.3414 14.2412 15.3312 14.0946 15.279C13.9106 15.2262 13.7395 15.1637 13.5745 15.1011H13.5752Z" fill="#007EEF"/>
<path d="M15.5537 23.9808C14.5111 24.9559 14.2467 26.5248 14.4178 27.9397C14.5859 29.3277 15.2992 30.837 16.6522 31.1903C17.2109 31.3369 17.8083 31.2621 18.3584 31.0854C19.904 30.5899 21.1631 29.221 21.425 27.619C21.6869 26.017 20.873 24.2678 19.4348 23.5202C17.9966 22.7725 16.029 23.1644 15.0588 24.4647L15.5537 23.9808Z" fill="white"/>
<path d="M18.2155 30.3794C18.17 30.3794 18.1254 30.3666 18.0867 30.3426C18.0477 30.3193 18.0162 30.2852 17.996 30.2445C17.9089 30.1494 17.5581 29.8514 17.4029 29.7201C17.271 29.6079 17.206 29.5527 17.1778 29.5245C16.884 29.238 16.5982 28.9357 16.3277 28.626L16.2934 28.5873C15.9824 28.2371 15.7745 27.974 15.9254 27.7422C16.0168 27.6023 16.1842 27.571 16.424 27.6489C16.7055 27.7403 16.9821 27.8562 17.2489 27.9685L17.4293 28.0439C17.8959 27.0684 18.4164 26.1196 18.9883 25.2018C19.203 24.8577 19.4863 24.721 19.7464 24.8338C19.7977 24.8565 19.8397 24.8961 19.8654 24.946C19.891 24.9958 19.8988 25.053 19.8874 25.108C19.6421 26.3064 19.2741 27.4999 18.9178 28.6529C18.7534 29.1865 18.5976 29.6913 18.4553 30.1924C18.4545 30.1994 18.4524 30.2063 18.4492 30.2126C18.4327 30.2614 18.4013 30.3038 18.3593 30.3338C18.3174 30.3637 18.2671 30.3797 18.2155 30.3794ZM16.6546 28.2549L16.6602 28.261L16.6976 28.3034C16.9595 28.6033 17.2361 28.8958 17.5206 29.1737C17.539 29.1921 17.6353 29.2736 17.7206 29.346C17.8353 29.4435 17.9733 29.5607 18.0953 29.6674C18.2069 29.2896 18.3247 28.9062 18.4474 28.507C18.7289 27.5937 19.0177 26.6548 19.2447 25.7145C18.7047 26.6031 18.2133 27.5204 17.7727 28.4622C17.746 28.5186 17.6987 28.5627 17.6406 28.5855C17.5825 28.6083 17.5179 28.6081 17.4599 28.5849C17.325 28.5315 17.1888 28.4745 17.0576 28.4193C16.9263 28.3641 16.7914 28.3083 16.6559 28.2549H16.6546Z" fill="#007EEF"/>
<path d="M23.7765 50.0712C22.7338 51.0464 22.4695 52.6153 22.6406 54.0302C22.8087 55.4181 23.522 56.9275 24.8749 57.2808C25.4337 57.4274 26.031 57.3525 26.5812 57.1759C28.1268 56.6803 29.3859 55.3114 29.6478 53.7094C29.9097 52.1074 29.0958 50.3582 27.6576 49.6106C26.2193 48.863 24.2518 49.2549 23.2815 50.5551L23.7765 50.0712Z" fill="white"/>
<path d="M26.434 56.4688C26.3885 56.4687 26.3439 56.456 26.3052 56.432C26.2661 56.4087 26.2346 56.3746 26.2144 56.3339C26.1273 56.2388 25.7765 55.9407 25.6213 55.8095C25.4895 55.6972 25.4245 55.642 25.3962 55.6138C25.1025 55.3274 24.8167 55.025 24.5462 54.7153L24.5118 54.6767C24.2009 54.3265 23.993 54.0634 24.1438 53.8315C24.2352 53.6917 24.4027 53.6604 24.6425 53.7383C24.924 53.8297 25.2006 53.9456 25.4674 54.0578L25.6477 54.1333C26.1144 53.1578 26.6349 52.2089 27.2068 51.2912C27.4214 50.9471 27.7048 50.8103 27.9648 50.9232C28.0161 50.9458 28.0581 50.9854 28.0838 51.0353C28.1095 51.0852 28.1173 51.1424 28.1059 51.1973C27.8606 52.3957 27.4926 53.5893 27.1362 54.7423C26.9719 55.2759 26.8161 55.7806 26.6738 56.2817C26.6729 56.2888 26.6708 56.2956 26.6676 56.302C26.6512 56.3508 26.6197 56.3932 26.5778 56.4231C26.5358 56.4531 26.4855 56.4691 26.434 56.4688ZM24.8731 54.3443L24.8786 54.3504L24.916 54.3927C25.1779 54.6926 25.4545 54.9852 25.7391 55.263C25.7575 55.2814 25.8538 55.363 25.939 55.4353C26.0537 55.5329 26.1917 55.65 26.3138 55.7567C26.4254 55.3789 26.5431 54.9956 26.6658 54.5963C26.9473 53.6831 27.2362 52.7441 27.4631 51.8039C26.9231 52.6925 26.4317 53.6097 25.9912 54.5516C25.9644 54.608 25.9172 54.6521 25.8591 54.6748C25.8009 54.6976 25.7363 54.6974 25.6784 54.6742C25.5434 54.6209 25.4073 54.5638 25.276 54.5086C25.1448 54.4534 25.0098 54.3976 24.8743 54.3443H24.8731Z" fill="#007EEF"/>
<path d="M18.007 37.5608C17.3741 38.6746 17.1533 40.0368 17.498 41.2701C17.8426 42.5035 18.7755 43.5799 19.9819 44.0098C21.1883 44.4398 22.64 44.1699 23.5502 43.2683C24.5677 42.2606 24.7915 40.6715 24.5505 39.2603C24.4082 38.409 24.1016 37.5645 23.5342 36.9162C23.1223 36.4435 22.5891 36.0923 21.9921 35.9006C21.3952 35.7089 20.7572 35.684 20.1471 35.8285C19.537 35.973 18.9779 36.2815 18.5304 36.7206C18.0829 37.1598 17.7638 37.7128 17.6077 38.3201L18.007 37.5608Z" fill="white"/>
<path d="M22.5989 12.4779C22.5389 12.4781 22.4808 12.4563 22.4358 12.4166C22.3906 12.3771 22.3614 12.3224 22.3538 12.2628C22.3463 12.2032 22.3608 12.1429 22.3947 12.0934C22.4285 12.0437 22.4793 12.0081 22.5376 11.9934C26.0746 11.1243 29.6791 10.327 33.2523 9.62293C33.3 9.61339 33.3494 9.61824 33.3943 9.63687C33.4393 9.6555 33.4776 9.68707 33.5046 9.72756C33.5315 9.76805 33.5459 9.81564 33.5457 9.86428C33.5455 9.91292 33.5309 9.96042 33.5037 10.0007C33.4674 10.0546 33.4111 10.0919 33.3473 10.1044C29.7815 10.8072 26.1838 11.6027 22.6547 12.4693C22.6365 12.4742 22.6178 12.4767 22.5989 12.4767V12.4779Z" fill="#162B43"/>
<path d="M25.3821 25.3257C25.3221 25.3262 25.264 25.3047 25.2188 25.2653C25.1736 25.2258 25.1445 25.1712 25.1368 25.1117C25.1293 25.0522 25.1439 24.9919 25.1778 24.9424C25.2117 24.8929 25.2626 24.8576 25.3208 24.843C28.6757 23.9807 32.1047 23.2312 35.5111 22.6136C35.5753 22.6023 35.6413 22.6166 35.6951 22.6535C35.7216 22.6719 35.7443 22.6953 35.7618 22.7225C35.7792 22.7496 35.7912 22.78 35.7969 22.8117C35.8028 22.8435 35.8023 22.8761 35.7956 22.9076C35.7889 22.9392 35.776 22.9692 35.7576 22.9957C35.7392 23.0222 35.7157 23.0447 35.6886 23.0621C35.6614 23.0794 35.6311 23.0913 35.5994 23.0969C32.2028 23.7103 28.7848 24.4591 25.4416 25.3184C25.4216 25.3233 25.401 25.3258 25.3803 25.3257H25.3821Z" fill="#162B43"/>
<path d="M30.3101 38.3986C30.2509 38.3983 30.1939 38.3765 30.1495 38.3373C30.1159 38.3088 30.0907 38.2719 30.0764 38.2303C30.0621 38.1888 30.0592 38.1441 30.068 38.101C30.0768 38.058 30.0971 38.0181 30.1266 37.9855C30.1562 37.9529 30.1939 37.9289 30.2359 37.916C33.2338 36.9696 36.2992 36.1024 39.3486 35.34C39.4113 35.3256 39.4771 35.3363 39.5319 35.3699C39.5868 35.4035 39.6262 35.4573 39.6418 35.5197C39.6573 35.5821 39.6478 35.648 39.6152 35.7034C39.5826 35.7588 39.5296 35.7992 39.4676 35.8159C36.428 36.5777 33.3718 37.4419 30.3837 38.3858C30.3599 38.393 30.335 38.3963 30.3101 38.3956V38.3986Z" fill="#162B43"/>
<path d="M34.7089 51.4788C34.668 51.4788 34.6278 51.4687 34.5919 51.4492C34.5559 51.4297 34.5254 51.4016 34.5031 51.3674C34.4808 51.3331 34.4674 51.2939 34.4642 51.2531C34.4609 51.2124 34.4678 51.1715 34.4844 51.1341C34.5067 51.084 34.5451 51.0427 34.5936 51.017C37.8235 49.2978 41.256 47.9897 44.8108 47.123C44.8749 47.1062 44.9429 47.1152 45.0004 47.1482C45.0285 47.1652 45.0531 47.1875 45.0727 47.2138C45.0924 47.2401 45.1064 47.2702 45.1138 47.3021C45.1255 47.3501 45.1224 47.4004 45.105 47.4466C45.0876 47.4927 45.0567 47.5326 45.0163 47.5609C44.9893 47.5797 44.9589 47.5928 44.9268 47.5996C41.4119 48.4569 38.018 49.7504 34.8242 51.45C34.7887 51.4689 34.7491 51.4788 34.7089 51.4788Z" fill="#162B43"/>
<path d="M60.992 29.8967C60.947 29.8968 60.9029 29.8845 60.8644 29.8612C60.826 29.8376 60.7948 29.8038 60.7743 29.7636C60.7534 29.7239 60.7443 29.679 60.7479 29.6342C60.7515 29.59 60.767 29.5477 60.7927 29.5116L61.3281 28.7621C61.3469 28.7359 61.3706 28.7136 61.398 28.6965C61.4253 28.6795 61.4558 28.668 61.4876 28.6627C61.5354 28.6548 61.5845 28.6612 61.6287 28.6812C61.6729 28.7012 61.7102 28.7338 61.7359 28.7749C61.7615 28.8161 61.7744 28.8639 61.7729 28.9124C61.7714 28.9609 61.7556 29.0078 61.7274 29.0473L61.1919 29.7968C61.1691 29.8285 61.1391 29.8544 61.1042 29.8722C61.0697 29.8905 61.0311 29.8998 60.992 29.8992V29.8967Z" fill="#162B43"/>
<path d="M71.6037 5.8798L68.7211 9.97309C69.7182 11.0879 70.9599 11.9567 72.3488 12.5116C72.3809 12.5345 72.4176 12.55 72.4563 12.557C72.4951 12.5641 72.5349 12.5625 72.5729 12.5524C72.611 12.5424 72.6464 12.524 72.6765 12.4987C72.7067 12.4735 72.7309 12.4418 72.7475 12.4061L75.8251 8.19937C74.377 7.39025 73.0003 6.45957 71.7098 5.41736L71.6037 5.8798Z" fill="#DBF122"/>
<path d="M52.2253 33.2498C50.8073 35.6957 49.4285 38.2275 48.887 41.0022C48.76 41.6547 48.7146 42.4244 49.1936 42.8887C49.7708 43.4511 50.7386 43.2144 51.4439 42.8237C52.5914 42.1889 53.2667 41.4744 54.4252 40.2852C56.5866 38.0717 58.2315 35.413 60.0463 32.9076C65.2571 25.7158 71.2375 19.0043 75.2971 11.1053C75.2707 11.1556 74.5924 11.0109 74.5145 10.9974C74.2452 10.9483 73.9772 10.8888 73.7123 10.8183C72.1374 10.3957 70.6865 9.60272 69.4804 8.50549C69.3099 8.35032 69.1265 8.0915 68.8744 8.0823C68.642 8.07371 68.4592 8.27365 68.3261 8.43986C67.9409 8.9207 67.6232 9.47269 67.2798 9.9842C66.5675 11.0428 65.8542 12.1008 65.1399 13.1581C63.7121 15.2728 62.2894 17.3912 60.8718 19.5133C59.4542 21.6354 58.0616 23.7724 56.6939 25.9243C55.3225 28.0779 53.989 30.2527 52.6932 32.4488C52.5362 32.7162 52.3802 32.9832 52.2253 33.2498Z" fill="#007EEF"/>
<path d="M75.8981 8.95445L77.9055 10.3307C78.0489 10.4345 78.1685 10.5677 78.2563 10.7214C78.6028 11.2943 77.754 12.3817 77.6393 12.5565C74.1814 17.8151 70.8805 21.9126 67.2417 27.0308C65.7017 29.1964 67.1675 28.7107 68.1924 27.4724C72.0967 22.7541 75.9938 17.3569 79.6332 12.1094C80.0975 11.4408 80.2085 10.489 79.4455 9.7947C78.5427 8.97285 77.5964 8.33684 76.6463 7.56958C76.3439 7.78566 76.0876 8.06001 75.8927 8.37651C75.6977 8.693 75.568 9.04526 75.5111 9.4126L75.8981 8.95445Z" fill="#162B43"/>
<path d="M69.8876 17.2692C69.8542 17.2696 69.8211 17.2627 69.7907 17.2489C69.731 17.2232 69.684 17.1748 69.66 17.1144C69.636 17.0541 69.6369 16.9867 69.6625 16.9269C70.1043 15.9016 70.6819 14.9403 71.3798 14.0689C71.3996 14.0427 71.4244 14.0207 71.4529 14.0042C71.4813 13.9878 71.5128 13.9773 71.5454 13.9732C71.578 13.9691 71.6111 13.9716 71.6427 13.9806C71.6743 13.9896 71.7038 14.0048 71.7294 14.0253C71.7546 14.046 71.7754 14.0714 71.7907 14.1002C71.8062 14.1291 71.8158 14.1608 71.8189 14.1934C71.8219 14.2261 71.8184 14.259 71.8085 14.2903C71.7988 14.3217 71.7827 14.3507 71.7613 14.3755C71.0904 15.2126 70.5349 16.1359 70.1096 17.1208C70.0908 17.1646 70.0597 17.2021 70.0201 17.2287C69.9804 17.2549 69.9339 17.2689 69.8864 17.2692H69.8876Z" fill="#162B43"/>
<path d="M68.0439 20.0426C68.0035 20.043 67.9636 20.0331 67.928 20.0138C67.8925 19.9949 67.8622 19.9675 67.8397 19.9341C67.8172 19.9005 67.8033 19.862 67.7992 19.8218C67.7955 19.7815 67.8016 19.7409 67.817 19.7034C67.987 19.2905 68.2246 18.9087 68.5199 18.5737C68.5408 18.5483 68.5667 18.5274 68.5959 18.5124C68.625 18.4977 68.6567 18.4889 68.6892 18.4866C68.7215 18.4842 68.7541 18.4884 68.7848 18.4989C68.8157 18.5093 68.8442 18.5258 68.8686 18.5474C68.8931 18.569 68.913 18.5953 68.9271 18.6246C68.9484 18.6687 68.9561 18.7181 68.9491 18.7665C68.9421 18.8149 68.9208 18.8601 68.8879 18.8963C68.6287 19.1916 68.4202 19.5277 68.2709 19.8911C68.252 19.9357 68.2205 19.9736 68.1801 20.0003C68.1401 20.0279 68.0926 20.0426 68.0439 20.0426Z" fill="#162B43"/>
<path d="M64.8553 24.6553C64.8117 24.6552 64.769 24.6435 64.7315 24.6214C64.694 24.5993 64.663 24.5676 64.6417 24.5296C64.6205 24.4916 64.6098 24.4486 64.6107 24.405C64.6116 24.3615 64.624 24.319 64.6468 24.2818C65.2688 23.2702 65.9412 22.2906 66.6615 21.3465C66.6811 21.3208 66.7055 21.2993 66.7334 21.2831C66.7613 21.267 66.7921 21.2564 66.824 21.2522C66.856 21.2479 66.8885 21.25 66.9196 21.2583C66.9508 21.2665 66.98 21.2809 67.0056 21.3005C67.057 21.3403 67.0909 21.3986 67.1001 21.463C67.1046 21.4954 67.1027 21.5283 67.0944 21.5599C67.0861 21.5915 67.0715 21.6211 67.0516 21.647C66.3414 22.5777 65.6784 23.5435 65.0651 24.5406C65.0431 24.5767 65.0123 24.6065 64.9755 24.6271C64.938 24.6479 64.8957 24.6585 64.8529 24.6578L64.8553 24.6553Z" fill="#162B43"/>
<path d="M62.6038 27.4368C62.5607 27.4365 62.5184 27.4249 62.4812 27.403C62.4434 27.3808 62.4123 27.3488 62.391 27.3104C62.3698 27.2721 62.3593 27.2288 62.3604 27.185C62.3616 27.1412 62.3745 27.0985 62.3978 27.0614L62.9314 26.2028C62.948 26.1753 62.9702 26.1515 62.9964 26.1328C63.0227 26.1137 63.0525 26.1 63.0841 26.0924C63.1156 26.085 63.1484 26.0839 63.1804 26.0893C63.2122 26.0944 63.2427 26.1058 63.2699 26.123C63.2974 26.1401 63.3213 26.1624 63.3401 26.1887C63.359 26.215 63.3724 26.2448 63.3797 26.2764C63.3858 26.3082 63.3858 26.3409 63.3797 26.3727C63.3742 26.4045 63.3626 26.4349 63.3453 26.4622L62.8118 27.3208C62.7897 27.3563 62.759 27.3856 62.7225 27.4059C62.686 27.4261 62.645 27.4368 62.6032 27.4368H62.6038Z" fill="#162B43"/>
<path d="M72.0213 4.06931C71.2697 4.66263 70.595 5.34725 70.0127 6.10737C69.9116 6.22379 69.8386 6.36185 69.7993 6.51093C69.7379 6.87402 70.0667 7.17516 70.369 7.38614C71.9303 8.47423 73.6563 9.30441 75.481 9.84493C75.6331 9.8897 75.7938 9.93325 75.9478 9.89645C76.0831 9.85429 76.2062 9.78001 76.3066 9.67995C76.9088 9.15924 77.432 8.52078 77.6976 7.76946C77.9631 7.01815 77.9429 6.14417 77.5301 5.46338C77.1554 4.84516 76.4961 4.44344 75.8227 4.17051C74.9143 3.80252 73.9079 3.62588 72.9456 3.81295C71.9833 4.00001 71.0756 4.58573 70.6309 5.45848L72.0213 4.06931Z" fill="#007EEF"/>
<path d="M69.7704 8.86118C69.7267 8.86109 69.6839 8.84933 69.6462 8.82712C69.6086 8.80491 69.5776 8.77305 69.5564 8.73484C69.5356 8.69733 69.5251 8.65504 69.5257 8.61217C69.5271 8.56869 69.54 8.52636 69.5631 8.48951L70.2654 7.36959C70.2821 7.34111 70.3042 7.31612 70.3304 7.29599C70.3567 7.27609 70.3867 7.2617 70.4187 7.25367C70.4508 7.24582 70.4842 7.24436 70.5169 7.24938C70.5494 7.25491 70.5806 7.26657 70.6088 7.28373C70.6366 7.30151 70.6606 7.32465 70.6794 7.3518C70.6985 7.37881 70.7118 7.40947 70.7186 7.44186C70.7254 7.47426 70.7254 7.5077 70.7186 7.54009C70.712 7.57236 70.6991 7.60299 70.6806 7.63025L69.9796 8.74649C69.9575 8.78164 69.9268 8.81061 69.8904 8.83067C69.8541 8.85073 69.8132 8.86122 69.7717 8.86118H69.7704Z" fill="#162B43"/>
<path d="M74.1581 10.7331C74.1087 10.7328 74.0606 10.7175 74.02 10.6894C73.9794 10.6613 73.9482 10.6216 73.9306 10.5755C73.9074 10.5146 73.9094 10.4471 73.9361 10.3878C74.0649 10.0994 74.2472 9.83801 74.4733 9.61745C74.4961 9.59415 74.5235 9.57578 74.5537 9.56348C74.5838 9.55083 74.6161 9.54431 74.6488 9.54431C74.6814 9.54431 74.7137 9.55083 74.7438 9.56348C74.774 9.57614 74.8013 9.5947 74.8242 9.61806C74.8469 9.6414 74.8647 9.66916 74.8763 9.69964C74.8883 9.73002 74.8941 9.76248 74.8933 9.79513C74.8926 9.82778 74.8853 9.85995 74.872 9.88976C74.8586 9.91942 74.8394 9.9461 74.8156 9.96827C74.6346 10.1453 74.4889 10.3551 74.3863 10.5865C74.3668 10.6305 74.3348 10.6678 74.2943 10.6938C74.2538 10.7203 74.2064 10.734 74.1581 10.7331Z" fill="#162B43"/>
<path d="M75.6675 10.1111C75.5864 10.1111 75.5055 10.1019 75.4265 10.0835C75.3791 10.0728 75.3359 10.0482 75.3025 10.013C75.2691 9.9777 75.2469 9.93331 75.2388 9.88542C75.2327 9.85382 75.2327 9.82134 75.2388 9.78974C75.2457 9.75831 75.2591 9.72866 75.278 9.70265C75.2964 9.67628 75.32 9.65395 75.3473 9.63702C75.3746 9.6198 75.4051 9.60812 75.4369 9.60268C75.4685 9.59654 75.501 9.59654 75.5326 9.60268C75.7166 9.645 75.911 9.59654 76.1195 9.45425C76.9561 8.88326 77.662 7.05373 77.7338 6.57718C77.7626 6.38521 77.7816 6.18404 77.7258 6.01845C77.6577 5.8136 77.4805 5.65046 77.2351 5.46155C76.4316 4.8549 75.5352 4.38226 74.5807 4.06196C74.1771 3.92703 73.6484 3.77922 73.1314 3.83565C72.0207 3.95831 71.1762 4.96354 70.4721 5.89701C70.3286 6.08652 70.2182 6.24476 70.2053 6.40974C70.1869 6.64648 70.3733 6.9004 70.7769 7.17946C71.3975 7.61239 72.0622 7.97853 72.7597 8.27178C72.7903 8.28382 72.8182 8.30174 72.8419 8.32452C72.8777 8.35882 72.9022 8.40313 72.9122 8.45163C72.9223 8.50012 72.9175 8.55053 72.8984 8.59622C72.8858 8.62675 72.867 8.65433 72.8432 8.67718C72.8196 8.70009 72.7916 8.71803 72.761 8.72993C72.7304 8.74213 72.6976 8.74778 72.6647 8.74649C72.6318 8.74537 72.5995 8.73766 72.5696 8.72379C71.84 8.41754 71.1449 8.03473 70.496 7.58179C70.2905 7.43828 69.6668 7.00282 69.7158 6.3711C69.741 6.05095 69.9373 5.79091 70.0802 5.60139C70.8462 4.58574 71.7729 3.49096 73.0781 3.34806C73.6914 3.28121 74.2857 3.44619 74.734 3.59707C75.7392 3.93326 76.6831 4.43038 77.5289 5.06903C77.8049 5.27756 78.0766 5.51798 78.1913 5.86205C78.2796 6.12578 78.2569 6.39564 78.2189 6.64832C78.1514 7.09727 77.4277 9.15434 76.3961 9.85843C76.1836 10.0148 75.9282 10.1022 75.6644 10.1087L75.6675 10.1111Z" fill="#162B43"/>
<path d="M50.6091 39.8515C50.5621 39.8517 50.516 39.838 50.4767 39.8123C50.1926 39.6302 49.9602 39.378 49.802 39.08C49.7855 39.0515 49.7748 39.02 49.7707 38.9873C49.7666 38.9547 49.7691 38.9215 49.7781 38.8899C49.7872 38.8581 49.8026 38.8284 49.8235 38.8028C49.844 38.7772 49.8697 38.7563 49.8989 38.7414C49.928 38.726 49.9599 38.7166 49.9927 38.7138C50.0257 38.7107 50.0589 38.7145 50.0903 38.7249C50.1215 38.7354 50.1505 38.7518 50.1755 38.7733C50.2007 38.7952 50.2215 38.8216 50.2368 38.8512C50.3551 39.0755 50.5292 39.2656 50.7422 39.4032C50.787 39.4318 50.8212 39.4742 50.8398 39.524C50.8584 39.5738 50.8603 39.6282 50.8453 39.6792C50.8303 39.7301 50.7991 39.7748 50.7566 39.8066C50.714 39.8383 50.6622 39.8554 50.6091 39.8552V39.8515Z" fill="white"/>
<path d="M53.4464 41.4547C53.4274 41.4546 53.4084 41.4524 53.3899 41.448C52.5043 41.2364 52.1277 41.0898 51.339 40.5053C51.3115 40.4868 51.288 40.4629 51.27 40.4351C51.252 40.4073 51.2398 40.3761 51.2341 40.3434C51.2277 40.311 51.2277 40.2776 51.2341 40.2453C51.2419 40.2131 51.2561 40.1829 51.2758 40.1563C51.2957 40.1298 51.3208 40.1075 51.3494 40.0907C51.3781 40.074 51.4098 40.0631 51.4427 40.0588C51.4755 40.0545 51.5089 40.057 51.5408 40.0662C51.5725 40.0754 51.6021 40.0909 51.6279 40.1116C52.3571 40.6519 52.665 40.7733 53.4997 40.9702C53.5587 40.9836 53.6107 41.0183 53.6457 41.0677C53.6718 41.1046 53.6872 41.1479 53.6902 41.193C53.6932 41.2381 53.6837 41.2831 53.6628 41.3231C53.6419 41.3631 53.6103 41.3966 53.5716 41.4198C53.5329 41.443 53.4885 41.4551 53.4433 41.4547H53.4464Z" fill="white"/>
<path d="M0.245331 17.685C0.187798 17.685 0.132105 17.6647 0.0879868 17.6278C0.0438688 17.5909 0.0141324 17.5396 0.00397569 17.483C-0.00618105 17.4264 0.00388797 17.368 0.0324227 17.318C0.0609574 17.268 0.106142 17.2297 0.16008 17.2097C1.44049 16.7367 2.79279 16.4877 4.15769 16.4737L3.52229 14.2461C3.45053 13.9928 3.37571 13.7315 3.25182 13.5101C3.22068 13.4541 3.21276 13.388 3.22974 13.3261C3.24268 13.2791 3.26936 13.237 3.30636 13.2052C3.34337 13.1733 3.38902 13.1533 3.43748 13.1476C3.48594 13.1418 3.53501 13.1507 3.57842 13.173C3.62182 13.1953 3.65759 13.23 3.68114 13.2728C3.83324 13.5445 3.91543 13.8346 3.99577 14.1149L4.66551 16.4608C4.71335 16.627 4.68882 16.7601 4.59314 16.857C4.55401 16.8935 4.50791 16.9217 4.4576 16.9398C4.40751 16.9577 4.35426 16.965 4.3012 16.9613C2.94658 16.9568 1.60207 17.1946 0.331195 17.6635C0.304208 17.6761 0.275061 17.6834 0.245331 17.685Z" fill="#162B43"/>
<path d="M75.9214 5.57743C76.2894 5.751 76.6795 5.94542 76.9027 6.28704C77.126 6.62866 77.0984 7.16899 76.742 7.36954C76.5133 7.49773 76.2201 7.45173 75.9901 7.326C75.7601 7.20027 75.5767 7.00585 75.3854 6.82676C74.9466 6.41454 74.4509 6.06753 73.9134 5.79638C73.6301 5.65348 73.3326 5.5302 73.0836 5.33394C72.9186 5.20453 72.5138 4.82366 72.7966 4.63598C73.0419 4.47284 73.5252 4.66788 73.7742 4.73473C74.5181 4.93528 75.2253 5.25114 75.9214 5.57743Z" fill="white"/>
<path d="M47.9842 45.0071C47.9403 45.0066 47.8974 44.9942 47.8599 44.9714C47.8224 44.9486 47.7917 44.9161 47.771 44.8774C47.7504 44.8387 47.7405 44.7951 47.7424 44.7513C47.7442 44.7074 47.7579 44.6649 47.7818 44.6281L49.0041 42.7483C49.0207 42.7192 49.0431 42.6937 49.0699 42.6736C49.0967 42.6534 49.1273 42.639 49.1599 42.6312C49.1929 42.6244 49.2269 42.6244 49.2599 42.6312C49.293 42.637 49.3246 42.6496 49.3527 42.6682C49.3807 42.6867 49.4047 42.7109 49.423 42.7391C49.4414 42.7671 49.4537 42.7987 49.4592 42.8317C49.4647 42.8649 49.4635 42.8989 49.4555 42.9317C49.4475 42.9641 49.4329 42.9946 49.4126 43.0212L48.1896 44.9047C48.1669 44.9385 48.1361 44.9661 48.1001 44.9851C48.0642 45.004 48.0241 45.0137 47.9836 45.0133L47.9842 45.0071Z" fill="#162B43"/>
</g>
<defs>
<clipPath id="clip0_976_3999">
<rect width="80" height="68.4095" fill="white"/>
</clipPath>
</defs>
</svg>
