<svg width="80" height="66" viewBox="0 0 80 66" fill="none" xmlns="http://www.w3.org/2000/svg">
<g clip-path="url(#clip0_971_3941)">
<path d="M72.4681 44.494C67.8276 42.6449 63.1253 40.9537 58.4206 39.2743C56.2207 38.4887 54.0179 37.7128 51.8121 36.9468C49.5835 36.1807 47.3478 35.4288 45.101 34.7152C42.8653 34.003 40.6169 33.3326 38.3557 32.7041C36.0935 32.0783 33.8343 31.5138 31.5509 31.0141C29.2675 30.5144 26.9705 30.0842 24.6565 29.7418C22.3425 29.3995 20.029 29.1473 17.7032 29C16.6567 28.9328 15.6019 28.8627 14.5548 28.8739C13.9549 28.8809 13.3657 28.9493 12.8501 29.2793C12.17 29.7171 11.6515 30.4054 11.1294 31.0129C10.4054 31.8555 9.70084 32.7139 9.01572 33.588C7.65217 35.3298 5.1372 36.1554 2.8049 39.1412C2.88917 39.3951 4.44953 39.9343 7.51546 41.3397C7.80538 41.4729 8.10001 41.5951 8.39936 41.7062C12.612 43.2766 14.5866 46.5134 17.3603 48.8563C21.4757 52.3289 23.0172 54.086 33.4784 55.1337C37.1047 55.4967 40.2961 56.687 43.8647 57.4254C45.9595 57.8573 50.1539 61.7859 53.0831 65.3999C60.4218 59.0093 69.6119 52.2434 78.2199 47.7055C76.6106 46.1911 74.5205 45.3143 72.4681 44.494Z" fill="#007EEF"/>
<path d="M0.235718 35.0499C3.04473 34.6204 6.04408 34.2149 8.62504 35.4035C10.0811 36.0752 11.2726 37.2031 12.3893 38.3539C17.4858 43.6054 22.1186 50.0802 29.1685 52.0519C31.5008 52.7048 33.948 52.805 36.3327 53.2257C42.6608 54.3453 48.2488 57.1738 53.9175 61.7877C62.4577 55.2098 69.7687 49.5953 79.6541 45.2884C71.2524 39.6904 65.044 31.1013 56.2074 26.2181C50.2493 22.9259 43.4204 21.5175 36.6397 20.923C33.4577 20.6442 30.2592 20.5352 27.0642 20.4622C25.4656 20.4256 23.8669 20.3985 22.2688 20.3632C20.7957 20.3302 19.3131 20.2235 17.8411 20.2565C16.9301 20.2771 16.2006 20.56 15.4128 21.0007C14.2572 21.6489 13.1252 22.3337 12.0292 23.0767C9.82947 24.5685 7.77243 26.2607 5.88439 28.1314C3.98685 30.0114 2.27043 32.0658 0.757804 34.2674C0.67354 34.39 0.35357 35.0317 0.235718 35.0499Z" fill="white"/>
<path d="M14.6072 35.044C14.5742 35.0442 14.5415 35.0374 14.5112 35.0241C14.481 35.0108 14.4539 34.9913 14.4316 34.9669C14.4094 34.9424 14.3926 34.9136 14.3822 34.8822C14.3719 34.8508 14.3682 34.8176 14.3715 34.7848C14.3765 34.7418 14.3932 34.701 14.4198 34.6669C16.156 32.4402 18.291 30.5557 20.7161 29.1096C20.7428 29.0933 20.7724 29.0823 20.8033 29.0772C20.8343 29.0727 20.8659 29.0741 20.8964 29.0813C20.9266 29.089 20.955 29.1024 20.9801 29.1208C21.0054 29.1396 21.0266 29.1632 21.0426 29.1903C21.0587 29.2172 21.0691 29.2471 21.0732 29.2781C21.0774 29.309 21.0756 29.3404 21.0679 29.3706C21.0595 29.4008 21.0455 29.4292 21.0267 29.4543C21.0074 29.4784 20.9836 29.4985 20.9565 29.5132C18.5828 30.9287 16.4929 32.7732 14.7934 34.9527C14.7712 34.9807 14.743 35.0034 14.7109 35.0193C14.6787 35.0354 14.6432 35.0438 14.6072 35.044Z" fill="#162B43"/>
<path d="M18.0208 35.5219C17.9765 35.5219 17.9331 35.5094 17.8956 35.4858C17.8581 35.4622 17.828 35.4286 17.8087 35.3887C17.7892 35.3489 17.7816 35.3043 17.7869 35.2602C17.7922 35.2172 17.8093 35.1764 17.8364 35.1424C19.395 33.1913 21.3213 31.565 23.5063 30.3558C23.5611 30.3245 23.6262 30.3162 23.6872 30.3328C23.7174 30.3412 23.7457 30.3556 23.7702 30.3753C23.7947 30.3944 23.8148 30.4185 23.8292 30.446C23.8444 30.4734 23.854 30.5035 23.8575 30.5347C23.8609 30.5659 23.8581 30.5974 23.8492 30.6275C23.84 30.6574 23.8249 30.6852 23.805 30.7094C23.7853 30.7337 23.7608 30.7537 23.7331 30.7683C21.604 31.9465 19.7269 33.5311 18.2082 35.4323C18.1862 35.4602 18.1582 35.4828 18.1263 35.4983C18.0934 35.5142 18.0573 35.5223 18.0208 35.5219Z" fill="#162B43"/>
<path d="M20.3667 40.639C20.3203 40.639 20.275 40.6252 20.2364 40.5996C20.198 40.574 20.1679 40.5378 20.1498 40.4953C20.1318 40.4527 20.1267 40.4057 20.1352 40.3602C20.1437 40.3147 20.1654 40.2728 20.1976 40.2395C22.8882 37.4725 25.9717 35.1169 29.3488 33.2485C29.4037 33.2172 29.4687 33.2089 29.5297 33.2255C29.5599 33.234 29.5882 33.2484 29.6128 33.268C29.6371 33.2872 29.6572 33.3113 29.6717 33.3387C29.687 33.3662 29.6966 33.3964 29.7 33.4277C29.7035 33.4588 29.7005 33.4903 29.6912 33.5202C29.6824 33.5502 29.6675 33.578 29.6476 33.6021C29.6278 33.6264 29.6034 33.6464 29.5757 33.661C26.2397 35.5071 23.1938 37.8343 20.5358 40.5677C20.5139 40.5905 20.4877 40.6085 20.4586 40.6208C20.4295 40.633 20.3982 40.6392 20.3667 40.639Z" fill="#162B43"/>
<path d="M79.5916 40.117C70.0586 34.5308 66.292 23.25 58.1949 16.5347C47.2518 12.3203 47.2394 11.3492 43.758 0.298794C43.55 -1.0294 38.1011 2.50146 37.5855 2.43016C36.6115 2.4443 36.0169 0.951107 34.727 1.36948C29.3376 4.61042 22.7897 7.62509 17.6107 10.4488C16.8588 11.9762 12.2019 12.0852 10.4995 13.8666L9.42113 20.8481C13.6962 24.3955 16.4616 27.8763 19.8187 32.1402C25.5068 42.5748 34.575 46.7374 45.1504 49.7338C59.4442 66.5401 47.6966 59.4625 79.5916 40.117Z" fill="#DBF122"/>
<path d="M63.1689 19.778C63.1291 19.7784 63.0899 19.7685 63.0552 19.7491C63.0203 19.7301 62.9909 19.7025 62.9697 19.669C62.7915 19.4025 62.5341 19.1987 62.2339 19.0862C61.9337 18.9737 61.6057 18.9583 61.2962 19.042C61.2664 19.051 61.2352 19.0541 61.2042 19.051C61.1732 19.0479 61.1432 19.0387 61.1158 19.0239C61.0884 19.0091 61.0642 18.989 61.0446 18.9648C61.025 18.9406 61.0104 18.9128 61.0016 18.8829C60.9928 18.8532 60.9899 18.822 60.9931 18.7912C60.9964 18.7603 61.0057 18.7304 61.0205 18.7032C61.0352 18.6759 61.0552 18.6519 61.0793 18.6323C61.1033 18.6128 61.131 18.5983 61.1607 18.5894C61.9668 18.3537 62.9143 18.7073 63.3657 19.4144C63.3886 19.4501 63.4014 19.4912 63.4028 19.5335C63.4043 19.5758 63.3943 19.6177 63.374 19.6548C63.3536 19.6917 63.3237 19.7224 63.2874 19.7438C63.2517 19.765 63.211 19.7764 63.1695 19.7768L63.1689 19.778Z" fill="white"/>
<path d="M26.4149 15.3173C26.1925 15.3209 25.9718 15.2783 25.7667 15.1924C25.6309 15.1369 25.509 15.0523 25.4095 14.9446C25.3101 14.8369 25.2354 14.7086 25.191 14.5689C25.1817 14.5394 25.1783 14.5084 25.1809 14.4776C25.1837 14.4467 25.1925 14.4167 25.2069 14.3892C25.2215 14.3617 25.2416 14.3375 25.2658 14.3179C25.2896 14.2979 25.317 14.2827 25.3465 14.2731C25.3761 14.2642 25.4071 14.2608 25.4379 14.2631C25.4687 14.2659 25.4987 14.2747 25.5263 14.289C25.554 14.3035 25.5785 14.3236 25.5981 14.3479C25.618 14.3715 25.6331 14.3987 25.6423 14.4281C25.6668 14.5038 25.7079 14.573 25.7625 14.6308C25.8172 14.6886 25.884 14.7335 25.9582 14.7622C26.2587 14.8942 26.7207 14.8683 27.0819 14.6997C27.568 14.4729 27.9882 14.0197 28.152 13.5448C28.2298 13.3197 28.2864 12.9803 28.1155 12.6432C28.0898 12.593 28.083 12.5352 28.0963 12.4804C28.1096 12.4256 28.1421 12.3773 28.1879 12.3445C28.2337 12.3116 28.2897 12.2962 28.3458 12.3011C28.4019 12.306 28.4544 12.3308 28.4938 12.371C28.9528 12.8377 29.7542 12.942 30.3205 12.6067C30.8868 12.2714 31.1779 11.5201 30.9893 10.8931C30.975 10.8468 30.9753 10.7973 30.9902 10.7512C31.0051 10.7052 31.0338 10.6648 31.0724 10.6356C31.111 10.6063 31.1577 10.5896 31.2062 10.5879C31.2545 10.5863 31.3022 10.5994 31.3429 10.6256C32.2026 11.1636 33.3004 10.9491 34.0417 10.5667C34.9256 10.1135 35.6262 9.36515 36.3039 8.64153C36.3251 8.61904 36.3505 8.60084 36.3787 8.58791C36.407 8.57552 36.4374 8.56852 36.4683 8.56729C36.4992 8.56619 36.53 8.5712 36.559 8.58202C36.588 8.59324 36.6146 8.60984 36.6374 8.63093C36.6599 8.65221 36.6781 8.67762 36.691 8.70576C36.7034 8.73406 36.7104 8.76444 36.7116 8.79533C36.7129 8.82625 36.7078 8.8571 36.6969 8.88605C36.686 8.915 36.6693 8.94146 36.648 8.96386C35.9756 9.68158 35.2131 10.4959 34.2568 10.9862C33.5161 11.3663 32.4577 11.5973 31.5202 11.2361C31.5403 11.939 31.1755 12.6503 30.5627 13.0097C30.0017 13.3421 29.2863 13.3527 28.7036 13.0787C28.7066 13.2883 28.6722 13.4968 28.6022 13.6945C28.3954 14.2931 27.8916 14.84 27.2864 15.1228C27.0136 15.2505 26.7161 15.3169 26.4149 15.3173Z" fill="#007EEF"/>
<path d="M28.1585 19.7044C28.1065 19.7049 28.0559 19.6879 28.0147 19.6561C27.9735 19.6245 27.9439 19.5801 27.9305 19.53C27.917 19.4798 27.9205 19.4265 27.9405 19.3785C27.9603 19.3304 27.9955 19.2902 28.0406 19.2642C31.4718 17.2926 35.0387 15.5674 38.7145 14.1017C38.7435 14.0904 38.7742 14.0846 38.8053 14.0846C38.8363 14.0852 38.8668 14.0916 38.8954 14.1035C38.9239 14.1156 38.9498 14.1332 38.9715 14.1553C38.9931 14.1776 39.0102 14.2038 39.0221 14.2325C39.0339 14.2613 39.0397 14.2922 39.0392 14.3232C39.0385 14.386 39.0131 14.4459 38.9685 14.49C38.9464 14.5117 38.9202 14.5288 38.8913 14.5401C35.2374 15.9974 31.6918 17.7125 28.2811 19.6726C28.244 19.6944 28.2015 19.7054 28.1585 19.7044Z" fill="#007EEF"/>
<path d="M32.205 19.6095C32.1534 19.6093 32.1033 19.5921 32.0624 19.5606C32.0215 19.5291 31.9921 19.485 31.9787 19.4351C31.9655 19.3853 31.9688 19.3326 31.9881 19.2849C32.0081 19.2372 32.0428 19.1972 32.0871 19.1705C33.8172 18.1654 35.6148 17.2814 37.4671 16.5248C37.5245 16.504 37.5877 16.5064 37.6435 16.5313C37.6992 16.5563 37.743 16.6019 37.7658 16.6585C37.7885 16.715 37.7885 16.778 37.7658 16.8345C37.743 16.891 37.6993 16.9364 37.6438 16.9614C35.8119 17.7092 34.0341 18.5835 32.3234 19.5777C32.2875 19.5988 32.2466 19.6098 32.205 19.6095Z" fill="#007EEF"/>
<path d="M33.1325 24.6612C33.0809 24.6613 33.0307 24.6444 32.9896 24.6132C32.9485 24.5821 32.9188 24.5383 32.905 24.4886C32.8911 24.439 32.8938 24.3862 32.9127 24.3383C32.932 24.2904 32.9663 24.2501 33.0105 24.2234C35.0257 23.0096 37.1372 21.9634 39.3238 21.0956C39.3528 21.0843 39.3835 21.0785 39.4146 21.0785C39.4455 21.0791 39.4761 21.0855 39.5047 21.0973C39.5332 21.1095 39.5591 21.1271 39.5807 21.1492C39.6023 21.1715 39.6195 21.1977 39.6314 21.2264C39.6433 21.2552 39.6491 21.286 39.6485 21.3171C39.6478 21.3799 39.6224 21.4398 39.5778 21.4839C39.5557 21.5056 39.5295 21.5227 39.5006 21.534C37.3373 22.3926 35.2482 23.4275 33.2544 24.6282C33.2175 24.6501 33.1754 24.6615 33.1325 24.6612Z" fill="#007EEF"/>
<path d="M33.8113 27.7973C33.7586 27.7982 33.7071 27.7814 33.6651 27.7496C33.6338 27.7259 33.6089 27.6948 33.5927 27.659C33.5765 27.6232 33.5695 27.584 33.5723 27.5448C33.5751 27.5057 33.5877 27.4678 33.6088 27.4347C33.63 27.4017 33.6591 27.3744 33.6934 27.3554C37.3215 25.3407 41.0997 23.609 44.9943 22.1758C45.0381 22.1598 45.0856 22.1572 45.1308 22.1682C45.1761 22.1792 45.2171 22.2034 45.2486 22.2377C45.2801 22.272 45.3008 22.3149 45.308 22.3609C45.3151 22.4069 45.3085 22.4541 45.2889 22.4963C45.2626 22.5529 45.2149 22.5968 45.1563 22.6183C41.2852 24.043 37.5299 25.7645 33.9238 27.7673C33.8894 27.7866 33.8507 27.7969 33.8113 27.7973Z" fill="#007EEF"/>
<path d="M33.9574 31.1285C33.9061 31.1286 33.8561 31.112 33.815 31.0812C33.7739 31.0503 33.7441 31.0069 33.73 30.9576C33.716 30.9082 33.7185 30.8557 33.737 30.8079C33.755 30.7592 33.7886 30.7177 33.8325 30.69C36.6792 28.9158 40.193 27.2511 43.913 25.4886C45.9489 24.5234 48.0543 23.5264 50.046 22.5064C50.0737 22.4923 50.1038 22.4837 50.1348 22.4813C50.1657 22.4789 50.1968 22.4826 50.2264 22.4922C50.2559 22.5019 50.2832 22.5172 50.3068 22.5375C50.3303 22.5577 50.3497 22.5824 50.3637 22.6101C50.3919 22.666 50.3972 22.7307 50.3784 22.7904C50.3688 22.8199 50.3534 22.8472 50.3332 22.8708C50.3129 22.8944 50.2883 22.9137 50.2605 22.9277C48.2623 23.9501 46.1534 24.9494 44.1145 25.9158C40.4069 27.6724 36.9049 29.3336 34.0812 31.0913C34.0443 31.1152 34.0014 31.1281 33.9574 31.1285Z" fill="#007EEF"/>
<path d="M39.8624 31.997C39.8236 31.9971 39.7853 31.9876 39.751 31.9693C39.7167 31.951 39.6875 31.9245 39.6659 31.8922C39.6443 31.8599 39.6311 31.8228 39.6273 31.7841C39.6236 31.7454 39.6294 31.7064 39.6444 31.6706C39.6644 31.6227 39.6996 31.5827 39.7446 31.5568C43.1746 29.5852 46.7406 27.86 50.4155 26.3943C50.4443 26.3825 50.4752 26.3767 50.5063 26.3772C50.569 26.378 50.6289 26.4034 50.673 26.4479C50.6946 26.4701 50.7116 26.4964 50.7231 26.5251C50.7349 26.5537 50.7408 26.5844 50.7402 26.6153C50.74 26.6464 50.7336 26.6771 50.7215 26.7057C50.7094 26.7344 50.6917 26.7603 50.6695 26.7821C50.6473 26.8039 50.6211 26.8211 50.5923 26.8327C46.9382 28.2895 43.3925 30.0047 39.982 31.9652C39.9456 31.986 39.9044 31.997 39.8624 31.997Z" fill="#007EEF"/>
<path d="M43.9089 31.8992C43.857 31.8987 43.8066 31.8812 43.7657 31.8492C43.7248 31.8172 43.6956 31.7727 43.6826 31.7224C43.6693 31.6726 43.6727 31.6198 43.6923 31.5721C43.7119 31.5244 43.7466 31.4845 43.791 31.4584C45.521 30.453 47.3186 29.569 49.171 28.8126C49.1994 28.802 49.2297 28.7971 49.26 28.7983C49.2904 28.7994 49.3202 28.8064 49.3478 28.8191C49.3893 28.8377 49.4245 28.8679 49.4492 28.906C49.4739 28.9442 49.4871 28.9887 49.4871 29.0342C49.4871 29.0796 49.4739 29.1241 49.4492 29.1623C49.4245 29.2004 49.3893 29.2306 49.3478 29.2492C47.5157 29.9969 45.7379 30.8711 44.0273 31.8656C43.9915 31.8871 43.9506 31.8987 43.9089 31.8992Z" fill="#007EEF"/>
<path d="M44.8364 36.9503C44.7978 36.9504 44.7598 36.9411 44.7257 36.9231C44.6916 36.9051 44.6624 36.8791 44.6407 36.8472C44.619 36.8153 44.6055 36.7786 44.6013 36.7403C44.5971 36.7019 44.6023 36.6632 44.6166 36.6274C44.6354 36.5784 44.6698 36.537 44.7144 36.5095C46.7305 35.2968 48.8428 34.2518 51.0301 33.3852C51.0589 33.3735 51.0897 33.3675 51.1209 33.3676C51.1518 33.3681 51.1824 33.3745 51.211 33.3864C51.2398 33.3986 51.2658 33.4165 51.2876 33.4389C51.3092 33.461 51.3262 33.4873 51.3377 33.516C51.3495 33.5446 51.3554 33.5753 51.3548 33.6062C51.3546 33.6373 51.3482 33.668 51.3361 33.6966C51.324 33.7253 51.3063 33.7512 51.2841 33.773C51.2619 33.7948 51.2357 33.812 51.2069 33.8236C49.0435 34.6818 46.9544 35.7165 44.9607 36.9173C44.9231 36.9396 44.8801 36.951 44.8364 36.9503Z" fill="#007EEF"/>
<path d="M45.5152 40.0864C45.4626 40.0872 45.4113 40.0704 45.3693 40.0387C45.3274 40.007 45.2972 39.9622 45.2837 39.9114C45.2701 39.8606 45.2739 39.8067 45.2945 39.7583C45.3151 39.71 45.3513 39.6699 45.3974 39.6444C49.0253 37.6296 52.8035 35.8981 56.6982 34.4654C56.7273 34.4547 56.7581 34.4498 56.7891 34.451C56.82 34.4522 56.8504 34.4595 56.8785 34.4725C56.9351 34.499 56.9791 34.5465 57.0011 34.605C57.0229 34.6634 57.0207 34.7281 56.995 34.7848C56.9692 34.8416 56.9221 34.8858 56.8638 34.9079C52.9924 36.3322 49.2369 38.0534 45.6307 40.0563C45.5954 40.0761 45.5556 40.0864 45.5152 40.0864Z" fill="#007EEF"/>
<path d="M45.6613 43.4174C45.623 43.4175 45.5853 43.4082 45.5513 43.3904C45.5174 43.3726 45.4883 43.3468 45.4666 43.3153C45.4449 43.2837 45.4312 43.2473 45.4268 43.2092C45.4223 43.1712 45.4272 43.1326 45.441 43.0969C45.4589 43.0481 45.4925 43.0067 45.5364 42.979C48.3831 41.2047 51.8969 39.5401 55.6169 37.7776C57.6528 36.8124 59.7583 35.8154 61.75 34.7959C61.7775 34.7818 61.8076 34.7732 61.8385 34.7707C61.8694 34.7682 61.9005 34.7718 61.93 34.7813C61.9595 34.7908 61.9869 34.8061 62.0105 34.8262C62.0341 34.8463 62.0535 34.8708 62.0676 34.8985C62.0817 34.926 62.0903 34.9561 62.0928 34.987C62.0953 35.0179 62.0917 35.049 62.0822 35.0785C62.0727 35.108 62.0574 35.1354 62.0373 35.159C62.0172 35.1826 61.9927 35.202 61.965 35.2161C59.9669 36.2379 57.8579 37.2372 55.819 38.2036C52.1114 39.9602 48.6094 41.6213 45.7857 43.3791C45.7487 43.4035 45.7056 43.4168 45.6613 43.4174Z" fill="#007EEF"/>
<path d="M8.62269 35.6404C8.58848 35.6405 8.55467 35.6331 8.52369 35.6185C5.92092 34.4188 2.78781 34.8979 0.269895 35.2827C0.214394 35.2909 0.157794 35.279 0.11027 35.2492C0.0627446 35.2193 0.0274111 35.1736 0.0106196 35.12C-0.006145 35.0661 -0.00300858 35.008 0.0194586 34.9562C0.0424065 34.9048 0.0826524 34.8631 0.133186 34.8384C0.206844 34.7588 0.368891 34.4701 0.44137 34.3434C0.500296 34.2385 0.535652 34.1772 0.559223 34.1389C2.08089 31.9247 3.80737 29.8585 5.71586 27.9676L6.05174 27.6364C7.68694 26.0136 8.43353 25.2729 10.516 23.861C10.5416 23.8433 10.5704 23.8307 10.6008 23.8239C10.6316 23.818 10.6632 23.818 10.6939 23.8239C10.7246 23.8296 10.7539 23.8415 10.78 23.8586C10.8063 23.8756 10.8289 23.8977 10.8466 23.9235C10.8641 23.9493 10.8763 23.9783 10.8825 24.0089C10.8884 24.0397 10.8884 24.0713 10.8825 24.102C10.8765 24.1326 10.8643 24.1617 10.8466 24.1875C10.8291 24.2134 10.8067 24.2357 10.7806 24.2529C8.73406 25.64 8.0458 26.3229 6.38408 27.9729L6.05174 28.304C4.16368 30.1733 2.45537 32.2159 0.949314 34.4047C0.933404 34.4282 0.890388 34.5025 0.850907 34.5744C0.819087 34.6333 0.791981 34.6828 0.76134 34.7311C3.23624 34.3611 6.18255 34.024 8.72109 35.1907C8.76972 35.2133 8.80921 35.2517 8.83305 35.2998C8.85689 35.3478 8.86364 35.4025 8.85217 35.4549C8.84071 35.5073 8.81172 35.5542 8.77 35.5879C8.72844 35.6219 8.67638 35.6404 8.62269 35.6404Z" fill="#162B43"/>
<path d="M73.5989 48.4827C73.5488 48.4827 73.5001 48.4667 73.4597 48.4371C73.4193 48.4075 73.3894 48.3659 73.3743 48.3181C73.3592 48.2704 73.3597 48.2191 73.3757 48.1717C73.3917 48.1243 73.4224 48.0832 73.4633 48.0543C74.4745 47.3431 77.6435 45.7327 79.1921 45.0285C78.2776 44.5854 77.4064 44.0578 76.5899 43.4528C76.5397 43.4155 76.5063 43.3598 76.4971 43.2979C76.488 43.2361 76.5038 43.1731 76.541 43.1228C76.5783 43.0726 76.634 43.0392 76.6959 43.03C76.7578 43.0208 76.8208 43.0366 76.871 43.0739C77.8007 43.7632 78.8031 44.3485 79.8604 44.8193C79.9027 44.838 79.9385 44.8687 79.9635 44.9077C79.982 44.9367 79.994 44.9695 79.9985 45.0036C80.0031 45.0378 80.0001 45.0725 79.9897 45.1054C79.9794 45.1382 79.962 45.1684 79.9387 45.1938C79.9154 45.2192 79.8869 45.2392 79.8551 45.2524C78.6329 45.7609 74.8463 47.6584 73.7344 48.4397C73.6948 48.4679 73.6474 48.483 73.5989 48.4827Z" fill="#162B43"/>
<path d="M71.5052 49.8045C71.4602 49.8041 71.4163 49.7908 71.3786 49.7663C71.3409 49.7418 71.311 49.707 71.2925 49.666C71.2736 49.6251 71.2671 49.5797 71.2736 49.5352C71.2805 49.4915 71.2995 49.4507 71.3284 49.4173C71.4451 49.2833 71.592 49.179 71.757 49.113C71.9219 49.047 72.1002 49.0213 72.2771 49.0378C72.3396 49.0444 72.3971 49.0751 72.4374 49.1233C72.4561 49.1473 72.4702 49.1744 72.4792 49.2034C72.488 49.2332 72.491 49.2644 72.4881 49.2953C72.4853 49.3263 72.4763 49.3564 72.4616 49.3837C72.4396 49.4252 72.4058 49.4592 72.3645 49.4813C72.3231 49.5035 72.2761 49.5128 72.2294 49.5081C72.1278 49.4996 72.0256 49.5149 71.9309 49.5527C71.8362 49.5906 71.7516 49.6499 71.6837 49.7261C71.6612 49.7513 71.6335 49.7714 71.6024 49.785C71.5718 49.7983 71.5386 49.805 71.5052 49.8045Z" fill="#162B43"/>
<path d="M9.42172 21.082C9.38313 21.0821 9.34512 21.0727 9.31102 21.0546C9.27692 21.0366 9.24777 21.0105 9.22612 20.9785C9.20448 20.9466 9.19101 20.9098 9.18689 20.8714C9.18278 20.8331 9.18814 20.7943 9.20251 20.7585C9.22209 20.7106 9.2566 20.6703 9.30092 20.6436C10.9762 19.6507 11.8677 19.1704 13.4882 18.4822C12.2042 16.9118 11.2962 15.692 10.2944 13.9855C10.2667 13.9452 10.2522 13.8973 10.253 13.8484C10.2537 13.7996 10.2696 13.7521 10.2985 13.7127C10.3178 13.6863 10.3422 13.6643 10.3704 13.6479C10.3985 13.6316 10.4297 13.6214 10.4619 13.6177C10.4942 13.6141 10.5268 13.6171 10.5578 13.6267C10.589 13.6361 10.6179 13.652 10.6427 13.6732C10.6672 13.6946 10.6872 13.7207 10.7016 13.7498C11.7352 15.5176 12.6762 16.755 14.0515 18.4286C14.0749 18.4571 14.0914 18.4905 14.0999 18.5264C14.1081 18.5624 14.1077 18.5998 14.0988 18.6356C14.0899 18.6714 14.0727 18.7047 14.0486 18.7326C14.0245 18.7604 13.9942 18.7822 13.9602 18.7963C12.1759 19.5411 11.292 20.0125 9.54075 21.0508C9.50473 21.072 9.46352 21.0828 9.42172 21.082Z" fill="#007EEF"/>
</g>
<defs>
<clipPath id="clip0_971_3941">
<rect width="80" height="65.3998" fill="white"/>
</clipPath>
</defs>
</svg>
