<svg width="75" height="80" viewBox="0 0 75 80" fill="none" xmlns="http://www.w3.org/2000/svg">
<g clip-path="url(#clip0_971_3908)">
<path d="M61.8979 2.66191C61.6671 1.75605 61.3663 0.756612 60.558 0.287144C59.9183 -0.0806874 59.127 -0.0185756 58.3906 0.0596692C39.1948 2.10695 20.3439 6.62442 2.30521 13.5C1.44371 13.834 0.487839 14.2494 0.141787 15.1085C-0.0719741 15.6401 -0.00502245 16.2378 0.085322 16.8024C0.625775 20.1815 1.88092 23.4 3.16349 26.5725C10.1119 43.763 18.0953 60.513 26.0723 77.2501C26.4377 78.0172 26.8257 78.8134 27.496 79.3353C28.7987 80.3493 30.6621 80.0056 32.2617 79.5967C35.7394 78.7088 39.1977 77.75 42.6367 76.7202C46.0973 75.6844 49.5349 74.5793 52.9497 73.4048C56.3538 72.232 59.7325 70.9895 63.086 69.6773C64.7676 69.0191 66.4422 68.3439 68.1098 67.6518C69.4811 67.0823 70.9041 66.5604 72.2141 65.8578C73.028 65.4214 73.7612 64.8415 74.0024 63.9098C74.3501 62.5659 73.8636 61.0059 73.6523 59.6741C73.0699 56.0135 72.4558 52.3567 71.8099 48.7037C71.1641 45.0507 70.4857 41.407 69.7748 37.7728C69.0708 34.1553 68.3354 30.545 67.5686 26.942C66.7958 23.3158 65.9919 19.6983 65.1567 16.0894C64.3216 12.4804 63.4547 8.87739 62.5561 5.28029C62.3383 4.40696 62.1189 3.53417 61.8979 2.66191Z" fill="#007EEF"/>
<path d="M12.2658 27.8148C11.489 27.8148 10.7413 27.6228 10.1282 27.038C9.43613 26.3765 9.08846 25.4295 8.78194 24.5946C8.71014 24.3986 8.64239 24.2131 8.57059 24.03L6.92907 19.8733C6.5322 18.8691 6.23777 17.8196 6.7629 16.95C7.0904 16.408 7.67764 15.9893 8.41572 15.7715C10.3468 15.202 12.2344 14.6422 14.0622 14.0929C23.4016 11.3019 31.4681 8.89165 40.5743 7.11218L53.112 4.66078C54.1607 4.4559 55.2367 4.3591 55.9821 5.03991C56.4209 5.44323 56.6072 6.00788 56.7573 6.46364C57.1751 7.73492 57.3638 8.96425 57.547 10.146C57.6954 11.1051 57.8478 12.0965 58.1221 13.1152C58.1221 13.129 58.4794 14.5624 58.231 15.1044C57.9584 15.6981 56.1539 16.1361 55.7215 16.2128C52.1263 16.8508 49.6451 17.5607 47.0178 18.3101C45.1109 18.8562 43.1386 19.4208 40.6808 19.9645C40.658 19.9693 40.6347 19.9718 40.6114 19.9717C40.4103 19.9888 40.2121 20.0314 40.0218 20.0984C39.9161 20.1307 39.8064 20.1629 39.6991 20.1871C37.2969 20.7518 34.7648 21.4471 31.4882 22.4498C30.1387 22.8628 28.7852 23.2346 27.4768 23.5944C26.1297 23.9646 24.7342 24.3478 23.3516 24.7745C22.4715 25.0456 21.5665 25.3392 20.6897 25.6304C18.8602 26.2305 16.9686 26.8516 15.1028 27.305C14.9754 27.3356 14.8431 27.3695 14.7084 27.4034C13.9469 27.5978 13.0902 27.8148 12.2658 27.8148ZM54.3954 5.15526C54.0036 5.16474 53.6136 5.21119 53.2306 5.294L40.6929 7.74379C31.6205 9.51841 23.567 11.9246 14.2437 14.7108C12.4175 15.2561 10.5332 15.8207 8.59721 16.3902C8.25923 16.4903 7.64295 16.7387 7.31384 17.284C6.91052 17.9446 7.21462 18.8441 7.5276 19.6362L9.16993 23.7961C9.24495 23.984 9.31755 24.1816 9.38692 24.3728C9.68296 25.1795 9.98949 26.0143 10.5735 26.5717C11.5786 27.5316 13.2258 27.1154 14.5495 26.7807C14.6866 26.746 14.8205 26.7121 14.9528 26.6814C16.7936 26.2337 18.6722 25.6167 20.4896 25.0205C21.368 24.7318 22.2771 24.4333 23.1628 24.1607C24.5567 23.7315 25.9546 23.3468 27.3066 22.9757C28.6109 22.6167 29.9588 22.2457 31.3003 21.8359C34.5898 20.8292 37.1348 20.1266 39.5515 19.562C39.637 19.5418 39.733 19.5128 39.8338 19.4813C40.0718 19.3991 40.3193 19.3476 40.5703 19.328C42.9942 18.7908 44.9471 18.2318 46.8371 17.6906C49.4805 16.9339 51.9771 16.2192 55.6054 15.5755C56.4701 15.4223 57.4961 15.0197 57.6446 14.8261C57.7252 14.6269 57.6268 13.7678 57.4961 13.2814C57.213 12.2328 57.0565 11.2188 56.9057 10.2428C56.7185 9.03442 56.5459 7.88334 56.1426 6.66288C55.9877 6.1918 55.8361 5.7796 55.5449 5.51422C55.2537 5.24883 54.8439 5.15526 54.3954 5.15526Z" fill="#162B43"/>
<path d="M17.8188 44.2607C17.5842 44.266 17.3519 44.214 17.142 44.109C16.5887 43.8251 16.07 42.6369 15.4118 40.8107C15.3311 40.5872 15.2553 40.3759 15.2295 40.3267C15.127 40.1186 15.0278 39.9032 14.931 39.6951C14.7431 39.2869 14.5479 38.865 14.3244 38.4851C14.3034 38.4496 14.2776 38.4157 14.251 38.3794C14.1486 38.2431 13.9776 38.0156 14.1187 37.6664C14.2486 37.3437 14.6148 37.1525 14.8996 37.0477L20.6913 34.9221C20.8373 34.8681 21.1801 34.7423 21.4697 34.9391C21.6123 35.0476 21.7157 35.1997 21.7641 35.3723C22.4812 37.3324 23.1104 39.3506 23.6347 41.3713C23.7815 41.9359 23.4815 42.5151 22.9515 42.6877C22.0376 42.9854 21.2809 43.2524 20.6122 43.4944C19.3014 43.9622 18.4561 44.2607 17.8188 44.2607ZM14.7132 37.9124C14.7245 37.9317 14.7487 37.9632 14.7665 37.9874C14.8074 38.0389 14.8454 38.0928 14.8802 38.1487C15.115 38.5595 15.3277 38.9825 15.5174 39.416C15.6118 39.6209 15.7094 39.8322 15.8078 40.0331C15.8482 40.1137 15.9054 40.271 16.0192 40.5872C16.2612 41.2592 16.9984 43.3048 17.4365 43.5299C17.9019 43.7719 18.8408 43.4331 20.3969 42.8781C21.068 42.6361 21.8295 42.3667 22.7515 42.0658C22.8546 42.0247 22.9385 41.9463 22.9865 41.8462C23.0345 41.746 23.043 41.6315 23.0104 41.5254C22.4909 39.5249 21.8682 37.526 21.1551 35.586C21.142 35.5456 21.1252 35.5065 21.1051 35.4691C21.0378 35.4742 20.9719 35.4914 20.9107 35.5199L15.1182 37.6454C14.8584 37.7414 14.7342 37.8503 14.7148 37.9003L14.7132 37.9124Z" fill="white"/>
<path d="M40.2516 37.238C40.1317 37.2396 40.0132 37.2119 39.9064 37.1573C39.6515 37.0226 39.5482 36.7612 39.4861 36.6048C39.0965 35.615 38.7085 34.6075 38.3351 33.6121C37.9713 32.6441 37.6704 31.8375 37.3735 30.9929C37.2283 30.5815 36.8895 29.6216 37.9559 29.2118C39.4394 28.6472 41.6036 27.8994 43.4887 27.5695C43.7517 27.5235 44.2405 27.438 44.618 27.7107C44.8705 27.893 44.985 28.1664 45.081 28.431C45.6796 30.083 46.2103 32.3029 46.4733 33.775C46.5112 33.9904 46.5693 34.3155 46.4418 34.622C46.3144 34.9285 46.0288 35.127 45.7764 35.2778C44.4857 36.053 42.8434 36.5289 41.3971 36.9492C41.1454 37.0226 40.8978 37.0944 40.6558 37.167C40.5252 37.21 40.3891 37.2339 40.2516 37.238ZM43.9622 28.164C43.8411 28.1674 43.7205 28.1809 43.6016 28.2043C41.7673 28.527 39.645 29.257 38.1882 29.8176C37.8341 29.9531 37.7502 30.1193 37.9834 30.7856C38.2786 31.6237 38.5787 32.4279 38.9408 33.3927C39.3135 34.3849 39.6991 35.3883 40.0887 36.3773C40.1143 36.457 40.1551 36.531 40.2089 36.5951C40.2484 36.6177 40.4186 36.5733 40.4719 36.5572C40.7139 36.4846 40.9647 36.412 41.218 36.3386C42.695 35.9094 44.2228 35.4658 45.4456 34.7333C45.6175 34.6301 45.7901 34.5188 45.849 34.3824C45.8998 34.2606 45.8748 34.0832 45.8409 33.8985C45.5844 32.4562 45.0625 30.2774 44.4777 28.6609C44.4131 28.4842 44.347 28.3189 44.2429 28.2439C44.1582 28.1889 44.0582 28.1623 43.9574 28.168L43.9622 28.164Z" fill="white"/>
<path d="M52.5933 33.2233C52.3843 33.2359 52.1766 33.1832 51.9988 33.0725C51.7673 32.9112 51.6762 32.6571 51.6189 32.4877C51.6078 32.4532 51.6018 32.4174 51.6012 32.3812C51.6012 32.2102 51.4681 31.9133 51.3592 31.6746C51.2987 31.5382 51.2406 31.41 51.1978 31.2922L49.9927 27.8398C49.9677 27.7664 49.9403 27.6946 49.9121 27.6252C49.737 27.1662 49.4724 26.4725 50.3404 26.0926C51.3019 25.6731 52.3191 25.3295 53.3024 24.9971C53.7864 24.8358 54.2784 24.6672 54.7544 24.4938C55.4335 24.2518 56.1361 23.9945 56.8807 23.8856C57.1299 23.8493 57.4187 23.8348 57.672 23.9993C57.9995 24.2123 58.0753 24.6132 58.1148 24.8285C58.4698 26.7153 58.8053 28.6327 59.1127 30.5283C59.1401 30.6969 59.1933 31.0123 59.0062 31.2672C58.8594 31.4705 58.6367 31.5431 58.4883 31.5899L55.0536 32.7095C54.276 32.9604 53.4718 33.2209 52.6119 33.2266L52.5933 33.2233ZM52.2449 32.3207C52.2669 32.403 52.3084 32.4788 52.3659 32.5417C52.4427 32.5722 52.5255 32.5846 52.6079 32.578C53.3677 32.5732 54.1236 32.3288 54.8552 32.094L58.2979 30.9808C58.3666 30.9637 58.4316 30.9345 58.4899 30.8945C58.5085 30.8679 58.5069 30.7808 58.4827 30.6356C58.1761 28.7456 57.8374 26.8331 57.4881 24.952C57.4655 24.831 57.4235 24.6067 57.3267 24.5486C57.2525 24.5002 57.1025 24.5148 56.9799 24.5325C56.2999 24.6317 55.6296 24.8745 54.9802 25.1093C54.4962 25.2843 53.9961 25.4529 53.5129 25.6166C52.5449 25.9441 51.5391 26.2837 50.6025 26.6919C50.3331 26.8097 50.3105 26.8532 50.5219 27.4018C50.5509 27.4768 50.5808 27.5542 50.6082 27.6341L51.8125 31.0865C51.8532 31.199 51.8995 31.3094 51.9513 31.4172C52.0795 31.7012 52.2255 32.0238 52.2441 32.3207H52.2449Z" fill="white"/>
<path d="M22.0263 54.2873C21.8336 54.2869 21.6454 54.2295 21.4853 54.1224C21.3251 54.0154 21.2001 53.8634 21.1261 53.6855L18.9973 48.4916C18.9812 48.452 18.9602 48.4069 18.9376 48.3585C18.8094 48.0834 18.6327 47.7067 18.7811 47.3671C18.9505 46.9799 19.441 46.8775 19.7991 46.8024C19.8798 46.7863 19.9524 46.771 20.0024 46.7556L25.6489 45.1061C25.6901 45.0945 25.7331 45.091 25.7756 45.0956C25.8181 45.1002 25.8593 45.1134 25.8966 45.1343C25.9338 45.1547 25.9666 45.1821 25.9934 45.215C26.0197 45.2484 26.0392 45.2868 26.0507 45.3279C26.6056 47.3348 27.1178 49.3829 27.572 51.4148C27.633 51.6854 27.5914 51.969 27.4552 52.2106C27.3189 52.4522 27.0978 52.6346 26.8347 52.7224L22.336 54.2333C22.2366 54.2686 22.1318 54.2869 22.0263 54.2873ZM25.5102 45.8175L20.1807 47.3752C20.1065 47.3969 20.0194 47.4155 19.9282 47.434C19.7895 47.4631 19.4216 47.5405 19.37 47.6268C19.3418 47.7075 19.4716 47.9817 19.52 48.0858C19.5475 48.1447 19.5725 48.1987 19.5918 48.2471L21.7214 53.4411C21.7533 53.5183 21.8132 53.5806 21.8892 53.6154C21.9652 53.6507 22.052 53.655 22.1312 53.6275L26.6234 52.1094C26.7354 52.0725 26.8297 51.9953 26.8879 51.8927C26.9461 51.7901 26.9639 51.6694 26.938 51.5544C26.5096 49.637 26.0297 47.7075 25.5102 45.8119V45.8175Z" fill="white"/>
<path d="M32.7095 51.2947C32.5772 51.2973 32.4467 51.2629 32.3328 51.1955C32.0908 51.0511 32.0037 50.7921 31.9504 50.6381L30.1177 45.2803C30.1032 45.2368 30.0887 45.1997 30.075 45.1585C29.9225 44.7294 29.862 44.4027 30.4824 44.1099C30.8163 43.9486 31.1777 43.7872 31.6189 43.6017C33.1645 42.9434 34.7549 42.3959 36.3781 41.9634C36.5257 41.9239 36.8339 41.8416 37.0977 42.011C37.3614 42.1804 37.4155 42.4845 37.4445 42.6482L38.5343 48.8828C38.577 49.0526 38.5651 49.2315 38.5004 49.3942C38.3706 49.6774 38.0681 49.7669 37.9229 49.8096L33.1169 51.2221C32.9853 51.266 32.8481 51.2904 32.7095 51.2947ZM30.6243 44.7689C30.6364 44.8149 30.6614 44.8859 30.6832 44.9464C30.6977 44.9859 30.7122 45.027 30.7284 45.0754L32.5611 50.4332C32.5788 50.4856 32.6256 50.6227 32.6643 50.6461C32.703 50.6695 32.7869 50.651 32.9378 50.6058L37.743 49.1893C37.8047 49.1763 37.8637 49.1526 37.9172 49.1192C37.9154 49.0766 37.91 49.0342 37.9011 48.9925L36.8113 42.762C36.8069 42.6895 36.7862 42.6189 36.7508 42.5555C36.681 42.5546 36.6117 42.5661 36.5459 42.5894C34.9515 43.0136 33.3893 43.5511 31.8714 44.1978C31.4382 44.3817 31.0849 44.5398 30.7582 44.6955C30.7119 44.7168 30.6672 44.7413 30.6243 44.7689Z" fill="white"/>
<path d="M44.3801 48.3698C44.3256 48.3704 44.2713 48.3633 44.2187 48.3488C43.9679 48.281 43.838 48.0697 43.7686 47.956C43.1489 46.9446 42.6173 45.8818 42.1795 44.7794C41.9884 44.2954 41.8141 43.8114 41.6601 43.3161C41.6343 43.2355 41.6052 43.1548 41.5794 43.0645C41.4536 42.712 41.3124 42.3086 41.3374 41.9053C41.3906 41.0696 42.2247 40.776 42.77 40.5824L42.9539 40.5163C43.1153 40.4558 43.742 40.2412 44.5341 39.9685C45.7594 39.5483 47.4381 38.9723 48.4206 38.6174C48.6429 38.5365 48.8856 38.5304 49.1118 38.5998C49.338 38.6692 49.5354 38.8105 49.6741 39.0022C49.7664 39.1292 49.83 39.2748 49.8604 39.4289L51.0704 45.4731C51.0994 45.6183 51.1438 45.8385 51.0575 46.0571C50.9155 46.4217 50.5219 46.5411 50.3315 46.5984L44.6721 48.3181C44.5781 48.3506 44.4795 48.3681 44.3801 48.3698ZM44.3204 47.6188C44.3421 47.6558 44.3669 47.6909 44.3946 47.7236C44.4196 47.7188 44.4624 47.7059 44.4849 47.6994L50.1484 45.9829C50.2186 45.9611 50.4315 45.8966 50.4598 45.8216C50.4677 45.7469 50.4614 45.6713 50.4412 45.5989L49.2313 39.5555C49.2187 39.4926 49.1928 39.4331 49.1552 39.381C49.1176 39.3289 49.0693 39.2856 49.0135 39.2539C48.9578 39.2222 48.8958 39.2032 48.832 39.1982C48.7677 39.1927 48.703 39.2012 48.6424 39.2232C47.6543 39.5797 45.974 40.1573 44.7471 40.5784C43.959 40.8486 43.3363 41.0624 43.1822 41.1204L42.9886 41.1898C42.4159 41.3923 42.0093 41.5649 41.9851 41.9448C41.9682 42.2159 42.0795 42.5393 42.1868 42.8515C42.2191 42.9443 42.2497 43.0338 42.2771 43.1209C42.4264 43.5968 42.5998 44.0736 42.7805 44.5382C43.2062 45.6064 43.7225 46.6362 44.3236 47.6164L44.3204 47.6188Z" fill="white"/>
<path d="M56.0756 44.9818C55.8579 44.9818 55.7788 44.7584 55.6723 44.4616C55.6118 44.2881 55.5263 44.0381 55.419 43.7178C55.2246 43.137 54.998 42.4449 54.8479 41.9876L54.6963 41.5262C54.6051 41.2576 54.5075 40.9833 54.4123 40.7195C54.1563 40.0377 53.9358 39.343 53.7517 38.6384C53.542 37.7704 53.8638 37.2203 54.7366 36.9541C56.0523 36.5508 57.409 36.2063 58.7214 35.8708C59.3724 35.7046 60.0452 35.532 60.7026 35.3561C60.8679 35.3118 61.3068 35.1948 61.5971 35.4965C61.7036 35.6177 61.7738 35.7664 61.7996 35.9256C62.2747 37.9616 62.6869 40.0395 63.0306 42.1037C63.0564 42.257 63.0991 42.5143 62.9733 42.749C62.8474 42.9838 62.6063 43.0935 62.4627 43.1524C60.4517 44.0389 58.3301 44.6495 56.1555 44.9673C56.1296 44.9754 56.1028 44.9803 56.0756 44.9818ZM56.0603 44.3365C56.0465 44.3384 56.0327 44.3411 56.0192 44.3446L56.0498 44.3381L56.0603 44.3365ZM61.0922 35.9474C61.0172 35.9514 60.943 35.9644 60.8712 35.9861C60.2105 36.1628 59.5354 36.3354 58.8828 36.5024C57.5776 36.8363 56.2281 37.1808 54.9262 37.5776C54.3785 37.7446 54.251 37.9584 54.3809 38.4932C54.5598 39.1743 54.7736 39.8458 55.0214 40.505C55.1174 40.7728 55.2166 41.0503 55.3085 41.3229C55.3279 41.3794 55.3844 41.552 55.4626 41.7908C55.6538 42.3732 56.1079 43.7662 56.3007 44.3026C58.3353 43.9842 60.3199 43.4025 62.2046 42.5724C62.2787 42.5455 62.3469 42.5044 62.4054 42.4514C62.4183 42.373 62.415 42.2929 62.3957 42.2159C62.0561 40.1662 61.6447 38.102 61.1729 36.0789C61.1653 36.0357 61.1529 35.9934 61.1357 35.953C61.1218 35.9479 61.1071 35.9452 61.0922 35.945V35.9474Z" fill="white"/>
<path d="M30.4993 75.5505C30.634 75.8489 30.8066 76.1797 31.1228 76.2652C31.3447 76.3257 32.5748 75.7812 32.7926 75.7054L36.6274 74.3671C36.8795 74.2737 37.0851 74.0854 37.2002 73.8424C37.3154 73.5995 37.331 73.3211 37.2437 73.0668L32.695 59.7426C32.6434 59.5902 32.0949 58.0696 31.694 56.9782C31.4479 56.3095 30.338 56.5249 30.1266 56.5975L25.6998 58.1188C25.1351 58.3124 24.4382 58.4697 23.9872 58.8819C23.5363 59.2941 23.6791 59.7846 23.8735 60.2984C25.4247 64.4123 26.5726 66.9282 28.0681 70.0838C28.9159 71.8891 29.6765 73.7339 30.4993 75.5505Z" fill="#007EEF"/>
<path d="M37.5196 61.5471C36.7782 61.5471 36.3902 60.5792 36.2451 60.2033L36.2192 60.1379C36.0152 59.7443 35.8119 59.3361 35.6175 58.9279C35.2738 58.2092 34.948 57.476 34.6495 56.7387C34.6221 56.6726 34.5947 56.6088 34.5688 56.5467C34.4172 56.1958 34.2736 55.8643 34.4188 55.5295C34.5204 55.294 34.7415 55.1262 35.1012 54.9931C36.2305 54.5898 37.3881 54.2099 38.5101 53.8437C39.0675 53.6622 39.6451 53.4742 40.2089 53.2855C40.3782 53.2152 40.5653 53.2 40.7437 53.2419C41.0753 53.3411 41.1801 53.6726 41.2196 53.7977L42.8329 58.9223C42.8773 59.0635 42.9596 59.3256 42.8329 59.5781C42.7273 59.7903 42.528 59.9008 42.3489 59.9814C40.7607 60.7389 38.223 61.4802 37.5978 61.5383C37.572 61.5432 37.5458 61.5462 37.5196 61.5471ZM40.5477 53.8622C40.5017 53.8716 40.4564 53.8843 40.4122 53.9001C39.8475 54.0889 39.2676 54.2776 38.7077 54.4599C37.5913 54.8237 36.4362 55.2004 35.3198 55.6029C35.0617 55.6957 35.0173 55.7732 35.0109 55.7885C34.977 55.8691 35.0746 56.0934 35.1609 56.2934C35.1892 56.3588 35.219 56.4265 35.2472 56.4975C35.5425 57.2235 35.8635 57.9446 36.2015 58.6521C36.3927 59.0554 36.5927 59.4539 36.796 59.8467C36.8153 59.8855 36.8322 59.9253 36.8468 59.9661C37.1921 60.8365 37.4478 60.9099 37.5429 60.901C38.0455 60.8534 40.4888 60.1605 42.0763 59.4031C42.1447 59.3783 42.2075 59.3402 42.261 59.2909C42.2555 59.2322 42.2422 59.1744 42.2215 59.1191L40.6082 53.9937C40.5946 53.9464 40.5742 53.9013 40.5477 53.8598V53.8622Z" fill="white"/>
<path d="M45.9289 68.9683C45.6756 67.9584 45.4828 67.1824 45.29 66.4064C45.0972 65.6304 44.9052 64.8568 44.6527 63.8485C44.6237 63.734 44.5471 63.4299 44.2494 63.3371C44.136 63.3054 44.016 63.3054 43.9026 63.3371C42.3542 63.6913 40.85 64.2164 39.4176 64.9028C39.366 64.9278 39.2772 64.9625 39.1837 64.9996C38.7392 65.1738 38.3867 65.3223 38.2391 65.5642C38.0528 65.8643 38.2084 66.2693 38.3343 66.5943C38.3601 66.6621 38.3843 66.7258 38.3972 66.767C38.544 67.2574 40.0516 71.143 40.2839 71.3769C40.3988 71.4892 40.5354 71.5767 40.6854 71.6342C40.8353 71.6916 40.9955 71.7177 41.1559 71.7109C41.5786 71.7109 41.9827 71.556 42.1675 71.485C43.154 71.1059 44.1349 70.6784 45.0875 70.2194L45.3965 70.0694C45.5481 69.9935 45.8312 69.854 45.9385 69.5588C46.0208 69.3369 45.966 69.1167 45.9289 68.9683ZM45.3319 69.3394C45.3134 69.3918 45.1658 69.4644 45.1101 69.4926C44.0784 70.0024 43.0128 70.4711 41.936 70.8841C41.3616 71.1043 40.968 71.1261 40.7615 70.943C40.555 70.5703 39.2369 67.3235 39.0151 66.5871C38.9957 66.5217 38.9667 66.4467 38.9344 66.3677C38.8917 66.2564 38.7949 66.0047 38.7965 65.9006C38.8981 65.8087 39.2595 65.6675 39.4184 65.6046C39.5273 65.5618 39.6225 65.5239 39.6951 65.49C41.0758 64.8286 42.5252 64.3214 44.0171 63.9776L44.0252 64.009C44.2776 65.0165 44.4704 65.7909 44.6624 66.5653C44.8544 67.3397 45.048 68.1181 45.3013 69.128C45.3255 69.1966 45.3365 69.2691 45.3335 69.3418L45.3319 69.3394Z" fill="white"/>
<path d="M48.4464 58.9094C48.3993 58.9096 48.3522 58.905 48.306 58.8956C47.86 58.8045 47.7043 58.3229 47.6454 58.1422C47.3227 57.1493 47.0001 56.1417 46.6879 55.148C46.6129 54.906 46.5217 54.664 46.4241 54.3994C46.2031 53.8001 45.974 53.1805 45.9071 52.5715C45.8103 51.6907 46.7048 51.4317 47.2396 51.2809C47.3397 51.2519 47.4341 51.2244 47.5139 51.1962C49.1933 50.6154 50.9163 50.0879 52.6337 49.6273C52.7903 49.5738 52.9599 49.5719 53.1177 49.6216C53.4194 49.7362 53.5081 50.0508 53.546 50.1863C54.038 51.9402 54.3985 53.7284 54.6245 55.536C54.6686 55.8954 54.588 56.2592 54.3961 56.5664C54.2042 56.8735 53.9126 57.1055 53.5702 57.2235L48.8279 58.8368C48.7058 58.8826 48.5768 58.9072 48.4464 58.9094ZM48.2584 57.9414C48.3528 58.2318 48.4198 58.264 48.4359 58.264C48.4989 58.2601 48.5608 58.2457 48.619 58.2213L53.3613 56.608C53.5636 56.5387 53.7359 56.4018 53.8492 56.2203C53.9624 56.0389 54.0098 55.824 53.9832 55.6118C53.7621 53.8363 53.4081 52.0798 52.9241 50.3573C52.9133 50.3132 52.8981 50.2702 52.8789 50.229C52.8531 50.2339 52.8184 50.2427 52.7982 50.2476C51.0954 50.7041 49.3877 51.2269 47.722 51.8036C47.6268 51.8359 47.5244 51.8657 47.4163 51.8972C46.7887 52.0787 46.5145 52.2093 46.5459 52.5014C46.604 53.0313 46.8194 53.6129 47.0299 54.1751C47.1251 54.4333 47.2235 54.7003 47.3034 54.9544C47.6155 55.9465 47.9366 56.9516 48.2584 57.939V57.9414Z" fill="white"/>
<path d="M59.7919 55.2553C59.6672 55.2577 59.5438 55.23 59.4321 55.1746C59.2022 55.056 59.0796 54.8342 59.0062 54.7019C58.4946 53.7774 58.0542 52.8153 57.6889 51.8238C57.6413 51.6931 57.5825 51.5479 57.5203 51.3938C57.259 50.7437 56.9331 49.9354 57.0097 49.2659C57.1033 48.4593 57.939 48.2495 58.4383 48.1245H58.448C59.0933 47.9632 59.7991 47.6647 60.4848 47.3751C61.7068 46.8597 62.8611 46.3733 63.7291 46.5983C64.2405 46.7314 64.5866 47.7736 65.494 51.9093C65.5658 52.232 65.6336 52.5449 65.6957 52.8216C65.7128 52.8975 65.7019 52.977 65.6649 53.0455C65.628 53.114 65.5676 53.1668 65.4949 53.1943L60.3323 55.1302C60.1612 55.2043 59.9781 55.2467 59.7919 55.2553ZM59.57 54.3857C59.6078 54.467 59.6629 54.5392 59.7314 54.597C59.812 54.6398 60.0121 54.5648 60.1073 54.5293L65.0117 52.6837C64.9665 52.4815 64.9194 52.2664 64.8705 52.0384C64.5285 50.4799 63.8961 47.6018 63.5339 47.2049C62.8724 47.0622 61.7899 47.5187 60.7413 47.9608C60.0339 48.2592 59.3014 48.5682 58.6117 48.7416H58.6012C58.0906 48.869 57.6962 48.9941 57.6575 49.3304C57.5994 49.837 57.8914 50.5614 58.1253 51.1438C58.1899 51.3051 58.2496 51.4527 58.3012 51.5923C58.6549 52.5525 59.0813 53.4845 59.5765 54.3801L59.57 54.3857Z" fill="white"/>
<path d="M11.5802 31.7222C10.9534 32.2006 11.0599 33.3097 11.7222 33.7388C12.3844 34.168 13.3605 33.9002 13.7977 33.2411C14.2236 32.6006 14.1203 31.6351 13.5161 31.1608C12.912 30.6865 11.8762 30.8768 11.5463 31.5722L11.5802 31.7222Z" fill="#162B43"/>
<path d="M12.4562 34.2687C12.1342 34.2719 11.8182 34.1817 11.5463 34.009C11.1325 33.7412 10.8623 33.2403 10.8421 32.703C10.8301 32.5044 10.8578 32.3054 10.9236 32.1176C10.9894 31.9298 11.0919 31.7569 11.2253 31.6092C11.2189 31.549 11.2292 31.4881 11.2551 31.4334C11.3582 31.2289 11.506 31.0502 11.6876 30.9106C11.8691 30.771 12.0797 30.674 12.3038 30.6267C12.5448 30.5659 12.7964 30.5596 13.0402 30.6083C13.284 30.657 13.5138 30.7595 13.713 30.9083C14.439 31.4729 14.5955 32.6232 14.0647 33.4218C13.8847 33.6833 13.6438 33.8971 13.3627 34.0447C13.0816 34.1922 12.7689 34.2691 12.4514 34.2687H12.4562ZM11.8916 31.6221C11.9119 31.6859 11.9119 31.7544 11.8916 31.8182C11.8717 31.8824 11.8322 31.9388 11.7786 31.9795C11.5834 32.1287 11.4778 32.3828 11.4891 32.6797C11.4908 32.8341 11.5289 32.986 11.6002 33.1231C11.6716 33.2601 11.7741 33.3785 11.8996 33.4686C12.3981 33.7912 13.1749 33.5984 13.5315 33.0652C13.8767 32.5458 13.7783 31.7746 13.3193 31.4173C13.1962 31.3283 13.0548 31.2676 12.9055 31.2397C12.7561 31.2119 12.6024 31.2174 12.4554 31.2559C12.2269 31.3015 12.0241 31.4317 11.8875 31.6205L11.8916 31.6221Z" fill="#162B43"/>
<path d="M20.5614 27.7398C19.5934 28.0899 18.6303 28.5464 17.9479 29.316C17.7801 29.5039 17.6252 29.7338 17.6462 29.9847C17.6914 30.5243 18.4222 30.6518 18.961 30.5969C21.2204 30.3657 23.3924 29.6006 25.298 28.3649C25.6409 28.1415 26.0039 27.8576 26.0611 27.4526C26.2814 25.899 21.2309 27.4986 20.5614 27.7398Z" fill="#DBF122"/>
<path d="M47.4776 21.314C47.4203 21.3143 47.364 21.2993 47.3145 21.2707C47.2649 21.242 47.2238 21.2007 47.1955 21.151C47.1672 21.1012 47.1526 21.0448 47.1533 20.9875C47.1539 20.9303 47.1698 20.8742 47.1993 20.8251C47.2387 20.7595 47.3002 20.7101 47.3727 20.6856C50.484 19.6192 53.671 18.6399 56.8444 17.7768C56.886 17.7633 56.9299 17.7584 56.9734 17.7623C57.017 17.7664 57.0593 17.7793 57.0977 17.8002C57.136 17.8199 57.1698 17.8474 57.1969 17.8809C57.2243 17.9148 57.2444 17.9541 57.2558 17.9962C57.2669 18.0386 57.2696 18.0827 57.2638 18.1261C57.2579 18.1693 57.2431 18.2108 57.2203 18.2479C57.198 18.2855 57.168 18.3179 57.1324 18.3431C57.0969 18.3687 57.0565 18.3868 57.0138 18.3963C53.8533 19.2562 50.68 20.2315 47.5825 21.2938C47.549 21.3066 47.5135 21.3135 47.4776 21.314Z" fill="#162B43"/>
<path d="M49.1756 22.6054C49.0988 22.6054 49.0246 22.5781 48.9662 22.5283C48.9078 22.4786 48.8691 22.4096 48.8569 22.3338C48.8448 22.258 48.86 22.1804 48.9 22.1149C48.9399 22.0494 49.0019 22.0002 49.0748 21.9762L54.4486 20.2065C54.4889 20.1933 54.5314 20.1881 54.5737 20.1911C54.6161 20.1943 54.6575 20.2058 54.6955 20.225C54.7335 20.2452 54.7672 20.2726 54.7947 20.3057C54.8221 20.3379 54.8429 20.3751 54.856 20.4154C54.8695 20.4556 54.8747 20.4981 54.8713 20.5404C54.868 20.5825 54.8568 20.6235 54.8382 20.6614C54.8182 20.6995 54.7908 20.7333 54.7576 20.7606C54.7258 20.7888 54.6884 20.81 54.6479 20.8227L49.278 22.5861C49.2451 22.5978 49.2105 22.6043 49.1756 22.6054Z" fill="#162B43"/>
<path d="M21.368 20.6017C21.4899 21.2107 22.1166 21.2341 22.7321 21.0784C33.1378 18.4455 43.0217 16.4209 53.304 14.1268C54.0195 13.9654 54.2994 13.4072 54.0598 12.7482C53.6057 11.2567 53.7323 9.32882 53.1152 7.87685C53.0317 7.68265 52.8869 7.52115 52.7029 7.417C52.519 7.31285 52.306 7.27179 52.0965 7.3001C41.7899 8.70689 30.9938 11.7367 20.9115 14.3413C20.4428 14.4704 19.8144 14.7172 19.7523 14.9705C19.6459 15.4053 19.804 15.9385 19.9613 16.2942C20.5243 17.5445 20.9494 19.2925 21.368 20.6017Z" fill="#162B43"/>
<path d="M25.6433 19.6281C25.5624 19.6284 25.4843 19.5983 25.4246 19.5438C25.3648 19.4892 25.3277 19.4142 25.3206 19.3337C25.2222 18.2132 24.9826 17.3461 24.7705 16.5806C24.5737 15.8699 24.3881 15.1988 24.3414 14.4422C24.3366 14.3566 24.3656 14.2727 24.422 14.2082C24.4643 14.1601 24.5199 14.1256 24.5817 14.1092C24.6436 14.0928 24.709 14.0951 24.7696 14.116C24.8301 14.1368 24.8831 14.1752 24.9218 14.2262C24.9604 14.2773 24.983 14.3387 24.9867 14.4026C25.0286 15.0915 25.198 15.7021 25.39 16.4088C25.6094 17.2001 25.8578 18.0979 25.9611 19.2772C25.9649 19.3193 25.9605 19.3618 25.9482 19.4022C25.9352 19.4428 25.9147 19.4806 25.8877 19.5135C25.8604 19.5466 25.827 19.574 25.7893 19.5942C25.7516 19.6144 25.7101 19.6264 25.6675 19.6297L25.6433 19.6281Z" fill="white"/>
<path d="M30.1871 18.6246C30.1217 18.6246 30.0578 18.6047 30.0039 18.5675C29.95 18.5304 29.9087 18.4777 29.8854 18.4165C29.3135 16.9097 29.0586 15.6134 28.8529 14.5728C28.7618 14.1098 28.6755 13.6726 28.5746 13.2822C28.554 13.2001 28.5665 13.1132 28.6093 13.0402C28.6415 12.9852 28.6893 12.9409 28.7467 12.913C28.804 12.8851 28.8683 12.8748 28.9315 12.8835C28.9947 12.8921 29.0539 12.9192 29.1016 12.9615C29.1494 13.0037 29.1835 13.0592 29.1998 13.1209C29.3055 13.5322 29.3934 13.9783 29.4862 14.4502C29.6975 15.5206 29.9363 16.7338 30.4888 18.1898C30.5192 18.2698 30.5166 18.3586 30.4816 18.4367C30.4644 18.4753 30.4398 18.5101 30.409 18.5391C30.3795 18.5674 30.3447 18.5895 30.3066 18.6042C30.2686 18.6188 30.2279 18.6258 30.1871 18.6246Z" fill="white"/>
<path d="M35.323 17.4494C35.2622 17.4494 35.2025 17.4323 35.151 17.3999C35.0995 17.3675 35.0582 17.3211 35.0318 17.2663C34.5479 16.2612 34.3422 15.2359 34.1397 14.2454C33.9888 13.5065 33.8324 12.7434 33.5646 11.9932C33.5504 11.9532 33.5442 11.9109 33.5464 11.8685C33.5486 11.8262 33.5592 11.7847 33.5775 11.7464C33.6048 11.6888 33.6486 11.6405 33.7034 11.6078C33.7581 11.5751 33.8214 11.5593 33.8851 11.5625C33.9488 11.5657 34.0101 11.5877 34.0613 11.6258C34.1125 11.6638 34.1513 11.7162 34.1728 11.7762C34.4559 12.5692 34.6164 13.3556 34.7721 14.1155C34.9754 15.1117 35.1674 16.0515 35.6142 16.9864C35.6326 17.0245 35.6433 17.0659 35.6457 17.1082C35.6507 17.1935 35.6217 17.2773 35.565 17.3413C35.5365 17.373 35.502 17.3988 35.4634 17.4171C35.4195 17.4379 35.3716 17.449 35.323 17.4494Z" fill="white"/>
<path d="M28.3939 40.5856C28.3569 40.5858 28.3199 40.5828 28.2834 40.5767C27.818 40.496 27.6623 39.9854 27.6115 39.8168C27.3017 38.798 26.9968 37.7599 26.7032 36.7322C26.6363 36.4983 26.5604 36.2555 26.4878 36.0199C26.2951 35.4482 26.141 34.8643 26.0264 34.2719C25.8748 33.3733 26.5991 33.0571 27.1275 32.8256C27.2009 32.7942 27.2743 32.7619 27.3461 32.7288C28.9614 31.9741 30.6366 31.3552 32.3546 30.8784C32.4643 30.8485 32.7208 30.7767 32.9442 30.9292C33.0747 31.0288 33.1651 31.1719 33.1991 31.3325L34.9221 37.2477C34.9746 37.4275 35.0536 37.6994 34.9576 37.9736C34.8132 38.3834 34.3865 38.5335 34.1566 38.6141L28.7585 40.5081C28.6424 40.5548 28.519 40.581 28.3939 40.5856ZM28.227 39.6297C28.3165 39.9249 28.3883 39.9403 28.3883 39.9403C28.4437 39.9347 28.4981 39.9211 28.5496 39.8999L33.9477 38.0051C34.0663 37.964 34.3123 37.8777 34.351 37.7631C34.3784 37.6824 34.3357 37.5389 34.305 37.4324L32.5804 31.5124L32.5732 31.489L32.528 31.5003C30.8446 31.9677 29.203 32.5746 27.6204 33.3145L27.3872 33.4193C26.8129 33.6694 26.6016 33.7992 26.6613 34.1663C26.7721 34.7292 26.9198 35.2843 27.1033 35.828C27.1783 36.07 27.255 36.312 27.3243 36.5539C27.6163 37.5784 27.9204 38.6125 28.2286 39.6281L28.227 39.6297Z" fill="white"/>
<path d="M40.1476 16.2176C40.0717 16.2175 39.9983 16.1907 39.9403 16.1418C39.882 16.0928 39.8428 16.0248 39.8298 15.9498C39.6104 14.6826 38.9651 12.1505 38.5513 10.9333C38.5278 10.8532 38.5362 10.7671 38.5748 10.6931C38.6134 10.6192 38.6792 10.563 38.7583 10.5365C38.8375 10.51 38.9238 10.5152 38.9992 10.5509C39.0746 10.5867 39.1332 10.6503 39.1627 10.7284C39.5926 11.9932 40.238 14.5269 40.4654 15.8433C40.4738 15.8897 40.4716 15.9374 40.459 15.9829C40.4467 16.0282 40.4247 16.0704 40.3944 16.1063C40.3641 16.1422 40.3263 16.1711 40.2837 16.1909C40.2411 16.2107 40.1946 16.2209 40.1476 16.2208V16.2176Z" fill="white"/>
<path d="M45.0657 15.2923C45.0043 15.2925 44.9442 15.2751 44.8923 15.2423C44.8406 15.2092 44.7993 15.1622 44.7729 15.1068C44.3171 14.1388 44.0405 12.7941 43.7961 11.6084C43.6573 10.9364 43.5266 10.3016 43.3774 9.78777C43.3594 9.72642 43.36 9.6611 43.3792 9.6001C43.3983 9.5391 43.4352 9.48517 43.485 9.44515C43.5349 9.40513 43.5955 9.38083 43.6592 9.37534C43.723 9.36984 43.7869 9.3834 43.8428 9.41429C43.9177 9.4556 43.9731 9.52494 43.9969 9.60708C44.1534 10.1459 44.2873 10.7928 44.4285 11.4785C44.6648 12.6288 44.9334 13.9323 45.3569 14.8325C45.3809 14.8828 45.3914 14.9383 45.3876 14.9939C45.3836 15.048 45.3665 15.1004 45.3376 15.1463C45.3085 15.1922 45.2684 15.23 45.2209 15.2562C45.1734 15.2824 45.12 15.2962 45.0657 15.2964V15.2923Z" fill="white"/>
<path d="M49.7435 13.9002C49.6784 13.9001 49.6148 13.8805 49.5612 13.8437C49.5079 13.8063 49.4666 13.7542 49.4426 13.6936C48.825 12.0837 48.4396 10.394 48.298 8.6755C48.2947 8.63301 48.2997 8.5903 48.3125 8.54966C48.3255 8.50943 48.3463 8.47216 48.3738 8.43996C48.401 8.40655 48.4347 8.37909 48.473 8.3593C48.5107 8.3399 48.5518 8.32812 48.594 8.32461C48.6365 8.3213 48.6792 8.32623 48.7198 8.33913C48.7603 8.35208 48.7979 8.37291 48.8303 8.40043C48.8634 8.42769 48.8908 8.46112 48.911 8.49885C48.9308 8.53663 48.9426 8.5781 48.9457 8.62065C49.082 10.2782 49.4538 11.9079 50.05 13.4605C50.0692 13.5092 50.0758 13.5619 50.0693 13.6138C50.0632 13.6659 50.0443 13.7158 50.0145 13.759C49.9849 13.802 49.9453 13.8371 49.8991 13.8614C49.8526 13.8857 49.8008 13.8984 49.7483 13.8985L49.7435 13.9002Z" fill="white"/>
<path d="M1.44387 15.8594C1.19462 16.4918 1.30513 17.2065 1.4842 17.8615C1.71642 18.7112 2.05522 19.5281 2.49251 20.2928C2.6367 20.5473 2.81896 20.7782 3.03296 20.9776C3.55648 21.4616 3.75088 21.2446 3.82832 20.7816C3.90898 20.292 3.19913 19.5418 3.02167 19.0788C2.82808 18.573 2.50864 17.7712 2.56591 17.2323C2.64658 16.4797 3.25156 16.103 3.17413 15.5545C3.01602 14.4026 1.70603 15.1956 1.44387 15.8594Z" fill="white"/>
<path d="M32.3901 69.7644C32.3208 69.7645 32.2534 69.7422 32.1977 69.7009C32.1421 69.6597 32.1012 69.6016 32.0811 69.5353C31.5292 67.7166 30.7797 65.9637 29.8459 64.3083C29.825 64.2712 29.8117 64.2304 29.8066 64.1882C29.8016 64.146 29.8049 64.1031 29.8164 64.0622C29.828 64.0213 29.8475 63.983 29.8739 63.9497C29.9003 63.9163 29.933 63.8885 29.9701 63.8678C30.0071 63.8469 30.0479 63.8335 30.0901 63.8284C30.1323 63.8233 30.1751 63.8265 30.216 63.838C30.2569 63.8495 30.2952 63.8689 30.3286 63.8952C30.362 63.9215 30.3898 63.9542 30.4106 63.9912C31.367 65.6881 32.1352 67.4845 32.7014 69.3482C32.714 69.3888 32.7184 69.4316 32.7144 69.4739C32.7104 69.5163 32.698 69.5575 32.678 69.595C32.6574 69.6323 32.6301 69.6653 32.5974 69.6926C32.5643 69.7195 32.5262 69.7395 32.4853 69.7515C32.4545 69.761 32.4223 69.7654 32.3901 69.7644Z" fill="white"/>
<path d="M29.0199 67.9511C28.9464 67.9514 28.875 67.9267 28.8174 67.8809C28.7598 67.8349 28.7197 67.7706 28.7037 67.6986C28.6878 67.6267 28.6969 67.5516 28.7295 67.4856C28.762 67.4196 28.8161 67.3667 28.8828 67.3356C30.3322 66.659 31.8663 66.1812 33.4436 65.9151C33.4854 65.9084 33.5281 65.9097 33.5694 65.9191C33.6109 65.9284 33.6501 65.946 33.6847 65.9708C33.7193 65.9951 33.7487 66.0262 33.7712 66.062C33.7936 66.0979 33.8086 66.1379 33.8154 66.1797C33.8239 66.2212 33.8239 66.264 33.8154 66.3055C33.8058 66.3469 33.7882 66.3861 33.7638 66.4209C33.7391 66.4554 33.7079 66.4847 33.6718 66.5072C33.6361 66.5299 33.596 66.545 33.5541 66.5515C32.0342 66.809 30.556 67.2703 29.1595 67.9228C29.1157 67.9428 29.068 67.9524 29.0199 67.9511Z" fill="white"/>
</g>
<defs>
<clipPath id="clip0_971_3908">
<rect width="74.1244" height="80" fill="white"/>
</clipPath>
</defs>
</svg>
