<svg width="40" height="42" viewBox="0 0 40 42" fill="none" xmlns="http://www.w3.org/2000/svg">
<path d="M19.9788 37.9787C28.3849 34.2242 31.6909 27.6242 31.6909 27.6242V13.9394C31.6909 13.9394 24.9455 13.5181 19.9788 7.9939C15.0121 13.5181 8.26364 13.9394 8.26364 13.9394V27.6242C8.26364 27.6242 11.5727 34.2242 19.9788 37.9787Z" stroke="#162B43" stroke-width="0.5" stroke-miterlimit="10"/>
<path d="M33.5849 12.1637L31.8182 12.0395C31.7606 12.0395 25.7576 11.5668 21.394 6.72434L19.9788 5.15161L18.5636 6.72434C14.2091 11.5728 8.20001 12.0365 8.14547 12.0395L6.36365 12.1486V28.0728L6.56365 28.4849C6.71213 28.788 10.2788 35.7395 19.203 39.7243L19.9788 40.0698L20.7546 39.7243C29.6788 35.7304 33.2455 28.7698 33.3909 28.4849L33.594 28.0819V13.9395L33.5849 12.1637ZM32.5576 27.8274L32.4636 28.0122C32.3243 28.291 28.9212 34.9334 20.3424 38.7668L19.9909 38.9243L19.6394 38.7668C11.0364 34.9334 7.63334 28.291 7.49092 28.0122L7.40001 27.8274V13.1243L8.21213 13.0728C8.27274 13.0728 14.6788 12.594 19.3364 7.41525L19.9788 6.70313L20.6212 7.41525C25.297 12.6183 31.6818 13.0698 31.7455 13.0728L32.5576 13.1243V27.8274Z" fill="#162B43"/>
<path d="M20.203 10.1319C20.161 10.0466 20.0742 9.99254 19.9791 9.99243C19.884 9.99232 19.797 10.0462 19.7548 10.1314L19.301 11.047L18.2917 11.1919C18.1975 11.2055 18.1192 11.2713 18.0896 11.3618C18.0601 11.4522 18.0844 11.5516 18.1525 11.6181L18.883 12.3326L18.7111 13.3398C18.6951 13.4335 18.7337 13.5282 18.8107 13.5841C18.8876 13.64 18.9896 13.6474 19.0738 13.6032L19.9788 13.1278L20.8838 13.6032C20.9681 13.6474 21.0702 13.64 21.1472 13.5839C21.2241 13.5279 21.2626 13.433 21.2463 13.3391L21.0719 12.3326L21.8048 11.6185C21.873 11.552 21.8975 11.4525 21.868 11.3619C21.8385 11.2714 21.76 11.2054 21.6657 11.1919L20.6539 11.047L20.203 10.1319Z" fill="#DBF122" stroke="#162B43" stroke-width="0.5" stroke-linejoin="round"/>
<path d="M27.285 15.8322C27.243 15.7467 27.1561 15.6925 27.0609 15.6924C26.9657 15.6923 26.8787 15.7463 26.8365 15.8316L26.3827 16.75L25.3735 16.8949C25.2794 16.9084 25.201 16.9743 25.1715 17.0647C25.1419 17.1552 25.1663 17.2546 25.2343 17.3211L25.9648 18.0356L25.793 19.0427C25.777 19.1365 25.8155 19.2312 25.8925 19.2871C25.9694 19.343 26.0714 19.3504 26.1556 19.3061L27.0606 18.8308L27.9656 19.3061C28.0498 19.3504 28.1518 19.343 28.2287 19.2871C28.3057 19.2312 28.3443 19.1365 28.3283 19.0427L28.1564 18.0356L28.8869 17.3211C28.955 17.2546 28.9793 17.1552 28.9497 17.0647C28.9202 16.9742 28.8418 16.9084 28.7476 16.8949L27.7359 16.75L27.285 15.8322Z" fill="#DBF122" stroke="#162B43" stroke-width="0.5" stroke-linejoin="round"/>
<path d="M13.1214 15.8322C13.0794 15.7467 12.9925 15.6925 12.8973 15.6924C12.802 15.6923 12.715 15.7463 12.6728 15.8316L12.219 16.75L11.2099 16.8949C11.1157 16.9084 11.0374 16.9743 11.0078 17.0647C10.9783 17.1552 11.0026 17.2546 11.0707 17.3211L11.8012 18.0356L11.6293 19.0427C11.6133 19.1365 11.6519 19.2312 11.7289 19.2871C11.8058 19.343 11.9078 19.3504 11.992 19.3061L12.8968 18.8309L13.7986 19.306C13.8828 19.3503 13.9849 19.3431 14.0619 19.2872C14.139 19.2313 14.1776 19.1366 14.1616 19.0427L13.9897 18.0358L14.7229 17.3214C14.7912 17.255 14.8157 17.1555 14.7862 17.0649C14.7567 16.9743 14.6782 16.9084 14.5839 16.8949L13.5722 16.75L13.1214 15.8322Z" fill="#DBF122" stroke="#162B43" stroke-width="0.5" stroke-linejoin="round"/>
<path d="M14.1364 23.1362V28.4393C14.1364 30.0362 16.797 31.3302 20.0818 31.3302C23.3667 31.3302 26.0303 30.0362 26.0303 28.4393V23.1362H14.1364Z" fill="#007EEF"/>
<path d="M26.3637 21.9516L20.2606 19.3698C20.1463 19.3273 20.0204 19.3273 19.9061 19.3698L13.803 21.9516H11.3788V22.5576C11.3779 22.596 11.3891 22.6336 11.4109 22.6652C11.4327 22.6967 11.4639 22.7206 11.5 22.7334L19.9091 25.7273C20.0235 25.7698 20.1493 25.7698 20.2637 25.7273L28.6667 22.7273C28.7034 22.7151 28.7353 22.6914 28.7576 22.6598C28.78 22.6282 28.7916 22.5903 28.7909 22.5516V21.9455L26.3637 21.9516Z" fill="#162B43"/>
<path d="M28.6667 21.7758L20.2606 18.7879C20.1457 18.7484 20.021 18.7484 19.9061 18.7879L11.497 21.7758C11.4613 21.7893 11.4305 21.8133 11.4088 21.8447C11.3871 21.8761 11.3755 21.9134 11.3755 21.9515C11.3755 21.9897 11.3871 22.027 11.4088 22.0584C11.4305 22.0898 11.4613 22.1138 11.497 22.1273L19.9061 25.1243C20.021 25.1638 20.1457 25.1638 20.2606 25.1243L28.6667 22.1212C28.7017 22.1079 28.7318 22.0842 28.7531 22.0534C28.7743 22.0226 28.7857 21.986 28.7857 21.9485C28.7857 21.9111 28.7743 21.8745 28.7531 21.8436C28.7318 21.8128 28.7017 21.7891 28.6667 21.7758Z" fill="#007EEF"/>
<path d="M24.8485 26.2576C24.7681 26.2576 24.691 26.2895 24.6342 26.3463C24.5774 26.4032 24.5455 26.4802 24.5455 26.5606L24.2151 31.2303H25.4939L25.1727 26.5515C25.1716 26.5107 25.1622 26.4704 25.1451 26.4333C25.1281 26.3961 25.1036 26.3628 25.0733 26.3354C25.043 26.3079 25.0075 26.2868 24.9689 26.2735C24.9302 26.2601 24.8893 26.2547 24.8485 26.2576Z" fill="#007EEF"/>
<path d="M25.494 31.3607H24.2152C24.1803 31.3591 24.1475 31.3439 24.1237 31.3185C24.0999 31.293 24.0871 31.2592 24.0879 31.2243L24.4121 26.5425C24.4198 26.4315 24.4689 26.3275 24.5497 26.2511C24.6306 26.1747 24.7373 26.1316 24.8485 26.1304C24.9609 26.1308 25.069 26.1733 25.1515 26.2496C25.234 26.326 25.2848 26.4305 25.294 26.5425L25.6212 31.2122C25.6227 31.2293 25.6204 31.2465 25.6147 31.2627C25.6089 31.2789 25.5998 31.2937 25.5879 31.3061C25.5774 31.3217 25.5635 31.3348 25.5472 31.3442C25.5309 31.3537 25.5127 31.3593 25.494 31.3607ZM24.3546 31.1031H25.3576L25.0546 26.5576C25.0515 26.5099 25.0303 26.4652 24.9954 26.4326C24.9605 26.3999 24.9145 26.3818 24.8667 26.3819C24.8191 26.3825 24.7734 26.4009 24.7387 26.4334C24.7039 26.4659 24.6826 26.5102 24.6788 26.5576L24.3546 31.1031Z" fill="#162B43"/>
<path d="M24.8485 26.3274C24.8148 26.3274 24.7824 26.3139 24.7585 26.2901C24.7346 26.2662 24.7212 26.2338 24.7212 26.2001V23.8152L20.0394 22.0728C20.0074 22.0606 19.9815 22.0362 19.9673 22.005C19.9532 21.9738 19.9518 21.9383 19.9637 21.9061C19.9694 21.8904 19.9782 21.876 19.9895 21.8636C20.0009 21.8513 20.0145 21.8413 20.0297 21.8343C20.0449 21.8272 20.0614 21.8233 20.0781 21.8226C20.0949 21.8219 20.1116 21.8246 20.1273 21.8304L24.9 23.6061C24.9245 23.6148 24.9458 23.6308 24.961 23.6519C24.9762 23.673 24.9845 23.6983 24.9849 23.7243V26.2001C24.9849 26.2176 24.9813 26.2349 24.9744 26.251C24.9674 26.267 24.9572 26.2815 24.9444 26.2935C24.9316 26.3054 24.9165 26.3146 24.9 26.3204C24.8835 26.3262 24.866 26.3286 24.8485 26.3274Z" fill="#162B43"/>
</svg>
