<svg width="40" height="42" viewBox="0 0 40 42" fill="none" xmlns="http://www.w3.org/2000/svg">
<path d="M30.1091 9.09102V6.81829L20.103 3.63647L10.103 6.82435V9.09102H6.48788V25.1516L6.68788 25.5547C6.83637 25.8577 10.403 32.8092 19.3273 36.794L20.103 37.1395L20.8788 36.794C29.803 32.794 33.3667 25.8334 33.5182 25.5395L33.7182 25.1365V9.09102H30.1091ZM32.6818 24.885L32.5879 25.0668C32.4485 25.3486 29.0455 31.991 20.4667 35.8244L20.1152 35.9819L19.7636 35.8244C11.1727 31.991 7.7697 25.3486 7.64243 25.0668L7.55152 24.885V10.1365H11.1242V7.57587L20.0939 4.71829L29.0727 7.57587V10.1304H32.6818V24.885Z" fill="#162B43"/>
<path d="M28.2091 11.0001V8.21522L20.103 5.63037L11.997 8.21522V11.0001H8.39697V24.6879C8.39697 24.6879 11.7061 31.2879 20.1121 35.0425C28.5182 31.2879 31.8273 24.6879 31.8273 24.6879V11.0001H28.2091Z" stroke="#162B43" stroke-width="0.5" stroke-miterlimit="10"/>
<path d="M20.3271 7.64994C20.285 7.56469 20.1981 7.51074 20.103 7.51074C20.0079 7.51074 19.9211 7.56469 19.8789 7.64994L19.3977 8.62324L18.3245 8.78004C18.2303 8.7938 18.1521 8.85985 18.1228 8.9504C18.0934 9.04096 18.1181 9.14031 18.1863 9.20666L18.9644 9.96308L18.7779 11.033C18.7616 11.1268 18.8 11.2218 18.877 11.2779C18.954 11.334 19.0562 11.3415 19.1405 11.2972L20.103 10.7916L21.0656 11.2972C21.1498 11.3415 21.2518 11.3341 21.3288 11.2781C21.4058 11.2222 21.4443 11.1274 21.4282 11.0336L21.2444 9.96308L22.02 9.20635C22.0881 9.13994 22.1126 9.04065 22.0832 8.95019C22.0538 8.85974 21.9757 8.79378 21.8816 8.78004L20.8084 8.62324L20.3271 7.64994Z" fill="#DBF122" stroke="#162B43" stroke-width="0.5" stroke-linejoin="round"/>
<path d="M25.6148 9.65256C25.5726 9.56736 25.4856 9.51353 25.3905 9.51367C25.2954 9.51382 25.2086 9.56792 25.1666 9.65325L24.837 10.3228L24.1009 10.4283C24.0066 10.4418 23.9282 10.5077 23.8987 10.5982C23.8691 10.6888 23.8936 10.7882 23.9617 10.8547L24.495 11.3751L24.3687 12.1124C24.3527 12.2062 24.3913 12.301 24.4683 12.3569C24.5454 12.4128 24.6475 12.4201 24.7318 12.3757L25.3911 12.028L26.0534 12.3759C26.1377 12.4201 26.2397 12.4128 26.3166 12.3568C26.3936 12.3009 26.4322 12.2061 26.4161 12.1124L26.2898 11.3751L26.8231 10.8547C26.8912 10.7882 26.9157 10.6888 26.8861 10.5982C26.8566 10.5077 26.7782 10.4418 26.684 10.4283L25.9474 10.3227L25.6148 9.65256Z" fill="#DBF122" stroke="#162B43" stroke-width="0.5" stroke-linejoin="round"/>
<path d="M15.0364 9.65325C14.9943 9.56767 14.9071 9.51352 14.8117 9.51367C14.7164 9.51382 14.6294 9.56824 14.5875 9.65395L14.2608 10.3228L13.5222 10.4283C13.4279 10.4418 13.3495 10.5076 13.3199 10.5982C13.2904 10.6887 13.3148 10.7882 13.383 10.8547L13.9163 11.3751L13.79 12.1124C13.7739 12.2062 13.8125 12.301 13.8896 12.3569C13.9666 12.4128 14.0688 12.4201 14.153 12.3757L14.8124 12.028L15.4747 12.3759C15.5589 12.4201 15.6609 12.4127 15.7379 12.3568C15.8148 12.3009 15.8534 12.2061 15.8373 12.1124L15.711 11.3751L16.2443 10.8547C16.3125 10.7882 16.3369 10.6887 16.3074 10.5982C16.2778 10.5076 16.1993 10.4418 16.1051 10.4283L15.366 10.3227L15.0364 9.65325Z" fill="#DBF122" stroke="#162B43" stroke-width="0.5" stroke-linejoin="round"/>
<path d="M14.1545 18.3152V23.6364C14.1545 25.2334 16.8182 26.5273 20.103 26.5273C23.3879 26.5273 26.0606 25.2182 26.0606 23.6364V18.3152H14.1545Z" fill="#007EEF"/>
<path d="M26.3909 17.1334L20.2879 14.5455C20.1735 14.5031 20.0477 14.5031 19.9333 14.5455L13.8303 17.1334H11.4061V17.7213C11.4049 17.7601 11.4164 17.7983 11.4388 17.83C11.4612 17.8617 11.4933 17.8852 11.5303 17.897L19.9333 20.9092C20.0482 20.9487 20.173 20.9487 20.2879 20.9092L28.7 17.897C28.7367 17.8848 28.7686 17.8611 28.7909 17.8295C28.8133 17.7979 28.8249 17.76 28.8242 17.7213V17.1334H26.3909Z" fill="#162B43"/>
<path d="M28.7 16.9699L20.2879 13.9608C20.173 13.9213 20.0482 13.9213 19.9333 13.9608L11.5273 16.9699C11.4902 16.9819 11.4579 17.0054 11.435 17.037C11.412 17.0686 11.3997 17.1066 11.3997 17.1456C11.3997 17.1846 11.412 17.2226 11.435 17.2542C11.4579 17.2858 11.4902 17.3093 11.5273 17.3214L19.9333 20.3032C20.0477 20.3457 20.1735 20.3457 20.2879 20.3032L28.7 17.3092C28.7321 17.294 28.7592 17.27 28.7782 17.2399C28.7972 17.2099 28.8073 17.1751 28.8073 17.1396C28.8073 17.104 28.7972 17.0692 28.7782 17.0392C28.7592 17.0091 28.7321 16.9851 28.7 16.9699Z" fill="#007EEF"/>
<path d="M24.8818 21.4396C24.8014 21.4396 24.7244 21.4715 24.6675 21.5283C24.6107 21.5852 24.5788 21.6623 24.5788 21.7426L24.2455 26.4123H25.5212L25.2 21.7335C25.1988 21.6932 25.1896 21.6535 25.1729 21.6168C25.1562 21.5801 25.1324 21.547 25.1027 21.5197C25.0731 21.4923 25.0383 21.4711 25.0003 21.4573C24.9624 21.4436 24.9221 21.4376 24.8818 21.4396Z" fill="#007EEF"/>
<path d="M25.5212 26.5426H24.2455C24.2277 26.5427 24.2101 26.5389 24.1939 26.5316C24.1777 26.5243 24.1632 26.5136 24.1515 26.5002C24.1277 26.4736 24.1147 26.4389 24.1152 26.4032L24.4394 21.7244C24.4486 21.613 24.4994 21.5091 24.5816 21.4334C24.6638 21.3577 24.7715 21.3157 24.8833 21.3157C24.9951 21.3157 25.1028 21.3577 25.1851 21.4334C25.2673 21.5091 25.3181 21.613 25.3273 21.7244L25.6485 26.4032C25.65 26.4208 25.6478 26.4385 25.642 26.4552C25.6363 26.4719 25.6271 26.4872 25.6152 26.5002C25.6034 26.5136 25.589 26.5243 25.5728 26.5316C25.5566 26.5389 25.539 26.5427 25.5212 26.5426ZM24.3818 26.285H25.3849L25.0818 21.7396C25.076 21.6935 25.0535 21.6511 25.0186 21.6203C24.9838 21.5896 24.9389 21.5727 24.8924 21.5727C24.846 21.5727 24.8011 21.5896 24.7662 21.6203C24.7313 21.6511 24.7089 21.6935 24.703 21.7396L24.3818 26.285Z" fill="#162B43"/>
<path d="M24.8818 21.5152C24.8648 21.5152 24.848 21.5118 24.8324 21.5053C24.8168 21.4987 24.8026 21.489 24.7907 21.4769C24.7789 21.4648 24.7696 21.4504 24.7633 21.4346C24.7571 21.4188 24.7541 21.4019 24.7545 21.3849V18.994L20.0667 17.2516C20.0349 17.2399 20.0091 17.2162 19.9949 17.1855C19.9807 17.1548 19.9792 17.1197 19.9909 17.088C20.0026 17.0562 20.0263 17.0304 20.057 17.0162C20.0877 17.002 20.1228 17.0006 20.1545 17.0122L24.9273 18.788C24.9523 18.7968 24.9739 18.8132 24.9891 18.835C25.0043 18.8567 25.0124 18.8826 25.0121 18.9092V21.3819C25.0125 21.3993 25.0094 21.4165 25.0031 21.4327C24.9967 21.4489 24.9872 21.4636 24.975 21.476C24.9629 21.4884 24.9484 21.4983 24.9324 21.505C24.9164 21.5118 24.8992 21.5152 24.8818 21.5152Z" fill="#162B43"/>
<path d="M5.6879 35.0243C6.67767 36.0154 7.98386 36.6277 9.37881 36.7546C9.9177 36.8095 10.4616 36.7239 10.9576 36.5061C11.1256 36.4353 11.2765 36.3295 11.4004 36.1957C11.5242 36.0619 11.6181 35.9033 11.6758 35.7303C10.5991 35.1125 9.41948 34.6946 8.19396 34.497C7.90485 34.4456 7.61184 34.4192 7.3182 34.4182C7.07674 34.407 6.83478 34.4233 6.59699 34.4667C6.41431 34.4889 6.23857 34.5503 6.0817 34.6465C5.92484 34.7427 5.79052 34.8715 5.6879 35.0243Z" fill="#162B43"/>
<path d="M3.14243 31.4608C3.28775 31.7028 3.45622 31.9301 3.64546 32.1396C3.84698 32.3546 4.06152 32.557 4.28788 32.7456C4.52025 32.9287 4.76758 33.0919 5.02727 33.2335C5.27526 33.3759 5.53855 33.4897 5.81212 33.5729C6.05086 33.6479 6.29654 33.6987 6.54546 33.7244C6.74833 33.7384 6.95215 33.7251 7.15152 33.685C7.30308 33.6596 7.44756 33.6025 7.5755 33.5174C7.70345 33.4323 7.81196 33.3211 7.89394 33.1911C7.72727 33.0214 7.5303 32.8699 7.33637 32.7062C7.13438 32.5424 6.9229 32.3906 6.70303 32.2517C6.25604 31.9555 5.78225 31.7018 5.28788 31.4941C5.06143 31.3978 4.82727 31.3208 4.58788 31.2638C4.39001 31.2104 4.18666 31.1799 3.98182 31.1729C3.82944 31.1578 3.6756 31.1757 3.53077 31.2254C3.38593 31.2751 3.25348 31.3554 3.14243 31.4608Z" fill="#162B43"/>
<path d="M1.70303 27.9092C1.85576 28.332 2.08139 28.7249 2.3697 29.0698C2.51543 29.2492 2.67338 29.4183 2.84243 29.5759C3.01455 29.7229 3.19908 29.8547 3.39394 29.9698C4.1394 30.4274 4.78485 30.385 5.08182 30.0728C4.6382 29.3636 4.05583 28.7514 3.3697 28.2728C2.67273 27.7941 2.06667 27.6486 1.70303 27.9092Z" fill="#162B43"/>
<path d="M1.42728 25.3485C1.49285 25.6357 1.6033 25.9108 1.75455 26.1636C1.91329 26.4214 2.10936 26.6543 2.33637 26.8546C2.77273 27.2364 3.21213 27.2939 3.44849 27.1273C3.40307 27.0007 3.34733 26.8781 3.28182 26.7606C3.22078 26.6333 3.15197 26.5098 3.07576 26.3909C2.91622 26.1471 2.72575 25.9251 2.50909 25.7303C2.1 25.3424 1.69091 25.2061 1.42728 25.3485Z" fill="#162B43"/>
<path d="M9.50606 30.8184C10.3307 31.4951 11.0012 32.3402 11.4727 33.2971C11.9758 34.3062 12.0788 35.1971 11.6818 35.7214C10.5654 35.2221 9.67893 34.3194 9.2 33.1941C9.10761 32.9451 9.04159 32.6872 9.00303 32.4244C8.97226 32.2002 8.97226 31.9729 9.00303 31.7487C9.04628 31.3859 9.22617 31.0532 9.50606 30.8184Z" fill="#162B43"/>
<path d="M7.0697 28.7214C7.62123 29.4382 8.01284 30.2649 8.21818 31.1457C8.27066 31.3646 8.30412 31.5877 8.31818 31.8123C8.33822 32.0007 8.33822 32.1907 8.31818 32.379C8.29202 32.6853 8.14874 32.9697 7.91818 33.173C7.72226 33.0235 7.54066 32.8561 7.37576 32.673C7.2093 32.4811 7.05545 32.2786 6.91515 32.0669C6.63938 31.621 6.45595 31.1244 6.37576 30.6063C6.3403 30.3819 6.33114 30.1541 6.34848 29.9275C6.36887 29.7442 6.41477 29.5647 6.48485 29.3942C6.58727 29.1038 6.79637 28.8633 7.0697 28.7214Z" fill="#162B43"/>
<path d="M5.22424 26.3638C5.38281 26.6893 5.50672 27.0305 5.59394 27.382C5.63775 27.5696 5.66913 27.7599 5.68788 27.9516C5.71467 28.1434 5.72783 28.3368 5.72727 28.5304C5.70909 29.3123 5.50606 29.8668 5.09697 30.0456C4.58755 29.3929 4.33042 28.5785 4.37272 27.7516C4.42727 26.9698 4.80303 26.4789 5.22424 26.3638Z" fill="#162B43"/>
<path d="M3.93941 24.6123C4.02327 24.8552 4.07621 25.1077 4.09698 25.3638C4.12877 25.6344 4.11958 25.9081 4.06971 26.1759C3.96971 26.7123 3.76668 27.0517 3.46365 27.1214C3.4021 27.0022 3.34943 26.8786 3.30607 26.7517C3.26995 26.615 3.24162 26.4764 3.22122 26.3365C3.17728 26.0564 3.17728 25.7712 3.22122 25.4911C3.36365 24.9426 3.63941 24.6426 3.93941 24.6123Z" fill="#162B43"/>
<path d="M2.01514 21.8184C1.81083 22.3512 1.77383 22.9337 1.90908 23.4881C1.97938 23.8024 2.08616 24.1075 2.22726 24.3971C2.33968 24.6161 2.49414 24.8107 2.68181 24.9699C2.7509 24.7391 2.78161 24.4985 2.77272 24.2578C2.77586 23.9466 2.74127 23.6363 2.66969 23.3335C2.5897 22.7794 2.3638 22.2564 2.01514 21.8184Z" fill="#162B43"/>
<path d="M2.68484 24.9697C3.00421 26.4601 3.55426 27.8915 4.31515 29.2122C5.38819 31.0976 6.83121 32.7468 8.55757 34.0606C10.2823 35.3667 12.2143 36.3736 14.2727 37.0394C15.7127 37.5303 17.2118 37.8269 18.7303 37.9212C17.2517 37.64 15.8014 37.2262 14.397 36.6849C12.42 35.9385 10.5606 34.9119 8.87575 33.6364C7.19715 32.3591 5.76041 30.792 4.63333 29.0091C3.83666 27.7387 3.18318 26.384 2.68484 24.9697Z" fill="#162B43"/>
<path d="M30.4182 30.8184C29.5935 31.4951 28.923 32.3402 28.4515 33.2971C27.9485 34.3062 27.8455 35.1971 28.2424 35.7214C29.3599 35.2207 30.2466 34.3156 30.7242 33.1881C30.8223 32.9421 30.8924 32.686 30.9333 32.4244C30.9641 32.2002 30.9641 31.9729 30.9333 31.7487C30.887 31.3841 30.7026 31.0511 30.4182 30.8184Z" fill="#162B43"/>
<path d="M32.8545 28.7214C32.3038 29.4387 31.9123 30.2652 31.7061 31.1457C31.6536 31.3646 31.6201 31.5877 31.6061 31.8123C31.5861 32.0007 31.5861 32.1907 31.6061 32.379C31.6362 32.6937 31.7898 32.9835 32.0333 33.1851C32.2285 33.0347 32.4101 32.8674 32.5758 32.6851C32.7435 32.4878 32.8974 32.2793 33.0364 32.0608C33.3039 31.6157 33.4781 31.1208 33.5485 30.6063C33.5839 30.3819 33.5931 30.1541 33.5758 29.9275C33.5576 29.736 33.5117 29.5482 33.4394 29.3699C33.3318 29.0886 33.1233 28.8574 32.8545 28.7214Z" fill="#162B43"/>
<path d="M34.7 26.3638C34.5414 26.6893 34.4175 27.0305 34.3303 27.382C34.2865 27.5696 34.2551 27.7599 34.2364 27.9516C34.2096 28.1434 34.1964 28.3368 34.197 28.5304C34.2152 29.3123 34.4182 29.8668 34.8273 30.0456C35.3361 29.3924 35.5941 28.5786 35.5546 27.7516C35.497 26.9698 35.1212 26.4759 34.7 26.3638Z" fill="#162B43"/>
<path d="M35.9727 24.6123C35.8889 24.8552 35.8359 25.1077 35.8151 25.3638C35.7834 25.6344 35.7925 25.9081 35.8424 26.1759C35.9424 26.7123 36.1454 27.0517 36.4485 27.1214C36.51 27.0022 36.5627 26.8786 36.6061 26.7517C36.6436 26.6154 36.672 26.4767 36.6909 26.3365C36.7348 26.0564 36.7348 25.7712 36.6909 25.4911C36.5606 24.9426 36.2757 24.6426 35.9727 24.6123Z" fill="#162B43"/>
<path d="M34.2364 35.0243C33.2466 36.0154 31.9404 36.6277 30.5454 36.7546C30.0066 36.8092 29.4627 36.7236 28.9667 36.5061C28.799 36.4348 28.6483 36.3288 28.5245 36.1951C28.4007 36.0614 28.3067 35.903 28.2485 35.7303C29.3256 35.1128 30.5049 34.694 31.7303 34.494C32.0197 34.445 32.3126 34.4197 32.606 34.4182C32.8475 34.407 33.0895 34.4233 33.3273 34.4667C33.5099 34.4889 33.6857 34.5503 33.8425 34.6465C33.9994 34.7427 34.1337 34.8715 34.2364 35.0243Z" fill="#162B43"/>
<path d="M36.7818 31.4607C36.6355 31.7028 36.466 31.9301 36.2757 32.1395C36.075 32.3552 35.8604 32.5576 35.6333 32.7455C35.4019 32.9299 35.1545 33.0932 34.8939 33.2334C34.4276 33.4985 33.912 33.6655 33.3788 33.7243C33.1759 33.7382 32.9721 33.725 32.7727 33.6849C32.622 33.6595 32.4782 33.6026 32.3508 33.5181C32.2235 33.4335 32.1153 33.3231 32.0333 33.194C32.2 33.0243 32.397 32.8728 32.5909 32.7092C32.7934 32.5446 33.0059 32.3928 33.2273 32.2546C33.6722 31.9567 34.1451 31.7029 34.6394 31.497C34.8667 31.4003 35.1019 31.3232 35.3424 31.2667C35.5402 31.2129 35.7436 31.1824 35.9485 31.1758C36.0997 31.1612 36.2522 31.1791 36.3959 31.2282C36.5396 31.2774 36.6712 31.3566 36.7818 31.4607Z" fill="#162B43"/>
<path d="M38.2243 27.9092C38.0689 28.3315 37.8424 28.724 37.5546 29.0698C37.4088 29.2492 37.2509 29.4183 37.0818 29.5759C36.9097 29.7229 36.7252 29.8547 36.5303 29.9698C35.7849 30.4274 35.1394 30.385 34.8424 30.0728C35.2869 29.3643 35.8691 28.7522 36.5546 28.2728C37.2515 27.7941 37.8576 27.6486 38.2243 27.9092Z" fill="#162B43"/>
<path d="M38.497 25.3487C38.4311 25.6354 38.3218 25.9103 38.1727 26.1638C38.0139 26.4215 37.8178 26.6544 37.5909 26.8547C37.1545 27.2366 36.7182 27.2941 36.4788 27.1275C36.5242 27.0009 36.58 26.8783 36.6455 26.7608C36.7077 26.6341 36.7765 26.5107 36.8515 26.3911C37.0103 26.1477 37.2009 25.9265 37.4182 25.7335C37.8242 25.3426 38.2333 25.2063 38.497 25.3487Z" fill="#162B43"/>
<path d="M37.9151 21.8184C37.5664 22.2564 37.3404 22.7793 37.2606 23.3335C37.1884 23.6382 37.1538 23.9507 37.1576 24.2638C37.1495 24.5043 37.1792 24.7446 37.2454 24.9759C37.4353 24.8181 37.591 24.6232 37.703 24.4032C37.8434 24.1133 37.9502 23.8083 38.0212 23.4941C38.1577 22.9378 38.1207 22.353 37.9151 21.8184Z" fill="#162B43"/>
<path d="M37.2485 24.9729C36.7475 26.3906 36.091 27.7484 35.2909 29.0214C34.1629 30.8044 32.7263 32.3724 31.0485 33.6517C29.3626 34.9208 27.5032 35.9413 25.5273 36.682C24.1213 37.2224 22.6701 37.6371 21.1909 37.9214C22.7162 37.8301 24.2224 37.5355 25.6697 37.0456C27.7288 36.3799 29.6609 35.3719 31.3849 34.0638C33.1117 32.7505 34.5548 31.1012 35.6273 29.2153C36.3829 27.8931 36.9297 26.4621 37.2485 24.9729Z" fill="#162B43"/>
</svg>
