<svg width="40" height="42" viewBox="0 0 40 42" fill="none" xmlns="http://www.w3.org/2000/svg">
<path d="M6.62729 9.64233V28.2605L6.82729 28.6635C6.97577 28.9666 10.5424 35.9181 19.4667 39.9029L20.2424 40.2484L21.0152 39.9029C29.9394 35.9181 33.5061 28.9575 33.6546 28.6635L33.8546 28.2605V9.64233H6.62729ZM32.8182 28.0181L32.7273 28.1999C32.5879 28.4787 29.1818 35.1211 20.6061 38.9575L20.2546 39.1151L19.9 38.9575C11.3 35.1211 7.89699 28.4848 7.75456 28.1999L7.66365 28.0181V10.6787H32.8152L32.8182 28.0181Z" fill="#162B43"/>
<path d="M31.9546 11.5422V27.8119C31.9546 27.8119 28.6485 34.415 20.2424 38.1816C11.8364 34.415 8.52728 27.8119 8.52728 27.8119V11.5422H31.9546Z" stroke="#162B43" stroke-width="0.5" stroke-miterlimit="10"/>
<path d="M22.197 3.67872L20.2424 2.60902L18.2849 3.67872L14.8849 1.81812V8.90902H25.6V1.81812L22.197 3.67872ZM24.7303 8.03933H15.7576V3.28175L18.2909 4.66963L20.2424 3.59993L22.197 4.66963L24.7303 3.28175V8.03933Z" fill="#162B43"/>
<path d="M22.197 5.3303L20.2424 4.25757L18.2849 5.3303L16.3303 4.25757V7.46363H24.1546V4.25757L22.197 5.3303Z" fill="#DBF122"/>
<path d="M29.6363 4.15305C29.5943 4.06779 29.5075 4.01377 29.4124 4.01367C29.3173 4.01357 29.2304 4.06741 29.1882 4.15257L28.6738 5.18961L27.5278 5.35565C27.4337 5.36929 27.3554 5.43518 27.326 5.52562C27.2965 5.61607 27.3209 5.7154 27.3889 5.78188L28.2193 6.59316L28.0233 7.73345C28.0072 7.82724 28.0457 7.92203 28.1227 7.97799C28.1997 8.03395 28.3017 8.04137 28.386 7.99712L29.4121 7.45818L30.4383 7.99712C30.5226 8.04137 30.6246 8.03395 30.7016 7.97799C30.7786 7.92203 30.8171 7.82724 30.801 7.73345L30.605 6.59316L31.4353 5.78188C31.5034 5.71539 31.5278 5.61604 31.4983 5.52558C31.4688 5.43513 31.3906 5.36925 31.2964 5.35564L30.1478 5.18961L29.6363 4.15305Z" fill="#DBF122" stroke="#162B43" stroke-width="0.5" stroke-linejoin="round"/>
<path d="M11.2937 4.15257C11.2514 4.06741 11.1645 4.01357 11.0694 4.01367C10.9744 4.01377 10.8876 4.06779 10.8455 4.15305L10.334 5.18966L9.18839 5.35565C9.09425 5.36929 9.01601 5.43518 8.98654 5.52562C8.95707 5.61607 8.98149 5.7154 9.04953 5.78188L9.87986 6.59316L9.68391 7.73345C9.66779 7.82728 9.70636 7.92213 9.78339 7.97807C9.86043 8.03402 9.96255 8.04136 10.0468 7.997L11.0699 7.45826L12.0959 7.99712C12.1801 8.04137 12.2822 8.03395 12.3591 7.97799C12.4361 7.92203 12.4746 7.82724 12.4585 7.73345L12.2626 6.59316L13.0929 5.78188C13.1609 5.7154 13.1854 5.61607 13.1559 5.52562C13.1264 5.43518 13.0482 5.36929 12.954 5.35565L11.8081 5.18961L11.2937 4.15257Z" fill="#DBF122" stroke="#162B43" stroke-width="0.5" stroke-linejoin="round"/>
<path d="M6.94848 18.2H3.90606L5.08181 21.1242L3.87878 24.0787H6.94848V18.2Z" fill="#162B43"/>
<path d="M6.90304 26.6817H0.30304L2.56668 21.112L0.348494 15.5999H6.90304V16.6362H1.88486L3.68486 21.112L1.84243 25.6423H6.90304V26.6817Z" fill="#162B43"/>
<path d="M33.097 24.0787H36.1394L34.9667 21.1575L36.1667 18.2H33.097V24.0787Z" fill="#162B43"/>
<path d="M39.697 26.6817H33.1394V25.6423H38.1636L36.3606 21.1665L38.203 16.6362H33.1394V15.5999H39.7424L37.4788 21.1696L39.697 26.6817Z" fill="#162B43"/>
<path d="M14.5606 19.9697V25.2758C14.5606 26.8728 17.2212 28.1667 20.5091 28.1667C23.797 28.1667 26.4545 26.8728 26.4545 25.2758V19.9697H14.5606Z" fill="#007EEF"/>
<path d="M26.7879 18.7878L20.6849 16.2059C20.5705 16.1635 20.4447 16.1635 20.3303 16.2059L14.2424 18.7878H11.8182V19.3756C11.817 19.4144 11.8285 19.4526 11.8509 19.4843C11.8733 19.516 11.9055 19.5396 11.9424 19.5514L20.3485 22.5484C20.4634 22.5878 20.5882 22.5878 20.703 22.5484L29.0909 19.5514C29.1279 19.5396 29.16 19.516 29.1825 19.4843C29.2049 19.4526 29.2164 19.4144 29.2152 19.3756V18.7878H26.7879Z" fill="#162B43"/>
<path d="M29.0909 18.612L20.6849 15.6151C20.57 15.5756 20.4452 15.5756 20.3303 15.6151L11.9243 18.612C11.8872 18.6241 11.8548 18.6476 11.8319 18.6792C11.809 18.7108 11.7967 18.7488 11.7967 18.7878C11.7967 18.8268 11.809 18.8648 11.8319 18.8964C11.8548 18.928 11.8872 18.9515 11.9243 18.9635L20.3303 21.9575C20.4447 22 20.5705 22 20.6849 21.9575L29.0909 18.9635C29.128 18.9515 29.1603 18.928 29.1833 18.8964C29.2062 18.8648 29.2185 18.8268 29.2185 18.7878C29.2185 18.7488 29.2062 18.7108 29.1833 18.6792C29.1603 18.6476 29.128 18.6241 29.0909 18.612Z" fill="#007EEF"/>
<path d="M25.2788 23.0939C25.1984 23.0939 25.1213 23.1258 25.0645 23.1826C25.0077 23.2395 24.9758 23.3166 24.9758 23.3969L24.6424 28.0666H25.9182L25.597 23.3878C25.5958 23.3475 25.5866 23.3078 25.5699 23.2711C25.5532 23.2344 25.5293 23.2013 25.4997 23.1739C25.4701 23.1466 25.4353 23.1254 25.3973 23.1116C25.3594 23.0979 25.3191 23.0919 25.2788 23.0939Z" fill="#007EEF"/>
<path d="M25.9182 28.1969H24.6424C24.6246 28.197 24.6071 28.1932 24.5909 28.1859C24.5746 28.1786 24.5602 28.1679 24.5485 28.1545C24.5246 28.1279 24.5117 28.0932 24.5121 28.0575L24.8485 23.3787C24.8577 23.2673 24.9085 23.1634 24.9907 23.0877C25.0729 23.012 25.1806 22.97 25.2924 22.97C25.4042 22.97 25.5119 23.012 25.5942 23.0877C25.6764 23.1634 25.7272 23.2673 25.7364 23.3787L26.0606 28.0575C26.0621 28.0751 26.0599 28.0928 26.0541 28.1095C26.0484 28.1262 26.0393 28.1415 26.0273 28.1545C26.014 28.17 25.9971 28.1819 25.978 28.1893C25.959 28.1967 25.9385 28.1993 25.9182 28.1969ZM24.7788 27.9393H25.7818L25.4788 23.3939C25.4757 23.3462 25.4546 23.3014 25.4197 23.2688C25.3848 23.2361 25.3387 23.218 25.2909 23.2181C25.2433 23.2187 25.1977 23.2371 25.1629 23.2696C25.1282 23.3021 25.1068 23.3464 25.103 23.3939L24.7788 27.9393Z" fill="#162B43"/>
<path d="M25.2788 23.1635C25.2615 23.1635 25.2445 23.16 25.2286 23.1532C25.2128 23.1465 25.1985 23.1365 25.1866 23.1241C25.1747 23.1116 25.1654 23.0969 25.1594 23.0807C25.1534 23.0646 25.1507 23.0474 25.1515 23.0301V20.6483L20.4636 18.9059C20.4319 18.8942 20.4061 18.8705 20.3919 18.8398C20.3777 18.8091 20.3762 18.774 20.3879 18.7423C20.3995 18.7105 20.4233 18.6847 20.454 18.6705C20.4847 18.6563 20.5198 18.6548 20.5515 18.6665L25.3242 20.4392C25.3493 20.4481 25.3709 20.4645 25.3861 20.4862C25.4013 20.508 25.4093 20.5339 25.4091 20.5604V23.0301C25.4095 23.0475 25.4064 23.0648 25.4001 23.0809C25.3937 23.0971 25.3842 23.1118 25.372 23.1242C25.3599 23.1367 25.3454 23.1465 25.3294 23.1533C25.3134 23.16 25.2962 23.1635 25.2788 23.1635Z" fill="#162B43"/>
</svg>
