<svg width="120" height="120" viewBox="0 0 120 120" fill="none" xmlns="http://www.w3.org/2000/svg">
<path d="M100.009 50.6905C99.2791 50.3468 98.5164 50.0782 97.7323 49.8887L96.8785 50.1995C94.9917 51.1565 92.9978 51.8291 91.0053 52.5017L91.4454 52.5536L91.2383 52.631C88.651 53.6658 86.0641 54.8299 83.5023 55.9167C78.5347 58.0392 70.7472 60.9872 64.8485 64.5573L64.124 64.971L63.9428 65.1261C62.8305 65.7733 61.7697 65.3851 60.6055 65.0488L55.9228 63.755C52.818 62.9013 49.6618 62.1513 46.557 61.3235C41.305 59.9523 36.053 58.3741 31.0599 56.2294L25.8089 58.8651L24.4881 59.384C22.289 60.2377 20.0639 61.0914 17.8648 62.0489L16.6228 62.6159H16.5195C15.9761 62.8489 15.3808 62.8748 14.8893 63.2111C13.4147 64.3234 12.509 65.9789 12.0434 67.7392C11.3448 70.0155 10.776 72.4475 11.3967 74.8016C11.8364 76.3539 12.1213 78.0614 13.0524 79.4325C13.3888 79.8462 13.6991 80.3896 14.2166 80.5966C14.3756 80.6691 14.5501 80.7012 14.7245 80.6901C14.8989 80.6789 15.0679 80.6248 15.2164 80.5327C15.3648 80.4405 15.4882 80.3131 15.5756 80.1617C15.663 80.0103 15.7116 79.8397 15.7171 79.6651C15.7949 78.9151 15.5619 78.1647 15.4341 77.4406C15.1511 76.095 14.6841 74.7993 14.4251 73.4564V73.4045C14.3992 73.1215 14.3992 72.8357 14.3732 72.5508C14.3473 72.2659 14.3992 71.9819 14.4251 71.8268C14.5873 70.9083 14.8386 70.0079 15.1756 69.1382C15.3236 68.8268 15.4877 68.5233 15.6671 68.2288L16.9087 68.8755C18.1627 69.5908 19.4586 70.2302 20.7894 70.79C23.2215 71.8249 25.8089 72.5234 28.3443 73.2475C30.3104 73.7389 32.2251 74.3323 34.1652 74.8512C36.1054 75.37 38.6936 75.886 40.9437 76.3775C45.4457 77.2826 49.8953 78.3434 54.4233 79.1453C58.2262 79.9217 62.1329 80.4131 66.0396 80.3098C66.2757 80.3963 66.528 80.4294 66.7784 80.407C67.0288 80.3846 67.2712 80.3071 67.4882 80.1801C70.852 77.9038 73.9035 75.2648 77.0092 72.7041C80.1149 70.1434 83.3994 67.4524 86.6321 64.8653C88.0552 63.7805 89.4524 62.6145 90.8492 61.4763C92.2459 60.3382 94.0832 58.8892 95.6096 57.4921L100.37 53.5861C100.572 53.3882 100.725 53.1464 100.818 52.8796C100.911 52.6128 100.941 52.3281 100.906 52.0477C100.871 51.7674 100.772 51.4989 100.616 51.2631C100.46 51.0274 100.252 50.8308 100.008 50.6886L100.009 50.6905Z" fill="#007EEF"/>
<path d="M99.6201 35.636C99.5591 35.3385 99.4292 35.0595 99.2408 34.8213C99.0524 34.5832 98.8107 34.3926 98.5352 34.2648C97.0347 33.6436 95.3275 33.5922 93.7237 33.3592C90.852 33.0488 86.1948 32.6088 84.9028 32.3762C77.9431 31.2121 71.0614 29.4518 64.0499 28.6769C62.7565 28.625 61.5144 28.9872 60.2984 29.3235C58.2545 29.8928 56.2888 30.6947 54.3223 31.4461C47.7985 34.1077 40.9427 35.7893 34.3468 38.3245C33.026 38.816 31.7052 39.2556 30.3882 39.6957L29.5354 39.9542L29.2523 40.032C28.7713 40.1076 28.317 40.3033 27.9315 40.6008L27.5952 40.756C26.4329 41.4351 25.4695 42.4076 24.8013 43.5761C23.9806 45.0386 23.5434 46.6849 23.5305 48.3618L23.4531 49.2414C23.4791 51.156 23.9187 53.2257 25.3678 54.5714C26.0405 55.1921 26.9197 55.5025 27.7221 55.9166C28.5245 56.3307 29.3 55.6336 28.7051 55.0369C28.5759 54.7006 28.2136 54.4162 28.0325 54.1313C28.2396 54.4417 27.9032 53.9761 27.8254 53.8728C27.7476 53.7695 27.4631 53.2002 27.282 52.8639C27.2244 52.6866 27.1552 52.5133 27.0749 52.3451C27.0749 51.2064 26.6872 49.7579 26.6353 49.0334C26.5281 48.3577 26.4849 47.6735 26.506 46.9897C26.5858 46.4164 26.7244 45.8529 26.9197 45.3081C27.1679 44.7638 27.4807 44.2513 27.8513 43.7818L27.9287 43.9115C28.8863 45.2567 30.542 45.8775 31.9651 46.6279C33.4663 47.3863 35.0129 48.0515 36.5959 48.6198C38.7186 49.2146 40.8649 49.7579 42.9862 50.3272C44.4093 50.6635 45.8324 50.8961 47.2292 51.2843C48.6259 51.6725 50.101 52.1639 51.5241 52.5776C53.5231 53.128 55.4913 53.7844 57.4205 54.544C59.4903 55.3459 61.5861 56.2515 63.8357 56.4307C64.5111 56.4325 65.1704 56.2245 65.7226 55.8355C70.1467 53.7129 74.3379 51.1013 78.5809 48.6693C81.2975 47.143 84.0659 45.6944 86.808 44.2459C91.077 42.4606 95.2681 40.5461 99.4852 38.658C100.811 37.8585 100.528 36.3067 99.6201 35.636ZM67.7976 35.5322V35.4001L68.0806 35.4775L67.7976 35.5322Z" fill="#DBF122"/>
<path d="M95.7634 44.4305C96.0738 43.7834 96.5913 43.2405 96.8757 42.591C97.1997 42.0086 97.3003 41.3281 97.1588 40.6769C96.9919 40.0498 96.7578 39.4426 96.4606 38.8657C96.0724 38.2969 95.1398 38.7624 95.3479 39.4091C95.5559 40.0557 95.9432 40.9095 95.9172 41.3236C95.7893 41.3241 95.6639 41.3599 95.5549 41.4269C91.9586 43.781 88.285 46.0059 84.4816 48.0237C81.5324 49.5501 78.4536 50.8694 75.5299 52.4995C75.2469 52.6806 74.8313 52.7825 74.754 53.1721C74.6766 53.5617 75.3747 54.2069 75.9181 53.7669C78.2724 52.4216 80.7819 51.3094 83.2141 50.0935C85.6462 48.8775 88.7246 47.196 91.3638 45.5654C92.5539 44.8928 93.7441 44.1683 94.8823 43.3924L94.7271 43.6249C94.4585 44.0668 94.3748 44.5967 94.4941 45.0998C93.0969 45.7979 91.7261 46.5743 90.3548 47.3242L88.2633 48.3883C87.9269 48.5954 87.4873 48.6987 87.2283 48.9836C87.1464 49.0746 87.0933 49.1879 87.0756 49.3091C87.058 49.4303 87.0766 49.554 87.1292 49.6647C87.1817 49.7753 87.2659 49.8679 87.371 49.9308C87.4761 49.9936 87.5975 50.024 87.7198 50.018C88.1081 49.9925 88.4184 49.7076 88.7548 49.5784L91.1869 48.3365C92.0666 47.8969 92.9204 47.3794 93.7997 46.9139C94.162 46.7068 94.6276 46.5257 95.0158 46.2932C95.0677 46.5516 95.0936 46.4998 94.6021 47.3021C94.3116 47.6916 94.1488 48.1615 94.136 48.6473C94.2398 49.3973 94.7054 50.0439 94.9898 50.7165C95.0322 50.8174 95.0669 50.9213 95.0936 51.0274L94.5243 51.234C93.1271 51.8292 92.377 52.1396 90.7977 52.683C89.2185 53.2263 86.917 54.2607 85.7528 54.8055C85.3736 54.9747 84.9849 55.1216 84.5886 55.2456C84.3056 55.3489 83.9419 55.4007 83.7867 55.6852C83.7297 55.7991 83.7062 55.9268 83.719 56.0536C83.7318 56.1803 83.7802 56.3008 83.8588 56.401C83.9374 56.5013 84.0428 56.5772 84.1628 56.6199C84.2828 56.6626 84.4125 56.6703 84.5367 56.6422C85.5368 56.3106 86.5138 55.913 87.4613 55.4522C88.3666 55.0904 89.2722 54.7541 90.1501 54.3673C91.0279 53.9805 91.9869 53.6428 93.0747 53.2546C94.1625 52.8664 94.5233 52.582 95.5064 52.2457C95.6473 52.2006 95.7693 52.1102 95.8536 51.9886C95.9378 51.8669 95.9794 51.7209 95.9719 51.5731C96.9554 51.3146 95.9465 49.7623 95.6361 49.1416C95.3257 48.5209 95.2738 48.7534 95.9979 47.4856C96.722 46.2177 96.3087 45.7007 95.7653 44.847C95.7653 44.8211 95.7394 44.7951 95.7394 44.7697V44.5626C95.7394 44.5366 95.7653 44.4848 95.7653 44.4588L95.7634 44.4305Z" fill="#162B43"/>
<path d="M81.3806 56.6149C79.3751 57.3053 77.407 58.0997 75.4842 58.995C74.6304 59.435 73.854 60.0298 73.0002 60.4699C71.4478 61.2717 69.9214 62.1514 68.3694 62.9533C66.8175 63.7551 64.7472 65.1003 63.5311 65.4885L63.3759 65.5404C63.4536 64.9195 63.4275 64.29 63.2986 63.6777C63.182 63.304 63.0166 62.9473 62.8066 62.6169C62.8014 62.5538 62.7839 62.4923 62.7551 62.4358V62.3839C62.8584 62.0217 62.8066 62.2028 63.0915 61.7113C63.3764 61.2198 63.6104 61.1925 63.9193 60.4958C64.0312 60.165 64.0126 59.804 63.8674 59.4864C64.825 59.0468 65.7543 58.7105 66.9722 58.1657C67.3859 57.9332 67.9553 57.8294 68.293 57.4931C68.3557 57.4095 68.3971 57.3119 68.4138 57.2087C68.4305 57.1055 68.422 56.9998 68.3889 56.9007C68.3558 56.8015 68.2993 56.7118 68.224 56.6393C68.1487 56.5668 68.057 56.5136 67.9567 56.4842C67.8359 56.458 67.711 56.4583 67.5904 56.4851C67.4697 56.5119 67.3564 56.5646 67.2581 56.6394C65.9906 57.2087 65.4991 57.3898 64.3335 57.8813L63.1952 58.3728C63.0681 58.2252 62.9635 58.0596 62.8849 57.8813C62.7037 57.312 62.833 57.1054 63.5056 56.0446C63.5715 55.8988 63.5809 55.7336 63.5321 55.5812C63.4833 55.4288 63.3797 55.2999 63.2413 55.2195C63.1029 55.139 62.9396 55.1127 62.783 55.1457C62.6264 55.1787 62.4875 55.2686 62.3933 55.398C61.4362 56.7186 61.1254 57.9587 62.2641 59.2784C62.4169 59.4841 62.5552 59.7001 62.6778 59.9251C62.6778 59.977 62.7037 60.0025 62.7037 60.0543C62.7037 60.1062 62.3674 60.4685 61.8759 61.1925C61.6085 61.589 61.4726 62.0597 61.4877 62.5377L60.6079 62.2792C60.3494 62.2273 60.1164 62.0722 59.8579 62.1241C59.7023 62.137 59.5573 62.208 59.4518 62.3231C59.3463 62.4381 59.288 62.5887 59.2885 62.7448C59.2885 63.4433 60.1423 63.4433 60.6339 63.6504C61.1009 63.7984 61.5761 63.9194 62.057 64.0126C62.1603 64.323 62.1344 64.6074 62.1089 65.4352C62.1089 65.513 62.083 65.5904 62.083 65.6682C60.4272 64.8763 58.6928 64.2607 56.9083 63.8315C56.5206 63.7537 56.1323 63.5485 55.7701 63.5726C55.6644 63.5849 55.5633 63.6229 55.4757 63.6834C55.3435 63.7748 55.2501 63.9121 55.2136 64.0687C55.1772 64.2252 55.2003 64.3897 55.2785 64.5301C55.4597 64.8664 55.8479 64.8664 56.1583 64.9697L58.281 65.5649C59.6973 65.9724 61.0606 66.5454 62.3429 67.2719C62.4906 67.3568 62.6658 67.3801 62.8306 67.3365C62.9953 67.293 63.1362 67.1862 63.2226 67.0394C64.3349 66.5479 65.9114 65.9267 67.2586 64.9956C68.009 64.556 68.811 64.1938 69.5869 63.8056C70.9322 63.0551 72.3035 62.3052 73.6748 61.6066C74.4767 61.167 75.2271 60.5977 76.055 60.1576C78.0211 59.2006 79.5221 58.6832 81.7466 57.8554C82.5448 57.6238 82.2085 56.4083 81.3806 56.6149Z" fill="#162B43"/>
<path d="M85.9595 49.8622C83.6571 51.1301 81.4061 52.5531 79.0518 53.7432C75.9215 55.269 72.7134 56.5888 69.7898 58.4514C68.6775 58.9703 69.5568 60.3381 70.4884 59.5363C73.1771 57.8547 76.1017 56.5614 78.9745 55.2162C80.9924 54.2332 82.9326 53.1205 84.8472 51.9564L86.3477 51.1287C86.5808 50.9994 86.8666 50.8697 86.9171 50.5853C86.9509 50.4607 86.9467 50.3288 86.905 50.2066C86.8633 50.0845 86.786 49.9775 86.683 49.8996C86.5801 49.8217 86.4562 49.7764 86.3272 49.7695C86.1983 49.7626 86.0702 49.7944 85.9595 49.8608V49.8622Z" fill="#162B43"/>
<path d="M69.6606 55.5537C68.8068 55.5537 68.8068 56.8211 69.6606 56.847C70.5144 56.873 70.5144 55.5537 69.6606 55.5537Z" fill="#162B43"/>
<path d="M51.8604 62.4355C51.55 61.9959 50.9293 62.0473 50.4632 61.8662C47.7985 61.2195 45.2112 60.3658 42.5725 59.5639C40.5804 59.0725 38.5365 58.6583 36.5959 57.9343C34.1383 57.0027 32.1203 56.175 29.9726 55.2929L29.8434 55.2156C29.1707 54.8793 29.3778 54.9326 29.0155 54.517L28.9377 54.4137C28.757 54.1029 28.6273 53.7925 28.4721 53.4562L28.4207 53.301L29.3778 53.7152L29.6882 53.8444C31.292 54.5689 32.8703 55.3189 34.4996 55.9141C36.1289 56.5094 37.7337 56.923 39.3634 57.3626L41.7691 58.0352C41.9617 58.097 42.1619 58.1319 42.364 58.139C42.4856 58.1235 42.6003 58.0738 42.6948 57.9956C42.7893 57.9174 42.8596 57.814 42.8975 57.6974C42.9355 57.5808 42.9396 57.4558 42.9092 57.337C42.8789 57.2182 42.8154 57.1105 42.7262 57.0263C42.3899 56.7679 41.9243 56.7679 41.5361 56.6127C38.8474 55.8622 36.103 55.2415 33.5171 54.1548C32.6378 53.7925 30.6972 52.8341 29.1707 52.2402L28.1358 51.7747L27.9032 51.6973C27.7995 51.3588 27.7216 51.0128 27.6702 50.6625C27.6702 50.6106 27.6443 50.5587 27.6443 50.4814C28.757 51.0002 29.8693 51.4384 31.0076 51.8785L32.2755 52.3973C32.4448 52.5041 32.6455 52.5499 32.8444 52.527C32.9479 52.5112 33.0461 52.4705 33.1304 52.4084C33.2147 52.3463 33.2828 52.2647 33.3286 52.1705C33.3744 52.0763 33.3967 51.9725 33.3936 51.8678C33.3904 51.7631 33.3619 51.6608 33.3104 51.5695C33.1553 51.2865 32.8444 51.2592 32.56 51.1299C30.6972 50.4054 29.4552 49.8621 27.8254 49.1894C27.7387 49.1703 27.6481 49.1794 27.5669 49.2154C27.541 48.5687 27.541 47.8188 27.5669 47.2494C29.8174 48.3343 32.0425 49.5003 34.4227 50.354L37.0874 51.2592C37.5275 51.3629 37.9672 51.6214 38.4327 51.6214C38.5369 51.6017 38.635 51.5576 38.7189 51.4928C38.8029 51.428 38.8703 51.3442 38.9157 51.2484C38.9612 51.1526 38.9833 51.0474 38.9804 50.9414C38.9774 50.8354 38.9495 50.7316 38.8988 50.6384C38.7177 50.3281 38.3294 50.3021 38.019 50.1984L36.9582 49.8621C34.8266 49.1878 32.7506 48.3488 30.7491 47.3527L28.3948 46.1886L27.8254 45.9302C27.9192 45.5527 28.0767 45.194 28.291 44.8694C28.3948 44.6364 28.6273 44.4298 28.6533 44.1449C28.673 43.9907 28.6363 43.8345 28.5499 43.7053C28.553 43.6271 28.5382 43.5492 28.5069 43.4775C28.4755 43.4057 28.4283 43.342 28.3688 43.2911C28.0858 43.0327 27.8773 42.6445 27.515 42.4893C27.418 42.4447 27.3111 42.426 27.2047 42.4347C27.0984 42.4435 26.996 42.4795 26.9076 42.5393C26.8192 42.5992 26.7477 42.6808 26.7 42.7763C26.6523 42.8718 26.63 42.9779 26.6353 43.0845C26.6353 43.3676 26.8424 43.5501 27.0235 43.7572L27.282 44.0156C26.273 45.6193 26.1438 47.6117 26.273 49.4743C26.3278 50.7643 26.5809 52.0381 27.0235 53.251C27.3065 53.9237 27.5424 54.6741 27.9806 55.2689C28.085 55.4363 28.2064 55.5924 28.3429 55.7349C28.4515 55.8517 28.573 55.9558 28.7051 56.0452C28.7889 56.1792 28.9171 56.2794 29.0674 56.3283C31.992 57.4664 35.4827 59.0706 38.9502 60.0276C40.2441 60.3899 41.5635 60.5969 42.8569 61.011C45.5994 61.8643 48.3419 62.6926 51.1359 63.3907C51.6534 63.5482 52.1708 62.8992 51.8604 62.4355Z" fill="#162B43"/>
<path d="M55.3535 61.0641C55.0426 60.5985 54.2926 60.6764 53.827 60.4952C51.3038 59.9142 48.823 59.1622 46.4019 58.2444L44.9268 57.7255C44.759 57.6411 44.571 57.6053 44.3839 57.6223C43.6853 57.6737 43.6334 58.7071 44.306 58.8637C47.6953 60.1056 51.0845 61.2957 54.6289 62.0202C54.7535 62.054 54.8854 62.0498 55.0076 62.0081C55.1298 61.9664 55.2367 61.8891 55.3146 61.7861C55.3926 61.6832 55.4379 61.5592 55.4448 61.4303C55.4517 61.3014 55.4199 61.1734 55.3535 61.0627V61.0641Z" fill="#162B43"/>
<path d="M61.0193 58.8397C58.9494 58.1152 56.7503 57.8822 54.6545 57.2096C53.3337 56.7959 52.8176 56.4851 51.4723 55.9422C50.127 55.3993 49.2732 55.2436 48.1609 54.9587C48.0029 54.9328 47.8408 54.9664 47.7062 55.0531C47.5715 55.1397 47.4738 55.2733 47.4319 55.4278C47.39 55.5824 47.407 55.747 47.4796 55.8898C47.5521 56.0326 47.6751 56.1433 47.8246 56.2007C49.2095 56.5393 50.5672 56.9808 51.8865 57.5214C52.1969 57.6251 53.3351 58.1425 54.137 58.427C54.9389 58.7114 55.9484 58.9185 56.8795 59.1255C57.8107 59.3326 58.6131 59.4618 59.4669 59.7203C60.3207 59.9788 60.4499 60.1085 60.9155 60.1085C61.3811 60.1085 61.666 58.9949 61.0193 58.8397Z" fill="#162B43"/>
<path d="M46.065 54.6487C44.0471 54.002 41.9772 53.5879 39.9328 53.0704L37.6818 52.3978C37.572 52.3453 37.451 52.3202 37.3293 52.3247C37.2076 52.3293 37.0889 52.3632 36.9832 52.4238C36.8992 52.4741 36.8276 52.5428 36.7738 52.6247C36.6929 52.7483 36.6568 52.8959 36.6714 53.0428C36.686 53.1898 36.7504 53.3274 36.854 53.4327C37.1643 53.6916 37.578 53.6916 37.9389 53.8468C38.7667 54.0798 39.6205 54.3383 40.4743 54.5454C41.3281 54.7524 42.8546 55.0642 44.0447 55.3991L45.3655 55.7868C45.5631 55.867 45.7735 55.9109 45.9867 55.9165C46.6585 55.8387 46.7377 54.8038 46.065 54.6487Z" fill="#162B43"/>
<path d="M47.8505 52.9409C47.7622 52.8002 47.6232 52.6989 47.4623 52.6579L46.0136 52.2697L42.1329 51.1056C41.8225 51.0023 41.4862 50.8226 41.1753 51.0023C41.0719 51.0703 40.9893 51.1656 40.9366 51.2776C40.8839 51.3896 40.8631 51.5139 40.8765 51.6369C40.8899 51.76 40.937 51.8769 41.0126 51.9749C41.0882 52.0729 41.1894 52.1481 41.305 52.1923L45.2631 53.3824C45.9099 53.5375 46.7382 53.8738 47.3858 53.9257C47.49 53.9058 47.5881 53.8617 47.6722 53.797C47.7561 53.7322 47.8236 53.6485 47.8689 53.5526C47.9144 53.4567 47.9365 53.3514 47.9335 53.2454C47.9305 53.1393 47.9023 53.0354 47.8514 52.9423L47.8505 52.9409Z" fill="#162B43"/>
<path d="M84.1227 75.2157C81.3547 76.9745 78.5603 78.7339 75.973 80.7777C74.9331 81.6191 73.9399 82.5166 72.9979 83.4662C72.3332 84.0705 71.7189 84.728 71.161 85.4322C71.1035 85.5711 71.0962 85.7257 71.1403 85.8694C71.1844 86.0131 71.2773 86.137 71.4029 86.2197C71.5284 86.3024 71.6789 86.3387 71.8284 86.3225C71.9779 86.3063 72.117 86.2384 72.2219 86.1307C75.7404 82.1215 79.5693 79.6117 84.0967 76.7915C84.4335 76.5085 84.9505 76.3779 85.0803 75.9378C85.1142 75.8132 85.1101 75.6813 85.0684 75.559C85.0267 75.4368 84.9494 75.3299 84.8464 75.252C84.7433 75.1741 84.6193 75.1288 84.4904 75.122C84.3614 75.1152 84.2333 75.1472 84.1227 75.2138V75.2157Z" fill="#162B43"/>
<path d="M70.7988 81.7601C71.0549 81.5602 71.2814 81.325 71.4715 81.0615L71.7304 80.8285C72.8427 79.9493 74.3951 78.7333 75.9475 77.6725C78.3552 76.1965 80.6628 74.5632 82.8552 72.7831C83.2949 72.2643 82.6222 71.4898 82.0274 71.852C80.7594 72.7831 79.5433 73.7661 78.2499 74.6458C76.9565 75.5254 75.4041 76.4051 74.0847 77.414C72.7654 78.4229 71.1092 79.587 69.7379 80.8285C69.2105 81.2855 68.6482 81.7007 68.0563 82.0704L66.918 82.3534C66.8323 82.2882 66.769 82.1978 66.7369 82.0949C66.6794 81.858 66.6619 81.6131 66.685 81.3704H66.6591C66.6799 81.3308 66.6888 81.2858 66.6845 81.2412C66.7105 81.1893 66.7105 81.1379 66.7364 81.086C66.758 80.9666 66.7667 80.8451 66.7624 80.7238C66.7105 80.0512 65.6774 79.9738 65.4944 80.6464C65.3114 81.319 65.1326 81.9138 65.184 82.5864V82.6897L64.901 82.9227H63.9703C61.7713 82.8498 59.5777 82.6598 57.3989 82.3534C54.8189 82.1476 52.2528 81.7939 49.7134 81.294C46.7119 80.6988 43.7628 80.0002 40.7872 79.3536C40.4509 79.2762 40.1145 79.121 39.8042 79.3017C39.7203 79.349 39.6481 79.4144 39.5928 79.4932C39.5375 79.572 39.5004 79.6621 39.4844 79.757C39.4683 79.852 39.4737 79.9492 39.5 80.0418C39.5264 80.1344 39.5731 80.22 39.6367 80.2922C39.722 80.3899 39.8348 80.4596 39.9603 80.4922C43.9698 81.3978 48.0067 82.3548 52.0686 83.002C53.8536 83.3123 55.6649 83.4935 57.5018 83.6746C59.5008 83.951 61.5128 84.1241 63.5297 84.1934L64.0213 84.0897H64.5128L64.5906 84.1415L64.8491 84.2708L64.9529 84.3746H65.0043C65.2139 84.5865 65.3731 84.8428 65.4704 85.1245C65.5996 85.3575 65.3666 86.1334 65.2373 87.039C61.3047 87.1423 58.0447 86.4438 54.0606 85.7184L52.7672 85.4353C52.685 85.4085 52.5975 85.4014 52.512 85.4146C52.4267 85.4281 52.3458 85.4619 52.2762 85.5132C52.1718 85.5793 52.0886 85.6739 52.0363 85.7859C51.984 85.8978 51.9649 86.0224 51.9812 86.1449C51.9976 86.2673 52.0486 86.3826 52.1284 86.4769C52.2082 86.5713 52.3133 86.6408 52.4314 86.6773C56.5187 87.5051 60.6325 88.3588 64.8236 88.3588H65.16C65.1256 88.6333 65.117 88.9105 65.1345 89.1866C65.1496 89.3519 65.1755 89.5161 65.2119 89.6781C63.6307 89.7254 62.0483 89.6562 60.4773 89.471H60.6585C59.8306 89.3936 59.0287 89.1347 58.2263 89.0573C58.1077 89.0775 57.9967 89.1292 57.9049 89.2068C57.813 89.2845 57.7437 89.3854 57.7041 89.499C57.6645 89.6126 57.6561 89.7347 57.6797 89.8526C57.7034 89.9706 57.7582 90.08 57.8386 90.1696C58.0971 90.4026 58.4853 90.3766 58.7957 90.4526C59.1061 90.5285 60.0636 90.6851 60.7103 90.7629C62.3247 90.9479 63.9522 90.9911 65.5741 90.8922C65.7213 91.2654 65.8165 91.6571 65.8572 92.0563C65.8572 92.4704 65.935 92.884 65.909 93.2982V93.3496C63.4138 93.0552 60.9354 92.6322 58.4839 92.0822C57.3197 91.7992 56.181 91.3836 55.0404 91.0473C53.8998 90.711 52.6601 90.4526 51.47 90.1936C50.2799 89.9347 50.0214 91.0473 50.9271 91.3836C51.8328 91.72 53.4625 91.953 54.7041 92.2893C56.4872 92.9073 58.3113 93.4 60.1632 93.7637C62.5175 94.1779 64.8718 94.5656 67.2261 94.8245C67.3626 94.8029 67.4891 94.7396 67.5883 94.6434C68.261 94.5142 69.0629 93.9967 69.7356 93.5585C70.4082 93.1204 71.521 91.9808 72.4007 91.153C73.6643 89.8544 75.0312 88.6606 76.4881 87.5834L78.791 85.9797C78.9348 85.8841 79.0382 85.7387 79.0811 85.5715C79.1241 85.4043 79.1035 85.227 79.0235 85.074C78.4806 84.2981 77.7027 85.2038 77.1867 85.5141C75.967 86.3755 74.7926 87.2993 73.6682 88.2819C72.1418 89.6026 70.7964 91.1535 69.2181 92.4473C68.9536 92.6581 68.6673 92.8403 68.3643 92.9906C68.3642 92.9974 68.3615 93.0038 68.3567 93.0085C68.352 93.0133 68.3455 93.016 68.3388 93.0161L68.2351 93.068L67.8728 93.2751L67.6143 93.4043C67.6158 93.2034 67.5896 93.0033 67.5364 92.8095C67.5105 92.7576 67.5105 92.6798 67.485 92.6284V92.318C67.4644 92.2876 67.4552 92.2508 67.4591 92.2143C67.4072 92.0331 67.3813 91.878 67.3298 91.6954C67.2784 91.5129 67.278 91.3591 67.2261 91.1766C67.0968 90.504 66.8638 89.8559 66.6827 89.1847C66.5789 88.8054 66.5614 88.4076 66.6312 88.0206C66.7864 87.2447 67.1501 86.4683 67.0709 85.6405C67.0633 85.2291 67.0024 84.8203 66.8897 84.4245L68.1317 83.7519C68.2435 83.6847 68.3333 83.5863 68.3902 83.4689L68.6733 83.2878L68.9058 83.1845C69.3748 82.9368 69.8173 82.6421 70.2266 82.3048L70.796 81.8393L70.7988 81.7601Z" fill="#162B43"/>
<path d="M111.935 61.6334C111.47 61.4263 110.952 61.7367 110.461 61.7626C107.536 62.306 105.493 62.6423 102.544 62.7201C101.328 62.7715 100.086 62.7456 98.8437 62.7456C98.7991 62.603 98.7731 62.4553 98.7664 62.306C98.7589 62.0054 98.8117 61.7063 98.9216 61.4263C98.9203 61.4123 98.9219 61.3982 98.9263 61.3848C98.9309 61.3716 98.9381 61.3594 98.9475 61.349C98.9475 61.2971 98.9734 61.2711 98.9734 61.2193L99.0768 60.8056C99.1027 60.7537 99.1027 60.7023 99.1286 60.6504V60.4933C99.1474 60.3735 99.1561 60.2524 99.1546 60.1311C99.1758 60.0029 99.1843 59.8728 99.1801 59.7429H99.1286C99.0918 59.507 99.04 59.2737 98.9734 59.0444C98.8697 58.6566 98.7145 58.2685 98.6371 57.8803V57.4666C98.715 57.0216 98.8451 56.5873 99.0249 56.1728C99.1027 55.9143 99.3079 55.654 99.2319 55.3969C99.1801 54.6983 98.147 54.6465 97.9904 55.2931C97.8338 55.9398 97.1621 57.3369 97.421 58.3977C97.4984 58.6807 97.6281 59.0444 97.7041 59.3807C97.6354 59.3045 97.5502 59.245 97.4551 59.2067C97.3599 59.1683 97.2573 59.1522 97.155 59.1595C97.0525 59.1669 96.9531 59.1977 96.8644 59.2496C96.7757 59.3014 96.7 59.3729 96.6432 59.4585C95.5809 61.2656 94.1851 62.8545 92.5299 64.1408C91.0549 65.2535 88.5972 66.7539 86.6566 68.1251L85.1821 69.1599C85.1057 69.1949 85.0395 69.2489 84.9899 69.3168C84.9404 69.3847 84.9091 69.4642 84.899 69.5476C84.8694 69.6688 84.8754 69.7959 84.9165 69.9137C84.9579 70.0312 85.032 70.1345 85.1302 70.2113C85.2287 70.2876 85.3471 70.334 85.4712 70.3448C85.5954 70.3556 85.72 70.3303 85.8302 70.2721C87.4085 69.1873 88.9609 68.0991 90.5648 67.0383C91.8543 66.2651 93.0749 65.3823 94.2129 64.3998C95.2921 63.4387 96.2637 62.3632 97.1107 61.1924L97.7833 60.1075L97.8607 59.9005C97.8607 60.0042 97.8866 60.0556 97.8607 60.0816C97.9126 60.5217 97.7055 60.832 97.5503 61.6079C97.4558 62.0785 97.4646 62.5641 97.5762 63.031C97.7314 63.6776 97.9899 64.3243 98.0678 64.9969C98.0891 65.0637 98.0978 65.1339 98.0937 65.204C98.1069 65.3786 98.1327 65.552 98.1711 65.7228C98.0765 65.7699 97.9962 65.8414 97.9385 65.9299C96.2309 68.7236 93.3332 70.2221 90.5648 72.5805C89.0383 73.9776 87.7708 75.6072 86.3996 77.1595C85.0283 78.7118 84.1745 79.5137 83.0622 80.7037C82.7518 80.9108 82.4929 81.2471 82.1565 81.4801C81.3806 82.1267 80.7853 82.5649 79.7508 83.3168C79.6211 83.4109 79.5309 83.5498 79.4978 83.7066C79.4647 83.8634 79.491 84.0269 79.5716 84.1654C79.6522 84.3039 79.7814 84.4076 79.9341 84.4563C80.0867 84.505 80.2521 84.4952 80.398 84.429C81.2773 83.7823 82.1829 83.1357 83.0367 82.4371C83.2438 82.23 83.5023 82.0749 83.7094 81.8678C83.9165 81.6607 84.3302 81.1952 84.6405 80.9367C85.7793 79.7467 86.9434 78.5826 88.0043 77.2892C89.0652 75.9959 89.9445 74.9346 91.0567 73.9003C91.0735 74.0164 91.1242 74.1251 91.2025 74.2125C91.2808 74.3 91.3832 74.3623 91.4968 74.3917C93.0813 74.9084 94.6972 75.3231 96.3347 75.6332C98.2494 75.9436 100.19 76.0992 102.13 76.2799C104.07 76.4605 105.235 76.668 106.761 76.7987C102.984 78.9212 99.3084 81.2225 95.7139 83.6286C90.1745 87.2739 84.9164 91.3295 79.9838 95.7615L75.12 100.237C74.0073 101.322 72.9723 102.462 71.8341 103.497C71.2133 104.066 70.0751 105.204 69.8161 105.36C69.0656 105.541 68.1864 105.282 66.9444 105.049C65.1075 104.635 63.3221 104.118 61.4853 103.755C59.0276 103.29 56.5441 102.902 54.1379 102.203C50.852 101.091 47.5406 99.9782 44.2028 98.9957C40.4258 97.7284 36.571 96.6416 32.6124 96.0209C28.1109 95.1931 22.8329 94.7002 18.9002 94.1064C16.2615 93.6408 13.5963 93.2267 11.0868 92.2437C10.8924 92.1121 10.6718 92.0239 10.4401 91.9852H10.3623L10.2849 91.9333L10.1038 91.8301H10.0779C11.2939 91.1056 12.4322 90.2264 13.6223 89.45C15.3039 88.4151 16.8823 87.1991 18.5899 86.1643C19.521 85.5695 20.4526 84.9483 21.3324 84.2776L21.5909 84.045C23.2985 84.821 25.032 85.4676 26.7396 86.1921C30.5166 87.8218 34.4233 89.2189 38.563 89.607C40.2706 89.8141 42.0036 90.0207 43.7372 90.1759L46.0655 90.3829C46.237 90.3777 46.4015 90.3137 46.5316 90.2018C46.6255 90.1114 46.6899 89.9946 46.7163 89.8669C46.7427 89.7392 46.7299 89.6064 46.6794 89.4861C46.629 89.3659 46.5434 89.2636 46.4339 89.1929C46.3243 89.1221 46.1959 89.0861 46.0655 89.0896L43.0386 88.8066C39.831 88.4703 37.5021 88.3151 34.3973 87.5652C31.8619 86.944 29.4302 85.9096 27.024 84.9007C25.1372 84.1243 23.5056 83.5295 21.9532 82.805C21.8548 82.7276 21.7395 82.6745 21.6168 82.6498C20.013 81.8994 18.4861 81.0461 16.8563 80.3471C16.4422 80.1919 15.9506 79.8042 15.511 79.9075C15.393 79.944 15.2878 80.0135 15.2081 80.1079C15.1283 80.2022 15.0772 80.3174 15.0609 80.4399C15.0446 80.5624 15.0637 80.6869 15.1159 80.7989C15.1682 80.9108 15.2515 81.0055 15.3558 81.0716C17.0375 81.7702 18.6413 82.6498 20.2975 83.4517C19.1073 84.3314 17.5549 85.2624 16.1577 86.194C14.7605 87.1256 13.7001 87.8755 12.4581 88.6774C11.2161 89.4792 10.0524 90.3589 8.78443 91.1093C8.6574 91.1849 8.56005 91.3017 8.50856 91.4403C8.45708 91.5789 8.45455 91.7309 8.50141 91.8711C8.53289 91.9638 8.5848 92.0483 8.6533 92.1182C8.6533 92.1442 8.67924 92.1442 8.67924 92.1701C8.91416 92.5251 9.22313 92.825 9.58492 93.0493L10.1798 93.2823L10.2835 93.3342C12.0171 94.0842 13.8798 94.4983 15.7681 94.8606C19.2871 95.5846 22.8574 95.9454 26.4018 96.4128C29.1439 96.7492 32.9992 97.318 36.2332 98.0684C38.8201 98.6373 41.3277 99.4651 43.8395 100.267L44.098 100.345C45.9849 100.94 47.9014 101.483 49.7897 102.13C51.6779 102.777 52.9464 103.242 54.5502 103.682C57.1116 104.355 59.7248 104.717 62.3117 105.286C63.9155 105.674 65.5193 106.114 67.176 106.45C68.3401 106.631 69.8147 107.149 70.7978 106.269C72.7643 104.51 74.6012 102.622 76.4639 100.785C80.7843 96.7756 85.5448 92.5064 89.8397 89.35C94.1346 86.1935 98.9725 82.9861 103.708 80.0886C105.545 78.8986 107.589 78.0189 109.374 76.7256C109.448 76.6533 109.504 76.565 109.538 76.4675C109.572 76.37 109.584 76.2659 109.571 76.1633C109.559 76.0606 109.523 75.9623 109.466 75.8759C109.409 75.7894 109.334 75.7172 109.244 75.6648C109.041 75.5749 108.816 75.548 108.598 75.5874C108.157 75.6046 107.716 75.5959 107.277 75.5615C105.543 75.4577 103.833 75.1474 102.076 75.0181C99.8258 74.8111 98.0404 74.6559 96.1517 74.3196C95.1427 74.1125 94.1596 73.854 93.1766 73.5696C92.737 73.4658 92.2969 73.2588 91.8558 73.1814H91.9072C93.3304 72.0173 95.7625 70.4391 97.4182 68.7316C97.8829 68.2687 98.3069 67.7667 98.6857 67.2312C98.8154 66.9482 99.0999 66.7124 99.1518 66.4034C99.1602 66.2973 99.1424 66.1907 99.0999 66.0931C99.1938 66.0449 99.274 65.9737 99.3329 65.886C99.5135 65.5238 99.3584 65.1101 99.3329 64.7479C99.3074 64.3856 99.2551 64.3337 99.2032 64.1012C102.179 64.1267 105.128 64.0493 108.077 63.5578L110.897 63.039C111.26 62.9612 111.699 62.9871 112.01 62.756C112.092 62.6904 112.157 62.6061 112.199 62.5102C112.262 62.3655 112.269 62.2028 112.22 62.0528C112.172 61.9027 112.07 61.7757 111.934 61.6957L111.935 61.6334Z" fill="#162B43"/>
<path d="M37.9673 78.8109C37.7088 78.3972 37.1395 78.4486 36.6999 78.292C34.0866 77.594 31.4219 77.102 28.8346 76.3002C26.6614 75.5757 24.5142 74.7224 22.3405 73.946C20.1669 73.1697 17.839 72.0315 16.0022 70.4556L15.8729 70.3778C16.0795 69.8863 16.2866 69.3948 16.5196 68.9293C16.7527 68.4637 16.8819 68.0756 16.7522 67.6614C16.6225 67.2473 16.0022 66.161 15.6673 65.4111C15.5743 65.2781 15.4348 65.1849 15.2764 65.1499C15.118 65.115 14.9522 65.1409 14.8119 65.2225C14.6717 65.304 14.5673 65.4353 14.5193 65.5903C14.4714 65.7453 14.4834 65.9126 14.5531 66.0591C14.8361 66.7577 15.3814 67.6888 15.5107 67.9991C15.3349 68.4493 15.1362 68.8901 14.9154 69.3198C14.4077 70.3774 14.0508 71.5008 13.855 72.6574C13.6738 73.6144 14.3205 75.9426 14.3465 76.2016C14.3724 76.4605 14.3979 77.1067 14.5017 77.5223C14.547 77.617 14.6138 77.6999 14.6969 77.7642C14.78 77.8285 14.8769 77.8725 14.98 77.8926C15.0831 77.9127 15.1895 77.9084 15.2907 77.8801C15.3918 77.8517 15.4849 77.8001 15.5625 77.7293C15.651 77.6231 15.7114 77.4964 15.7385 77.3608C15.7656 77.2253 15.7585 77.0851 15.7177 76.953C15.6896 76.5536 15.6378 76.1562 15.5625 75.7629C15.3295 74.5215 15.0965 73.9781 15.1224 72.9173C15.1853 72.4884 15.2799 72.0648 15.4055 71.6499C16.3651 72.4216 17.3861 73.1137 18.4584 73.7192C20.1919 74.5729 22.0547 75.1941 23.8656 75.8667C25.6765 76.5393 27.5921 77.3152 29.5058 77.8586C32.0672 78.5571 34.6805 79.0746 37.2419 79.7731C37.3665 79.8069 37.4983 79.8027 37.6205 79.761C37.7427 79.7193 37.8497 79.642 37.9276 79.5391C38.0055 79.4361 38.0508 79.3122 38.0577 79.1833C38.0646 79.0544 38.0328 78.9263 37.9664 78.8156L37.9673 78.8109Z" fill="#162B43"/>
<path d="M39.1834 83.0799C38.873 82.8215 38.3815 82.8215 37.9673 82.6922C34.2677 81.7866 30.4907 81.0885 26.9459 79.665C24.3331 78.5269 21.0967 77.1557 18.0202 75.9142C17.2183 75.7072 16.856 76.9232 17.6838 77.1557C19.5707 77.9575 21.6424 78.7594 23.091 79.4065C24.5397 80.0537 26.6109 80.9848 28.4468 81.5777C30.5707 82.2617 32.7297 82.8317 34.9144 83.2851L37.7607 83.9577C38.1225 84.0355 38.4589 84.2167 38.8211 84.1907C38.9428 84.1752 39.0575 84.1255 39.152 84.0473C39.2464 83.9691 39.3168 83.8657 39.3547 83.7491C39.3927 83.6325 39.3967 83.5075 39.3664 83.3887C39.3361 83.2699 39.2726 83.1622 39.1834 83.0781V83.0799Z" fill="#162B43"/>
<path d="M46.7378 84.9161C45.0307 84.5024 43.4004 83.8039 41.6669 83.5449C40.9943 83.6227 40.9169 84.6576 41.5895 84.8128C42.9103 85.1231 44.2023 85.5373 45.4962 85.925C45.9618 86.0028 46.4015 86.2613 46.8675 86.2358C47.7213 86.0802 47.5661 84.9939 46.7378 84.9161Z" fill="#162B43"/>
<path d="M25.7558 81.7866C25.5491 81.4762 25.1609 81.4243 24.8505 81.2951C23.5826 80.8036 22.341 80.2343 21.0471 79.7687C20.5283 79.6136 19.883 79.3027 19.3655 79.3027C18.848 79.3027 18.6155 80.4154 19.2622 80.5706C20.8401 80.9847 22.3151 81.6554 23.8416 82.2781C24.2812 82.4073 24.7987 82.7695 25.2642 82.7436C25.37 82.7315 25.4711 82.6935 25.5586 82.633C25.6461 82.5724 25.7174 82.4912 25.766 82.3965C25.8146 82.3019 25.8391 82.1967 25.8373 82.0903C25.8355 81.9839 25.8075 81.8796 25.7558 81.7866Z" fill="#162B43"/>
<path d="M79.4139 65.9273C76.3356 68.4371 73.8515 70.4809 70.7732 72.6279C68.9104 73.9991 67.5655 75.1891 65.9348 76.3542C65.8054 76.4483 65.7155 76.5872 65.6826 76.7438C65.6496 76.9004 65.6759 77.0637 65.7563 77.202C65.8368 77.3404 65.9657 77.444 66.1181 77.4928C66.2706 77.5417 66.4357 77.5322 66.5816 77.4664C68.7042 75.94 70.126 74.6726 72.0925 73.2755C74.9643 71.3096 77.629 69.0069 80.3475 66.8339C80.4676 66.7103 80.5337 66.5441 80.5312 66.3719C80.5288 66.1996 80.458 66.0354 80.3345 65.9153C80.2109 65.7952 80.0448 65.7291 79.8725 65.7315C79.7002 65.7339 79.5359 65.8047 79.4158 65.9282L79.4139 65.9273Z" fill="white"/>
<path d="M82.674 63.2373C81.8202 63.2628 81.8202 64.5306 82.674 64.5306C83.5278 64.5306 83.5278 63.2628 82.674 63.2373Z" fill="white"/>
<path d="M64.4085 76.69C64.2364 76.59 64.0317 76.562 63.8391 76.6122L63.0372 76.5608C61.9763 76.457 59.622 76.0174 57.9899 75.7589C55.713 75.4759 54.3417 75.3448 52.1686 74.9825C49.1935 74.4637 46.2958 73.56 43.3476 72.9647C41.2522 72.4992 39.1305 72.1369 37.0352 71.5936C34.9398 71.0502 33.5681 70.5087 31.8346 70.0153L30.6444 69.6536C30.4426 69.5584 30.2206 69.5138 29.9977 69.5238C29.3251 69.5757 29.2477 70.6087 29.9204 70.7917C32.4039 71.5162 34.8615 72.3699 37.3455 73.0166C40.3984 73.7406 43.4778 74.258 46.5297 75.0085C48.1081 75.3967 49.6864 75.8363 51.3162 76.1466C53.5412 76.5608 55.7922 76.7678 58.0173 77.0523C58.664 77.1815 61.4065 77.673 62.7518 77.8022C63.2707 77.8541 63.8368 77.9833 64.3297 77.8282C64.4443 77.788 64.5446 77.7151 64.6182 77.6185C64.6918 77.5219 64.7354 77.4059 64.7437 77.2847C64.752 77.1636 64.7245 77.0427 64.6648 76.937C64.605 76.8313 64.5156 76.7454 64.4075 76.69H64.4085Z" fill="white"/>
<path d="M68.2627 51.363C67.7972 51.2593 67.4089 51.646 66.9693 51.7767C64.8221 52.7342 63.5801 53.4582 61.9763 52.7082C59.8536 51.7767 57.578 51.2333 55.3789 50.5093C53.1798 49.7853 50.9548 48.9829 48.7556 48.2325C46.5565 47.4821 43.7084 46.0854 41.0456 45.5161C40.595 45.4095 40.1363 45.3402 39.6743 45.3091C39.4677 45.3091 39.2347 45.2317 39.0535 45.335C38.4068 45.568 38.6139 46.5769 39.312 46.5769C41.6923 46.6802 44.59 48.0514 47.2551 49.0603C50.7996 50.3541 54.3695 51.5696 57.9658 52.6823C59.179 52.9992 60.3644 53.4144 61.5102 53.9237C63.2437 54.7001 64.6669 54.2346 66.2966 53.4841L67.8231 52.8115C68.0816 52.6823 68.4179 52.6304 68.5991 52.3719C68.6686 52.2905 68.7158 52.1926 68.7363 52.0876C68.7568 51.9825 68.7498 51.874 68.716 51.7724C68.682 51.6709 68.6226 51.5799 68.5434 51.5078C68.4639 51.4361 68.3672 51.3862 68.2627 51.363Z" fill="white"/>
<path d="M79.9315 45.1028C79.44 44.999 79.0258 45.4646 78.5862 45.6457C75.8696 47.172 73.0497 48.4658 70.3846 50.1214C69.6605 50.561 70.3072 51.6478 71.0572 51.2336C73.9818 49.4229 77.1116 47.9998 80.0867 46.2928C80.1992 46.2296 80.2903 46.1342 80.3482 46.0188C80.406 45.9034 80.428 45.7734 80.4113 45.6454C80.3946 45.5174 80.34 45.3973 80.2545 45.3006C80.169 45.2039 80.0565 45.135 79.9315 45.1028Z" fill="white"/>
<path d="M115.298 87.7092C114.264 87.5021 113.229 87.8903 112.22 88.1229C111.211 88.3554 110.254 88.7181 109.295 89.0804C108.337 89.4426 107.355 89.6492 106.398 89.96L104.638 90.4789L102.284 91.2807L97.6787 92.7811C95.6089 93.6349 93.4616 94.3334 91.3918 95.1612C90.3309 95.6801 89.1667 96.0663 88.2615 96.8427C88.1431 96.9474 88.0561 97.083 88.0102 97.2342C87.9643 97.3854 87.9613 97.5465 88.0015 97.6993C88.0417 97.8522 88.1235 97.9909 88.2379 98.1C88.3523 98.209 88.4947 98.2842 88.6493 98.3172H88.6752C88.6871 98.408 88.7181 98.4952 88.7662 98.5732C88.8142 98.6511 88.8782 98.7181 88.954 98.7695C89.0298 98.821 89.1157 98.8558 89.206 98.8714C89.2963 98.8871 89.3888 98.8834 89.4776 98.8606L92.4267 97.9809L93.6168 97.8257C95.1173 97.5427 96.6178 97.205 98.1184 96.7908C103.06 95.3683 108.002 93.8665 112.658 91.617C113.435 91.2548 114.211 90.8925 114.987 90.4784C115.764 90.0643 115.815 90.0648 115.996 89.6252C116.05 89.4941 116.067 89.3512 116.048 89.211C116.411 88.5644 116.1 87.8917 115.298 87.7092Z" fill="#DBF122"/>
<path d="M104.07 95.7046C99.7777 97.0757 95.5323 98.7313 91.0822 99.585H91.0048C91.7464 98.7576 92.5415 97.9797 93.3851 97.2564C93.9799 96.6356 93.0747 95.756 92.4534 96.3253C91.3926 97.2823 90.3062 98.2658 89.4524 99.4299C88.5986 100.594 89.6595 100.93 90.5133 100.878C91.8586 100.878 93.1261 100.439 94.394 100.102C96.4894 99.5836 98.5333 98.8865 100.577 98.1879L104.044 97.0498C104.303 96.946 104.639 96.9201 104.794 96.6356C104.86 96.525 104.891 96.3973 104.884 96.2688C104.877 96.1403 104.832 96.0168 104.754 95.9142C104.676 95.8117 104.57 95.7346 104.448 95.693C104.326 95.6513 104.195 95.647 104.07 95.6805V95.7046Z" fill="#162B43"/>
<path d="M116.152 87.9688C115.299 87.9688 115.299 89.2366 116.152 89.2626C117.006 89.2885 117.006 87.9688 116.152 87.9688Z" fill="#162B43"/>
<path d="M50.7737 82.7957C49.5062 82.5627 48.0849 82.3816 46.8155 81.916H46.6863C46.7377 84.2183 46.5311 87.4007 46.3754 89.0562C45.6773 89.5477 43.4263 90.634 42.2102 91.3066L35.2761 94.9545C33.7237 95.7564 32.2751 96.8172 30.7746 97.7228L28.7047 98.9643C28.4217 99.1454 28.084 99.3265 27.9802 99.6628C27.946 99.7759 27.94 99.8956 27.9627 100.011C27.9854 100.127 28.0361 100.236 28.1104 100.328C28.1846 100.42 28.2802 100.492 28.3888 100.538C28.4975 100.585 28.6158 100.604 28.7335 100.594C29.4591 100.604 30.1824 100.509 30.8807 100.311C32.584 99.9722 34.2485 99.4608 35.8483 98.785L37.5545 98.0865C37.3733 98.6558 36.9851 99.3024 36.5455 100.13C36.1059 100.958 35.4606 101.864 34.8893 102.717C34.3181 103.571 33.6992 104.063 34.4237 104.658C35.1483 105.253 35.5365 104.528 35.9502 104.244C36.3639 103.959 36.9332 103.545 37.4248 103.235C39.1064 102.097 40.7885 100.933 42.4442 99.7444C44.0999 98.5562 46.325 97.1573 48.317 95.9413C49.6883 95.1135 51.2147 94.4668 52.4048 93.3801C53.1294 92.5264 53.2846 91.4141 53.5171 90.3793C53.9765 88.3249 54.1936 86.2237 54.1638 84.1187V83.3169C53.0228 83.2436 51.8895 83.0793 50.7746 82.8254L50.7737 82.7957Z" fill="#4ADEFF"/>
<path d="M44.4885 95.8076C44.1263 95.8336 43.8932 96.1439 43.5829 96.2991C43.2725 96.4543 42.8843 96.7906 42.522 97.0236C41.0215 98.0325 39.5469 99.0414 38.0978 100.128C38.017 100.17 37.9459 100.229 37.8893 100.301C37.8326 100.373 37.7918 100.456 37.7695 100.544C37.7472 100.633 37.744 100.725 37.7601 100.815C37.7766 100.905 37.8116 100.991 37.8629 101.066C37.9144 101.142 37.9813 101.206 38.0593 101.253C38.1373 101.301 38.2246 101.331 38.3153 101.343C38.4059 101.354 38.4979 101.347 38.5854 101.32C38.6728 101.293 38.7535 101.249 38.8224 101.188C39.6762 100.542 41.5908 99.1966 42.9876 98.291L44.6697 97.1269C44.8503 96.9977 45.0574 96.8684 45.1093 96.6354C45.1322 96.5393 45.1337 96.4394 45.1136 96.3427C45.0935 96.246 45.0524 96.1549 44.9932 96.0759C44.9339 95.9969 44.858 95.9319 44.7708 95.8855C44.6835 95.8391 44.5872 95.8125 44.4885 95.8076Z" fill="white"/>
<path d="M36.7257 101.474C35.8974 101.5 35.8974 102.767 36.7257 102.767C37.5541 102.767 37.5795 101.5 36.7257 101.474Z" fill="white"/>
<path d="M51.6281 90.2199C51.4983 90.0388 51.2658 90.0388 51.0587 89.9869L49.9978 89.8317C49.3252 89.7803 48.4714 89.6247 47.8247 89.7803C47.1779 89.936 47.385 91.0477 48.0577 91.0218C49.4804 90.9958 50.0497 91.1769 51.2653 91.3048C51.3814 91.2856 51.4901 91.2351 51.5796 91.1588C51.6692 91.0825 51.7362 90.9831 51.7735 90.8715C51.8108 90.7599 51.8169 90.6403 51.7912 90.5254C51.7654 90.4106 51.7089 90.305 51.6276 90.2199H51.6281Z" fill="white"/>
<path d="M77.0597 57.5457C76.9095 56.3738 76.6408 55.2201 76.2578 54.1025C76.1285 53.7407 75.9993 53.2487 75.6889 53.0676C75.5938 52.9595 75.4628 52.8894 75.32 52.8704C75.1773 52.8514 75.0325 52.8848 74.9124 52.9643C74.2917 53.3266 73.619 53.611 72.9464 53.9213C72.8054 53.9687 72.6765 54.0466 72.5691 54.1495C72.4617 54.2524 72.3784 54.3777 72.3251 54.5166C72.2478 54.9821 72.403 55.4477 72.4289 55.9137C72.636 57.7504 72.8685 58.7334 72.9478 60.4149C72.9737 61.0102 72.9992 61.579 73.0511 62.1742C73.0422 62.357 73.1003 62.5368 73.2146 62.6797C73.329 62.8225 73.4916 62.9187 73.6719 62.9502C74.2672 63.0534 74.5516 62.4068 74.7846 61.9672C75.0064 61.5118 75.2049 61.0455 75.3794 60.5701L75.6903 61.1653C75.7855 61.461 75.9661 61.7219 76.2092 61.9153C76.2854 61.962 76.3701 61.993 76.4584 62.0066C76.5467 62.0201 76.6368 62.016 76.7235 61.9943C76.8102 61.9727 76.8917 61.934 76.9633 61.8805C77.0348 61.827 77.095 61.7598 77.1403 61.6828C77.269 61.3901 77.3224 61.0698 77.2955 60.7512C77.2927 59.6913 77.1634 58.6065 77.0597 57.5457Z" fill="#4ADEFF"/>
<path d="M76.2318 55.7096C76.144 55.2469 76.0318 54.7892 75.8955 54.3384C75.8181 54.0799 75.7662 53.7436 75.5073 53.6139C75.3966 53.5474 75.2685 53.5155 75.1396 53.5224C75.0106 53.5293 74.8867 53.5746 74.7837 53.6526C74.6808 53.7305 74.6035 53.8375 74.5619 53.9597C74.5202 54.0819 74.5162 54.2138 74.5502 54.3384C74.7572 54.9804 74.9129 55.6377 75.0157 56.3044C75.042 56.5571 75.0852 56.8078 75.145 57.0548C75.1719 57.1327 75.2163 57.2035 75.2746 57.2618C75.333 57.32 75.4038 57.3643 75.4818 57.3911C75.6273 57.4584 75.7927 57.4692 75.9457 57.4213C76.0987 57.3734 76.2284 57.2704 76.3096 57.1321C76.5177 56.7204 76.2577 56.1492 76.2318 55.7096Z" fill="white"/>
<path d="M76.0767 58.4258C75.2488 58.4258 75.2488 59.6932 76.0767 59.7191C76.9045 59.7451 76.9305 58.4258 76.0767 58.4258Z" fill="white"/>
<path d="M100.811 93.3506C100.5 93.2468 100.241 93.4539 99.9569 93.5572L98.896 93.9454C97.887 94.3336 96.8261 94.6958 95.7912 95.0581C95.3775 95.2387 94.8341 95.2387 94.5756 95.6269C94.3171 96.0151 94.7822 96.7396 95.2997 96.5585C96.7488 96.0925 98.2243 95.601 99.6465 95.0581L100.811 94.592C100.968 94.5448 101.105 94.4449 101.198 94.309C101.245 94.2221 101.271 94.1261 101.277 94.0277C101.282 93.9294 101.266 93.8311 101.229 93.7397C101.191 93.6484 101.135 93.5663 101.063 93.4992C100.991 93.4316 100.905 93.3808 100.811 93.3506Z" fill="white"/>
<path d="M102.698 92.6777C101.844 92.7037 101.869 93.9715 102.698 93.9715C103.526 93.9715 103.552 92.7037 102.698 92.6777Z" fill="white"/>
<path d="M119.438 63.1345C119.237 63.0939 119.027 63.1213 118.843 63.2123L117.627 63.6C114.678 64.5835 111.004 65.5146 108.469 65.6957C106.346 65.9787 104.174 65.9787 102.053 66.2145C101.406 66.4475 101.613 67.4819 102.312 67.4565C107.046 67.2234 111.807 66.8612 116.36 65.3608L118.844 64.5849C119.232 64.4292 119.853 64.3778 119.905 63.8345C119.935 63.6801 119.903 63.52 119.816 63.3891C119.729 63.2583 119.593 63.1672 119.439 63.1359L119.438 63.1345Z" fill="#162B43"/>
<path d="M22.7806 51.3632C19.5466 51.6731 16.2606 51.7509 13.0257 51.9561C11.6803 52.0599 10.3369 52.1632 9.01612 52.2151C8.39535 52.2924 7.74864 52.2151 7.15334 52.3443C7.05856 52.3896 6.9757 52.4565 6.91139 52.5395C6.84708 52.6226 6.8031 52.7195 6.78298 52.8226C6.76285 52.9257 6.76714 53.0321 6.79549 53.1332C6.82384 53.2344 6.87547 53.3275 6.94626 53.4051C7.25664 53.6881 7.72269 53.5344 8.11044 53.5603C11.4997 53.4051 14.8889 53.0943 18.2781 52.991C19.8565 52.8617 21.4608 52.8099 23.0386 52.6028C23.1761 52.5442 23.289 52.4397 23.3582 52.3073C23.4273 52.1748 23.4485 52.0225 23.418 51.8762C23.3875 51.7299 23.3074 51.5987 23.1911 51.5048C23.0748 51.4109 22.9296 51.3603 22.7801 51.3613L22.7806 51.3632Z" fill="#162B43"/>
<path d="M10.5689 54.6488C10.1548 54.4676 9.6892 54.6228 9.24815 54.5969C7.43679 54.6488 5.59995 54.7266 3.78906 54.8558C2.93526 54.9077 2.08147 54.9851 1.22767 55.1143C0.865399 55.2181 0.45171 55.1402 0.14274 55.3732C-0.16623 55.6063 0.0389634 56.6939 0.711622 56.4855C2.91073 56.1232 5.42023 56.0459 8.05944 55.9166C8.86135 55.8647 9.6892 55.9426 10.4911 55.7869C11.293 55.6313 11.0086 54.8808 10.5689 54.6488Z" fill="#162B43"/>
<path d="M48.8854 94.9543C45.9098 96.8948 43.1418 99.1711 40.1663 101.163C38.3289 102.388 36.4099 103.486 34.4228 104.449C34.7077 103.531 35.0892 102.647 35.561 101.81C36.2336 100.594 37.062 99.4814 37.6837 98.2141C38.0974 97.4896 37.011 96.8429 36.5454 97.5674C36.3294 98.0291 36.0875 98.4782 35.8209 98.9126C35.8103 98.822 35.7797 98.7349 35.7315 98.6574C35.6833 98.58 35.6186 98.5141 35.542 98.4645C35.4654 98.415 35.3788 98.3829 35.2884 98.3707C35.198 98.3585 35.106 98.3663 35.019 98.3938C32.8963 99.0923 30.1807 100.075 28.8613 99.8423L28.7839 99.7904H28.7335C28.7335 99.7649 28.7075 99.7649 28.6816 99.739L28.7594 99.6097C28.7849 99.5319 28.8368 99.48 28.8627 99.4027H28.9146C31.243 97.7726 33.494 95.9595 36.1068 94.8496C38.0988 93.9699 40.0394 93.0384 42.0031 92.1846C43.9669 91.3309 45.3924 90.7621 46.9966 89.9083C47.1319 89.8335 47.2458 89.7252 47.3273 89.5938C47.4088 89.4624 47.4553 89.3123 47.4622 89.1579C47.4882 88.6923 47.4622 88.2268 47.4622 87.7613C47.4363 86.6486 47.4363 85.5364 47.4622 84.3977C47.4882 83.2591 47.5141 82.82 47.4882 82.0436C47.4622 81.7332 47.5401 81.371 47.2811 81.1644C47.1923 81.0719 47.0779 81.008 46.9526 80.9806C46.8273 80.9533 46.6967 80.9639 46.5774 81.0111C46.4582 81.0582 46.3556 81.1397 46.2829 81.2453C46.2101 81.3509 46.1704 81.4758 46.1688 81.604C46.2462 83.0011 46.1428 84.3977 46.1428 85.7689C46.1428 87.1401 46.1947 87.8386 46.1688 88.8735C45.4183 89.2876 44.6164 89.6239 43.8145 89.9857C40.4855 91.4347 37.1738 92.9352 33.8793 94.4873C32.0425 95.5222 30.3609 96.7896 28.6792 97.9777C28.4462 98.1848 28.1358 98.2881 28.0066 98.5471C27.8947 98.6119 27.7982 98.7 27.7235 98.8055C27.0768 99.7112 27.3613 100.72 28.4221 101.056C29.9226 101.419 31.475 100.849 32.9237 100.461L35.1747 99.7112L35.3558 99.6593C34.9676 100.306 34.5539 100.953 34.1916 101.651C33.7625 102.508 33.4076 103.399 33.1307 104.316C32.9237 104.963 32.7166 106.024 33.7001 106.075C34.6836 106.126 35.0454 105.584 35.6921 105.299C37.5586 104.342 39.3644 103.271 41.0993 102.092C43.3499 100.591 45.4716 98.8579 47.6967 97.3316L49.3264 96.2193C49.5335 96.0896 49.792 95.9604 49.8453 95.676C49.8793 95.5514 49.8752 95.4195 49.8336 95.2973C49.792 95.175 49.7147 95.0681 49.6117 94.9901C49.5088 94.9122 49.3849 94.8668 49.2559 94.86C49.1269 94.8531 48.9989 94.885 48.8882 94.9515L48.8854 94.9543Z" fill="#162B43"/>
<path d="M54.7583 86.4427C54.6809 85.9771 54.8101 85.3819 54.4998 85.0201C54.4092 84.9263 54.2925 84.862 54.1648 84.8356C54.0371 84.8093 53.9045 84.8221 53.7842 84.8724C53.6639 84.9227 53.5616 85.0082 53.4908 85.1176C53.4199 85.227 53.3837 85.3553 53.387 85.4856C53.5941 87.5294 53.4129 90.2717 53.0507 91.358C52.877 91.7254 52.6504 92.0654 52.378 92.3669C52.2062 92.5214 52.0959 92.7328 52.0676 92.9622C52.0756 93.0873 52.1184 93.2077 52.1912 93.3099C52.264 93.412 52.3639 93.4917 52.4796 93.5401C52.5953 93.5885 52.7222 93.6037 52.846 93.5838C52.9698 93.5639 53.0856 93.5099 53.1804 93.4277C53.5685 93.0133 53.8912 92.5422 54.1375 92.0306C54.4384 91.2528 54.6135 90.432 54.6564 89.5991C54.7545 88.55 54.7885 87.4959 54.7583 86.4427Z" fill="#162B43"/>
<path d="M78.1217 57.7275C78.0512 56.7517 77.8332 55.7923 77.475 54.8819C77.3198 54.5715 77.216 54.0801 76.9561 53.8211C76.7975 53.4148 76.5694 53.0393 76.282 52.7113C76.2006 52.6418 76.1026 52.5945 75.9976 52.574C75.8926 52.5535 75.784 52.5605 75.6825 52.5943C75.581 52.6282 75.4901 52.6877 75.4183 52.7669C75.3462 52.8462 75.2961 52.9429 75.273 53.0476C75.1692 53.4098 75.4541 53.6942 75.6093 54.0046C75.7645 54.315 75.8678 54.7031 76.1009 54.9616L76.1782 55.1168C76.4376 55.7301 76.6201 56.3732 76.7216 57.0313C76.9527 58.581 77.0047 60.1521 76.8768 61.7137C76.4791 61.3881 76.0223 61.1423 75.5315 60.9896C74.6777 60.8085 74.4466 61.5585 74.1602 62.1537C73.9676 62.5242 73.7332 62.8714 73.4616 63.1886V62.3608C73.4593 59.7243 73.235 57.0926 72.7913 54.4937C72.5588 53.8471 71.5498 54.0541 71.5498 54.7267C71.7309 56.1493 71.938 57.5723 72.0687 58.9718C72.1993 60.3713 72.172 62.4122 72.1979 64.1197C72.2239 65.1545 73.3102 65.1286 73.9315 64.5597C74.5527 63.9909 75.0956 63.1626 75.4839 62.3608C76.182 62.7226 76.2598 62.9296 76.9584 63.5508C77.05 63.6015 77.1519 63.631 77.2564 63.637C77.3609 63.6431 77.4654 63.6256 77.5623 63.5858C77.6591 63.5461 77.7458 63.4851 77.8159 63.4073C77.8861 63.3296 77.9378 63.2371 77.9674 63.1367C78.1103 62.4732 78.1882 61.7974 78.2 61.1189C78.2904 59.9887 78.2641 58.8523 78.1217 57.7275Z" fill="#162B43"/>
<path d="M13.7771 33.0212C13.2418 32.7692 12.6608 32.6285 12.0695 32.6076C11.8202 32.5816 11.5688 32.5816 11.3195 32.6076C11.4228 31.6241 11.6818 30.6152 11.4487 29.6322C11.2157 28.6493 10.7242 27.8734 9.84492 28.3389C9.37934 28.6752 9.22415 29.244 9.01707 29.736C8.72269 30.5832 8.59113 31.4785 8.62933 32.3746C8.62803 32.3886 8.62963 32.4027 8.63404 32.4161C8.63852 32.4293 8.64557 32.4415 8.6548 32.4519H7.95667C7.12835 32.5038 6.042 32.659 5.67972 33.4868C5.31745 34.3146 6.09389 34.5476 6.66277 34.7027C7.24098 34.8793 7.84819 34.9408 8.45008 34.8839H8.52744C8.45008 35.6857 8.45008 37.0309 8.86377 37.7295C9.27745 38.428 9.71756 38.6351 10.2869 38.3247C10.4834 38.1966 10.6514 38.0294 10.7805 37.8335C10.9095 37.6376 10.9968 37.4172 11.0369 37.1861C11.2172 36.5103 11.3207 35.8163 11.3454 35.1173C12.1144 35.1985 12.8899 35.0451 13.57 34.6773C14.1653 34.3405 14.4498 33.4094 13.7771 33.0212ZM13.0785 33.849H13.0525C12.9233 34.0042 12.2247 34.2372 11.6558 34.2113C11.0869 34.1853 10.4916 33.9783 10.3879 34.6509C10.2841 35.3235 10.3105 36.048 10.0515 36.9536C10.0236 37.1318 9.95249 37.3005 9.84445 37.4451C9.56142 37.0569 9.43076 36.0998 9.53407 35.065C9.53407 34.9872 9.58595 34.5735 9.58595 34.4702C9.62799 34.3423 9.61868 34.2032 9.56001 34.082C9.51058 34.0191 9.44787 33.968 9.37635 33.9322C9.30483 33.8964 9.22628 33.8768 9.14632 33.875H9.01613L8.86094 33.9268L8.60244 33.9783C7.90384 34.0042 7.6194 34.0301 7.17929 33.9009L6.81702 33.7971H6.71418C6.74013 33.7717 6.76607 33.7717 6.76607 33.7457L6.92126 33.6679C7.23165 33.5127 8.08544 33.4354 8.99066 33.4608C9.17206 33.479 9.35516 33.4705 9.53407 33.4354C9.57721 33.3899 9.61231 33.3374 9.63784 33.2802C9.68324 33.1986 9.71796 33.1116 9.74115 33.0212C9.71955 32.9105 9.71085 32.7976 9.7152 32.6849C9.7152 32.659 9.68926 32.659 9.66331 32.633C9.57489 31.5301 9.78029 30.4234 10.2586 29.4256L10.3105 29.5294C10.5935 30.202 10.4657 31.2109 10.3105 32.218C10.2846 32.6576 9.94823 33.3561 10.5431 33.5632C11.1379 33.7702 11.5006 33.5372 11.9921 33.6151C12.3654 33.622 12.7338 33.701 13.0771 33.8476L13.0257 33.9268L13.0785 33.849Z" fill="#162B43"/>
<path d="M79.6628 18.8474C79.1441 18.572 78.5683 18.4214 77.9812 18.4073H77.2052C77.3344 17.4243 77.5675 16.4154 77.3604 15.4325C77.1533 14.4495 76.6358 13.6731 75.7302 14.1387C75.2905 14.475 75.1353 15.0443 74.9282 15.5358C74.6208 16.3807 74.4888 17.2795 74.54 18.1771V18.2545H73.8674C73.0136 18.3064 71.9272 18.4616 71.5909 19.2893C71.2546 20.1171 72.0046 20.3501 72.5739 20.5053C73.1514 20.6814 73.7578 20.7429 74.3589 20.6865H74.4367C74.3594 21.4883 74.3594 22.8335 74.7731 23.5321C75.1867 24.2306 75.6268 24.4377 76.1962 24.1269C76.7656 23.816 76.817 23.4028 76.9462 22.9887C77.1148 22.3101 77.2187 21.6171 77.2566 20.919C78.0257 21.0006 78.8014 20.8473 79.4817 20.4794C80.051 20.1407 80.3355 19.2101 79.6628 18.8474ZM78.9901 19.6492H78.9642C78.5453 19.9069 78.0588 20.033 77.5675 20.0115C77.0241 20.0115 76.4028 19.7785 76.2736 20.4511C76.1443 21.1237 76.2221 21.8482 75.9632 22.7533C75.9237 22.9283 75.8536 23.0948 75.7561 23.2453C75.4731 22.8571 75.3424 21.9001 75.4198 20.8652C75.4348 20.6655 75.4608 20.4668 75.4976 20.27C75.5317 20.1388 75.5131 19.9994 75.4457 19.8818C75.403 19.818 75.3453 19.7658 75.2775 19.7298C75.2098 19.6937 75.1342 19.675 75.0575 19.6752H74.9282L74.749 19.729L74.4905 19.7808C74.0248 19.8337 73.5538 19.8162 73.0933 19.729L72.731 19.5997H72.6263L72.6777 19.5478L72.8074 19.4705C73.1438 19.3153 73.9976 19.2375 74.8768 19.2634C75.0669 19.2807 75.2585 19.272 75.4462 19.2375L75.55 19.0823L75.6273 18.8238V18.4875L75.5754 18.4356C75.4587 17.3396 75.6657 16.2334 76.1707 15.2537C76.1694 15.2397 76.171 15.2256 76.1754 15.2122C76.1802 15.1989 76.1874 15.1865 76.1967 15.1759C76.1967 15.2018 76.2226 15.2018 76.2226 15.2278C76.2226 15.2537 76.2481 15.2796 76.2481 15.331C76.5311 16.0037 76.4292 17.0126 76.2481 18.0196C76.2481 18.4597 75.9118 19.1582 76.4811 19.3908C77.0505 19.6233 77.4642 19.3653 77.9557 19.4167C78.3215 19.4209 78.6826 19.5002 79.0166 19.6497V19.729L78.9901 19.6492Z" fill="#4ADEFF"/>
<path d="M109.115 25.0269C108.586 24.7549 108.002 24.6047 107.408 24.5873C107.158 24.5746 106.907 24.5746 106.657 24.5873C106.761 23.6044 107.019 22.6214 106.787 21.6125C106.554 20.6036 106.062 19.8791 105.183 20.3187C104.717 20.655 104.562 21.2243 104.355 21.7158C104.06 22.5629 103.929 23.4582 103.967 24.3543C103.966 24.3684 103.968 24.3825 103.972 24.3958C103.976 24.4093 103.983 24.4217 103.993 24.4321H103.294C102.466 24.484 101.38 24.6133 101.043 25.4411C100.707 26.2689 101.432 26.5259 102.001 26.657C102.578 26.8331 103.185 26.8946 103.786 26.8382H103.864C103.786 27.666 103.786 28.9852 104.2 29.6838C104.614 30.3823 105.053 30.5889 105.622 30.3059C106.021 30.0317 106.299 29.615 106.399 29.1418C106.556 28.4708 106.651 27.7866 106.682 27.0981C107.453 27.1578 108.224 26.9963 108.907 26.6325C109.502 26.2962 109.786 25.3647 109.114 25.0029L109.115 25.0269ZM108.417 25.8288C107.998 26.0865 107.511 26.2126 107.019 26.191C106.476 26.191 105.855 25.958 105.726 26.6306C105.597 27.3032 105.648 28.0277 105.39 28.9329C105.286 29.2951 105.338 29.2432 105.183 29.4244C104.9 29.0366 104.768 28.0791 104.872 27.0443C104.872 26.9669 104.924 26.5787 104.924 26.4495C104.952 26.3876 104.964 26.3199 104.959 26.2522C104.955 26.1845 104.934 26.119 104.898 26.0613C104.849 25.9986 104.786 25.9475 104.714 25.9118C104.643 25.8761 104.564 25.8564 104.484 25.8543H104.355L104.2 25.9061L103.941 25.958C103.242 25.984 102.958 26.0099 102.544 25.9061L102.156 25.7769C102.149 25.7769 102.142 25.7742 102.137 25.7693C102.132 25.7644 102.13 25.7578 102.13 25.751H102.052L102.104 25.6991L102.259 25.6217C102.57 25.4665 103.449 25.3887 104.329 25.4147C104.51 25.4327 104.693 25.424 104.872 25.3887C104.915 25.3434 104.95 25.2909 104.975 25.2335C105.025 25.1543 105.06 25.0667 105.079 24.975C105.057 24.8645 105.048 24.7515 105.053 24.6387L105.001 24.5869C104.912 23.4921 105.118 22.3935 105.597 21.4049C105.597 21.379 105.622 21.3531 105.622 21.3271L105.674 21.379C105.674 21.4049 105.7 21.4564 105.7 21.4823C105.983 22.1549 105.855 23.1638 105.7 24.1987C105.674 24.6128 105.338 25.3114 105.933 25.5439C106.528 25.7764 106.89 25.5179 107.382 25.5698C107.754 25.5871 108.12 25.6658 108.467 25.8028L108.415 25.8802L108.417 25.8288Z" fill="#162B43"/>
<path d="M109.115 25.0269C108.586 24.7549 108.002 24.6047 107.408 24.5873C107.158 24.5746 106.907 24.5746 106.657 24.5873C106.761 23.6044 107.019 22.6214 106.787 21.6125C106.554 20.6036 106.062 19.8791 105.183 20.3187C104.717 20.655 104.562 21.2243 104.355 21.7158C104.06 22.5629 103.929 23.4582 103.967 24.3543C103.966 24.3684 103.968 24.3825 103.972 24.3958C103.976 24.4093 103.983 24.4217 103.993 24.4321H103.294C102.466 24.484 101.38 24.6133 101.043 25.4411C100.707 26.2689 101.432 26.5259 102.001 26.657C102.578 26.8331 103.185 26.8946 103.786 26.8382H103.864C103.786 27.666 103.786 28.9852 104.2 29.6838C104.614 30.3823 105.053 30.5889 105.622 30.3059C106.021 30.0317 106.299 29.615 106.399 29.1418C106.556 28.4708 106.651 27.7866 106.682 27.0981C107.453 27.1578 108.224 26.9963 108.907 26.6325C109.502 26.2962 109.786 25.3647 109.114 25.0029L109.115 25.0269ZM108.417 25.8288C107.998 26.0865 107.511 26.2126 107.019 26.191C106.476 26.191 105.855 25.958 105.726 26.6306C105.597 27.3032 105.648 28.0277 105.39 28.9329C105.286 29.2951 105.338 29.2432 105.183 29.4244C104.9 29.0366 104.768 28.0791 104.872 27.0443C104.872 26.9669 104.924 26.5787 104.924 26.4495C104.952 26.3876 104.964 26.3199 104.959 26.2522C104.955 26.1845 104.934 26.119 104.898 26.0613C104.849 25.9986 104.786 25.9475 104.714 25.9118C104.643 25.8761 104.564 25.8564 104.484 25.8543H104.355L104.2 25.9061L103.941 25.958C103.242 25.984 102.958 26.0099 102.544 25.9061L102.156 25.7769C102.149 25.7769 102.142 25.7742 102.137 25.7693C102.132 25.7644 102.13 25.7578 102.13 25.751H102.052L102.104 25.6991L102.259 25.6217C102.57 25.4665 103.449 25.3887 104.329 25.4147C104.51 25.4327 104.693 25.424 104.872 25.3887C104.915 25.3434 104.95 25.2909 104.975 25.2335C105.025 25.1543 105.06 25.0667 105.079 24.975C105.057 24.8645 105.048 24.7515 105.053 24.6387L105.001 24.5869C104.912 23.4921 105.118 22.3935 105.597 21.4049C105.597 21.379 105.622 21.3531 105.622 21.3271L105.674 21.379C105.674 21.4049 105.7 21.4564 105.7 21.4823C105.983 22.1549 105.855 23.1638 105.7 24.1987C105.674 24.6128 105.338 25.3114 105.933 25.5439C106.528 25.7764 106.89 25.5179 107.382 25.5698C107.754 25.5871 108.12 25.6658 108.467 25.8028L108.415 25.8802L108.417 25.8288Z" fill="#162B43"/>
</svg>
