<svg width="80" height="80" viewBox="0 0 80 80" fill="none" xmlns="http://www.w3.org/2000/svg">
<g clip-path="url(#clip0_222_3919)">
<path d="M3.81384 55.6391C3.81373 55.81 3.86449 55.9772 3.95971 56.1194C4.05493 56.2616 4.19034 56.3724 4.34879 56.438C4.50725 56.5035 4.68163 56.5207 4.8499 56.4874C5.01816 56.4541 5.17274 56.3718 5.29408 56.251C5.41543 56.1301 5.49808 55.9761 5.53159 55.8085C5.5651 55.6408 5.54796 55.467 5.48234 55.309C5.41672 55.1511 5.30556 55.0161 5.16294 54.9211C5.02031 54.8261 4.85262 54.7754 4.68107 54.7754C4.45434 54.7852 4.23954 54.8794 4.07901 55.0392C3.91848 55.1991 3.82388 55.4131 3.81384 55.6391Z" fill="#DBF122"/>
<path d="M4.68121 56.7087C4.46895 56.7086 4.26147 56.6459 4.085 56.5283C3.90853 56.4107 3.77101 56.2437 3.6898 56.0482C3.6086 55.8528 3.58737 55.6377 3.62879 55.4303C3.67022 55.2228 3.77244 55.0322 3.92253 54.8826C4.07262 54.7331 4.26385 54.6312 4.47203 54.5899C4.68021 54.5486 4.896 54.5698 5.09212 54.6507C5.28823 54.7316 5.45587 54.8687 5.57383 55.0446C5.6918 55.2204 5.75479 55.4272 5.75485 55.6387C5.76076 55.7808 5.73704 55.9226 5.68517 56.055C5.63331 56.1875 5.55444 56.3078 5.45354 56.4084C5.35263 56.509 5.2319 56.5876 5.09897 56.6392C4.96603 56.6909 4.82378 56.7146 4.68121 56.7087ZM4.68121 54.9807C4.52838 54.981 4.38037 55.0341 4.26238 55.1309C4.1444 55.2277 4.06373 55.3623 4.03412 55.5117C4.00451 55.6611 4.02779 55.8162 4.09999 55.9504C4.17219 56.0847 4.28885 56.1898 4.4301 56.248C4.57135 56.3061 4.72846 56.3137 4.87468 56.2694C5.0209 56.225 5.14719 56.1316 5.23204 56.0049C5.31688 55.8782 5.35505 55.7262 5.34003 55.5746C5.32501 55.423 5.25774 55.2813 5.14966 55.1736C5.0882 55.1123 5.01516 55.0637 4.93477 55.0306C4.85437 54.9975 4.7682 54.9805 4.68121 54.9807Z" fill="#DBF122"/>
<path d="M68.9715 5.84823C69.3962 5.84823 69.8113 5.72272 70.1645 5.48758C70.5176 5.25244 70.7928 4.91823 70.9553 4.52721C71.1178 4.13619 71.1604 3.70592 71.0775 3.29081C70.9947 2.87571 70.7902 2.49441 70.4899 2.19513C70.1896 1.89586 69.8069 1.69205 69.3904 1.60948C68.9739 1.52691 68.5421 1.56929 68.1498 1.73125C67.7574 1.89322 67.422 2.1675 67.1861 2.51941C66.9502 2.87132 66.8242 3.28505 66.8242 3.70829C66.8242 3.98932 66.8797 4.26761 66.9876 4.52726C67.0955 4.7869 67.2537 5.02282 67.4531 5.22154C67.6525 5.42026 67.8892 5.57788 68.1497 5.68541C68.4103 5.79294 68.6895 5.84826 68.9715 5.84823Z" fill="#DBF122"/>
<path d="M68.9716 6.05389C68.4946 6.06196 68.026 5.92785 67.626 5.66875C67.226 5.40966 66.9127 5.03739 66.7264 4.59969C66.5401 4.16199 66.4892 3.6788 66.5803 3.2121C66.6714 2.74539 66.9003 2.31643 67.2376 1.98024C67.575 1.64404 68.0054 1.41593 68.4737 1.32515C68.942 1.23438 69.4269 1.28507 69.8661 1.47074C70.3053 1.65641 70.6788 1.96859 70.9388 2.36725C71.1988 2.7659 71.3334 3.23286 71.3253 3.70825C71.3253 4.0163 71.2645 4.32135 71.1463 4.60597C71.028 4.89059 70.8546 5.14921 70.6361 5.36703C70.4175 5.58486 70.158 5.75764 69.8724 5.87549C69.5868 5.99334 69.2807 6.05396 68.9716 6.05389ZM68.9716 1.73317C68.4534 1.74438 67.9602 1.95738 67.5976 2.32655C67.2351 2.69571 67.032 3.19169 67.0319 3.70825C67.0319 4.22123 67.2364 4.71321 67.6004 5.07595C67.9643 5.43869 68.458 5.64247 68.9728 5.64247C69.4875 5.64247 69.9812 5.43869 70.3452 5.07595C70.7091 4.71321 70.9136 4.22123 70.9136 3.70825C70.9137 3.19145 70.7105 2.69521 70.3476 2.32598C69.9848 1.95675 69.4912 1.74393 68.9728 1.73317H68.9716Z" fill="#DBF122"/>
<path d="M24.7902 76.9966C24.7902 76.9966 21.6521 76.9966 17.6055 76.8732L11.2053 76.626L5.17685 76.3792C1.62567 76.2557 2.74059 76.8732 6.20891 77.4906C11.1466 78.3051 16.1587 78.5814 21.1564 78.3146L31.1073 77.696C32.4486 77.6829 33.782 77.4891 35.0713 77.12C36.7644 76.7083 34.2043 76.7497 31.1898 76.8317L26.8956 76.9551L24.7902 76.9966Z" fill="#162B43"/>
<path d="M66.3702 77.6963C66.3702 77.6963 63.4801 77.6551 59.7225 77.7371C55.9649 77.8191 51.423 78.0254 48.1611 78.3959C41.6369 79.1776 52.6205 80.0419 63.067 79.0542C68.311 78.5602 70.706 78.5194 72.2338 78.4779C73.4704 78.4792 74.7032 78.3413 75.9088 78.0668C77.4775 77.7371 75.1241 77.6143 72.3163 77.6143L66.3702 77.6963Z" fill="#162B43"/>
<path d="M27.184 21.1556C26.0278 21.9376 24.666 22.4313 23.3025 22.0602C22.6662 21.9009 22.0766 21.5943 21.5816 21.1653C21.0865 20.7363 20.7 20.197 20.4534 19.5911C20.2193 18.8034 20.1079 17.9846 20.1232 17.1632C20.0819 16.2587 20.0819 15.3115 20.0406 14.4061L19.8351 9.01603L19.5871 2.88509L17.8116 3.37879L19.7109 6.30041C20.0002 6.7944 21.1163 6.38269 21.4041 6.05356L24.8297 1.97969L23.0955 2.22654L24.0453 9.88058C24.0866 10.3743 25.5731 9.83944 25.7382 9.59259L30.1563 2.92624L30.7755 1.97969L29.0841 2.22654V4.94245C29.0841 5.3953 30.3642 4.98359 30.4895 4.90131L37.2598 0.621738L35.8972 0.457173C30.7693 6.46443 26.2208 12.9399 22.312 19.7977C22.1469 20.1268 22.9316 20.1268 23.0554 20.0857C23.2564 20.078 23.4533 20.0261 23.6317 19.9336C23.8102 19.8411 23.966 19.7104 24.0878 19.5508C27.9593 12.7639 32.4663 6.35711 37.5485 0.416031C37.7535 0.169183 37.5072 0.0457592 37.3008 0.00461784C36.9131 -0.0215839 36.526 0.0641182 36.1859 0.251466L29.4144 4.53104L30.8596 4.44876V1.77399C30.8596 1.23915 29.2905 1.77399 29.1254 2.02084L24.7486 8.68719L24.1293 9.63373L25.8222 9.38689L24.9146 1.77399C24.8733 1.486 24.2954 1.56974 24.1302 1.56974C23.7765 1.62618 23.4466 1.78334 23.1804 2.02229L19.7522 6.0947L21.4867 5.80642L19.5871 2.88509C19.2981 2.43254 17.8116 2.80281 17.8116 3.37879L18.2658 15.6004C18.307 17.3286 18.1006 19.4274 19.0917 20.9088C19.5211 21.5066 20.0759 22.0039 20.7177 22.3663C21.3595 22.7287 22.0728 22.9475 22.808 23.0073C24.8767 23.1629 26.9316 22.5633 28.5893 21.3202C28.8783 21.1145 28.7545 20.8677 28.4242 20.8265C27.9835 20.7698 27.538 20.888 27.184 21.1556Z" fill="#162B43"/>
<path d="M30.0749 29.1386V20.5383C30.0749 20.0443 28.2596 20.3323 28.2596 21.032C28.2596 23.8713 28.2596 26.7509 28.3009 29.6323C28.2995 30.1262 30.1162 29.7968 30.0749 29.1386Z" fill="#162B43"/>
<path d="M18.8854 40.0434C18.7615 42.4302 18.6804 44.7756 18.6804 47.1629C18.6804 49.5503 18.8043 50.9074 18.8456 52.8005C18.9281 57.0383 18.5979 61.4005 19.3825 65.598C19.4906 66.3856 19.728 67.1501 20.0852 67.8608C20.498 68.6017 21.0763 68.7653 21.8609 69.0134C23.8428 69.5482 26.6506 69.3013 27.2698 66.9971C27.4406 66.2249 27.5511 65.4407 27.6004 64.6515C27.7242 63.9107 27.8068 63.1698 27.9306 62.4293L28.426 58.6023C28.6716 56.709 28.8773 54.8161 29.0432 52.9236C29.3322 49.6314 29.3322 46.2981 29.3735 43.0062V41.4014C29.3735 41.072 27.598 41.3602 27.598 41.8951C27.5568 45.2284 27.5568 48.5203 27.3501 51.8536C27.1024 55.8452 26.5657 59.7954 25.9877 63.7875L25.7397 65.8037C25.666 66.4874 25.5278 67.1625 25.3269 67.8203C25.1898 68.0825 24.9916 68.3083 24.749 68.4785C24.9141 68.3962 24.7902 68.4785 24.6248 68.4785L23.9221 68.3962C23.2195 68.2728 22.3944 68.1494 21.9403 67.532C21.5718 66.8696 21.3333 66.1434 21.2376 65.392C20.4117 61.4419 20.7009 57.3269 20.6596 53.3353C20.6184 51.2368 20.5358 49.1791 20.4942 47.1203C20.4526 45.0615 20.5358 42.0588 20.6596 39.5486C20.7024 39.2615 18.9275 39.4672 18.8854 40.0434Z" fill="#162B43"/>
<path d="M18.5963 19.9206C18.7614 23.048 18.844 26.2167 18.8853 29.3452C18.8853 29.7566 20.7023 29.4686 20.661 28.8927C20.6197 25.7239 20.5372 22.5966 20.413 19.4281C20.413 19.0567 18.5963 19.3447 18.5963 19.9206Z" fill="#162B43"/>
<path d="M25.5332 69.5065L51.7959 61.7705L59.2698 59.5486C59.7649 59.4249 60.426 58.9723 60.2606 58.3552C60.0952 57.7381 59.3108 57.6549 58.8154 57.8204L32.5954 65.5564L25.0805 67.7378C24.5851 67.902 23.9656 68.3546 24.1307 68.9306C24.2959 69.5065 25.0791 69.6303 25.5332 69.5065Z" fill="#162B43"/>
<path d="M61.2913 58.273C62.1989 51.1952 62.8606 44.0763 63.3147 36.9162C63.7688 29.7562 63.9337 22.6773 63.9337 15.5181C63.8792 13.2684 63.8792 11.0052 63.9337 8.7283C63.9337 8.02802 63.026 7.98746 62.5298 8.11117C53.7351 10.7859 45.105 13.9956 36.5578 17.2463L29.4138 20.0034C29.0423 20.1679 28.5062 20.6619 28.8359 21.1145C29.1656 21.567 29.9921 21.4025 30.4462 21.2379C38.8289 17.9871 47.2104 14.7349 55.717 11.8556L62.9016 9.55054L61.4962 8.97427C61.4137 14.365 61.5378 19.7556 61.4137 25.1463C61.2485 32.2658 60.8357 39.3853 60.1749 46.4619C59.8447 50.4946 59.3905 54.5274 58.8539 58.5189C58.7315 59.6306 61.1674 59.2609 61.2913 58.273Z" fill="#162B43"/>
<path d="M21.1564 21.2376H21.4867L21.8995 21.361L22.6842 21.7728C22.9493 21.876 23.1994 22.0144 23.4275 22.1842C23.5101 22.1842 23.5101 22.2253 23.4688 22.1842H23.5514L23.7578 22.3076L24.0881 22.5956C24.4183 22.8424 24.9553 22.719 25.2855 22.5956C25.6158 22.4722 26.0702 22.143 25.7809 21.8953C24.7461 21.114 23.5456 20.579 22.2713 20.3313C22.0537 20.2617 21.8177 20.2765 21.6105 20.3728C21.3811 20.409 21.1665 20.5088 20.9913 20.6608C20.934 20.703 20.8887 20.7594 20.8598 20.8242C20.8309 20.8891 20.8193 20.9604 20.8261 21.031C20.8674 21.1553 21.0326 21.1965 21.1564 21.2376Z" fill="#162B43"/>
<path d="M36.7229 0.621915V2.96755C36.7229 3.09098 37.136 3.0087 37.1773 3.0087L42.0082 2.35014L41.5126 2.26786L41.9672 5.18948C42.0082 5.39548 42.71 5.18948 42.7929 5.14863L49.1519 2.92641L48.3669 2.84413L41.2652 8.76965L40.2741 9.63391C40.1087 9.75733 40.3154 9.79848 40.4395 9.83962C40.6843 9.84858 40.927 9.79174 41.1422 9.67505L51.1759 4.53122L52.5798 3.79038L51.6303 3.87296V6.09488C51.6303 6.2183 51.919 6.2183 51.9603 6.2183L57.6171 5.64232L57.2872 5.56004V7.1237C57.2872 7.20599 57.452 7.20599 57.4921 7.20599H61.2497L61.0448 7.08256L59.7647 9.67505C59.6819 9.88076 60.1775 9.79848 60.2604 9.79848C60.3433 9.79848 60.8793 9.67505 60.9631 9.46935L62.201 6.87686C62.2832 6.75343 62.0768 6.71229 61.996 6.71229H58.2777L58.4847 6.79457V5.23091C58.4847 5.1072 58.1954 5.14863 58.1538 5.14863L52.4559 5.68347L52.8278 5.80689V3.54353C52.8278 3.29669 51.9603 3.58467 51.878 3.62582L41.8853 8.76965L40.4814 9.46993L41.3486 9.55221L48.4507 3.58526L49.483 2.76243C49.8133 2.47444 48.7803 2.59787 48.6986 2.63901L42.3795 4.86035H43.1639L42.71 1.93873C42.71 1.81531 42.2975 1.85645 42.2559 1.89759L37.425 2.55614L37.9204 2.63842V0.291909C37.9204 0.0876611 36.7229 0.251643 36.7229 0.621915Z" fill="#162B43"/>
<path d="M25.1205 20.9085C31.1214 15.5592 37.081 10.1685 42.9994 4.73648C43.0299 4.70511 43.0513 4.66609 43.0614 4.62356C43.0717 4.58111 43.0705 4.53671 43.0579 4.49488C43.0454 4.45298 43.0219 4.41519 42.9897 4.38546C42.9577 4.35566 42.9184 4.33482 42.8758 4.32507C42.725 4.29532 42.5695 4.29817 42.4199 4.3334C42.2703 4.36864 42.1301 4.43544 42.0086 4.52931C36.104 9.9626 30.1166 15.3533 24.1707 20.7028C23.9643 20.9085 24.0469 21.0731 24.2945 21.1554C24.4419 21.1895 24.5956 21.1847 24.7404 21.1414C24.8853 21.0981 25.0163 21.0178 25.1205 20.9085Z" fill="#162B43"/>
<path d="M28.0521 20.1269C35.7049 16.4236 43.3163 12.6791 50.8864 8.89329L57.3701 5.64225C57.4939 5.55997 57.7003 5.47768 57.4939 5.35426C57.2875 5.23084 56.8328 5.3954 56.668 5.51882C49.1118 9.3047 41.514 13.0903 33.9163 16.7939L27.3916 19.9624C27.2265 20.0446 27.0198 20.1681 27.2265 20.2915C27.5121 20.3224 27.8004 20.2649 28.0521 20.1269Z" fill="#162B43"/>
<path d="M33.461 57.6563C40.1502 55.9281 46.8398 54.2425 53.5287 52.7185C53.7764 52.6362 54.1067 52.4305 54.0244 52.1422C53.9421 51.854 53.5287 51.8545 53.3217 51.938C46.6049 53.4471 39.9156 55.0931 33.254 56.8761C32.5127 57.0389 32.7176 57.8606 33.461 57.6563Z" fill="#007EEF"/>
<path d="M33.461 62.2232C34.9215 62.4957 36.4314 62.2788 37.7552 61.6064L38.705 61.0304C38.994 60.8241 39.3245 60.4539 39.6961 60.6187C40.0676 60.7836 40.6037 61.4004 41.1828 61.565C42.7106 61.9355 43.7842 60.2482 44.8573 59.5079C45.0087 59.3768 45.1866 59.2796 45.3789 59.2227C45.5712 59.1659 45.7735 59.1507 45.9722 59.1782C46.3123 59.2935 46.6326 59.4601 46.922 59.6722C47.4334 60.0085 48.0475 60.1543 48.6562 60.0839C48.8216 60.0424 49.3588 59.919 49.3588 59.7133C49.3588 59.5076 49.0289 59.5091 48.8634 59.5488C48.698 59.5884 47.6663 58.9725 47.2119 58.7671C46.5716 58.5485 45.8789 58.534 45.23 58.7256C44.5329 58.9483 43.897 59.3286 43.372 59.837L42.4222 60.6599L42.0094 61.0304C42.0919 60.989 41.8027 60.8656 41.7201 60.8241C41.6375 60.7827 40.8945 60.0839 40.2749 60.0013C39.6052 59.9595 38.9396 60.1325 38.3756 60.495C37.8059 60.9534 37.1642 61.3149 36.4763 61.565C35.7551 61.7979 34.9831 61.8264 34.2465 61.6473C33.9154 61.6064 32.8417 62.0998 33.461 62.2232Z" fill="#007EEF"/>
<path d="M34.7824 22.5958C41.4716 20.415 48.1196 18.1105 54.685 15.6003L60.3003 13.4192C60.4241 13.3781 60.7959 13.2547 60.6721 13.049C60.5483 12.8432 60.0116 13.049 59.8874 13.0901C53.3082 15.6967 46.7016 18.1246 40.0677 20.3739L34.3291 22.2667C34.2053 22.3489 33.875 22.4709 33.9989 22.6369C34.1227 22.803 34.6585 22.6369 34.7824 22.5958Z" fill="#007EEF"/>
<path d="M33.3783 51.6071C33.3783 51.6071 32.7591 52.8005 38.6224 51.6071C43.1483 50.729 47.565 49.363 51.7945 47.5329C55.3041 46.0104 55.2628 44.0765 55.552 37.7392C55.8413 31.402 58.1119 20.1269 55.552 20.8678C52.9922 21.6086 33.9566 26.6287 34.0804 31.114C34.0804 31.114 34.5345 40.2906 34.0804 45.4341C33.6263 50.5777 33.3783 51.6071 33.3783 51.6071Z" fill="#DBF122"/>
<path d="M34.6584 52.3474C33.9151 52.3474 33.4197 52.224 33.2531 51.9774C33.2034 51.9143 33.1699 51.84 33.1556 51.761C33.1412 51.6821 33.1463 51.6008 33.1705 51.5243C33.2118 51.4009 33.5008 50.1255 33.8732 45.3934C34.2456 40.6612 33.8732 31.2375 33.8732 31.1141C33.7912 28.2336 40.5642 24.86 54.6433 20.909L55.5105 20.7033C55.6396 20.6477 55.7818 20.6298 55.9207 20.6516C56.0595 20.6735 56.1893 20.7342 56.2949 20.8267C57.4511 21.7733 56.9144 26.5054 56.3365 31.4847C56.0885 33.6654 55.8408 35.9288 55.7582 37.7805V38.3987C55.5105 44.2417 55.4282 46.2185 51.9181 47.7399C47.6709 49.5603 43.2417 50.9259 38.705 51.8134C37.3735 52.1039 36.0199 52.2825 34.6584 52.3474ZM33.5848 51.6891C33.6674 51.7714 34.3279 52.224 38.5812 51.36C43.0919 50.4752 47.4941 49.1092 51.7116 47.2859C54.9736 45.8868 55.0564 44.1588 55.3041 38.3156V37.7393C55.3867 35.9288 55.6344 33.6252 55.8824 31.4432C56.4187 26.9991 56.956 21.9378 56.0062 21.1559C55.9577 21.0964 55.8899 21.0556 55.8145 21.0406C55.7391 21.0256 55.6608 21.0373 55.5931 21.0736L54.7259 21.3204C37.7552 26.094 34.2453 29.3036 34.2869 31.1141C34.2869 31.1964 34.741 40.3729 34.2869 45.4342C33.8328 50.4955 33.5842 51.6072 33.5842 51.6492L33.5848 51.6891Z" fill="#DBF122"/>
<path d="M18.3899 32.554C18.3565 31.9127 18.4822 31.2731 18.7559 30.6918C19.0295 30.1105 19.4427 29.6053 19.9589 29.221C20.0678 29.1284 20.1941 29.0585 20.3304 29.0153L20.6607 28.8507C20.6607 28.933 20.5369 28.8095 20.5781 28.8918L20.6607 28.9738L20.8657 29.1384C20.9987 29.2712 21.1103 29.4239 21.1962 29.5909C21.6023 30.1919 21.896 30.8612 22.0631 31.5663C22.2954 32.3813 22.3656 33.2338 22.2696 34.0756C22.2696 34.2402 23.4258 34.1168 23.467 33.7462C23.6705 31.9994 23.1816 30.2424 22.1044 28.8495C21.9783 28.6793 21.8076 28.5469 21.6109 28.4671C21.4143 28.3872 21.1994 28.3628 20.9898 28.3967C20.4791 28.4609 19.9871 28.629 19.5443 28.8907C18.8423 29.2409 18.2551 29.7833 17.8514 30.4543C17.3662 31.1683 17.1342 32.0233 17.1924 32.8837C17.1924 33.088 18.4312 32.8837 18.3899 32.554Z" fill="#162B43"/>
<path d="M26.6069 32.8016C26.723 32.2075 26.9934 31.6541 27.3913 31.1968C27.7631 30.8265 28.2989 30.374 28.8368 30.4563C29.0617 30.5315 29.2672 30.6554 29.4384 30.8191C29.6097 30.9827 29.7426 31.182 29.8276 31.4028C30.0281 31.9762 30.1666 32.5694 30.2407 33.1722C30.3229 33.7446 30.3643 34.3221 30.3645 34.9004C30.3233 35.1884 30.6535 35.2707 30.9012 35.2707C31.1489 35.2707 31.5617 35.1061 31.5617 34.8181C31.5631 34.1851 31.5217 33.5528 31.4379 32.9253C31.3619 32.2168 31.1815 31.5234 30.9024 30.8674C30.7565 30.5297 30.5226 30.2371 30.2249 30.02C29.9272 29.803 29.5766 29.6693 29.2095 29.6328C28.7425 29.6309 28.2798 29.7208 27.8477 29.8973C27.4157 30.0739 27.0228 30.3336 26.6916 30.6617C26.0261 31.2548 25.5761 32.0505 25.4115 32.925C25.3269 33.501 26.5244 33.2953 26.6069 32.8016Z" fill="#162B43"/>
<path d="M19.2568 30.9079C19.2568 32.1424 19.8351 33.1712 20.4956 33.1712C21.1561 33.1712 21.7344 32.1424 21.7344 30.9079C21.7344 29.6734 21.1564 28.6445 20.4956 28.6445C19.8348 28.6445 19.2568 29.6322 19.2568 30.9079Z" fill="#162B43"/>
<path d="M20.4956 33.3776C19.7109 33.3776 19.0504 32.2665 19.0504 30.9085C19.0504 29.5506 19.7109 28.4395 20.4956 28.4395C21.2803 28.4395 21.9408 29.5094 21.9408 30.9085C21.9408 32.3076 21.28 33.3776 20.4956 33.3776ZM20.4956 28.8512C20.0002 28.8512 19.4632 29.674 19.4632 30.9085C19.4632 32.1431 20.0002 32.9662 20.4956 32.9662C20.991 32.9662 21.528 32.1431 21.528 30.9085C21.528 29.674 20.991 28.8512 20.4956 28.8512Z" fill="#162B43"/>
<path d="M27.9695 32.5951C27.9695 33.8296 28.5474 34.8585 29.2083 34.8585C29.8691 34.8585 30.447 33.8296 30.447 32.5951C30.447 31.3606 29.8688 30.332 29.2083 30.332C28.5477 30.332 27.9695 31.3606 27.9695 32.5951Z" fill="#162B43"/>
<path d="M29.2082 35.0638C28.4236 35.0638 27.7631 33.9938 27.7631 32.5947C27.7631 31.1957 28.4236 30.126 29.2082 30.126C29.9929 30.126 30.6534 31.1957 30.6534 32.5947C30.6534 33.9938 30.0342 35.0638 29.2082 35.0638ZM29.2082 30.5374C28.7129 30.5374 28.1759 31.3605 28.1759 32.5947C28.1759 33.829 28.7129 34.6524 29.2082 34.6524C29.7036 34.6524 30.2406 33.8293 30.2406 32.5947C30.2406 31.3602 29.7036 30.5374 29.2082 30.5374Z" fill="#162B43"/>
<path d="M13.7237 32.5957C13.3736 33.7517 13.125 34.9358 12.9807 36.1347C12.9394 36.4227 12.9394 36.7518 12.8981 37.0392C12.8568 37.3266 12.8155 37.5741 13.0219 37.7798C13.4744 38.1023 13.9586 38.3782 14.4671 38.6032C16.4663 39.6566 18.6884 40.2207 20.9497 40.2488C21.098 40.2469 21.2419 40.1981 21.3607 40.1094C21.4795 40.0207 21.5669 39.8968 21.6105 39.7554C21.923 38.3826 22.3376 37.0348 22.8507 35.7233C22.8901 35.6496 22.9034 35.5647 22.8884 35.4826C22.8735 35.4004 22.8311 35.3256 22.7681 35.2704C20.4168 33.5059 17.7557 32.1941 14.9215 31.4026C14.7691 31.3499 14.604 31.3453 14.4489 31.3895C14.2938 31.4336 14.1561 31.5244 14.0546 31.6494C13.8892 31.8537 13.9304 32.1843 14.2197 32.2254C16.969 32.9989 19.5467 34.2834 21.8172 36.0113L21.7346 35.5584C21.1627 36.9452 20.707 38.3767 20.372 39.8383L21.0325 39.3443C18.4967 39.2458 16.0381 38.4478 13.9304 37.0392L14.0956 37.3684C14.1687 35.8056 14.4322 34.2576 14.8802 32.7582C15.0864 32.0608 13.8889 32.0608 13.7237 32.5957Z" fill="#162B43"/>
<path d="M24.7077 36.5865C24.5027 38.1502 24.3361 39.7141 24.2535 41.2778C24.212 41.4012 24.3361 41.482 24.46 41.482C27.3182 41.8799 30.2055 42.0313 33.0898 41.9346C33.3787 41.9346 33.8329 41.8526 33.957 41.5643C34.6208 39.4053 35.1449 37.2061 35.526 34.9802C35.5673 34.7745 35.3196 34.7334 35.1958 34.7334L29.9517 35.0625C28.3414 35.186 26.7721 35.2668 25.2443 35.8445C25.0792 35.9268 24.7489 36.0914 24.9141 36.2971C25.0792 36.5028 25.5336 36.3793 25.6987 36.2971C27.1041 35.7622 28.6304 35.7622 30.0756 35.6799L34.7016 35.3917L34.33 35.1448C33.9488 37.3707 33.4247 39.5699 32.761 41.7289L33.5866 41.3172C30.7849 41.3936 27.9816 41.2422 25.2045 40.8646L25.4522 41.1118C25.5219 39.5412 25.6736 37.9753 25.9066 36.4205C25.9464 35.9694 24.7489 36.1751 24.7077 36.5865Z" fill="#162B43"/>
<path d="M36.1862 36.5456C38.416 34.2406 40.6456 31.9355 43.0409 29.797C44.2384 28.7273 45.4358 27.6985 46.6743 26.7108C47.0874 26.4228 47.6654 25.7643 48.0797 26.176C48.494 26.5877 48.3274 27.6162 48.0797 28.1511L49.6074 27.7396H49.6487C49.8967 27.3694 49.4438 27.1634 49.1533 27.1222C48.9259 27.1141 48.6997 27.1581 48.4921 27.2508C48.2844 27.3436 48.101 27.4827 47.9558 27.6574C47.8976 27.7355 47.8575 27.8256 47.8384 27.921C47.8193 28.0165 47.8217 28.115 47.8453 28.2094C47.869 28.3039 47.9134 28.3919 47.9754 28.4672C48.0373 28.5425 48.1152 28.6031 48.2035 28.6448C48.5751 28.933 49.5664 28.6862 49.7313 28.2333C49.8961 27.7805 50.434 26.6285 49.979 25.8054C49.524 24.9823 48.6977 24.8598 47.9131 24.9415C47.1284 25.0232 46.2199 25.5997 45.4765 26.176L43.1635 28.0276C40.1903 30.579 37.4651 33.4183 34.7398 36.2165C34.4509 36.5045 34.5349 36.7925 34.9053 36.9168C35.1326 36.9694 35.3696 36.963 35.5937 36.8981C35.8178 36.8332 36.0214 36.712 36.185 36.5462L36.1862 36.5456Z" fill="#162B43"/>
<path d="M21.0739 47.2451C21.1265 47.5329 21.224 47.8106 21.3629 48.0683C21.4505 48.2198 21.577 48.3453 21.7294 48.4321C21.8818 48.5189 22.0546 48.5637 22.2301 48.562C22.7876 48.5772 23.336 48.4189 23.7991 48.1091L24.2945 47.78H24.3358L24.4596 47.6977L24.5835 47.6157C24.5835 47.5743 24.7076 47.5331 24.6248 47.5743C24.5419 47.6154 25.0379 47.3274 24.7902 47.2451C24.4913 47.2163 24.1904 47.2733 23.923 47.4094L23.4688 47.6977L23.097 47.9448L22.9319 48.1091H22.8906C22.808 48.1503 22.808 48.1503 22.8906 48.1503H22.9732C22.4778 48.0268 22.3539 47.4094 22.2705 46.9983L22.0641 46.916L21.6097 46.9983C21.476 47.0281 21.3497 47.0841 21.2381 47.1632C21.1556 47.204 21.073 47.2451 21.073 47.3274L21.0739 47.2451Z" fill="#162B43"/>
<path d="M47.1284 62.1414L45.8071 69.9612C45.6832 70.7428 47.5002 70.496 47.6241 69.7963L48.9454 61.978C49.0693 61.1948 47.2523 61.4417 47.1284 62.1414Z" fill="#162B43"/>
<path d="M33.9979 74.9386L33.8741 75.1032L33.5438 75.5971C33.3836 75.9074 33.2722 76.2405 33.2135 76.5845C33.1553 77.083 33.2565 77.587 33.5025 78.0248C33.8101 78.519 34.2755 78.8959 34.8239 79.0947C35.3323 79.332 35.8763 79.4849 36.4342 79.5473C37.5078 79.7122 38.6637 79.9179 39.9438 79.9999H41.9256L42.9583 79.9179L43.495 79.8356L43.9904 79.753L46.0138 79.3416C46.4073 79.2281 46.7934 79.0906 47.17 78.9299C47.5577 78.6801 47.894 78.3589 48.1611 77.9836C48.5856 77.3138 48.8405 76.5512 48.9039 75.7614C48.9719 75.0916 48.9995 74.4183 48.9867 73.7452C48.9867 73.0869 48.9039 72.4287 48.8629 71.8527C48.8148 71.5668 48.7871 71.2779 48.78 70.9881V70.7839C48.78 70.6602 48.739 70.5368 48.739 70.4133C48.6878 70.169 48.5739 69.9421 48.4085 69.7548C48.2536 69.6197 48.0702 69.5213 47.8718 69.4668H45.5181C45.105 69.5076 44.9401 69.5905 44.9817 69.6725C45.2625 69.8346 45.5697 69.946 45.8893 70.0016L46.797 70.2076L47.3339 70.2899C47.4771 70.3158 47.6076 70.3881 47.7052 70.4956C47.7443 70.5561 47.7591 70.629 47.7468 70.6999V70.8236C47.7133 70.8868 47.6989 70.9584 47.7052 71.0296V71.9761C47.7052 72.593 47.7052 73.2515 47.6642 73.9512C47.6115 74.656 47.5149 75.3568 47.3749 76.0497C47.3295 76.3651 47.2177 76.6675 47.0471 76.9369C46.8764 77.2064 46.6506 77.437 46.3844 77.6137L45.3518 77.9014L44.0717 78.1482C43.1997 78.3187 42.3167 78.4287 41.4294 78.4773L38.7038 78.3539L37.2587 78.2305L35.896 78.0662C35.4587 77.9894 35.0473 77.8055 34.6988 77.5311C34.5713 77.4218 34.4766 77.2794 34.4256 77.1197C34.3745 76.96 34.369 76.7892 34.4096 76.6266C34.4718 76.2511 34.6281 75.8973 34.864 75.598L35.6483 74.7338C36.5534 73.8826 37.6864 73.3109 38.9105 73.0878C39.7031 72.9612 40.5152 73.0464 41.2639 73.3347C41.5681 73.4458 41.8484 73.6134 42.0899 73.8287L42.2948 74.0755L42.4187 74.2398L42.5425 74.4046C42.6792 74.6472 42.8309 74.8811 42.9966 75.1049H43.2443V74.9815C43.2926 74.6543 43.3202 74.3244 43.3269 73.9938C43.333 73.6367 43.3193 73.2795 43.2859 72.9238C43.2771 72.5798 43.2496 72.2364 43.2033 71.8953C43.1621 71.4425 43.2033 71.195 43.1205 71.195C43.0376 71.195 42.9966 71.3599 42.9141 71.7302L42.7902 72.3473C42.797 72.4858 42.7831 72.6245 42.7489 72.759V72.9632C42.708 73.0867 42.708 73.2101 42.6664 73.3335V73.4158H42.6251L42.501 73.1686C42.4187 73.0866 42.3777 73.0044 42.296 72.9644H42.2134C42.2134 72.923 42.2134 72.923 42.1309 72.8821L41.7178 72.6353C41.1687 72.3969 40.5815 72.2575 39.9836 72.2236C38.8464 72.1198 37.7027 72.3334 36.6804 72.8407C35.9441 73.2112 35.2631 73.6821 34.657 74.2398L34.1229 74.774L33.9979 74.9386Z" fill="#162B43"/>
<path d="M30.0342 77.2022L29.456 77.3256L28.7533 77.4905H25.3268C24.2976 77.449 23.2746 77.311 22.2713 77.0785C21.7668 76.9689 21.2803 76.7889 20.8262 76.5439C20.6623 76.453 20.5212 76.3263 20.4133 76.1734C20.3341 76.0504 20.2912 75.9077 20.2895 75.7617C20.3279 75.5602 20.3975 75.3658 20.4959 75.1857C20.6198 74.9612 20.7725 74.7536 20.95 74.5683C21.3182 74.1359 21.7497 73.7614 22.2301 73.4575C23.1661 72.8431 24.2494 72.4881 25.3687 72.4289C25.8597 72.3931 26.3526 72.4633 26.8139 72.6346L27.1032 72.7989H27.227L27.3096 72.8815L27.6398 73.1692C27.7547 73.3074 27.8518 73.4594 27.9288 73.6217L28.2591 74.1157L28.9617 75.3505C29.003 75.268 29.003 75.1448 29.0443 75.0214C29.0856 74.898 29.0856 74.98 29.0856 74.9388C29.0856 74.8977 29.1269 74.8565 29.1269 74.8151C29.1269 74.7737 29.1682 74.6109 29.1682 74.5274C29.1682 74.444 29.292 73.8271 29.3333 73.4989C29.3841 73.0892 29.4117 72.6769 29.4159 72.2641V71.7292C29.4159 71.6466 29.3746 71.6058 29.3746 71.5232V71.3992C29.3746 71.0292 29.3333 70.7824 29.3333 70.5761C29.3333 70.3698 29.2507 70.0827 29.1283 70.247C28.9043 70.6247 28.7635 71.0456 28.7155 71.4818C28.6883 71.761 28.6329 72.0367 28.5504 72.3049L28.4265 72.5926L28.3437 72.4692L28.2198 72.2635C28.1571 72.128 28.0735 72.003 27.9721 71.8932C27.7648 71.7044 27.5273 71.5513 27.2695 71.4404C26.5854 71.1213 25.8359 70.9663 25.0809 70.9878C24.2884 70.9947 23.5042 71.1482 22.7679 71.4404C21.9572 71.7365 21.203 72.168 20.5378 72.7166C19.7462 73.2996 19.1433 74.101 18.8036 75.0217C18.7111 75.3138 18.683 75.6223 18.721 75.9262C18.7285 76.08 18.7563 76.2322 18.8036 76.3788C18.8396 76.5492 18.895 76.7149 18.9687 76.8728C19.3142 77.3425 19.7672 77.7234 20.2901 77.9836C21.1499 78.3824 22.0714 78.6329 23.0153 78.7244C23.9235 78.8063 24.8319 78.8475 25.7405 78.8478C26.583 78.8253 27.4236 78.7566 28.2585 78.6421C29.005 78.5416 29.7386 78.3622 30.447 78.107C31.7271 77.6136 32.8007 77.037 33.5025 76.2139C33.8353 75.8248 34.0627 75.3575 34.1633 74.8563C34.1976 74.6386 34.2114 74.4182 34.2046 74.198C34.2114 74.0186 34.1976 73.8391 34.1633 73.6629C34.1633 72.9626 34.1221 72.3872 34.1221 71.8935C34.1221 71.3998 34.0808 70.9469 34.0808 70.5355C34.0782 70.134 33.979 69.739 33.7915 69.3836C33.6782 69.1876 33.516 69.024 33.3208 68.9086C33.1256 68.7932 32.9038 68.7299 32.6769 68.7247C32.2051 68.7095 31.7333 68.7511 31.2715 68.8485C30.7346 68.8896 30.5281 68.9304 30.6107 69.013C30.8884 69.1161 31.1816 69.1716 31.4779 69.1773L32.3036 69.2602C32.5643 69.3016 32.8079 69.4157 33.0063 69.5893C33.1046 69.7006 33.1776 69.8317 33.2203 69.9737C33.2631 70.1157 33.2745 70.2653 33.254 70.4121V73.2103C33.254 73.4572 33.2952 73.7043 33.2952 73.9106V74.5688C33.2286 74.8978 33.0954 75.2098 32.9037 75.4858C32.712 75.7617 32.4659 75.9957 32.1803 76.1736C31.7066 76.4981 31.1932 76.7608 30.6526 76.9553L30.0342 77.2022Z" fill="#162B43"/>
<path d="M20.4956 30.3323C20.4956 30.8671 20.7433 31.2788 21.0736 31.2788C21.4038 31.2788 21.6931 30.8671 21.6931 30.3323C21.6931 29.7974 21.4038 29.3857 21.0736 29.3857C20.7433 29.3857 20.4956 29.7972 20.4956 30.3323Z" fill="white"/>
<path d="M29.3322 32.4716C29.3322 32.9656 29.6211 33.3762 29.9101 33.3762C30.1991 33.3762 30.5296 32.9648 30.5296 32.4716C30.5296 31.9785 30.2407 31.5254 29.9101 31.5254C29.5796 31.5254 29.3322 31.9368 29.3322 32.4716Z" fill="white"/>
<path d="M30.9837 66.8323L30.8599 69.3839C30.8599 69.5067 31.1488 69.5482 31.1901 69.5896C31.4136 69.6029 31.6377 69.5748 31.8509 69.5067C32.0804 69.4708 32.295 69.3711 32.4702 69.219C32.5724 69.1517 32.6459 69.049 32.6766 68.9308L32.7592 66.3383C32.7592 66.2148 32.5115 66.174 32.4289 66.174C32.2081 66.1463 31.984 66.1602 31.7684 66.2148C31.551 66.2859 31.343 66.3827 31.1488 66.5031C31.0976 66.5414 31.0559 66.5911 31.0273 66.6483C30.9986 66.7054 30.9837 66.7684 30.9837 66.8323Z" fill="#162B43"/>
<path d="M36.3103 78.1076L36.1864 75.0625L34.9889 75.3917C35.4697 76.3554 36.0074 77.2899 36.5993 78.1901C36.8057 78.4778 37.7967 78.231 37.7967 77.9019V74.3628L36.5993 74.692C37.1739 76.2833 37.8783 77.8252 38.7053 79.3021C38.8704 79.5904 39.9025 79.3433 39.9025 78.973L39.6548 73.5823L38.4573 73.9114L41.7192 79.0964C41.8846 79.3847 42.8344 79.1378 42.9167 78.8496C43.1231 77.903 42.8754 76.9979 42.7117 76.0514L42.0922 73.046L40.936 73.3757C41.8761 75.0103 42.9682 76.5532 44.1979 77.9841C44.3633 78.1901 45.437 77.9433 45.3541 77.6142C45.2712 77.285 44.7758 75.7211 44.5282 74.7334C44.2805 73.7457 43.9502 72.8403 44.074 71.8532L42.8766 72.0995C43.6234 73.8233 44.6565 75.4094 45.9323 76.791C46.1373 76.9953 47.1295 76.7499 47.0885 76.4208C47.0057 74.2808 46.3036 72.3066 45.6434 70.3301L44.4444 70.6992C45.4655 71.4835 46.3937 72.3811 47.2112 73.3746C47.3761 73.6208 48.2849 73.3331 48.3674 73.0863C48.5679 72.0982 48.4971 71.0745 48.1625 70.1232C48.0386 69.7941 46.8411 70.1647 46.965 70.4524C47.301 71.3463 47.3721 72.3177 47.1699 73.2508L48.3259 72.9629C47.5121 71.9809 46.5986 71.0854 45.6 70.2907C45.3951 70.1258 44.32 70.3316 44.4438 70.661C45.1049 72.6363 45.8067 74.6114 45.8893 76.7099L47.0452 76.3394C45.7795 75.0131 44.7715 73.4644 44.0723 71.7718C43.9484 71.4841 42.9161 71.7718 42.8748 72.0601C42.8144 73.0216 42.9405 73.9858 43.2463 74.8997C43.5356 75.8868 43.8659 76.9156 44.154 77.9447L45.3102 77.5742C44.1073 76.1609 43.0298 74.6463 42.0896 73.0475C41.9247 72.7598 40.8511 73.0475 40.9333 73.3772L41.47 76.1751C41.6354 77.1216 41.9247 78.0682 41.7177 79.0147L42.9152 78.7676L39.6533 73.5826C39.4483 73.3358 38.4145 73.5826 38.4558 73.9117L38.7038 79.3024L39.901 78.9733C39.0742 77.4963 38.37 75.9544 37.7953 74.3631C37.6714 74.034 36.5978 74.3631 36.5978 74.6922V78.1904L37.7953 77.9021C37.1944 76.9933 36.6564 76.0446 36.185 75.0628C36.0198 74.7748 34.9462 75.022 34.9875 75.3919L35.1113 78.4373C35.1541 78.6835 36.3516 78.4778 36.3103 78.1076Z" fill="#162B43"/>
<path d="M15.2091 32.8423C16.9019 30.7435 18.5122 28.5624 20.04 26.3817C20.1076 26.3106 20.156 26.2236 20.1805 26.1288C20.205 26.034 20.2048 25.9345 20.18 25.8398C20.1552 25.7451 20.1066 25.6582 20.0388 25.5874C19.9709 25.5166 19.8861 25.4642 19.7923 25.4351C19.5709 25.3534 19.3297 25.3411 19.1011 25.3999C18.8725 25.4587 18.6674 25.5859 18.5134 25.7643C16.9857 27.9865 15.3754 30.1264 13.6825 32.266C13.6244 32.3371 13.5841 32.421 13.565 32.5107C13.546 32.6004 13.5487 32.6933 13.5729 32.7818C13.5971 32.8702 13.6422 32.9517 13.7043 33.0193C13.7664 33.0869 13.8439 33.1388 13.9302 33.1706C14.1515 33.2524 14.3926 33.2649 14.6212 33.2062C14.8498 33.1475 15.055 33.0205 15.2091 32.8423Z" fill="#162B43"/>
<path d="M20.2066 74.5683C20.4491 75.7044 20.9907 76.7557 21.7756 77.6142C22.0646 77.9019 23.097 77.7371 22.9318 77.2025C22.5478 75.7809 22.367 74.3124 22.3949 72.8404L21.1974 73.0446C21.9794 74.7983 22.9633 76.4555 24.1293 77.9828C24.4183 78.353 25.3681 78.0653 25.2852 77.5714L24.4183 72.3452L23.2621 72.7569C24.2536 74.606 25.4 76.3683 26.6891 78.0251C26.9784 78.3956 27.9692 78.1485 27.8453 77.614L26.6891 72.7998L25.5332 73.2113L28.5489 77.7374C28.7966 78.1079 29.7877 77.7788 29.7051 77.2848C29.4129 75.7861 28.9986 74.3137 28.4663 72.8821L27.3514 73.2932C28.1861 74.6061 29.2155 75.7853 30.4046 76.7908C30.6523 76.9951 31.6433 76.7497 31.4782 76.2969C30.8587 74.6921 30.1569 73.1284 29.4548 71.6059L28.2989 72.0173C29.2856 73.5003 30.405 74.8914 31.6433 76.1734C31.9323 76.4614 32.9234 76.2969 32.7995 75.7617C32.2687 73.6766 31.4339 71.6803 30.322 69.8365L29.2071 70.3713C30.322 71.6881 31.4369 73.0458 32.5106 74.4041C32.7583 74.7332 33.8319 74.4863 33.6665 73.9924L31.9323 69.5482L30.8174 69.9599C31.3704 70.6133 31.9783 71.2185 32.6344 71.769C32.9647 72.0572 33.7078 71.7281 33.6665 71.2753V70.4113C33.6252 69.8762 32.428 70.1645 32.4693 70.699L32.5518 71.6035L33.5839 71.1098C32.9825 70.5992 32.4296 70.0344 31.9323 69.4225C31.6846 69.1345 30.611 69.3816 30.7761 69.8342L32.5126 74.3218L33.6272 73.9101C32.5539 72.5095 31.4803 71.1942 30.3653 69.8365C30.0351 69.4659 28.9202 69.8365 29.2504 70.3713C30.3201 72.1483 31.1137 74.0765 31.6041 76.0903L32.7603 75.6786C31.5315 74.388 30.4128 72.9977 29.4155 71.5221C29.1678 71.1518 28.0529 71.4813 28.2596 71.9338C28.9623 73.4564 29.6635 75.0203 30.2828 76.5837L31.3151 76.1311C30.1906 75.17 29.216 74.0473 28.4236 72.7998C28.2172 72.4296 27.1023 72.7587 27.2674 73.2113C27.7997 74.6429 28.214 76.1155 28.5062 77.6142L29.6211 77.2025L26.6479 72.6758C26.4002 72.3056 25.3681 72.6347 25.4919 73.0872L26.6479 77.9431L27.7628 77.5314C26.4959 75.8678 25.3638 74.1065 24.377 72.2641C24.1293 71.853 23.1382 72.1818 23.2208 72.6758L24.088 77.9017L25.244 77.4905C24.1149 76.0126 23.159 74.4109 22.3949 72.7167C22.1899 72.3056 21.1974 72.4698 21.1974 72.9638C21.1719 74.5034 21.3525 76.0394 21.7343 77.5314L22.8906 77.12C22.1267 76.3226 21.6105 75.3222 21.4041 74.2392C21.2802 73.7044 20.0828 74.0335 20.2066 74.5683Z" fill="#162B43"/>
</g>
<defs>
<clipPath id="clip0_222_3919">
<rect width="80" height="80" fill="white"/>
</clipPath>
</defs>
</svg>
