<svg width="80" height="74" viewBox="0 0 80 74" fill="none" xmlns="http://www.w3.org/2000/svg">
<g clip-path="url(#clip0_222_3714)">
<path d="M62.0912 16.7734H15.1449C14.464 16.7731 13.7898 16.9074 13.1606 17.1685C12.5314 17.4296 11.9597 17.8125 11.4781 18.2952C10.9965 18.7779 10.6145 19.3511 10.3538 19.982C10.0931 20.6128 9.95884 21.289 9.95874 21.9719V46.6132C9.95874 47.2961 10.0929 47.9724 10.3536 48.6034C10.6142 49.2343 10.9963 49.8076 11.4779 50.2904C11.9595 50.7732 12.5312 51.1562 13.1604 51.4173C13.7896 51.6785 14.464 51.8127 15.1449 51.8124H62.0912C62.7721 51.8127 63.4465 51.6785 64.0757 51.4173C64.7049 51.1562 65.2766 50.7732 65.7582 50.2904C66.2398 49.8076 66.6219 49.2343 66.8825 48.6034C67.1432 47.9724 67.2774 47.2961 67.2774 46.6132V21.9719C67.2766 20.5929 66.7298 19.2707 65.7573 18.2959C64.7848 17.321 63.4661 16.7734 62.0912 16.7734Z" fill="#007EEF"/>
<path d="M60.8402 21.7246H16.9989C16.2879 21.7248 15.6061 22.0082 15.1035 22.5126C14.6008 23.0169 14.3185 23.7009 14.3186 24.4139V43.3493C14.3186 44.0626 14.6011 44.7466 15.104 45.251C15.6068 45.7553 16.2889 46.0387 17 46.0387H60.8402C61.5514 46.0387 62.2334 45.7553 62.7364 45.251C63.2393 44.7467 63.5219 44.0626 63.522 43.3493V24.4139C63.522 24.0607 63.4526 23.711 63.3178 23.3847C63.1831 23.0584 62.9855 22.7619 62.7365 22.5122C62.4874 22.2624 62.1918 22.0643 61.8664 21.9292C61.5411 21.7941 61.1923 21.7246 60.8402 21.7246Z" fill="#DBF122"/>
<path d="M64.6393 51.4648H11.8815L2.09426 67.2646C1.94328 67.4978 1.85877 67.7679 1.8499 68.0457C1.84103 68.3236 1.90812 68.5986 2.04392 68.8409C2.17971 69.0833 2.37904 69.2837 2.62029 69.4206C2.86155 69.5575 3.13554 69.6255 3.4126 69.6174H72.9751C73.2912 69.613 73.6005 69.5246 73.8715 69.3613C74.1424 69.1979 74.3653 68.9654 74.5175 68.6875C74.6696 68.4096 74.7456 68.0961 74.7376 67.7792C74.7296 67.4622 74.6379 67.153 74.472 66.8832L64.6393 51.4648Z" fill="#007EEF"/>
<path d="M20.1495 65.6514C28.2088 65.7861 36.2606 65.6591 44.3047 65.2704C45.1762 65.2255 45.1762 63.881 44.3047 63.9259C36.2603 64.2996 28.2086 64.4266 20.1495 64.307C19.3001 64.2844 19.3001 65.6292 20.1495 65.6514Z" fill="#162B43"/>
<path d="M14.362 55.2745H16.8198C17.6913 55.2745 17.6913 53.9297 16.8198 53.9297H14.362C13.4916 53.9297 13.4916 55.2745 14.362 55.2745Z" fill="#162B43"/>
<path d="M22.5406 55.3868H24.6188C25.4903 55.3868 25.4903 54.042 24.6188 54.042H22.5406C21.6691 54.042 21.6691 55.3868 22.5406 55.3868Z" fill="#162B43"/>
<path d="M30.0482 55.2745H33.8469C34.7184 55.2745 34.7184 53.9297 33.8469 53.9297H30.0482C29.1767 53.9297 29.1767 55.2745 30.0482 55.2745Z" fill="#162B43"/>
<path d="M37.5564 55.2745H39.7463C40.5956 55.2745 40.5956 53.9297 39.7463 53.9297H37.5564C36.6853 53.9297 36.6853 55.2745 37.5564 55.2745Z" fill="#162B43"/>
<path d="M44.5953 55.1847H47.2545C48.1035 55.1847 48.126 53.8398 47.2545 53.8398H44.5953C43.7238 53.8398 43.7238 55.1847 44.5953 55.1847Z" fill="#162B43"/>
<path d="M15.5909 59.6661H19.3896C20.2611 59.6661 20.2611 58.3213 19.3896 58.3213H15.5909C14.7416 58.322 14.7194 59.6661 15.5909 59.6661Z" fill="#162B43"/>
<path d="M25.2886 59.3761H28.8213C29.6702 59.3761 29.6702 58.0312 28.8213 58.0312H25.2886C24.4171 58.0312 24.4171 59.3761 25.2886 59.3761Z" fill="#162B43"/>
<path d="M10.6527 63.3878H13.401C14.2725 63.3878 14.2725 62.043 13.401 62.043H10.6527C9.78115 62.0415 9.78115 63.3878 10.6527 63.3878Z" fill="#162B43"/>
<path d="M12.9322 66.1443H16.4404C17.3115 66.1443 17.3115 64.7998 16.4404 64.7998H12.9322C12.0607 64.7998 12.0607 66.1443 12.9322 66.1443Z" fill="#162B43"/>
<path d="M19.7698 63.298H23.3896C24.2611 63.298 24.2611 61.9531 23.3896 61.9531H19.7698C18.9205 61.9531 18.9205 63.298 19.7698 63.298Z" fill="#162B43"/>
<path d="M32.7073 62.9167H35.8356C36.7071 62.9167 36.7071 61.5723 35.8356 61.5723H32.7073C31.8358 61.5723 31.8358 62.9167 32.7073 62.9167Z" fill="#162B43"/>
<path d="M54.0921 55.0951C55.6115 55.0503 57.1309 55.0725 58.6728 55.1622C59.5218 55.2071 59.5218 53.8626 58.6728 53.8177C57.132 53.728 55.6115 53.7046 54.0921 53.7503C53.2427 53.7729 53.2427 55.1173 54.0921 55.0951Z" fill="#162B43"/>
<path d="M43.6343 61.1917C45.1264 61.2331 46.6195 61.1732 48.1035 61.0123C48.9524 60.8992 48.975 59.5555 48.1035 59.6678C46.6195 59.8284 45.1263 59.8882 43.6343 59.8468C42.785 59.8246 42.785 61.1691 43.6343 61.1917Z" fill="#162B43"/>
<path d="M55.7229 58.6144H59.991C60.8625 58.6144 60.8625 57.2695 59.991 57.2695H55.7229C54.8518 57.2695 54.8518 58.6144 55.7229 58.6144Z" fill="#162B43"/>
<path d="M55.9017 64.0593C58.0915 64.0819 60.2814 64.0593 62.4712 63.97C63.3202 63.9251 63.3202 62.5803 62.4712 62.6251C60.2814 62.7148 58.0915 62.7382 55.9017 62.7148C55.0302 62.6922 55.0302 64.0386 55.9017 64.0593Z" fill="#162B43"/>
<path d="M42.897 57.7843H47.6119C48.4609 57.7843 48.4834 56.4395 47.6119 56.4395H42.897C42.0477 56.4395 42.0477 57.7843 42.897 57.7843Z" fill="#DBF122"/>
<path d="M42.429 57.1127C41.848 57.942 41.4459 59.1745 42.8537 59.3539C44.62 59.5555 46.5407 59.3539 48.3281 59.3539C49.1774 59.3539 49.1774 58.0094 48.3281 58.0094H45.6234C45.2434 58.0094 43.2325 58.2559 42.9867 58.0094L43.1652 58.6592C43.2328 58.3372 43.3787 58.037 43.5899 57.7852C44.1036 57.0905 42.9416 56.4181 42.429 57.1127Z" fill="#DBF122"/>
<path d="M42.2036 56.9778C42.0021 57.4577 41.8669 57.9629 41.8015 58.4795C41.7567 58.8383 42.1367 59.1519 42.4719 59.1519C42.6481 59.1465 42.8156 59.074 42.9403 58.949C43.065 58.8241 43.1375 58.6562 43.1431 58.4795C43.2076 58.0835 43.328 57.6987 43.5005 57.3367C43.5472 57.1645 43.5239 56.9808 43.4359 56.8258C43.3478 56.6708 43.2021 56.5571 43.0306 56.5097C42.8592 56.4622 42.6759 56.4848 42.5211 56.5726C42.3662 56.6603 42.2523 56.806 42.2043 56.9778H42.2036Z" fill="#DBF122"/>
<path d="M47.2544 57.5835C47.5892 57.9645 47.6786 58.3678 47.7681 58.8609C47.8575 59.3539 48.2596 59.421 48.5727 59.3316C48.7446 59.2841 48.8908 59.1701 48.979 59.0146C49.0227 58.9377 49.0508 58.8528 49.0616 58.7649C49.0724 58.6769 49.0656 58.5877 49.0417 58.5024C48.9613 57.8014 48.6644 57.1432 48.1928 56.6197C47.9691 56.3509 47.5001 56.3958 47.2532 56.6197C47.1288 56.7491 47.0593 56.9218 47.0593 57.1016C47.0593 57.2813 47.1288 57.4541 47.2532 57.5835H47.2544Z" fill="#DBF122"/>
<path d="M43.1202 58.6363C44.64 58.5692 46.1594 58.5469 47.7009 58.5918C48.5503 58.5918 48.5503 57.2469 47.7009 57.2469C46.1601 57.2021 44.64 57.2247 43.1202 57.2918C42.2487 57.3366 42.2487 58.6811 43.1202 58.6363Z" fill="#DBF122"/>
<path d="M44.0144 57.807H46.7849C46.8298 57.8085 46.8746 57.8009 46.9166 57.7847C46.9585 57.7685 46.9968 57.744 47.0291 57.7127C47.0615 57.6813 47.0872 57.6438 47.1047 57.6022C47.1223 57.5607 47.1313 57.5161 47.1313 57.471C47.1313 57.4259 47.1223 57.3812 47.1047 57.3397C47.0872 57.2982 47.0615 57.2606 47.0291 57.2293C46.9968 57.1979 46.9585 57.1734 46.9166 57.1572C46.8746 57.141 46.8298 57.1334 46.7849 57.135H44.0144C43.9695 57.1334 43.9247 57.141 43.8827 57.1572C43.8408 57.1734 43.8025 57.1979 43.7702 57.2293C43.7378 57.2606 43.7121 57.2982 43.6946 57.3397C43.677 57.3812 43.668 57.4259 43.668 57.471C43.668 57.5161 43.677 57.5607 43.6946 57.6022C43.7121 57.6438 43.7378 57.6813 43.7702 57.7127C43.8025 57.744 43.8408 57.7685 43.8827 57.7847C43.9247 57.8009 43.9695 57.8085 44.0144 57.807Z" fill="white"/>
<path d="M37.2658 50.4788C38.562 50.4788 38.562 48.4619 37.2658 48.4619C35.9697 48.4619 35.9697 50.4788 37.2658 50.4788Z" fill="white"/>
<path d="M37.1766 50.703C38.897 50.703 38.897 48.0137 37.1766 48.0137C35.4561 48.0137 35.4561 50.703 37.1766 50.703Z" fill="white"/>
<path d="M42.2034 49.1343H56.2809C56.3698 49.1343 56.455 49.0989 56.5179 49.0359C56.5808 48.9728 56.6161 48.8873 56.6161 48.7981C56.6161 48.709 56.5808 48.6234 56.5179 48.5604C56.455 48.4973 56.3698 48.4619 56.2809 48.4619H42.2034C42.1145 48.4619 42.0292 48.4973 41.9664 48.5604C41.9035 48.6234 41.8682 48.709 41.8682 48.7981C41.8682 48.8873 41.9035 48.9728 41.9664 49.0359C42.0292 49.0989 42.1145 49.1343 42.2034 49.1343Z" fill="white"/>
<path d="M19.9992 9.71184C19.9166 8.4864 19.7221 7.27114 19.4182 6.08134C19.1304 4.89374 18.7262 3.73762 18.2114 2.62987C17.8988 1.9352 17.4741 1.37472 16.6251 1.59899C14.6811 2.13685 15.5962 5.16391 15.9547 6.48313C16.5853 8.69197 17.6662 10.7455 19.1288 12.5139C19.1459 12.5351 19.1673 12.5526 19.1916 12.5651C19.2157 12.5779 19.2421 12.5856 19.2693 12.5878C19.2966 12.5899 19.3239 12.5864 19.3498 12.5776C19.3756 12.5688 19.3994 12.5548 19.4197 12.5365C19.4592 12.5666 19.5085 12.581 19.558 12.5769C19.6075 12.5727 19.6537 12.5502 19.6876 12.5139C20.3344 11.8855 20.0661 10.5411 19.9992 9.71184Z" fill="#162B43"/>
<path d="M20.5352 15.18C21.831 15.18 21.831 13.1631 20.5352 13.1631C19.2394 13.1631 19.239 15.18 20.5352 15.18Z" fill="#162B43"/>
<path d="M76.7277 32.528C76.5749 31.0785 76.681 29.6134 77.0411 28.2013C77.1971 27.5228 77.4218 26.862 77.7115 26.2292C77.8382 25.9413 77.9876 25.664 78.1584 25.4C78.2478 25.2432 78.3373 25.1535 78.4267 25.0189C78.5162 24.8844 78.7172 24.8395 78.5395 24.8621L78.0032 24.7053C77.7777 24.5923 77.9806 24.5259 77.869 24.6605C77.7574 24.7951 77.7563 25.0189 77.6901 25.1535C77.624 25.2881 77.3327 25.7136 77.1764 25.9827C76.7689 26.6503 76.396 27.3384 76.0591 28.0445C75.4372 29.3959 75.0951 30.8597 75.0534 32.3474C75.0313 33.7371 77.1764 33.7371 77.1986 32.3474C77.2433 30.3754 78.0479 28.6046 79.0776 26.9688C79.5692 26.1844 80.0607 25.4 79.9938 24.4588C79.9269 23.5177 79.3681 22.6658 78.4072 22.7107C76.5973 22.7778 75.681 25.4 75.2128 26.7893C74.6133 28.6388 74.3988 30.592 74.5825 32.528C74.6494 33.1107 75.0516 33.6037 75.6551 33.6037C76.2587 33.6037 76.7946 33.1096 76.7277 32.528Z" fill="#DBF122"/>
<path d="M73.4877 46.7582C75.655 46.7582 75.655 43.3965 73.4877 43.3965C71.3204 43.3965 71.32 46.7582 73.4877 46.7582Z" fill="#DBF122"/>
<path d="M17.1612 2.94324L17.988 4.64654C18.1891 5.02761 18.7701 4.6914 18.569 4.28809L17.7422 2.60702C17.5634 2.20372 16.9823 2.56292 17.1612 2.94324Z" fill="white"/>
<path d="M18.3455 5.54325V5.70004C18.3508 5.78746 18.3878 5.8699 18.4496 5.93183C18.5113 5.99376 18.5935 6.0309 18.6807 6.03626C18.7696 6.03616 18.8548 6.0007 18.9176 5.93767C18.9805 5.87464 19.0158 5.78918 19.0159 5.70004V5.54325C19.016 5.49908 19.0073 5.45534 18.9905 5.41452C18.9737 5.37371 18.949 5.33663 18.9178 5.3054C18.8867 5.27417 18.8497 5.2494 18.809 5.23252C18.7683 5.21564 18.7247 5.20698 18.6807 5.20703C18.5935 5.21239 18.5113 5.24953 18.4496 5.31146C18.3878 5.37339 18.3508 5.45583 18.3455 5.54325Z" fill="white"/>
<path d="M20.6247 14.3953C20.7022 14.3952 20.7772 14.3682 20.8371 14.3189C20.8969 14.2695 20.9378 14.2009 20.9529 14.1247C20.9679 14.0485 20.9562 13.9695 20.9196 13.901C20.8831 13.8325 20.824 13.7788 20.7524 13.7491C20.6808 13.7194 20.6012 13.7156 20.5271 13.7381C20.453 13.7607 20.389 13.8084 20.3459 13.873C20.3029 13.9376 20.2836 14.0151 20.2912 14.0924C20.2988 14.1697 20.3328 14.242 20.3876 14.2969C20.4188 14.3281 20.4557 14.3529 20.4964 14.3698C20.5371 14.3867 20.5807 14.3953 20.6247 14.3953Z" fill="white"/>
<path d="M63.5438 15.6738L63.8568 16.1668C63.9068 16.2411 63.9826 16.2939 64.0694 16.3148C64.1562 16.3357 64.2477 16.3233 64.3259 16.2799C64.3641 16.2592 64.3975 16.2307 64.4239 16.1962C64.4638 16.1444 64.4865 16.0815 64.489 16.0162C64.4915 15.9509 64.4736 15.8864 64.4378 15.8317L64.1248 15.3387C64.0936 15.2812 64.0453 15.2349 63.9866 15.2063C63.9279 15.1777 63.8618 15.1683 63.7975 15.1793C63.7547 15.1865 63.714 15.2027 63.678 15.2268C63.602 15.2694 63.5456 15.34 63.5205 15.4236C63.4955 15.5073 63.5038 15.5974 63.5438 15.6749V15.6738Z" fill="white"/>
<path d="M77.4871 23.6074C75.8114 24.7506 75.2323 27.4173 74.9399 29.2774C74.873 29.7034 75.5209 29.8828 75.5878 29.4568C75.8561 27.7984 76.3477 25.1976 77.8224 24.1901C78.1801 23.9436 77.8449 23.3609 77.4871 23.6074Z" fill="white"/>
<path d="M73.5543 45.0553L73.6215 44.8985C73.6634 44.8235 73.6751 44.7353 73.6541 44.6519C73.6331 44.5686 73.5811 44.4964 73.5088 44.4504C73.4726 44.4264 73.4319 44.4103 73.3892 44.4029C73.3465 44.3956 73.3028 44.3973 73.2608 44.4078C73.2187 44.4184 73.1794 44.4376 73.1451 44.4642C73.1108 44.4908 73.0824 44.5242 73.0616 44.5623L72.9721 44.7191C72.9501 44.7574 72.9358 44.7996 72.9301 44.8434C72.9244 44.8872 72.9273 44.9317 72.9387 44.9744C72.9501 45.017 72.9698 45.057 72.9966 45.0921C73.0234 45.1271 73.0569 45.1565 73.095 45.1786C73.1332 45.2006 73.1753 45.215 73.2189 45.2207C73.2626 45.2265 73.307 45.2236 73.3495 45.2121C73.3921 45.2007 73.4319 45.1809 73.4669 45.154C73.5018 45.1271 73.5311 45.0936 73.5531 45.0553H73.5543Z" fill="white"/>
<path d="M11.7029 51.8459C19.6581 52.0253 27.6127 52.0777 35.5669 52.0031C35.9915 51.9804 35.9915 51.308 35.5669 51.3306C27.6122 51.3902 19.6576 51.3379 11.7029 51.1738C11.616 51.1767 11.5336 51.2134 11.4732 51.2761C11.4127 51.3388 11.3789 51.4226 11.3789 51.5099C11.3789 51.5971 11.4127 51.6809 11.4732 51.7436C11.5336 51.8063 11.616 51.843 11.7029 51.8459Z" fill="#162B43"/>
<path d="M37.3552 52.0902H43.8353C43.8803 52.0917 43.9251 52.0841 43.967 52.0679C44.009 52.0517 44.0473 52.0272 44.0796 51.9959C44.1119 51.9645 44.1376 51.927 44.1552 51.8854C44.1727 51.8439 44.1818 51.7993 44.1818 51.7542C44.1818 51.7091 44.1727 51.6644 44.1552 51.6229C44.1376 51.5814 44.1119 51.5438 44.0796 51.5125C44.0473 51.4811 44.009 51.4566 43.967 51.4404C43.9251 51.4242 43.8803 51.4166 43.8353 51.4182H37.3552C37.3103 51.4166 37.2655 51.4242 37.2235 51.4404C37.1816 51.4566 37.1433 51.4811 37.111 51.5125C37.0787 51.5438 37.0529 51.5814 37.0354 51.6229C37.0178 51.6644 37.0088 51.7091 37.0088 51.7542C37.0088 51.7993 37.0178 51.8439 37.0354 51.8854C37.0529 51.927 37.0787 51.9645 37.111 51.9959C37.1433 52.0272 37.1816 52.0517 37.2235 52.0679C37.2655 52.0841 37.3103 52.0917 37.3552 52.0902Z" fill="#162B43"/>
<path d="M1.60265 69.3043C2.00477 70.6488 3.01044 72.1056 4.48512 72.3747C4.90979 72.4418 5.0883 71.792 4.66401 71.7245C3.41256 71.5006 2.58577 70.2681 2.25055 69.1238C2.11639 68.7216 1.46849 68.9014 1.60265 69.3043Z" fill="#162B43"/>
<path d="M8.08321 72.6212C13.3027 73.0059 18.5389 73.1106 23.7695 72.9348C24.1942 72.9126 24.1942 72.2401 23.7695 72.2624C18.5389 72.4384 13.3027 72.3337 8.08321 71.9488C7.636 71.9265 7.636 72.5986 8.08321 72.6212Z" fill="#162B43"/>
<path d="M39.2771 73.7636C49.3772 73.7787 59.4847 73.6815 69.5998 73.4722C69.6887 73.4722 69.7739 73.4368 69.8368 73.3738C69.8997 73.3107 69.935 73.2252 69.935 73.136C69.935 73.0468 69.8997 72.9613 69.8368 72.8983C69.7739 72.8352 69.6887 72.7998 69.5998 72.7998C59.4847 73.0242 49.3772 73.1213 39.2771 73.0912C39.2331 73.0912 39.1895 73.0999 39.1488 73.1168C39.1082 73.1337 39.0712 73.1584 39.0401 73.1896C39.009 73.2209 38.9843 73.2579 38.9674 73.2987C38.9506 73.3395 38.9419 73.3832 38.9419 73.4274C38.9419 73.4715 38.9506 73.5152 38.9674 73.556C38.9843 73.5968 39.009 73.6339 39.0401 73.6651C39.0712 73.6963 39.1082 73.7211 39.1488 73.738C39.1895 73.7549 39.2331 73.7636 39.2771 73.7636Z" fill="#162B43"/>
<path d="M38.6684 14.9486C38.1994 14.9486 37.8863 14.5227 37.7522 13.6713C36.836 13.5367 36.3669 13.2231 36.3669 12.729C36.3669 12.2348 36.8363 11.922 37.73 11.7867C37.8194 11.0471 38.0652 10.3076 38.6695 10.3076C39.2738 10.3076 39.541 11.0238 39.6305 11.7867C40.5242 11.9212 40.9935 12.2352 40.9935 12.729C40.9935 13.2227 40.502 13.5356 39.6079 13.6713C39.4591 14.5229 39.1459 14.9486 38.6684 14.9486Z" fill="#162B43"/>
<path d="M43.1152 8.62848C42.1757 8.62848 41.7969 7.12683 41.6631 6.00624C40.4338 5.87168 38.825 5.51323 38.825 4.5272C38.825 3.54118 40.4116 3.18235 41.6184 3.04779C41.73 1.88461 42.0652 0 43.1152 0C44.1652 0 44.5008 1.88461 44.6124 3.04779C45.8192 3.18235 47.4058 3.54118 47.4058 4.5272C47.4058 5.51323 45.7744 5.87168 44.5677 6.00624C44.4114 7.12683 44.054 8.62848 43.1152 8.62848ZM39.9208 4.5272C40.1888 4.684 40.9039 4.93051 42.1554 5.02022L42.5797 5.06507L42.6244 5.49061C42.7371 6.6112 42.9596 7.26214 43.116 7.5079C43.2727 7.26139 43.4959 6.6112 43.6079 5.49061V5.06507L44.0547 5.02022C45.2836 4.93051 45.9988 4.684 46.2668 4.5272C45.9988 4.37003 45.3058 4.12352 44.0769 4.01157H43.6301V3.56341C43.5406 2.19632 43.2948 1.41195 43.116 1.14283C42.9374 1.41195 42.6691 2.19821 42.6022 3.56341L42.5575 4.01157H42.1328C40.9032 4.12352 40.188 4.37003 39.9201 4.5272H39.9208Z" fill="#DBF122"/>
<path d="M4.3128 53.9291C3.37328 53.9291 2.99446 52.4501 2.83775 51.3284C1.63139 51.1949 0 50.8365 0 49.8504C0 48.8644 1.60884 48.5056 2.79302 48.371C2.90577 47.2056 3.24024 45.3232 4.3128 45.3232C5.38536 45.3232 5.69804 47.2056 5.80965 48.371C6.99421 48.5056 8.60305 48.864 8.60305 49.8504C8.60305 50.8368 6.97166 51.1949 5.76493 51.3295C5.6086 52.4501 5.22865 53.9291 4.3128 53.9291ZM1.11841 49.8504C1.38636 50.0072 2.10153 50.2538 3.35298 50.3435L3.77765 50.3883L3.82237 50.8139C3.91144 51.9344 4.15722 52.5854 4.31393 52.8311C4.44772 52.5846 4.6935 51.9344 4.78294 50.8139L4.82766 50.3883L5.25233 50.3435C6.50378 50.2538 7.21857 50.0072 7.4869 49.8504C7.21857 49.6933 6.52595 49.4245 5.29705 49.3348H4.84796V48.8863C4.75851 47.5192 4.49018 46.7348 4.33385 46.4657C4.15496 46.7348 3.88701 47.5211 3.79757 48.8863V49.3344H3.35185C2.07823 49.4245 1.38524 49.6933 1.11728 49.8504H1.11841Z" fill="#DBF122"/>
<path d="M55.8505 13.3178C55.3815 13.3178 55.0685 12.8919 54.9347 12.0404C54.0185 11.9058 53.5491 11.5919 53.5491 11.0981C53.5491 10.6043 54.0185 10.2915 54.89 10.1558C55.0027 9.39366 55.2474 8.67676 55.8505 8.67676C56.4537 8.67676 56.722 9.39291 56.8115 10.1558C57.7055 10.2904 58.1746 10.604 58.1746 11.0981C58.1746 11.5922 57.683 11.9051 56.7893 12.0404C56.6255 12.892 56.3125 13.3178 55.8505 13.3178Z" fill="#162B43"/>
<path d="M29.0814 14.3813C28.6199 14.3813 28.3067 13.9555 28.1419 13.1039C27.2482 12.9693 26.7788 12.6553 26.7788 12.1616C26.7788 11.6678 27.2256 11.355 28.1197 11.2193C28.2088 10.4571 28.4771 9.74023 29.0803 9.74023C29.6834 9.74023 29.9296 10.4564 30.0412 11.2193C30.9127 11.3538 31.3821 11.6674 31.3821 12.1616C31.3821 12.6557 30.9127 12.9686 29.9965 13.1039C29.8635 13.9553 29.5508 14.3813 29.0814 14.3813Z" fill="#162B43"/>
</g>
<defs>
<clipPath id="clip0_222_3714">
<rect width="80" height="73.8081" fill="white"/>
</clipPath>
</defs>
</svg>
