<svg width="80" height="80" viewBox="0 0 80 80" fill="none" xmlns="http://www.w3.org/2000/svg">
<g clip-path="url(#clip0_222_3767)">
<path d="M3.3843 12.6856C0.946077 17.0744 1.73624 21.6483 2.4361 23.3867H9.47986L12.934 17.3589L21.9419 12.2115V11.2633C20.7228 9.79588 17.3228 6.67134 13.4758 5.91278C8.66712 4.96458 6.43207 7.19962 3.3843 12.6856Z" fill="#DBF122"/>
<path d="M22.9578 29.9564C22.9578 28.2767 24.0866 26.9537 24.651 26.5022H26.4797C26.7506 26.9312 27.2924 27.9787 27.2924 28.7373V33.8846C27.2924 34.8599 26.4345 35.781 26.0056 36.1196L23.7705 34.8328C23.4996 33.9072 22.9578 31.636 22.9578 29.9564Z" fill="#DBF122"/>
<path d="M28.6755 26.1469C28.672 26.0263 28.6237 25.9114 28.5401 25.8245C28.4979 25.7818 28.4477 25.7478 28.3924 25.7246C28.3371 25.7013 28.2777 25.6892 28.2177 25.689C28.1168 25.6895 28.019 25.7238 27.94 25.7866C27.8763 25.6619 27.8181 25.5333 27.7463 25.414L27.4957 24.9887C27.325 24.7056 27.1313 24.4333 26.9471 24.1584C26.8787 24.046 26.7711 23.9629 26.645 23.9254C26.5308 23.8937 26.4091 23.9036 26.3015 23.9532C26.1939 24.0028 26.1073 24.0889 26.0571 24.1963C26.0328 24.1773 26.0084 24.1597 25.9894 24.1475C25.9203 24.1082 25.854 24.073 25.7808 24.0405C25.6872 23.9857 25.5805 23.9571 25.472 23.9579C25.4315 23.9579 25.3911 23.9619 25.3514 23.9701L25.2254 23.9118C25.0456 23.8289 24.8595 23.7605 24.6687 23.7073C24.5246 23.669 24.3762 23.6499 24.2271 23.6504C24.0382 23.652 23.8502 23.6775 23.6677 23.7263C23.1529 23.8753 22.666 24.1078 22.2264 24.4144C21.756 24.7076 21.3142 25.0446 20.9071 25.4208C20.5005 25.8085 20.1338 26.236 19.8126 26.6968C19.5129 27.115 19.2573 27.563 19.05 28.0338C18.9876 28.1814 18.928 28.3304 18.8725 28.4808C18.8237 28.6162 18.7899 28.7517 18.7547 28.879C18.6888 29.1202 18.6364 29.3649 18.5975 29.6119C18.5542 29.9126 18.5108 30.2119 18.4851 30.514C18.4594 30.7849 18.4404 31.0558 18.4269 31.3267C18.3998 31.8428 18.4093 32.3562 18.4269 32.8709C18.4567 33.4428 18.5351 34.011 18.6612 34.5696C18.7127 34.8066 18.7709 35.0437 18.84 35.2753C18.9186 35.5462 19.0107 35.8049 19.1109 36.065C19.2183 36.3367 19.3409 36.6022 19.478 36.8601C19.6765 37.2665 19.9526 37.63 20.2907 37.9303C20.5179 38.1323 20.7627 38.3137 21.0222 38.4721C21.273 38.6178 21.5364 38.7407 21.8092 38.8392C22.0854 38.93 22.3706 38.9909 22.6599 39.0207C22.7795 39.0346 22.8998 39.0419 23.0202 39.0424C23.1855 39.0377 23.3502 39.0214 23.5133 38.9936C23.7464 38.9582 23.974 38.8931 24.1905 38.7999C24.1799 38.8663 24.1836 38.9342 24.2014 38.999C24.2371 39.1242 24.3206 39.2304 24.4338 39.2948C24.547 39.3591 24.681 39.3765 24.8069 39.3431C25.0825 39.2627 25.3462 39.1461 25.5912 38.9963C25.8314 38.8608 26.0543 38.6966 26.2549 38.5073C26.4292 38.3432 26.5938 38.169 26.748 37.9858C26.9383 37.7646 27.1156 37.5326 27.279 37.2909C27.5574 36.8826 27.8011 36.4517 28.0077 36.0027C28.2356 35.4848 28.4337 34.9543 28.601 34.4138C28.8996 33.3945 29.0613 32.3399 29.0819 31.278C29.1198 30.1943 28.9898 29.1201 28.8746 28.05C28.8123 27.4147 28.7432 26.7808 28.6755 26.1469ZM25.2891 36.848C25.1943 36.9672 25.0967 37.0864 24.9938 37.2001C24.8823 37.3221 24.7638 37.4374 24.6389 37.5456C24.4079 37.7179 24.1617 37.8689 23.9034 37.9966C23.75 38.048 23.5922 38.0851 23.432 38.1077C23.329 38.1185 23.2274 38.1253 23.1231 38.1307C23.0145 38.1326 22.9058 38.1262 22.798 38.1118C22.6748 38.0928 22.5529 38.0711 22.431 38.0413C22.2874 38.0048 22.1506 37.9587 22.0124 37.9059C21.8742 37.853 21.713 37.7609 21.5681 37.6783C21.4181 37.5893 21.2733 37.4916 21.1346 37.3857L20.9518 37.2367C20.8203 37.1261 20.6996 37.0031 20.5915 36.8696C20.346 36.5202 20.1368 36.1466 19.967 35.7548C19.8274 35.4187 19.711 35.0734 19.6189 34.7213C19.5688 34.5249 19.5227 34.3285 19.4834 34.1307C19.4441 33.9546 19.4184 33.7744 19.394 33.5956C19.3286 33.0138 19.3037 32.4281 19.3195 31.8428C19.3412 31.2698 19.3886 30.7009 19.455 30.132C19.497 29.8611 19.5457 29.5902 19.6108 29.3125C19.6726 29.0514 19.7509 28.7944 19.8451 28.5431C19.9664 28.2653 20.102 27.994 20.2515 27.7304C20.4043 27.4714 20.5731 27.2221 20.7567 26.984C20.9436 26.7524 21.1373 26.5289 21.3446 26.3162C21.3943 26.2647 21.4457 26.2146 21.499 26.1658C21.4761 26.2385 21.4684 26.3151 21.4766 26.3909C21.4847 26.4667 21.5085 26.54 21.5464 26.6061C21.574 26.6527 21.6093 26.6944 21.6507 26.7293C21.6209 26.8093 21.5925 26.8892 21.5667 26.9718C21.542 27.059 21.5471 27.1519 21.5812 27.2358C21.6153 27.3198 21.6765 27.3899 21.755 27.4351C21.8022 27.4627 21.8545 27.4806 21.9087 27.4876C21.9629 27.4945 22.018 27.4905 22.0706 27.4757C22.1224 27.4627 22.1709 27.4393 22.2133 27.4069C22.2557 27.3746 22.291 27.3339 22.3172 27.2874C22.4314 27.026 22.5725 26.7772 22.7384 26.5451L22.8441 26.4693L23.1665 26.2376C23.1688 26.2843 23.1793 26.3301 23.1976 26.3731C23.0757 26.5289 22.9579 26.6873 22.8482 26.8512C22.7235 27.0395 22.6084 27.2346 22.496 27.431C22.4283 27.5516 22.3605 27.6708 22.2914 27.794C22.156 28.0649 22.011 28.3358 21.8973 28.6176C21.8444 28.7531 21.7957 28.879 21.7537 29.0145C21.7023 29.1834 21.6781 29.3595 21.6819 29.536C21.6824 29.6196 21.7087 29.701 21.7572 29.7691C21.8057 29.8373 21.874 29.8888 21.9528 29.9166C21.8826 30.5056 21.8455 31.098 21.8417 31.6911C21.8417 31.9133 21.8417 32.1381 21.8634 32.3603C21.8796 32.6524 21.9162 32.9429 21.9731 33.2299C22.0836 33.7462 22.2579 34.2467 22.4919 34.7199C22.6201 34.9482 22.7717 35.1625 22.9443 35.3593C23.1825 35.6359 23.4683 35.8676 23.7882 36.0433C24.0149 36.1677 24.2567 36.2624 24.5075 36.3251C24.791 36.3964 25.081 36.4381 25.3731 36.4497C25.4495 36.4525 25.5254 36.4362 25.5939 36.4023C25.4936 36.5662 25.392 36.7084 25.285 36.8493L25.2891 36.848ZM27.1855 30.8323C27.1706 31.2956 27.1313 31.7561 27.0731 32.2153C27.0324 32.4862 26.9877 32.7572 26.9376 33.0281C26.8875 33.299 26.832 33.536 26.7574 33.7826C26.6017 34.2946 26.4161 34.7958 26.2156 35.2916C26.1235 35.4934 26.0233 35.6898 25.919 35.8849C25.9073 35.777 25.864 35.675 25.7946 35.5917C25.7252 35.5083 25.6328 35.4473 25.5289 35.4162C25.2417 35.3268 24.9518 35.255 24.6714 35.1453C24.5888 35.106 24.5089 35.064 24.4289 35.0193C24.3634 34.9828 24.3009 34.9411 24.242 34.8947C24.1089 34.7803 23.9844 34.6562 23.8695 34.5235C23.8194 34.4544 23.7706 34.3881 23.7232 34.3136C23.6596 34.214 23.6034 34.1099 23.5553 34.002C23.4199 33.6468 23.3135 33.2812 23.2369 32.9089C23.1408 32.0216 23.2207 31.133 23.3263 30.2485C23.4326 29.518 23.6198 28.8015 23.8844 28.1123C24.0466 27.7607 24.2445 27.4266 24.475 27.1154C24.568 27.003 24.6704 26.8988 24.7811 26.8038C24.9235 26.7053 25.0729 26.6175 25.2281 26.541C25.32 26.5069 25.4142 26.4793 25.5099 26.4584C25.5577 26.4557 25.6057 26.4557 25.6535 26.4584L25.7185 26.4747C25.7191 26.4841 25.7191 26.4936 25.7185 26.5031C25.7199 26.5284 25.7199 26.5537 25.7185 26.579C25.6995 26.6752 25.6765 26.7713 25.6521 26.8675C25.6157 27.0065 25.6349 27.1542 25.7058 27.2791C25.7766 27.4041 25.8935 27.4965 26.0314 27.5367C26.1294 27.562 26.2324 27.5602 26.3295 27.5316C26.4266 27.503 26.5141 27.4485 26.5827 27.3741C26.645 27.5434 26.706 27.7114 26.7615 27.8821C26.649 27.8217 26.5234 27.7901 26.3958 27.79C26.1896 27.7911 25.9916 27.8705 25.8418 28.0121C25.4748 28.3723 25.1781 28.7977 24.9667 29.2664C24.8406 29.5184 24.7529 29.7877 24.7066 30.0656C24.6972 30.1293 24.689 30.1943 24.6809 30.258C24.6801 30.387 24.7142 30.5139 24.7798 30.6251C24.877 30.7912 25.0362 30.9119 25.2224 30.9606C25.4086 31.0094 25.6065 30.9823 25.7727 30.8851L25.919 30.7714C26.0073 30.6831 26.0712 30.5734 26.1045 30.453C26.259 30.0848 26.4463 29.7312 26.664 29.3965C26.7493 29.2953 26.8398 29.1986 26.9349 29.1066C26.9791 29.0667 27.0178 29.0212 27.05 28.9711C27.0758 29.1066 27.1015 29.2421 27.1218 29.3775C27.1476 29.5942 27.1719 29.8123 27.1801 30.0291C27.1855 30.2973 27.1841 30.5655 27.176 30.8337L27.1855 30.8323Z" fill="#162B43"/>
<path d="M43.9197 24.7812C44.1662 24.7812 44.4141 24.7907 44.6606 24.7812C44.9071 24.7717 45.1591 24.7609 45.4083 24.7405C45.4755 24.7415 45.5417 24.7236 45.5993 24.6891C45.6847 24.6395 45.747 24.5582 45.7727 24.4628C45.7861 24.4142 45.7896 24.3634 45.7831 24.3134C45.7766 24.2634 45.7601 24.2152 45.7348 24.1716C45.7112 24.1288 45.6792 24.0912 45.6409 24.0609C45.6025 24.0307 45.5584 24.0085 45.5113 23.9955C45.2404 23.9522 44.9694 23.9237 44.689 23.9061C44.4344 23.8885 44.177 23.8939 43.9224 23.8926C43.8093 23.8988 43.7029 23.9482 43.6251 24.0304C43.5473 24.1127 43.5039 24.2216 43.5039 24.3348C43.5039 24.4481 43.5473 24.557 43.6251 24.6393C43.7029 24.7215 43.8093 24.7709 43.9224 24.7771L43.9197 24.7812Z" fill="#162B43"/>
<path d="M44.3477 25.2979H44.3382C44.2193 25.2991 44.1057 25.3476 44.0225 25.4325C43.9393 25.5175 43.8933 25.632 43.8946 25.751C43.8958 25.8699 43.9443 25.9834 44.0292 26.0666C44.1142 26.1498 44.2287 26.1958 44.3477 26.1946C44.9572 26.2081 45.5668 26.2352 46.1763 26.2122C46.2722 26.213 46.3651 26.1788 46.4376 26.116C46.5101 26.0533 46.5572 25.9663 46.5701 25.8713C46.5831 25.7763 46.561 25.6798 46.5079 25.5999C46.4549 25.5201 46.3746 25.4623 46.282 25.4374C45.963 25.3663 45.6375 25.3282 45.3108 25.3236C44.9897 25.3114 44.6687 25.306 44.3477 25.2979Z" fill="#162B43"/>
<path d="M45.6604 28.1634C45.763 28.1902 45.8719 28.1759 45.964 28.1235C46.0561 28.0711 46.1241 27.9848 46.1535 27.883C46.1811 27.7792 46.1665 27.6687 46.1129 27.5756C46.0583 27.4868 45.9729 27.4212 45.8731 27.3913C45.4667 27.2437 45.0495 27.1313 44.631 27.0188C44.5947 27.0092 44.5574 27.0042 44.5199 27.0039C44.4161 27.0028 44.3154 27.0395 44.2367 27.1072C44.158 27.1749 44.1067 27.269 44.0924 27.3719C44.0782 27.4747 44.1019 27.5792 44.1591 27.6658C44.2163 27.7525 44.3032 27.8152 44.4034 27.8424C44.822 27.9535 45.2405 28.0591 45.6604 28.1634Z" fill="#162B43"/>
<path d="M46.2754 29.3568C46.177 29.3513 46.0781 29.3486 45.9788 29.3486C45.5372 29.3486 45.0956 29.3974 44.6567 29.4394C44.5516 29.4421 44.4513 29.4836 44.375 29.5559C44.338 29.5928 44.3087 29.6366 44.2886 29.6848C44.2686 29.733 44.2583 29.7847 44.2583 29.837C44.2583 29.8892 44.2686 29.9409 44.2886 29.9891C44.3087 30.0373 44.338 30.0812 44.375 30.118C44.4113 30.1559 44.4551 30.1859 44.5036 30.2059C44.5521 30.226 44.6043 30.2357 44.6567 30.2345C44.9195 30.2101 45.1823 30.1858 45.4451 30.1587C45.7079 30.1316 45.9978 30.0991 46.2754 30.0828C46.3718 30.0818 46.4641 30.0434 46.5328 29.9758C46.5664 29.9422 46.593 29.9022 46.6111 29.8583C46.6292 29.8144 46.6385 29.7673 46.6385 29.7198C46.6371 29.6239 46.5984 29.5324 46.5306 29.4646C46.4628 29.3969 46.3713 29.3582 46.2754 29.3568Z" fill="#162B43"/>
<path d="M46.1779 30.9212C46.1237 30.9077 46.0695 30.8982 46.014 30.8887C45.8948 30.8684 45.7742 30.8454 45.655 30.8305L44.8978 30.7451H44.8761C44.8093 30.7496 44.7451 30.7732 44.6913 30.8131C44.6375 30.853 44.5963 30.9075 44.5726 30.9702C44.5489 31.0329 44.5438 31.101 44.5577 31.1665C44.5716 31.232 44.6041 31.2922 44.6513 31.3398C44.7182 31.4029 44.8058 31.4394 44.8978 31.4427C45.2784 31.482 45.6604 31.5159 46.041 31.5619C46.1481 31.5782 46.2537 31.5998 46.3594 31.6256C46.4183 31.6423 46.4808 31.641 46.5389 31.6216C46.597 31.6023 46.648 31.566 46.6851 31.5173C46.7222 31.4686 46.7438 31.4099 46.7471 31.3487C46.7504 31.2876 46.7352 31.2269 46.7034 31.1745C46.6606 31.1096 46.5964 31.0616 46.5219 31.0391C46.4099 30.9923 46.295 30.9529 46.1779 30.9212Z" fill="#162B43"/>
<path d="M46.4068 33.3869C46.4586 33.2961 46.4728 33.1886 46.446 33.0875C46.433 33.0389 46.4105 32.9932 46.3798 32.9532C46.3492 32.9133 46.3109 32.8797 46.2672 32.8546C46.0322 32.7441 45.7867 32.6574 45.5344 32.5958C45.2635 32.5308 44.9926 32.4685 44.7217 32.4062C44.6853 32.3977 44.648 32.3931 44.6106 32.3926C44.5015 32.3907 44.3954 32.4287 44.3122 32.4994C44.229 32.5701 44.1745 32.6687 44.1589 32.7768C44.1433 32.8848 44.1676 32.9948 44.2273 33.0862C44.2871 33.1776 44.3781 33.2441 44.4833 33.2731C44.7461 33.3336 45.0098 33.3928 45.2743 33.4506C45.5019 33.4993 45.7322 33.5264 45.9611 33.5671C46.029 33.585 46.1004 33.585 46.1684 33.5671C46.2685 33.5408 46.3541 33.476 46.4068 33.3869Z" fill="#162B43"/>
<path d="M45.8513 33.9426C45.8032 33.9162 45.7535 33.8932 45.7023 33.8735C45.6021 33.8301 45.5019 33.7908 45.3975 33.7556C45.2106 33.692 45.0223 33.6337 44.834 33.5755C44.7998 33.5652 44.7642 33.5602 44.7284 33.5606C44.6319 33.5599 44.5384 33.5944 44.4655 33.6576C44.3925 33.7209 44.3452 33.8085 44.3322 33.9042C44.3192 33.9998 44.3416 34.0969 44.3951 34.1773C44.4486 34.2577 44.5295 34.3158 44.6227 34.3408C44.8002 34.395 44.979 34.4519 45.1578 34.4993C45.2323 34.5196 45.3054 34.5399 45.3799 34.5575C45.5145 34.5822 45.6468 34.618 45.7755 34.6645C45.8318 34.6795 45.8911 34.6795 45.9475 34.6645C46.0282 34.6411 46.097 34.5879 46.1399 34.5155C46.1757 34.4541 46.1902 34.3825 46.1812 34.3119C46.1721 34.2414 46.14 34.1758 46.0897 34.1254C46.0176 34.0554 45.9376 33.9941 45.8513 33.9426Z" fill="#162B43"/>
<path d="M43.9304 35.6873C43.9017 35.7943 43.9163 35.9084 43.971 36.0047C44.0258 36.1011 44.1163 36.1719 44.223 36.202C44.4181 36.2494 44.6131 36.2982 44.8109 36.3375C45.0087 36.3767 45.2173 36.4052 45.4272 36.439C45.4994 36.4589 45.576 36.4544 45.6453 36.4262C45.7146 36.398 45.7727 36.3478 45.8106 36.2833C45.8334 36.2439 45.8481 36.2004 45.8539 36.1553C45.8597 36.1102 45.8565 36.0643 45.8444 36.0205C45.8332 35.978 45.8137 35.9381 45.7869 35.9033C45.7602 35.8684 45.7268 35.8392 45.6887 35.8173C45.4852 35.7197 45.2757 35.6351 45.0615 35.564C44.8583 35.499 44.6551 35.4475 44.4452 35.396C44.4105 35.388 44.3751 35.3839 44.3395 35.3838C44.2474 35.3824 44.1575 35.4113 44.0835 35.4662C44.0096 35.521 43.9557 35.5987 43.9304 35.6873Z" fill="#162B43"/>
<path d="M43.7287 37C43.704 37.0951 43.7173 37.1962 43.7659 37.2816C43.8144 37.3671 43.8944 37.4303 43.9888 37.4578C44.28 37.5513 44.5726 37.6339 44.8665 37.7179C44.9455 37.7397 45.0297 37.7321 45.1035 37.6964C45.1772 37.6608 45.2354 37.5994 45.2673 37.524C45.2991 37.4485 45.3024 37.364 45.2765 37.2862C45.2507 37.2085 45.1974 37.1429 45.1266 37.1016C44.8234 36.9569 44.5096 36.8356 44.1879 36.7385C44.1558 36.729 44.1225 36.724 44.089 36.7236C44.0073 36.7253 43.9283 36.753 43.8635 36.8027C43.7987 36.8524 43.7515 36.9215 43.7287 37Z" fill="#162B43"/>
<path d="M42.9824 39.0313C43.2737 39.0976 43.5649 39.1667 43.8575 39.2277C44.1501 39.2886 44.4359 39.3374 44.7271 39.3821C44.8237 39.4052 44.9253 39.3922 45.0129 39.3455C45.0552 39.3213 45.0922 39.2889 45.1219 39.2502C45.1516 39.2116 45.1734 39.1675 45.186 39.1204C45.1986 39.0733 45.2017 39.0242 45.1953 38.9759C45.1888 38.9276 45.1729 38.881 45.1484 38.8389C45.0983 38.7568 45.0197 38.6961 44.9276 38.6682C44.6504 38.5689 44.3695 38.4831 44.0851 38.4109C43.7965 38.3364 43.5039 38.2754 43.2141 38.2036C43.179 38.1956 43.1431 38.1915 43.1071 38.1914C43.0033 38.1902 42.9026 38.2267 42.8238 38.2941C42.7449 38.3615 42.6932 38.4553 42.6783 38.558C42.6634 38.6606 42.6863 38.7653 42.7427 38.8523C42.7992 38.9394 42.8853 39.003 42.9851 39.0313H42.9824Z" fill="#162B43"/>
<path d="M44.4441 40.7441C44.5062 40.7604 44.5715 40.7604 44.6337 40.7441C44.6788 40.7316 44.721 40.7103 44.7579 40.6815C44.7947 40.6526 44.8256 40.6168 44.8486 40.5761C44.8716 40.5353 44.8864 40.4904 44.892 40.4439C44.8977 40.3975 44.8941 40.3503 44.8816 40.3052C44.8698 40.2607 44.8493 40.2189 44.8211 40.1823C44.793 40.1458 44.7578 40.1153 44.7177 40.0926C44.5687 40.0221 44.4183 39.9571 44.2653 39.9002C44.1637 39.8609 44.0567 39.8325 43.9524 39.8C43.7045 39.7241 43.4552 39.6551 43.206 39.5833C43.1711 39.5737 43.1351 39.5687 43.099 39.5684C43.0086 39.5694 42.921 39.5995 42.8491 39.6541C42.7771 39.7087 42.7246 39.785 42.6994 39.8718C42.6718 39.9772 42.6866 40.0892 42.7405 40.1838C42.7944 40.2785 42.8832 40.3483 42.9879 40.3784C43.2277 40.4475 43.4661 40.5138 43.7072 40.5816C43.8088 40.6087 43.9104 40.6412 44.0133 40.6615C44.1569 40.6913 44.2991 40.7197 44.4441 40.7441Z" fill="#162B43"/>
<path d="M41.7252 42.2319C41.9582 42.297 42.1912 42.3674 42.4269 42.4256C42.5298 42.4514 42.6328 42.4798 42.7371 42.5029C42.8832 42.5266 43.0276 42.5601 43.1692 42.6031L43.1949 42.6153C43.2425 42.6433 43.2968 42.6578 43.3521 42.6573C43.393 42.6575 43.4336 42.6495 43.4715 42.6339C43.5094 42.6183 43.5438 42.5954 43.5728 42.5664C43.6017 42.5375 43.6247 42.503 43.6403 42.4652C43.6559 42.4273 43.6638 42.3867 43.6636 42.3457C43.6641 42.3047 43.6564 42.264 43.6408 42.2261C43.6252 42.1881 43.6021 42.1537 43.5729 42.1249C43.5295 42.0897 43.4862 42.0531 43.4374 42.0193C43.3763 41.9784 43.3114 41.9435 43.2437 41.915C43.1624 41.8798 43.0784 41.8513 42.9945 41.8202C42.8875 41.7822 42.7777 41.7497 42.6694 41.7159C42.4228 41.64 42.1722 41.5723 41.9244 41.5018C41.8922 41.4927 41.8589 41.4881 41.8255 41.4883C41.7343 41.4888 41.6464 41.5222 41.5778 41.5823C41.5092 41.6424 41.4646 41.7252 41.4521 41.8155C41.4396 41.9059 41.46 41.9977 41.5097 42.0742C41.5594 42.1506 41.6349 42.2066 41.7225 42.2319H41.7252Z" fill="#162B43"/>
<path d="M41.0007 43.7508C41.4504 43.9147 41.9015 44.0759 42.3552 44.2262C42.4172 44.243 42.4828 44.241 42.5436 44.2204C42.6045 44.1998 42.6578 44.1616 42.6969 44.1107C42.7359 44.0597 42.7589 43.9983 42.763 43.9342C42.767 43.8701 42.752 43.8063 42.7196 43.7508C42.6757 43.6792 42.6066 43.6265 42.5259 43.6031C42.0762 43.4419 41.6265 43.2726 41.1714 43.1087C41.1446 43.0982 41.1161 43.0931 41.0874 43.0938C41.0265 43.0946 40.9668 43.1109 40.914 43.1412C40.8392 43.1854 40.7844 43.2567 40.7609 43.3403C40.7379 43.4272 40.75 43.5197 40.7948 43.5977C40.8413 43.6732 40.915 43.728 41.0007 43.7508Z" fill="#162B43"/>
<path d="M40.093 45.4261C40.4437 45.5081 40.8 45.5634 41.1591 45.5913C41.2348 45.5908 41.3083 45.5654 41.3682 45.5192C41.4282 45.473 41.4714 45.4084 41.4912 45.3353C41.511 45.2622 41.5063 45.1846 41.4779 45.1144C41.4495 45.0442 41.3989 44.9853 41.3338 44.9465C41.0045 44.8073 40.6599 44.7077 40.307 44.6499C40.2706 44.6419 40.2333 44.6378 40.196 44.6377C40.1261 44.6372 40.0573 44.6555 39.9968 44.6905C39.9061 44.7438 39.8396 44.8303 39.8113 44.9316C39.7842 45.0345 39.7985 45.144 39.8512 45.2364C39.9038 45.3288 39.9907 45.3969 40.093 45.4261Z" fill="#162B43"/>
<path d="M40.3261 46.5544C40.3824 46.5683 40.4419 46.5605 40.4927 46.5327C40.5294 46.5112 40.5589 46.4793 40.5775 46.4411C40.5962 46.4029 40.6033 46.3601 40.5978 46.3179C40.5923 46.2758 40.5745 46.2362 40.5467 46.204C40.5189 46.1719 40.4822 46.1486 40.4413 46.1372C40.3737 46.1147 40.305 46.0962 40.2354 46.0817C40.1709 46.0682 40.1058 46.0583 40.0403 46.0518L39.806 46.0275C39.7369 46.0275 39.6705 46.0193 39.5987 46.0153L39.3034 45.999H39.2926C39.2268 46.0005 39.1644 46.028 39.1189 46.0755C39.0734 46.123 39.0487 46.1866 39.0501 46.2523C39.0515 46.3181 39.079 46.3805 39.1265 46.426C39.1741 46.4715 39.2377 46.4962 39.3034 46.4948L39.7978 46.5192C39.9495 46.5273 40.1013 46.5287 40.253 46.5436L40.3261 46.5544Z" fill="#162B43"/>
<path d="M38.8497 47.4125L38.232 47.1714C38.196 47.1582 38.1579 47.1517 38.1196 47.1524C38.0355 47.1537 37.953 47.176 37.8798 47.2174C37.828 47.2476 37.7827 47.2878 37.7465 47.3355C37.7102 47.3833 37.6837 47.4377 37.6685 47.4957C37.6533 47.5537 37.6497 47.6141 37.6578 47.6735C37.6659 47.7329 37.6857 47.7901 37.7159 47.8419C37.7781 47.9421 37.8743 48.0166 37.9868 48.0518L38.6045 48.2916C38.663 48.3088 38.7244 48.3135 38.7848 48.3056C38.8452 48.2977 38.9033 48.2772 38.9553 48.2455C39.058 48.186 39.1333 48.0888 39.1653 47.9746C39.1812 47.916 39.1853 47.8548 39.1774 47.7946C39.1695 47.7344 39.1497 47.6763 39.1192 47.6238C39.0578 47.5231 38.9621 47.4481 38.8497 47.4125Z" fill="#162B43"/>
<path d="M47.615 26.6261C47.8263 26.5719 48.039 26.5245 48.2476 26.4609C48.3437 26.4311 48.4426 26.4067 48.5374 26.3715L48.9167 26.236C48.9802 26.2185 49.038 26.1849 49.0847 26.1385C49.1557 26.0662 49.1956 25.9689 49.1958 25.8676C49.1952 25.7701 49.1575 25.6766 49.0902 25.6061C49.023 25.5356 48.9314 25.4935 48.8341 25.4883H48.8165C48.3292 25.5339 47.8471 25.6246 47.3766 25.7592C47.2618 25.7908 47.1643 25.8667 47.1055 25.9702C47.0467 26.0738 47.0314 26.1964 47.063 26.3112C47.0946 26.426 47.1705 26.5235 47.274 26.5823C47.3776 26.6411 47.5002 26.6564 47.615 26.6248V26.6261Z" fill="#162B43"/>
<path d="M46.8847 27.6257C46.9459 27.6616 47.0156 27.6804 47.0865 27.6799C47.3236 27.7069 47.5606 27.7367 47.7991 27.7598C47.8952 27.7693 47.9914 27.7815 48.0876 27.7882C48.2718 27.7991 48.456 27.8045 48.6389 27.8262C48.7018 27.8267 48.7637 27.8098 48.8177 27.7774C48.8581 27.7541 48.8935 27.7231 48.9219 27.686C48.9502 27.649 48.9709 27.6067 48.9827 27.5615C48.9946 27.5164 48.9973 27.4694 48.9909 27.4232C48.9844 27.377 48.9688 27.3326 48.945 27.2925C48.9144 27.2407 48.8704 27.1981 48.8177 27.1692C48.8372 27.1384 48.8476 27.1027 48.8475 27.0662C48.8495 27.0124 48.8299 26.9599 48.7932 26.9204C48.7565 26.8809 48.7056 26.8576 48.6517 26.8556C48.5979 26.8536 48.5454 26.8731 48.5059 26.9098C48.4664 26.9466 48.4431 26.9975 48.4411 27.0513C48.2379 27.0093 48.0347 26.989 47.8234 26.9633C47.5769 26.9335 47.329 26.9064 47.0811 26.878H47.0567C46.9542 26.8855 46.8584 26.9316 46.7885 27.007C46.7186 27.0824 46.6799 27.1815 46.6802 27.2843C46.6806 27.3909 46.7229 27.4931 46.798 27.5688L46.8847 27.6257Z" fill="#162B43"/>
<path d="M48.9112 28.2681C48.3861 28.2211 47.8589 28.2012 47.3318 28.2085C47.2204 28.2085 47.1136 28.2527 47.0349 28.3315C46.9561 28.4102 46.9119 28.517 46.9119 28.6284C46.9119 28.7398 46.9561 28.8466 47.0349 28.9253C47.1136 29.0041 47.2204 29.0483 47.3318 29.0483H47.5553C47.7395 29.0483 47.9264 29.0483 48.112 29.0483C48.3829 29.0402 48.6444 29.028 48.9112 29.0104C49.0089 29.0087 49.1024 28.9699 49.1726 28.902C49.241 28.8321 49.2794 28.7383 49.2797 28.6406C49.2796 28.5432 49.2412 28.4497 49.1726 28.3805C49.1028 28.3113 49.0094 28.2712 48.9112 28.2681Z" fill="#162B43"/>
<path d="M47.137 30.5597L47.7858 30.664C47.9646 30.6924 48.1448 30.7127 48.3276 30.7358C48.4734 30.7598 48.6166 30.797 48.7557 30.8468C48.8169 30.8628 48.8818 30.8563 48.9385 30.8283C48.9952 30.8003 49.0399 30.7528 49.0645 30.6946C49.089 30.6363 49.0917 30.5711 49.072 30.511C49.0524 30.4509 49.0117 30.3999 48.9575 30.3673C48.7594 30.2479 48.5422 30.1636 48.3154 30.1181L47.9931 30.0585C47.7668 30.0178 47.5379 29.9826 47.3158 29.9447C47.2858 29.9394 47.2554 29.9366 47.225 29.9366C47.1708 29.9357 47.1174 29.9498 47.0706 29.9772C47.0342 29.9981 47.0023 30.026 46.9768 30.0593C46.9512 30.0926 46.9326 30.1306 46.9219 30.1712C46.9112 30.2118 46.9086 30.2541 46.9144 30.2957C46.9201 30.3372 46.9341 30.3772 46.9555 30.4134C46.9942 30.4843 47.0595 30.5369 47.137 30.5597Z" fill="#162B43"/>
<path d="M48.8462 31.6084C48.5753 31.5799 48.3044 31.5515 48.0335 31.5352C47.7626 31.519 47.4524 31.5095 47.1625 31.5H47.1503C47.0425 31.5016 46.9398 31.546 46.8648 31.6233C46.7897 31.7007 46.7484 31.8047 46.75 31.9125C46.7517 32.0202 46.796 32.123 46.8734 32.198C46.9507 32.2731 47.0547 32.3144 47.1625 32.3127C47.4524 32.3222 47.7436 32.3344 48.0335 32.3331C48.3051 32.3325 48.5765 32.3162 48.8462 32.2843C48.9351 32.2817 49.02 32.2465 49.0846 32.1854C49.1161 32.1543 49.141 32.1173 49.158 32.0765C49.175 32.0357 49.1838 31.9919 49.1838 31.9477C49.1838 31.9035 49.175 31.8597 49.158 31.8189C49.141 31.7781 49.1161 31.7411 49.0846 31.71C49.0208 31.6473 48.9357 31.611 48.8462 31.6084Z" fill="#162B43"/>
<path d="M48.8301 33.7176C48.8518 33.6373 48.8408 33.5517 48.7998 33.4794C48.7587 33.4071 48.6907 33.354 48.6107 33.3315C48.1162 33.2313 47.6205 33.1351 47.1315 33.0118C47.1022 33.0049 47.0722 33.0013 47.0421 33.001C46.9573 32.9998 46.875 33.0296 46.8106 33.0847C46.7462 33.1399 46.7042 33.2167 46.6924 33.3006C46.6806 33.3846 46.6998 33.47 46.7465 33.5408C46.7932 33.6115 46.8641 33.6629 46.9459 33.6851C47.465 33.8149 47.9936 33.9033 48.5267 33.9492C48.5957 33.9493 48.6628 33.9266 48.7176 33.8847C48.7724 33.8429 48.812 33.7841 48.8301 33.7176Z" fill="#162B43"/>
<path d="M48.3017 35.0085C47.94 34.9028 47.573 34.8202 47.2059 34.7376C47.1779 34.7306 47.1493 34.727 47.1205 34.7267C47.0369 34.7242 46.9553 34.7526 46.8913 34.8065C46.8272 34.8604 46.7854 34.936 46.7736 35.0189C46.7619 35.1017 46.7811 35.186 46.8276 35.2555C46.8741 35.3251 46.9447 35.3751 47.0257 35.3959C47.2004 35.4379 47.3752 35.4826 47.5526 35.5191C47.7734 35.5666 47.9942 35.6004 48.2177 35.6275C48.2865 35.628 48.3535 35.6057 48.4081 35.564C48.4628 35.5223 48.5021 35.4637 48.5198 35.3972C48.5419 35.3168 48.5315 35.2308 48.4906 35.158C48.4498 35.0853 48.3819 35.0315 48.3017 35.0085Z" fill="#162B43"/>
<path d="M48.5429 36.3967C48.2445 36.3403 47.9417 36.3108 47.638 36.3086C47.3211 36.3005 47.0041 36.2964 46.6898 36.291H46.6817C46.5606 36.2921 46.4449 36.3412 46.3601 36.4276C46.2753 36.514 46.2282 36.6305 46.2293 36.7516C46.2303 36.8726 46.2795 36.9883 46.3658 37.0732C46.4522 37.158 46.5688 37.2051 46.6898 37.204C46.9932 37.204 47.2953 37.2148 47.5987 37.2175C47.7342 37.2175 47.8696 37.2175 48.0051 37.2094C48.1406 37.2013 48.2909 37.1999 48.4332 37.2013C48.5376 37.2112 48.6418 37.1803 48.724 37.1152C48.8062 37.05 48.86 36.9556 48.8742 36.8516C48.8883 36.7477 48.8618 36.6423 48.8 36.5575C48.7383 36.4727 48.6461 36.4151 48.5429 36.3967Z" fill="#162B43"/>
<path d="M48.2206 38.1396C47.9226 38.0692 47.6219 38.0245 47.3185 37.9838C46.9785 37.9364 46.6412 37.8999 46.2971 37.8633H46.2795C46.2005 37.8678 46.1262 37.9025 46.072 37.9602C46.0178 38.018 45.9878 38.0943 45.9883 38.1735C45.9882 38.2551 46.0204 38.3335 46.0777 38.3916C46.1368 38.4483 46.2152 38.4807 46.2971 38.4823C46.61 38.5148 46.9243 38.5487 47.2453 38.5771C47.5664 38.6056 47.8535 38.6286 48.1556 38.6665C48.2032 38.6665 48.2499 38.6538 48.2911 38.63C48.3352 38.6025 48.3705 38.5629 48.3927 38.5159C48.415 38.4689 48.4233 38.4165 48.4166 38.365C48.4098 38.3134 48.3884 38.2649 48.3549 38.2252C48.3214 38.1855 48.2771 38.1562 48.2274 38.141L48.2206 38.1396Z" fill="#162B43"/>
<path d="M47.6163 39.6087C47.1024 39.5374 46.5891 39.4728 46.0761 39.415H46.0531C45.9971 39.4189 45.9434 39.4388 45.8985 39.4724C45.8535 39.5059 45.8191 39.5517 45.7994 39.6042C45.7797 39.6567 45.7755 39.7138 45.7873 39.7687C45.7992 39.8235 45.8265 39.8738 45.8662 39.9135C45.9225 39.9654 45.9955 39.9957 46.0721 39.9989C46.5611 40.0503 47.0501 40.0977 47.5404 40.1343C47.5983 40.1334 47.6544 40.114 47.7005 40.0789C47.7466 40.0438 47.7802 39.9949 47.7964 39.9393C47.8151 39.8704 47.8059 39.7968 47.7707 39.7347C47.7548 39.7044 47.7329 39.6776 47.7064 39.6559C47.6798 39.6343 47.6492 39.6182 47.6163 39.6087Z" fill="#162B43"/>
<path d="M46.9511 41.006C46.8868 40.9843 46.8212 40.9667 46.7547 40.9532L46.5949 40.9275C46.4675 40.9058 46.3362 40.9017 46.2088 40.8923C45.9813 40.8747 45.7537 40.8692 45.5315 40.8584H45.5112C45.4225 40.8602 45.3381 40.8972 45.2766 40.9612C45.2152 41.0252 45.1816 41.111 45.1834 41.1998C45.1852 41.2885 45.2222 41.3729 45.2862 41.4344C45.3502 41.4958 45.436 41.5294 45.5248 41.5276C45.7469 41.537 45.9691 41.5506 46.1912 41.5546C46.4134 41.5587 46.6464 41.5546 46.8685 41.5546C46.9359 41.554 47.0008 41.5291 47.0513 41.4845C47.1019 41.44 47.1347 41.3787 47.1437 41.3119C47.1528 41.2451 47.1374 41.1773 47.1006 41.1209C47.0637 41.0645 47.0078 41.0232 46.943 41.0047L46.9511 41.006Z" fill="#162B43"/>
<path d="M46.2795 42.5073C45.8176 42.4179 45.3489 42.3719 44.883 42.3096H44.8545C44.7689 42.3153 44.6868 42.3455 44.6179 42.3966C44.549 42.4477 44.4963 42.5176 44.466 42.5978C44.4357 42.6781 44.4292 42.7653 44.4472 42.8492C44.4651 42.9331 44.5069 43.01 44.5674 43.0708L44.6581 43.1413C44.7267 43.1803 44.8041 43.2013 44.883 43.2022C45.0848 43.2266 45.2893 43.2537 45.4898 43.274C45.7148 43.298 45.9408 43.3107 46.1671 43.3119C46.2695 43.3181 46.3705 43.2854 46.4497 43.2202C46.529 43.1551 46.5806 43.0623 46.5944 42.9606C46.6081 42.859 46.5828 42.7559 46.5237 42.672C46.4645 42.5882 46.3759 42.5299 46.2755 42.5087L46.2795 42.5073Z" fill="#162B43"/>
<path d="M44.4399 44.2008C44.2449 44.1398 44.0484 44.087 43.852 44.0342C43.8444 44.0329 43.8366 44.0329 43.829 44.0342C43.8096 44.0341 43.7907 44.0404 43.7753 44.0522C43.7599 44.0639 43.7487 44.0804 43.7437 44.0992C43.7406 44.1102 43.7397 44.1217 43.7411 44.1331C43.7425 44.1445 43.7462 44.1554 43.7518 44.1654C43.7575 44.1753 43.7651 44.1841 43.7742 44.1911C43.7832 44.1981 43.7936 44.2032 43.8046 44.2062C44.001 44.259 44.1988 44.3118 44.3939 44.3701C44.4158 44.3759 44.4391 44.373 44.4588 44.3618C44.4786 44.3507 44.4932 44.3323 44.4995 44.3105C44.5028 44.2994 44.5039 44.2877 44.5027 44.2762C44.5015 44.2646 44.4981 44.2534 44.4925 44.2432C44.487 44.233 44.4795 44.224 44.4705 44.2167C44.4614 44.2095 44.4511 44.204 44.4399 44.2008Z" fill="#162B43"/>
<path d="M43.8858 45.4544C43.8235 45.4544 43.7612 45.4544 43.6975 45.4544L43.5512 45.4477C43.4686 45.4477 43.386 45.4355 43.3033 45.4274L42.7615 45.3867H42.7493C42.7024 45.3901 42.6584 45.4111 42.6263 45.4455C42.5941 45.4799 42.5762 45.5252 42.5759 45.5723C42.5754 45.6228 42.5949 45.6715 42.6301 45.7078C42.6667 45.7424 42.7152 45.7618 42.7656 45.7619C42.9457 45.7741 43.1273 45.7904 43.3074 45.7958C43.3873 45.7958 43.4672 45.8066 43.5472 45.8039H43.6826C43.7504 45.8039 43.8181 45.7944 43.8845 45.7863C43.9275 45.7857 43.9686 45.7688 43.9996 45.7389C44.0202 45.7159 44.0338 45.6875 44.0389 45.657C44.0439 45.6266 44.0402 45.5953 44.0281 45.5669C44.0161 45.5384 43.9961 45.514 43.9707 45.4965C43.9452 45.479 43.9153 45.4691 43.8845 45.468L43.8858 45.4544Z" fill="#162B43"/>
<path d="M42.431 46.7426L41.6576 46.6816H41.6508C41.6312 46.6833 41.6125 46.6905 41.5968 46.7024C41.5811 46.7143 41.5691 46.7304 41.5621 46.7488C41.5552 46.7672 41.5536 46.7872 41.5575 46.8065C41.5615 46.8258 41.5708 46.8435 41.5844 46.8577C41.6042 46.8767 41.6302 46.8878 41.6576 46.8889L42.431 46.9498C42.4447 46.95 42.4582 46.9475 42.4708 46.9424C42.4835 46.9373 42.495 46.9298 42.5047 46.9202C42.5144 46.9106 42.5221 46.8992 42.5274 46.8866C42.5326 46.874 42.5353 46.8605 42.5353 46.8469C42.5354 46.8196 42.5247 46.7933 42.5055 46.7738C42.4854 46.7545 42.4589 46.7434 42.431 46.7426Z" fill="#162B43"/>
<path d="M42.2144 47.7857C42.214 47.6953 42.178 47.6087 42.1142 47.5446C42.0493 47.483 41.9638 47.4477 41.8744 47.4457C41.445 47.4064 41.017 47.3617 40.5889 47.3184H40.5686C40.4853 47.3239 40.4068 47.3595 40.3478 47.4186C40.2844 47.4825 40.2488 47.569 40.2488 47.659C40.2488 47.7491 40.2844 47.8355 40.3478 47.8995C40.4131 47.9615 40.4989 47.9972 40.5889 47.9997C41.017 48.0444 41.445 48.0891 41.8744 48.1284C41.9191 48.1286 41.9633 48.1198 42.0045 48.1026C42.0457 48.0854 42.083 48.0601 42.1142 48.0282C42.1783 47.9637 42.2143 47.8766 42.2144 47.7857Z" fill="#162B43"/>
<path d="M59.1248 15.7326L19.7747 5.37012L24.0415 8.89199L29.1212 18.8481L31.4917 19.3899L45.9178 21.2863L49.9815 23.3181L52.4197 27.9237L53.4357 32.3937H62.1726H72.6028L71.79 27.0432L66.4395 19.9317L63.324 16.5453L59.1248 15.7326Z" fill="#DBF122"/>
<path d="M79.7819 67.8404C79.7286 67.4124 79.6885 66.983 79.6614 66.5522C79.6275 66.0416 79.6099 65.5295 79.5801 65.0189C79.5246 64.0192 79.4528 63.0195 79.3972 62.0199C79.3769 61.6582 79.3539 61.2965 79.3308 60.9362C79.3461 60.8787 79.3538 60.8196 79.3539 60.7601C79.343 60.1885 79.3444 59.6155 79.3376 59.0439C79.3295 58.3774 79.3218 57.7119 79.3146 57.0472C79.3146 56.6653 79.3146 56.2846 79.3065 55.9026C79.333 55.856 79.347 55.8032 79.3471 55.7496C79.3471 55.5735 79.3471 55.3974 79.3471 55.2213C79.3639 55.0158 79.3575 54.809 79.3281 54.605L79.3159 54.5657V54.3747C79.3159 54.1376 79.3281 53.9006 79.3336 53.6635C79.3757 53.6367 79.4152 53.6059 79.4514 53.5714C79.5344 53.4878 79.5946 53.3842 79.6261 53.2707L79.6505 53.0892C79.6511 52.9683 79.6193 52.8496 79.5584 52.7451C79.3959 52.3726 79.0369 52.1613 78.6874 51.9906C78.5117 51.9087 78.3307 51.8385 78.1456 51.7807C78.0295 51.7426 77.9115 51.7105 77.7921 51.6845C77.2106 51.5728 76.6223 51.5 76.0311 51.4664C74.9271 51.3757 73.8232 51.289 72.7151 51.2768C72.432 51.2768 72.1503 51.2768 71.8672 51.2768H70.9474C70.4381 51.2768 69.9288 51.3107 69.4222 51.3459C68.86 51.3865 68.2965 51.4217 67.7371 51.4813C67.435 51.5111 67.1316 51.5342 66.8309 51.5721C66.5302 51.61 66.2444 51.6385 65.9531 51.6845L65.5874 51.7428C65.5396 51.7342 65.4911 51.7296 65.4425 51.7292C65.3308 51.7292 65.2201 51.7511 65.1169 51.7939C65.0137 51.8367 64.92 51.8994 64.841 51.9785C64.6867 52.1398 64.5995 52.3539 64.5972 52.5772C64.5837 52.8765 64.5661 53.1745 64.5552 53.4725C64.4675 53.5909 64.4188 53.7337 64.4159 53.8811C64.413 54.0284 64.456 54.173 64.539 54.2948C64.539 54.3557 64.539 54.4167 64.539 54.4776C64.5476 54.7397 64.5711 55.0011 64.6094 55.2606C64.645 55.393 64.7151 55.5136 64.8126 55.6101C64.8922 55.6893 64.9878 55.7507 65.093 55.7902C65.093 55.8674 65.093 55.946 65.1025 56.0232L64.5606 56.1194C63.3808 56.328 62.1956 56.4919 61.0198 56.7167C60.3931 56.8359 59.7677 56.9628 59.1437 57.0974C58.5342 57.2328 57.9246 57.3601 57.3069 57.4658C56.6297 57.5823 55.9524 57.6785 55.2751 57.7882C54.6886 57.8844 54.1047 58.0036 53.5236 58.1282C53.5236 57.8722 53.5087 57.6148 53.4992 57.3588C53.4965 57.2185 53.4521 57.0823 53.3718 56.9672C53.2915 56.8522 53.1789 56.7636 53.0482 56.7127C52.9971 56.6424 52.9321 56.5833 52.8572 56.5393L52.7068 56.4756C52.5974 56.4449 52.4817 56.4449 52.3722 56.4756C52.1875 56.508 52.0061 56.5574 51.8304 56.6233L51.4755 56.7425C51.4688 56.6314 51.4566 56.5217 51.4444 56.412C51.6093 56.4055 51.7737 56.3874 51.9361 56.3578C52.1546 56.3141 52.3664 56.2416 52.5659 56.1424C52.7459 56.0646 52.9163 55.9665 53.0739 55.8498C53.2621 55.7079 53.4363 55.5482 53.5941 55.373C53.7345 55.217 53.8644 55.0518 53.9828 54.8786C54.0912 54.7147 54.182 54.5399 54.2537 54.3571C54.4095 53.9964 54.4866 53.6066 54.48 53.2138C54.4534 52.7943 54.3286 52.3869 54.1156 52.0245C54.0347 51.8795 53.9389 51.7433 53.8298 51.6181C54.0091 51.6067 54.1783 51.5312 54.3066 51.4055C54.9473 50.7702 55.588 50.1335 56.2504 49.5226L56.3777 49.4061C56.4223 49.4026 56.4645 49.3843 56.4977 49.3541C56.5308 49.324 56.5529 49.2836 56.5606 49.2395L56.6649 49.1447C56.705 49.139 56.7425 49.1214 56.7724 49.0941C56.8024 49.0667 56.8234 49.0311 56.8328 48.9916L57.1214 48.7288L57.5006 48.3929C57.6239 48.2845 57.7512 48.1802 57.8731 48.0705C58.0505 48.0222 58.2246 47.9629 58.3947 47.8931C58.9233 47.6611 59.4336 47.3894 59.9213 47.0803C60.1556 46.9368 60.3859 46.7905 60.5985 46.6252C60.8495 46.4372 61.0883 46.2336 61.3137 46.0156C61.717 45.6183 62.0956 45.1967 62.4475 44.7532C62.8254 44.2804 63.1939 43.7982 63.5542 43.3119C63.8956 42.8514 64.2125 42.3746 64.5281 41.8978C64.8322 41.4351 65.1126 40.9572 65.368 40.466C65.6663 39.9069 65.9354 39.3327 66.1739 38.7457C66.3175 38.3881 66.4448 38.0223 66.5559 37.6539C66.667 37.2855 66.7821 36.9292 66.877 36.5635C66.9718 36.1977 67.0707 35.8185 67.1479 35.4419C67.2373 34.984 67.3226 34.5262 67.3903 34.0629L67.4107 33.9139C67.4113 33.9045 67.4113 33.895 67.4107 33.8855C67.5058 33.8988 67.6027 33.8906 67.6942 33.8614C67.7857 33.8322 67.8695 33.7828 67.9393 33.7168C68.0092 33.6509 68.0633 33.5701 68.0977 33.4804C68.1321 33.3907 68.1459 33.2945 68.1381 33.1987C68.4794 33.2583 68.8208 33.3193 69.1621 33.3816C69.6674 33.4724 70.1753 33.5428 70.6833 33.6105C70.8919 33.639 71.0991 33.6633 71.3077 33.6891C71.4175 33.7026 71.5258 33.7135 71.6356 33.7243C71.7736 33.7315 71.9119 33.7252 72.0487 33.7053C72.1916 33.7061 72.332 33.6682 72.4551 33.5956H72.4632C72.6141 33.6634 72.7821 33.6835 72.9448 33.6532C73.1075 33.623 73.257 33.5438 73.3735 33.4263C73.5247 33.2702 73.6109 33.0625 73.6146 32.8452C73.6335 32.535 73.6146 32.2248 73.6051 31.9132C73.597 31.6288 73.5888 31.3443 73.5712 31.0585C73.5315 30.3957 73.4441 29.7366 73.3098 29.0863C73.1689 28.4346 72.9615 27.7991 72.6908 27.1899C72.5553 26.8878 72.4117 26.5952 72.2505 26.3067C72.1002 26.0358 71.9376 25.7784 71.7751 25.5183C71.4906 25.0618 71.1791 24.623 70.8662 24.1854C70.518 23.6964 70.1577 23.2142 69.7825 22.7482C69.093 21.9057 68.3914 21.0753 67.7181 20.222C67.2617 19.626 66.8106 19.0259 66.3229 18.461C66.0913 18.1901 65.8434 17.9314 65.5861 17.6822C65.4506 17.5562 65.3273 17.4289 65.1932 17.3042C64.9719 17.0789 64.7261 16.8789 64.4604 16.7082C64.4738 16.6109 64.4673 16.5118 64.4414 16.417C64.4157 16.3587 64.3913 16.3005 64.3669 16.2423C64.304 16.1339 64.2139 16.0438 64.1055 15.9808L64.0324 15.9266L64.0486 15.9402C63.9807 15.8898 63.904 15.8526 63.8224 15.8305C63.778 15.8192 63.7327 15.812 63.6869 15.8088C63.5786 15.7831 63.4729 15.7519 63.3659 15.7235L62.9257 15.5975C62.5193 15.4891 62.1129 15.3807 61.6971 15.2764C60.9155 15.0787 60.1393 14.8619 59.3577 14.6615C57.8027 14.2587 56.2508 13.8591 54.7021 13.4627C53.1146 13.0563 51.5297 12.6391 49.9422 12.23C48.3221 11.8128 46.7016 11.3961 45.0806 10.9798C41.8622 10.1481 38.6478 9.29874 35.428 8.4711C33.8431 8.06473 32.2623 7.64888 30.6775 7.25199C29.0303 6.82756 27.3827 6.40945 25.7347 5.99766C23.757 5.50324 21.7807 5.0007 19.7976 4.51847L18.6977 4.24756C18.5893 4.19066 18.4796 4.13377 18.3699 4.07959C17.7905 3.77208 17.1779 3.53167 16.5439 3.36302C16.2026 3.27652 15.856 3.21227 15.5063 3.17068C15.169 3.13546 14.8412 3.09753 14.508 3.07315C13.8781 3.02845 13.2469 3 12.6157 3H12.5751C11.9124 3.0105 11.2518 3.0762 10.6001 3.19641C9.99192 3.30479 9.39148 3.45275 8.80258 3.63936C8.50729 3.7274 8.22012 3.83577 7.92889 3.94007C7.79343 3.99019 7.65797 4.05385 7.52252 4.10939C7.28005 4.21098 7.03758 4.31529 6.80053 4.43042C6.19847 4.73299 5.64139 5.11775 5.14525 5.57368C4.9059 5.78701 4.68521 6.02039 4.48558 6.27128C4.37959 6.3956 4.28866 6.532 4.21466 6.67765C4.16779 6.77833 4.13016 6.88307 4.10223 6.99056C3.97897 7.12601 3.85706 7.26147 3.73514 7.3888C3.5726 7.5676 3.41005 7.74641 3.25021 7.93063C3.09037 8.11485 2.96033 8.26656 2.83029 8.44401C2.70026 8.62146 2.58918 8.76369 2.47946 8.93165C2.35349 9.12535 2.22751 9.3177 2.10695 9.51547C1.87668 9.89339 1.6613 10.2781 1.44999 10.6669C1.24517 11.0472 1.06422 11.4398 0.908162 11.8426L0.790315 12.146C0.746969 12.2544 0.721232 12.3723 0.688722 12.4833C0.623703 12.696 0.57223 12.9114 0.518047 13.1267C0.416454 13.5196 0.340598 13.9232 0.268806 14.3228C0.19566 14.7847 0.140122 15.2453 0.0913581 15.7086C0.0480119 16.1231 0.0331117 16.5457 0.0141477 16.952C0.00466573 17.1539 0.0019566 17.3584 0.00060203 17.5562C-0.000752538 17.754 0.00060203 17.9626 0.00060203 18.1712C0.0263388 18.6087 0.0629121 19.0421 0.119804 19.477L0.113031 19.3903L0.137413 19.5664C0.146895 19.6395 0.156377 19.7127 0.167214 19.7872C0.160441 19.7425 0.155023 19.6978 0.149604 19.6517C0.228109 20.2469 0.336613 20.8378 0.474701 21.4221C0.537011 21.693 0.610157 21.9518 0.683304 22.2118C0.72665 22.3554 0.768642 22.5004 0.818761 22.6412C0.85398 22.7333 0.893262 22.8241 0.933899 22.9121C0.972251 22.9871 1.0176 23.0583 1.06936 23.1248C1.10481 23.1872 1.15564 23.2394 1.217 23.2765C1.24117 23.2911 1.26712 23.3025 1.29421 23.3104C1.28533 23.3527 1.28034 23.3958 1.27931 23.4391C1.27979 23.557 1.31108 23.6728 1.37007 23.775C1.41198 23.8504 1.46896 23.9164 1.53748 23.9688C1.60599 24.0213 1.68457 24.059 1.76831 24.0798C1.96879 24.1082 2.17468 24.1313 2.3738 24.1543C2.45307 24.1605 2.53264 24.147 2.60544 24.115L3.05244 24.1502C3.38702 24.1746 3.72295 24.2058 4.05889 24.2179C4.45583 24.2424 4.85421 24.2274 5.2482 24.1732C5.40668 24.1475 5.55975 24.1177 5.71552 24.0811L5.83202 24.0513C5.85147 24.0784 5.87322 24.1038 5.89703 24.1272C5.96128 24.1935 6.03839 24.2459 6.12365 24.2814C6.20891 24.3168 6.3005 24.3344 6.39281 24.3331C6.83033 24.3033 7.26786 24.2694 7.70538 24.2247C7.88825 24.2071 8.07112 24.1827 8.24721 24.1583C8.32984 24.1475 8.40976 24.1367 8.48968 24.1218L8.79716 24.1719C8.71724 24.5051 8.64545 24.8397 8.57908 25.1756C8.47884 25.6836 8.38131 26.1916 8.29326 26.7009C8.20522 27.2102 8.12259 27.7046 8.04402 28.2085C7.96275 28.7381 7.87335 29.2691 7.82594 29.8042C7.77853 30.3392 7.75144 30.8662 7.72976 31.3985C7.72028 31.6369 7.71622 31.8753 7.71216 32.1137C7.70809 32.3521 7.69996 32.5892 7.70538 32.8262C7.71757 33.368 7.73925 33.9004 7.77447 34.4368C7.80968 34.9732 7.87606 35.4852 7.95191 36.004C8.02371 36.4985 8.08737 36.9929 8.20251 37.4805C8.25534 37.7121 8.30816 37.9451 8.37454 38.1741C8.44633 38.4287 8.5249 38.6793 8.60888 38.9299C8.7037 39.2144 8.83103 39.488 8.95158 39.7603C9.04505 39.9689 9.148 40.1666 9.2523 40.3752C9.37782 40.6145 9.50651 40.852 9.63835 41.0877C9.70743 41.2096 9.79142 41.3261 9.86727 41.444C9.93094 41.5415 10.0027 41.6363 10.065 41.7325C10.6845 42.5823 11.3483 43.3988 12.0535 44.1789C12.3759 44.55 12.7064 44.913 13.0343 45.2774C13.3919 45.6716 13.7481 46.0644 14.1179 46.4505C14.4511 46.8013 14.7857 47.1548 15.1487 47.4732C15.5545 47.8178 15.9876 48.129 16.4437 48.4038C16.8549 48.672 17.285 48.9101 17.7305 49.1163L19.0973 49.719C19.5348 49.9127 19.9791 50.0888 20.4221 50.2717C20.8159 50.4407 21.2193 50.5864 21.6303 50.7079C22.0743 50.8229 22.5276 50.8986 22.9849 50.9341C23.44 50.9788 23.8979 51.0113 24.3557 51.0221C24.4628 51.0211 24.5657 50.9802 24.6441 50.9072C24.7226 50.8343 24.7709 50.7347 24.7797 50.6279C26.9877 50.4708 29.1956 50.3299 31.4049 50.1931C33.4042 50.0712 35.3973 49.9425 37.384 49.8071C37.3871 49.9634 37.4401 50.1147 37.5351 50.2389C37.6301 50.3632 37.7622 50.4539 37.9122 50.4979C38.8293 50.7539 39.7436 51.014 40.6552 51.2876C40.5875 51.587 40.5347 51.8877 40.494 52.1925C40.4523 52.5444 40.4437 52.8995 40.4683 53.2531C40.5091 53.8191 40.5832 54.3823 40.6905 54.9395C40.7352 55.1874 40.7839 55.4326 40.8354 55.6778C40.8584 55.7916 40.8936 55.904 40.9234 56.0164C40.9313 56.046 40.9413 56.0749 40.9532 56.1031C40.9901 56.2191 41.0354 56.3323 41.0887 56.4418C41.1746 56.5917 41.2739 56.7336 41.3853 56.8657C41.4705 56.95 41.5745 57.0127 41.6888 57.0486C41.6243 57.0829 41.565 57.1262 41.5127 57.1773C41.4487 57.2412 41.3979 57.3171 41.3632 57.4007C41.3286 57.4842 41.3107 57.5738 41.3107 57.6642C41.3107 57.7547 41.3286 57.8443 41.3632 57.9278C41.3979 58.0114 41.4487 58.0873 41.5127 58.1512L41.5425 58.1742C41.4374 58.2038 41.3415 58.2592 41.2634 58.3354C41.204 58.3935 41.157 58.4631 41.1253 58.54C41.0937 58.6168 41.078 58.6993 41.0792 58.7824C41.1307 59.1888 41.1795 59.5952 41.2418 60.0016C41.254 60.0815 41.2661 60.16 41.2797 60.24C41.1401 60.3801 41.0618 60.5698 41.0618 60.7676C41.0618 60.9653 41.1401 61.155 41.2797 61.2952L41.4314 61.4117C41.5455 61.4789 41.6756 61.514 41.808 61.5133L42.0342 61.5403C42.0342 61.5742 42.0234 61.6094 42.0206 61.6433C42.0134 61.7219 42.0053 61.8004 41.9963 61.879L41.9434 62.3152C41.9419 62.3774 41.9531 62.4394 41.9764 62.4971C41.9997 62.5549 42.0346 62.6073 42.0789 62.6511L42.106 62.6768C42.1128 62.9152 42.1182 63.155 42.1222 63.3947C42.1331 63.9799 42.1344 64.5637 42.1358 65.1489C42.1358 66.0122 42.1611 66.8751 42.2116 67.7375C42.0995 67.676 41.9909 67.6082 41.8865 67.5343C41.7696 67.458 41.6319 67.4196 41.4924 67.4246C41.4164 67.4232 41.3407 67.4328 41.2675 67.453C41.0618 67.51 40.887 67.6462 40.7817 67.8319C40.6763 68.0175 40.6488 68.2374 40.7054 68.4432C40.7662 68.643 40.8977 68.8139 41.0752 68.9241C41.2883 69.0733 41.5151 69.2021 41.7524 69.3088C41.7518 69.3133 41.7518 69.3178 41.7524 69.3223C41.7348 69.409 41.7253 69.4984 41.7159 69.5865L41.6793 69.9116C41.6549 70.1215 41.6454 70.3342 41.6305 70.5442C41.617 70.7324 41.6034 70.9194 41.5912 71.1077C41.5912 71.1876 41.5845 71.2675 41.5845 71.3474C41.5489 71.3523 41.5137 71.3591 41.4788 71.3677C41.384 71.3939 41.2953 71.4385 41.2178 71.4989C41.1403 71.5594 41.0755 71.6346 41.027 71.7201C40.9786 71.8057 40.9475 71.9 40.9355 71.9975C40.9236 72.0951 40.931 72.1941 40.9573 72.2888C40.9823 72.3824 41.0255 72.4701 41.0846 72.5468C41.1437 72.6235 41.2173 72.6878 41.3014 72.7358C41.6752 72.9255 42.0518 73.1056 42.4297 73.2872C42.5516 73.3454 42.6749 73.4009 42.7995 73.4551C42.8571 73.6112 42.9231 73.7641 42.9973 73.913C43.1756 74.2512 43.3899 74.5691 43.6366 74.8612C43.8522 75.1356 44.1006 75.3827 44.3762 75.5967C44.5835 75.7606 44.7989 75.9109 45.0183 76.06L45.2228 76.1954C45.1823 76.2967 45.1612 76.4047 45.1605 76.5137C45.1627 76.7462 45.256 76.9686 45.4204 77.133C45.5848 77.2974 45.8071 77.3907 46.0396 77.3929C46.9662 77.4037 47.894 77.4118 48.8206 77.447C49.059 77.4456 49.2873 77.3503 49.456 77.1816C49.6246 77.013 49.7199 76.7847 49.7214 76.5462C49.7207 76.4153 49.6906 76.2861 49.6333 76.1683C49.7092 76.1317 49.785 76.0938 49.8595 76.0532C50.2211 75.8467 50.5551 75.5955 50.8538 75.3055C51.2197 74.9378 51.5528 74.539 51.8494 74.1134L52.6391 73.0623C52.6564 73.0388 52.671 73.0133 52.6824 72.9864C52.7931 73.0062 52.9069 72.9988 53.014 72.9648C53.1211 72.9308 53.2184 72.8713 53.2974 72.7914C53.427 72.6587 53.5002 72.4811 53.502 72.2956C53.548 71.3366 53.5941 70.3775 53.6645 69.4199C53.7793 69.3378 53.866 69.2224 53.913 69.0894C53.96 68.9564 53.965 68.8122 53.9273 68.6762C53.9109 68.6188 53.8872 68.5637 53.8568 68.5123L54.1968 68.4662C54.9735 68.3669 55.7523 68.2902 56.5335 68.236C57.3962 68.1825 58.2611 68.173 59.1248 68.2075C59.8711 68.2292 60.6148 68.2766 61.3612 68.3186C61.8813 68.3484 62.4015 68.4039 62.9189 68.4541C63.4905 68.5109 64.0595 68.5746 64.6284 68.6396C65.1973 68.7047 65.7242 68.7927 66.2701 68.8889L67.2549 69.0677L67.347 69.0853C67.3369 69.2272 67.37 69.3689 67.4418 69.4917C67.5382 69.648 67.6886 69.7637 67.8644 69.8167C68.1968 69.926 68.5351 70.0164 68.8777 70.0877C69.1553 70.1554 69.4357 70.2231 69.7175 70.2719C70.3487 70.3897 70.9799 70.4954 71.6139 70.5821C72.2993 70.6756 72.9847 70.7663 73.6728 70.8354C73.9757 70.8582 74.2795 70.8654 74.5831 70.8571C74.8765 70.8532 75.1695 70.8338 75.4608 70.7988C75.6424 70.7785 75.8239 70.7568 76.0027 70.7216C76.1826 70.6791 76.3575 70.6173 76.5242 70.5374C76.5728 70.5099 76.6182 70.4772 76.6596 70.4399C76.7274 70.4072 76.7934 70.371 76.8574 70.3315C76.93 70.3275 77.0001 70.3041 77.0606 70.2638C77.7194 69.7649 78.4248 69.3308 79.1669 68.9674C79.2415 68.9388 79.3174 68.9139 79.3945 68.8929C79.5547 68.8915 79.7079 68.8273 79.8211 68.714C79.9343 68.6008 79.9986 68.4476 80 68.2874C79.9976 68.2017 79.977 68.1174 79.9393 68.0403C79.9017 67.9632 79.848 67.8951 79.7819 67.8404ZM53.1782 53.5159C53.1495 53.6633 53.1092 53.8083 53.0577 53.9493C52.9932 54.0813 52.918 54.2077 52.8328 54.3273C52.6909 54.4983 52.5355 54.6578 52.3682 54.8041C52.144 54.9674 51.8847 55.076 51.611 55.1211C51.5064 55.1292 51.4013 55.1292 51.2967 55.1211C51.0897 55.0806 50.8867 55.0221 50.6899 54.9463C50.5784 54.8944 50.4714 54.8333 50.3702 54.7634C50.1991 54.621 50.0409 54.4637 49.8975 54.2934C49.7678 54.1145 49.6549 53.9241 49.5602 53.7245C49.5002 53.5655 49.4548 53.4014 49.4247 53.2341C49.4087 53.0648 49.4055 52.8946 49.4152 52.7248C49.4461 52.5688 49.4914 52.4159 49.5507 52.2683C49.7192 51.8815 49.9824 51.5433 50.316 51.2849C50.4539 51.184 50.6008 51.096 50.7549 51.0221C50.8785 50.9755 51.0059 50.9393 51.1355 50.9138C51.2334 50.907 51.3316 50.907 51.4295 50.9138C51.5746 50.9445 51.7169 50.9875 51.8548 51.0424C52.0074 51.1116 52.1546 51.1922 52.295 51.2836C52.24 51.3797 52.2111 51.4884 52.2111 51.5992C52.2145 51.7673 52.2813 51.9279 52.398 52.0489C52.5619 52.2385 52.7271 52.4268 52.8843 52.6205C52.9664 52.7365 53.0384 52.8593 53.0996 52.9876C53.1295 53.069 53.154 53.1522 53.1728 53.2368C53.1816 53.3296 53.1834 53.4229 53.1782 53.5159ZM50.4 57.0987C49.9791 57.2254 49.5507 57.3254 49.1172 57.3981C48.3587 57.4631 47.596 57.4631 46.8375 57.3981C46.3119 57.3656 45.7859 57.3313 45.2594 57.2951C44.2597 57.2288 43.2641 57.1258 42.2685 57.0093L42.3092 56.989C42.3855 56.9438 42.4533 56.8855 42.5096 56.817L43.0393 56.8996C43.4633 56.9633 43.8899 57.0012 44.318 57.0351C44.746 57.0689 45.147 57.0703 45.5628 57.0703H46.6655C46.9093 57.0703 47.1517 57.0567 47.3956 57.0472C47.9374 57.0269 48.4901 56.9958 49.0359 56.9646C49.3069 56.9497 49.5656 56.9348 49.8297 56.9226L50.1751 56.905C50.2266 56.905 50.2794 56.8969 50.3309 56.8915C50.3499 56.9551 50.3743 57.0269 50.4 57.0987ZM23.3276 6.37016C26.5583 7.26824 29.7848 8.18122 33.0223 9.05763C34.6179 9.48973 36.2123 9.92726 37.8079 10.358C39.4036 10.7888 41.0034 11.2141 42.599 11.6503C45.7976 12.5226 48.9953 13.394 52.1921 14.2646C54.1196 14.7847 56.0485 15.3062 57.9734 15.8399C58.8999 16.0973 59.8282 16.3466 60.7584 16.5877C61.2216 16.7082 61.6822 16.845 62.1455 16.9683L62.8227 17.1457C62.9758 17.1864 63.1343 17.2216 63.2874 17.269C63.3795 17.3125 63.4795 17.3369 63.5813 17.3408C63.6091 17.4097 63.649 17.473 63.6991 17.5277C63.7511 17.5832 63.8098 17.6319 63.8739 17.6727C64.0789 17.8707 64.2687 18.084 64.4414 18.3107C64.5769 18.4786 64.7124 18.6484 64.8478 18.82C65.1467 19.2237 65.4348 19.6345 65.712 20.0527L65.6578 20.031L64.9616 19.7479C64.455 19.5406 63.9511 19.3293 63.4364 19.1424C63.1438 19.0367 62.8525 18.9378 62.5572 18.8417C62.2619 18.7455 61.9951 18.6737 61.7133 18.5924C61.4587 18.5206 61.2027 18.457 60.9467 18.3933C60.6906 18.3296 60.4766 18.2741 60.2396 18.2199C57.9246 17.6957 55.6002 17.2108 53.2771 16.7299C51.1369 16.2842 48.9831 15.9172 46.8429 15.4729C45.4197 15.1821 43.9974 14.8872 42.576 14.5883C42.5315 14.5787 42.4861 14.5738 42.4406 14.5734C42.3564 14.5727 42.2735 14.5947 42.2008 14.6371C42.118 14.6849 42.0512 14.7562 42.0089 14.842C41.9666 14.9277 41.9506 15.0241 41.9631 15.1189C41.9756 15.2138 42.0159 15.3028 42.0789 15.3747C42.142 15.4466 42.2249 15.4982 42.3173 15.523C43.5879 15.7939 44.8603 16.058 46.1345 16.3154C47.1734 16.5267 48.2151 16.7218 49.25 16.925C49.8067 17.0306 50.3648 17.1349 50.9202 17.246C51.4755 17.3571 52.0648 17.4695 52.635 17.5928C53.7512 17.8321 54.8665 18.0759 55.9808 18.3242C57.1485 18.5843 58.3174 18.8417 59.4824 19.1194C60.0581 19.2548 60.6297 19.4079 61.2013 19.5596C61.4804 19.6341 61.7553 19.7289 62.0317 19.8129C62.2768 19.8887 62.518 19.9836 62.7604 20.0689C63.2643 20.2464 63.7574 20.4631 64.2505 20.6663C64.6866 20.8464 65.1228 21.0266 65.5617 21.2081C65.6971 21.2677 65.8326 21.3314 65.968 21.3869C66.0585 21.413 66.1543 21.4142 66.2454 21.3903C66.3365 21.3665 66.4194 21.3185 66.4855 21.2514C66.6182 21.4519 66.7537 21.6515 66.8919 21.8502C67.244 22.3635 67.6057 22.8688 67.985 23.3619C68.3643 23.8549 68.7151 24.3182 69.0686 24.8099C69.4466 25.3409 69.8272 25.8732 70.174 26.4245C70.3555 26.7117 70.5356 26.9989 70.705 27.2928C70.8743 27.5868 71.0097 27.8631 71.1466 28.157C71.2844 28.5002 71.4047 28.8501 71.5069 29.2055C71.6194 29.6152 71.7099 30.0308 71.7778 30.4503C71.8252 30.8174 71.8672 31.1858 71.8956 31.5543C71.9065 31.7141 71.9159 31.8753 71.9227 32.0352C71.8347 32.0189 71.7453 32.0081 71.6518 31.9959C71.496 31.9756 71.3403 31.9593 71.1845 31.9444C70.9136 31.9187 70.6521 31.8889 70.3866 31.8591C69.815 31.7778 69.2447 31.683 68.6745 31.5881C68.0175 31.4811 67.3538 31.3795 66.6914 31.3172C65.452 31.198 64.2125 31.1086 62.9704 31.0341C60.9819 30.9136 58.9907 30.7632 56.9981 30.7632C56.4332 30.7632 55.867 30.7754 55.3008 30.8052C55.0678 30.8174 54.8321 30.8255 54.5992 30.8486L53.483 30.9556C53.4261 30.961 53.3692 30.9678 53.3123 30.9759C53.3055 30.8797 53.2974 30.7849 53.2906 30.6887C53.2649 30.369 53.2324 30.0507 53.1999 29.7324C53.1293 29.0779 53.0061 28.4301 52.8314 27.7954L52.696 27.3064C52.6499 27.1343 52.5781 26.9677 52.5185 26.8011C52.4589 26.6345 52.3695 26.4435 52.2964 26.2688C52.2381 26.1333 52.1772 25.9978 52.1122 25.8732C51.8494 25.3422 51.5703 24.8167 51.2859 24.2979C51.0267 23.8256 50.7725 23.361 50.5233 22.904C50.3445 22.5776 50.1778 22.243 50.0126 21.9084C50.0005 21.8056 49.9673 21.7065 49.9151 21.6172C49.8821 21.5608 49.8415 21.5093 49.7945 21.4641L49.7864 21.4479C49.7405 21.3671 49.679 21.2964 49.6055 21.2396C49.5321 21.1829 49.448 21.1413 49.3583 21.1173C49.2969 21.1012 49.2336 21.0931 49.1701 21.093C49.0984 21.0928 49.0271 21.1038 48.9587 21.1255C48.8233 21.0916 48.681 21.0618 48.5415 21.0334C48.2313 20.971 47.9225 20.9074 47.6123 20.8478L45.7823 20.4983C44.5388 20.2626 43.2971 20.0197 42.0572 19.7695C41.37 19.6341 40.6832 19.5013 39.9969 19.3713C39.3643 19.2521 38.7277 19.1546 38.091 19.0503C37.4544 18.946 36.8475 18.8782 36.2258 18.7943C35.5214 18.6981 34.8103 18.6358 34.1032 18.5613C33.6508 18.5125 33.1943 18.499 32.7405 18.4732L31.7341 18.415C31.3168 18.3906 30.8969 18.3811 30.4784 18.3689H30.4581C30.3047 18.3729 30.1565 18.4254 30.0349 18.5189C29.9132 18.6123 29.8242 18.7419 29.7808 18.8891C29.8127 18.7304 29.7867 18.5656 29.7076 18.4245C29.5518 18.1427 29.3988 17.8596 29.2566 17.5697C29.1279 17.3137 29.0168 17.0482 28.903 16.7841C28.6782 16.2612 28.4682 15.7302 28.2257 15.2114C28.0903 14.9229 27.9548 14.6371 27.8112 14.358C27.6676 14.079 27.5241 13.8257 27.3602 13.5656C27.0432 13.0428 26.6829 12.5483 26.3253 12.0499C25.9677 11.5514 25.6697 11.0678 25.3283 10.5856C24.9671 10.069 24.5932 9.56017 24.2067 9.05898C23.8117 8.53363 23.3813 8.0358 22.9185 7.56896C22.4729 7.12737 22.0096 6.7061 21.5396 6.2916C21.289 6.0708 21.0357 5.85678 20.777 5.64953C21.6276 5.89245 22.4778 6.13266 23.3276 6.37016ZM1.95253 14.3147C1.90783 14.5192 1.85501 14.7211 1.81708 14.9297L1.6911 15.6476C1.67485 15.7397 1.66537 15.8359 1.65317 15.9293C1.63557 16.077 1.6166 16.2246 1.59764 16.3723C1.54481 16.7787 1.52178 17.2013 1.49469 17.6171C1.44028 18.4366 1.43802 19.2587 1.48792 20.0784C1.54525 20.9346 1.65563 21.7865 1.81843 22.629C1.83111 22.6817 1.86001 22.7291 1.90106 22.7645L1.82114 22.774C1.78999 22.6385 1.76289 22.5153 1.72903 22.3866C1.69517 22.2579 1.65588 22.1157 1.61931 21.9802C1.55294 21.7242 1.49469 21.4641 1.43509 21.2054C1.31724 20.6879 1.22784 20.1678 1.15198 19.6422C1.14386 19.584 1.13708 19.5257 1.12896 19.4675C1.12875 19.4282 1.12375 19.3891 1.11406 19.351C1.07748 19.0584 1.04633 18.7645 1.02736 18.4705C1.00163 18.0384 0.998918 17.6077 1.0084 17.1755C1.01692 16.3388 1.07164 15.5031 1.1723 14.6723C1.18314 14.5965 1.19262 14.522 1.20346 14.4461C1.24274 14.1847 1.28338 13.9232 1.32808 13.6618C1.34704 13.5521 1.36465 13.4437 1.38768 13.3354C1.41613 13.1999 1.43915 13.0468 1.47437 12.906L1.58545 12.4698C1.61118 12.3682 1.64505 12.2693 1.67756 12.1704C1.71007 12.0715 1.74664 11.9537 1.78863 11.848C1.83062 11.7424 1.88616 11.6029 1.93628 11.4796C2.16926 10.9581 2.41173 10.442 2.68535 9.9408C2.75037 9.82025 2.81404 9.69969 2.88312 9.5832C2.96575 9.44774 3.04161 9.30009 3.13101 9.16599C3.22041 9.03189 3.30575 8.89508 3.39379 8.77046C3.48184 8.64584 3.55092 8.55508 3.63084 8.44943C3.8408 8.1907 4.05618 7.9374 4.27426 7.6868C4.31554 7.71481 4.36138 7.73544 4.40972 7.74776C4.53486 7.78134 4.66819 7.7643 4.78087 7.70035C4.83493 7.66925 4.88228 7.62774 4.92018 7.57821C4.95808 7.52869 4.98578 7.47213 5.00167 7.41183C5.02099 7.31036 5.04724 7.21034 5.08023 7.11247C5.11875 7.04076 5.16173 6.97154 5.20891 6.90522C5.49488 6.56753 5.81489 6.26023 6.16388 5.98818C6.57852 5.68532 7.02612 5.43039 7.49813 5.22826C8.01546 5.0134 8.54622 4.83241 9.08704 4.68644L9.54895 4.56317C9.69253 4.52389 9.84153 4.50086 9.98647 4.46971C10.2493 4.41281 10.5161 4.36811 10.7816 4.32206L11.2096 4.26788C11.3898 4.24485 11.5727 4.23943 11.7515 4.22453C11.9303 4.20963 12.1131 4.2164 12.2933 4.21369C12.4735 4.21098 12.6211 4.22047 12.7837 4.22724C13.4785 4.25433 14.1707 4.32477 14.8616 4.39927L15.3113 4.467C15.486 4.49273 15.658 4.53743 15.8314 4.57265C16.1464 4.64687 16.4556 4.74375 16.7566 4.86253L17.0627 4.99799C17.1982 5.05894 17.3336 5.13344 17.4691 5.20117C17.7102 5.32308 17.9473 5.45583 18.1803 5.59264C18.4132 5.72945 18.6408 5.86356 18.8575 6.01798C19.0743 6.1724 19.2856 6.32546 19.4955 6.48395C20.2094 7.0637 20.8948 7.67597 21.5667 8.30313C21.8864 8.60204 22.1911 8.9154 22.481 9.2432C22.7655 9.56423 23.035 9.8961 23.2937 10.2334C23.65 10.7075 24.0076 11.1816 24.3435 11.6733C24.6795 12.165 25.0466 12.6757 25.4028 13.1728C25.7591 13.6699 26.118 14.1765 26.4296 14.7089C26.7294 15.2209 27.0007 15.7491 27.2423 16.291C27.4482 16.7529 27.6487 17.2189 27.8573 17.6794C27.9508 17.884 28.0483 18.0858 28.1499 18.2836C28.1066 18.26 28.0613 18.2405 28.0144 18.2253C27.8248 18.1617 27.6392 18.0899 27.4496 18.033C27.2897 17.9802 27.1245 17.9382 26.9619 17.8975C26.5488 17.7824 26.1329 17.6727 25.7184 17.5616H25.6954L25.6466 17.4167C25.5261 17.0442 25.4258 16.6662 25.3093 16.2924C25.1929 15.9185 25.0384 15.5379 24.8921 15.164C24.7417 14.7614 24.5708 14.3667 24.3801 13.9815C24.1958 13.6213 23.9899 13.2726 23.7638 12.9371C23.5335 12.5917 23.2843 12.2598 23.0404 11.9225C22.5324 11.2373 21.9847 10.5823 21.4001 9.96112C21.1183 9.65093 20.8325 9.34479 20.5494 9.03595C20.2663 8.72711 20.0076 8.4413 19.7272 8.16226C19.4309 7.86145 19.1184 7.57702 18.7912 7.31023C18.4536 7.03717 18.0958 6.78993 17.7211 6.57064C17.3603 6.36056 16.9886 6.16975 16.6076 5.99901L16.2947 5.86356C16.1525 5.8026 16.0062 5.75248 15.8612 5.6983C15.6824 5.63328 15.5009 5.5791 15.3194 5.52898C15.1094 5.47209 14.8981 5.42197 14.6868 5.3732C14.5757 5.34747 14.462 5.32986 14.3495 5.30818C14.1 5.26105 13.8474 5.23207 13.5937 5.22149C13.4862 5.22149 13.3792 5.22149 13.2727 5.22149C12.9611 5.22149 12.6496 5.23504 12.3407 5.26077C12.124 5.27974 11.91 5.30276 11.6946 5.32986C11.4413 5.36237 11.1907 5.41113 10.9401 5.46531C10.5337 5.54659 10.1273 5.65766 9.73588 5.77145C9.3387 5.89112 8.94844 6.03266 8.56689 6.19542C8.13207 6.37423 7.70538 6.56793 7.2814 6.76841C6.90652 6.95292 6.54449 7.16244 6.19775 7.39557C5.82042 7.64571 5.46063 7.92133 5.12087 8.2205C4.81524 8.48901 4.53168 8.78164 4.27291 9.09555C3.99885 9.42359 3.75452 9.77536 3.5428 10.1467C3.43172 10.3445 3.322 10.5436 3.2177 10.7468C3.1134 10.95 3.02264 11.145 2.92918 11.3455C2.84655 11.5202 2.77476 11.7004 2.69755 11.8778C2.64607 12.0011 2.59866 12.1271 2.55125 12.2531C2.51739 12.3384 2.48217 12.4224 2.45372 12.5104C2.3887 12.7082 2.31827 12.9046 2.26408 13.1037C2.2099 13.3028 2.14759 13.5182 2.09476 13.7268C2.04194 13.9354 1.99588 14.1183 1.95253 14.3147ZM8.51135 22.7401C8.48834 22.7388 8.46527 22.7388 8.44227 22.7401C8.37996 22.7401 8.319 22.7401 8.25669 22.7523C8.07247 22.7713 7.89096 22.8024 7.71486 22.8227C7.32204 22.8634 6.92921 22.8945 6.53504 22.923C6.42098 22.8192 6.27333 22.7601 6.11918 22.7564C5.96205 22.7415 5.80899 22.7347 5.65186 22.7347H5.55162C5.39314 22.7347 5.22652 22.7686 5.06804 22.7848C4.71269 22.8162 4.35565 22.8239 3.99929 22.8078C3.66877 22.8011 3.33826 22.778 3.00774 22.7618C2.85468 22.7537 2.70026 22.7455 2.54854 22.7455H2.35619C2.36762 22.7331 2.37762 22.7195 2.386 22.7049C2.42633 22.6313 2.43791 22.5454 2.41851 22.4638C2.36432 22.182 2.31962 21.8976 2.27357 21.6145C2.25054 21.4167 2.22616 21.2189 2.20313 21.0198C2.1801 20.8207 2.17197 20.6216 2.15572 20.4224C2.15572 20.3222 2.15572 20.2193 2.14488 20.1177C2.13405 20.0161 2.13269 19.9131 2.13269 19.8102C2.13269 19.6016 2.12456 19.3889 2.13269 19.1803L2.15707 18.503C2.1652 18.2768 2.18958 18.0506 2.20584 17.8257C2.23699 17.4045 2.28847 16.9846 2.34129 16.566C2.34129 16.5497 2.34129 16.5348 2.34807 16.5186C2.37787 16.3262 2.40902 16.1339 2.43882 15.9415C2.46456 15.7817 2.50113 15.6232 2.53364 15.4647C2.56615 15.3062 2.5946 15.1559 2.63253 15.0028C2.68535 14.7915 2.73818 14.5816 2.78966 14.3702C2.84113 14.1589 2.90344 13.9774 2.95898 13.7824C3.01451 13.5873 3.07682 13.4139 3.13643 13.231C3.23666 12.9236 3.36399 12.6242 3.48861 12.3276C3.58614 12.1162 3.68232 11.9049 3.78662 11.6977C3.90447 11.462 4.02909 11.229 4.15506 10.9974C4.25801 10.805 4.37179 10.6167 4.49235 10.4352C4.55737 10.335 4.61968 10.2307 4.69147 10.1345L4.89465 9.86359C5.10084 9.61288 5.32013 9.37324 5.55162 9.14567C5.68708 9.01022 5.83202 8.8856 5.9756 8.75827C6.07448 8.67293 6.17743 8.59301 6.28038 8.51309C6.46324 8.37763 6.64611 8.25301 6.83304 8.1311C7.01997 8.00919 7.19336 7.89676 7.38164 7.79652C7.61463 7.6719 7.84761 7.5527 8.08602 7.43892C8.28107 7.3441 8.4802 7.25741 8.67796 7.168C8.91501 7.07048 9.15071 6.9743 9.39046 6.88219C9.66138 6.77924 9.93229 6.70068 10.21 6.62347C10.7338 6.47718 11.2651 6.35916 11.8016 6.26993C11.9235 6.25503 12.0454 6.24013 12.1673 6.22929C12.3461 6.21303 12.5236 6.20084 12.7092 6.18865C12.8446 6.17917 12.9882 6.17375 13.1277 6.17375C13.399 6.17016 13.6703 6.18056 13.9405 6.20491C14.2834 6.2589 14.623 6.33216 14.9577 6.42435C15.2788 6.51239 15.5903 6.61805 15.9059 6.73183C16.1091 6.81988 16.3123 6.91064 16.5114 7.00275C16.7105 7.09486 16.9435 7.22354 17.1548 7.3441C17.2402 7.39151 17.3228 7.43892 17.4054 7.49039C17.5097 7.55677 17.6181 7.61772 17.7197 7.68951L18.0543 7.9225C18.1572 7.99565 18.2561 8.07963 18.3563 8.15684L18.2602 8.08234C18.5717 8.35325 18.8819 8.62416 19.1745 8.90727C19.4671 9.19037 19.7814 9.5236 20.0807 9.83515C20.651 10.4298 21.2185 11.0245 21.7604 11.6421L21.824 11.7166C21.6195 11.7519 21.4177 11.7884 21.2118 11.8318L20.7946 11.9212C20.6591 11.9496 20.5237 11.9916 20.3963 12.0282C20.156 12.0967 19.9195 12.178 19.6879 12.272C19.4481 12.3628 19.2124 12.4657 18.9808 12.5741C18.4918 12.8044 18.0177 13.0563 17.545 13.3177C17.1183 13.5521 16.6943 13.8 16.2879 14.0668C15.4075 14.6466 14.5351 15.2453 13.7021 15.8928C13.3065 16.2016 12.9069 16.5091 12.5425 16.8532C12.1556 17.2057 11.7936 17.5845 11.4589 17.9869C11.3654 18.1021 11.2679 18.2159 11.188 18.3378L10.9211 18.713C10.8439 18.8227 10.7762 18.9406 10.7044 19.0543C10.6326 19.1681 10.5689 19.2765 10.5066 19.3876C10.3712 19.607 10.2682 19.8346 10.1599 20.0648C10.1043 20.184 10.0528 20.3046 10.0027 20.4265C9.95261 20.5484 9.89436 20.6744 9.84831 20.8017C9.74942 21.0645 9.6546 21.3259 9.5652 21.5928C9.4907 21.8149 9.42027 22.0412 9.35118 22.2701L9.148 22.9406C9.07953 22.8733 8.9937 22.8264 8.90011 22.8051C8.77143 22.7767 8.64274 22.7523 8.51135 22.7401ZM16.995 47.6899C16.8081 47.5734 16.6184 47.4596 16.4369 47.335C16.2554 47.2104 16.1023 47.1007 15.9384 46.9787C15.2108 46.3039 14.5181 45.5923 13.8632 44.8467C13.186 44.1044 12.4992 43.3634 11.8463 42.5954C11.6282 42.338 11.4115 42.0806 11.1961 41.8206C10.8658 41.4063 10.5661 40.9685 10.2994 40.5107C10.1639 40.2791 10.0461 40.0447 9.93094 39.8063C9.86592 39.6709 9.79548 39.5354 9.73452 39.3999C9.68576 39.2889 9.63835 39.1764 9.59094 39.0654C9.50425 38.831 9.42433 38.5967 9.34847 38.3583C9.27262 38.1199 9.22656 37.9072 9.17373 37.681C9.1209 37.4548 9.06808 37.2448 9.03828 37.024C9.00848 36.8032 8.97461 36.5933 8.94481 36.3779C8.88115 35.8903 8.80935 35.4013 8.77549 34.9109C8.73756 34.3948 8.71318 33.8801 8.69557 33.364C8.67932 32.8763 8.69557 32.3873 8.70912 31.9011C8.72808 31.3592 8.75653 30.8282 8.7931 30.2918C8.80665 30.09 8.83103 29.8855 8.85135 29.6863C8.9868 28.7246 9.14935 27.7669 9.32545 26.8119C9.4162 26.3216 9.50696 25.8326 9.60855 25.3449C9.67357 25.0348 9.74401 24.7259 9.8158 24.4184C9.96273 24.4588 10.1197 24.4392 10.2522 24.3639C10.3847 24.2886 10.4818 24.1637 10.5222 24.0168C10.5626 23.8699 10.543 23.7129 10.4677 23.5804C10.3924 23.4479 10.2675 23.3508 10.1206 23.3104C10.2317 22.9311 10.3441 22.5532 10.4606 22.1753C10.5432 21.9111 10.6272 21.647 10.7234 21.3869C10.8195 21.1268 10.9103 20.8952 11.0092 20.6514C11.0728 20.5159 11.1311 20.3723 11.2029 20.245C11.295 20.0703 11.3898 19.8955 11.4887 19.7235C11.6607 19.4214 11.8531 19.1356 12.0495 18.8498L12.2459 18.5978C12.3353 18.4854 12.4342 18.3798 12.5276 18.2714C12.7078 18.0641 12.9042 17.865 13.102 17.6808C13.4989 17.2975 13.9228 16.948 14.3536 16.5971L14.7234 16.3168L14.6435 16.398C14.2187 16.8536 13.8224 17.3349 13.4569 17.8393C12.7892 18.7653 12.2497 19.7773 11.8531 20.8478C11.6499 21.4004 11.4806 21.9626 11.3112 22.5274C11.1419 23.0923 11.0132 23.6301 10.8873 24.1881C10.7613 24.7462 10.6516 25.3097 10.5459 25.8719C10.4403 26.434 10.3414 26.9555 10.256 27.5082C10.1626 28.111 10.0935 28.7165 10.0298 29.3233C9.96886 29.8936 9.91062 30.4639 9.86592 31.0368C9.77428 32.1488 9.75844 33.2658 9.81851 34.3799C9.83612 34.6711 9.84966 34.9637 9.88488 35.2536C9.92687 35.5895 9.97428 35.9228 10.0298 36.256C10.1246 36.8236 10.2452 37.3871 10.3698 37.9492C10.4804 38.4814 10.6256 39.0059 10.8046 39.5191C11.0024 40.0856 11.2401 40.6374 11.5158 41.1704C11.8046 41.6843 12.1197 42.183 12.4599 42.6644C12.7968 43.1602 13.1503 43.6447 13.5205 44.1179C13.8714 44.5676 14.2439 45.0024 14.6245 45.4251C15.0051 45.8477 15.4183 46.2541 15.8314 46.6523C16.4384 47.2438 17.1158 47.7583 17.8484 48.1843C17.5517 48.0353 17.2727 47.8633 16.995 47.6899ZM34.5963 49.2084C34.0084 49.2562 33.4214 49.305 32.8353 49.3547C32.9945 49.2101 33.1456 49.0568 33.2877 48.8955C33.6426 48.4891 34.0043 48.0963 34.3579 47.694C35.0798 46.8744 35.6135 45.9046 36.1337 44.951C36.6538 43.9973 37.2065 43.0112 37.6603 42.0007C37.8879 41.49 38.0938 40.9685 38.2956 40.4484C38.4974 39.9282 38.702 39.3769 38.9011 38.8378C39.2558 37.827 39.509 36.7833 39.6569 35.7223C39.7463 35.1141 39.829 34.5032 39.8696 33.895C39.9048 33.3437 39.9333 32.7883 39.9238 32.2356C39.9048 31.1059 39.8547 29.9776 39.7883 28.8492C39.7558 28.3223 39.7247 27.7927 39.684 27.2657C39.6407 26.7117 39.577 26.1618 39.5039 25.6104C39.3589 24.4929 39.2031 23.3754 39.065 22.2565C39.0582 22.2145 39.0528 22.1712 39.0474 22.1292C39.0252 22.0485 38.9822 21.9751 38.9228 21.9162C38.8633 21.8573 38.7894 21.8151 38.7085 21.7937C38.6276 21.7723 38.5426 21.7725 38.4618 21.7943C38.381 21.8161 38.3073 21.8587 38.2482 21.9179C38.2033 21.9618 38.168 22.0146 38.1447 22.0729C38.1214 22.1312 38.1105 22.1938 38.1127 22.2565C38.2549 23.3998 38.4012 24.543 38.5272 25.689C38.5882 26.2579 38.6383 26.8268 38.6627 27.3985C38.6898 27.9173 38.7033 28.4374 38.7169 28.9562C38.7412 29.9288 38.7453 30.9014 38.7358 31.874C38.7275 32.8127 38.6655 33.7503 38.5502 34.682C38.4086 35.7441 38.1895 36.7944 37.8946 37.8246C37.7361 38.3488 37.5533 38.8635 37.3677 39.3769C37.1821 39.8903 36.9993 40.4077 36.8001 40.9171C36.6999 41.1744 36.5983 41.4304 36.4927 41.6865C36.0782 42.617 35.6122 43.5232 35.1638 44.4389C34.9417 44.8941 34.7046 45.3424 34.4662 45.7935C34.2344 46.2402 33.9709 46.6698 33.6779 47.079C33.4069 47.4258 33.113 47.7563 32.834 48.1085C32.6795 48.2981 32.5238 48.4864 32.3572 48.6665C32.201 48.8317 32.0326 48.9848 31.8533 49.1244L31.6067 49.314C31.5429 49.3561 31.49 49.4128 31.4523 49.4793C30.2928 49.5768 29.1333 49.6734 27.9738 49.7692C28.0266 49.7556 28.0794 49.7339 28.1309 49.7163C28.2474 49.6757 28.3666 49.6418 28.4858 49.6053C28.7323 49.5294 28.9771 49.4468 29.22 49.3574C29.4787 49.2637 29.7242 49.1366 29.9501 48.9794C30.1898 48.8088 30.4215 48.63 30.6504 48.4444C31.0602 48.105 31.4509 47.7432 31.8207 47.3607C32.1879 46.9886 32.5343 46.5966 32.8583 46.1863C33.5221 45.3478 34.049 44.4254 34.5665 43.488C35.0839 42.5507 35.5715 41.5672 36.0104 40.5771C36.2542 40.0271 36.4818 39.4717 36.7013 38.9123C36.8882 38.4328 37.067 37.9438 37.2079 37.448C37.3609 36.9062 37.4937 36.3644 37.6142 35.8225C37.727 35.2613 37.7994 34.6927 37.831 34.1212C37.8675 33.5956 37.8824 33.0673 37.8933 32.5418C37.9041 32.0162 37.9068 31.4581 37.8933 30.9163C37.8806 30.351 37.8594 29.7875 37.8296 29.2258C37.7985 28.6677 37.7416 28.1123 37.6765 27.5583C37.4408 25.5156 37.1347 23.4838 36.8435 21.4479C36.8279 21.3863 36.7999 21.3287 36.7612 21.2784C36.7226 21.228 36.6741 21.1862 36.6186 21.1553C36.5433 21.1118 36.4578 21.0889 36.3707 21.0889C36.3272 21.0887 36.2839 21.0946 36.2421 21.1065C36.1191 21.1408 36.0142 21.2214 35.9495 21.3314L35.9007 21.4479C35.8777 21.533 35.8777 21.6228 35.9007 21.7079C36.0727 22.9419 36.2488 24.1746 36.4209 25.4086C36.4895 25.9504 36.5545 26.49 36.6159 27.0273C36.6755 27.557 36.7432 28.0866 36.7798 28.6176C36.8543 29.7121 36.8787 30.8106 36.8787 31.9065C36.8921 32.9788 36.8396 34.0509 36.7216 35.1168C36.6498 35.5313 36.5658 35.9404 36.4696 36.3495C36.3734 36.7585 36.2597 37.1622 36.1364 37.5537C36.0131 37.9451 35.8817 38.3068 35.7395 38.6766C35.5869 39.073 35.4293 39.4681 35.2668 39.8618C34.8428 40.8398 34.3944 41.8043 33.9027 42.7484C33.6616 43.2117 33.4029 43.6655 33.1455 44.1193C32.8835 44.582 32.5977 45.031 32.2894 45.4643L32.1662 45.6296C31.8628 46.0179 31.5362 46.3874 31.1882 46.7363C30.8225 47.0964 30.4372 47.436 30.0341 47.7536C29.8797 47.8687 29.7252 47.9838 29.564 48.0881C29.4124 48.1875 29.2534 48.2754 29.0886 48.3509C28.8137 48.4414 28.5331 48.5138 28.2488 48.5677C28.1133 48.5947 27.9778 48.6164 27.8424 48.6381C27.7785 48.6488 27.7152 48.6629 27.6527 48.6801C27.5815 48.7052 27.5122 48.7355 27.4455 48.7708L27.2829 48.8968C27.245 48.9442 27.2084 48.993 27.1719 49.0404C27.1238 49.1225 27.099 49.2162 27.1001 49.3113C27.0998 49.4042 27.1246 49.4955 27.1719 49.5755C27.2173 49.6538 27.2821 49.7191 27.3602 49.7651C27.4027 49.7891 27.4483 49.8073 27.4956 49.8193L27.1516 49.8464C26.0679 49.9331 24.9734 50.0197 23.883 50.0997C23.8223 50.1014 23.7633 50.1197 23.7123 50.1525C23.4414 50.1362 23.184 50.1159 22.9212 50.0861C22.5077 50.0252 22.0983 49.9388 21.6954 49.8274C21.2883 49.7012 20.8897 49.5492 20.502 49.3723L20.548 49.3912C20.2347 49.2585 19.9231 49.123 19.6134 48.9849C19.868 49.0752 20.1241 49.1605 20.3814 49.2409C20.9123 49.4096 21.4559 49.5355 22.0069 49.6174C22.4133 49.677 22.8196 49.7245 23.226 49.7529C23.5782 49.7705 23.9317 49.7637 24.2839 49.7529C25.0299 49.7399 25.7704 49.6223 26.4838 49.4034C26.5818 49.3753 26.6649 49.3099 26.7155 49.2214C26.7661 49.1329 26.7802 49.0281 26.7547 48.9293C26.7505 48.9164 26.7455 48.9037 26.7398 48.8914C26.905 48.8277 27.0689 48.7559 27.2288 48.6787C27.4255 48.5824 27.6148 48.4715 27.795 48.3469C27.9846 48.2114 28.1756 48.0881 28.3652 47.9567C28.7635 47.6791 29.1563 47.3919 29.5383 47.0925C29.8895 46.8204 30.2184 46.5205 30.5217 46.1958C30.8468 45.8423 31.1543 45.4752 31.4564 45.1013C31.7584 44.7275 32.0077 44.3522 32.2691 43.9635C32.5305 43.5747 32.7893 43.1643 33.0344 42.7552C33.2796 42.3461 33.5167 41.9127 33.7469 41.4846C33.9623 41.0782 34.1682 40.6719 34.3687 40.2655C34.5922 39.809 34.7751 39.3363 34.9715 38.8662C35.1462 38.4314 35.2993 37.9871 35.4551 37.5442C35.6041 37.1243 35.7612 36.7043 35.8872 36.275C36.0281 35.8215 36.1443 35.3607 36.2353 34.8946C36.3319 34.3715 36.3988 33.8433 36.4358 33.3125C36.4656 32.8628 36.4642 32.4104 36.4656 31.9579C36.4656 31.4852 36.4656 31.0097 36.4534 30.5397C36.4452 30.0914 36.4317 29.6416 36.3992 29.1933C36.3626 28.6867 36.3247 28.1801 36.2502 27.6775C36.1874 27.2165 36.1015 26.759 35.9928 26.3067C35.875 25.8299 35.7463 25.3585 35.6122 24.8817C35.4225 24.2044 35.2207 23.5352 35.0121 22.8661C34.9105 22.5383 34.8103 22.2091 34.71 21.8813C34.6599 21.7174 34.6112 21.5549 34.5624 21.391C34.5028 21.1973 34.4486 20.9981 34.3755 20.8099C34.3554 20.7324 34.3102 20.6638 34.2469 20.6148C34.1837 20.5657 34.106 20.5391 34.026 20.5389C33.9296 20.5396 33.8373 20.5783 33.7691 20.6464C33.7009 20.7146 33.6623 20.8069 33.6616 20.9033C33.6722 21.0514 33.6957 21.1983 33.732 21.3422C33.7591 21.4655 33.7849 21.5887 33.8133 21.712C33.8657 21.9558 33.9208 22.1996 33.9786 22.4435C34.0869 22.9067 34.2061 23.3673 34.3226 23.8278C34.5502 24.7313 34.7764 25.6362 34.9864 26.5437C35.0947 27.0097 35.1719 27.4825 35.2397 27.9566C35.3363 28.8713 35.3955 29.7875 35.4171 30.705C35.4415 31.6532 35.4632 32.6014 35.4171 33.5496C35.4049 33.8205 35.3724 34.0914 35.3386 34.3623C35.3088 34.5547 35.2776 34.747 35.2424 34.9393C35.2031 35.1534 35.1516 35.3633 35.1002 35.5746C35.0013 35.9932 34.8631 36.4036 34.7276 36.81C34.6021 37.1893 34.4725 37.5672 34.3389 37.9438C34.2034 38.3258 34.0531 38.701 33.9027 39.0776C33.5451 39.9106 33.1442 40.7274 32.7093 41.5225C32.2585 42.3402 31.761 43.1312 31.2193 43.8917C31.1353 44.0095 31.05 44.126 30.9633 44.2439C30.6518 44.6394 30.3267 45.0282 29.984 45.398C29.8038 45.5903 29.6236 45.784 29.4259 45.9601C29.2281 46.1362 29.0547 46.2811 28.8624 46.4342C28.517 46.6889 28.1661 46.9381 27.8072 47.1724C27.6162 47.2998 27.4238 47.4271 27.2288 47.549C27.0446 47.6617 26.8542 47.7639 26.6585 47.8552C26.5018 47.9178 26.3417 47.9716 26.179 48.0163C25.9731 48.0705 25.7577 48.0963 25.5491 48.1369C25.483 48.1542 25.421 48.1846 25.3668 48.2262C25.3126 48.2679 25.2672 48.3199 25.2335 48.3794C25.1655 48.4974 25.1456 48.6371 25.1779 48.7695C24.9328 48.7695 24.6876 48.7532 24.4438 48.7329C23.9507 48.6909 23.4577 48.6422 22.9673 48.5812C22.3235 48.4919 21.686 48.3616 21.0587 48.1911C20.4128 48.0166 19.7762 47.809 19.1515 47.5693C18.878 47.4523 18.6112 47.3202 18.3523 47.1738C18.0657 47.0087 17.7885 46.8278 17.5219 46.632C16.9769 46.1948 16.4623 45.7209 15.9818 45.2137C15.44 44.6448 14.9212 44.0448 14.4308 43.4257C13.9824 42.8365 13.5463 42.235 13.1345 41.6201C12.911 41.2841 12.6915 40.9428 12.4951 40.592C12.3163 40.2723 12.1646 39.9391 12.0183 39.6031C11.7541 38.9647 11.5417 38.3061 11.383 37.6336C11.2137 36.913 11.0634 36.1869 10.9482 35.4554C10.8225 34.3485 10.7772 33.234 10.8128 32.1205C10.8412 30.9962 10.9374 29.8719 11.0485 28.753C11.0746 28.5011 11.1035 28.2496 11.1351 27.9985C11.3085 26.8756 11.5415 25.7581 11.7867 24.6473C12.0347 23.5233 12.3541 22.4162 12.743 21.3327C12.7986 21.181 12.8582 21.032 12.9178 20.8816C13.0848 20.5065 13.271 20.1403 13.4758 19.7844C13.6947 19.4082 13.9372 19.0463 14.2019 18.7008C14.484 18.3349 14.7861 17.9849 15.1067 17.6524C15.2977 17.4587 15.4887 17.2663 15.6933 17.0861C15.8978 16.906 16.0807 16.7597 16.2771 16.6026C16.899 16.1186 17.5451 15.6665 18.2128 15.248C18.592 15.015 18.9794 14.7942 19.3696 14.5788C19.7136 14.3906 20.0563 14.2023 20.4139 14.037C20.5765 13.9761 20.7404 13.9205 20.907 13.8718C21.0296 13.8388 21.1539 13.813 21.2795 13.7945C21.671 13.7539 22.0624 13.7255 22.4539 13.6984C22.64 13.695 22.8177 13.6209 22.951 13.4911C22.9988 13.444 23.0394 13.3902 23.0716 13.3313C23.2409 13.567 23.4008 13.8108 23.5511 14.0587C23.5633 14.079 23.5741 14.0993 23.5863 14.1183C23.0751 14.2797 22.5821 14.494 22.1153 14.7576C21.5596 15.0964 21.036 15.4849 20.5507 15.9185C20.0984 16.3052 19.6679 16.7167 19.2612 17.1512C18.8318 17.6022 18.4065 18.0574 18.0042 18.5301C17.5788 19.03 17.1914 19.5528 16.7986 20.0811C16.4428 20.5687 16.106 21.0699 15.7881 21.5847C15.4535 22.1265 15.1298 22.6683 14.8399 23.2413C14.5508 23.8361 14.2931 24.4456 14.0678 25.0673C13.8557 25.6311 13.685 26.2097 13.5571 26.7984C13.4223 27.4471 13.3205 28.1022 13.2523 28.7612C13.1833 29.3775 13.1453 29.9979 13.1169 30.6183C13.0803 31.2246 13.0803 31.8325 13.1169 32.4388C13.1562 33.0484 13.2307 33.6579 13.3011 34.2634C13.3756 34.9001 13.4745 35.5299 13.6059 36.1598C13.7166 36.7321 13.8591 37.2979 14.0326 37.8544C14.2222 38.4328 14.4389 39.0044 14.6584 39.5679C14.9036 40.1802 15.1718 40.7802 15.4711 41.3681C15.5984 41.616 15.742 41.8598 15.8937 42.0955C16.0455 42.3312 16.2202 42.6076 16.3909 42.8568C16.7438 43.4099 17.1397 43.9343 17.5748 44.4254C17.7874 44.6502 18.0055 44.8683 18.225 45.0837C18.4444 45.2991 18.6557 45.5104 18.8914 45.7C19.8396 46.4681 20.8948 47.1603 22.0895 47.4813C22.6423 47.6176 23.2048 47.7113 23.7719 47.7617C24.0144 47.7874 24.2582 47.8186 24.5034 47.8308C24.8007 47.8475 25.099 47.8288 25.392 47.7752C25.4834 47.75 25.5667 47.7012 25.6334 47.6338C25.7 47.5663 25.7478 47.4825 25.772 47.3907C25.7961 47.299 25.7957 47.2025 25.7709 47.111C25.746 47.0194 25.6976 46.936 25.6304 46.869L25.5207 46.7837C25.4383 46.7359 25.345 46.7103 25.2497 46.7092H25.1996L25.3459 46.7281C25.2105 46.7092 25.0628 46.6943 24.9219 46.678C24.4302 46.6035 23.9426 46.4925 23.4563 46.3854C23.1854 46.3258 22.9063 46.2581 22.6354 46.1782C22.3645 46.0983 22.1315 46.0116 21.885 45.9073C21.4906 45.7323 21.1062 45.5356 20.7336 45.318C20.3774 45.1081 20.036 44.8724 19.7014 44.6286C19.0875 44.1493 18.5221 43.6107 18.0136 43.0207C17.5478 42.4061 17.1142 41.7676 16.7146 41.108C16.5182 40.7857 16.3529 40.443 16.1863 40.1043C16.0197 39.7657 15.8843 39.4446 15.7434 39.1114C15.4082 38.3354 15.1205 37.5397 14.8819 36.7287C14.7749 36.3454 14.6733 35.9593 14.592 35.5706C14.5026 35.148 14.4295 34.7253 14.3644 34.2986C14.2194 33.3623 14.1438 32.4165 14.1382 31.4689C14.161 30.4969 14.2333 29.5267 14.355 28.562C14.3997 28.2573 14.4444 27.9511 14.5026 27.6491C14.5744 27.2752 14.6611 26.9081 14.76 26.541C14.9473 25.9048 15.1744 25.2809 15.44 24.6731C15.6377 24.2179 15.8463 23.7682 16.082 23.3321C16.3177 22.8959 16.5941 22.4421 16.8663 22.0086C17.4176 21.1268 18.0136 20.2802 18.6449 19.4566C19.1542 18.8281 19.6892 18.2186 20.2365 17.6226C20.7789 17.0382 21.3638 16.4949 21.9866 15.9971C22.183 15.8511 22.387 15.7155 22.5975 15.5907C22.8171 15.4651 23.0432 15.3512 23.2748 15.2494C23.5294 15.1505 23.7841 15.0584 24.0442 14.9784L24.1227 15.141C24.2812 15.4837 24.4316 15.8305 24.5792 16.1786C24.777 16.6622 24.9463 17.1552 25.1211 17.6456C25.1305 17.6727 25.1414 17.6984 25.1509 17.7255C25.0859 17.7936 25.0393 17.877 25.0154 17.968C24.9758 18.1165 24.9962 18.2746 25.0723 18.4082C25.1483 18.5418 25.2739 18.64 25.4218 18.6818L25.5315 18.7116C25.5911 18.8647 25.6507 19.0178 25.7089 19.1708C25.7308 19.246 25.7789 19.3109 25.8444 19.3537C25.8795 19.374 25.9183 19.3872 25.9585 19.3926C25.9987 19.3979 26.0395 19.3953 26.0787 19.3848C26.1238 19.3723 26.1653 19.3496 26.2003 19.3186C26.2352 19.2875 26.2625 19.2488 26.2802 19.2055C26.2978 19.1622 26.3053 19.1155 26.3021 19.0689C26.2989 19.0222 26.285 18.9769 26.2616 18.9365L26.2521 18.9162L26.6585 19.0354C27.0093 19.1451 27.3507 19.286 27.7083 19.3727C27.8587 19.4127 28.0189 19.3927 28.1549 19.3169C28.2908 19.241 28.392 19.1153 28.437 18.9663C28.4451 18.9356 28.4505 18.9044 28.4533 18.8728C28.4953 18.9487 28.5346 19.0245 28.5766 19.1004C28.6655 19.2502 28.8099 19.3591 28.9784 19.4035C29.1469 19.4478 29.3261 19.4241 29.4773 19.3374C29.617 19.2553 29.7209 19.1239 29.7686 18.969C29.7601 19.0137 29.7556 19.059 29.755 19.1045C29.7595 19.294 29.8369 19.4746 29.9711 19.6086C30.1054 19.7425 30.2861 19.8196 30.4757 19.8237C31.0446 19.8413 31.6108 19.863 32.1797 19.8969L33.7808 19.9903C34.0747 20.0079 34.3687 20.0472 34.6613 20.0784L35.9413 20.2138L36.7405 20.3263C37.0264 20.3656 37.3135 20.3981 37.598 20.4468C38.1981 20.5471 38.8022 20.6378 39.3982 20.7543C40.7365 21.0157 42.0721 21.2961 43.4077 21.5671C44.3234 21.754 45.2391 21.9328 46.1548 22.1089C46.6397 22.2046 47.1242 22.303 47.6082 22.4042C48.0051 22.4868 48.4007 22.5803 48.7948 22.6751C49.1199 23.3217 49.4527 23.9642 49.7931 24.6026C50.1711 25.3138 50.5341 26.0317 50.8768 26.7618C50.9418 26.9217 51.0123 27.0815 51.0597 27.2454C51.1382 27.4865 51.2114 27.7249 51.2723 27.9701C51.3861 28.4239 51.4742 28.879 51.5541 29.3382C51.5947 29.7039 51.6272 30.0701 51.6516 30.4368C51.6692 30.7009 51.6733 30.965 51.6977 31.2265L51.5758 31.2522C51.4124 31.2987 51.2739 31.4076 51.1903 31.5554C51.1066 31.7032 51.0845 31.878 51.1288 32.0419C51.1549 32.1373 51.2032 32.225 51.2699 32.298C51.3365 32.371 51.4195 32.4272 51.5121 32.4618L51.4918 32.6217C51.4254 33.1039 51.3441 33.5861 51.2696 34.067C51.2385 34.2702 51.187 34.4734 51.1464 34.6739C51.1057 34.8743 51.0692 35.0707 51.0204 35.2672C50.9134 35.6993 50.8037 36.13 50.6696 36.5567C50.5178 37.0403 50.3553 37.5212 50.2388 38.0156C50.2081 38.1321 50.2161 38.2555 50.2616 38.3671C50.307 38.4787 50.3874 38.5726 50.4908 38.6346C50.5538 38.672 50.6237 38.6961 50.6964 38.7057C50.769 38.7152 50.8428 38.7099 50.9134 38.6901C50.993 38.6679 51.066 38.6265 51.126 38.5696C51.2118 38.523 51.283 38.4536 51.3319 38.3691C51.9216 37.3859 52.4518 36.3681 52.9195 35.3213C53.1457 34.7971 53.3665 34.2702 53.5737 33.7365C53.6144 33.6335 53.6537 33.5306 53.6916 33.4277C54.3066 33.3798 54.9215 33.3346 55.5365 33.2922C56.1528 33.2475 56.7732 33.2339 57.3923 33.2163C58.0038 33.2032 58.6154 33.2349 59.2223 33.3112C59.8346 33.3816 60.4414 33.4724 61.0564 33.5252C61.5318 33.5658 62.0046 33.5767 62.4854 33.5848C62.9663 33.5929 63.4336 33.6078 63.9132 33.6227C64.7164 33.6457 65.5183 33.6484 66.3189 33.7229C66.3146 33.7357 66.3114 33.7489 66.3094 33.7622C66.2417 34.2255 66.155 34.6833 66.0642 35.1412C65.9897 35.5205 65.8962 35.9024 65.7865 36.2722C65.6633 36.6881 65.5373 37.1012 65.4018 37.5117C65.288 37.8693 65.1526 38.2188 65.0171 38.5615C64.5831 39.5284 64.0735 40.4596 63.4932 41.3465C63.2047 41.784 62.9162 42.2229 62.606 42.6455C62.2958 43.0681 61.9694 43.4975 61.647 43.9201C61.3679 44.275 61.0835 44.6259 60.7746 44.955C60.6121 45.1284 60.4495 45.3031 60.2761 45.4657C60.1028 45.6282 59.9605 45.7488 59.7953 45.8815C59.2477 46.2793 58.6635 46.6241 58.0506 46.911L58.0018 46.93C57.9244 46.8596 57.8316 46.8081 57.7309 46.7796C57.6493 46.7542 57.5644 46.741 57.479 46.7403C57.4169 46.741 57.3551 46.7487 57.2947 46.7634C57.1611 46.7946 57.0346 46.8512 56.9222 46.93C56.7781 47.0349 56.6397 47.1475 56.5077 47.2673C56.3953 47.3648 56.2856 47.4637 56.1745 47.5639C56.0391 47.5707 55.9036 47.5815 55.7681 47.5897L54.8552 47.6506L53.0942 47.7752C51.8661 47.8601 50.6379 47.9504 49.4098 48.0461C46.9391 48.2277 44.4697 48.4227 41.999 48.6164C39.5282 48.8101 37.0616 49.0079 34.5963 49.2084ZM40.1093 49.6256C44.6106 49.3235 49.1104 49.0133 53.6076 48.6638L55.0733 48.5514H55.1044C54.4772 49.142 53.865 49.7448 53.2541 50.3516C53.1491 50.4559 53.0783 50.5896 53.0509 50.735C52.967 50.653 52.8764 50.5783 52.78 50.5115C52.6205 50.403 52.4524 50.3079 52.2774 50.227C52.0672 50.1229 51.8453 50.0443 51.6164 49.9927C51.483 49.9632 51.3467 49.9487 51.21 49.9493C50.9393 49.9504 50.6707 49.9961 50.4149 50.0848C50.2742 50.1361 50.1382 50.1995 50.0085 50.2744C49.9155 50.2247 49.8119 50.1982 49.7065 50.1972C49.6477 50.1971 49.5893 50.2058 49.5331 50.2229C48.9682 50.3923 48.4833 50.7499 47.9889 51.0587C47.5211 51.3486 47.0565 51.6439 46.595 51.9446C46.3891 51.8565 46.1792 51.778 45.9706 51.6953C45.7322 51.5897 45.4951 51.4813 45.2581 51.373C44.9086 51.2118 44.5537 51.0655 44.1988 50.9165C44.1053 50.8758 44.0064 50.846 43.9103 50.8122L43.3088 50.6009C43.0731 50.5182 42.8334 50.4464 42.595 50.3733C41.766 50.1159 40.9374 49.8667 40.1093 49.6256ZM42.0626 53.7556C41.9986 53.2779 41.9872 52.7946 42.0288 52.3144C42.0599 52.1193 42.0979 51.927 42.1412 51.736C42.3891 51.8118 42.637 51.8891 42.8821 51.973L43.7545 52.2724C43.9617 52.3428 44.1609 52.4336 44.3654 52.5176C44.746 52.6801 45.1267 52.8427 45.5127 52.9944C45.6726 53.058 45.8392 53.1149 46.0044 53.1637C46.1413 53.2018 46.2807 53.2299 46.4216 53.2477C46.524 53.3089 46.641 53.3412 46.7603 53.3412C46.8795 53.3412 46.9966 53.3089 47.0989 53.2477C47.4818 53.003 47.8661 52.7587 48.2517 52.5149C48.2267 52.6537 48.2104 52.7939 48.2029 52.9348C48.1778 53.3169 48.2238 53.7004 48.3383 54.0658C48.4022 54.256 48.4829 54.44 48.5795 54.6158C48.7006 54.835 48.8416 55.0427 49.0007 55.2362C49.1239 55.3834 49.2599 55.5194 49.4071 55.6426L49.4274 55.6615L49.1741 55.6791C48.6987 55.7089 48.2259 55.7428 47.7464 55.7591L46.7901 55.7943C46.5706 55.8024 46.3498 55.7943 46.1304 55.7943H45.1659C44.9587 55.7943 44.7514 55.7807 44.5456 55.7712C44.169 55.7509 43.7924 55.7238 43.4186 55.6778C43.0894 55.6304 42.7629 55.5775 42.4338 55.5261C42.3728 55.3188 42.3214 55.1116 42.2712 54.9003C42.1805 54.5183 42.1168 54.1349 42.0626 53.7556ZM42.3335 58.6145C42.3086 58.5262 42.2646 58.4444 42.2049 58.3747C42.5814 58.4181 42.9589 58.4592 43.3373 58.498C43.6082 58.5264 43.8791 58.5589 44.15 58.5806C44.8237 58.6321 45.4965 58.68 46.1683 58.7242C46.4392 58.7414 46.7142 58.7572 46.9933 58.7716C47.5093 58.7946 48.0268 58.8285 48.5442 58.8041C49.1226 58.7792 49.6959 58.686 50.2523 58.5264C50.5558 58.4384 50.8578 58.349 51.1586 58.2555C51.3215 58.2061 51.4808 58.1455 51.6354 58.074L51.7302 58.0239L52.1501 57.8884C52.1596 58.2325 52.1677 58.5765 52.1718 58.9206C52.1718 59.2891 52.1718 59.6575 52.184 60.0246C52.1591 60.0232 52.1343 60.0232 52.1095 60.0246C52.0662 60.0079 52.0204 59.9987 51.974 59.9975H51.9401C51.7112 60.0246 51.4823 60.053 51.2547 60.0923C51.0854 60.1221 50.9188 60.1668 50.7522 60.2075C50.4122 60.2887 50.0749 60.3578 49.7281 60.4215C48.5426 60.5415 47.3492 60.5628 46.1602 60.4851C44.9411 60.4242 43.7382 60.2616 42.5313 60.1194C42.5083 59.9474 42.4839 59.774 42.4609 59.602L42.3552 58.7892C42.3444 58.7269 42.3363 58.6727 42.3295 58.6145H42.3335ZM50.0844 74.1405C49.9401 74.2912 49.7863 74.4323 49.6238 74.5632C49.3951 74.7284 49.1521 74.873 48.8978 74.9953C48.7623 75.0576 48.635 75.1145 48.5036 75.1727C48.3099 75.258 48.1189 75.3488 47.9252 75.4328H47.913C47.8104 75.4624 47.7171 75.5179 47.6421 75.594C47.6231 75.613 47.6054 75.6334 47.5893 75.6549H47.4227C47.3227 75.5055 47.1745 75.395 47.0027 75.342L46.9811 75.3339C46.7183 75.2106 46.4623 75.0711 46.209 74.9275C45.8826 74.751 45.5681 74.5532 45.2675 74.3356C45.2174 74.2936 45.1687 74.2503 45.1212 74.2001C45.3827 74.2489 45.6468 74.2895 45.9096 74.3356C46.2686 74.3911 46.6302 74.444 46.9933 74.471C47.3035 74.5008 47.6137 74.5144 47.9252 74.5185C48.2676 74.5128 48.6091 74.4806 48.9465 74.4223C49.2327 74.378 49.5139 74.3063 49.7864 74.2083C49.8961 74.169 50.0058 74.1297 50.1155 74.0877L50.0844 74.1405ZM52.1162 70.6634C52.0838 71.0856 52.0743 71.5093 52.0878 71.9326C52.0533 71.9346 52.0194 71.9424 51.9875 71.9556C51.6909 72.0802 51.401 72.2265 51.1071 72.3512C50.7495 72.4866 50.3865 72.6221 50.0234 72.7494C49.6498 72.8763 49.2678 72.9773 48.8802 73.0515C48.7569 73.065 48.6336 73.0786 48.509 73.088C48.32 73.0982 48.1305 73.0982 47.9415 73.088C47.6105 73.0758 47.2804 73.0459 46.9526 72.9986C46.5679 72.939 46.1841 72.8754 45.8012 72.8076C45.5804 72.7697 45.3596 72.7277 45.1402 72.6844C45.0048 72.6573 44.8693 72.6288 44.7338 72.595C44.5209 72.5393 44.3115 72.471 44.1067 72.3904C44.0359 72.2586 43.9306 72.1485 43.8019 72.0721C43.6861 72.0042 43.5542 71.9686 43.4199 71.9692C43.3527 71.9689 43.2857 71.9775 43.2208 71.9949H43.2045L42.5516 71.6806C42.5449 71.659 42.5381 71.6373 42.5327 71.6143C42.5178 71.4287 42.5015 71.2431 42.4853 71.0575C42.469 70.872 42.4555 70.7162 42.4473 70.5442C42.4473 70.4561 42.4406 70.3681 42.4378 70.2814C42.4671 70.2537 42.4903 70.2203 42.5059 70.1832C42.5215 70.1462 42.5293 70.1062 42.5286 70.066C42.5286 69.9671 42.5286 69.8696 42.5286 69.7721C42.6362 69.8809 42.782 69.9435 42.935 69.9468C43.0532 69.9455 43.1682 69.9077 43.2641 69.8384C43.535 69.9129 43.806 69.9861 44.0877 70.0484C44.7215 70.1902 45.3628 70.2965 46.0085 70.3667C46.6776 70.4412 47.3441 70.5022 48.016 70.5469C48.1325 70.555 48.2476 70.5591 48.3641 70.5631C48.5266 70.5631 48.6946 70.5821 48.8571 70.574L49.399 70.5496C49.5493 70.5428 49.6983 70.5225 49.8473 70.5076C50.4981 70.4394 51.1429 70.3225 51.7762 70.1581C51.9117 70.1229 52.0336 70.085 52.1623 70.0457C52.1352 70.257 52.1203 70.4575 52.1081 70.6634H52.1162ZM52.4752 68.2495C52.4266 68.2982 52.3855 68.354 52.3533 68.4148C52.1338 68.4866 51.913 68.5502 51.6909 68.6152C51.2452 68.7347 50.7929 68.8284 50.3363 68.8956C50.0441 68.94 49.7498 68.969 49.4545 68.9823L48.845 68.9986C48.6336 68.9986 48.4196 68.981 48.2083 68.9715C47.848 68.9566 47.4863 68.9146 47.1247 68.8807C46.763 68.8469 46.4 68.8022 46.041 68.7602C45.5791 68.6938 45.1158 68.6247 44.6607 68.5286C44.2543 68.4378 43.848 68.3416 43.4416 68.2251C43.424 68.0585 43.405 67.8906 43.3901 67.7239C43.3319 67.1239 43.2899 66.5224 43.2547 65.921C43.2221 65.3792 43.2154 64.8279 43.1937 64.282C43.1693 63.6499 43.14 63.0209 43.1056 62.3951C43.0989 62.284 43.0935 62.1729 43.0867 62.0632C43.0799 61.9535 43.0745 61.879 43.0691 61.7923C43.0691 61.7517 43.0623 61.7124 43.0582 61.6731C44.0281 61.7869 45.0007 61.8966 45.976 61.9643C46.5815 62.0077 47.187 62.0144 47.7938 62.009C48.1054 62.009 48.4169 61.9806 48.7271 61.9603C48.8626 61.9521 48.998 61.9345 49.1335 61.921C49.3272 61.9007 49.5304 61.8776 49.7214 61.8411C50.133 61.7608 50.54 61.6582 50.9405 61.5336C51.131 61.474 51.3193 61.4062 51.5053 61.3304C51.5758 61.3019 51.6476 61.2721 51.718 61.241C51.718 61.3277 51.718 61.4157 51.718 61.5024C51.718 61.6555 51.7248 61.8099 51.7288 61.963C51.7288 62.2203 51.7573 62.4791 51.7735 62.7364C51.8033 63.2159 51.8494 63.6941 51.8887 64.1736C51.9302 64.682 51.9713 65.19 52.0119 65.6975C52.0348 66.2288 52.1001 66.7574 52.207 67.2783C52.2337 67.3746 52.2866 67.4617 52.3598 67.5298C52.4329 67.5979 52.5235 67.6445 52.6215 67.6643C52.6138 67.7091 52.6097 67.7544 52.6093 67.7998C52.6099 67.9078 52.632 68.0147 52.6743 68.1141C52.5979 68.1468 52.5277 68.1926 52.4671 68.2495H52.4752ZM66.1739 55.0493C66.1739 54.865 66.1888 54.6822 66.1997 54.4993L66.308 54.4898L67.24 54.4207L68.9345 54.2948C69.1283 54.2799 69.3247 54.2812 69.517 54.2758L70.6643 54.2379C71.6157 54.1904 72.5693 54.2149 73.517 54.311C74.1208 54.4132 74.7146 54.5677 75.2915 54.7729C75.4866 54.8379 75.6789 54.9084 75.8713 54.9883C76.1184 55.0761 76.3773 55.1259 76.6393 55.136C76.7143 55.1395 76.7893 55.1285 76.8601 55.1034C76.8601 55.2267 76.852 55.3486 76.8493 55.4719C76.8411 55.7604 76.8493 56.0462 76.8493 56.3347C76.8601 56.9497 76.8804 57.5633 76.9035 58.1783C76.9224 58.7201 76.9482 59.2525 76.9739 59.7902C76.7919 59.5581 76.6499 59.2971 76.554 59.0181C76.0934 58.5169 75.5841 58.0632 75.087 57.5986L74.4368 56.9931C74.5601 56.8473 74.6218 56.6593 74.6088 56.4688C74.6094 56.3417 74.5757 56.2168 74.5113 56.1072L74.4002 55.9636C74.3127 55.8759 74.204 55.8125 74.0846 55.7794C73.9941 55.7437 73.8974 55.7262 73.8002 55.7279C73.6979 55.7302 73.596 55.7406 73.4954 55.7591C73.4954 55.7482 73.4954 55.7374 73.4954 55.7265C73.495 55.5894 73.4405 55.458 73.3437 55.3608C73.2959 55.3127 73.2388 55.2748 73.176 55.2494C73.1131 55.224 73.0457 55.2117 72.9779 55.2132C72.9324 55.2136 72.887 55.2186 72.8425 55.2281C72.7165 55.2538 72.5905 55.2782 72.4632 55.2971L72.0568 55.3446C71.8767 55.3676 71.6979 55.3987 71.515 55.4272C70.9921 55.4854 70.4693 55.4719 69.9451 55.4949C69.3761 55.5193 68.8072 55.5491 68.241 55.5965C67.5908 55.6507 66.9447 55.732 66.2999 55.8254C66.1509 55.8457 66.0033 55.8688 65.8543 55.8932C65.8543 55.839 65.8543 55.7861 65.8448 55.7333C65.8448 55.7184 65.8448 55.7049 65.8448 55.69C65.9437 55.6148 66.0241 55.518 66.0797 55.4069C66.1354 55.2958 66.1648 55.1735 66.1658 55.0493H66.1739ZM53.5575 59.4353C54.2131 59.2999 54.8701 59.1644 55.5311 59.0398C56.1285 58.9274 56.7299 58.8393 57.3286 58.7377C58.5139 58.5386 59.6774 58.2298 60.8505 57.9968C61.3923 57.8898 61.926 57.7841 62.4678 57.6907C63.0097 57.5972 63.5799 57.5078 64.1353 57.413C64.6907 57.3182 65.2068 57.2193 65.7432 57.1245C66.2498 57.0337 66.7578 56.9565 67.2657 56.8847C67.5366 56.8495 67.8075 56.8156 68.0785 56.7831C67.3036 56.9213 66.5288 57.063 65.754 57.2084C65.1147 57.3276 64.4794 57.4794 63.8441 57.6148C63.3022 57.7286 62.7713 57.8573 62.2362 57.9833C60.9142 58.2939 59.5943 58.61 58.2768 58.9314C56.7001 59.3134 55.1198 59.6887 53.5358 60.0571C53.5575 59.8458 53.5588 59.6412 53.5575 59.4353ZM53.0969 64.622L53.0577 64.6355C53.0428 64.4798 53.0265 64.3253 53.0116 64.1696C52.9642 63.7009 52.9127 63.2308 52.8761 62.7608C52.8558 62.5034 52.8287 62.2461 52.8179 61.9887C52.8111 61.8356 52.8044 61.6812 52.7989 61.5282C52.7989 61.413 52.7989 61.2965 52.7881 61.1814C52.7888 61.0824 52.7606 60.9854 52.7068 60.9023L52.7637 60.9132C52.8133 61.0627 52.9178 61.1878 53.0561 61.2632C53.1944 61.3387 53.3562 61.3588 53.5087 61.3196C54.8633 61.0107 56.2129 60.6946 57.5575 60.3714C58.8092 60.072 60.0581 59.7618 61.3124 59.476L63.6599 58.9342C64.2559 58.7987 64.8587 58.689 65.4587 58.5671C66.6616 58.3246 67.8739 58.1214 69.0863 57.9277C69.7893 57.8153 70.4923 57.7137 71.194 57.5972C71.6003 57.5322 71.9945 57.4617 72.3941 57.3967C72.8809 57.8482 73.3658 58.3029 73.8489 58.7608C74.1388 59.0385 74.4246 59.3202 74.7145 59.5993C74.4761 59.6575 74.2377 59.7171 73.9979 59.7726C73.3599 59.9243 72.7192 60.0679 72.0798 60.2129C70.8066 60.5014 69.5211 60.7398 68.241 60.9917C67.1479 61.2071 66.052 61.409 64.9616 61.6365L62.6074 62.1282C62.0493 62.2447 61.4953 62.3815 60.9385 62.5102C60.3818 62.6389 59.8373 62.7554 59.29 62.8922L57.0252 63.4571C56.4752 63.5925 55.932 63.7591 55.3862 63.9122C55.0638 64.0016 54.7454 64.1073 54.4258 64.2048C54.0194 64.3308 53.6049 64.4554 53.1972 64.5868L53.0969 64.622ZM68.0392 67.602C67.9271 67.5691 67.8131 67.5433 67.6978 67.5248C67.3673 67.4666 67.0381 67.4124 66.709 67.3582C66.4381 67.3122 66.1672 67.2675 65.8881 67.2309C65.4939 67.1767 65.0998 67.113 64.7042 67.0683C63.5095 66.9329 62.3134 66.7974 61.1133 66.727C60.2301 66.6769 59.3523 66.6281 58.461 66.6118H58.0831C56.5321 66.6348 54.9843 66.7624 53.4505 66.9938H53.4085L53.273 67.0114C53.2649 66.708 53.2378 66.4073 53.2053 66.1052C53.3026 66.1182 53.4015 66.1099 53.4952 66.0809C54.2592 65.8384 55.0258 65.6081 55.7912 65.3751C56.1027 65.2817 56.4183 65.2031 56.7312 65.1178C56.9575 65.0554 57.185 64.9891 57.4085 64.9322L59.6639 64.3795C60.2057 64.2441 60.7475 64.1343 61.2894 64.0138C61.8569 63.8878 62.4258 63.7429 62.9975 63.6345L65.3341 63.1712C66.4327 62.9532 67.5366 62.7649 68.6392 62.563L70.7063 62.1946C71.305 62.0862 71.9065 61.9725 72.5038 61.8492L73.6688 61.604L73.6268 61.627C73.5507 61.6803 73.4832 61.7447 73.4263 61.818C73.3049 61.9634 73.191 62.1149 73.0849 62.2718C72.8483 62.6182 72.6455 62.9865 72.4795 63.3717C72.3995 63.5478 72.3304 63.7293 72.2573 63.9068C72.2112 64.0219 72.1625 64.1357 72.1218 64.2508C72.0189 64.5217 71.9119 64.8008 71.8211 65.0798C71.7737 65.2275 71.725 65.3751 71.6857 65.5241C71.6426 65.6833 71.6109 65.8454 71.5909 66.0091C71.5803 66.0799 71.5744 66.1514 71.5732 66.2231C71.5794 66.3464 71.5943 66.469 71.6179 66.5902V66.6024L71.2942 66.6985C70.9 66.8164 70.5031 66.9248 70.1062 67.0358C69.4163 67.2264 68.725 67.416 68.0324 67.6047L68.0392 67.602ZM72.5187 67.6643L72.4388 67.6752C72.4652 67.6702 72.4919 67.6665 72.5187 67.6643ZM77.0674 63.8038C77.0552 64.4242 77.0227 65.0446 76.9969 65.6636C76.9739 66.2529 76.9563 66.8421 76.917 67.4314C76.8967 67.7199 76.8764 68.007 76.8506 68.2942L76.8384 68.4297C76.6877 68.4252 76.5391 68.4673 76.4131 68.5502C76.114 68.7506 75.831 68.9738 75.5665 69.218L75.4812 69.2262C75.2554 69.2451 75.0296 69.2573 74.8039 69.2627C74.3392 69.2736 73.8744 69.2587 73.4114 69.218C72.5404 69.1408 71.6708 69.0379 70.8025 68.9282C70.2119 68.8388 69.6254 68.7399 69.0416 68.6247C69.0486 68.599 69.0536 68.5727 69.0565 68.5462C69.4439 68.4419 69.8299 68.3362 70.2173 68.2333C70.6372 68.1208 71.0572 68.0098 71.4784 67.9028C71.8265 67.8133 72.1774 67.7253 72.5309 67.663H72.5418C72.6265 67.6866 72.7151 67.6933 72.8025 67.6826C72.8898 67.6718 72.9742 67.644 73.0507 67.6005C73.1272 67.5571 73.1944 67.499 73.2484 67.4295C73.3024 67.36 73.3422 67.2806 73.3653 67.1957C73.3979 67.0791 73.3979 66.9559 73.3653 66.8394C73.3342 66.7279 73.2749 66.6262 73.1933 66.5441C73.185 66.534 73.1759 66.5245 73.1662 66.5157C73.1901 66.3964 73.1868 66.2732 73.1567 66.1554C73.1405 66.089 73.1269 66.0199 73.1147 65.9562C73.1039 65.8208 73.0998 65.6975 73.0998 65.5648C73.0998 65.4537 73.1161 65.3426 73.1242 65.2315C73.1242 65.2776 73.112 65.3223 73.1053 65.367C73.1229 65.2383 73.1351 65.1069 73.1621 64.9796C73.1974 64.8035 73.2339 64.6288 73.2692 64.4527C73.3044 64.2766 73.3667 64.1018 73.4141 63.9284C73.4977 63.6279 73.599 63.3325 73.7175 63.0439C73.8434 62.743 73.9981 62.4549 74.1794 62.1838C74.1984 62.1621 74.216 62.1391 74.2336 62.1174C74.2793 62.0722 74.3121 62.0156 74.3284 61.9535C74.3418 61.9058 74.3454 61.856 74.3391 61.8069C74.3328 61.7578 74.3168 61.7104 74.2919 61.6677C74.2473 61.5902 74.1753 61.5322 74.09 61.5051L74.4084 61.4374C75.0247 61.3019 75.6396 61.1584 76.2573 61.031C76.4265 61.0116 76.5868 60.945 76.7199 60.8389C76.8531 60.7328 76.9537 60.5915 77.0105 60.431C77.0358 60.9665 77.0592 61.5006 77.0809 62.0334C77.0904 62.6294 77.0728 63.2187 77.0606 63.8065L77.0674 63.8038ZM77.9072 53.7963C77.8532 53.7271 77.7844 53.6707 77.7059 53.6314C77.6275 53.592 77.5412 53.5706 77.4534 53.5687C77.3036 53.5689 77.16 53.6283 77.0538 53.734C77.0229 53.7652 76.996 53.8003 76.9739 53.8383C76.8397 53.7498 76.6994 53.671 76.554 53.6026C76.3731 53.5197 76.1871 53.4482 75.9973 53.3886C75.6952 53.2924 75.3918 53.2043 75.0843 53.1258C74.8689 53.0702 74.6549 53.0174 74.4368 52.9727C73.9652 52.8837 73.4883 52.8262 73.0091 52.8007C72.6569 52.779 72.3034 52.7695 71.9498 52.7695C71.6681 52.7695 71.3863 52.7749 71.1046 52.7858L68.9373 52.8671C68.7178 52.8752 68.497 52.9009 68.2776 52.9172L66.9135 53.0201L66.2796 53.0729C66.2796 52.9578 66.2904 52.8413 66.2972 52.7248H66.308C66.3682 52.7407 66.4322 52.7325 66.4863 52.7019C66.5405 52.6712 66.5805 52.6207 66.5979 52.5609C66.6133 52.5043 66.6071 52.4439 66.5803 52.3916L66.9934 52.374C67.5732 52.355 68.1543 52.3306 68.7354 52.3374C69.3165 52.3442 69.8733 52.3577 70.4422 52.3862C71.0111 52.4146 71.6139 52.4498 72.2031 52.4945C73.0159 52.5541 73.8137 52.653 74.6156 52.7655C75.1913 52.8481 75.7656 52.9361 76.3427 53.0147C76.6391 53.0456 76.9336 53.0935 77.2245 53.1583C77.4618 53.2167 77.6956 53.2886 77.9248 53.3737C77.914 53.5145 77.9113 53.6608 77.9072 53.7963ZM78.3718 68.1547L78.0738 68.3538C78.0955 68.0477 78.109 67.7416 78.128 67.4354C78.1646 66.8299 78.1795 66.2231 78.193 65.6176C78.2215 64.3673 78.2743 63.1144 78.2215 61.8654C78.2133 61.6799 78.2025 61.4929 78.193 61.3074C78.2419 61.3477 78.2961 61.381 78.3542 61.4062C78.3827 62.2664 78.403 63.1279 78.4368 63.988C78.4572 64.515 78.4761 65.0406 78.4897 65.5688C78.5019 66.0714 78.5127 66.5739 78.5303 67.0765C78.5411 67.3907 78.552 67.7036 78.575 68.0165L78.3718 68.1547Z" fill="#162B43"/>
</g>
<defs>
<clipPath id="clip0_222_3767">
<rect width="80" height="80" fill="white"/>
</clipPath>
</defs>
</svg>
