<svg width="367" height="288" viewBox="0 0 367 288" fill="none" xmlns="http://www.w3.org/2000/svg">
<g clip-path="url(#clip0_222_3847)">
<path d="M271.541 13.8202C270.19 12.9411 268.636 12.8739 267.083 12.8739L262.354 12.731C256.341 12.5966 250.397 12.6638 244.384 12.6638C221.552 12.5966 198.65 12.8067 175.819 14.016C158.593 14.6993 141.231 14.9023 123.94 15.4383C104.619 15.9115 85.2985 17.6697 65.9108 17.9399C62.3982 17.4667 59.0884 19.3607 58.2102 22.6742C57.5204 23.4689 57.0364 24.4211 56.8009 25.4471C56.5653 26.4732 56.5854 27.5414 56.8594 28.5578C57.8047 34.1713 59.6966 39.446 61.3844 44.8536C62.7366 49.1819 63.749 53.6447 65.0326 58.0402C68.5381 69.1399 72.3276 80.1639 76.1058 91.2535C77.9977 97.4088 79.8882 103.69 82.1857 109.784C84.4832 115.877 86.5093 123.242 89.2109 129.796C89.8862 131.42 90.4959 133.042 91.1028 134.597L91.5083 135.741C91.5771 137.404 92.2813 138.977 93.4755 140.135C94.6697 141.293 96.2627 141.947 97.9252 141.963C108.868 141.693 119.813 141.963 130.756 141.82L147.374 141.077C148.682 142.427 149.858 143.899 150.887 145.473L152.981 148.855C153.252 149.313 153.686 149.651 154.196 149.801H154.738C155.085 149.999 155.481 150.093 155.88 150.071C164.864 150.68 173.917 150.071 182.901 149.868C188.041 149.868 193.169 150.477 198.303 150.613C199.721 150.613 201.276 150.816 202.357 149.665L202.56 149.462H202.627C203.769 148.719 203.769 147.096 204.248 145.946C204.726 144.795 205.329 142.902 205.801 141.686L215.868 141.82C222.96 141.963 230.121 142.023 237.215 141.213L242.145 140.671C243.901 140.401 246 140.468 247.414 139.116C248.255 138.5 248.926 137.681 249.363 136.734C249.8 135.788 249.99 134.745 249.914 133.705C250.251 132.562 250.454 131.338 250.792 130.256C252.009 125.387 252.887 120.519 253.899 115.649C255.927 105.166 259.04 94.9544 261.263 84.5408C263.155 76.0199 264.573 67.3631 266.195 58.7064C267.817 50.0496 269.907 40.245 271.936 31.0465C272.409 28.9509 272.814 26.7867 273.221 24.6897C273.288 24.1494 273.424 23.6076 273.491 23.0673C274.281 21.9894 274.707 20.6875 274.708 19.3507C274.694 18.232 274.395 17.1353 273.84 16.1646C273.284 15.194 272.49 14.3816 271.532 13.8045L271.541 13.8202ZM153.053 141.569L152.513 140.893L155.89 140.757C154.895 140.811 153.926 141.089 153.053 141.569ZM246.411 66.4354C244.25 79.8923 242.021 93.3505 239.115 106.673C238.103 111.745 237.089 116.822 236.008 121.825L223.034 122.504C210.612 122.842 198.175 122.707 185.745 123.18L158.322 123.791C141.298 123.858 124.208 123.791 107.252 125.21C106.171 120.95 104.888 116.689 103.54 112.497C100.161 102.348 98.068 91.8696 94.5554 81.7934C92.9333 76.6474 91.5154 71.4471 89.8934 66.3068C88.2713 61.1665 86.4479 56.3649 84.8273 51.3604C83.2066 46.3559 81.5817 42.2248 79.9611 37.6934C95.5649 36.5499 111.17 36.1382 126.707 35.7994C139.475 35.5293 152.242 34.9203 165.01 34.6559C179.196 34.2499 193.382 33.438 207.56 32.4917C219.45 31.7469 231.34 30.8006 243.229 30.5977H253.565C251.335 42.5679 248.836 54.5381 246.404 66.5083L246.411 66.4354Z" fill="#DBF122"/>
<path d="M255.059 29.3754H254.99C254.796 29.0209 254.518 28.7191 254.181 28.4963C253.37 28.0217 252.289 28.2933 251.343 28.2247C247.965 28.1575 244.588 28.2933 241.206 28.3676C237.823 28.4419 235.87 28.6378 233.167 28.8408C230.464 29.0437 226.547 28.9766 223.171 29.2467C215.404 29.8557 207.702 30.7348 199.934 31.3437C184.87 32.4873 169.873 33.1691 154.813 33.9167C149.816 34.0525 144.818 34.5257 139.748 34.5943C129.143 34.7287 118.472 35.0675 107.863 35.6078C102.122 35.675 96.4474 35.8779 90.773 36.2839C88.2728 36.3525 85.7754 36.5555 83.3409 36.8257L80.9135 37.0958C80.2381 37.2316 79.4956 37.163 79.023 37.6362C78.7472 37.834 78.5274 38.1002 78.3852 38.4087C78.243 38.7172 78.1833 39.0573 78.212 39.3958C78.1365 39.886 78.2318 40.3872 78.4818 40.8153C80.5765 45.2794 82.1943 50.2825 83.8863 56.1661C84.7645 58.9393 85.981 61.5766 86.8592 64.2826C87.7373 66.9885 89.0196 71.3826 90.3032 74.8991C91.5869 78.4155 92.9377 81.6618 94.0157 85.1111C95.0938 88.5603 95.772 92.2126 96.9886 95.6619C98.2051 99.1111 99.623 102.898 100.637 106.617C101.651 110.337 102.393 113.65 103.744 117.099L106.171 123.592L106.374 124.132C106.411 124.344 106.48 124.549 106.577 124.741L106.847 125.147C107.077 125.472 107.407 125.712 107.786 125.832C108.165 125.952 108.572 125.945 108.947 125.812H109.083C111.187 126.069 113.308 126.158 115.427 126.078C119.75 126.416 124.073 126.348 128.396 126.416H140.42C145.96 126.191 151.5 126.055 157.039 126.011C163.119 126.281 169.266 126.214 175.346 126.145C181.426 126.076 187.709 126.214 193.923 125.942L202.434 125.74C205.204 125.537 207.906 125.334 210.676 125.402C213.446 125.469 217.162 124.996 220.404 125.063C223.647 125.13 228.375 124.793 232.361 124.861C233.442 124.793 234.59 124.996 235.603 124.59C235.861 124.518 236.096 124.381 236.285 124.191C236.475 124.001 236.612 123.766 236.683 123.508C237.63 122.967 237.833 121.546 238.036 120.397C238.238 119.248 238.914 116.204 239.454 114.107C242.024 105.452 243.166 96.3895 244.451 87.4625C245.736 78.5356 247.829 69.4057 249.383 60.3444C250.058 56.219 250.734 52.0936 251.679 48.0354C252.624 43.9772 254.449 38.0293 255.327 32.8832C255.394 31.7397 256.003 30.3102 255.057 29.2982L255.059 29.3754Z" fill="#007EEF"/>
<path d="M249.519 165.036C249.193 164.709 248.802 164.456 248.371 164.293C247.94 164.129 247.48 164.06 247.02 164.089C245.939 163.751 244.722 163.886 243.574 163.751L233.509 163.549C226.957 163.346 220.404 163.751 213.783 163.751C203.38 163.751 193.045 163.549 182.641 163.481C173.387 163.278 164.132 163.616 154.94 163.819C144.131 164.089 133.391 164.428 122.583 165.106C116.029 165.512 109.343 165.579 102.79 166.119L98.3979 166.262C97.6404 166.236 96.8847 166.351 96.169 166.601C95.5277 166.853 94.9834 167.304 94.6155 167.887H94.5483C91.2385 171.946 89.3466 176.883 86.7793 181.346C84.212 185.809 81.4433 191.219 78.5376 196.021C78.356 196.276 78.1978 196.548 78.0649 196.832C80.6351 195.277 83.4695 194.059 86.3067 194.059C87.018 194.076 87.6955 194.367 88.1986 194.871C88.7016 195.375 88.9915 196.053 89.0082 196.765C89.0767 199.74 87.3204 202.107 86.5094 204.813C85.6984 207.519 85.5642 209.073 84.9559 211.17C84.6416 212.393 84.2349 213.591 83.7393 214.753H84.7531C90.893 213.874 97.1157 213.401 103.397 213.131C123.056 211.71 142.849 211.987 162.511 211.845C171.495 211.702 180.412 211.702 189.396 211.702C189.802 210.485 190.41 209.336 190.816 208.118C191.828 205.413 192.909 202.843 194.058 200.137C195.208 197.431 195.815 193.375 196.693 189.858C197.571 186.342 200.07 183.231 200.611 179.512C200.814 178.294 202.165 177.618 203.245 177.551C212.702 176.739 222.7 175.386 231.753 172.14C236.464 170.578 241.3 169.424 246.209 168.691C247.898 168.421 249.857 168.015 251.816 167.812L249.519 165.036Z" fill="#DBF122"/>
<path d="M194.058 200.134C194.193 199.73 194.395 199.255 194.531 198.782H181.155C181.091 195.492 181.618 192.216 182.71 189.112L196.896 188.842C197.32 187.663 197.817 186.511 198.382 185.393H195.274C195.387 184.974 195.436 184.54 195.416 184.106C195.416 182.962 195.483 181.739 195.483 180.59C195.483 179.44 195.686 178.561 195.626 177.613L202.449 177.479L203.26 177.343C212.177 176.531 221.566 175.315 230.145 172.475L227.444 172.745C215.148 173.758 202.854 174.233 190.56 174.233C174.819 173.961 159.147 173.894 143.407 174.503C130.369 175.043 117.264 174.976 104.226 175.922L99.086 176.6C98.8616 176.59 98.6375 176.627 98.4281 176.709C98.2187 176.79 98.0284 176.914 97.8695 177.073C97.6542 177.321 97.5124 177.623 97.4602 177.947C97.408 178.271 97.4475 178.603 97.5741 178.906C97.7007 179.208 97.9095 179.47 98.1767 179.66C98.4439 179.849 98.7589 179.961 99.086 179.981C100.774 179.71 102.532 179.508 104.288 179.372C103.611 181.333 102.868 183.363 102.26 185.324C101.652 187.285 101.248 187.352 101.72 188.366H98.8761C97.7952 188.509 96.7143 188.231 95.7005 188.569C94.6867 188.906 94.5582 191.815 96.3759 191.815L109.617 191.342C108.603 193.845 107.59 196.345 106.644 198.849C106.374 199.729 105.766 200.608 105.766 201.554L96.8486 202.23L89.2808 202.973C88.8552 202.988 88.4494 203.157 88.1385 203.448C87.8975 203.68 87.7307 203.978 87.6593 204.305C87.5879 204.632 87.6151 204.973 87.7375 205.284C87.8598 205.596 88.0719 205.864 88.3466 206.055C88.6214 206.245 88.9465 206.35 89.2808 206.355C117.586 203.515 146.227 202.772 174.668 202.094L193.177 201.96L194.056 199.863L194.058 200.134ZM176.353 185.19C176.353 183.837 176.421 182.485 176.421 181.131C176.421 179.778 176.488 179.103 176.555 178.157C176.521 178 176.521 177.838 176.555 177.682L192.228 177.825C192.094 179.922 192.094 182.018 192.025 184.182C191.968 184.682 192.016 185.189 192.168 185.67L176.36 186.009L176.353 185.19ZM152.574 185.596L152.98 182.349C153.115 181.063 153.183 179.776 153.25 178.49C153.25 178.287 153.318 178.017 153.318 177.814L163.248 177.671H173.179C173.036 179.768 173.036 181.865 172.976 183.96C173.021 184.682 172.999 185.407 172.909 186.124L153.385 186.666H152.372L152.574 185.651V185.596ZM133.659 183.837C133.998 182.01 134.673 180.185 134.876 178.36L149.94 177.885C149.806 181.267 149.4 183.431 149.129 186.204C149.137 186.393 149.185 186.577 149.272 186.745L132.721 187.354C133.261 186.272 133.328 184.987 133.665 183.837H133.659ZM105.958 188.367H104.816C104.816 188.3 104.816 188.3 104.883 188.233L107.114 181.47C107.424 180.718 107.694 179.951 107.923 179.17C114.273 178.764 120.624 178.764 126.974 178.563L131.432 178.36C131.026 180.321 130.554 182.282 130.081 184.243C130.014 185.054 129.473 185.933 129.608 186.745C129.599 186.855 129.612 186.966 129.647 187.071C129.681 187.176 129.737 187.274 129.811 187.357L105.966 188.303L105.958 188.367ZM135.017 197.836C134.874 198.648 134.746 199.458 134.679 200.266C126.234 200.605 117.723 201.009 109.278 201.553C109.481 201.079 109.617 200.606 109.819 200.2C110.833 197.563 111.846 194.993 112.926 192.423C113.117 192.141 113.233 191.815 113.265 191.476L136.571 190.597C135.962 192.967 135.49 195.406 135.017 197.836ZM177.778 197.227C177.788 197.814 177.765 198.401 177.711 198.985C166.159 199.128 154.608 199.458 142.988 199.864L138.057 200.067C138.191 199.255 138.327 198.445 138.53 197.637C138.8 195.54 139.672 192.7 139.815 190.739V190.469C149.136 190.131 158.527 189.792 167.848 189.589L179.129 189.319C178.374 191.894 177.921 194.548 177.778 197.227Z" fill="#162B43"/>
<path d="M178.723 138.458C177.508 137.985 176.153 138.255 174.941 138.119C169.672 137.849 164.47 137.985 159.2 138.188C156.308 138.219 153.421 138.422 150.554 138.795C149.54 139.067 148.392 138.864 147.514 139.473C147.197 139.71 146.973 140.051 146.881 140.437C146.79 140.823 146.837 141.228 147.014 141.583C147.191 141.937 147.487 142.218 147.85 142.376C148.214 142.534 148.621 142.56 149 142.448C154.269 141.501 162.308 141.434 169.063 141.304L174.671 141.507C175.956 141.44 177.305 141.844 178.526 141.507C178.804 141.371 179.04 141.164 179.213 140.907C179.385 140.65 179.487 140.352 179.508 140.043C179.527 139.736 179.465 139.429 179.328 139.153C179.191 138.877 178.985 138.642 178.729 138.471L178.723 138.458Z" fill="#162B43"/>
<path d="M366.859 189.044C366.792 188.638 366.926 188.096 366.716 187.69C366.506 187.284 366.649 186.879 366.649 186.473C366.649 186.067 366.716 184.647 366.041 183.97C365.738 183.671 365.333 183.497 364.908 183.483C364.483 183.469 364.068 183.616 363.746 183.895C363.534 184.08 363.37 184.315 363.271 184.579C363.144 184.687 363.051 184.827 363.001 184.985C359.555 190.53 355.976 196.753 352.863 202.5C349.75 208.248 347.188 213.457 345.702 217.311C344.485 219.884 343.068 222.314 341.847 224.887C340.626 227.46 339.753 229.959 339.212 231.109C337.118 235.166 335.227 239.292 333.132 243.35C331.038 247.408 329.147 251.195 327.525 255.251L327.121 256.199C326.974 256.429 326.89 256.694 326.878 256.967C326.867 257.24 326.927 257.511 327.052 257.754C326.241 258.898 325.499 260.122 324.756 261.338C324.633 260.887 324.343 260.5 323.945 260.256C321.942 259.107 319.866 258.09 317.73 257.213C315.16 256.334 312.597 255.657 310.029 254.914C307.213 254.012 304.318 253.378 301.382 253.02C299.419 252.908 297.45 252.998 295.505 253.29C292.871 253.562 290.033 253.832 287.669 255.184C287.494 255.311 287.346 255.472 287.234 255.658C287.121 255.843 287.048 256.049 287.016 256.263C286.985 256.477 286.996 256.696 287.051 256.906C287.105 257.115 287.2 257.312 287.332 257.484C286.661 257.872 286.084 258.403 285.643 259.039C285.509 259.264 285.428 259.516 285.408 259.777C285.378 260.171 285.486 260.563 285.714 260.885C285.942 261.207 286.275 261.439 286.656 261.541C288.778 261.889 290.923 262.07 293.073 262.083L297.667 262.556C301.923 262.893 305.166 263.569 309.624 264.178L319.892 266.14H320.5L323.81 267.087C324.36 267.255 324.948 267.255 325.499 267.087C326.151 266.79 326.711 266.322 327.121 265.734C328.539 263.841 329.62 261.608 330.976 259.647C332.333 257.686 333.404 255.048 334.76 252.817C336.117 250.586 336.178 249.91 336.921 248.489C338.046 246.723 339.067 244.892 339.978 243.007C341.735 240.032 342.815 237.665 344.37 234.689C345.925 231.713 347.138 228.738 348.76 225.826C350.383 222.914 350.111 222.716 350.922 221.093C351.733 219.471 353.084 216.698 354.096 214.465C355.109 212.232 355.853 211.49 356.667 210.002C357.48 208.514 359.237 205.471 360.522 203.171C361.807 200.871 363.021 198.641 364.304 196.408C365.588 194.175 365.993 193.636 366.669 192.216C367.344 190.795 366.805 190.051 366.872 188.969L366.859 189.044Z" fill="#007EEF"/>
<path d="M190.747 138.188L186.154 138.045C185.728 138.059 185.322 138.228 185.011 138.52C184.771 138.752 184.605 139.05 184.534 139.377C184.463 139.704 184.49 140.044 184.613 140.355C184.735 140.666 184.947 140.934 185.221 141.125C185.495 141.316 185.82 141.421 186.154 141.427H190.208C190.584 141.538 190.988 141.515 191.35 141.36C193.039 140.682 192.492 138.045 190.742 138.114L190.747 138.188Z" fill="#162B43"/>
<path d="M196.557 138.458C194.328 138.458 194.328 141.771 196.557 141.839C198.786 141.906 198.786 138.458 196.557 138.458Z" fill="#162B43"/>
<path d="M225.201 150.361C224.647 150.124 224.037 150.054 223.444 150.158L220.066 150.293C211.554 150.563 203.043 149.955 194.531 149.413C186.02 148.872 178.111 148.67 169.875 148.534C165.145 148.467 160.349 148.873 155.553 149.007C149.743 149.21 143.866 148.601 138.057 149.346C136.435 150.022 136.915 152.66 138.733 152.593C143.73 152.254 148.798 152.39 153.797 152.39C158.796 152.39 161.903 152.051 165.957 151.916C172.171 151.848 178.379 152.119 184.6 152.457C190.822 152.794 198.922 153.066 206.083 153.472C210.743 153.742 215.472 153.742 220.202 153.675L224.39 153.532C224.607 153.527 224.821 153.476 225.018 153.383C225.215 153.29 225.39 153.156 225.532 152.991C225.711 152.809 225.847 152.588 225.929 152.345C226.011 152.103 226.037 151.845 226.004 151.591C225.972 151.337 225.882 151.093 225.742 150.879C225.602 150.665 225.415 150.485 225.195 150.354L225.201 150.361Z" fill="#162B43"/>
<path d="M272.218 16.8678L271.946 16.7334L272.218 16.9364V16.8678Z" fill="#162B43"/>
<path d="M275.73 13.2795C275.48 11.2128 274.637 9.26288 273.303 7.66606C271.21 5.09305 267.697 4.55558 264.657 3.87945C260.536 2.86454 256.28 2.59294 252.092 2.32421C245.168 1.79642 238.221 1.64087 231.28 1.85821C226.213 1.65522 221.214 1.92539 216.215 2.05976C209.676 1.94411 203.135 2.16789 196.619 2.73017C190.405 2.86454 184.258 3.67647 178.042 4.14961C170.544 4.48839 162.978 5.29318 155.482 5.02873C151.227 4.96154 147.039 5.29889 142.782 5.50188H138.057C137.313 5.50188 136.571 5.29889 135.895 5.57049C135.22 5.84208 134.679 8.88396 136.505 8.81677C142.451 9.08694 148.395 8.34219 154.339 8.34219C162.378 8.68097 170.417 7.80186 178.456 7.3959C183.596 7.05712 188.724 6.3138 193.859 6.17801C198.993 6.04221 203.113 5.50187 207.709 5.36751C212.305 5.23314 217.847 5.50188 222.909 5.16453C227.971 4.82717 234.189 5.23171 239.865 5.09591C245.541 4.96011 249.727 5.50188 254.659 5.84065C258.306 6.02922 261.925 6.57259 265.467 7.46308C269.251 8.41081 270.263 8.54518 271.682 11.2511C271.885 11.6571 272.021 12.1974 272.222 12.7392C271.337 12.252 270.41 11.8444 269.453 11.5213C266.092 10.4547 262.627 9.75173 259.117 9.42429C255.74 9.22131 252.362 9.62727 248.916 9.3571C244.173 9.00741 239.412 8.96205 234.663 9.22131C230.951 9.28992 227.238 9.22131 223.517 9.4929C215.275 10.3034 206.967 10.4392 198.658 11.0481C191.97 11.3183 185.281 11.5213 178.595 12.1917C174.203 12.3493 169.826 12.7789 165.488 13.4782C163.395 14.0872 164.203 17.3377 166.435 16.7917C170.826 15.9126 175.145 15.8454 180.554 15.4394C188.524 14.5603 196.563 14.6961 204.542 14.0872C210.014 13.7484 215.552 13.6812 221.024 13.0722C226.496 12.4633 230.685 12.7335 235.548 12.5319C240.412 12.3304 246.424 12.5991 251.826 12.8021C254.461 12.8693 257.095 12.5991 259.729 12.8021C262.493 13.2213 265.224 13.8312 267.904 14.6275C269.387 15.0251 270.767 15.7406 271.946 16.7245L272.216 16.8589C272.824 17.3334 273.433 17.941 274.244 17.941C276.608 17.8066 276 14.8305 275.73 13.208V13.2795Z" fill="#162B43"/>
<path d="M228.914 244.024C225.62 243.237 222.209 243.054 218.849 243.484C215.125 243.787 211.425 244.329 207.77 245.107C203.043 246.459 198.583 248.353 193.92 249.841C191.892 250.044 189.732 250.247 187.502 250.584C184.192 250.99 180.077 251.728 175.613 252.411L171.492 253.154L170.006 253.425C169.818 253.173 169.563 252.98 169.271 252.865C168.979 252.75 168.661 252.72 168.352 252.776C168.044 252.832 167.757 252.973 167.524 253.183C167.291 253.394 167.121 253.665 167.033 253.966C166.583 255.468 166.267 257.007 166.088 258.565C166.021 259.377 165.818 260.323 166.493 260.932C167.169 261.541 169.398 261.135 170.748 260.863C173.072 260.155 175.442 259.613 177.842 259.241C179.598 258.835 181.288 258.159 183.044 257.954H183.449C190.61 257.008 196.757 255.926 204.66 255.524C207.903 255.321 211.213 255.051 214.523 255.051C217.833 255.051 219.59 255.051 222.091 254.645C224.591 254.239 225.603 254.502 228.035 253.224C229.087 252.6 230.005 251.774 230.738 250.794C231.478 250.066 232.094 249.221 232.561 248.293C233.98 245.72 230.872 244.576 228.913 244.099L228.914 244.024Z" fill="#007EEF"/>
<path d="M145.488 13.0079C145.332 12.8398 145.144 12.7051 144.935 12.612C144.726 12.5189 144.5 12.4692 144.271 12.4662L141.096 12.6091L136.571 12.7521C133.058 12.8864 129.544 13.4954 126.032 13.6312C119.749 13.7655 113.535 14.2387 107.252 14.5103C100.969 14.7819 96.1732 15.1178 90.5673 15.4566C86.5807 15.7267 82.5955 15.7267 78.6103 16.2685C73.4699 17.1476 67.3957 17.2148 61.2487 18.9058C61.4432 18.5317 61.6936 18.1895 61.9912 17.8909L63.0721 16.8088C67.0588 14.1715 70.3001 13.4282 75.3676 12.2775C78.339 11.7371 80.4337 11.67 84.0776 11.264C87.7216 10.858 91.7782 10.3163 95.6291 10.1204C101.573 9.7159 107.518 9.44431 113.463 8.90398L118.327 8.5652C118.774 8.55132 119.204 8.38433 119.543 8.09205C119.722 7.9034 119.858 7.67742 119.939 7.4303C120.021 7.18317 120.047 6.92101 120.016 6.6626C119.983 6.40366 119.893 6.15521 119.753 5.93501C119.613 5.71483 119.426 5.52876 119.205 5.39039C118.462 4.98442 117.651 5.25459 116.84 5.25459C113.598 5.52475 110.288 5.72774 107.045 6.06652C99.4116 6.47248 91.7111 6.80983 84.0776 7.89192C78.9373 8.36507 73.7412 8.77104 68.8108 10.4649C65.0983 11.6828 61.1088 13.2381 58.7442 16.5515C58.0017 17.6336 57.4592 18.8501 56.7852 20.0008C56.654 20.3227 56.5852 20.6666 56.5824 21.0143C56.4539 21.1978 56.3623 21.4047 56.3126 21.6232C56.2239 21.9489 56.2347 22.2938 56.3436 22.6133C56.4526 22.9328 56.6546 23.2123 56.9237 23.4158C57.1919 23.62 57.5153 23.7385 57.8518 23.756C58.1887 23.7739 58.5233 23.6908 58.8128 23.5173C62.7309 21.556 67.1887 21.0143 72.0535 20.5411C76.9183 20.068 79.4784 19.3976 83.7392 19.1889C89.6164 18.9859 95.4935 18.5127 101.371 18.174C109.545 17.9038 117.648 17.2277 125.824 17.0919C129.136 16.9575 132.377 16.4157 135.62 16.2128C138.862 16.0098 142.375 16.1456 144.942 15.7396C145.314 15.573 145.613 15.2781 145.785 14.9087C145.957 14.5394 145.99 14.1203 145.879 13.7284C145.809 13.4601 145.674 13.2129 145.488 13.0079Z" fill="#162B43"/>
<path d="M126.032 5.43213C123.803 5.43213 123.803 8.74703 126.032 8.81421C126.48 8.81421 126.909 8.63605 127.226 8.31891C127.543 8.00178 127.721 7.57166 127.721 7.12317C127.721 6.67468 127.543 6.24455 127.226 5.92742C126.909 5.61029 126.48 5.43213 126.032 5.43213Z" fill="#162B43"/>
<path d="M153.661 12.7378C151.432 12.7378 151.499 16.0513 153.661 16.1199C155.823 16.1885 155.89 12.7378 153.661 12.7378Z" fill="#162B43"/>
<path d="M300.318 205.681C298.292 199.595 296.266 193.439 294.238 188.638C292.211 183.836 290.253 178.427 286.471 174.369C282.877 170.219 277.816 167.626 272.352 167.133C271.43 167.065 270.504 167.065 269.582 167.133C268.704 166.99 267.826 167.065 267.012 166.93C259.852 165.787 252.623 165.984 245.531 166.727C238.438 167.47 231.615 169.906 224.792 171.73C221.054 172.719 217.265 173.51 213.443 174.097C209.929 174.908 204.121 175.384 201.554 174.841C198.986 174.298 198.852 176.329 198.581 178.426C198.268 180.742 197.678 183.013 196.824 185.189C195.406 189.584 193.447 193.709 191.961 198.038C190.537 202.61 188.869 207.102 186.963 211.495C185.274 215.89 183.991 219.205 182.437 222.787C181.308 225.117 180.315 227.51 179.466 229.956C178.249 233.54 177.507 236.246 176.02 238.819C174.284 241.814 172.247 244.624 169.94 247.204C168.994 248.219 167.913 249.232 167.035 250.314C166.156 251.396 165.55 252.276 166.225 253.358C166.9 254.44 168.521 254.237 169.738 254.373C170.954 254.508 172.845 254.373 174.398 254.23C180.696 253.407 186.928 252.144 193.049 250.45C199.129 248.422 205.073 245.919 211.423 245.107C215.477 244.363 223.921 243.62 227.906 244.499C229.165 244.696 230.406 244.989 231.619 245.378L232.227 245.649C231.483 247.137 230.808 248.692 230.132 250.314C229.93 250.856 229.524 251.396 229.66 252.005C229.71 252.31 229.841 252.594 230.041 252.829C230.241 253.064 230.501 253.239 230.793 253.336C231.085 253.434 231.398 253.45 231.699 253.382C231.999 253.314 232.275 253.165 232.497 252.952C233.375 251.665 233.24 251.262 234.186 249.435C235.133 247.608 236.415 244.837 237.632 242.605C239.459 239.307 241.585 236.183 243.981 233.272C246.143 230.905 248.237 228.471 250.601 226.307C251.479 225.563 251.345 224.481 250.939 223.466C250.534 222.451 250.467 221.641 250.264 220.762C249.726 218.425 249.365 216.051 249.183 213.66C249.059 211.725 249.036 209.784 249.115 207.845L249.25 207.702C249.4 207.458 249.479 207.177 249.479 206.89C249.479 206.604 249.4 206.323 249.25 206.079C249.723 199.789 251.412 193.974 254.586 190.119C256.006 188.563 255.938 188.563 257.626 187.617C258.529 186.99 259.574 186.597 260.666 186.474H260.809C261.055 186.441 261.305 186.441 261.551 186.474L262.43 186.677C263.834 187.051 265.086 187.855 266.011 188.977C267.092 190.329 269.118 196.009 270.334 200.001C271.199 203.369 272.664 206.553 274.658 209.401L276.346 211.632C276.684 211.969 276.887 212.444 277.359 212.578C278.98 213.39 280.535 211.09 279.183 209.874C277.869 208.2 276.673 206.438 275.603 204.599C275.364 204.142 275.16 203.667 274.995 203.178C273.577 199.462 272.568 195.536 271.077 191.817C270.401 190.126 269.792 188.368 268.649 186.948C261.961 178.968 252.372 184.648 249.059 192.696C248.235 194.549 247.58 196.473 247.1 198.444C246.53 198.268 245.985 198.018 245.479 197.701C243.249 196.348 243.317 196.483 242.709 194.793C241.424 190.329 245.479 184.644 250.68 180.32C253.804 177.447 257.304 175.012 261.083 173.084C263.708 171.615 266.604 170.695 269.595 170.379H269.866C275.877 169.973 281.282 172.747 285.403 178.224C288.443 182.214 289.388 184.918 290.941 189.315C292.67 193.356 294.181 197.487 295.468 201.69C298.238 210.483 302.29 218.462 301.278 226.916C301.077 228.561 300.668 230.175 300.061 231.717C299.116 234.084 295.535 239.968 293.103 243.281C289.929 247.746 287.159 252.478 284.322 257.213C283.916 258.092 283.037 258.904 283.308 259.917C283.392 260.244 283.572 260.538 283.825 260.762C284.077 260.986 284.391 261.128 284.725 261.172C285.06 261.216 285.399 261.158 285.701 261.007C286.002 260.856 286.251 260.618 286.417 260.323C289.185 255.455 292.158 250.653 295.332 245.986C298.506 241.319 302.02 236.654 303.845 231.244C306.415 222.587 303.304 213.728 300.331 205.545L300.318 205.681ZM247.695 224.55L247.425 224.82C245.601 226.647 243.844 228.472 242.155 230.366C241.64 229.565 241.231 228.7 240.94 227.793C240.062 225.02 239.724 222.113 239.115 219.272C238.507 216.432 238.034 213.929 237.63 211.225C240.389 211.279 243.128 210.749 245.668 209.669C245.678 212.338 245.859 215.003 246.209 217.648C246.542 219.981 247.038 222.286 247.695 224.548V224.55ZM241.555 185.596C240.27 187.829 239.191 190.196 239.055 192.765C238.92 195.333 239.664 197.499 241.353 199.054C242.579 200.163 243.998 201.035 245.541 201.627L246.352 201.897C246.149 203.25 245.946 204.603 245.878 205.956C244.148 206.743 242.336 207.333 240.475 207.714C236.488 208.051 235.137 207.714 234.123 205.956C232.367 202.845 231.553 196.082 232.233 192.7C232.705 190.536 232.773 190.469 233.989 188.508C235.206 186.547 235.678 185.802 237.232 184.315C238.785 182.829 242.298 181.272 244.865 181.136H245C243.702 182.502 242.546 183.996 241.548 185.594L241.555 185.596ZM253.714 173.694L248.783 177.617C244.797 177.684 240.475 177.887 237.029 180.118C236.263 180.646 235.54 181.234 234.867 181.876C231.286 181.876 227.706 181.876 224.127 182.148C221.21 182.486 218.321 183.028 215.48 183.771L206.77 185.799C205.689 186.138 204.269 186.071 203.594 187.085C203.42 187.375 203.337 187.71 203.355 188.047C203.373 188.384 203.491 188.708 203.695 188.977C203.898 189.247 204.177 189.449 204.497 189.558C204.816 189.666 205.16 189.677 205.486 189.588C211.296 188.236 217.105 186.679 223.049 185.666C223.724 185.463 229.399 185.26 232.033 185.26L230.614 187.491C229.512 189.367 228.865 191.474 228.723 193.645C228.127 193.496 227.51 193.451 226.898 193.511C223.072 193.52 219.252 193.837 215.475 194.457C211.641 194.834 207.858 195.628 204.195 196.824L202.033 197.636C201.291 197.974 200.413 198.244 200.21 199.123C200.121 199.449 200.131 199.793 200.239 200.113C200.348 200.433 200.55 200.713 200.819 200.917C201.088 201.121 201.411 201.239 201.748 201.257C202.085 201.275 202.42 201.191 202.709 201.017C207.776 198.65 216.355 197.5 222.569 197.027C224.124 196.884 225.677 196.884 227.298 196.884C227.749 196.93 228.205 196.907 228.649 196.817C229.054 201.28 229.73 208.246 234.121 210.41C234.662 214.468 235.54 218.526 236.351 222.583C237.162 226.64 237.363 229.076 239.12 231.849L239.931 233.065H239.863C237.609 236.116 235.578 239.325 233.784 242.668C225.947 239.085 213.65 240.977 205.681 242.668C200.818 243.812 196.223 245.847 191.496 247.267C187.983 248.282 184.469 248.958 180.889 249.697C177.31 250.436 174.749 250.913 171.027 250.913C171.905 249.967 172.783 249.088 173.597 248.073C176.569 244.286 179.474 240.431 181.022 235.833C181.9 233.402 182.576 230.829 183.592 228.399C183.735 227.993 185.754 223.598 186.498 221.704C188.457 217.172 190.078 212.507 192.037 207.981C193.996 203.455 194.607 200.548 195.955 196.89C198.252 190.743 201.224 184.717 202.035 178.226C203.048 178.293 204.129 178.429 205.21 178.429C208.843 178.226 212.456 177.751 216.018 177.008C220.767 176.23 225.46 175.146 230.07 173.761C234.19 172.618 238.243 171.26 242.432 170.515C246.548 169.921 250.697 169.582 254.855 169.502C256.814 169.502 258.773 169.502 260.732 169.636C258.295 170.816 255.947 172.172 253.707 173.693L253.714 173.694Z" fill="#162B43"/>
<path d="M282.822 254.574C280.593 252.681 277.89 251.464 275.323 250.246C271.152 248.256 266.63 247.108 262.015 246.866C255.193 246.799 248.235 246.055 241.48 247.204C239.363 247.615 237.284 248.203 235.265 248.963C233.732 249.305 232.238 249.804 230.806 250.45C226.618 251.938 223.578 255.32 221.078 258.904C220.268 260.19 219.39 261.61 218.651 263.096C217.435 265.112 216.417 267.24 215.609 269.452C213.786 274.32 210.469 284.532 218.379 285.276C220.95 285.006 223.445 284.261 226.013 283.856H226.755C236.686 282.774 251.683 282.638 257.83 283.788C260.096 284.276 262.311 284.98 264.443 285.89C266.603 286.77 268.698 287.852 270.995 287.987C275.25 288.258 276.197 285.214 277.548 281.968C279.71 277.031 282.141 272.162 283.83 267.022C284.973 263.032 286.194 257.96 282.817 254.647L282.822 254.574Z" fill="#DBF122"/>
<path d="M321.129 170.248C320.994 168.827 320.994 167.339 320.86 165.919C320.725 164.5 319.846 160.982 317.076 161.051C314.306 161.119 313.429 162.194 311.74 163.079C308.106 165.152 304.362 167.026 300.525 168.693C295.797 170.991 291.135 173.426 286.339 175.658C281.543 177.891 276.139 180.73 271.072 183.367L267.898 184.923L266.749 185.396L267.424 186.005H267.493L268.101 186.614L268.708 187.426C268.972 187.736 269.199 188.076 269.383 188.439C269.526 188.582 269.586 188.709 269.722 188.778C269.857 188.846 270.261 189.994 270.533 190.536C270.879 191.148 271.129 191.809 271.275 192.497C271.58 193.122 272.112 193.606 272.762 193.85C273.775 194.39 274.99 193.992 276.071 193.647C277.152 193.301 279.45 192.36 281.069 191.685C284.851 190.13 288.972 188.033 290.931 187.29C298.159 184.382 305.32 181.203 312.349 177.823C314.173 176.875 316.132 176.063 318.024 175.184C319.916 174.305 320.658 173.832 321.131 172.412C321.266 171.697 321.266 170.963 321.129 170.248Z" fill="#4ADEFF"/>
<path d="M246.142 204.53C246.208 202.858 246.48 201.199 246.951 199.593C247.338 198.063 247.858 196.569 248.506 195.13C248.61 194.981 248.701 194.823 248.776 194.657C248.25 194.632 247.73 194.774 247.29 195.063C241.412 197.768 235.738 200.947 229.997 203.926C225.807 206.293 221.416 208.254 217.431 211.027C216.903 211.319 216.488 211.779 216.252 212.334C216.016 212.89 215.971 213.508 216.127 214.092C216.282 214.675 216.628 215.189 217.109 215.553C217.59 215.917 218.179 216.109 218.782 216.099C221.702 215.748 224.55 214.95 227.227 213.732C231.956 211.906 233.643 211.027 237.697 209.403C241.751 207.78 241.277 207.714 244.722 206.429L246.209 205.82C246.153 205.392 246.13 204.961 246.142 204.53Z" fill="#4ADEFF"/>
<path d="M312.005 177.006C311.196 176.058 311.6 176.735 310.863 175.924L310.458 175.248C310.125 174.729 309.832 174.186 309.579 173.624C308.437 170.851 308.904 169.765 308.437 166.794C307.829 165.103 305.127 165.651 305.194 167.403C305.261 169.156 305.397 172.745 306.545 175.179C307.693 177.614 309.449 180.793 311.543 179.17C311.868 178.927 312.095 178.574 312.182 178.177C312.269 177.779 312.21 177.363 312.015 177.006H312.005Z" fill="#007EEF"/>
<path d="M215.539 213.39C213.31 213.457 213.31 216.772 215.539 216.772C217.768 216.772 217.701 213.457 215.539 213.39Z" fill="#007EEF"/>
<path d="M363.549 179.576C353.554 181.267 342.405 178.433 331.19 176.33C327.611 175.451 324.098 174.369 320.517 173.829L318.963 174.708L318.491 174.978C318.404 175.26 318.396 175.56 318.468 175.846C318.539 176.132 318.688 176.392 318.896 176.6C319.391 176.959 319.976 177.17 320.585 177.209L324.504 178.088C327.88 178.967 331.259 179.847 334.703 180.456C343.08 182.214 354.293 184.108 362.062 183.229C358.026 188.959 354.327 194.921 350.984 201.083C346.863 209.468 343.012 218.057 338.959 226.442C337.406 229.419 336.055 232.462 334.569 235.437C333.082 238.411 331.46 241.186 330.042 244.229C327.948 249.301 326.597 252.547 324.368 257.349C323.237 256.724 322.063 256.182 320.855 255.725C318.018 254.581 315.248 253.493 312.344 252.614C308.118 251.223 303.686 250.56 299.239 250.653C296.328 250.822 293.436 251.229 290.591 251.871C289.578 252.208 288.091 252.074 287.484 253.157C287.311 253.447 287.228 253.781 287.247 254.118C287.265 254.455 287.383 254.778 287.586 255.047C287.789 255.316 288.068 255.518 288.387 255.627C288.706 255.736 289.05 255.747 289.375 255.659C294.644 254.307 298.228 253.765 303.966 254.171C307.845 254.788 311.648 255.808 315.315 257.214C317.485 257.934 319.606 258.794 321.665 259.787C323.827 260.869 325.449 262.83 327.002 259.651C328.556 256.472 329.43 254.444 330.582 251.739C331.734 249.035 332.271 247.277 333.622 244.504C338.148 235.983 342.475 227.259 346.39 218.466C348.755 213.53 351.119 208.66 353.415 203.791C354.969 200.614 356.928 197.638 358.684 194.594C360.23 191.868 361.921 189.226 363.752 186.682C364.833 185.058 366.25 183.503 366.792 181.609C367.333 179.715 365.108 179.11 363.549 179.576Z" fill="#162B43"/>
<path d="M316.396 167.606C316.475 167.484 316.523 167.345 316.539 167.2C317.281 165.578 317.484 165.914 318.431 164.36C318.578 164.004 318.599 163.609 318.491 163.239C318.384 162.87 318.153 162.548 317.838 162.327C317.523 162.107 317.142 162 316.758 162.026C316.375 162.051 316.011 162.207 315.728 162.467C313.837 164.496 312.485 167.2 312.891 169.973C313.093 171.597 313.971 174.775 316.2 173.963C316.554 173.809 316.844 173.539 317.023 173.197C317.203 172.856 317.26 172.463 317.186 172.085C317.136 171.834 317.03 171.598 316.877 171.394C316.762 171.252 316.67 171.091 316.606 170.92C316.241 170.02 316.125 169.039 316.269 168.079C316.329 167.945 316.329 167.742 316.396 167.606Z" fill="white"/>
<path d="M339.905 191.005C339.821 190.678 339.641 190.384 339.389 190.16C339.136 189.936 338.823 189.793 338.488 189.75C338.154 189.706 337.814 189.763 337.513 189.915C337.212 190.066 336.962 190.304 336.798 190.599C332.879 196.617 328.42 202.366 325.449 208.926C324.368 211.427 323.354 214.072 322.679 215.486C322.003 216.899 321.536 217.514 321.261 218.665C320.985 219.815 323.49 221.302 324.368 219.747C326.327 215.887 327.339 212.781 328.826 209.741C331.349 204.768 334.287 200.017 337.609 195.539C338.301 194.611 338.932 193.64 339.499 192.63C339.682 192.406 339.813 192.145 339.883 191.864C339.953 191.584 339.961 191.291 339.905 191.008V191.005Z" fill="white"/>
<path d="M291.739 176.263C290.861 176.33 290.117 176.939 289.312 177.276L285.934 178.831C284.177 179.643 282.488 180.455 280.868 181.334C279.247 182.214 279.381 181.943 278.909 182.551C278.674 182.86 278.553 183.24 278.566 183.627C278.578 184.015 278.723 184.386 278.976 184.679C279.229 184.973 279.576 185.17 279.957 185.238C280.338 185.306 280.731 185.241 281.07 185.054C284.853 182.957 288.771 181.267 292.622 179.373C292.926 179.177 293.159 178.889 293.288 178.55C293.416 178.212 293.432 177.841 293.333 177.492C293.235 177.144 293.027 176.836 292.741 176.615C292.455 176.394 292.105 176.27 291.744 176.263H291.739Z" fill="white"/>
<path d="M296.671 174.03C294.441 174.097 294.441 177.41 296.671 177.41C298.902 177.41 298.9 174.097 296.671 174.03Z" fill="white"/>
<path d="M331.393 188.232C325.043 187.217 318.828 185.188 312.411 184.579C309.942 184.298 307.449 184.321 304.986 184.648C303.905 184.851 302.558 184.579 301.607 185.391C301.385 185.631 301.238 185.93 301.182 186.253C301.126 186.575 301.165 186.906 301.294 187.207C301.423 187.508 301.636 187.764 301.907 187.946C302.179 188.128 302.497 188.227 302.824 188.232C310.525 187.088 315.929 188.232 323.224 190.057L329.642 191.343C330.385 191.486 331.129 191.749 331.804 191.343C332.072 191.16 332.284 190.906 332.417 190.61C332.55 190.313 332.598 189.986 332.557 189.664C332.514 189.342 332.384 189.038 332.179 188.785C331.975 188.533 331.705 188.342 331.399 188.234L331.393 188.232Z" fill="#162B43"/>
<path d="M343.89 191.275C342.405 191.005 340.918 190.735 339.432 190.329C337.945 189.923 337.878 189.787 337.067 189.854C335.244 189.99 335.108 192.696 336.865 193.169C338.438 193.632 340.041 193.994 341.661 194.251C342.539 194.386 343.486 194.859 344.295 194.386C344.563 194.202 344.776 193.949 344.908 193.652C345.041 193.355 345.089 193.028 345.047 192.706C345.005 192.383 344.875 192.079 344.67 191.827C344.466 191.574 344.196 191.383 343.89 191.275Z" fill="#162B43"/>
<path d="M336.865 200.608C329.11 197.562 320.972 195.604 312.681 194.791C309.809 194.465 306.911 194.443 304.035 194.724C302.549 194.994 300.859 194.927 299.509 195.671C298.158 196.414 299.239 199.12 300.995 198.647C305.589 197.429 312.418 197.902 316.87 198.714C321.567 199.419 326.199 200.504 330.721 201.96L335.044 203.515C335.584 203.658 336.125 204.057 336.665 203.921C337.055 203.872 337.415 203.687 337.683 203.4C337.952 203.113 338.112 202.741 338.136 202.349C338.16 201.956 338.046 201.567 337.815 201.25C337.583 200.932 337.248 200.705 336.868 200.608H336.865Z" fill="#162B43"/>
<path d="M329.434 213.593C326.057 210.212 309.574 207.776 304.71 208.59C303.021 209.199 303.561 211.836 305.386 211.836C310.09 211.759 314.786 212.259 319.369 213.324C321.634 213.759 323.851 214.416 325.988 215.285C326.8 215.623 327.542 216.299 328.416 216.029C328.658 215.958 328.882 215.834 329.07 215.666C329.258 215.498 329.406 215.289 329.503 215.056C329.601 214.823 329.645 214.571 329.632 214.319C329.619 214.067 329.55 213.821 329.43 213.598L329.434 213.593Z" fill="#162B43"/>
<path d="M315.451 230.499C313.37 229.646 311.192 229.055 308.966 228.741C308.223 228.672 307.412 228.335 306.669 228.741C306.375 228.905 306.138 229.154 305.987 229.455C305.874 229.681 305.813 229.929 305.808 230.181C305.803 230.433 305.855 230.683 305.959 230.913C306.063 231.143 306.218 231.346 306.411 231.508C306.604 231.67 306.831 231.787 307.075 231.85C309.647 232.145 312.169 232.782 314.573 233.744C316.735 234.354 317.613 231.175 315.451 230.499Z" fill="#162B43"/>
<path d="M229.317 220.22C225.399 220.22 221.549 219.95 217.631 220.017C212.294 220.287 207.025 220.829 201.756 221.161L195.068 221.702C194.257 221.77 193.379 221.635 192.772 222.311C192.608 222.487 192.484 222.696 192.407 222.925C192.331 223.153 192.304 223.394 192.328 223.634C192.352 223.873 192.427 224.104 192.548 224.312C192.668 224.52 192.832 224.7 193.028 224.84C193.29 225.026 193.599 225.134 193.92 225.152C201.756 224.61 209.592 223.865 217.429 223.393C221.414 223.325 225.399 223.596 229.317 223.596C231.55 223.602 231.55 220.287 229.317 220.22Z" fill="#162B43"/>
<path d="M102.522 214.403C101.712 213.39 99.8871 212.848 98.7391 212.172C95.4964 210.55 92.1194 208.926 88.4712 208.723C89.7563 204.057 90.3617 199.256 91.7139 194.657C92.118 193.102 92.5235 191.141 90.3617 190.94C89.4165 191.075 88.4712 191.481 87.5245 191.684C81.8299 192.751 76.2609 194.405 70.9069 196.621C67.5784 197.853 64.5418 199.764 61.9898 202.233C60.484 203.939 59.1282 205.772 57.9375 207.712C56.978 208.944 56.1635 210.283 55.5101 211.702C54.8069 211.788 54.1348 212.043 53.5511 212.445L48.8234 214.609L48.6877 214.752C40.5146 215.09 31.9344 216.24 25.3148 221.379C20.45 225.369 16.8032 230.576 13.155 235.649C12.2797 236.789 11.4616 238.004 10.6505 239.29C9.83949 240.577 9.63816 240.778 9.90802 241.657C10.5834 243.687 13.4206 243.078 15.1098 243.281H19.906C18.8958 244.675 18.0344 246.171 17.3358 247.744C16.4034 250.035 15.7022 252.414 15.2426 254.845C15.1459 255.206 15.1713 255.589 15.3149 255.934C15.4585 256.279 15.7122 256.567 16.0363 256.752C16.3604 256.937 16.7367 257.01 17.1064 256.958C17.4761 256.907 17.8183 256.735 18.0798 256.468C18.6866 255.859 18.6195 254.845 18.8223 254.038C19.025 253.23 19.5648 251.465 19.9646 250.251C20.6568 248.457 21.5645 246.753 22.6675 245.178C22.9374 244.705 23.41 244.232 23.7484 243.691L27.1296 244.293C29.8326 244.902 32.6013 245.984 35.4385 245.375C38.8394 244.841 41.9084 243.027 44.0186 240.304C46.5246 237.414 48.2869 233.955 49.1518 230.227C49.91 227.299 50.4295 224.313 50.7053 221.301C50.7053 220.157 51.2465 218.87 50.841 217.715C50.8221 217.614 50.775 217.521 50.7053 217.445C52.2603 216.769 53.8138 216.093 55.3673 215.281C55.5735 215.726 55.8465 216.137 56.1769 216.499C57.6634 218.324 59.6909 219.474 61.7171 220.624C63.5507 221.795 65.5018 222.77 67.5386 223.533C69.2561 224.164 71.0862 224.43 72.9121 224.314C74.738 224.197 76.5197 223.701 78.1434 222.857C80.9135 221.235 83.615 219.141 85.3727 216.365C86.1607 215.011 86.8163 213.585 87.3304 212.105C91.1856 212.036 93.4788 213.391 97.5996 215.351L100.17 216.703C100.367 216.833 100.59 216.918 100.824 216.954C101.057 216.989 101.295 216.972 101.522 216.906C101.766 216.826 101.989 216.693 102.176 216.517C102.363 216.341 102.509 216.127 102.605 215.888C102.7 215.65 102.742 215.393 102.727 215.137C102.713 214.88 102.643 214.63 102.522 214.403ZM47.534 219.407C47.3912 220.962 47.1956 222.517 46.9928 224.074C46.5873 226.647 45.4393 232.793 43.2804 235.705C40.3761 239.898 38.3499 241.453 34.4989 242.129C32.4728 242.401 29.9054 241.386 26.9312 240.843C24.697 240.412 22.4423 240.096 20.1759 239.896C17.947 239.693 16.3934 239.965 14.5015 239.896H14.2987C15.5153 238.071 16.8689 236.313 18.154 234.486C20.1293 231.541 22.3922 228.8 24.9093 226.304C28.0849 222.922 31.5975 221.158 35.7183 219.871C39.8392 218.585 43.2161 218.452 47.6739 218.181C47.6025 218.596 47.6025 219.002 47.5354 219.408L47.534 219.407ZM81.5803 215.823C78.676 219.001 75.5689 220.895 72.1906 221.03C68.8122 221.166 67.1245 219.948 63.8818 217.918C60.6391 215.889 60.235 216.027 58.6857 214.275C58.6857 214.266 58.684 214.257 58.6806 214.248C58.6771 214.24 58.6721 214.233 58.6657 214.226C58.6533 214.214 58.6363 214.206 58.6186 214.206L58.2131 213.666L58.4158 213.396C59.1997 211.839 60.1014 210.345 61.1131 208.926C62.7352 206.559 63.005 205.95 64.9684 204.057C68.9536 200.34 75.0335 198.579 81.586 196.481C83.7478 195.872 85.9767 195.535 88.1385 194.993C87.1933 198.984 86.3151 203.041 85.3699 207.099C84.4246 211.157 83.0681 214.2 81.5817 215.824L81.5803 215.823Z" fill="#162B43"/>
<path d="M30.4439 227.861C30.3097 226.035 27.6067 225.9 27.1341 227.591C26.256 230.432 25.5806 233.272 24.8381 236.112C24.7949 236.351 24.8017 236.597 24.858 236.833C24.9143 237.07 25.019 237.292 25.1653 237.486C25.3117 237.68 25.4966 237.841 25.7084 237.96C25.9202 238.079 26.1543 238.153 26.3959 238.176C26.7193 238.207 27.0449 238.148 27.3369 238.005C27.7147 237.769 28.0009 237.412 28.1479 236.991C28.4178 235.909 28.6205 234.894 28.8904 233.812C29.1603 232.73 29.6343 231.108 30.0327 229.823C30.4311 228.538 30.5796 228.47 30.4439 227.861Z" fill="#162B43"/>
<path d="M35.5114 224.481C34.4976 227.389 33.4838 230.365 32.6057 233.408C32.3358 234.626 31.6604 235.838 31.6604 237.125C31.7101 237.429 31.842 237.714 32.0417 237.948C32.2414 238.183 32.5014 238.358 32.7935 238.456C33.0856 238.553 33.3987 238.569 33.6991 238.501C33.9994 238.433 34.2755 238.284 34.4976 238.071C35.3757 236.989 35.4428 235.163 35.984 233.811C36.8622 230.971 37.8074 228.198 38.7541 225.357C38.82 224.945 38.7313 224.523 38.5048 224.172C38.2784 223.821 37.9303 223.567 37.5277 223.458C37.1251 223.349 36.6963 223.392 36.324 223.581C35.9518 223.769 35.6623 224.089 35.5114 224.478V224.481Z" fill="#162B43"/>
<path d="M68.8151 203.854C67.8684 206.965 66.6533 210.008 65.7751 213.187C65.5724 214.2 64.8299 215.283 65.4367 216.23C65.5682 216.45 65.7476 216.637 65.9615 216.777C66.1754 216.918 66.4182 217.008 66.6718 217.041C66.9257 217.072 67.1833 217.046 67.4258 216.965C67.6685 216.884 67.8893 216.748 68.0712 216.568C68.7466 215.757 68.748 214.606 69.1521 213.593C69.8275 211.429 70.5714 209.265 71.3139 207.16C71.5166 206.147 72.192 205.132 72.1249 204.05C72.0578 202.968 69.2877 202.096 68.8151 203.854Z" fill="#162B43"/>
<path d="M80.568 199.457C80.3848 199.189 80.1311 198.977 79.8349 198.845C79.5388 198.712 79.2118 198.664 78.8902 198.706C78.5685 198.748 78.2648 198.879 78.0125 199.083C77.7603 199.287 77.5694 199.557 77.461 199.863C76.609 203.572 75.5488 207.23 74.2854 210.82C74.0155 211.833 73.6785 212.915 73.3401 213.93C73.2434 214.291 73.2689 214.674 73.4125 215.019C73.5561 215.364 73.8097 215.651 74.1338 215.837C74.4579 216.022 74.8342 216.095 75.2039 216.043C75.5736 215.992 75.9159 215.819 76.1773 215.553C76.8527 214.606 76.9884 213.321 77.3939 212.172C78.4062 209.062 79.4871 205.882 80.2982 202.703C80.4338 201.621 81.1763 200.472 80.568 199.457Z" fill="#162B43"/>
<path d="M52.7372 180.387L52.5345 180.59L51.9933 180.793C47.4669 182.957 38.9554 184.106 33.8893 184.715C31.3191 185.054 28.3505 185.662 26.7285 185.797C26.7602 185.57 26.8055 185.344 26.8641 185.121C27.6751 182.957 29.4985 179.508 30.985 176.259C32.0659 174.23 33.4837 172.399 34.4304 170.375C35.3771 168.351 37.3347 164.491 38.7526 161.584C39.3609 160.096 40.3076 158.676 40.5103 157.053C40.5103 156.85 40.4418 156.715 40.4418 156.512H42.4694C44.6297 156.512 44.6983 153.13 42.4694 153.13C40.2404 153.13 36.7936 153.199 33.9564 153.063C32.8141 153.063 32.2686 154.145 31.6603 154.888L29.0902 158.541C25.7803 163.882 22.876 169.429 19.7004 174.771C17.877 178.289 16.3221 181.805 14.4987 185.254C13.3208 188.075 11.8252 190.752 10.0409 193.233C8.89142 195.059 7.54064 196.818 6.6625 198.78C5.78436 200.741 8.35168 201.281 9.16271 201.281C11.1218 201.281 13.0808 200.942 15.0399 200.942C16.9989 200.942 20.4429 201.214 23.1459 201.214C25.8489 201.214 28.5504 200.942 31.3191 201.011L43.4789 201.687C45.3708 201.544 46.049 199.387 47.06 198.102C49.8972 193.978 52.0576 189.382 54.4221 184.915C54.7605 184.104 55.0304 183.293 55.3688 182.412C55.7072 181.532 54.4907 178.762 52.7344 180.317L52.7372 180.387Z" fill="#007EEF"/>
<path d="M125.695 145.491C116.575 145.424 107.455 144.205 98.2679 144.347C94.6197 144.415 90.9715 144.49 87.3233 144.685L86.8506 144.347C82.1229 141.028 76.1059 141.23 70.6385 141.637C65.1712 142.045 60.7748 142.448 55.9114 143.192C52.152 143.746 48.3616 144.062 44.5626 144.139C44.1294 144.277 43.7576 144.562 43.5112 144.944C43.2647 145.327 43.1589 145.784 43.2119 146.236C42.9462 147.65 42.6078 149.049 42.1981 150.428C40.7802 155.973 39.1581 159.558 36.9292 164.224C35.1639 168.114 33.1116 171.866 30.7893 175.451C28.8261 178.252 27.0653 181.19 25.5205 184.242C25.1821 184.985 24.6423 185.797 24.6423 186.672C24.6587 187.133 24.8489 187.571 25.1748 187.897C25.5007 188.223 25.938 188.414 26.3986 188.43C30.706 187.017 35.1076 185.91 39.5708 185.117C44.2447 184.101 48.9856 183.423 53.7567 183.088C58.7543 182.75 61.7957 183.426 66.8618 184.914C69.8981 184.197 72.999 183.789 76.1173 183.696C79.8298 183.696 82.3314 184.238 85.2371 184.575L85.8454 183.494C86.1824 182.817 86.5879 182.141 86.9877 181.465C83.4818 180.847 79.9384 180.465 76.3814 180.321C73.1553 180.402 69.9438 180.785 66.789 181.465C65.5738 180.654 59.2212 179.572 56.1827 179.639C49.1575 179.774 42.1995 181.194 35.3771 182.547C33.3656 182.884 31.3795 183.359 29.4329 183.968C31.2563 180.721 34.1606 176.534 35.9854 173.485C38.7021 168.509 41.1376 163.383 43.2804 158.133C44.6438 154.675 45.6839 151.098 46.3875 147.448H47.2628C50.4384 147.381 57.2579 146.366 58.6858 146.161C62.6039 145.621 66.522 145.351 70.44 145.018C74.3581 144.685 78.0078 144.409 81.3162 145.424C82.4235 145.749 83.4888 146.203 84.4903 146.776C82.9368 148.94 81.5861 151.307 80.1682 153.606C78.7503 155.905 77.1953 157.664 75.776 159.828L74.0197 162.466C73.821 162.708 73.6812 162.992 73.6114 163.298C73.5407 163.602 73.5407 163.919 73.6114 164.224C73.6897 164.469 73.8214 164.694 73.9969 164.883C74.2597 165.167 74.6088 165.357 74.9901 165.422C75.3714 165.487 75.7636 165.425 76.1059 165.245C77.0511 164.5 77.4566 163.215 78.132 162.269C80.4966 158.819 83.1981 155.573 85.1572 151.854C85.7654 150.771 86.5765 149.758 87.2519 148.743C87.4317 148.534 87.5901 148.308 87.7245 148.067C95.1495 147.728 102.717 147.458 110.152 148.134C114.881 148.473 119.61 148.743 124.407 148.879C124.31 148.971 124.239 149.087 124.204 149.216C122.448 152.259 120.286 154.965 118.258 157.873C116.231 160.78 116.029 161.863 114.679 163.757C114.34 164.433 113.665 164.974 113.598 165.718H117.514C118.049 164.954 118.546 164.164 119.001 163.351C120.554 160.307 122.783 157.603 124.742 154.83C126.701 152.057 128.052 150.568 128.052 147.931C128.053 147.626 127.991 147.325 127.871 147.045C127.75 146.765 127.574 146.513 127.352 146.304C127.132 146.094 126.869 145.933 126.583 145.83C126.297 145.725 125.993 145.681 125.689 145.7L125.695 145.491Z" fill="#162B43"/>
<path d="M69.8946 171.189C68.5439 172.812 66.8547 174.639 66.2478 176.6C65.641 178.561 68.8823 179.237 69.6248 177.276C70.2213 176.158 70.9469 175.114 71.7866 174.166C72.1921 173.624 72.8004 173.151 72.7318 172.407C72.7275 172.08 72.6285 171.762 72.4469 171.49C72.2653 171.218 72.0088 171.005 71.7085 170.876C71.4082 170.747 71.077 170.708 70.7551 170.763C70.4332 170.819 70.1343 170.967 69.8946 171.189Z" fill="#162B43"/>
<path d="M70.166 151.236C69.5577 150.627 68.5439 150.763 67.7386 150.627C66.0593 150.402 64.3648 150.312 62.6711 150.357C59.9024 150.493 57.1324 150.83 54.4308 150.83C52.8087 150.973 51.121 150.627 49.566 151.033C48.0111 151.439 48.4237 154.279 50.1743 154.279C51.9249 154.279 55.3761 154.279 57.9434 154.076C60.8557 153.706 63.7985 153.638 66.7248 153.873L68.5497 154.076C68.7621 154.143 68.986 154.164 69.2071 154.139C69.4283 154.115 69.6419 154.045 69.8347 153.933C70.0559 153.795 70.2436 153.609 70.3845 153.389C70.5241 153.169 70.6134 152.92 70.6457 152.662C70.678 152.403 70.6527 152.14 70.5715 151.892C70.4862 151.646 70.3477 151.422 70.166 151.236Z" fill="#162B43"/>
<path d="M64.8971 159.423C63.9505 158.611 62.5326 158.949 61.3831 158.679C58.2142 158.409 55.0281 158.409 51.8592 158.679L48.1467 159.017C47.5384 159.22 46.7274 159.159 46.2548 159.625C44.7684 160.64 45.9849 163.075 47.6727 162.533C52.3661 161.803 57.1327 161.667 61.8601 162.128C62.6697 162.128 63.6163 162.466 64.3588 162.128C64.6174 162.032 64.847 161.871 65.0259 161.66C65.2048 161.45 65.3272 161.197 65.3814 160.926C65.4355 160.655 65.4198 160.375 65.3355 160.112C65.2513 159.849 65.1014 159.611 64.9 159.423H64.8971Z" fill="#162B43"/>
<path d="M56.1157 168.011C53.5247 167.876 50.9271 167.944 48.3466 168.214L44.9026 168.687C44.38 168.742 43.8742 168.903 43.4162 169.161C41.9297 170.243 43.2134 172.609 44.9026 172.136C48.1304 171.524 51.4134 171.252 54.6978 171.325C55.7102 171.257 57.061 171.73 57.872 170.919C58.683 170.109 57.8706 167.74 56.1157 168.011Z" fill="#162B43"/>
<path d="M108.265 154.081C104.552 153.269 100.767 153.202 96.9843 152.999C95.4307 152.999 93.8758 152.999 92.3223 153.133C92.0127 153.092 91.6982 153.113 91.3967 153.194C91.0953 153.276 90.813 153.416 90.566 153.607C90.3202 153.844 90.1517 154.149 90.0825 154.483C90.0133 154.817 90.0468 155.164 90.1784 155.479C90.3101 155.793 90.5338 156.061 90.8201 156.246C91.1064 156.431 91.4419 156.525 91.7825 156.515C97.7268 156.245 103.334 156.448 108.13 157.53C110.765 157.934 111.035 154.284 108.265 154.081Z" fill="#162B43"/>
<path d="M95.6335 166.861L95.8362 166.727C96.4162 166.345 97.1016 166.155 97.7953 166.185C96.8486 165.645 95.4978 165.848 94.4854 165.576C91.5797 165.17 88.6083 164.697 85.7026 165.036C84.9601 165.103 84.0819 165.036 83.5408 165.576C82.9996 166.116 83.338 168.552 84.7573 168.485C87.7302 168.01 91.9852 168.552 93.9443 168.889C94.2865 168.056 94.8762 167.348 95.6335 166.861Z" fill="#162B43"/>
<path d="M158.863 47.7694C158.457 46.3499 156.971 46.4829 155.756 46.6258C143.19 47.3691 130.694 49.4661 118.128 50.5482L97.9296 52.3065C95.7678 52.3065 95.7007 55.6199 97.9296 55.6871C108.333 54.808 118.668 53.9289 129.004 52.7796C139.341 51.6303 147.784 50.3495 157.174 49.9393C157.437 49.936 157.697 49.874 157.933 49.7577C158.169 49.64 158.375 49.4711 158.537 49.2634C158.699 49.0556 158.813 48.8143 158.87 48.557C158.926 48.2972 158.924 48.0281 158.863 47.7694Z" fill="white"/>
<path d="M157.309 56.2231C156.837 54.735 155.215 55.0066 153.999 55.141C140.894 56.2917 126.91 58.6574 115.291 60.144C109.481 60.956 103.537 61.4305 97.7953 62.3082C97.4364 62.4616 97.1416 62.7347 96.961 63.0811C96.7804 63.4275 96.7252 63.8258 96.8048 64.2083C96.8844 64.5908 97.0938 64.934 97.3975 65.1794C97.7012 65.4248 98.0804 65.5573 98.4707 65.5545C118.264 63.4575 136.638 60.0769 155.689 58.3858C155.951 58.3856 156.209 58.3244 156.444 58.207C156.678 58.0895 156.882 57.9191 157.039 57.7091C157.196 57.4992 157.303 57.2554 157.349 56.9973C157.396 56.7391 157.383 56.4735 157.309 56.2216V56.2231Z" fill="white"/>
<path d="M197.435 52.9769C196.422 52.5038 195.138 52.9097 193.99 52.8425C185.817 52.9769 177.712 53.5858 169.536 53.9246C168.794 53.9918 167.914 53.856 167.374 54.465C167.159 54.7123 167.017 55.0151 166.965 55.3391C166.913 55.663 166.952 55.995 167.079 56.2977C167.206 56.6003 167.414 56.8614 167.681 57.0513C167.949 57.2413 168.264 57.3525 168.591 57.3725C175.075 57.0351 181.56 56.6291 188.046 56.359C190.883 56.156 194.531 56.4262 197.233 55.953C198.516 55.5471 198.583 53.5858 197.435 52.9769Z" fill="white"/>
<path d="M179.129 69.6143C162.645 70.7578 146.297 72.6576 129.815 74.0098L106.847 75.9038L104.009 76.174C103.562 76.1883 103.133 76.3553 102.794 76.6472C102.55 76.8839 102.382 77.189 102.313 77.5226C102.245 77.8562 102.278 78.2028 102.409 78.5171C102.541 78.8313 102.764 79.0986 103.049 79.284C103.335 79.4693 103.669 79.5642 104.009 79.5561C116.642 78.4125 129.41 77.4591 142.042 76.3098C154.675 75.1605 165.551 73.9426 177.311 73.1307C178.323 72.9277 179.54 73.2665 180.351 72.5218C180.565 72.274 180.706 71.9713 180.757 71.6478C180.809 71.3242 180.769 70.9927 180.643 70.6905C180.516 70.3882 180.308 70.1274 180.042 69.9372C179.775 69.7471 179.461 69.6352 179.134 69.6143H179.129Z" fill="white"/>
<path d="M216.894 100.586C217.051 98.5114 217.391 96.4546 217.908 94.4395C217.908 93.6276 218.247 93.8977 217.765 92.8843C217.61 92.6199 217.378 92.4082 217.101 92.2767C216.826 92.1422 216.516 92.0924 216.212 92.1338L214.121 92.3425C205.677 92.8843 197.233 93.4861 188.788 93.7634C183.182 93.7634 177.575 93.6276 171.968 93.7634L167.307 93.8977C166.921 93.7614 166.497 93.7762 166.121 93.9392C165.745 94.1022 165.444 94.4014 165.279 94.7769C165.192 95.0381 165.169 95.3167 165.212 95.5888V97.8201L165.821 100.932C166.963 106.341 167.51 112.09 168.928 117.501C169.3 117.907 169.578 118.392 169.739 118.92H172.509L183.519 118.583L202.704 117.905C206.285 117.702 209.932 117.702 213.513 117.229C214.864 111.82 216.083 106.207 216.89 100.66L216.894 100.586Z" fill="#4ADEFF"/>
<path d="M132.923 95.9877C130.152 97.6787 127.585 99.7042 124.951 101.668L120.966 104.847L120.56 105.118C119.646 104.813 118.685 104.676 117.723 104.712C115.903 104.917 114.221 105.781 112.994 107.142C112.431 107.629 112.011 108.261 111.779 108.969V109.509C111.609 109.771 111.516 110.076 111.507 110.388C111.404 112.527 111.946 114.648 113.062 116.475C113.699 117.385 114.589 118.088 115.622 118.497C116.654 118.906 117.784 119.002 118.871 118.775C120.859 118.225 122.598 117.009 123.797 115.33C124.93 116.111 126.13 116.789 127.382 117.358C128.524 118.007 129.723 118.551 130.963 118.982C131.243 119.017 131.526 118.982 131.788 118.88C132.05 118.777 132.283 118.611 132.464 118.396C132.646 118.181 132.771 117.924 132.829 117.649C132.886 117.373 132.874 117.087 132.793 116.818C132.523 115.736 131.239 115.6 130.365 115.059C128.561 114.288 126.839 113.336 125.225 112.219H125.158C125.248 111.705 125.27 111.182 125.225 110.662C125.072 109.314 124.479 108.054 123.537 107.079C126.306 104.779 128.333 103.292 131.777 100.789L134.348 99.0982C134.604 98.9849 134.834 98.8176 135.02 98.6077C135.207 98.3978 135.346 98.1502 135.428 97.8817C135.487 97.5616 135.455 97.2314 135.337 96.9283C135.249 96.7018 135.115 96.496 134.943 96.3241C134.771 96.1522 134.566 96.0178 134.339 95.9294C134.113 95.841 133.871 95.8005 133.628 95.8106C133.386 95.8206 133.148 95.8809 132.93 95.9877H132.923ZM118.398 115.397H117.317L116.642 115.194L116.303 114.991L116.034 114.721L115.628 114.044C115.358 113.301 115.088 112.556 114.886 111.813C114.819 111.271 114.953 110.662 114.886 110.122C114.819 109.582 115.021 109.979 115.021 109.919C115.319 109.586 115.634 109.27 115.967 108.973C116.688 108.377 117.602 108.064 118.537 108.094L119.549 108.364L120.63 108.904H120.773C121.125 109.22 121.409 109.606 121.607 110.036C121.805 110.466 121.912 110.933 121.921 111.407C121.854 112.489 120.164 114.924 118.408 115.33L118.398 115.397Z" fill="white"/>
<path d="M238.981 58.5232L238.17 55.8173C237.089 52.1007 236.346 48.3841 235.535 44.659L234.726 39.7903C237.764 37.9634 237.022 32.4186 232.564 32.2828C231.815 32.2784 231.08 32.4815 230.44 32.8697C229.8 33.2578 229.28 33.8159 228.937 34.4819C228.594 35.148 228.442 35.8961 228.498 36.6433C228.553 37.3905 228.815 38.1077 229.253 38.7153L228.983 39.1213C228.172 40.8109 227.091 42.2989 226.213 43.9228C224.495 47.4004 222.601 50.7879 220.538 54.0719L218.512 57.1152H218.377C212.973 57.3182 212.973 65.0958 218.377 65.2302C219.035 65.2575 219.688 65.1091 220.27 64.8001C220.852 64.4912 221.341 64.0328 221.688 63.472L229.658 62.9988C231.077 62.863 232.564 63.066 233.915 62.863C233.999 63.8674 234.454 64.8045 235.191 65.4915C235.927 66.1786 236.893 66.5664 237.9 66.5796C242.897 66.3766 243.237 59.6811 238.981 58.599V58.5232ZM234.86 59.7397C234.185 59.2665 233.239 59.4695 232.433 59.4695C229.054 59.6125 225.677 59.6725 222.367 59.9427H222.165C222.032 59.4841 221.826 59.0498 221.556 58.6561C224.363 54.4765 226.891 50.1163 229.124 45.6038C230.002 44.1844 230.812 42.8321 231.552 41.4113C231.889 43.1023 232.16 44.7933 232.497 46.4829C233.375 50.677 234.389 54.9367 235.605 59.0621C235.325 59.2507 235.074 59.4789 234.86 59.7397Z" fill="white"/>
<path d="M270.257 261.54C267.642 260.617 264.982 259.827 262.287 259.172C260.395 258.835 258.432 258.632 256.477 258.429C252.728 258.056 248.956 257.988 245.197 258.226L240.941 258.429C240.516 258.442 240.11 258.611 239.799 258.902C239.558 259.134 239.391 259.432 239.32 259.759C239.249 260.086 239.276 260.427 239.398 260.739C239.52 261.05 239.733 261.318 240.007 261.509C240.282 261.7 240.607 261.804 240.941 261.81C243.846 261.675 246.819 261.472 249.723 261.472C253.157 261.518 256.586 261.766 259.991 262.216C263.099 262.689 266.004 263.771 268.908 264.646C269.719 264.917 270.53 265.322 271.335 264.849C272.141 264.376 272.011 261.81 270.257 261.54Z" fill="#162B43"/>
<path d="M232.765 260.254C230.604 260.457 228.375 260.593 226.146 260.932C225.402 261.066 224.457 260.932 223.848 261.539C223.608 261.772 223.442 262.07 223.371 262.397C223.3 262.724 223.328 263.064 223.45 263.375C223.572 263.687 223.784 263.955 224.058 264.146C224.332 264.337 224.657 264.442 224.991 264.448L232.76 263.636C234.994 263.636 234.994 260.323 232.765 260.254Z" fill="#162B43"/>
<path d="M315.585 123.715C301.265 123.918 286.943 124.391 272.622 124.661C265.732 124.864 258.914 125.27 252.019 125.609C249.789 125.676 249.789 128.99 252.019 128.99C273.163 127.773 294.374 127.57 315.585 127.097C317.815 127.028 317.815 123.715 315.585 123.715Z" fill="#162B43"/>
<path d="M329.839 129.6C329.231 128.991 328.353 129.127 327.542 129.127C315.855 129.127 304.101 130.14 292.416 130.749L284.991 131.088C283.849 131.222 282.694 130.952 281.613 131.291C280.532 131.63 280.471 134.604 282.288 134.536C294.043 134.266 305.865 133.249 317.618 132.71C320.321 132.575 323.023 132.507 325.726 132.507C326.941 132.44 328.153 132.71 329.305 132.364C329.553 132.247 329.77 132.073 329.938 131.856C330.192 131.528 330.321 131.121 330.305 130.707C330.288 130.293 330.126 129.899 329.847 129.593L329.839 129.6Z" fill="#162B43"/>
<path d="M88.4727 127.57C68.4824 129.734 48.3494 128.991 28.3505 129.058C24.1625 129.058 19.9732 129.194 15.7181 129.328L12.2726 129.471C11.826 129.484 11.397 129.648 11.0561 129.937C10.8886 130.125 10.7636 130.348 10.6897 130.589C10.6158 130.83 10.5947 131.084 10.6277 131.334C10.6601 131.584 10.7457 131.824 10.8787 132.038C11.0118 132.252 11.1891 132.435 11.3988 132.574C11.6555 132.755 11.9629 132.851 12.2769 132.846L16.9375 132.643C35.5156 132.034 54.1594 132.913 72.7375 132.101C78.2091 131.898 83.6807 131.561 89.0853 130.815C89.3498 130.702 89.5813 130.524 89.7578 130.297C89.9342 130.069 90.0499 129.801 90.0938 129.517C90.1377 129.232 90.1084 128.941 90.0086 128.671C89.9088 128.402 89.7419 128.162 89.5236 127.974C89.2293 127.724 88.8587 127.581 88.4727 127.57Z" fill="#162B43"/>
<path d="M31.5246 134.94C31.1853 134.648 30.7566 134.481 30.3095 134.467H24.9721C18.4881 134.603 12.0027 134.873 5.51725 134.534L1.66199 134.331C1.43384 134.334 1.20859 134.383 0.999453 134.474C0.745953 134.587 0.52408 134.761 0.353298 134.98C0.182517 135.199 0.0680468 135.457 0.0199301 135.73C-0.0215675 135.972 -0.0103956 136.219 0.0526767 136.455C0.115749 136.691 0.229223 136.911 0.385285 137.099C0.541348 137.287 0.736291 137.439 0.956692 137.545C1.17709 137.65 1.41771 137.707 1.66199 137.71C7.48573 138.105 13.3261 138.195 19.1592 137.98C22.806 137.777 27.468 138.048 30.9806 137.643C31.2281 137.524 31.4447 137.35 31.6131 137.133C31.8662 136.805 31.9957 136.398 31.9787 135.984C31.9617 135.571 31.7994 135.176 31.5203 134.87L31.5246 134.94Z" fill="#162B43"/>
<path d="M333.488 12.6035C332.117 11.9373 330.62 11.5686 329.097 11.5215C328.423 11.4543 327.744 11.4543 327.069 11.5215C327.408 8.88412 328.016 6.31397 327.475 3.74381C326.934 1.17366 325.583 -0.857587 323.22 0.363164C322.077 1.24228 321.666 2.73033 321.125 4.01541C320.318 6.22046 319.973 8.56819 320.111 10.9125V11.0555H318.355C316.126 11.1898 313.289 11.5958 312.411 13.76C311.533 15.9242 313.492 16.5331 314.981 16.9391C316.489 17.399 318.072 17.5598 319.642 17.4122H319.844C319.642 19.5092 319.642 23.0257 320.722 24.8454C321.803 26.6651 322.951 27.2125 324.435 26.4006C325.918 25.5887 326.057 24.5066 326.394 23.3573C326.834 21.6066 327.105 19.8179 327.205 18.0154C329.222 18.2344 331.256 17.808 333.015 16.7976C334.5 15.9184 335.244 13.5513 333.488 12.5378V12.6035ZM331.731 14.7006H331.663C330.572 15.3749 329.294 15.6829 328.016 15.5797C326.597 15.6469 324.976 14.9707 324.638 16.7961C324.299 18.6215 324.503 20.4484 323.827 22.8155C323.71 23.2684 323.529 23.7019 323.287 24.1021C322.544 23.0871 322.206 20.5856 322.409 17.8797C322.443 17.3574 322.51 16.8379 322.612 16.3244C322.699 15.9804 322.647 15.616 322.469 15.3095C322.354 15.1412 322.204 14.9998 322.029 14.8949C321.854 14.79 321.659 14.7242 321.456 14.702H321.129L320.657 14.8364C320.521 14.8364 320.184 14.9793 319.981 14.9035C318.767 15.0764 317.532 15.0309 316.333 14.7692L315.388 14.499H315.117C315.116 14.4812 315.12 14.4635 315.127 14.447C315.134 14.4306 315.144 14.4157 315.157 14.4032C315.182 14.3784 315.216 14.3641 315.252 14.3632L315.591 14.1602C316.469 13.7543 318.698 13.4841 320.994 13.6199C321.494 13.6735 321.999 13.6249 322.48 13.4769L322.75 13.1382L322.953 12.462V11.5886L322.819 11.4543C322.519 8.5673 323.058 5.6551 324.372 3.06768C324.376 3.01595 324.4 2.96786 324.439 2.93332C324.479 2.96734 324.503 3.01562 324.508 3.06768C324.532 3.09514 324.55 3.12724 324.562 3.16203C324.573 3.19707 324.578 3.23396 324.575 3.27067C325.317 5.02889 325.047 7.73484 324.575 10.3722C324.575 11.5157 323.697 13.2797 325.183 13.8886C326.67 14.4976 327.753 13.8214 329.038 14.023C329.994 14.0345 330.936 14.2418 331.808 14.6319C331.807 14.659 331.801 14.6857 331.789 14.7102C331.778 14.7348 331.762 14.7568 331.741 14.7749L331.731 14.7006Z" fill="#4ADEFF"/>
<path d="M304.102 50.4085C302.724 49.7511 301.233 49.3607 299.71 49.2578H297.684C298.022 46.6204 298.629 44.0503 298.089 41.4816C297.55 38.9128 296.13 36.883 293.833 38.0995C292.618 38.9786 292.212 40.4666 291.671 41.6845C290.918 43.9256 290.597 46.2894 290.726 48.6503V48.7846H288.969C286.741 48.9276 283.903 49.3264 283.025 51.4906C282.147 53.6548 284.038 54.2623 285.524 54.6682C287.055 55.1325 288.661 55.2932 290.253 55.1414H290.396C290.253 57.3056 290.253 60.822 291.341 62.6489C292.429 64.4757 293.57 64.9474 295.054 64.2041C296.537 63.4608 296.674 62.3101 297.013 61.1608C297.452 59.4096 297.724 57.6204 297.824 55.8175C299.838 56.006 301.862 55.5821 303.632 54.6011C305.119 53.7219 305.863 51.3548 304.106 50.3399L304.102 50.4085ZM302.282 52.5041C301.191 53.1802 299.912 53.4884 298.633 53.3832C297.215 53.4518 295.595 52.7742 295.256 54.6011C294.918 56.4279 295.121 58.2533 294.445 60.619C294.108 61.4982 294.243 61.3638 293.906 61.8369C293.095 60.8906 292.763 58.3877 293.027 55.6903C293.061 55.168 293.129 54.6485 293.23 54.1351C293.277 53.9654 293.29 53.788 293.267 53.6133C293.244 53.4387 293.186 53.2708 293.095 53.1201C292.979 52.9521 292.828 52.8107 292.654 52.7057C292.479 52.6007 292.283 52.5343 292.081 52.5112H291.744C291.541 52.5798 291.405 52.5798 291.271 52.7142H290.596C289.382 52.8892 288.146 52.8437 286.948 52.5798L286.001 52.3082H285.664L285.867 52.1738L286.204 51.9023C287.966 51.4417 289.79 51.2594 291.608 51.3619C292.103 51.4398 292.609 51.417 293.095 51.2947L293.297 50.956C293.416 50.7432 293.507 50.5159 293.567 50.2798V49.3335L293.433 49.1977C293.133 46.3112 293.673 43.3995 294.986 40.8126C294.991 40.7603 295.015 40.7117 295.054 40.6768V40.8126C295.054 40.8798 295.121 40.9469 295.121 41.0156C295.865 42.7738 295.595 45.4783 295.121 48.1156C295.121 49.2592 294.243 51.0231 295.729 51.6321C297.215 52.241 298.299 51.5649 299.513 51.7007C300.49 51.7653 301.449 51.9938 302.35 52.3768C302.35 52.444 302.282 52.444 302.214 52.5112L302.282 52.5041Z" fill="#162B43"/>
<path d="M304.102 50.4085C302.724 49.7511 301.233 49.3607 299.71 49.2578H297.684C298.022 46.6204 298.629 44.0503 298.089 41.4816C297.55 38.9128 296.13 36.883 293.833 38.0995C292.618 38.9786 292.212 40.4666 291.671 41.6845C290.918 43.9256 290.597 46.2894 290.726 48.6503V48.7846H288.969C286.741 48.9276 283.903 49.3264 283.025 51.4906C282.147 53.6548 284.038 54.2623 285.524 54.6682C287.055 55.1325 288.661 55.2932 290.253 55.1414H290.396C290.253 57.3056 290.253 60.822 291.341 62.6489C292.429 64.4757 293.57 64.9474 295.054 64.2041C296.537 63.4608 296.674 62.3101 297.013 61.1608C297.452 59.4096 297.724 57.6204 297.824 55.8175C299.838 56.006 301.862 55.5821 303.632 54.6011C305.119 53.7219 305.863 51.3548 304.106 50.3399L304.102 50.4085ZM302.282 52.5041C301.191 53.1802 299.912 53.4884 298.633 53.3832C297.215 53.4518 295.595 52.7742 295.256 54.6011C294.918 56.4279 295.121 58.2533 294.445 60.619C294.108 61.4982 294.243 61.3638 293.906 61.8369C293.095 60.8906 292.763 58.3877 293.027 55.6903C293.061 55.168 293.129 54.6485 293.23 54.1351C293.277 53.9654 293.29 53.788 293.267 53.6133C293.244 53.4387 293.186 53.2708 293.095 53.1201C292.979 52.9521 292.828 52.8107 292.654 52.7057C292.479 52.6007 292.283 52.5343 292.081 52.5112H291.744C291.541 52.5798 291.405 52.5798 291.271 52.7142H290.596C289.382 52.8892 288.146 52.8437 286.948 52.5798L286.001 52.3082H285.664L285.867 52.1738L286.204 51.9023C287.966 51.4417 289.79 51.2594 291.608 51.3619C292.103 51.4398 292.609 51.417 293.095 51.2947L293.297 50.956C293.416 50.7432 293.507 50.5159 293.567 50.2798V49.3335L293.433 49.1977C293.133 46.3112 293.673 43.3995 294.986 40.8126C294.991 40.7603 295.015 40.7117 295.054 40.6768V40.8126C295.054 40.8798 295.121 40.9469 295.121 41.0156C295.865 42.7738 295.595 45.4783 295.121 48.1156C295.121 49.2592 294.243 51.0231 295.729 51.6321C297.215 52.241 298.299 51.5649 299.513 51.7007C300.49 51.7653 301.449 51.9938 302.35 52.3768C302.35 52.444 302.282 52.444 302.214 52.5112L302.282 52.5041Z" fill="#162B43"/>
<path d="M56.3854 102.143C55.0302 101.425 53.5262 101.033 51.9932 100.999C51.3178 100.931 50.6424 100.999 49.9671 100.999C50.3055 98.4263 50.9137 95.7918 50.3726 93.2217C49.8314 90.6515 48.4135 88.6174 46.1204 89.8339C44.901 90.713 44.4954 92.1996 43.9557 93.4861C43.2074 95.705 42.8862 98.0459 43.009 100.385V100.588H41.2527C39.0238 100.722 36.1866 101.061 35.3085 103.225C34.4303 105.389 36.3894 106.065 37.8787 106.403C39.385 106.87 40.9697 107.031 42.5392 106.876H42.682C42.5392 109.04 42.5392 112.489 43.6273 114.316C44.7153 116.143 45.8562 116.682 47.3398 115.938C48.8233 115.195 48.9618 114.044 49.2988 112.895C49.7342 111.144 50.0057 109.355 50.1098 107.553C52.1224 107.709 54.1374 107.286 55.9184 106.335C57.4049 105.456 58.1488 103.022 56.3925 102.074L56.3854 102.143ZM54.6291 104.238H54.5605C53.4673 104.913 52.1967 105.243 50.9137 105.186C49.4944 105.186 47.8738 104.577 47.5354 106.33C47.197 108.082 47.3926 109.982 46.7244 112.349C46.3874 113.295 46.5216 113.16 46.1846 113.636C45.4407 112.622 45.1037 110.119 45.3065 107.415C45.3065 107.212 45.4407 106.197 45.5092 105.859C45.5957 105.515 45.5445 105.151 45.3664 104.845C45.2552 104.678 45.1043 104.541 44.9274 104.447C44.7505 104.352 44.5531 104.303 44.3526 104.304H44.0157L43.543 104.439L42.8677 104.582C41.6513 104.717 40.4215 104.669 39.2194 104.439L38.2742 104.101H38.0029C38.0029 104.033 38.0714 104.033 38.1385 103.965L38.4755 103.762C39.3536 103.356 41.584 103.153 43.88 103.222C44.3763 103.267 44.8763 103.243 45.3664 103.153C45.4325 103.004 45.5238 102.867 45.6363 102.749L45.8391 102.071V101.192L45.7048 101.058C45.4087 98.1937 45.9499 95.305 47.2627 92.7428C47.2597 92.7061 47.2641 92.6692 47.2755 92.6342C47.2867 92.5992 47.3052 92.5671 47.3298 92.5398C47.3298 92.607 47.3298 92.607 47.3969 92.6742C47.464 92.7414 47.4654 92.81 47.4654 92.9458C48.2079 94.704 47.938 97.3413 47.4654 100.046C47.4654 101.128 46.5873 102.953 48.0723 103.562C49.5573 104.171 50.6424 103.495 51.9275 103.631C52.8778 103.681 53.8134 103.886 54.6976 104.238C54.6976 104.307 54.6305 104.374 54.6305 104.441L54.6291 104.238Z" fill="#162B43"/>
</g>
<defs>
<clipPath id="clip0_222_3847">
<rect width="367" height="288" fill="white"/>
</clipPath>
</defs>
</svg>
