<svg width="104" height="104" viewBox="0 0 104 104" fill="none" xmlns="http://www.w3.org/2000/svg">
<g clip-path="url(#clip0_222_5238)">
<path d="M11.1654 66.0176C10.5552 63.058 10.0154 60.0751 9.49926 57.0684C9.42886 56.7161 9.52259 56.2229 9.14727 56.0115C9.04688 55.9512 8.93076 55.9223 8.81384 55.9286C8.69691 55.9348 8.58453 55.976 8.49115 56.0467C8.39776 56.1173 8.32764 56.2144 8.2898 56.3253C8.25195 56.4362 8.24812 56.5559 8.27879 56.669C8.56038 58.8065 9.02982 60.9194 9.3818 63.058C9.56965 64.0444 9.7575 65.0546 9.96869 66.041C10.1095 66.5108 10.1095 67.0979 10.344 67.521C10.4036 67.5949 10.4801 67.6532 10.5671 67.691C10.6541 67.7287 10.749 67.7449 10.8436 67.7379C10.9381 67.731 11.0296 67.7012 11.1102 67.6512C11.1908 67.6011 11.258 67.5323 11.3062 67.4505C11.5174 67.004 11.2125 66.4875 11.1654 66.0176Z" fill="#DBF122"/>
<path d="M13.254 64.2325C13.0898 62.4944 13.0428 60.733 12.8082 59.0183C12.597 58.4309 11.6819 58.6189 11.6819 59.253C11.9398 61.9541 12.0572 64.7024 12.3621 67.4035C12.5029 67.85 13.1836 67.8733 13.3951 67.474C13.4431 67.3791 13.4673 67.2739 13.4655 67.1676L13.254 64.2325Z" fill="#DBF122"/>
<path d="M15.6245 51.8079C15.3185 54.5558 14.9672 57.2806 14.7561 60.0289C14.6153 61.8608 14.6623 63.6931 14.4978 65.525C14.4978 66.2766 15.6479 66.3 15.6712 65.525C15.8357 63.6931 15.7887 61.8374 15.9295 60.0051C16.1406 57.2806 16.4926 54.5558 16.7979 51.8079C16.7979 51.0551 15.6479 51.0314 15.6245 51.8079Z" fill="#162B43"/>
<path d="M18.7456 63.9041C18.7222 63.5281 18.7689 63.0349 18.3936 62.8235C18.0183 62.6121 17.5251 62.753 17.1027 62.7297L15.0612 62.7764C13.1835 62.8469 11.2828 62.8235 9.40538 63.1053C8.56024 63.2933 7.10525 63.3167 6.82366 64.3268C6.78884 64.5288 6.78884 64.7353 6.82366 64.9372C6.68286 65.7126 6.75326 66.7695 6.72992 67.2156C6.70659 67.6617 6.75326 67.615 6.75326 67.8283C6.70659 68.9793 6.72992 70.1067 6.75326 71.2577C6.87072 74.2407 7.24604 77.2696 8.13786 80.1365C9.02968 83.0035 9.35832 82.9786 12.362 82.8139C13.7233 82.6722 16.4236 82.6722 16.8682 81.0977C17.408 78.6546 17.5251 76.1178 17.8067 73.628C18.0883 71.1383 18.4406 68.4842 18.6752 65.9003C18.7222 65.2428 18.7456 64.56 18.7456 63.9041Z" fill="#007EEF"/>
<path d="M84.7616 55.6826C84.527 53.4513 84.7849 51.1963 84.8553 48.965C84.9494 47.1093 84.9257 45.2537 84.9728 43.398C85.0198 41.5424 85.1606 39.4758 85.1369 37.5011C85.1132 35.5263 84.9728 33.8135 84.879 31.9579C84.7853 30.1022 84.7382 28.1057 84.5504 26.2029C84.5033 25.6393 84.4566 25.099 84.3862 24.5353C84.5221 24.017 84.4856 23.4684 84.2823 22.9727C84.079 22.4769 83.72 22.0609 83.2595 21.7875C82.4381 21.2943 81.4292 21.4118 80.5374 21.5056C79.6456 21.5995 78.9179 21.5527 78.1202 21.6466L74.2009 21.9284C72.7693 21.9755 71.3613 21.8579 69.9542 21.8112C67.8656 21.7875 65.8004 21.9284 63.7118 21.8579C59.8629 21.7641 55.9907 21.8579 52.1419 21.9284C49.8888 21.9284 47.6594 21.8112 45.4301 21.8112C43.2007 21.8112 40.971 21.6703 38.7183 21.6466C37.2162 21.6466 35.7375 21.7641 34.2359 21.8112C32.7342 21.8583 30.5511 21.7641 28.7208 21.8346L26.0687 21.9989C25.4822 22.0226 24.8953 21.9521 24.3321 22.046C23.8033 22.0985 23.302 22.3075 22.8924 22.6464C22.4828 22.9853 22.1834 23.4387 22.0324 23.9487C21.9386 24.5624 21.915 25.1849 21.962 25.8039C21.9382 27.8476 22.2906 29.8675 22.3139 31.9112C22.3373 33.9548 22.3139 35.3406 22.3843 37.055C22.4547 38.7693 22.6426 40.2497 22.6659 41.8468C22.713 44.1252 22.4781 46.4036 22.5485 48.682C22.5722 50.4434 22.6659 52.2049 22.7363 53.9433C22.7518 55.7536 22.9087 57.5598 23.2058 59.3456C23.5118 60.8489 23.4636 62.6341 24.5666 63.8319C25.0938 64.332 25.7886 64.6169 26.5148 64.6307C26.8668 64.6073 27.2188 64.5369 27.5707 64.4898C29.1432 64.3018 30.739 64.1608 32.3348 64.0433C34.3766 63.9966 36.3948 63.7369 38.413 63.5034C40.4311 63.2698 43.0362 62.9631 45.3597 62.7984C46.9084 62.7046 48.4587 62.775 50.0062 62.7279C50.1004 63.6443 50.1941 64.5369 50.2174 65.4528C50.2412 65.8051 50.2174 66.1574 50.2174 66.4867C49.2552 66.5805 48.293 66.7448 47.3545 66.9328L46.087 67.2851C45.054 67.4731 43.9984 67.6611 43.0595 68.131C42.1207 68.6008 42.0036 69.8453 42.778 70.4798C43.5523 71.1143 44.0922 71.1373 44.8198 71.3253C46.1561 71.6395 47.5128 71.8592 48.8799 71.9828C51.3275 72.2454 53.7873 72.3787 56.249 72.3822C57.9622 72.3588 59.6751 72.2179 61.3883 72.1708C62.4806 72.147 63.5701 72.0529 64.6503 71.889C65.425 71.7951 66.2227 71.6305 66.8311 71.0902C67.198 70.757 67.4313 70.3017 67.4876 69.8092C67.5439 69.3166 67.4194 68.8203 67.1371 68.4128C66.7195 67.769 66.1007 67.2817 65.3772 67.027C64.6348 66.7161 63.8528 66.5099 63.0537 66.4143C62.8972 66.3478 62.7306 66.3081 62.561 66.2968C61.9978 66.2497 61.458 66.2263 60.8948 66.2263V65.8051L60.9652 62.4461C63.8752 62.4932 66.7852 62.5637 69.6955 62.6812C73.5677 62.8926 77.487 63.1273 81.3355 62.5637C81.9121 62.5078 82.4845 62.4136 83.0487 62.2818C83.8231 62.0234 84.5508 61.4831 84.8323 60.708C85.1139 59.933 85.1139 59.416 85.0906 58.7586C85.0198 57.7262 84.8308 56.7161 84.7616 55.6826ZM77.0405 54.79C76.1509 54.7118 75.2579 54.6805 74.365 54.6962C72.511 54.6491 70.6573 54.5081 68.8033 54.5319C66.9493 54.5556 64.6962 54.391 62.6547 54.391C59.7681 54.2968 56.8814 54.3672 53.9948 54.2968C51.1081 54.2263 47.8228 54.2263 44.6308 54.2968C40.078 54.4614 35.5018 54.6031 30.9724 55.1894C30.9724 54.9309 30.949 54.6728 30.949 54.4377C30.902 51.807 30.9961 49.1997 30.9257 46.5928C30.8553 44.5725 30.6441 42.5292 30.5737 40.5089C30.5033 38.4886 30.597 36.8214 30.597 34.9895C30.597 33.1576 30.4796 31.4425 30.3625 29.681C30.3625 29.5164 30.3388 29.3521 30.3388 29.1641L32.005 29.117H34.9853C35.2203 28.1777 36.5111 28.0831 37.121 28.6475C37.2104 28.7161 37.2828 28.8044 37.3325 28.9056C37.4218 28.627 37.6028 28.387 37.8461 28.2249C38.0894 28.0627 38.3804 27.988 38.6716 28.013C39.2581 28.0835 39.798 28.4342 39.9154 29.0232H42.6846C44.638 28.9018 46.5965 28.8861 48.5516 28.9761C50.9237 28.9761 53.2923 29.0936 55.6391 29.2345C57.3053 29.305 58.9715 29.3287 60.6377 29.4226C62.75 29.5401 64.8385 29.4459 66.9271 29.493C67.7485 28.6709 67.913 27.614 69.1331 27.2851C69.4382 27.2003 69.764 27.2328 70.0463 27.3762C70.3287 27.5196 70.5472 27.7636 70.6589 28.0601C70.9285 27.7933 71.2717 27.6133 71.6444 27.5436C72.63 27.3789 73.334 28.2248 73.3106 29.1641C73.2873 29.305 73.2873 29.4226 73.2636 29.5401C74.4136 29.5635 75.54 29.6106 76.69 29.5868C76.6196 31.0419 76.5493 32.4993 76.5963 33.956C76.6667 35.8817 76.8308 37.8078 76.8779 39.7339C76.9012 42.623 76.9246 45.5122 76.995 48.3776C77.0642 50.515 77.1109 52.651 77.0405 54.79Z" fill="#DBF122"/>
<path d="M77.9559 51.9228C77.8855 49.9967 77.8621 48.0706 77.8855 46.1682C77.8388 40.8127 77.6509 35.4575 77.2519 30.1238C77.2285 29.7244 77.1815 29.3017 77.1344 28.9027C77.1244 28.5871 76.9991 28.2862 76.7824 28.0568L76.5713 27.8925L76.4071 27.775C75.9143 27.5165 75.3041 27.6578 74.7643 27.5636C73.6183 27.4464 72.4662 27.3993 71.3145 27.4227C70.1177 27.446 68.9206 27.2818 67.7238 27.2584C66.5271 27.235 65.2833 27.3051 64.0628 27.2347C62.021 27.1408 59.9557 27.1879 57.9142 27.0938L51.8134 27.1669C50.4992 27.2373 49.185 27.1435 47.8727 27.1435L43.0617 27.1906C41.4425 27.2611 39.8479 27.402 38.2272 27.4487C37.0305 27.4725 35.8338 27.6367 34.6366 27.7072C33.4395 27.7776 32.1727 27.8014 30.9289 27.9423L29.8959 28.0832L29.4265 28.177C29.2203 28.221 29.0301 28.321 28.8769 28.466C28.7237 28.611 28.6134 28.7955 28.558 28.9992C28.2294 30.9957 28.3702 33.039 28.5347 35.0355C28.6051 36.2804 28.6051 37.549 28.6521 38.7939C28.7692 41.8707 28.7459 44.9245 29.0041 47.9779C29.2153 50.3972 29.5202 51.3603 29.6377 53.4035C29.6848 53.85 29.7552 54.2728 29.8018 54.7189C29.8118 54.9821 29.9019 55.2359 30.0601 55.4464C30.1436 55.5673 30.2514 55.6693 30.3766 55.7461C30.5017 55.823 30.6415 55.8728 30.787 55.8925C30.9942 56.0755 31.2613 56.176 31.5376 56.1747C32.8767 56.0572 34.1898 56.151 35.5273 56.1043C36.8648 56.0576 38.7897 55.9634 40.4321 55.9396C42.6852 55.7987 44.9616 55.8221 47.2147 55.6812C49.4678 55.5402 51.2277 55.6344 53.2458 55.564L58.4322 55.6107C60.0751 55.7049 61.7179 55.7283 63.3608 55.7753C65.0036 55.8224 66.2708 55.9634 67.7258 55.9867C69.1808 56.0101 70.6357 56.1981 72.0907 56.1276C73.5457 56.0572 74.5079 56.2452 75.7051 56.2686C76.4794 56.2452 77.5587 56.4328 77.8858 55.5169C77.9432 55.4141 77.979 55.3006 77.9911 55.1835C78.0032 55.0664 77.9913 54.948 77.9562 54.8357C78.0263 53.85 77.9796 52.887 77.9559 51.9228ZM52.3051 42.8092C52.2347 43.6547 51.9531 44.4535 51.8593 45.2982C51.8084 46.0972 51.466 46.8495 50.8971 47.4123C49.7004 48.6806 48.5736 49.7141 46.9312 50.3015C45.8282 50.7005 43.6455 51.2408 42.8711 50.0193C42.4721 49.4323 42.6599 48.751 42.7537 48.1169C42.9178 46.9659 43.2935 45.9794 43.6926 44.9226L44.1853 43.5824C43.9572 43.4231 43.745 43.2422 43.5518 43.0421C43.1527 42.7135 42.5425 42.5021 42.0979 42.1966C41.5743 41.8283 41.08 41.4199 40.6196 40.975C39.6574 39.9886 38.8597 38.8613 38.0145 37.7807C37.5734 37.2304 37.2102 36.6218 36.9352 35.9722C36.3792 35.5487 35.9749 34.9566 35.7829 34.2843C35.6187 33.6264 35.6421 32.9218 35.5013 32.2406C35.2087 31.7238 35.01 31.1592 34.9144 30.573C34.9096 30.4628 34.9176 30.3524 34.9381 30.244C34.7973 29.7508 34.8677 29.2576 35.5013 28.8112C35.7948 28.6066 36.1533 28.5174 36.5084 28.5608C36.8634 28.6042 37.19 28.777 37.4257 29.0463C37.4934 29.1146 37.5489 29.1939 37.5898 29.281C38.1063 28.5764 39.3264 28.4355 39.7706 29.3515L40.0289 29.8684C40.3167 29.9045 40.5868 30.0273 40.8032 30.2207C41.6009 30.9482 42.0704 32.2885 42.4927 33.2507C42.6335 33.5326 42.751 33.8144 42.8918 34.0725C43.0529 34.1832 43.1889 34.3268 43.2908 34.4937C43.6726 35.1429 44.1125 35.756 44.605 36.3256C45.309 36.3727 46.013 36.6779 46.6936 36.8893C46.9087 36.8378 47.1307 36.822 47.3509 36.8426C46.9752 35.7148 46.624 34.5642 46.6936 33.3426C46.6965 33.0619 46.7906 32.7897 46.9619 32.5673C47.1331 32.3449 47.3721 32.1843 47.6426 32.11C47.9131 32.0356 48.2005 32.0515 48.4612 32.1552C48.7219 32.259 48.9417 32.4448 49.0875 32.6848C50.0964 34.1881 51.5047 35.5977 52.0208 37.3825C52.2585 38.2538 52.3458 39.1594 52.279 40.0602C52.2113 40.9781 52.3992 41.8707 52.3051 42.8092ZM73.0981 29.5146C72.7841 30.217 72.5708 30.9604 72.4645 31.7225C72.3471 32.4037 72.2767 33.132 72.0184 33.7662C71.4743 34.9977 70.8059 36.1705 70.0236 37.2661C69.2492 38.4167 68.4982 39.7321 67.3719 40.5542C66.2455 41.3763 65.4241 42.1047 64.4148 42.1985H64.1566L64.0158 42.8563C63.9764 43.1091 63.8523 43.341 63.6638 43.5138C64.0678 44.3174 64.413 45.1492 64.6968 46.0028C64.8 46.2673 64.8709 46.5434 64.908 46.8249C65.186 46.9873 65.3948 47.2462 65.4949 47.5525C65.7294 48.3746 65.9876 49.0558 65.2366 49.7133C64.4856 50.3708 63.9224 50.277 63.2185 50.1127C61.5756 49.7367 59.8153 49.6195 58.1725 49.1026C56.9053 48.7032 55.7553 47.3645 55.3796 46.0725C55.1684 45.3208 55.3092 44.6174 55.45 43.8898C55.4075 43.7278 55.3762 43.563 55.3562 43.3966C55.3092 42.7859 55.497 42.2218 55.5203 41.6115C55.5437 41.0011 55.4266 40.3195 55.4733 39.6383C55.52 38.957 55.5907 38.4167 55.6845 37.8064C55.849 36.5615 56.1053 35.2929 56.7408 34.1889C57.3763 33.0849 58.1721 32.3333 58.9216 31.4407C59.6711 30.5481 61.3154 31.5582 61.0809 32.7093C60.8464 33.8604 60.2124 35.2224 59.6726 36.5144C59.6491 36.5666 59.6334 36.6219 59.6259 36.6787C60.3062 36.115 61.4562 35.9741 62.2073 35.6689L62.8194 35.4104C63.2185 35.0581 63.6408 34.7526 64.0632 34.4474C64.1539 34.1365 64.2798 33.837 64.4385 33.5548C64.4507 33.4044 64.4742 33.2551 64.5089 33.1083C64.5789 32.8165 64.7062 32.5415 64.8836 32.2996C65.061 32.0576 65.2848 31.8535 65.5419 31.6991C65.7181 31.5742 65.9178 31.4863 66.1288 31.4407C66.2298 31.0103 66.4131 30.6035 66.6687 30.2429C66.9198 29.925 67.2029 29.6338 67.5134 29.3737C67.7916 29.053 68.0502 28.7158 68.2878 28.3639C68.9451 27.4713 70.3297 27.6122 70.6346 28.6457L70.7283 28.5282C71.5257 27.4487 73.6846 28.0595 73.0981 29.5157V29.5146Z" fill="#007EEF"/>
<path d="M92.4122 91.6675C91.9428 90.9159 91.45 90.2124 90.9335 89.5063C90.417 88.8002 90.1825 88.2852 89.7839 87.6978C89.3852 87.1104 89.4778 87.2766 89.0569 86.7114C88.6361 86.1462 88.353 85.6545 88.001 85.1376C87.649 84.6206 87.1796 84.0103 86.7572 83.47C86.1703 82.5774 84.9735 81.1211 84.8794 81.0273C84.2225 79.9701 83.3074 79.1012 82.5326 78.1144C82.4196 78.001 82.2837 77.913 82.134 77.8563C81.9843 77.7997 81.8242 77.7757 81.6645 77.7859C81.2888 77.6683 80.8431 77.7154 80.4674 77.6683L76.9709 77.5978C74.6945 77.5274 72.3943 77.6683 70.1179 77.6683C66.504 77.6683 62.9134 77.5978 59.2994 77.5745C56.0856 77.504 52.8688 77.6212 49.6772 77.6917C45.9225 77.7859 42.1911 77.903 38.436 78.1382C36.1595 78.2791 33.8361 78.3024 31.56 78.4904L30.0335 78.5368C29.7704 78.5277 29.5078 78.5674 29.2591 78.6539C29.0364 78.7417 28.8473 78.898 28.7193 79.1004H28.696C27.5459 80.5096 26.889 82.2243 25.9972 83.7744C25.1054 85.3244 24.1431 87.2038 23.1339 88.8714C22.4536 90.0696 21.7259 91.2203 21.1394 92.4418C20.7637 93.2639 20.318 94.2504 20.7871 95.1196L20.9278 95.3072C21.0516 95.5347 21.2498 95.7126 21.4893 95.811C21.7287 95.9094 21.9946 95.9223 22.2424 95.8475C23.5096 95.4952 23.6737 95.519 25.2932 95.331C27.4288 95.0491 29.5878 94.8845 31.7705 94.7906C38.5997 94.2974 45.4523 94.3913 52.3049 94.3445C57.1393 94.2741 61.9737 94.3208 66.8319 94.2504C73.0509 94.1094 79.2699 94.2503 85.4889 94.3913C87.1551 94.4617 88.845 94.5559 90.5112 94.5088C91.2151 94.4384 92.2011 94.6264 92.6938 94.039C92.8124 93.9447 92.9108 93.8275 92.9831 93.6943C93.0554 93.5612 93.1002 93.4148 93.1147 93.2639C93.2321 92.6298 92.7157 92.1366 92.4107 91.643L92.4122 91.6675Z" fill="#DBF122"/>
<path d="M95.9325 82.178C95.9045 82.0781 95.8539 81.9859 95.7847 81.9086C95.7156 81.8313 95.6296 81.7708 95.5335 81.7319L94.7358 81.262C93.8254 80.7515 92.8849 80.2965 91.9196 79.8996C89.6431 79.0304 87.2726 78.2553 84.8321 78.2086C81.3352 78.2791 77.862 79.2655 74.6705 80.6976L73.7316 81.1671L65.8464 81.308H60.4721C59.6978 81.308 59.6978 82.459 60.4721 82.4824H61.5281C61.411 83.2341 61.2702 84.0095 61.1998 84.7608C61.2197 84.8617 61.2595 84.9577 61.3169 85.043C58.6181 85.1839 55.896 85.2306 53.1734 85.2777C53.1972 85.2073 53.1972 85.1368 53.2205 85.0664C53.3575 84.3784 53.3891 83.6735 53.3142 82.976C53.3142 82.9055 53.2909 82.8113 53.2909 82.7175H53.7366L56.5058 82.4824C56.8815 82.4119 57.4213 82.4824 57.5855 82.0612C57.6286 81.9519 57.6393 81.8325 57.6163 81.7173C57.5934 81.6021 57.5376 81.496 57.4559 81.4117C57.3741 81.3274 57.2698 81.2685 57.1554 81.2421C57.0411 81.2157 56.9215 81.2229 56.8111 81.2628C56.199 81.3566 55.5906 81.4037 54.9804 81.4504C50.2401 81.8498 45.4761 81.944 40.7354 81.8969C36.9095 81.8969 33.1081 81.8031 29.3063 82.1554C28.5552 82.1554 28.5319 83.3061 29.3063 83.3298C31.2307 83.1651 33.1551 83.0947 35.0796 83.0713C34.8213 83.9639 34.7509 84.8799 34.5868 85.7725H34.5631L29.9636 85.9605H28.8135C28.6605 85.9644 28.5151 86.028 28.4082 86.1377C28.3014 86.2474 28.2416 86.3945 28.2416 86.5477C28.2416 86.7009 28.3014 86.848 28.4082 86.9577C28.5151 87.0674 28.6605 87.131 28.8135 87.1349H30.1748C29.9651 87.9867 29.8006 88.8489 29.682 89.7181C29.682 89.9532 29.6116 90.2113 29.6116 90.4227L28.1799 90.5169C27.8279 90.5873 27.4056 90.4698 27.1003 90.7516C27.0264 90.8377 26.9779 90.9427 26.9602 91.0548C26.9424 91.1669 26.9561 91.2817 26.9998 91.3864C27.0434 91.4912 27.1153 91.5817 27.2073 91.648C27.2994 91.7143 27.408 91.7537 27.5211 91.7618C37.9176 90.963 48.3375 90.5636 58.7574 90.4931L55.6848 92.5134C51.2023 95.5435 46.3679 98.7612 41.7202 100.499C38.5757 101.768 35.4075 102.731 32.38 102.848C30.8495 102.864 29.3222 102.707 27.8272 102.379C25.4804 101.909 24.0013 101.275 21.9601 100.124C19.919 98.9725 18.0887 97.3765 16.1643 95.3313C15.1783 94.1569 14.451 93.4994 13.8408 92.325C13.1839 90.6337 12.3388 88.0501 12.6441 85.9126C12.9501 82.2955 14.803 79.195 17.2906 75.836L17.7834 75.2234C17.9607 74.9527 18.1652 74.7008 18.3936 74.4717L18.4407 74.425L18.6048 74.2136C18.9042 73.8392 19.2605 73.5142 19.6608 73.2505C19.6609 73.2474 19.6615 73.2443 19.6627 73.2414C19.6638 73.2385 19.6655 73.2359 19.6677 73.2337C19.6698 73.2315 19.6724 73.2298 19.6753 73.2287C19.6784 73.2282 19.6815 73.2282 19.6845 73.2287C20.3183 72.6394 21.0193 72.1269 21.7731 71.702C23.2148 70.8407 24.7307 70.1102 26.3026 69.5194C27.593 69.0258 30.1748 68.5326 30.9258 68.4154C33.5775 68.0631 36.3467 67.8027 38.5294 68.3917C39.3271 68.603 39.8203 68.8849 40.7354 69.4255C41.0641 69.6136 41.3476 69.9658 41.721 70.0382C42.0944 70.1106 42.6361 69.2632 42.0967 68.9576C39.21 66.6559 36.0651 66.703 32.5702 67.0319C30.5191 67.2425 28.4921 67.6435 26.5153 68.2297C24.6292 68.8563 22.8188 69.6911 21.1173 70.7187C19.9939 71.4001 18.961 72.2208 18.0432 73.1613H18.0198C17.5267 73.6783 17.081 74.2419 16.6115 74.8056C16.1421 75.3693 16.0954 75.5331 15.7901 75.8862L15.5322 76.2385C14.2647 78.0704 13.0209 79.9498 12.3185 82.0635C11.7236 83.7055 11.414 85.4373 11.4033 87.1839C11.5613 89.1973 12.0691 91.1676 12.9038 93.0062C13.4674 94.0401 14.3122 94.9323 15.0865 95.8249C16.5657 97.4997 18.2341 98.997 20.0583 100.287C21.776 101.471 23.658 102.397 25.6441 103.035C27.7797 103.599 30.0091 104.021 32.2151 103.998C35.4537 103.88 38.5753 102.941 41.579 101.813C45.6624 100.24 49.4409 98.0554 53.0786 95.6362C55.6836 93.9214 58.2883 92.16 60.9167 90.4667H61.621C66.5725 90.4901 71.5481 90.7485 76.4996 90.7485C77.2744 90.7485 78.0721 90.7252 78.8464 90.6547C79.2221 90.631 79.7149 90.6781 79.8557 90.2553C79.9046 90.1601 79.9242 90.0525 79.9119 89.9461C79.8995 89.8397 79.8559 89.7394 79.7865 89.658C79.7404 89.604 79.6843 89.5595 79.6212 89.527C79.3392 89.3627 79.0109 89.5037 78.7294 89.5037C77.9785 89.5506 77.2274 89.5741 76.4763 89.5741H73.4959C73.535 89.2626 73.5506 88.9486 73.5426 88.6348C73.5346 87.935 73.4798 87.2365 73.3784 86.5441L73.308 86.0275C75.7253 86.0275 78.1669 85.957 80.5834 86.1684C80.6965 86.1603 80.8051 86.1209 80.8972 86.0547C80.9892 85.9884 81.0611 85.8978 81.1047 85.7931C81.1484 85.6883 81.1621 85.5735 81.1443 85.4614C81.1266 85.3493 81.0781 85.2444 81.0042 85.1583C80.6523 84.8764 80.1358 84.994 79.69 84.8998L77.1083 84.8531V84.806C77.0624 84.1734 76.9683 83.5452 76.8267 82.927C76.7797 82.739 76.7563 82.5509 76.7093 82.3633H78.6574C78.7468 82.3585 78.834 82.3342 78.913 82.292C78.9919 82.2498 79.0607 82.1908 79.1144 82.1191C79.1681 82.0474 79.2054 81.9648 79.2238 81.8772C79.2421 81.7895 79.241 81.6989 79.2206 81.6116C79.0798 81.1418 78.6085 81.1652 78.2113 81.1904H76.5922C78.6582 80.3917 81.3325 79.6871 83.3258 79.5228C85.3191 79.3585 86.9868 79.5933 89.1224 80.2274C91.1023 80.7918 92.997 81.6213 94.7549 82.6934C94.9895 82.8347 95.2244 83.0223 95.5293 82.9285C95.6024 82.9096 95.671 82.8761 95.7309 82.83C95.7907 82.784 95.8407 82.7263 95.8778 82.6605C95.9151 82.5947 95.9388 82.5222 95.9475 82.4471C95.9561 82.3721 95.9496 82.296 95.9283 82.2235L95.9325 82.178ZM62.3495 84.855C62.4669 84.08 62.5607 83.3045 62.7015 82.5529C62.7015 82.5295 62.7252 82.5061 62.7252 82.4824C65.6585 82.4824 68.6171 82.4357 71.5493 82.3886C69.8827 83.3516 68.2402 84.4322 66.5974 85.4657C66.6253 85.3404 66.6131 85.2094 66.5626 85.0914C66.512 84.9733 66.4257 84.8742 66.3158 84.8079C66.1046 84.6903 65.8464 84.7608 65.5889 84.7608L64.2498 84.855L62.3017 84.9959C62.3283 84.9532 62.3446 84.905 62.3495 84.855ZM45.0771 85.3011C45.1629 84.6944 45.202 84.0819 45.1941 83.4692C45.1981 83.3284 45.1903 83.1875 45.1708 83.048C47.4943 83.0242 49.8177 82.9538 52.1175 82.8129C52.2137 83.5001 52.1978 84.1985 52.0704 84.8806C52.0618 85.0251 52.0302 85.1674 51.9767 85.3019L45.0771 85.3723V85.3011ZM35.8306 85.3248C35.9257 84.5771 36.0828 83.8386 36.3 83.1169C36.2993 83.084 36.3073 83.0514 36.3234 83.0227H44.0444C44.0251 83.0753 44.017 83.1314 44.0207 83.1874C44.0207 83.6806 44.0207 84.1738 43.974 84.6425C43.9274 85.1112 43.8799 85.1357 43.9036 85.37L41.1107 85.4642C39.3271 85.5109 37.5438 85.6051 35.7835 85.6989C35.7862 85.5646 35.8019 85.4308 35.8306 85.2996V85.3248ZM38.6235 89.8579C36.0184 89.9754 33.4138 90.1397 30.8087 90.3277C30.804 90.1941 30.8118 90.0604 30.832 89.9283C30.8284 89.857 30.8364 89.7856 30.8558 89.7169C30.9728 88.8481 31.2078 87.9789 31.3719 87.1334V87.0863C34.024 86.9925 36.6757 86.8278 39.3041 86.734C38.9611 87.7468 38.7327 88.7949 38.6231 89.8586L38.6235 89.8579ZM46.8373 89.5056C44.4908 89.5684 42.1442 89.6623 39.7977 89.7874C39.8235 89.5352 39.8626 89.2846 39.9148 89.0365C40.1026 88.2381 40.2901 87.4631 40.5483 86.7114L43.7621 86.6172C47.8688 86.5 51.9759 86.5 56.0815 86.4058C56.246 87.2984 56.4335 88.191 56.5743 89.0836C56.6014 89.1673 56.6172 89.2542 56.6213 89.3421L46.8351 89.5297L46.8373 89.5056ZM60.59 89.2708H57.797C57.6796 88.4487 57.5155 87.6266 57.3513 86.8044C57.3066 86.6508 57.2751 86.4936 57.2572 86.3346C58.9705 86.3112 60.6623 86.2408 62.3499 86.1466C63.0246 86.1349 63.6982 86.0879 64.368 86.0057C64.368 86.0294 64.3447 86.0294 64.3447 86.0528L64.4151 86.8044L60.5892 89.2471L60.59 89.2708ZM64.603 89.3176H62.7489L63.5937 88.7776L64.5559 88.1669C64.5792 88.425 64.603 88.6601 64.603 88.9186C64.6265 89.058 64.6265 89.2004 64.603 89.3398V89.3176ZM65.5181 86.1232C65.5181 86.0761 65.4948 86.0057 65.4948 85.9352H65.8468L65.5885 86.0761L65.5181 86.1232ZM72.3707 89.2708C72.3526 89.3477 72.3448 89.4266 72.3474 89.5056L65.7997 89.3413C65.7996 88.9643 65.7761 88.5877 65.7293 88.2136L65.6589 87.4386L69.6486 84.9254C69.5739 85.0113 69.5248 85.1163 69.5066 85.2286C69.4885 85.3409 69.502 85.4561 69.5458 85.5611C69.5896 85.6661 69.6618 85.7568 69.7543 85.8229C69.8468 85.889 69.956 85.9279 70.0694 85.9352L72.1113 85.9823C72.2698 86.819 72.3561 87.6677 72.3692 88.5192L72.3707 89.2708ZM72.0187 84.7845C71.5497 84.7845 71.0565 84.8079 70.5649 84.7845C70.0732 84.7612 70.0721 84.6903 69.8379 84.8079L70.1195 84.6436C71.4104 83.8215 72.7246 83.0227 74.0602 82.3181H75.5141C75.7019 83.0932 75.8894 84.2676 75.9349 84.5261V84.8079C74.6467 84.8087 73.3325 84.832 72.0183 84.7853L72.0187 84.7845Z" fill="#162B43"/>
<path d="M55.708 61.6953C54.2763 61.8833 52.8684 61.86 51.4612 62.0016C50.9451 62.0721 50.3819 62.025 49.9358 62.2835C49.8258 62.366 49.7483 62.4846 49.7167 62.6185C49.685 62.7524 49.7014 62.8931 49.7629 63.0162C49.8244 63.1393 49.9271 63.2368 50.0531 63.2919C50.1791 63.3469 50.3204 63.3559 50.4523 63.3174C51.3908 63.0823 53.0103 63.0823 54.4183 62.9884L55.7091 62.8709C55.7836 62.874 55.8578 62.8609 55.9266 62.8325C55.9955 62.8042 56.0575 62.7612 56.1082 62.7066C56.1919 62.6258 56.2497 62.522 56.2743 62.4083C56.299 62.2945 56.2893 62.176 56.2465 62.0678C56.2038 61.9596 56.1299 61.8665 56.0342 61.8004C55.9385 61.7343 55.8254 61.6981 55.7091 61.6965L55.708 61.6953Z" fill="#162B43"/>
<path d="M61.129 61.5549L59.0875 61.672C58.8292 61.7191 58.5243 61.672 58.3365 61.8834C58.2528 61.9642 58.1949 62.068 58.1703 62.1818C58.1457 62.2955 58.1553 62.414 58.1981 62.5222C58.2408 62.6304 58.3147 62.7235 58.4104 62.7896C58.5061 62.8557 58.6192 62.8919 58.7355 62.8935L60.6129 62.7526C60.9415 62.7293 61.3168 62.7997 61.5514 62.5646C61.6365 62.4826 61.6949 62.3768 61.7189 62.261C61.7429 62.1452 61.7314 62.0249 61.6859 61.9157C61.6404 61.8066 61.5631 61.7137 61.464 61.6493C61.3649 61.5849 61.2486 61.552 61.1305 61.5549H61.129Z" fill="#162B43"/>
<path d="M68.4276 32.1936C67.6763 33.5062 66.7173 34.6881 65.588 35.6935C65.3768 35.952 65.0011 36.1147 64.837 36.4211C64.7703 36.5485 64.7527 36.6961 64.7875 36.8356C64.8223 36.9752 64.9071 37.0972 65.0258 37.1783C65.1446 37.2594 65.2889 37.2941 65.4315 37.2757C65.574 37.2573 65.7049 37.1871 65.7992 37.0786C67.2057 35.9107 68.4039 34.5123 69.3428 32.943C69.9063 32.2407 68.9441 31.442 68.4276 32.1936Z" fill="#162B43"/>
<path d="M39.6558 32.687C40.38 33.9919 41.3068 35.1733 42.4016 36.1869C42.6128 36.4688 42.9648 36.6081 43.1285 36.9386C43.1702 37.0606 43.1706 37.193 43.1297 37.3153C43.0887 37.4376 43.0086 37.543 42.9018 37.6152C42.795 37.6873 42.6674 37.7223 42.5387 37.7146C42.4101 37.7069 42.2875 37.6571 42.19 37.5727C40.8201 36.4003 39.6612 35.0015 38.7635 33.4372C38.2008 32.7575 39.1393 31.9591 39.6558 32.687Z" fill="#162B43"/>
<path d="M68.3573 27.9431C68.3573 27.7551 68.3339 27.8489 68.3106 27.4733C68.2873 27.0976 68.2398 26.2284 68.1694 25.6176C68.099 25.0069 68.1461 24.7484 67.7486 24.5608C67.5072 24.4452 67.2417 24.3888 66.9742 24.3961C67.0921 24.321 67.1763 24.2031 67.2091 24.0672C67.467 22.727 67.3733 21.3661 67.3029 20.0274L67.1621 18.7825C67.115 18.3613 66.9038 18.0075 66.4581 17.937C63.3132 17.4201 60.0746 17.7961 56.9063 17.8899H56.8597C53.0575 17.9133 49.2323 17.9837 45.4305 18.1962H42.1686C39.7965 18.2667 37.3575 18.1258 35.034 18.6194C33.9077 19.0406 33.9543 20.9682 33.9543 21.978C33.9461 22.7806 34.0089 23.5824 34.1422 24.3739C34.33 25.1723 35.2452 25.2899 35.9258 25.3841C36.6065 25.4783 37.9207 25.4779 38.9299 25.525C38.891 25.8532 38.8989 26.1853 38.9533 26.5114C39.0707 27.3098 39.1174 28.1556 39.399 28.9307C39.5164 29.1654 39.7747 29.2596 39.9859 29.4005L40.2441 29.6119C40.9903 30.2648 41.7031 30.9549 42.3798 31.6797C42.3508 31.7547 42.3349 31.834 42.3327 31.9144C42.2322 32.0017 42.1643 32.1205 42.1402 32.2515C42.1161 32.3824 42.1371 32.5177 42.1998 32.6351C42.2626 32.7525 42.3633 32.8451 42.4855 32.8977C42.6078 32.9503 42.7442 32.9598 42.8725 32.9245C43.4124 32.7836 44.8436 32.8303 45.8762 32.8303H46.3927C46.4306 32.5859 46.5366 32.3571 46.6985 32.1702C46.8603 31.9833 47.0715 31.8458 47.3079 31.7735C47.4728 31.7273 47.6452 31.7145 47.8151 31.7357C47.985 31.7569 48.149 31.8117 48.2975 31.8969C48.446 31.9822 48.5761 32.0961 48.6802 32.2322C48.7842 32.3683 48.8602 32.5237 48.9037 32.6894C48.9093 32.7291 48.9172 32.7683 48.9274 32.807C49.7955 32.8304 50.6403 32.8774 51.4854 32.9713C52.9393 33.0655 54.3717 33.0184 55.8271 32.995H57.634C58.1035 32.1024 58.7837 31.0452 59.9104 31.0923C60.1927 31.101 60.4651 31.1988 60.6885 31.3718C60.9119 31.5448 61.0749 31.784 61.1542 32.0553C61.2278 32.2989 61.2437 32.5562 61.2009 32.807C62.3743 32.7836 63.5244 32.8774 64.6978 32.7836C65.0498 32.7132 65.2143 32.3624 65.3784 32.0561C65.5426 31.7497 65.7071 31.3749 65.8949 31.0459C66.5048 29.7057 67.1854 29.4021 68.267 28.5328C68.3272 28.4536 68.3672 28.3608 68.3835 28.2626C68.3999 28.1644 68.392 28.0637 68.3607 27.9692L68.3573 27.9431Z" fill="#4ADEFF"/>
<path d="M65.3535 15.118C65.2857 14.5408 65.1834 13.9682 65.0475 13.4033C65.0188 13.1508 64.9201 12.9113 64.7624 12.7121C64.6048 12.5129 64.3946 12.3618 64.1556 12.2759C62.8414 11.8528 61.4335 11.9233 60.0722 11.8999C58.711 11.8766 57.1856 11.7356 55.7306 11.7356C51.6472 11.7824 47.5638 11.5947 43.4804 11.947C41.204 12.1584 38.8805 12.2534 36.6041 12.6045C35.6419 12.9108 35.7123 15.4469 35.689 16.3391C35.7018 16.7542 35.7729 17.1654 35.9002 17.5606C35.9939 17.867 36.088 18.1948 36.3929 18.3594H36.4867C36.5925 18.4473 36.7249 18.4969 36.8624 18.5003C38.5286 18.5708 40.1947 18.2419 41.8846 18.2652C43.5745 18.2886 45.6864 18.101 47.5852 18.1481C49.484 18.1952 51.3637 18.0776 53.2648 18.1714C55.1659 18.2652 56.8788 18.101 58.6857 18.101C60.4927 18.101 62.5346 17.9367 64.4824 17.9834C65.163 18.0305 65.4446 17.4902 65.4446 16.8794C65.4602 16.2828 65.4289 15.6859 65.3508 15.0943L65.3535 15.118Z" fill="#007EEF"/>
<path d="M34.7276 28.4824C34.9158 28.1477 35.2267 27.8994 35.5945 27.7898C35.9623 27.6803 36.3583 27.7182 36.6987 27.8954C36.9037 28.0223 37.0998 28.163 37.2856 28.3166C37.416 28.0733 37.6109 27.8706 37.8488 27.7308C39.867 26.7915 42.5658 31.7476 43.4109 33.2506C43.8018 34.0716 44.3431 34.812 45.0067 35.4332C45.405 35.6712 45.8304 35.8604 46.2738 35.9969H46.3676C45.8748 34.6567 45.5932 33.1315 46.2738 31.8395C46.9545 30.5475 48.4798 31.3697 49.3246 31.9804C51.4369 33.4838 52.587 36.044 52.8444 38.6276C53.135 41.3089 52.9524 44.0206 52.305 46.6387C52.1175 47.3662 51.0378 47.0599 51.2257 46.3097C51.6951 44.1489 51.9063 42.6693 51.8359 40.3672C51.7655 38.0651 51.5299 36.5154 50.3105 34.636C50.081 34.3142 49.8301 34.0082 49.5595 33.72C49.3839 33.5277 49.1958 33.3472 48.9963 33.1797C48.3861 32.7336 47.7992 32.3814 47.4239 32.2872H47.3298C47.0344 32.8154 46.9265 33.4282 47.0237 34.0256C47.1288 34.7116 47.318 35.3821 47.5869 36.0218C47.8218 36.5621 48.2675 37.0557 48.4083 37.5956C48.428 37.7021 48.4166 37.8121 48.3756 37.9123C48.3345 38.0126 48.2654 38.0989 48.1766 38.1609C48.0879 38.2229 47.9831 38.258 47.8749 38.262C47.7667 38.2659 47.6597 38.2387 47.5666 38.1834C47.3317 38.0187 47.2605 37.7369 47.0972 37.5022L47.0268 37.3846C46.9883 37.398 46.9474 37.4029 46.9069 37.3988C46.8664 37.3948 46.8273 37.382 46.7922 37.3612C46.0175 37.1261 45.1961 36.9148 44.4921 36.4687C42.9434 35.2942 42.3331 33.4152 41.2535 31.8414C40.4558 30.6437 40.0567 29.9858 38.9537 29.0227C38.8083 28.8954 38.6287 28.8138 38.4372 28.788H38.3435L38.2964 28.8585C38.2731 28.9052 38.2731 28.9523 38.2498 28.9994C38.172 29.3887 38.1874 29.7908 38.2945 30.173C38.3416 30.4794 38.5057 30.7857 38.459 31.1123C38.4432 31.2534 38.3748 31.3832 38.2675 31.4759C38.1602 31.5686 38.0219 31.6174 37.8802 31.6124C37.7859 31.61 37.6937 31.5837 37.6124 31.5359C37.2367 31.2778 37.2837 30.7375 37.1663 30.3381C37.1119 30.1069 37.0805 29.8709 37.0725 29.6335L36.9317 29.5159C36.7002 29.3042 36.4487 29.1154 36.1807 28.9523L36.0162 28.8818H35.9458C35.453 28.9756 35.3122 30.4085 35.453 31.3949C35.9125 33.856 36.9598 36.1694 38.5057 38.1378C39.6087 39.6412 41.2282 40.8627 42.3546 41.7082C42.9415 42.178 43.6454 42.4357 44.1853 42.9293C44.7251 43.4229 44.5843 43.9395 44.5843 44.4564C44.5606 45.3957 44.0208 46.4292 43.8574 46.8757C43.4365 48.0245 43.1064 49.2245 42.5902 50.3519C42.5473 50.4278 42.4873 50.4928 42.415 50.5416C42.3427 50.5904 42.2601 50.6218 42.1736 50.6332C42.0872 50.6445 41.9992 50.6357 41.9168 50.6073C41.8343 50.5789 41.7596 50.5317 41.6984 50.4694C41.4402 50.211 41.5339 49.8567 41.6984 49.5768C41.8629 49.2969 42.4024 47.5565 42.7544 46.5701C43.1064 45.5837 43.5525 44.5736 43.435 44.057C43.4145 43.9446 43.3832 43.8344 43.3413 43.7281C42.375 43.1621 41.4567 42.5179 40.5954 41.802C38.5856 40.2697 36.9485 38.3018 35.8069 36.0459C35.2437 34.7057 34.6335 33.3448 34.399 31.8885C34.1644 30.4323 34.1641 29.5159 34.7276 28.4824Z" fill="#162B43"/>
<path d="M55.0746 56.2461C52.9152 56.3166 52.9152 59.4626 55.0746 59.5346C57.2339 59.6066 57.2335 56.3166 55.0746 56.2461Z" fill="#007EEF"/>
<path d="M73.3326 27.5438C73.1311 27.2041 72.8076 26.9541 72.4282 26.8451C72.0487 26.736 71.642 26.7762 71.2911 26.9572C71.0799 27.0748 70.8921 27.239 70.6809 27.3784C70.5573 27.1299 70.3608 26.9251 70.1177 26.7914C68.0288 25.8517 65.2362 30.8079 64.3678 32.3112C63.976 33.144 63.4169 33.8871 62.7253 34.4939C62.3136 34.7385 61.8716 34.9282 61.4107 35.0579H61.3399C61.8331 33.7177 62.1147 32.1921 61.4341 30.9002C60.7534 29.6082 59.1576 30.4303 58.2658 31.0411C56.1069 32.5444 54.9097 35.1046 54.6515 37.6886C54.3379 40.369 54.5209 43.0842 55.1913 45.6982C55.4025 46.4257 56.5055 46.1194 56.3181 45.3692C55.8249 43.2084 55.6137 41.7284 55.6841 39.4267C55.7545 37.1249 56.0127 35.5745 57.2565 33.6955C57.4964 33.3749 57.7551 33.069 58.0313 32.7791C58.125 32.662 58.5707 32.2859 58.6178 32.2392C59.1027 31.8515 59.6503 31.5496 60.2369 31.3466H60.331C60.6265 31.8747 60.7344 32.4874 60.6371 33.0847C60.5546 33.7756 60.3646 34.4492 60.0739 35.0813C59.8394 35.6216 59.37 36.1152 59.2058 36.6551C59.192 36.7629 59.2084 36.8725 59.2531 36.9716C59.2979 37.0706 59.3692 37.1553 59.4592 37.2162C59.5493 37.2771 59.6544 37.3117 59.7629 37.3163C59.8715 37.3209 59.9791 37.2952 60.0739 37.2421C60.3322 37.0778 60.4259 36.796 60.5667 36.5609L60.6371 36.4437C60.6757 36.4569 60.7167 36.4616 60.7573 36.4575C60.7979 36.4533 60.837 36.4402 60.872 36.4192C61.6935 36.1845 62.5382 35.9731 63.2655 35.5266C64.8613 34.3522 65.4953 32.4732 66.5983 30.8994C67.4197 29.7016 67.8421 29.0437 68.9684 28.0807C69.1245 27.9562 69.3108 27.8752 69.5083 27.846H69.602L69.649 27.9164C69.675 27.9593 69.6911 28.0074 69.6961 28.0573C69.7844 28.4461 69.7681 28.8513 69.649 29.2318C69.6257 29.5381 69.4379 29.8425 69.4849 30.1715C69.4994 30.2653 69.5365 30.3542 69.5929 30.4305C69.6493 30.5069 69.7233 30.5684 69.8087 30.6098C69.894 30.6512 69.9881 30.6713 70.0829 30.6683C70.1778 30.6653 70.2704 30.6394 70.353 30.5927C70.7287 30.3342 70.705 29.7939 70.8225 29.3945C70.9399 28.9951 70.8929 28.925 70.9162 28.6899L71.057 28.5728C71.2968 28.3607 71.5563 28.1718 71.8317 28.0087L71.9959 27.9383H72.0663C72.5824 28.0325 72.7232 29.465 72.5824 30.4518C72.1017 32.9221 71.0219 35.2365 69.4379 37.1912C68.2878 38.6945 66.6216 39.916 65.4715 40.7615C64.8594 41.2314 64.1325 41.4891 63.5708 41.9831C63.0092 42.477 63.1718 42.9932 63.1718 43.5098C63.1951 44.4495 63.735 45.483 63.9228 45.9291C64.3685 47.0801 64.6972 48.2779 65.2137 49.4052C65.2593 49.4816 65.3216 49.5465 65.3959 49.5952C65.4702 49.644 65.5546 49.6752 65.6427 49.6865C65.7308 49.6978 65.8204 49.6889 65.9046 49.6606C65.9888 49.6322 66.0655 49.5851 66.1288 49.5228C66.4104 49.2643 66.3167 48.9101 66.1522 48.6302C65.9877 48.3503 65.4252 46.6103 65.0492 45.6239C64.6731 44.6375 64.2277 43.6273 64.3685 43.1104L64.4389 42.7814H64.4626C65.4512 42.2158 66.393 41.5718 67.2789 40.8557C69.3409 39.3441 71.0268 37.3768 72.2055 35.1069C72.8177 33.7667 73.426 32.4058 73.6838 30.9495C73.9417 29.4933 73.9195 28.5773 73.3326 27.5438Z" fill="#162B43"/>
<path d="M51.4135 23.9734C51.1315 23.8091 50.8013 23.9734 50.5216 23.9734C47.3079 24.3946 44.0677 24.3946 40.8291 24.4903C40.0547 24.5371 39.2566 24.5608 38.4823 24.6313C38.1536 24.7017 37.7554 24.6546 37.4493 24.8426C37.1432 25.0306 37.3789 26.0638 37.9658 25.8765C41.7676 25.4553 47.0244 25.759 51.3427 25.0306C51.4391 24.9834 51.5214 24.9116 51.5812 24.8224C51.6411 24.7332 51.6763 24.6298 51.6835 24.5226C51.6906 24.4154 51.6694 24.3082 51.6219 24.2119C51.5744 24.1155 51.5024 24.0334 51.4131 23.9738L51.4135 23.9734Z" fill="#162B43"/>
<path d="M61.1994 24.0212C60.8934 23.8569 60.5425 23.9741 60.2139 23.9741L56.6233 24.115C55.6377 24.1387 54.6284 24.0916 53.6662 24.2092C53.4317 24.2563 53.1734 24.2326 53.0093 24.4206C52.9256 24.5013 52.8678 24.6051 52.8432 24.7188C52.8185 24.8325 52.8282 24.951 52.8709 25.0592C52.9136 25.1674 52.9874 25.2605 53.083 25.3266C53.1787 25.3928 53.2918 25.429 53.408 25.4307C54.3939 25.2661 55.3795 25.3132 56.365 25.2894C57.3506 25.2657 58.5458 25.1956 59.627 25.1723L60.8945 25.1018C61.0201 25.0991 61.1415 25.0562 61.2409 24.9793C61.3403 24.9024 61.4124 24.7957 61.4467 24.6747C61.4809 24.5538 61.4755 24.425 61.4312 24.3074C61.3869 24.1897 61.3061 24.0894 61.2006 24.0212H61.1994Z" fill="#162B43"/>
<path d="M63.2883 24.1387C62.5139 24.1387 62.5139 25.2874 63.2883 25.3131C63.4413 25.3092 63.5867 25.2456 63.6936 25.1359C63.8004 25.0262 63.8602 24.8791 63.8602 24.7259C63.8602 24.5727 63.8004 24.4256 63.6936 24.3159C63.5867 24.2062 63.4413 24.1426 63.2883 24.1387Z" fill="#162B43"/>
<path d="M99.5464 82.0596C98.8895 81.4726 98.1385 80.9089 97.223 80.8618H96.7772L96.5427 80.8147C94.2896 80.7443 93.0229 82.3418 92.506 84.3618C92.2952 85.2974 92.2952 86.2682 92.506 87.2038C92.6923 88.5417 93.182 89.8192 93.9377 90.9384C95.6976 93.7571 99.3119 93.7805 100.767 90.68C101.94 88.073 101.823 84.0328 99.5464 82.0363V82.0596Z" fill="#007EEF"/>
<path d="M80.4433 23.1742C80.0447 23.0095 79.5986 23.0566 79.1528 23.0332C78.7071 23.0099 78.3781 22.9628 78.0261 23.08C77.9013 23.1332 77.7988 23.2281 77.736 23.3485C77.6733 23.4688 77.6541 23.6073 77.6818 23.7402C77.7095 23.8731 77.7823 23.9923 77.8879 24.0775C77.9935 24.1628 78.1254 24.2088 78.261 24.2077H79.7393C79.9505 24.2077 80.1854 24.3015 80.3729 24.1839C80.477 24.1475 80.568 24.0813 80.6349 23.9935C80.7017 23.9058 80.7413 23.8003 80.7488 23.6902C80.7563 23.5801 80.7313 23.4703 80.677 23.3743C80.6227 23.2782 80.5415 23.2003 80.4433 23.15V23.1742Z" fill="white"/>
<path d="M83.2595 36.5167C83.1891 33.7685 83.2125 30.9969 82.7901 28.2487C82.6653 27.4948 82.4929 26.7495 82.274 26.0174C82.1799 25.7356 82.1565 25.3833 81.8749 25.2186C81.7745 25.1583 81.6583 25.1293 81.5414 25.1356C81.4244 25.1419 81.312 25.183 81.2186 25.2538C81.1251 25.3245 81.055 25.4217 81.0172 25.5326C80.9794 25.6436 80.9757 25.7634 81.0065 25.8765C82.1565 29.376 81.9924 32.9222 82.0861 36.8457C82.0157 37.2918 82.3444 37.7616 82.8371 37.6207C83.3299 37.4798 83.2829 36.9395 83.2595 36.5167Z" fill="white"/>
<path d="M62.2791 69.0029C62.0208 68.862 61.6922 68.9796 61.4106 68.9796L59.5803 69.1676C57.867 69.4023 56.1304 69.5199 54.3939 69.238C53.502 68.9796 53.1967 70.3182 54.1356 70.3887C55.1919 70.5449 56.2599 70.6078 57.3272 70.5767C58.6414 70.4829 59.9323 70.2704 61.2465 70.1773C61.6218 70.0835 62.0912 70.2011 62.3965 69.9426C62.4588 69.8769 62.5057 69.7982 62.5339 69.7121C62.5622 69.6261 62.571 69.5348 62.5597 69.445C62.5485 69.3551 62.5175 69.2688 62.469 69.1924C62.4205 69.116 62.3556 69.0512 62.2791 69.0029Z" fill="white"/>
<path d="M63.8982 69.1895C63.1238 69.2132 63.1238 70.3639 63.8982 70.3639C64.6725 70.3639 64.6729 69.2132 63.8982 69.1895Z" fill="white"/>
<path d="M89.5961 91.3141C88.2348 91.6204 87.1789 91.6901 85.536 91.8076C82.6261 92.114 79.669 92.2066 76.7365 92.3713C75.9858 92.3713 75.9621 93.522 76.7365 93.5457C79.6702 93.3811 82.6039 93.2873 85.536 92.9821C87.0085 92.9039 88.4744 92.7313 89.9247 92.4651C90.0773 92.4215 90.2062 92.319 90.2832 92.1803C90.3602 92.0415 90.379 91.8778 90.3355 91.7251C90.2919 91.5725 90.1895 91.4434 90.0508 91.3663C89.9122 91.2892 89.7486 91.2704 89.5961 91.3141Z" fill="white"/>
<path d="M74.0131 92.2539C73.2388 92.2539 73.2388 93.405 74.0131 93.4283C74.7875 93.4517 74.7875 92.2539 74.0131 92.2539Z" fill="white"/>
<path d="M95.6966 63.0108C95.3446 62.8461 94.9222 62.9871 94.5469 62.9637C87.741 63.1517 80.9351 63.8563 74.1548 64.3966C70.3763 64.7029 66.5983 64.8898 62.8198 64.9132L61.317 64.8657C61.2393 64.8624 61.1618 64.8753 61.0893 64.9036C61.0169 64.9318 60.9511 64.9749 60.8961 65.03C60.8111 65.112 60.7527 65.2179 60.7288 65.3337C60.7048 65.4494 60.7163 65.5698 60.7618 65.6789C60.8072 65.7881 60.8846 65.8809 60.9836 65.9454C61.0827 66.0098 61.1989 66.0428 61.317 66.0401C67.4423 66.2277 73.5438 65.6189 79.6458 65.1004C83.3068 64.8186 86.9678 64.5134 90.6288 64.2783C91.8255 64.2316 92.9989 64.1607 94.1961 64.1374C94.6651 64.0903 95.1583 64.1845 95.6273 64.0669C95.7239 64.0198 95.8062 63.948 95.8662 63.8588C95.9261 63.7696 95.9614 63.6661 95.9685 63.5589C95.9757 63.4516 95.9544 63.3444 95.9068 63.248C95.8593 63.1517 95.7872 63.0696 95.6977 63.01L95.6966 63.0108Z" fill="#162B43"/>
<path d="M101.025 65.2664C100.697 64.9375 100.25 65.1489 99.8518 65.1489C96.2141 65.5483 92.5298 65.4307 88.8688 65.6187C85.2078 65.8067 81.1022 66.159 77.2285 66.5113C75.0691 66.7464 72.8868 67.0045 70.7041 67.2159C69.9531 67.2159 69.9298 68.3903 70.7041 68.3903C76.3837 67.8033 82.0395 67.1454 87.7187 66.8403C92.0133 66.6051 96.3316 66.7464 100.603 66.2529C100.716 66.251 100.826 66.2163 100.921 66.153C101.015 66.0897 101.088 66.0005 101.133 65.8962C101.177 65.7919 101.191 65.6769 101.171 65.5652C101.152 65.4534 101.101 65.3497 101.024 65.2664H101.025Z" fill="#162B43"/>
<path d="M15.7886 64.3508L12.9957 64.4212C12.0335 64.4679 11.0713 64.4679 10.1091 64.4446C9.75707 64.4679 9.38213 64.3508 9.0531 64.4679C8.72407 64.5851 8.65444 65.5945 9.28801 65.5945C10.9309 65.665 12.55 65.6179 14.1928 65.5708L15.6245 65.524C15.9061 65.5474 16.2347 65.4536 16.3284 65.1717C16.3675 65.0822 16.3837 64.9843 16.3754 64.887C16.3672 64.7896 16.3348 64.6959 16.2812 64.6142C16.2276 64.5326 16.1544 64.4656 16.0684 64.4194C15.9824 64.3732 15.8862 64.3492 15.7886 64.3496V64.3508Z" fill="white"/>
<path d="M16.7742 66.3C16.563 65.713 15.6478 65.9244 15.6478 66.5351C15.6478 67.1459 15.6011 67.6862 15.5541 68.2499C15.507 68.8135 15.46 68.884 15.6949 69.0954C15.7755 69.1792 15.8793 69.2371 15.9929 69.2618C16.1065 69.2865 16.2249 69.2768 16.333 69.234C16.4411 69.1912 16.5341 69.1172 16.6001 69.0214C16.6661 68.9256 16.7022 68.8123 16.7038 68.696C16.7508 68.1557 16.7745 67.6157 16.7979 67.0754C16.8212 66.5351 16.8916 66.5351 16.7742 66.3Z" fill="white"/>
<path d="M62.3263 14.249C62.2792 13.8967 62.3967 13.4506 62.1151 13.145C62.0319 13.0678 61.9282 13.0164 61.8165 12.997C61.7048 12.9775 61.5899 12.9909 61.4856 13.0354C61.3813 13.08 61.2921 13.1538 61.2289 13.248C61.1656 13.3422 61.131 13.4528 61.1292 13.5662C61.1529 14.5059 61.1995 15.469 61.2466 16.4083C61.2937 17.3476 62.3967 17.1837 62.42 16.4083C62.4433 15.6329 62.3496 14.9773 62.3263 14.249Z" fill="#DBF122"/>
<path d="M60.4485 15.8004C60.4485 14.9078 60.4252 14.0152 60.4018 13.1226C60.4008 12.9667 60.3422 12.8167 60.2373 12.7014C60.1554 12.6162 60.0496 12.5578 59.934 12.5337C59.8183 12.5097 59.698 12.5212 59.589 12.5667C59.4799 12.6123 59.3872 12.6897 59.3228 12.7889C59.2585 12.8881 59.2256 13.0044 59.2284 13.1226C59.2518 13.9681 59.2751 14.8373 59.2751 15.7062C59.3222 15.988 59.2284 16.3169 59.3455 16.5988C59.3836 16.6845 59.4417 16.7599 59.5149 16.8186C59.5882 16.8772 59.6744 16.9175 59.7664 16.9359C59.8583 16.9543 59.9534 16.9504 60.0435 16.9244C60.1336 16.8985 60.2162 16.8513 60.2844 16.7868C60.566 16.5283 60.4485 16.1289 60.4485 15.8004Z" fill="#DBF122"/>
<path d="M43.6688 19.2524C42.2609 19.3933 40.8292 19.3696 39.3975 19.3696H39.3027C38.7628 19.3696 38.2467 19.3933 37.7069 19.3462C37.4194 19.3034 37.1278 19.2956 36.8384 19.3229C36.4175 19.44 36.3223 19.8394 36.369 20.2154C36.3693 20.4277 36.3851 20.6396 36.416 20.8496L36.4864 22.2825C36.5101 22.5888 36.4397 22.9166 36.5805 23.2218C36.7213 23.5269 37.4957 23.4802 37.9651 23.4569C38.3863 23.4174 38.8093 23.4017 39.2323 23.4098C39.5839 23.4331 39.9366 23.4331 40.2882 23.4098C41.063 23.4331 41.8373 23.4331 42.5884 23.3864C43.3394 23.3397 43.9729 23.316 44.2075 22.4701C44.3719 21.786 44.4429 21.0829 44.4187 20.3797C44.4435 19.8632 44.3494 19.2053 43.6688 19.2524Z" fill="white"/>
<path d="M46.3676 19.2527C46.1564 18.6653 45.2179 18.8533 45.2413 19.4874C45.2646 20.1215 45.2179 21.0849 45.1709 21.9067C45.1709 22.1885 45.0534 22.4941 45.1709 22.7526C45.2044 22.8424 45.2604 22.9223 45.3334 22.9845C45.4064 23.0467 45.4941 23.0892 45.5881 23.108C45.6821 23.1267 45.7794 23.1212 45.8707 23.0918C45.962 23.0625 46.0442 23.0103 46.1097 22.9402C46.3913 22.6584 46.2739 22.1885 46.3443 21.8129C46.4147 21.4372 46.3676 20.568 46.3913 19.9339C46.4304 19.7076 46.4223 19.4757 46.3676 19.2527Z" fill="white"/>
<path d="M72.5114 10.3496C72.1123 10.373 71.8545 10.7253 71.5258 10.9133C70.8929 11.3947 70.2348 11.8421 69.5543 12.2535C69.1557 12.5353 68.6392 12.6747 68.2872 13.0285C67.9352 13.3823 68.4984 14.2263 69.0382 13.8974C70.073 13.352 71.0619 12.7236 71.9953 12.0184L72.793 11.4314C72.8625 11.3964 72.9236 11.3468 72.9722 11.286C73.0208 11.2252 73.0557 11.1546 73.0745 11.0791C73.0957 10.9931 73.0972 10.9035 73.0789 10.8169C73.0606 10.7303 73.0229 10.649 72.9687 10.579C72.9146 10.509 72.8453 10.4522 72.7661 10.4128C72.6869 10.3734 72.5998 10.3525 72.5114 10.3515V10.3496Z" fill="#162B43"/>
<path d="M69.0849 4.14848C68.4043 4.00756 68.1931 4.85305 67.8645 5.25244L66.996 6.52068L65.8482 8.18868C65.7074 8.47051 65.4021 8.70525 65.3554 9.01043C65.3088 9.31562 66.1298 9.92677 66.4347 9.38646C67.4207 7.97731 68.4062 6.56778 69.3447 5.11153C69.4128 5.03865 69.4612 4.94962 69.4853 4.85285C69.5095 4.75607 69.5086 4.65473 69.4828 4.55837C69.457 4.46202 69.4071 4.37383 69.3379 4.30211C69.2686 4.2304 69.1822 4.17753 69.0868 4.14848H69.0849Z" fill="#162B43"/>
<path d="M58.3131 0.156145C58.2547 0.209893 58.208 0.275056 58.1758 0.347605C58.1437 0.420034 58.1266 0.498163 58.1253 0.577358C58.1019 0.953388 58.0782 1.32903 58.0315 1.70506L57.7496 5.20726L57.6088 6.42878C57.5816 6.57729 57.5897 6.73012 57.6325 6.87489C57.867 7.46229 58.7822 7.27428 58.7588 6.66352C58.9938 4.6436 59.1345 2.60033 59.2987 0.580039C59.2969 0.466559 59.2624 0.356013 59.1992 0.261784C59.136 0.167555 59.0468 0.0936839 58.9426 0.0491138C58.8383 0.00454365 58.7233 -0.00881418 58.6116 0.0106575C58.4999 0.0301291 58.3962 0.0815952 58.3131 0.158825V0.156145Z" fill="#162B43"/>
<path d="M50.9203 6.80416C50.5813 5.79522 50.2993 4.76801 50.0755 3.72738C49.9114 3.21044 49.8877 2.64678 49.6547 2.17693C49.5611 2.06539 49.4308 1.991 49.2873 1.9672C49.1437 1.94339 48.9964 1.97174 48.8719 2.04712C48.7894 2.09684 48.7199 2.16549 48.6691 2.24739C48.4813 2.64678 48.7629 3.09327 48.8099 3.51601C49.0678 4.5499 49.3027 5.58379 49.6076 6.59279C49.7484 6.89912 49.7484 7.274 50.0537 7.46202C50.1551 7.51154 50.2682 7.53197 50.3805 7.52104C50.4928 7.5101 50.5998 7.46823 50.6897 7.40008C50.7797 7.33192 50.849 7.24015 50.8899 7.13495C50.9309 7.02976 50.9419 6.91525 50.9218 6.80416H50.9203Z" fill="#162B43"/>
<path d="M22.0314 42.4121C20.2007 42.5768 18.3704 42.7881 16.5164 42.8586C14.2866 42.9291 12.0573 42.9524 9.80457 43.0466C9.71505 43.051 9.6276 43.075 9.54843 43.1171C9.46926 43.1591 9.40032 43.2181 9.34651 43.2898C9.29271 43.3615 9.25536 43.4443 9.23712 43.5321C9.21889 43.6199 9.22022 43.7107 9.24101 43.7979C9.40553 44.3382 9.99204 44.2191 10.4381 44.1973C12.5738 44.1035 14.7094 44.1268 16.845 44.0093C18.5816 43.9388 20.2948 43.7512 22.0314 43.5881C22.8058 43.5865 22.8058 42.4359 22.0314 42.4121Z" fill="#162B43"/>
<path d="M20.5059 44.5496C20.1773 44.3853 19.779 44.5262 19.4263 44.5025C15.3429 44.5025 11.2828 44.9957 7.19942 45.23L3.65548 45.371C3.20977 45.3943 2.74033 45.2771 2.29461 45.3943C1.84889 45.5115 1.89557 46.5454 2.52914 46.522C6.61253 46.5687 10.6726 46.1226 14.756 45.8408C16.1406 45.7466 17.5252 45.6999 18.9098 45.6761C19.4263 45.6294 19.9661 45.7233 20.4355 45.6057C20.5382 45.5645 20.6272 45.4952 20.6922 45.4056C20.7573 45.316 20.7957 45.2099 20.803 45.0994C20.8104 44.989 20.7864 44.8787 20.7338 44.7812C20.6813 44.6838 20.6023 44.6033 20.5059 44.5488V44.5496Z" fill="#162B43"/>
<path d="M98.0444 85.3027C97.7104 84.4774 97.3183 83.6769 96.871 82.9071C96.6365 82.5782 96.5428 82.1084 96.1441 81.9674C96.0315 81.9426 95.9142 81.9502 95.8057 81.9892C95.6972 82.0282 95.6018 82.097 95.5307 82.1879C95.4596 82.2787 95.4156 82.3878 95.4037 82.5026C95.3918 82.6174 95.4125 82.7332 95.4635 82.8367C95.9632 83.6566 96.4176 84.5034 96.8247 85.3731L97.2001 86.3599C97.2513 86.5059 97.3506 86.6301 97.4816 86.7122C97.5587 86.7543 97.6443 86.7785 97.732 86.7831C97.8197 86.7877 97.9073 86.7726 97.9884 86.7388C98.0695 86.705 98.1419 86.6534 98.2004 86.5878C98.2589 86.5222 98.302 86.4444 98.3264 86.3599C98.4201 85.9839 98.1386 85.6316 98.0444 85.3027Z" fill="white"/>
<path d="M30.8318 10.6792C29.7821 10.4329 28.7151 10.2679 27.6402 10.1856C27.3115 10.1622 26.9362 10.0447 26.7013 10.3031C26.6162 10.3852 26.5579 10.4911 26.5339 10.6068C26.51 10.7226 26.5215 10.843 26.5669 10.9521C26.6124 11.0612 26.6897 11.1541 26.7888 11.2186C26.8879 11.283 27.004 11.316 27.1222 11.3133C27.9911 11.3469 28.8555 11.4564 29.7054 11.6407C30.1263 11.6878 30.5735 11.947 30.9725 11.7582C31.0746 11.7008 31.1571 11.6141 31.2095 11.5093C31.2619 11.4046 31.2819 11.2865 31.2667 11.1704C31.2516 11.0542 31.2021 10.9452 31.1246 10.8574C31.0471 10.7696 30.9451 10.707 30.8318 10.6776V10.6792Z" fill="#162B43"/>
<path d="M41.0874 6.80358C40.3605 5.13596 39.7028 3.42124 39.0214 1.73025C38.6695 1.21331 37.8247 1.63644 38.0122 2.24682C38.6243 3.96154 39.3264 5.6529 40.054 7.32053C40.1365 7.43063 40.255 7.50827 40.3887 7.53991C40.5225 7.57154 40.6632 7.55516 40.7861 7.49363C40.9091 7.43209 41.0066 7.32931 41.0616 7.2032C41.1166 7.07709 41.1256 6.93566 41.087 6.80358H41.0874Z" fill="#162B43"/>
<path d="M14.8733 29.7757C14.397 29.5443 13.8772 29.4163 13.3479 29.4001H12.644C12.761 28.5075 12.9722 27.5911 12.7847 26.6989C12.5973 25.8067 12.1275 25.1014 11.306 25.5245C10.907 25.8308 10.7662 26.3463 10.5791 26.7927C10.3006 27.5592 10.1809 28.3744 10.2271 29.1887V29.2354H9.61651C8.84177 29.2825 7.8566 29.4234 7.55052 30.1751C7.24445 30.9268 7.92584 31.1381 8.44234 31.279C8.96618 31.439 9.51622 31.4948 10.0615 31.4433H10.1319C10.0615 32.1709 10.0615 33.3932 10.4379 34.0273C10.8144 34.6614 11.2123 34.8494 11.7284 34.5676C12.2445 34.2857 12.292 33.9097 12.409 33.5103C12.5618 32.9022 12.6561 32.2808 12.6906 31.6547C13.3883 31.7287 14.092 31.5896 14.7092 31.2557C15.2253 30.9268 15.5069 30.1046 14.8733 29.7523V29.7757ZM14.2612 30.5033H14.2378C14.1204 30.6442 13.4868 30.8555 12.9703 30.8318C12.4538 30.8081 11.9144 30.5971 11.8206 31.2312C11.7269 31.8653 11.7502 32.4998 11.5145 33.3219C11.474 33.4789 11.4108 33.6292 11.3271 33.768C11.0688 33.4158 10.9514 32.5465 11.021 31.6072C11.0345 31.4259 11.058 31.2456 11.0914 31.0669C11.1132 31.0089 11.1203 30.9463 11.1121 30.8848C11.1039 30.8234 11.0806 30.7649 11.0443 30.7146C11.0045 30.656 10.9524 30.6067 10.8916 30.5702C10.8308 30.5337 10.7628 30.5108 10.6924 30.5033H10.5753L10.4108 30.55L10.1762 30.5971C10.317 30.5737 10.317 30.5737 10.1762 30.5737C9.75442 30.6334 9.32535 30.6174 8.9091 30.5266L8.58046 30.4328H8.48634L8.5334 30.3857L8.67419 30.3152C8.95578 30.1743 9.73014 30.0805 10.5282 30.1272C10.7005 30.143 10.8742 30.1352 11.0443 30.1039L11.1438 29.9637C11.1887 29.8934 11.2131 29.812 11.2142 29.7286V29.4223L11.1672 29.3752C11.0635 28.3726 11.2509 27.3613 11.707 26.4627L11.754 26.5331C11.9886 27.1672 11.8948 28.0836 11.7303 28.9995C11.7303 29.3989 11.4243 30.0097 11.9415 30.221C12.4588 30.4324 12.8333 30.1973 13.2806 30.2678C13.6115 30.2725 13.9379 30.345 14.2397 30.4807C14.2383 30.4989 14.2298 30.5158 14.216 30.5278L14.2612 30.5033Z" fill="#4ADEFF"/>
<path d="M100.438 43.0217C99.9527 42.793 99.4259 42.6652 98.8896 42.646H98.2089C98.3027 41.7301 98.5376 40.8375 98.326 39.9449C98.1144 39.0523 97.6691 38.3477 96.8722 38.7705C96.4513 39.0768 96.309 39.5926 96.1215 40.0154C95.8523 40.7922 95.7327 41.6132 95.7692 42.4347C95.7692 42.458 95.7692 42.4818 95.7929 42.4818H95.1593C94.4083 42.5285 93.4223 42.6694 93.1174 43.4211C92.8125 44.1727 93.4694 44.3841 93.9859 44.525C94.5097 44.6851 95.0598 44.741 95.605 44.6897H95.6754C95.605 45.441 95.605 46.6625 95.9815 47.2966C96.358 47.9307 96.7562 48.1188 97.2724 47.8369C97.7885 47.5551 97.8593 47.1794 97.9763 46.7801C98.1213 46.1712 98.2078 45.5498 98.2346 44.9244C98.9349 45.001 99.6414 44.8536 100.253 44.5032C100.79 44.1961 101.049 43.374 100.438 43.0217ZM99.8047 43.7492C99.4258 43.9841 98.9818 44.0914 98.5376 44.0556C98.0444 44.0793 97.4813 43.8442 97.3642 44.4768C97.2471 45.1094 97.2938 45.7454 97.0581 46.5675C96.9644 46.8739 97.011 46.8256 96.8703 47.0136C96.6124 46.6614 96.4949 45.7925 96.5887 44.8528C96.5887 44.759 96.6357 44.4063 96.6357 44.3125C96.661 44.2563 96.672 44.1948 96.6679 44.1333C96.6635 44.072 96.6445 44.0126 96.6124 43.9602C96.5171 43.8463 96.3835 43.7712 96.2367 43.7489H96.1196C96.0726 43.7722 96.0255 43.7722 95.9784 43.8193H95.7439C95.3222 43.8805 94.8928 43.8646 94.4768 43.7722L94.1248 43.6784C94.1247 43.6722 94.1222 43.6663 94.1179 43.6619C94.1157 43.6597 94.1131 43.6579 94.1102 43.6567C94.1073 43.6556 94.1042 43.655 94.1011 43.655H94.0307L94.0777 43.6079C94.1248 43.5846 94.1715 43.5375 94.2185 43.5375C94.2656 43.5375 95.2982 43.3024 96.0959 43.3495C96.2604 43.3261 96.4479 43.3728 96.5887 43.3024C96.6321 43.2748 96.6652 43.2336 96.6828 43.1852C96.7239 43.1111 96.7554 43.0321 96.7765 42.9501C96.758 42.8491 96.7501 42.7464 96.7532 42.6437L96.7061 42.5966C96.6258 41.5951 96.8121 40.5902 97.246 39.6841V39.637C97.2693 39.637 97.2693 39.6608 97.2926 39.6841C97.3016 39.6933 97.3084 39.7045 97.3125 39.7167C97.3166 39.7289 97.3179 39.7418 97.3164 39.7546C97.5746 40.3673 97.4572 41.305 97.3164 42.221C97.293 42.6204 96.9877 43.2308 97.5275 43.4421C98.0674 43.6535 98.396 43.4188 98.8417 43.4659C99.181 43.4886 99.5141 43.5679 99.8273 43.7006L99.7806 43.7477L99.8047 43.7492Z" fill="#162B43"/>
</g>
<defs>
<clipPath id="clip0_222_5238">
<rect width="99.5" height="104" fill="white" transform="translate(2)"/>
</clipPath>
</defs>
</svg>
