<svg width="58" height="31" viewBox="0 0 58 31" fill="none" xmlns="http://www.w3.org/2000/svg">
<rect x="1" y="1" width="56" height="29.0134" rx="4" fill="white" stroke="#FAFAFA"/>
<g clip-path="url(#clip0_228_101)">
<path d="M25.8266 23.1916H21.9707L24.3825 7.80664H28.2382L25.8266 23.1916Z" fill="#00579F"/>
<path d="M39.8048 8.18234C39.0441 7.87105 37.838 7.52734 36.3464 7.52734C32.5384 7.52734 29.8571 9.62221 29.8404 12.6172C29.809 14.827 31.7604 16.0543 33.22 16.7911C34.7118 17.544 35.2188 18.0354 35.2188 18.7065C35.2038 19.7372 34.0133 20.2123 32.9033 20.2123C31.3639 20.2123 30.539 19.9673 29.2854 19.3939L28.7776 19.1481L28.238 22.6017C29.1424 23.0267 30.8086 23.4039 32.5384 23.4205C36.5844 23.4205 39.2184 21.358 39.2495 18.1664C39.265 16.415 38.2345 15.073 36.013 13.9764C34.6642 13.2725 33.8384 12.7978 33.8384 12.0775C33.8543 11.4227 34.5369 10.7521 36.0594 10.7521C37.3129 10.7192 38.234 11.0301 38.9316 11.3412L39.2805 11.5046L39.8048 8.18234Z" fill="#00579F"/>
<path d="M44.9296 17.7413C45.2471 16.8574 46.469 13.4367 46.469 13.4367C46.453 13.4695 46.786 12.5365 46.9764 11.9637L47.2458 13.2894C47.2458 13.2894 47.976 16.9721 48.1347 17.7413C47.5321 17.7413 45.6912 17.7413 44.9296 17.7413ZM49.6893 7.80664H46.7067C45.7868 7.80664 45.0881 8.08465 44.6913 9.08314L38.9639 23.1914H43.0096C43.0096 23.1914 43.6758 21.2925 43.8191 20.8836C44.2629 20.8836 48.1987 20.8836 48.7697 20.8836C48.8804 21.4237 49.2298 23.1914 49.2298 23.1914H52.8L49.6893 7.80664Z" fill="#00579F"/>
<path d="M18.75 7.80664L14.9737 18.2977L14.5611 16.17C13.8629 13.7149 11.6734 11.0475 9.22998 9.72117L12.6889 23.1753H16.7664L22.8273 7.80664H18.75Z" fill="#00579F"/>
<path d="M11.4672 7.80664H5.26342L5.19995 8.1175C10.0393 9.39421 13.2443 12.4717 14.5611 16.1707L13.2125 9.09989C12.9905 8.11728 12.3081 7.83905 11.4672 7.80664Z" fill="#FAA61A"/>
</g>
<defs>
<clipPath id="clip0_228_101">
<rect x="5.19995" y="7.52734" width="47.6" height="15.96" rx="4" fill="white"/>
</clipPath>
</defs>
</svg>
