<svg width="58" height="31" viewBox="0 0 58 31" fill="none" xmlns="http://www.w3.org/2000/svg">
<rect x="1" y="1" width="56" height="29.0134" rx="4" fill="white" stroke="#FAFAFA"/>
<g clip-path="url(#clip0_228_118)">
<path d="M43.0646 26.7756V26.8379H43.1209C43.1333 26.8379 43.1439 26.835 43.1516 26.83C43.1587 26.8253 43.1627 26.8169 43.1627 26.8065C43.1627 26.7964 43.1587 26.7885 43.1516 26.7835C43.1439 26.7781 43.1333 26.7756 43.1209 26.7756H43.0646ZM43.1213 26.7323C43.1503 26.7323 43.1729 26.7388 43.1888 26.7521C43.2047 26.7654 43.2125 26.7835 43.2125 26.8065C43.2125 26.826 43.2065 26.8415 43.1935 26.8544C43.1811 26.8664 43.1634 26.8743 43.1397 26.8772L43.2143 26.9648H43.1563L43.0872 26.8779H43.0646V26.9648H43.0162V26.7323H43.1213ZM43.1067 27.0455C43.1333 27.0455 43.158 27.0398 43.1804 27.0296C43.2036 27.0193 43.2236 27.0055 43.2408 26.9879C43.2579 26.9705 43.2716 26.9499 43.2815 26.9255C43.2911 26.9021 43.2964 26.8768 43.2964 26.8494C43.2964 26.8223 43.2911 26.7968 43.2815 26.7733C43.2716 26.7496 43.2579 26.7286 43.2408 26.711C43.2236 26.6934 43.2036 26.6796 43.1804 26.6692C43.158 26.6595 43.1333 26.6548 43.1067 26.6548C43.0801 26.6548 43.0547 26.6595 43.0317 26.6692C43.008 26.6796 42.9872 26.6934 42.9701 26.711C42.9529 26.7286 42.9394 26.7496 42.9299 26.7733C42.9199 26.7968 42.9153 26.8223 42.9153 26.8494C42.9153 26.8768 42.9199 26.9021 42.9299 26.9255C42.9394 26.9499 42.9529 26.9705 42.9701 26.9879C42.9872 27.0055 43.008 27.0193 43.0317 27.0296C43.0547 27.0398 43.0801 27.0455 43.1067 27.0455ZM43.1067 26.5986C43.1414 26.5986 43.1733 26.6051 43.2041 26.6184C43.2342 26.6313 43.2603 26.6494 43.2833 26.6724C43.3059 26.6948 43.3236 26.7214 43.3364 26.7521C43.3495 26.7824 43.3559 26.8151 43.3559 26.8494C43.3559 26.884 43.3495 26.9165 43.3364 26.9468C43.3236 26.977 43.3059 27.0037 43.2833 27.0267C43.2603 27.0491 43.2342 27.0671 43.2041 27.0805C43.1733 27.0938 43.1414 27.1003 43.1067 27.1003C43.0711 27.1003 43.0388 27.0938 43.008 27.0805C42.9772 27.0671 42.9507 27.0491 42.9281 27.0267C42.9057 27.0037 42.888 26.977 42.875 26.9468C42.8619 26.9165 42.8555 26.884 42.8555 26.8494C42.8555 26.8151 42.8619 26.7824 42.875 26.7521C42.888 26.7214 42.9057 26.6948 42.9281 26.6724C42.9507 26.6494 42.9772 26.6313 43.008 26.6184C43.0388 26.6051 43.0711 26.5986 43.1067 26.5986ZM20.0822 25.702C20.0822 25.2582 20.3664 24.8937 20.8309 24.8937C21.2747 24.8937 21.5743 25.2425 21.5743 25.702C21.5743 26.1614 21.2747 26.5103 20.8309 26.5103C20.3664 26.5103 20.0822 26.1458 20.0822 25.702ZM22.0802 25.702V24.4397H21.5436V24.7462C21.3734 24.5188 21.1152 24.3762 20.7641 24.3762C20.0721 24.3762 19.5296 24.9312 19.5296 25.702C19.5296 26.4735 20.0721 27.0278 20.7641 27.0278C21.1152 27.0278 21.3734 26.8851 21.5436 26.6577V26.9644H22.0802V25.702ZM40.2133 25.702C40.2133 25.2582 40.4975 24.8937 40.9621 24.8937C41.4065 24.8937 41.7055 25.2425 41.7055 25.702C41.7055 26.1614 41.4065 26.5103 40.9621 26.5103C40.4975 26.5103 40.2133 26.1458 40.2133 25.702ZM42.2119 25.702V23.4258H41.6747V24.7462C41.5045 24.5188 41.2463 24.3762 40.8952 24.3762C40.2032 24.3762 39.6607 24.9312 39.6607 25.702C39.6607 26.4735 40.2032 27.0278 40.8952 27.0278C41.2463 27.0278 41.5045 26.8851 41.6747 26.6577V26.9644H42.2119V25.702ZM28.7409 24.8677C29.0866 24.8677 29.3088 25.0896 29.3656 25.4801H28.085C28.1423 25.1156 28.3586 24.8677 28.7409 24.8677ZM28.7516 24.3762C28.0282 24.3762 27.5224 24.9148 27.5224 25.702C27.5224 26.5049 28.0489 27.0278 28.7876 27.0278C29.1593 27.0278 29.4997 26.933 29.7993 26.6742L29.5364 26.2673C29.3295 26.436 29.066 26.5315 28.8183 26.5315C28.4726 26.5315 28.1576 26.3676 28.0802 25.913H29.9128C29.9181 25.8446 29.9235 25.7757 29.9235 25.702C29.9181 24.9148 29.443 24.3762 28.7516 24.3762ZM35.2309 25.702C35.2309 25.2582 35.5151 24.8937 35.9796 24.8937C36.4234 24.8937 36.7231 25.2425 36.7231 25.702C36.7231 26.1614 36.4234 26.5103 35.9796 26.5103C35.5151 26.5103 35.2309 26.1458 35.2309 25.702ZM37.229 25.702V24.4397H36.6923V24.7462C36.5214 24.5188 36.2638 24.3762 35.9128 24.3762C35.2208 24.3762 34.6783 24.9312 34.6783 25.702C34.6783 26.4735 35.2208 27.0278 35.9128 27.0278C36.2638 27.0278 36.5214 26.8851 36.6923 26.6577V26.9644H37.229V25.702ZM32.2004 25.702C32.2004 26.4681 32.7216 27.0278 33.5171 27.0278C33.8888 27.0278 34.1364 26.9432 34.4047 26.7268L34.1471 26.2829C33.9455 26.431 33.734 26.5103 33.5011 26.5103C33.0727 26.5049 32.7577 26.188 32.7577 25.702C32.7577 25.2159 33.0727 24.8991 33.5011 24.8937C33.734 24.8937 33.9455 24.9729 34.1471 25.121L34.4047 24.6773C34.1364 24.4608 33.8888 24.3762 33.5171 24.3762C32.7216 24.3762 32.2004 24.936 32.2004 25.702ZM39.1189 24.3762C38.8093 24.3762 38.6076 24.5243 38.4682 24.7462V24.4397H37.9364V26.9644H38.4735V25.549C38.4735 25.1313 38.649 24.8991 39 24.8991C39.1087 24.8991 39.2223 24.9148 39.3358 24.9626L39.5011 24.4451C39.3825 24.3973 39.2276 24.3762 39.1189 24.3762ZM24.7342 24.6404C24.476 24.4663 24.1202 24.3762 23.7278 24.3762C23.1026 24.3762 22.7001 24.6827 22.7001 25.1845C22.7001 25.5962 22.9997 25.85 23.5517 25.9293L23.8052 25.9663C24.0995 26.0085 24.2384 26.0878 24.2384 26.2305C24.2384 26.4256 24.0422 26.5369 23.6758 26.5369C23.3041 26.5369 23.0358 26.4154 22.8549 26.2727L22.602 26.7002C22.8963 26.9219 23.268 27.0278 23.6705 27.0278C24.3832 27.0278 24.7963 26.6844 24.7963 26.2039C24.7963 25.7601 24.4712 25.5279 23.934 25.4487L23.6811 25.4112C23.4489 25.3798 23.2627 25.3326 23.2627 25.1633C23.2627 24.9783 23.4382 24.8677 23.7325 24.8677C24.0475 24.8677 24.3524 24.9892 24.502 25.0841L24.7342 24.6404ZM31.6579 24.3762C31.3482 24.3762 31.1467 24.5243 31.0079 24.7462V24.4397H30.476V26.9644H31.0126V25.549C31.0126 25.1313 31.1881 24.8991 31.5391 24.8991C31.6479 24.8991 31.7613 24.9148 31.8748 24.9626L32.0403 24.4451C31.9215 24.3973 31.7667 24.3762 31.6579 24.3762ZM27.0785 24.4397H26.201V23.6737H25.6585V24.4397H25.1579V24.9414H25.6585V26.0932C25.6585 26.679 25.8807 27.0278 26.5154 27.0278C26.7482 27.0278 27.0165 26.954 27.1867 26.8325L27.0319 26.3621C26.8717 26.4572 26.6962 26.5049 26.5567 26.5049C26.2884 26.5049 26.201 26.3355 26.201 26.0824V24.9414H27.0785V24.4397ZM19.0551 26.9644V25.3798C19.0551 24.783 18.6833 24.3816 18.0841 24.3762C17.7691 24.3707 17.4441 24.4711 17.2166 24.8254C17.0464 24.5454 16.7781 24.3762 16.4011 24.3762C16.1375 24.3762 15.8798 24.4554 15.6783 24.751V24.4397H15.1411V26.9644H15.683V25.5648C15.683 25.1264 15.9206 24.8937 16.2876 24.8937C16.6439 24.8937 16.8242 25.1313 16.8242 25.5593V26.9644H17.3667V25.5648C17.3667 25.1264 17.6143 24.8937 17.9706 24.8937C18.337 24.8937 18.5125 25.1313 18.5125 25.5593V26.9644H19.0551Z" fill="#162B43"/>
<path d="M43.3956 18.5685V18.1992H43.3017L43.1929 18.4528L43.0849 18.1992H42.9903V18.5685H43.057V18.29L43.1588 18.5303H43.2278L43.3294 18.2894V18.5685H43.3956ZM42.7993 18.5685V18.2622H42.92V18.1998H42.6125V18.2622H42.7332V18.5685H42.7993Z" fill="#F79410"/>
<path d="M32.711 20.1554H24.5784V5.20312H32.711V20.1554Z" fill="#FF5F00"/>
<path d="M25.0992 12.6773C25.0992 9.64416 26.4873 6.94233 28.6491 5.20115C27.0682 3.92792 25.0732 3.16797 22.9049 3.16797C17.7718 3.16797 13.6108 7.42538 13.6108 12.6773C13.6108 17.9292 17.7718 22.1867 22.9049 22.1867C25.0732 22.1867 27.0682 21.4267 28.6491 20.1535C26.4873 18.4123 25.0992 15.7105 25.0992 12.6773Z" fill="#EB001B"/>
<path d="M43.6794 12.6773C43.6794 17.9292 39.5185 22.1867 34.3854 22.1867C32.2171 22.1867 30.222 21.4267 28.6406 20.1535C30.803 18.4123 32.1911 15.7105 32.1911 12.6773C32.1911 9.64416 30.803 6.94233 28.6406 5.20115C30.222 3.92792 32.2171 3.16797 34.3854 3.16797C39.5185 3.16797 43.6794 7.42538 43.6794 12.6773Z" fill="#F79E1B"/>
</g>
<defs>
<clipPath id="clip0_228_118">
<rect x="13.5996" y="3.17578" width="30.1" height="23.936" rx="4" fill="white"/>
</clipPath>
</defs>
</svg>
